<?xml version="1.0" standalone="no"?>
<!DOCTYPE svg PUBLIC "-//W3C//DTD SVG 1.1//EN" "http://www.w3.org/Graphics/SVG/1.1/DTD/svg11.dtd" >
<svg xmlns="http://www.w3.org/2000/svg" xmlns:xlink="http://www.w3.org/1999/xlink" version="1.1">
<metadata>
Created by FontForge 20160407 at Tue May 31 12:17:39 2016
 By Jimmy Wärting
Copyright 2006, 2009 for TeX Gyre extensions by B. Jackowski and J.M. Nowacki (on behalf of TeX users groups). This work is released under the GUST Font License --  see http://tug.org/fonts/licenses/GUST-FONT-LICENSE.txt for details.
</metadata>
<defs>
<font id="TeXGyreSchola-BoldItalic" horiz-adv-x="333" >
  <font-face 
    font-family="TeXGyreSchola"
    font-weight="700"
    font-style="italic"
    font-stretch="normal"
    units-per-em="1000"
    panose-1="0 0 8 0 0 0 0 0 0 0"
    ascent="798"
    descent="-202"
    x-height="478"
    cap-height="722"
    bbox="-599 -371 1538 1162"
    underline-thickness="54"
    underline-position="-102"
    slope="-15"
    stemh="54"
    stemv="155"
    unicode-range="U+0020-FB04"
  />
<missing-glyph horiz-adv-x="280" 
 />
    <glyph glyph-name="I_J" unicode="IJ" horiz-adv-x="1076" 
d="M456 0h-373l7 54h20c42 0 53 4 63 14c9 8 9 8 27 76l116 434c10 34 14 54 14 63c0 22 -14 27 -79 27h-22l8 54h373l-7 -54h-21c-42 0 -52 -4 -62 -14c-9 -7 -9 -7 -27 -76l-116 -434c-14 -55 -14 -55 -14 -63c0 -22 14 -27 79 -27h22zM1211 668h-20c-42 0 -50 -4 -61 -14
c-8 -8 -8 -8 -26 -76l-82 -304c-35 -130 -35 -130 -52 -161c-49 -89 -124 -128 -244 -128c-151 0 -235 66 -235 184c0 93 55 159 133 159c64 0 107 -39 107 -97c0 -52 -38 -93 -87 -93c-24 0 -63 22 -67 22c-12 0 -18 -9 -18 -25c0 -52 49 -93 111 -93c47 0 92 27 120 72
c22 36 25 44 52 146l85 318c10 36 14 54 14 63c0 22 -14 27 -79 27h-30l8 54h378z" />
    <glyph glyph-name="i_j" unicode="ij" horiz-adv-x="787" 
d="M476 149c-68 -114 -131 -164 -207 -164c-60 0 -104 38 -104 90c0 19 2 30 15 74l51 170c11 37 15 56 15 67c0 25 -12 31 -61 31h-24l7 47l267 14l-105 -356c-9 -31 -10 -34 -10 -42c0 -9 7 -16 16 -16c20 0 53 37 101 113zM464 631c0 -40 -32 -72 -72 -72
c-39 0 -71 33 -71 72s32 71 72 71c39 0 71 -32 71 -71zM871 478l-119 -403c-31 -103 -47 -140 -86 -187c-47 -59 -109 -90 -178 -90c-84 0 -146 47 -146 112c0 49 32 83 78 83s74 -29 74 -75c0 -26 -5 -35 -28 -49c-4 -2 -6 -6 -6 -10c0 -7 7 -12 17 -12c39 0 60 34 95 153
l95 319c11 38 15 56 15 67c0 25 -12 31 -61 31h-32l7 47zM898 631c0 -40 -32 -72 -72 -72c-39 0 -71 33 -71 72s32 71 72 71c39 0 71 -32 71 -71z" />
    <glyph glyph-name="f_k" unicode="fk" horiz-adv-x="1017" 
d="M953 135c-51 -105 -105 -150 -181 -150c-65 0 -102 39 -102 108c0 18 2 36 5 55c3 14 4 25 4 33c0 5 -1 10 -5 17c-8 -1 -16 -1 -21 -1c-22 0 -36 11 -36 29s15 31 36 31c13 0 21 -2 46 -13c76 25 114 61 114 107c0 27 -19 45 -47 45c-36 0 -71 -24 -117 -80
c-40 -48 -62 -96 -91 -193l-37 -123h-157l171 578l1 2c-14 -20 -37 -32 -64 -32c-39 0 -68 28 -68 66c0 20 4 31 24 57c3 3 5 9 5 9c0 6 -10 10 -22 10c-48 0 -70 -39 -106 -185l-10 -41h127l-16 -61h-125l-47 -214c-30 -141 -66 -272 -101 -368l-181 -26
c28 44 69 163 117 338l64 270h-99l17 61h98c27 97 52 150 92 194c50 54 105 79 172 79c27 0 51 -5 71 -14l256 13l-109 -365c78 81 129 108 201 108c70 0 118 -40 118 -98c0 -47 -32 -90 -92 -123c-28 -16 -57 -28 -102 -43c46 -26 56 -48 63 -131c1 -12 7 -19 16 -19
c23 0 51 35 75 93z" />
    <glyph glyph-name="f_f" unicode="ff" horiz-adv-x="778" 
d="M939 627c0 -46 -33 -79 -78 -79c-39 0 -68 28 -68 66c0 20 4 31 24 57c3 3 5 9 5 9c0 6 -10 10 -22 10c-48 0 -70 -39 -106 -185l-10 -41h127l-16 -61h-125l-47 -214c-30 -141 -66 -272 -101 -368l-181 -26c28 44 69 163 117 338l64 270h-241l-47 -214
c-30 -141 -66 -272 -101 -368l-181 -26c28 44 69 163 117 338l64 270h-99l17 61h98c27 97 52 150 92 194c50 54 105 79 172 79c80 0 137 -46 137 -110c0 -46 -33 -79 -78 -79c-39 0 -68 28 -68 66c0 20 4 31 24 57c3 3 5 9 5 9c0 6 -10 10 -22 10c-48 0 -70 -39 -106 -185
l-10 -41h243c27 97 52 150 92 194c50 54 105 79 172 79c80 0 137 -46 137 -110z" />
    <glyph glyph-name="f_i" unicode="fi" horiz-adv-x="685" 
d="M646 149c-68 -114 -131 -164 -207 -164c-60 0 -104 38 -104 90c0 20 2 30 15 74l47 157c10 35 16 61 16 70c0 15 -13 27 -30 27h-124l-47 -215c-30 -141 -65 -270 -101 -367l-181 -26c28 44 70 165 117 337l64 271h-99l17 61h98c66 196 155 273 315 273
c103 0 171 -44 171 -112c0 -45 -34 -79 -80 -79s-77 28 -77 69c0 16 4 28 16 46c7 9 8 11 8 15c0 9 -12 14 -33 14c-34 0 -65 -14 -94 -45c-35 -36 -58 -88 -80 -181h65c67 0 135 4 267 14l-105 -356c-9 -30 -10 -34 -10 -42c0 -9 7 -16 16 -16c20 0 53 36 101 113z" />
    <glyph glyph-name="f_l" unicode="fl" horiz-adv-x="685" 
d="M650 149c-21 -38 -51 -75 -86 -108c-41 -39 -78 -56 -125 -56c-61 0 -102 37 -102 91c0 23 5 49 22 107l116 391c-18 15 -25 27 -25 47c0 18 5 29 23 49c3 3 4 7 4 7c0 7 -15 12 -37 12c-52 0 -92 -32 -124 -97c-16 -32 -27 -63 -43 -128h127l-16 -61h-125l-47 -215
c-30 -141 -65 -270 -101 -367l-181 -26c28 44 70 165 117 337l64 271h-99l17 61h98c39 114 61 155 104 194c53 48 129 78 200 78c30 0 58 -5 87 -15l163 15l-182 -614c-2 -6 -4 -12 -5 -16c-3 -10 -5 -20 -5 -26c0 -9 7 -16 16 -16c15 0 33 15 60 49c21 26 35 45 46 64z" />
    <glyph glyph-name="f_f_i" unicode="&#xfb00;i" horiz-adv-x="1084" 
d="M1045 149c-68 -114 -131 -164 -207 -164c-60 0 -104 38 -104 90c0 20 2 30 15 74l47 157c10 35 16 61 16 70c0 15 -13 27 -30 27h-124l-47 -215c-30 -141 -65 -270 -101 -367l-181 -26c28 44 70 165 117 337l64 271h-229l-47 -214c-30 -141 -66 -272 -101 -368l-181 -26
c28 44 69 163 117 338l64 270h-99l17 61h98c27 97 52 150 92 194c50 54 105 79 172 79c80 0 137 -46 137 -110c0 -46 -33 -79 -78 -79c-39 0 -68 28 -68 66c0 20 4 31 24 57c3 3 5 9 5 9c0 6 -10 10 -22 10c-48 0 -70 -39 -106 -185l-10 -41h231c66 196 155 273 315 273
c103 0 171 -44 171 -112c0 -45 -34 -79 -80 -79s-77 28 -77 69c0 16 4 28 16 46c7 9 8 11 8 15c0 9 -12 14 -33 14c-34 0 -65 -14 -94 -45c-35 -36 -58 -88 -80 -181h65c67 0 135 4 267 14l-105 -356c-9 -30 -10 -34 -10 -42c0 -9 7 -16 16 -16c20 0 53 36 101 113z" />
    <glyph glyph-name="f_f_l" unicode="ffl" horiz-adv-x="1074" 
d="M1039 149c-21 -38 -51 -75 -86 -108c-41 -39 -78 -56 -125 -56c-61 0 -102 37 -102 91c0 23 5 49 22 107l116 391c-18 15 -25 27 -25 47c0 18 5 29 23 49c3 3 4 7 4 7c0 7 -15 12 -37 12c-52 0 -92 -32 -124 -97c-16 -32 -27 -63 -43 -128h127l-16 -61h-125l-47 -215
c-30 -141 -65 -270 -101 -367l-181 -26c28 44 70 165 117 337l64 271h-219l-47 -214c-30 -141 -66 -272 -101 -368l-181 -26c28 44 69 163 117 338l64 270h-99l17 61h98c27 97 52 150 92 194c50 54 105 79 172 79c80 0 137 -46 137 -110c0 -46 -33 -79 -78 -79
c-39 0 -68 28 -68 66c0 20 4 31 24 57c3 3 5 9 5 9c0 6 -10 10 -22 10c-48 0 -70 -39 -106 -185l-10 -41h221c39 114 61 155 104 194c53 48 129 78 200 78c30 0 58 -5 87 -15l163 15l-182 -614c-2 -6 -4 -12 -5 -16c-3 -10 -5 -20 -5 -26c0 -9 7 -16 16 -16
c15 0 33 15 60 49c21 26 35 45 46 64z" />
    <glyph glyph-name=".notdef" horiz-adv-x="280" 
 />
    <glyph glyph-name="space" unicode=" " horiz-adv-x="287" 
 />
    <glyph glyph-name="exclam" unicode="!" 
d="M336 657c0 -32 0 -32 -55 -143c-60 -120 -84 -179 -129 -311l-52 13c30 135 47 252 51 351c4 90 7 110 24 135c15 22 38 35 63 35c58 0 98 -33 98 -80zM177 72c0 -48 -39 -87 -88 -87c-47 0 -86 40 -86 87c0 48 39 87 87 87s87 -39 87 -87z" />
    <glyph glyph-name="quotedbl" unicode="&#x22;" horiz-adv-x="400" 
d="M269 663c0 -16 -5 -34 -16 -54l-107 -212l-46 13l21 236c5 57 31 88 74 88c42 0 74 -31 74 -71zM507 663c0 -16 -5 -34 -16 -54l-107 -212l-46 13l21 236c5 57 31 88 74 88c42 0 74 -31 74 -71z" />
    <glyph glyph-name="numbersign" unicode="#" horiz-adv-x="574" 
d="M507 221h-106l-32 -221h-90l32 221h-86l-32 -221h-90l32 221h-94v83h106l16 108h-96v83h107l30 205h90l-30 -205h86l29 205h90l-29 -205h93v-83h-105l-15 -108h94v-83zM322 304l16 108h-85l-16 -108h85z" />
    <glyph glyph-name="dollar" unicode="$" horiz-adv-x="574" 
d="M500 212c0 -88 -61 -173 -149 -206c-29 -11 -88 -21 -124 -21h-9l-35 -130h-54l37 136c-100 19 -163 81 -163 160c0 60 36 100 90 100c44 0 76 -29 76 -70c0 -28 -14 -49 -42 -63c-20 -11 -25 -16 -25 -27c0 -20 28 -39 77 -51l66 245l-14 7c-90 42 -135 103 -135 183
c0 131 101 219 250 219h8l27 100h54l-28 -106c95 -17 152 -76 152 -156c0 -53 -33 -89 -83 -89c-43 0 -72 29 -72 72c0 32 13 50 46 64c9 4 13 8 13 15c0 19 -30 38 -69 46l-61 -226l26 -12c89 -43 141 -113 141 -190zM381 153c0 49 -24 78 -88 110l-62 -229
c88 2 150 51 150 119zM286 438l55 206c-84 -3 -133 -45 -133 -111c0 -43 24 -72 78 -95z" />
    <glyph glyph-name="percent" unicode="%" horiz-adv-x="889" 
d="M676 722l-414 -722h-52l352 615c-43 -14 -66 -18 -98 -18c-22 0 -37 2 -63 9c2 -17 3 -27 3 -37c0 -121 -109 -254 -220 -254c-77 0 -133 54 -133 128c0 120 117 265 236 265c40 0 67 -14 93 -48c28 -14 53 -20 87 -20c70 0 119 25 162 82h47zM364 582c0 13 -2 24 -6 37
c-26 10 -40 19 -58 39c-37 -13 -49 -25 -85 -89c-45 -79 -60 -117 -60 -151c0 -32 21 -54 51 -54c76 0 158 113 158 218zM836 283c0 -110 -94 -269 -220 -269c-78 0 -135 53 -135 126c0 125 114 267 233 267c71 0 122 -52 122 -124zM794 280c0 42 -25 76 -57 76
c-28 0 -53 -22 -82 -69c-52 -86 -72 -134 -72 -172c0 -29 22 -52 50 -52c77 0 161 114 161 217z" />
    <glyph glyph-name="ampersand" unicode="&#x26;" horiz-adv-x="889" 
d="M806 120c-58 -90 -131 -135 -217 -135c-58 0 -112 22 -150 63c-59 -42 -121 -63 -191 -63c-129 0 -217 78 -217 194c0 126 81 187 239 246c-12 46 -15 70 -15 103c0 137 82 209 217 209c112 0 182 -53 182 -138c0 -82 -61 -131 -215 -174c17 -70 62 -177 102 -243
c65 67 85 95 85 122c0 22 -5 36 -85 42l6 51h276l-6 -51c-71 -6 -91 -21 -184 -143c-10 -13 -32 -37 -64 -69c45 -54 64 -67 94 -67c31 0 65 27 104 83zM540 612c0 43 -25 73 -61 73c-43 0 -69 -41 -69 -110c0 -32 4 -60 15 -98c74 29 115 76 115 135zM406 90
c-53 85 -91 173 -123 282c-56 -26 -84 -70 -84 -132c0 -97 58 -171 135 -171c26 0 43 5 72 21z" />
    <glyph glyph-name="quotesingle" unicode="'" horiz-adv-x="287" 
d="M269 663c0 -16 -5 -34 -16 -54l-107 -212l-46 13l21 236c5 57 31 88 74 88c42 0 74 -31 74 -71z" />
    <glyph glyph-name="parenleft" unicode="(" horiz-adv-x="407" 
d="M251 -96l-30 -22c-96 97 -150 226 -150 356c0 211 150 415 365 499l16 -32c-93 -54 -144 -113 -189 -216c-44 -102 -78 -264 -78 -372c0 -79 22 -150 66 -213z" />
    <glyph glyph-name="parenright" unicode=")" horiz-adv-x="407" 
d="M308 381c0 -210 -150 -417 -362 -499l-16 32c91 53 141 112 186 216c44 103 78 265 78 372c0 79 -22 150 -66 213l30 22c96 -97 150 -226 150 -356z" />
    <glyph glyph-name="asterisk" unicode="*" horiz-adv-x="500" 
d="M472 563c0 -29 -26 -52 -59 -52c-11 0 -11 0 -47 7c-11 3 -21 4 -27 4c-13 0 -26 -2 -44 -7l-17 -5l12 -12c31 -30 31 -30 84 -47c33 -11 52 -32 52 -59s-22 -49 -49 -49c-17 0 -33 9 -45 24c-8 10 -9 12 -22 52c-8 25 -15 36 -38 60l-13 13l-5 -18c-5 -18 -7 -32 -7 -44
c0 -9 0 -10 9 -52c2 -7 3 -15 3 -22c0 -32 -24 -59 -53 -59c-26 0 -46 22 -46 50c0 22 5 31 37 70c17 20 22 31 31 64l5 18l-17 -5c-41 -12 -42 -13 -82 -50c-17 -14 -34 -22 -51 -22c-28 0 -51 21 -51 48c0 28 27 51 61 51c10 0 10 0 45 -6c10 -2 18 -3 24 -3
c12 0 28 3 47 8l17 4l-12 13c-31 29 -33 30 -84 46c-33 11 -52 33 -52 60c0 26 20 47 45 47c18 0 35 -9 47 -25c8 -11 9 -13 23 -50c9 -25 15 -34 39 -59l13 -13l5 17c5 18 7 33 7 44c0 10 0 11 -9 52c-2 8 -3 16 -3 23c0 31 24 58 53 58c27 0 49 -23 49 -51
c0 -23 -5 -31 -39 -69c-18 -20 -23 -31 -33 -64l-4 -17l17 5c40 12 41 12 82 49c17 15 33 22 51 22c28 0 51 -22 51 -49z" />
    <glyph glyph-name="plus" unicode="+" horiz-adv-x="606" 
d="M557 200h-209v-209h-100v209h-209v100h209v209h100v-209h209v-100z" />
    <glyph glyph-name="comma" unicode="," horiz-adv-x="287" 
d="M180 43c0 -97 -73 -177 -207 -230l-21 41c90 41 134 86 134 137c-10 -2 -16 -2 -24 -2c-49 0 -78 29 -78 79c0 53 39 91 94 91c61 0 102 -47 102 -116z" />
    <glyph glyph-name="hyphen" unicode="-" 
d="M272 310l-35 -130h-227l35 130h227z" />
    <glyph glyph-name="period" unicode="." horiz-adv-x="287" 
d="M186 72c0 -48 -39 -87 -88 -87c-47 0 -86 40 -86 87c0 48 39 87 87 87s87 -39 87 -87z" />
    <glyph glyph-name="slash" unicode="/" horiz-adv-x="278" 
d="M311 737l-262 -752h-74l262 752h74z" />
    <glyph glyph-name="zero" unicode="0" horiz-adv-x="574" 
d="M553 452c0 -250 -155 -467 -332 -467c-121 0 -200 99 -200 251c0 245 164 469 337 469c119 0 195 -99 195 -253zM340 209c35 114 66 286 66 363c0 53 -20 84 -53 84c-47 0 -88 -63 -123 -187c-33 -119 -64 -293 -64 -362c0 -44 22 -71 57 -71c47 0 78 45 117 173z" />
    <glyph glyph-name="one" unicode="1" horiz-adv-x="574" 
d="M447 0h-422l8 54h51c42 0 66 4 76 14c8 7 8 7 27 76l100 377c12 41 19 64 -37 64h-90l13 50c101 4 230 38 275 72h41l-151 -563c-8 -32 -13 -54 -13 -63c0 -22 14 -27 79 -27h50z" />
    <glyph glyph-name="two" unicode="2" horiz-adv-x="574" 
d="M501 234l-85 -234h-456v6c0 41 46 97 175 208c98 85 150 135 179 172c38 47 60 103 60 151c0 63 -45 107 -109 107c-53 0 -106 -35 -106 -70c0 -15 6 -20 39 -35c36 -16 52 -38 52 -72c0 -48 -33 -81 -81 -81c-57 0 -98 46 -98 110c0 120 106 209 251 209
c131 0 216 -73 216 -182c0 -69 -42 -137 -121 -199c-19 -15 -19 -14 -192 -119c-56 -34 -85 -55 -100 -70h196c69 0 84 13 127 95l10 19z" />
    <glyph glyph-name="three" unicode="3" horiz-adv-x="574" 
d="M488 210c0 -129 -118 -225 -278 -225c-132 0 -215 62 -215 163c0 60 37 101 91 101c48 0 81 -32 81 -77c0 -36 -19 -60 -52 -70c-17 -6 -20 -10 -20 -20c0 -23 44 -47 85 -47c97 0 144 106 144 210c0 61 -24 94 -67 94c-9 0 -9 0 -31 -6c-8 -3 -16 -4 -23 -4
c-22 0 -35 13 -35 34s13 35 33 35c13 0 42 -12 58 -12c74 0 123 98 123 169c0 61 -32 97 -87 97c-41 0 -83 -20 -83 -40c0 -4 2 -7 7 -12c34 -27 43 -41 43 -68c0 -40 -34 -71 -77 -71c-48 0 -82 36 -82 87c0 88 98 157 222 157c126 0 213 -66 213 -160
c0 -93 -72 -160 -194 -184c103 -27 144 -68 144 -151z" />
    <glyph glyph-name="four" unicode="4" horiz-adv-x="574" 
d="M524 184h-120l-11 -40c-9 -33 -13 -54 -13 -63c0 -22 14 -27 79 -27h18l-7 -54h-363l7 54h25c42 0 66 4 76 14c8 8 8 8 27 76l10 40h-265v55l462 468h95l-122 -457h113zM344 525l-267 -275h193z" />
    <glyph glyph-name="five" unicode="5" horiz-adv-x="574" 
d="M510 268c0 -162 -129 -283 -304 -283c-126 0 -206 61 -206 157c0 61 37 102 92 102c48 0 80 -30 80 -75c0 -39 -20 -66 -59 -78c-8 -3 -12 -7 -12 -12c0 -23 39 -43 83 -43c90 0 161 98 161 220c0 82 -38 131 -101 131c-26 0 -44 -5 -92 -26c-5 -38 -24 -58 -53 -58
c-19 0 -33 15 -33 35c0 22 13 38 39 50l92 317c80 -19 154 -29 220 -29c55 0 90 7 140 26c6 2 10 3 10 3c4 0 6 -3 6 -8c0 -31 -27 -81 -58 -108c-42 -36 -97 -52 -177 -52c-43 0 -52 1 -115 14l-10 2l-38 -129c51 19 88 27 133 27c122 0 202 -72 202 -183z" />
    <glyph glyph-name="six" unicode="6" horiz-adv-x="574" 
d="M520 253c0 -146 -126 -268 -277 -268c-131 0 -213 94 -213 245c0 116 43 241 115 335s158 140 260 140c97 0 168 -52 168 -124c0 -50 -35 -85 -85 -85c-45 0 -78 30 -78 72c0 18 6 33 22 52c6 7 8 11 8 16c0 10 -15 18 -36 18c-79 0 -130 -93 -179 -264
c38 31 67 41 113 41c106 0 182 -74 182 -178zM358 270c0 64 -23 101 -64 101c-67 0 -113 -95 -113 -233c0 -69 23 -107 64 -107c79 0 113 134 113 239z" />
    <glyph glyph-name="seven" unicode="7" horiz-adv-x="574" 
d="M593 667c-184 -313 -226 -407 -254 -561c-9 -46 -13 -60 -25 -79c-16 -26 -46 -42 -81 -42c-53 0 -89 33 -89 81s19 85 96 192l230 301h-212c-62 0 -92 -22 -132 -97l-16 -30l-46 16l103 257c82 -9 121 -11 188 -11c71 0 127 3 237 11z" />
    <glyph glyph-name="eight" unicode="8" horiz-adv-x="574" 
d="M505 206c0 -130 -116 -221 -281 -221c-134 0 -224 66 -224 163c0 86 63 149 172 191c-53 45 -74 88 -74 149c0 127 104 217 251 217c120 0 202 -64 202 -159c0 -75 -46 -127 -145 -164c62 -43 100 -103 99 -176zM440 543c0 70 -41 112 -107 112c-67 0 -114 -44 -114 -105
c0 -62 20 -73 146 -140c49 33 75 77 75 133zM375 148c0 63 -32 95 -164 158c-55 -28 -90 -90 -90 -153c0 -72 50 -120 124 -120c73 0 130 50 130 115z" />
    <glyph glyph-name="nine" unicode="9" horiz-adv-x="574" 
d="M544 460c0 -117 -43 -242 -115 -335c-72 -94 -158 -140 -260 -140c-97 0 -168 52 -168 124c0 50 35 85 85 85c45 0 78 -30 78 -72c0 -18 -6 -33 -22 -52c-6 -7 -8 -11 -8 -16c0 -10 15 -18 36 -18c77 0 132 94 179 264c-39 -31 -67 -41 -113 -41c-106 0 -182 74 -182 178
c0 146 126 268 277 268c131 0 213 -94 213 -245zM393 552c0 69 -23 107 -64 107c-78 0 -113 -132 -113 -239c0 -64 23 -101 64 -101c69 0 113 101 113 233z" />
    <glyph glyph-name="colon" unicode=":" horiz-adv-x="287" 
d="M172 72c0 -48 -39 -87 -88 -87c-47 0 -86 40 -86 87c0 48 39 87 87 87s87 -39 87 -87zM257 394c0 -48 -39 -87 -88 -87c-47 0 -86 40 -86 87c0 48 39 87 87 87s87 -39 87 -87z" />
    <glyph glyph-name="semicolon" unicode=";" horiz-adv-x="287" 
d="M189 43c0 -97 -73 -177 -207 -230l-21 41c90 41 134 86 134 137c-10 -2 -16 -2 -24 -2c-49 0 -78 29 -78 79c0 53 39 91 94 91c61 0 102 -47 102 -116zM257 394c0 -48 -39 -87 -88 -87c-47 0 -86 40 -86 87c0 48 39 87 87 87s87 -39 87 -87z" />
    <glyph glyph-name="less" unicode="&#x3c;" horiz-adv-x="606" 
d="M513 -36l-453 242v88l453 242v-114l-324 -172l324 -172v-114z" />
    <glyph glyph-name="equal" unicode="=" horiz-adv-x="606" 
d="M557 290h-518v100h518v-100zM557 110h-518v100h518v-100z" />
    <glyph glyph-name="greater" unicode="&#x3e;" horiz-adv-x="606" 
d="M513 206l-453 -242v114l324 172l-324 172v114l453 -242v-88z" />
    <glyph glyph-name="question" unicode="?" horiz-adv-x="481" 
d="M452 582c0 -83 -48 -141 -171 -206c-63 -33 -76 -46 -76 -72s18 -42 46 -42c33 0 56 23 74 73l49 -12c-21 -68 -75 -111 -141 -111c-68 0 -121 53 -121 120c0 78 53 150 152 206c65 37 82 56 82 87c0 38 -29 64 -73 64c-66 0 -126 -71 -126 -150c0 -4 1 -9 2 -19h-48
c-1 12 -2 22 -2 26c0 95 75 191 186 191c96 0 167 -65 167 -155zM253 72c0 -48 -39 -87 -88 -87c-47 0 -86 40 -86 87c0 48 39 87 87 87s87 -39 87 -87z" />
    <glyph glyph-name="at" unicode="@" horiz-adv-x="747" 
d="M712 190c-53 -132 -202 -205 -326 -205c-202 0 -364 167 -364 377c0 208 163 375 366 375c186 0 334 -138 334 -312c0 -144 -117 -278 -243 -278c-46 0 -77 23 -77 57c0 3 1 9 2 16c-27 -51 -63 -75 -113 -75c-75 0 -132 65 -132 149c0 125 94 280 225 280
c43 0 69 -14 93 -52l12 34h104l-92 -288c-5 -15 -7 -28 -7 -37c0 -15 8 -23 24 -23c75 0 139 111 139 210c0 150 -113 258 -270 258c-172 0 -300 -133 -300 -310c0 -181 131 -320 301 -320c107 0 198 51 255 144h69zM452 477c0 25 -22 46 -48 46c-73 0 -144 -173 -144 -267
c0 -39 17 -60 47 -60c32 0 61 29 85 84c27 63 60 172 60 197z" />
    <glyph glyph-name="A" unicode="A" horiz-adv-x="741" 
d="M709 0h-374l7 54h16c41 0 52 1 66 8c10 4 17 14 17 23c0 7 -1 18 -4 32l-20 103h-232l-46 -81c-9 -15 -14 -31 -14 -43c0 -29 15 -42 71 -42h23l-8 -54h-286l7 54h16c44 0 85 39 123 103l348 579h62l131 -622c10 -47 29 -60 90 -60h14zM404 274l-46 241l-141 -241h187z
" />
    <glyph glyph-name="B" unicode="B" horiz-adv-x="759" 
d="M683 195c0 -145 -141 -195 -315 -195h-418l7 54h14c42 0 56 4 67 14c8 8 8 8 26 76l117 434c9 33 13 54 13 63c0 22 -14 27 -79 27h-19l8 54h352c189 0 264 -64 264 -171c0 -100 -83 -166 -231 -183c131 -23 194 -79 194 -173zM537 567c0 65 -35 101 -97 101h-15
c-36 0 -47 -11 -60 -60l-57 -211h31c71 0 99 6 129 26c43 29 69 84 69 144zM492 233c0 74 -23 110 -148 110h-50l-59 -221c-6 -21 -8 -31 -8 -38c0 -21 17 -30 53 -30h33c119 0 179 68 179 179z" />
    <glyph glyph-name="C" unicode="C" horiz-adv-x="759" 
d="M679 212c-39 -124 -150 -227 -311 -227c-198 0 -333 118 -333 307c0 239 203 445 438 445c79 0 138 -26 184 -82l56 57h46l-58 -286l-49 6c-5 171 -58 252 -165 252c-166 0 -262 -263 -262 -446c0 -117 66 -190 172 -190c91 0 182 68 219 164h63z" />
    <glyph glyph-name="D" unicode="D" horiz-adv-x="833" 
d="M796 437c0 -132 -56 -257 -151 -337c-86 -72 -186 -100 -360 -100h-334l7 54h14c42 0 56 4 67 14c7 8 9 8 27 76l116 434c9 34 13 54 13 63c0 22 -14 27 -79 27h-18l7 54h358c228 0 333 -103 333 -285zM610 501c0 109 -52 167 -149 167h-22c-46 0 -61 -13 -74 -63
l-128 -478c-8 -36 -9 -39 -9 -46c0 -20 15 -27 53 -27h29c86 0 157 37 205 108c55 82 95 226 95 339z" />
    <glyph glyph-name="E" unicode="E" horiz-adv-x="741" 
d="M602 0h-643l7 54h14c60 0 71 6 82 48l128 476c9 35 13 54 13 63c0 22 -14 27 -79 27h-19l8 54h615l-40 -245h-52c-2 145 -39 191 -158 191h-38c-41 0 -53 -9 -63 -48l-59 -219h31c87 0 122 33 156 122l53 -7l-90 -335l-53 7c4 30 5 44 5 62c0 65 -21 97 -84 97h-32
l-63 -236c-4 -13 -7 -26 -6 -32c0 -18 16 -25 54 -25h36c112 0 225 73 291 205l52 -11z" />
    <glyph glyph-name="F" unicode="F" horiz-adv-x="704" 
d="M686 477h-52c-2 145 -39 191 -158 191h-36c-41 0 -53 -9 -63 -48l-59 -219h31c87 0 122 33 156 122l53 -7l-90 -335l-53 8c4 29 5 43 5 61c0 65 -31 97 -84 97h-32l-54 -203c-10 -36 -14 -54 -14 -63c0 -22 14 -27 79 -27h27l-8 -54h-375l7 54h14c62 0 71 6 82 48
l128 476c9 35 13 54 13 63c0 22 -14 27 -79 27h-19l8 54h613z" />
    <glyph glyph-name="G" unicode="G" horiz-adv-x="815" 
d="M795 282h-20c-76 0 -69 -11 -93 -90l-55 -206h-48l-19 95c-54 -65 -122 -96 -213 -96c-166 0 -313 106 -313 299c0 245 207 453 451 453c83 0 131 -21 185 -80l60 58h45l-57 -283l-51 7c-3 146 -56 244 -169 244c-79 0 -146 -51 -200 -152c-45 -84 -76 -209 -76 -302
c0 -115 47 -192 141 -192c63 0 117 44 141 115c10 30 24 89 24 103c0 23 -12 27 -77 27h-28l7 54h372z" />
    <glyph glyph-name="H" unicode="H" horiz-adv-x="870" 
d="M762 0h-379l7 54h22c42 0 56 4 66 14c9 8 9 8 27 76l53 196h-256l-52 -196c-10 -34 -14 -55 -14 -63c0 -22 4 -27 69 -27h21l-8 -54h-359l7 54h19c55 0 66 6 77 48c3 12 8 28 11 42l117 434c9 34 13 54 13 63c0 22 -14 27 -79 27h-19l8 54h375l-7 -54h-22
c-42 0 -56 -4 -66 -14c-9 -7 -9 -7 -27 -76l-48 -177h256l47 177c10 35 14 54 14 63c0 22 -4 27 -69 27h-21l8 54h359l-7 -54h-17c-42 0 -53 -4 -64 -14c-8 -7 -8 -7 -26 -76l-117 -434c-8 -32 -13 -54 -13 -63c0 -22 14 -27 79 -27h22z" />
    <glyph glyph-name="I" unicode="I" horiz-adv-x="444" 
d="M332 0h-373l7 54h20c42 0 53 4 63 14c9 8 9 8 27 76l116 434c10 34 14 54 14 63c0 22 -14 27 -79 27h-22l8 54h373l-7 -54h-21c-42 0 -52 -4 -62 -14c-9 -7 -9 -7 -27 -76l-116 -434c-14 -55 -14 -55 -14 -63c0 -22 14 -27 79 -27h22z" />
    <glyph glyph-name="J" unicode="J" horiz-adv-x="667" 
d="M711 668h-20c-42 0 -50 -4 -61 -14c-8 -8 -8 -8 -26 -76l-82 -304c-35 -130 -35 -130 -52 -161c-49 -89 -124 -128 -244 -128c-151 0 -235 66 -235 184c0 93 55 159 133 159c64 0 107 -39 107 -97c0 -52 -38 -93 -87 -93c-24 0 -63 22 -67 22c-12 0 -18 -9 -18 -25
c0 -52 49 -93 111 -93c47 0 92 27 120 72c22 36 25 44 52 146l85 318c10 36 14 54 14 63c0 22 -14 27 -79 27h-30l8 54h378z" />
    <glyph glyph-name="K" unicode="K" horiz-adv-x="778" 
d="M749 0h-374l7 54h31c46 0 60 5 60 22c0 8 0 8 -11 31l-102 213l-84 -77l-26 -99c-10 -34 -14 -54 -14 -63c0 -22 4 -27 69 -27h21l-8 -54h-359l7 54h18c42 0 52 5 63 14c8 8 8 8 27 77l115 433c10 35 14 54 14 63c0 22 -14 27 -79 27h-19l8 54h375l-7 -54h-22
c-42 0 -56 -4 -66 -14c-9 -8 -9 -8 -27 -76l-61 -225l267 248c21 20 30 32 30 42c0 16 -15 25 -41 25h-35l7 54h299l-7 -54c-70 -4 -113 -24 -172 -81l-162 -150l143 -308c32 -70 39 -75 108 -75h15z" />
    <glyph glyph-name="L" unicode="L" horiz-adv-x="704" 
d="M602 0h-643l7 54h20c42 0 50 4 61 14c8 8 8 8 26 76l117 434c9 35 13 54 13 63c0 22 -14 27 -79 27h-19l8 54h382l-8 -54h-18c-42 0 -66 -4 -76 -14c-9 -8 -9 -8 -27 -76l-116 -434c-10 -35 -15 -55 -14 -64c0 -20 13 -26 53 -26h36c115 0 234 81 293 212l52 -11z" />
    <glyph glyph-name="M" unicode="M" horiz-adv-x="944" 
d="M834 0h-367l7 54h20c42 0 50 4 60 14c9 8 9 8 27 76l112 418l-337 -562h-63l-39 566l-94 -350c-20 -80 -21 -87 -21 -107c0 -35 29 -55 82 -55l-8 -54h-237l7 54c55 4 75 35 110 162l97 362c11 41 14 54 14 63c0 22 -14 27 -79 27h-19l7 54h293l35 -463l278 463h269
l-7 -54h-21c-42 0 -49 -4 -60 -14c-8 -7 -8 -7 -26 -76l-117 -434c-8 -32 -13 -55 -13 -63c0 -22 14 -27 79 -27h19z" />
    <glyph glyph-name="N" unicode="N" horiz-adv-x="852" 
d="M905 668c-34 0 -61 -9 -81 -27c-28 -27 -30 -30 -61 -136l-139 -519h-80l-296 566l-90 -335c-20 -80 -21 -87 -21 -108c0 -37 19 -55 77 -55h21l-8 -54h-284l7 54c34 1 61 10 81 27c28 26 30 32 60 136l113 419c-12 23 -28 32 -59 32h-56l7 54h254l268 -507l78 290
c21 80 22 86 22 108c0 37 -30 55 -90 55l7 54h277z" />
    <glyph glyph-name="O" unicode="O" horiz-adv-x="833" 
d="M797 441c0 -248 -208 -456 -455 -456c-185 0 -306 119 -306 301c0 249 214 451 454 451c173 0 307 -130 307 -296zM533 196c49 94 80 219 80 324c0 101 -47 163 -126 163c-75 0 -135 -50 -187 -155c-49 -100 -85 -241 -85 -335c0 -95 49 -154 127 -154
c72 0 135 51 191 157z" />
    <glyph glyph-name="P" unicode="P" horiz-adv-x="741" 
d="M731 533c0 -147 -101 -222 -354 -222h-80l-45 -167c-12 -44 -14 -54 -14 -63c0 -22 14 -27 80 -27h25l-7 -54h-374l7 54h18c57 0 67 6 78 48l127 476c12 45 14 54 14 63c0 22 -9 27 -75 27h-19l7 54h315c234 0 297 -76 297 -189zM552 563c0 64 -36 105 -93 105h-17
c-42 0 -52 -8 -64 -53l-67 -250h49c132 0 192 77 192 198z" />
    <glyph glyph-name="Q" unicode="Q" horiz-adv-x="833" 
d="M724 -52c-38 -88 -103 -134 -188 -134c-106 0 -148 58 -148 174c-24 -2 -43 -3 -55 -3c-171 0 -298 122 -298 297c0 247 205 455 449 455c178 0 312 -124 312 -300c0 -162 -81 -322 -236 -396c14 -145 31 -145 52 -145c25 0 50 27 70 74zM614 512c0 117 -45 173 -129 173
c-79 0 -145 -60 -197 -179c-43 -100 -72 -218 -72 -297c0 -16 1 -30 3 -55c11 80 63 123 147 123c76 0 128 -32 159 -97c51 63 89 205 89 332zM397 54c13 68 13 70 13 95c0 39 -31 68 -72 68c-46 0 -80 -40 -80 -93s34 -86 88 -86c21 0 33 4 51 16z" />
    <glyph glyph-name="R" unicode="R" horiz-adv-x="796" 
d="M742 136c-34 -103 -90 -151 -175 -151c-84 0 -143 59 -143 142c0 34 12 103 12 142c0 55 -33 81 -92 81h-40l-55 -206c-9 -32 -13 -54 -13 -63c0 -22 14 -27 79 -27h26l-8 -54h-374l7 54h20c42 0 50 4 60 14c9 8 9 8 27 76l116 434c11 40 14 54 14 63c0 22 -12 27 -77 27
h-21l7 54h347c197 0 292 -42 292 -167c0 -114 -98 -181 -287 -196c97 -27 139 -77 139 -178v-34c0 -66 0 -66 7 -75c5 -7 11 -11 18 -11c28 0 49 36 71 96zM567 570c0 63 -38 98 -108 98h-25c-36 0 -46 -7 -54 -38l-61 -226h34c90 0 115 5 149 31c40 30 65 81 65 135z" />
    <glyph glyph-name="S" unicode="S" horiz-adv-x="685" 
d="M612 224c0 -141 -119 -239 -292 -239c-90 0 -151 23 -217 80l-58 -65h-44l50 283l52 -8l-1 -30c1 -119 85 -206 215 -206c94 0 157 46 157 113c0 58 -36 87 -171 133c-84 28 -114 44 -145 74c-37 35 -56 82 -56 136c0 138 114 242 266 242c79 0 139 -23 200 -76l53 54h45
l-44 -263l-52 9c-5 148 -78 222 -190 222c-86 0 -143 -43 -143 -108c0 -48 18 -80 112 -111c184 -61 263 -104 263 -240z" />
    <glyph glyph-name="T" unicode="T" horiz-adv-x="722" 
d="M718 439l-53 5c2 23 3 48 3 60c0 105 -42 164 -118 164c-29 0 -32 -2 -43 -45l-128 -479c-12 -44 -14 -54 -14 -63c0 -22 14 -27 80 -27h25l-7 -54h-397l7 54h27c42 0 66 4 76 14c9 8 9 8 27 76l130 485c3 10 4 19 4 24c0 10 -10 15 -28 15c-85 0 -146 -65 -215 -229
l-50 16l71 267h647z" />
    <glyph glyph-name="U" unicode="U" horiz-adv-x="833" 
d="M888 668c-27 0 -59 -10 -78 -27c-28 -25 -31 -32 -61 -135l-74 -279c-45 -169 -138 -242 -304 -242c-174 0 -283 86 -283 211c0 28 6 65 17 107l74 275c12 46 14 54 14 63c0 22 -9 27 -75 27h-23l7 54h376l-8 -54h-22c-42 0 -56 -4 -66 -14c-9 -8 -9 -8 -27 -76l-81 -304
c-11 -40 -15 -64 -15 -88c0 -88 55 -139 150 -139c93 0 164 48 206 207l67 252c21 79 22 86 22 107c0 38 -29 55 -90 55l7 54h274z" />
    <glyph glyph-name="V" unicode="V" horiz-adv-x="741" 
d="M795 668c-61 -9 -83 -26 -133 -108l-338 -574h-66l-120 607c-13 64 -24 75 -74 75h-32l7 54h367l-8 -54h-27c-39 0 -47 -1 -57 -8c-6 -5 -10 -12 -10 -19c0 -3 2 -14 5 -30l75 -402l207 363c13 23 19 42 19 57c0 27 -21 39 -67 39h-27l7 54h279z" />
    <glyph glyph-name="W" unicode="W" horiz-adv-x="944" 
d="M987 668c-62 -10 -88 -38 -132 -144l-233 -538h-66l-68 483l-222 -483h-66l-86 644c-4 30 -12 38 -54 38h-20l7 54h303l-7 -54h-20c-36 0 -40 -7 -40 -36l1 -16l44 -352l148 329l-3 30c-4 34 -20 45 -68 45h-16l7 54h311l-7 -54h-22c-34 0 -47 -8 -46 -28
c0 -6 1 -15 3 -27l47 -337l129 310c9 21 13 36 13 46c0 21 -22 36 -54 36h-18l7 54h235z" />
    <glyph glyph-name="X" unicode="X" horiz-adv-x="741" 
d="M698 0h-387l7 54h41c38 0 50 5 50 22c0 8 -1 12 -10 33l-73 170l-135 -132c-21 -20 -31 -38 -31 -53c0 -27 22 -40 66 -40h22l-7 -54h-313l7 54c50 -1 89 19 148 75l217 213l-126 280c-18 39 -29 46 -74 46h-37l8 54h374l-7 -54h-33c-41 0 -54 -5 -54 -20
c0 -6 3 -15 9 -29l69 -151l123 122c16 15 24 31 24 46c0 22 -15 32 -55 32h-21l7 54h304l-7 -54c-72 -5 -94 -17 -171 -91l-180 -173l132 -295c20 -44 39 -55 97 -55h23z" />
    <glyph glyph-name="Y" unicode="Y" horiz-adv-x="704" 
d="M770 668c-63 -2 -95 -24 -154 -101l-200 -260l-43 -163c-11 -42 -14 -54 -14 -63c0 -22 14 -27 80 -27h25l-7 -54h-389l7 54h19c42 0 66 4 76 14c9 8 9 8 27 76l43 163l-117 304c-17 45 -36 57 -85 57h-23l7 54h366l-7 -54h-43c-34 0 -44 -5 -44 -24c0 -8 2 -17 9 -34
l91 -231l159 210c11 14 17 30 17 43c0 23 -21 36 -57 36h-36l8 54h292z" />
    <glyph glyph-name="Z" unicode="Z" horiz-adv-x="704" 
d="M652 260l-70 -260h-611l8 54l507 614h-79c-129 0 -211 -56 -290 -200l-49 10l66 244h581l-8 -54l-510 -614h91c144 0 234 63 313 219z" />
    <glyph glyph-name="bracketleft" unicode="[" horiz-adv-x="407" 
d="M210 -108h-241l222 830h241l-12 -44h-118l-199 -742h118z" />
    <glyph glyph-name="backslash" unicode="\" horiz-adv-x="606" 
d="M545 0h-96l-368 722h96z" />
    <glyph glyph-name="bracketright" unicode="]" horiz-adv-x="407" 
d="M192 -108h-241l12 44h118l199 742h-118l11 44h241z" />
    <glyph glyph-name="asciicircum" unicode="^" horiz-adv-x="606" 
d="M554 318h-119l-131 250l-133 -250h-119l209 404h85z" />
    <glyph glyph-name="underscore" unicode="_" horiz-adv-x="500" 
d="M500 -129h-500v54h500v-54z" />
    <glyph glyph-name="grave" unicode="`" 
d="M283 538h-54l-119 88c-13 10 -15 25 -5 44c16 29 52 52 82 52c24 0 32 -8 46 -45z" />
    <glyph glyph-name="a" unicode="a" horiz-adv-x="667" 
d="M646 157c-60 -101 -139 -172 -210 -172c-55 0 -85 35 -85 88c-48 -62 -94 -87 -163 -87c-101 0 -173 75 -173 181c0 162 138 312 286 312c59 0 101 -21 125 -63l14 48h157l-98 -332c-10 -39 -10 -39 -10 -46c0 -8 7 -16 14 -16c17 0 67 54 104 112zM395 351
c0 43 -25 73 -62 73c-82 0 -155 -175 -155 -289c0 -48 24 -79 61 -79c83 0 156 193 156 295z" />
    <glyph glyph-name="b" unicode="b" horiz-adv-x="611" 
d="M557 307c0 -84 -42 -174 -111 -238c-60 -56 -132 -84 -214 -84c-123 0 -204 63 -204 160c0 32 1 35 22 107l97 326c13 44 16 56 16 66c0 25 -12 31 -62 31h-24l7 47l267 14l-91 -309c45 38 81 52 129 52c95 0 168 -74 168 -172zM347 141c24 54 47 149 47 192
s-27 75 -64 75c-39 0 -71 -30 -102 -92c-31 -63 -57 -162 -57 -212c0 -45 27 -76 66 -76s77 39 110 113z" />
    <glyph glyph-name="c" unicode="c" horiz-adv-x="537" 
d="M442 116c-72 -90 -144 -130 -232 -130c-126 0 -207 72 -207 185c0 167 143 307 313 307c104 0 171 -51 171 -128c0 -56 -34 -93 -86 -93c-46 0 -78 30 -78 72c0 28 10 44 38 61c9 6 12 9 12 16c0 15 -18 25 -42 25c-42 0 -80 -30 -111 -87c-30 -55 -52 -141 -52 -203
c0 -55 34 -94 82 -94s97 31 156 100z" />
    <glyph glyph-name="d" unicode="d" horiz-adv-x="667" 
d="M632 157c-17 -29 -39 -60 -66 -91c-49 -55 -94 -81 -144 -81c-53 0 -85 30 -86 79v7c-55 -63 -97 -85 -162 -85c-102 0 -174 75 -174 181c0 161 138 311 286 311c59 0 100 -20 125 -62l48 162c11 37 15 56 15 66c0 25 -12 31 -61 31h-32l7 47l275 14l-179 -604
c-10 -39 -10 -39 -10 -47s7 -16 14 -16c18 0 66 52 105 113zM329 153c29 63 51 147 51 198c0 42 -25 72 -61 72c-41 0 -76 -31 -106 -95c-29 -61 -49 -140 -49 -193c0 -49 23 -79 60 -79c39 0 75 33 105 97z" />
    <glyph glyph-name="e" unicode="e" horiz-adv-x="519" 
d="M430 91c-63 -71 -137 -105 -228 -105c-132 0 -204 65 -204 185c0 164 148 308 316 308c94 0 164 -52 164 -121c0 -70 -56 -120 -170 -153c-47 -14 -90 -21 -149 -24c-2 -26 -2 -32 -2 -44c0 -57 33 -92 86 -92c52 0 92 21 152 81zM356 385c0 29 -17 47 -44 47
c-62 0 -121 -82 -144 -204c33 5 50 9 70 16c68 26 118 86 118 141z" />
    <glyph glyph-name="f" unicode="f" horiz-adv-x="389" 
d="M550 627c0 -46 -33 -79 -78 -79c-39 0 -68 28 -68 66c0 20 4 31 24 57c3 3 5 9 5 9c0 6 -10 10 -22 10c-48 0 -70 -39 -106 -185l-10 -41h127l-16 -61h-125l-47 -214c-30 -141 -66 -272 -101 -368l-181 -26c28 44 69 163 117 338l64 270h-99l17 61h98
c27 97 52 150 92 194c50 54 105 79 172 79c80 0 137 -46 137 -110z" />
    <glyph glyph-name="g" unicode="g" horiz-adv-x="611" 
d="M602 466c0 -34 -22 -58 -53 -58c-24 0 -39 13 -50 43c-5 12 -10 17 -17 17c-11 0 -21 -7 -34 -24c51 -30 79 -76 79 -130c0 -91 -88 -157 -210 -157c-19 0 -82 5 -117 10c-15 2 -27 3 -34 3c-27 0 -47 -14 -47 -31c0 -21 15 -31 49 -34c90 -9 154 -17 178 -22
c73 -17 104 -53 104 -118c0 -108 -98 -167 -278 -167c-151 0 -238 41 -238 111c0 50 40 81 126 97c-45 24 -60 45 -60 80c0 53 42 95 120 120c-36 30 -51 58 -51 98c0 103 93 175 227 175c39 0 67 -4 103 -16c49 49 88 70 131 70s72 -27 72 -67zM353 253c16 32 26 75 26 108
c0 41 -26 71 -62 71c-28 0 -50 -15 -66 -43c-18 -32 -29 -74 -29 -112c0 -45 25 -72 65 -72c28 0 51 16 66 48zM329 -85c0 24 -13 37 -44 45c-24 6 -101 13 -144 13c-56 0 -84 -19 -84 -58c0 -46 41 -70 120 -70c99 0 152 24 152 70z" />
    <glyph glyph-name="h" unicode="h" horiz-adv-x="685" 
d="M637 152c-78 -120 -138 -167 -211 -167c-62 0 -102 35 -102 91c0 26 3 38 21 87l61 169c6 16 9 29 9 36c0 14 -15 27 -29 27c-24 0 -57 -25 -94 -70c-43 -52 -69 -104 -97 -198l-38 -127h-157l171 578c13 41 16 56 16 66c0 25 -12 31 -62 31h-24l7 47l268 14l-110 -370
c63 78 122 113 188 113c65 0 112 -43 112 -103c0 -33 -9 -69 -30 -128l-47 -128c-11 -30 -11 -30 -11 -38s7 -16 14 -16c18 0 43 25 97 100c3 3 6 7 9 11z" />
    <glyph glyph-name="i" unicode="i" horiz-adv-x="389" 
d="M353 149c-68 -114 -131 -164 -207 -164c-60 0 -104 38 -104 90c0 19 2 30 15 74l51 170c11 37 15 56 15 67c0 25 -12 31 -61 31h-24l7 47l267 14l-105 -356c-9 -31 -10 -34 -10 -42c0 -9 7 -16 16 -16c20 0 53 37 101 113zM341 631c0 -40 -32 -72 -72 -72
c-39 0 -71 33 -71 72s32 71 72 71c39 0 71 -32 71 -71z" />
    <glyph glyph-name="j" unicode="j" horiz-adv-x="370" 
d="M359 478l-119 -403c-31 -103 -47 -140 -86 -187c-47 -59 -109 -90 -178 -90c-84 0 -146 47 -146 112c0 49 32 83 78 83s74 -29 74 -75c0 -26 -5 -35 -28 -49c-4 -2 -6 -6 -6 -10c0 -7 7 -12 17 -12c39 0 60 34 95 153l95 319c11 38 15 56 15 67c0 25 -12 31 -61 31h-32
l7 47zM386 631c0 -40 -32 -72 -72 -72c-39 0 -71 33 -71 72s32 71 72 71c39 0 71 -32 71 -71z" />
    <glyph glyph-name="k" unicode="k" horiz-adv-x="648" 
d="M584 135c-51 -105 -105 -150 -181 -150c-65 0 -102 39 -102 108c0 18 2 36 5 55c3 14 4 25 4 33c0 5 -1 10 -5 17c-8 -1 -16 -1 -21 -1c-22 0 -36 11 -36 29s15 31 36 31c13 0 21 -2 46 -13c76 25 114 61 114 107c0 27 -19 45 -47 45c-36 0 -71 -24 -117 -80
c-40 -48 -62 -96 -91 -193l-37 -123h-157l171 578c12 41 16 56 16 66c0 25 -12 31 -62 31h-23l6 47l268 14l-109 -365c78 81 129 108 201 108c70 0 118 -40 118 -98c0 -47 -32 -90 -92 -123c-28 -16 -57 -28 -102 -43c46 -26 56 -48 63 -131c1 -12 7 -19 16 -19
c23 0 51 35 75 93z" />
    <glyph glyph-name="l" unicode="l" horiz-adv-x="389" 
d="M339 149c-21 -38 -51 -75 -86 -108c-41 -39 -79 -56 -125 -56c-61 0 -102 37 -102 91c0 23 5 49 23 106l117 396c11 37 15 55 15 66c0 25 -12 31 -61 31h-24l7 47l267 14l-182 -614l-5 -16c-3 -10 -5 -21 -5 -26c0 -10 7 -17 15 -17c22 0 67 47 107 113z" />
    <glyph glyph-name="m" unicode="m" horiz-adv-x="944" 
d="M920 150c-73 -113 -139 -164 -211 -164c-54 0 -97 38 -97 85c0 22 7 48 25 100l49 140c8 23 13 47 13 59c0 15 -10 24 -26 24c-22 0 -54 -22 -84 -58c-38 -46 -65 -106 -100 -225l-33 -111h-158l70 235c20 68 31 115 31 135c0 14 -8 25 -19 25c-20 0 -50 -25 -84 -69
c-40 -54 -66 -107 -90 -187l-41 -139h-156l95 319c10 35 15 56 15 67c0 25 -12 31 -61 31h-24l7 47l248 14l-29 -122c63 82 125 123 188 123c37 0 72 -17 94 -44c13 -18 18 -32 18 -61v-6c64 77 118 111 177 111c65 0 109 -42 109 -104c0 -30 -7 -64 -22 -106l-60 -167
c-3 -9 -5 -18 -5 -23c0 -7 8 -13 17 -13c19 0 34 16 100 104l6 7z" />
    <glyph glyph-name="n" unicode="n" horiz-adv-x="685" 
d="M642 152c-77 -119 -138 -167 -211 -167c-62 0 -102 35 -102 91c0 26 4 41 20 87l62 169c6 16 9 29 9 36c0 13 -15 26 -30 26c-24 0 -57 -24 -95 -69c-44 -53 -69 -105 -97 -198l-38 -127h-157l95 319c11 38 15 56 15 67c0 25 -12 31 -61 31h-24l7 47l250 14l-32 -132
c75 96 132 133 205 133c66 0 113 -43 113 -103c0 -33 -8 -67 -31 -128l-47 -128c-10 -30 -10 -30 -10 -38s7 -16 14 -16c18 0 44 26 97 100l9 11z" />
    <glyph glyph-name="o" unicode="o" horiz-adv-x="574" 
d="M540 285c0 -169 -139 -299 -320 -299c-63 0 -115 18 -150 51c-37 34 -60 92 -60 150c0 158 144 292 314 292c61 0 121 -20 160 -54c36 -31 56 -80 56 -140zM335 134c28 70 50 168 50 220c0 47 -26 78 -65 78c-43 0 -80 -38 -110 -110c-26 -63 -45 -154 -45 -214
c0 -50 24 -79 64 -79c43 0 79 35 106 105z" />
    <glyph glyph-name="p" unicode="p" horiz-adv-x="648" 
d="M590 298c0 -164 -137 -313 -287 -313c-60 0 -98 20 -126 65l-34 -115c-16 -55 -16 -55 -16 -64c0 -18 17 -26 57 -26h15l-7 -47h-310l7 47h4c27 0 55 6 63 14c9 8 9 8 29 76l115 387c10 33 15 53 15 64c0 25 -12 31 -62 31h-24l7 47l237 14l-16 -79c49 56 96 80 158 80
c107 0 175 -71 175 -181zM430 336c0 44 -26 73 -64 73c-37 0 -67 -23 -96 -74c-31 -55 -64 -166 -64 -218c0 -41 31 -74 69 -74s69 25 97 79c33 65 58 157 58 214z" />
    <glyph glyph-name="q" unicode="q" horiz-adv-x="630" 
d="M476 -202h-313l7 47h4c30 0 57 6 66 14c8 8 8 8 29 76l33 111c-46 -43 -87 -61 -137 -61c-99 0 -165 75 -165 185c0 161 138 308 287 308c65 0 111 -25 138 -76l88 76h74l-161 -543c-10 -35 -15 -55 -15 -64c0 -18 17 -26 56 -26h15zM318 137c31 61 58 163 58 219
c0 38 -26 67 -61 67c-25 0 -52 -16 -72 -42c-43 -58 -80 -174 -80 -252c0 -43 25 -74 60 -74c34 0 67 28 95 82z" />
    <glyph glyph-name="r" unicode="r" horiz-adv-x="519" 
d="M524 391c0 -47 -32 -83 -75 -83c-32 0 -60 20 -67 49c-2 8 -3 16 -3 31c0 9 -3 13 -10 13c-8 0 -25 -11 -40 -26c-49 -47 -99 -140 -127 -236l-42 -139h-157l95 319c11 37 15 56 15 67c0 25 -12 31 -61 31h-24l7 47l250 14l-31 -127c62 93 111 128 177 128
c56 0 93 -35 93 -88z" />
    <glyph glyph-name="s" unicode="s" horiz-adv-x="481" 
d="M399 149c0 -98 -88 -164 -219 -164c-106 0 -178 47 -178 116c0 43 28 72 70 72c40 0 71 -27 71 -64c0 -19 -5 -28 -26 -46c-3 -3 -5 -6 -5 -9c0 -15 27 -26 63 -26c54 0 95 29 95 69c0 27 -16 44 -58 61c-57 24 -63 27 -84 40c-50 30 -72 68 -72 122c0 98 78 159 202 159
c105 0 179 -47 179 -112c0 -41 -28 -70 -69 -70c-40 0 -69 26 -69 61c0 16 2 21 18 41c4 5 6 9 6 12c0 11 -27 21 -56 21c-52 0 -89 -25 -89 -61c0 -26 19 -44 78 -69c41 -18 54 -24 75 -38c46 -30 68 -66 68 -115z" />
    <glyph glyph-name="t" unicode="t" horiz-adv-x="407" 
d="M337 156c-38 -58 -48 -70 -68 -92c-49 -52 -99 -78 -150 -78c-53 0 -95 37 -95 83c0 19 5 47 14 77c3 9 7 22 11 37l65 220h-87l18 61h87l56 186h157l-55 -186h114l-18 -61h-114l-70 -236c-12 -41 -21 -76 -21 -83c0 -9 7 -18 15 -18c20 0 66 51 104 117z" />
    <glyph glyph-name="u" unicode="u" horiz-adv-x="685" 
d="M639 152c-78 -120 -136 -166 -212 -166c-64 0 -97 29 -97 85c0 8 0 16 1 26c-65 -78 -119 -111 -183 -111c-66 0 -110 44 -110 109c0 27 4 47 21 103l35 121c12 39 16 57 16 67c0 25 -12 31 -61 31h-10l7 47l253 14l-90 -304c-3 -8 -7 -24 -12 -41c-2 -7 -4 -15 -7 -24
c-1 -6 -2 -11 -2 -14c0 -13 12 -25 25 -25c26 0 74 39 110 89c30 41 52 88 68 140l48 165h158l-93 -312c-16 -56 -16 -56 -16 -67c0 -7 7 -14 14 -14c17 0 57 43 99 109z" />
    <glyph glyph-name="v" unicode="v" horiz-adv-x="556" 
d="M500 390c0 -73 -29 -174 -72 -251c-56 -100 -131 -154 -215 -154c-41 0 -82 15 -112 41c-28 25 -43 62 -43 106c0 27 4 53 12 79l32 108c14 47 16 57 16 67c0 25 -12 31 -62 31h-24l7 47l267 14l-73 -248c-23 -91 -24 -96 -24 -117c0 -29 27 -57 56 -57
c33 0 68 26 100 75c39 59 61 119 61 163c0 22 -3 25 -44 63c-21 20 -29 35 -29 57c0 39 27 65 69 65c47 0 78 -36 78 -89z" />
    <glyph glyph-name="w" unicode="w" horiz-adv-x="833" 
d="M788 390c0 -73 -30 -176 -72 -251c-57 -100 -135 -154 -221 -154c-80 0 -133 42 -150 118c-63 -83 -122 -118 -202 -118c-78 0 -121 40 -121 110c0 28 4 47 20 103l36 121c12 41 16 57 16 67c0 25 -12 31 -62 31h-10l7 47l254 14l-90 -301c-9 -33 -14 -55 -14 -69
c0 -20 17 -37 36 -37c36 0 73 27 103 74c17 27 46 95 59 141l53 178h157l-69 -234c-23 -91 -24 -97 -24 -117c0 -29 26 -57 54 -57c33 0 74 30 105 75c38 57 61 119 61 165c0 19 -3 24 -44 61c-21 19 -29 35 -29 57c0 39 27 65 69 65c47 0 78 -36 78 -89z" />
    <glyph glyph-name="x" unicode="x" horiz-adv-x="574" 
d="M508 169c-13 -36 -32 -72 -57 -107c-36 -52 -75 -77 -122 -77c-31 0 -58 13 -77 37c-17 20 -25 42 -37 98l-3 14l-37 -52c-42 -60 -96 -97 -143 -97s-81 31 -81 76c0 40 27 68 67 68c30 0 51 -18 59 -50c2 -8 5 -11 9 -11c15 0 35 20 71 71l41 57l-14 65
c-22 102 -29 118 -48 118c-18 0 -30 -13 -70 -83l-6 -10l-40 20c16 33 32 60 55 89c44 58 85 84 132 84c59 0 90 -38 110 -135l22 29c61 81 96 106 151 106c48 0 81 -29 81 -72c0 -40 -28 -69 -65 -69s-59 20 -59 55c-1 8 -3 12 -9 12c-18 0 -47 -33 -108 -123l16 -82
c19 -92 27 -112 48 -112c22 0 49 36 75 101z" />
    <glyph glyph-name="y" unicode="y" horiz-adv-x="519" 
d="M492 417c0 -57 -59 -191 -147 -334c-60 -99 -114 -172 -164 -222c-41 -42 -87 -63 -141 -63c-64 0 -106 36 -106 91c0 43 29 73 71 73c40 0 69 -27 69 -64c0 -8 -1 -15 -6 -28c-1 -2 -1 -6 -1 -6c0 -5 6 -10 13 -10c27 0 75 39 110 88l29 40l-100 338
c-11 37 -16 45 -29 45c-18 0 -26 -17 -54 -107l-43 13c33 141 85 208 162 208c34 0 63 -18 78 -47c11 -21 28 -67 37 -99l56 -190c50 84 67 124 67 158c0 19 -3 27 -19 53c-15 22 -21 40 -21 59c0 38 30 66 71 66c42 0 68 -24 68 -62z" />
    <glyph glyph-name="z" unicode="z" horiz-adv-x="519" 
d="M460 153c-34 -108 -106 -168 -201 -168c-53 0 -81 10 -173 64c-11 6 -16 8 -21 8c-9 0 -14 -9 -14 -29c-1 -26 -15 -43 -38 -43c-18 0 -32 15 -32 34c0 25 21 60 66 112c57 64 101 99 177 140c48 25 80 41 83 43c6 4 24 15 43 28c-30 -10 -52 -14 -82 -14
c-23 0 -33 1 -90 10c-30 5 -44 7 -56 7c-32 0 -41 -8 -64 -59l-42 15c41 118 108 178 198 178c40 0 74 -11 134 -43c24 -13 37 -18 44 -18c10 0 15 8 21 32c6 20 14 29 28 29c16 0 30 -15 30 -33c0 -36 -43 -99 -113 -166c-47 -44 -66 -56 -184 -117
c-28 -14 -39 -21 -64 -37c46 8 66 10 90 10c31 0 60 -5 95 -15c47 -14 47 -14 55 -14c26 0 46 19 66 62z" />
    <glyph glyph-name="braceleft" unicode="{" horiz-adv-x="407" 
d="M194 -65l-12 -43h-42c-55 0 -88 32 -88 87c0 25 4 50 17 95l21 80c12 44 13 51 13 71c0 33 -14 50 -51 60l12 44c65 16 88 43 108 133l30 110c30 111 74 150 169 150h31l-12 -43c-49 -5 -71 -34 -96 -126l-33 -121c-23 -77 -55 -110 -121 -125c44 -13 65 -34 65 -67
c0 -11 -4 -34 -13 -65l-28 -104c-14 -52 -17 -69 -17 -87c0 -35 11 -47 47 -49z" />
    <glyph glyph-name="bar" unicode="|" horiz-adv-x="606" 
d="M348 -108h-100v830h100v-830z" />
    <glyph glyph-name="braceright" unicode="}" horiz-adv-x="407" 
d="M322 329l-12 -44c-66 -14 -90 -43 -110 -133l-30 -110c-30 -111 -74 -150 -169 -150h-31l12 43c49 5 71 34 96 126l33 121c23 77 55 110 121 125c-44 13 -65 34 -65 67c0 12 4 32 13 65l28 104c14 52 17 69 17 87c0 35 -11 47 -47 49l12 43h42c55 0 88 -32 88 -87
c0 -25 -4 -49 -16 -95l-22 -80c-12 -44 -13 -50 -13 -71c0 -34 15 -51 53 -60z" />
    <glyph glyph-name="asciitilde" unicode="~" horiz-adv-x="606" 
d="M555 273c-41 -75 -89 -113 -144 -113c-23 0 -45 5 -90 23l-53 19c-43 17 -51 19 -66 19c-23 0 -39 -12 -67 -52l-84 53c40 75 89 113 144 113c23 0 45 -6 90 -23l53 -19c43 -17 51 -19 66 -19c23 0 39 12 67 52z" />
    <glyph glyph-name="uni00A0" unicode="&#xa0;" 
 />
    <glyph glyph-name="exclamdown" unicode="&#xa1;" 
d="M286 -223c-15 -22 -38 -35 -63 -35c-58 0 -98 33 -98 80c0 32 0 32 55 143c60 120 84 179 129 311l52 -13c-30 -135 -47 -252 -51 -351c-4 -90 -7 -110 -24 -135zM458 407c0 -48 -39 -87 -87 -87s-87 39 -87 87s39 87 88 87c47 0 86 -40 86 -87z" />
    <glyph glyph-name="cent" unicode="&#xa2;" horiz-adv-x="574" 
d="M470 116l-6 -7c-80 -91 -129 -119 -221 -124l-55 -122h-54l56 125c-87 7 -160 92 -160 186c0 166 145 310 313 310c22 0 43 -3 65 -8l49 110h54l-57 -129c38 -23 60 -62 60 -106c0 -54 -36 -92 -87 -92c-21 0 -38 6 -53 19l-103 -230h7c30 0 63 14 95 40
c15 12 27 24 61 59zM403 411c0 13 -22 26 -44 26c-44 0 -84 -33 -115 -96c-28 -56 -50 -143 -50 -196c0 -33 11 -59 31 -79l132 294c10 21 17 29 40 43c3 2 6 8 6 8z" />
    <glyph glyph-name="sterling" unicode="&#xa3;" horiz-adv-x="574" 
d="M542 180c-38 -131 -104 -195 -191 -195c-56 0 -107 21 -154 64c-37 -45 -72 -64 -120 -64c-57 0 -95 35 -95 87c0 56 45 96 107 96c21 0 43 -4 76 -12c2 18 3 32 3 41c0 35 -8 83 -20 122h-130l8 57h114l-1 45c0 168 104 284 257 284c101 0 170 -57 170 -141
c0 -55 -36 -95 -87 -95c-44 0 -76 29 -76 69c0 29 11 46 47 71c8 6 11 11 11 18c0 17 -19 28 -46 28c-74 0 -119 -81 -119 -211l2 -68h137l-9 -57h-128c-3 -66 -16 -114 -49 -183c34 -13 80 -21 120 -21c59 0 104 30 130 85zM146 84l-6 5c-24 18 -50 29 -71 29
c-23 0 -40 -19 -40 -44c0 -28 18 -46 46 -46c33 0 51 14 71 56z" />
    <glyph glyph-name="currency" unicode="&#xa4;" horiz-adv-x="574" 
d="M546 175l-77 -78l-43 43c-45 -26 -86 -38 -133 -38s-88 12 -133 39l-42 -43l-77 78l42 42c-24 37 -38 86 -38 132s15 99 38 133l-43 43l77 77l43 -43c38 25 86 39 134 39c47 0 87 -12 132 -38l42 42l78 -77l-43 -43c24 -38 38 -86 38 -133c0 -46 -13 -92 -38 -132z
M420 351c0 70 -57 127 -127 127s-127 -57 -127 -127s57 -128 126 -128c71 0 128 57 128 128z" />
    <glyph glyph-name="yen" unicode="&#xa5;" horiz-adv-x="574" 
d="M628 652c-50 -17 -71 -35 -119 -100l-124 -177h131l-6 -46h-157l-23 -85h145l-6 -46h-151l-14 -53c-10 -36 -14 -55 -14 -64c0 -22 14 -27 79 -27h13l-8 -54h-338l8 54h12c34 0 60 5 69 14c9 8 9 8 27 77l14 53h-141l6 46h148l22 85h-147l6 46h125l-78 220
c-17 46 -35 57 -84 57l7 54h291l-8 -54h-22c-34 0 -44 -5 -44 -24c0 -8 0 -8 9 -34l72 -210l125 189c11 17 17 33 17 44c0 21 -22 35 -57 35h-16l7 54h231z" />
    <glyph glyph-name="brokenbar" unicode="&#xa6;" horiz-adv-x="606" 
d="M348 390h-100v332h100v-332zM348 -108h-100v332h100v-332z" />
    <glyph glyph-name="section" unicode="&#xa7;" horiz-adv-x="500" 
d="M455 297c0 -82 -79 -157 -166 -157c-6 0 -11 0 -20 1c38 -43 53 -78 53 -120c0 -93 -83 -165 -191 -165c-96 0 -171 52 -171 118c0 46 28 77 70 77c40 0 71 -29 71 -66c0 -31 -39 -58 -39 -64c0 -12 34 -25 67 -25c51 0 84 27 84 68c0 42 -19 70 -134 193
c-53 57 -71 93 -71 140c0 85 73 158 158 158c6 0 16 -1 27 -2c-38 53 -50 82 -50 123c0 94 79 161 190 161c98 0 172 -52 172 -121c0 -40 -32 -71 -74 -71c-40 0 -70 27 -70 65c0 20 10 39 31 56c6 5 8 7 8 10c0 11 -31 22 -61 22c-49 0 -88 -31 -88 -70
c0 -37 21 -69 110 -165c73 -79 94 -116 94 -166zM348 235c0 27 -17 57 -61 107c-48 54 -80 75 -110 75c-36 0 -62 -25 -62 -58c0 -29 12 -51 55 -99c57 -64 81 -80 113 -80c36 0 65 24 65 55z" />
    <glyph glyph-name="dieresis" unicode="&#xa8;" 
d="M187 631c0 -40 -32 -72 -72 -72c-39 0 -71 33 -71 72s32 71 72 71c39 0 71 -32 71 -71zM377 631c0 -40 -32 -72 -72 -72c-39 0 -71 33 -71 72s32 71 72 71c39 0 71 -32 71 -71z" />
    <glyph glyph-name="copyright" unicode="&#xa9;" horiz-adv-x="747" 
d="M723 339c0 -195 -159 -353 -354 -353s-353 158 -353 353s158 354 353 354s354 -159 354 -354zM675 339c0 169 -137 306 -306 306s-305 -137 -305 -306s136 -305 305 -305s306 136 306 305zM566 512l-29 -147l-38 5c-4 78 -29 117 -83 117c-84 0 -124 -123 -122 -207
c2 -51 32 -85 82 -85c47 0 93 30 109 76h45c-20 -63 -79 -118 -168 -118c-110 0 -188 57 -190 153c-4 118 107 218 236 218c41 0 72 -11 98 -36l26 24h34z" />
    <glyph glyph-name="ordfeminine" unicode="&#xaa;" horiz-adv-x="412" 
d="M449 545c-41 -64 -94 -103 -141 -103c-32 0 -57 21 -56 46c0 0 0 3 1 5c-36 -38 -65 -51 -108 -51c-68 0 -116 45 -116 109c0 97 92 186 191 186c38 0 66 -13 82 -37l10 28h105l-66 -199c-7 -23 -7 -23 -7 -27c0 -5 5 -10 9 -10c11 0 46 34 70 67zM282 661
c0 25 -17 43 -41 43c-27 0 -50 -19 -71 -57c-19 -37 -32 -84 -32 -116c0 -29 16 -47 41 -47s49 21 69 58c19 38 34 89 34 119zM391 351l-16 -58h-346l16 58h346z" />
    <glyph glyph-name="guillemotleft" unicode="&#xab;" horiz-adv-x="481" 
d="M158 90c0 -6 -5 -12 -12 -12c-5 0 -10 2 -16 8l-160 151c-3 3 -5 8 -5 8c0 3 2 5 7 8l222 160c6 4 11 6 16 6c7 0 14 -7 14 -14c0 -4 -3 -9 -9 -16l-135 -142l75 -147c2 -3 3 -7 3 -10zM361 90c0 -6 -5 -12 -12 -12c-5 0 -10 2 -16 8l-160 151c-3 3 -5 8 -5 8
c0 3 2 5 7 8l222 160c6 4 11 6 16 6c7 0 14 -7 14 -14c0 -4 -3 -9 -9 -16l-135 -142l75 -147c2 -3 3 -7 3 -10z" />
    <glyph glyph-name="logicalnot" unicode="&#xac;" horiz-adv-x="606" 
d="M557 390v-230h-100v130h-418v100h518z" />
    <glyph glyph-name="uni00AD" unicode="&#xad;" 
d="M272 310l-35 -130h-227l35 130h227z" />
    <glyph glyph-name="registered" unicode="&#xae;" horiz-adv-x="747" 
d="M723 339c0 -195 -159 -353 -354 -353s-353 158 -353 353s158 354 353 354s354 -159 354 -354zM675 339c0 169 -137 306 -306 306s-305 -137 -305 -306s136 -305 305 -305s306 136 306 305zM581 436c1 -53 -43 -86 -129 -97c37 -15 55 -40 56 -82c5 -51 3 -52 4 -52
c13 0 24 16 34 44l28 -12c-17 -54 -46 -80 -94 -80c-49 0 -86 29 -88 74c0 16 5 49 5 68c-1 21 -13 32 -39 32h-11l-25 -93c-4 -15 -6 -25 -6 -29c0 -7 7 -7 31 -7h17l-5 -38h-202l4 38h13c15 0 18 0 22 3c3 3 3 4 11 35l56 207c5 19 7 25 6 30c0 7 -5 7 -29 7h-15l4 37h185
c111 0 165 -21 167 -85zM462 443c-1 25 -16 41 -47 41h-13c-12 0 -15 -4 -17 -13l-28 -102c48 0 59 2 75 13c19 13 31 36 30 61z" />
    <glyph glyph-name="macron" unicode="&#xaf;" 
d="M388 668l-21 -76h-334l21 76h334z" />
    <glyph glyph-name="degree" unicode="&#xb0;" horiz-adv-x="400" 
d="M370 533c0 -86 -66 -153 -150 -153s-150 68 -150 154c0 85 68 152 153 152c83 0 147 -67 147 -153zM313 533c0 53 -41 96 -91 96c-54 0 -96 -43 -96 -96s43 -96 94 -96c52 0 93 42 93 96z" />
    <glyph glyph-name="plusminus" unicode="&#xb1;" horiz-adv-x="606" 
d="M557 300h-209v-110h-100v110h-209v100h209v209h100v-209h209v-100zM557 0h-518v100h518v-100z" />
    <glyph glyph-name="two.superior" unicode="&#xb2;" horiz-adv-x="344" 
d="M340 425l-55 -143h-301v5c0 28 25 55 114 127c61 49 94 79 113 100c23 27 36 58 36 85c0 37 -28 63 -70 63c-31 0 -63 -18 -63 -36c0 -8 4 -11 24 -20c25 -9 36 -23 36 -45c0 -31 -23 -51 -56 -51c-39 0 -67 29 -67 69c0 73 70 126 164 126c87 0 145 -45 145 -111
c0 -33 -18 -68 -49 -97c-24 -21 -42 -33 -94 -61c-49 -27 -63 -35 -115 -68h119c42 0 53 7 77 54l8 14z" />
    <glyph glyph-name="three.superior" unicode="&#xb3;" horiz-adv-x="344" 
d="M320 409c0 -77 -77 -135 -181 -135c-87 0 -143 39 -143 99c0 37 26 63 63 63c32 0 55 -21 55 -49c0 -23 -13 -37 -42 -46c-3 -1 -4 -2 -4 -5c0 -12 28 -26 53 -26c52 0 86 47 86 118c0 35 -15 55 -41 55c-6 0 -6 0 -20 -4c-5 -1 -11 -2 -15 -2c-16 0 -26 8 -26 22
s10 24 25 24c6 0 10 -1 18 -3c9 -2 13 -3 20 -3c38 0 72 44 72 93c0 36 -20 57 -54 57c-24 0 -48 -10 -48 -20c0 0 1 -3 4 -4c20 -14 29 -27 29 -44c0 -25 -24 -45 -53 -45c-33 0 -57 23 -57 55c0 54 64 96 145 96c84 0 142 -41 142 -99c0 -49 -41 -91 -102 -105l-4 -1
c-1 -1 -3 -1 -5 -2c21 -5 32 -9 43 -16c24 -14 40 -44 40 -73z" />
    <glyph glyph-name="acute" unicode="&#xb4;" 
d="M337 670c0 -19 -10 -34 -28 -44l-166 -88h-54l124 139c34 37 46 45 70 45c30 0 54 -23 54 -52z" />
    <glyph glyph-name="uni00B5" unicode="&#xb5;" horiz-adv-x="685" 
d="M639 152c-78 -121 -136 -166 -212 -166c-63 0 -97 29 -97 84c0 10 0 17 1 27c-65 -78 -119 -111 -183 -111c-33 0 -59 12 -80 37c-6 -18 -8 -32 -8 -44c0 -24 9 -81 9 -96c0 -55 -46 -102 -101 -102c-34 0 -58 20 -58 48c0 27 6 43 56 115c22 32 34 54 40 76l88 299
c11 38 16 57 16 67c0 23 -8 31 -61 31h-10l7 61h253l-90 -304c-4 -14 -21 -57 -21 -79c0 -13 12 -25 24 -25c55 0 144 114 179 229l48 165h158l-93 -312c-17 -56 -16 -56 -16 -67c0 -7 7 -14 14 -14c17 0 56 43 99 109z" />
    <glyph glyph-name="paragraph" unicode="&#xb6;" horiz-adv-x="650" 
d="M432 -144h-365l15 54h6c27 0 49 9 57 22c4 8 4 8 19 65l88 328h-9c-103 0 -166 53 -166 140c0 68 40 151 94 197c50 42 111 60 201 60h289l-15 -54h-3c-21 0 -48 -7 -56 -14c-9 -8 -9 -8 -26 -73l-157 -584l-10 -39c-3 -10 -5 -19 -5 -26c0 -14 16 -22 51 -22h6zM483 668
h-38l-203 -757h38z" />
    <glyph glyph-name="periodcentered" unicode="&#xb7;" horiz-adv-x="287" 
d="M233 250c0 -52 -43 -94 -94 -94c-52 0 -94 42 -94 94s42 94 94 94c51 0 94 -42 94 -94z" />
    <glyph glyph-name="cedilla" unicode="&#xb8;" 
d="M157 -133c0 -52 -55 -87 -135 -87c-43 0 -82 10 -109 29l22 35c32 -14 51 -19 72 -19c29 0 49 16 49 38c0 20 -18 35 -42 35c-8 0 -14 -1 -29 -4l-17 17l71 94h45l-46 -66c13 2 24 3 33 3c49 0 86 -32 86 -75z" />
    <glyph glyph-name="one.superior" unicode="&#xb9;" horiz-adv-x="344" 
d="M294 282h-273l5 39h37c43 0 49 3 55 25c2 6 4 15 7 25l61 221c2 8 4 17 4 22c0 10 -6 13 -26 13h-62l10 36c67 2 149 22 180 43h31l-93 -335c-7 -28 -8 -31 -8 -36c0 -12 8 -14 49 -14h28z" />
    <glyph glyph-name="ordmasculine" unicode="&#xba;" horiz-adv-x="356" 
d="M383 622c0 -102 -92 -180 -213 -180c-87 0 -141 47 -141 121c0 94 96 174 210 174c88 0 144 -45 144 -115zM247 531c19 43 33 99 33 132c0 28 -17 46 -44 46c-28 0 -53 -23 -73 -66c-17 -37 -30 -91 -30 -127c0 -31 15 -48 42 -48c30 0 53 21 72 63zM349 351l-16 -58
h-304l16 58h304z" />
    <glyph glyph-name="guillemotright" unicode="&#xbb;" horiz-adv-x="481" 
d="M253 252c0 -3 -2 -5 -7 -8l-222 -160c-6 -4 -11 -6 -16 -6c-7 0 -14 7 -14 14c0 4 3 9 9 16l135 142l-75 147c-2 3 -3 7 -3 10c0 6 5 12 12 12c5 0 10 -2 16 -8l160 -151c3 -3 5 -8 5 -8zM456 252c0 -3 -2 -5 -7 -8l-222 -160c-6 -4 -11 -6 -16 -6c-7 0 -14 7 -14 14
c0 4 3 9 9 16l135 142l-75 147c-2 3 -3 7 -3 10c0 6 5 12 12 12c5 0 10 -2 16 -8l160 -151c3 -3 5 -8 5 -8z" />
    <glyph glyph-name="onequarter" unicode="&#xbc;" horiz-adv-x="861" 
d="M680 722l-419 -722h-80l420 722h79zM811 109h-76l-6 -21c-6 -21 -8 -31 -8 -36c0 -11 8 -13 47 -13h15l-6 -39h-235l6 39h18c25 0 40 2 46 7c4 4 4 4 16 44l5 19h-166v38l293 277h66l-78 -269h71zM294 282h-273l5 39h37c43 0 49 3 55 25c2 6 4 15 7 25l61 221
c2 8 4 17 4 22c0 10 -6 13 -26 13h-62l10 36c67 2 149 22 180 43h31l-93 -335c-7 -28 -8 -31 -8 -36c0 -12 8 -14 49 -14h28zM688 303l-153 -148h111z" />
    <glyph glyph-name="onehalf" unicode="&#xbd;" horiz-adv-x="861" 
d="M685 722l-420 -722h-79l419 722h80zM294 282h-273l5 39h37c43 0 49 3 55 25c2 6 4 15 7 25l61 221c2 8 4 17 4 22c0 10 -6 13 -26 13h-62l10 36c67 2 149 22 180 43h31l-93 -335c-7 -28 -8 -31 -8 -36c0 -12 8 -14 49 -14h28zM837 143l-55 -143h-301c-4 28 22 58 114 132
c61 49 94 78 113 100c23 26 36 58 36 84c0 37 -28 63 -70 63c-31 0 -63 -18 -63 -36c0 -8 4 -11 24 -19c25 -10 36 -24 36 -45c0 -31 -23 -51 -56 -51c-39 0 -67 29 -67 69c0 72 70 125 164 125c87 0 145 -45 145 -111c0 -32 -18 -67 -49 -96c-24 -22 -42 -34 -94 -61
c-49 -27 -63 -35 -115 -68h119c42 0 53 7 77 53l8 15z" />
    <glyph glyph-name="threequarters" unicode="&#xbe;" horiz-adv-x="861" 
d="M694 722l-419 -722h-80l420 722h79zM811 109h-76l-6 -21c-6 -21 -8 -31 -8 -36c0 -11 8 -13 47 -13h15l-6 -39h-235l6 39h18c25 0 40 2 46 7c4 4 4 4 16 44l5 19h-166v38l293 277h66l-78 -269h71zM320 409c0 -77 -77 -135 -181 -135c-87 0 -143 39 -143 99
c0 37 26 63 63 63c32 0 55 -21 55 -49c0 -23 -13 -37 -42 -46c-3 -1 -4 -2 -4 -5c0 -12 28 -26 53 -26c52 0 86 47 86 118c0 35 -15 55 -41 55c-6 0 -6 0 -20 -4c-5 -1 -11 -2 -15 -2c-16 0 -26 8 -26 22s10 24 25 24c6 0 10 -1 18 -3c9 -2 13 -3 20 -3c38 0 72 44 72 93
c0 36 -20 57 -54 57c-24 0 -48 -10 -48 -20c0 0 1 -3 4 -4c20 -14 29 -27 29 -44c0 -25 -24 -45 -53 -45c-33 0 -57 23 -57 55c0 54 64 96 145 96c84 0 142 -41 142 -99c0 -49 -41 -91 -102 -105l-4 -1s-3 -1 -5 -2c21 -5 32 -9 43 -16c24 -14 40 -44 40 -73zM688 303
l-153 -148h111z" />
    <glyph glyph-name="questiondown" unicode="&#xbf;" horiz-adv-x="481" 
d="M510 -67c0 -95 -75 -191 -186 -191c-96 0 -167 65 -167 155c0 83 48 141 171 206c63 33 76 46 76 72s-18 42 -46 42c-33 0 -56 -23 -74 -73l-49 12c21 68 75 111 141 111c68 0 121 -53 121 -120c0 -78 -53 -150 -152 -206c-65 -37 -82 -56 -82 -87c0 -38 29 -64 73 -64
c66 0 126 71 126 150c0 4 -1 9 -2 19h48c1 -12 2 -22 2 -26zM530 407c0 -48 -39 -87 -87 -87s-87 39 -87 87s39 87 88 87c47 0 86 -40 86 -87z" />
    <glyph glyph-name="Agrave" unicode="&#xc0;" horiz-adv-x="741" 
d="M709 0h-374l7 54h16c41 0 52 1 66 8c10 4 17 14 17 23c0 7 -1 18 -4 32l-20 103h-232l-46 -81c-9 -15 -14 -31 -14 -43c0 -29 15 -42 71 -42h23l-8 -54h-286l7 54h16c44 0 85 39 123 103l348 579h62l131 -622c10 -47 29 -60 90 -60h14zM404 274l-46 241l-141 -241h187z
M582 770h-65l-156 80c-17 9 -22 22 -13 39c14 26 54 47 90 47c28 0 41 -6 63 -40z" />
    <glyph glyph-name="Aacute" unicode="&#xc1;" horiz-adv-x="741" 
d="M709 0h-374l7 54h16c41 0 52 1 66 8c10 4 17 14 17 23c0 7 -1 18 -4 32l-20 103h-232l-46 -81c-9 -15 -14 -31 -14 -43c0 -29 15 -42 71 -42h23l-8 -54h-286l7 54h16c44 0 85 39 123 103l348 579h62l131 -622c10 -47 29 -60 90 -60h14zM404 274l-46 241l-141 -241h187z
M633 889c0 -17 -12 -30 -34 -39l-199 -80h-65l149 126c40 34 56 40 84 40c36 0 65 -21 65 -47z" />
    <glyph glyph-name="Acircumflex" unicode="&#xc2;" horiz-adv-x="741" 
d="M709 0h-374l7 54h16c41 0 52 1 66 8c10 4 17 14 17 23c0 7 -1 18 -4 32l-20 103h-232l-46 -81c-9 -15 -14 -31 -14 -43c0 -29 15 -42 71 -42h23l-8 -54h-286l7 54h16c44 0 85 39 123 103l348 579h62l131 -622c10 -47 29 -60 90 -60h14zM404 274l-46 241l-141 -241h187z
M665 775h-70l-108 78l-152 -78h-80l188 157h122z" />
    <glyph glyph-name="Atilde" unicode="&#xc3;" horiz-adv-x="741" 
d="M709 0h-374l7 54h16c41 0 52 1 66 8c10 4 17 14 17 23c0 7 -1 18 -4 32l-20 103h-232l-46 -81c-9 -15 -14 -31 -14 -43c0 -29 15 -42 71 -42h23l-8 -54h-286l7 54h16c44 0 85 39 123 103l348 579h62l131 -622c10 -47 29 -60 90 -60h14zM404 274l-46 241l-141 -241h187z
M666 916c-3 -67 -61 -126 -124 -126c-21 0 -46 6 -85 21c-45 18 -57 21 -72 21c-22 0 -37 -15 -42 -42h-47c5 73 58 126 124 126c20 0 46 -6 79 -19c48 -19 55 -21 70 -21c25 0 42 14 50 40h47z" />
    <glyph glyph-name="Adieresis" unicode="&#xc4;" horiz-adv-x="741" 
d="M709 0h-374l7 54h16c41 0 52 1 66 8c10 4 17 14 17 23c0 7 -1 18 -4 32l-20 103h-232l-46 -81c-9 -15 -14 -31 -14 -43c0 -29 15 -42 71 -42h23l-8 -54h-286l7 54h16c44 0 85 39 123 103l348 579h62l131 -622c10 -47 29 -60 90 -60h14zM404 274l-46 241l-141 -241h187z
M458 854c0 -40 -32 -72 -72 -72c-39 0 -71 33 -71 72s32 71 72 71c39 0 71 -32 71 -71zM648 854c0 -40 -32 -72 -72 -72c-39 0 -71 33 -71 72s32 71 72 71c39 0 71 -32 71 -71z" />
    <glyph glyph-name="Aring" unicode="&#xc5;" horiz-adv-x="741" 
d="M709 0h-374l7 54h16c41 0 52 1 66 8c10 4 17 14 17 23c0 7 -1 18 -4 32l-20 103h-232l-46 -81c-9 -15 -14 -31 -14 -43c0 -29 15 -42 71 -42h23l-8 -54h-286l7 54h16c44 0 85 39 123 103l348 579h62l131 -622c10 -47 29 -60 90 -60h14zM404 274l-46 241l-141 -241h187z
M592 869c0 -60 -48 -108 -109 -108c-57 0 -106 49 -106 108c0 58 49 107 108 107s107 -48 107 -107zM538 869c0 29 -24 53 -53 53c-30 0 -54 -24 -54 -54c0 -28 24 -53 53 -53c30 0 54 24 54 54z" />
    <glyph glyph-name="AE" unicode="&#xc6;" horiz-adv-x="889" 
d="M784 0h-594l8 54h24c42 0 46 4 56 14c7 8 9 8 27 76l34 127h-171l-91 -145c-8 -13 -12 -24 -12 -34c0 -26 24 -37 80 -38l-7 -54h-219l7 54c28 6 37 16 71 68l294 450c14 21 20 37 20 52c0 27 -28 44 -72 44h-31l7 54h688l-40 -245h-49c0 72 -5 101 -18 127
c-21 42 -63 64 -120 64h-11c-34 0 -47 -10 -57 -48l-58 -219h39c63 0 92 39 123 122l47 -7l-90 -335l-47 7c5 29 6 44 6 62c0 66 -21 97 -61 97h-32l-63 -236c-3 -12 -5 -23 -5 -32c0 -16 16 -25 47 -25h12c106 0 217 83 275 205l49 -11zM442 657c1 2 1 4 1 4c0 3 -5 6 -9 6
c-5 0 -9 -3 -13 -9l-216 -333h148z" />
    <glyph glyph-name="Ccedilla" unicode="&#xc7;" horiz-adv-x="759" 
d="M679 212c-52 -148 -166 -230 -318 -227l-34 -47c13 2 25 3 33 3c49 0 86 -32 86 -75c0 -52 -55 -88 -135 -88c-43 0 -82 10 -109 29l22 35c32 -14 50 -19 72 -19c29 0 49 16 49 38c0 20 -18 35 -42 35c-8 0 -14 -1 -29 -4l-17 17l60 79c-179 23 -282 135 -282 304
c0 239 203 445 438 445c79 0 138 -26 184 -82l56 57h46l-58 -286l-49 6c-5 171 -58 252 -165 252c-66 0 -126 -38 -167 -108c-59 -97 -95 -227 -95 -339c0 -116 66 -190 172 -190c91 0 182 68 219 165h63z" />
    <glyph glyph-name="Egrave" unicode="&#xc8;" horiz-adv-x="741" 
d="M602 0h-643l7 54h14c60 0 71 6 82 48l128 476c9 35 13 54 13 63c0 22 -14 27 -79 27h-19l8 54h615l-40 -245h-52c-2 145 -39 191 -158 191h-38c-41 0 -53 -9 -63 -48l-59 -219h31c87 0 122 33 156 122l53 -7l-90 -335l-53 7c4 30 5 44 5 62c0 65 -21 97 -84 97h-32
l-63 -236c-4 -13 -7 -26 -6 -32c0 -18 16 -25 54 -25h36c112 0 225 73 291 205l52 -11zM557 770h-65l-156 80c-17 9 -22 22 -13 39c14 26 54 47 90 47c28 0 41 -6 63 -40z" />
    <glyph glyph-name="Eacute" unicode="&#xc9;" horiz-adv-x="741" 
d="M602 0h-643l7 54h14c60 0 71 6 82 48l128 476c9 35 13 54 13 63c0 22 -14 27 -79 27h-19l8 54h615l-40 -245h-52c-2 145 -39 191 -158 191h-38c-41 0 -53 -9 -63 -48l-59 -219h31c87 0 122 33 156 122l53 -7l-90 -335l-53 7c4 30 5 44 5 62c0 65 -21 97 -84 97h-32
l-63 -236c-4 -13 -7 -26 -6 -32c0 -18 16 -25 54 -25h36c112 0 225 73 291 205l52 -11zM608 889c0 -17 -12 -30 -34 -39l-199 -80h-65l149 126c40 34 56 40 84 40c36 0 65 -21 65 -47z" />
    <glyph glyph-name="Ecircumflex" unicode="&#xca;" horiz-adv-x="741" 
d="M602 0h-643l7 54h14c60 0 71 6 82 48l128 476c9 35 13 54 13 63c0 22 -14 27 -79 27h-19l8 54h615l-40 -245h-52c-2 145 -39 191 -158 191h-38c-41 0 -53 -9 -63 -48l-59 -219h31c87 0 122 33 156 122l53 -7l-90 -335l-53 7c4 30 5 44 5 62c0 65 -21 97 -84 97h-32
l-63 -236c-4 -13 -7 -26 -6 -32c0 -18 16 -25 54 -25h36c112 0 225 73 291 205l52 -11zM640 775h-70l-108 78l-152 -78h-80l188 157h122z" />
    <glyph glyph-name="Edieresis" unicode="&#xcb;" horiz-adv-x="741" 
d="M602 0h-643l7 54h14c60 0 71 6 82 48l128 476c9 35 13 54 13 63c0 22 -14 27 -79 27h-19l8 54h615l-40 -245h-52c-2 145 -39 191 -158 191h-38c-41 0 -53 -9 -63 -48l-59 -219h31c87 0 122 33 156 122l53 -7l-90 -335l-53 7c4 30 5 44 5 62c0 65 -21 97 -84 97h-32
l-63 -236c-4 -13 -7 -26 -6 -32c0 -18 16 -25 54 -25h36c112 0 225 73 291 205l52 -11zM433 854c0 -40 -32 -72 -72 -72c-39 0 -71 33 -71 72s32 71 72 71c39 0 71 -32 71 -71zM623 854c0 -40 -32 -72 -72 -72c-39 0 -71 33 -71 72s32 71 72 71c39 0 71 -32 71 -71z" />
    <glyph glyph-name="Igrave" unicode="&#xcc;" horiz-adv-x="444" 
d="M332 0h-373l7 54h20c42 0 53 4 63 14c9 8 9 8 27 76l116 434c10 34 14 54 14 63c0 22 -14 27 -79 27h-22l8 54h373l-7 -54h-21c-42 0 -52 -4 -62 -14c-9 -7 -9 -7 -27 -76l-116 -434c-14 -55 -14 -55 -14 -63c0 -22 14 -27 79 -27h22zM455 770h-65l-156 80
c-17 9 -22 22 -13 39c14 26 54 47 90 47c28 0 41 -6 63 -40z" />
    <glyph glyph-name="Iacute" unicode="&#xcd;" horiz-adv-x="444" 
d="M332 0h-373l7 54h20c42 0 53 4 63 14c9 8 9 8 27 76l116 434c10 34 14 54 14 63c0 22 -14 27 -79 27h-22l8 54h373l-7 -54h-21c-42 0 -52 -4 -62 -14c-9 -7 -9 -7 -27 -76l-116 -434c-14 -55 -14 -55 -14 -63c0 -22 14 -27 79 -27h22zM506 889c0 -17 -12 -30 -34 -39
l-199 -80h-65l149 126c40 34 56 40 84 40c36 0 65 -21 65 -47z" />
    <glyph glyph-name="Icircumflex" unicode="&#xce;" horiz-adv-x="444" 
d="M332 0h-373l7 54h20c42 0 53 4 63 14c9 8 9 8 27 76l116 434c10 34 14 54 14 63c0 22 -14 27 -79 27h-22l8 54h373l-7 -54h-21c-42 0 -52 -4 -62 -14c-9 -7 -9 -7 -27 -76l-116 -434c-14 -55 -14 -55 -14 -63c0 -22 14 -27 79 -27h22zM538 775h-70l-108 78l-152 -78h-80
l188 157h122z" />
    <glyph glyph-name="Idieresis" unicode="&#xcf;" horiz-adv-x="444" 
d="M332 0h-373l7 54h20c42 0 53 4 63 14c9 8 9 8 27 76l116 434c10 34 14 54 14 63c0 22 -14 27 -79 27h-22l8 54h373l-7 -54h-21c-42 0 -52 -4 -62 -14c-9 -7 -9 -7 -27 -76l-116 -434c-14 -55 -14 -55 -14 -63c0 -22 14 -27 79 -27h22zM331 854c0 -40 -32 -72 -72 -72
c-39 0 -71 33 -71 72s32 71 72 71c39 0 71 -32 71 -71zM521 854c0 -40 -32 -72 -72 -72c-39 0 -71 33 -71 72s32 71 72 71c39 0 71 -32 71 -71z" />
    <glyph glyph-name="Eth" unicode="&#xd0;" horiz-adv-x="833" 
d="M796 438c0 -133 -56 -258 -151 -338c-85 -72 -186 -100 -360 -100h-334l7 54h20c42 0 50 4 61 14c8 8 8 8 27 76l50 195h-93l17 63h93l49 176c8 29 13 54 13 63c0 22 -11 27 -76 27h-21l7 54h358c109 0 170 -15 228 -56c69 -48 105 -126 105 -228zM610 501
c0 109 -52 167 -149 167h-22c-46 0 -60 -12 -74 -63l-56 -203h151l-17 -63h-151l-55 -212c-9 -36 -9 -38 -9 -46c0 -19 15 -27 53 -27h29c86 0 157 37 205 108c54 82 95 226 95 339z" />
    <glyph glyph-name="Ntilde" unicode="&#xd1;" horiz-adv-x="852" 
d="M905 668c-34 0 -61 -9 -81 -27c-28 -27 -30 -30 -61 -136l-139 -519h-80l-296 566l-90 -335c-20 -80 -21 -87 -21 -108c0 -37 19 -55 77 -55h21l-8 -54h-284l7 54c34 1 61 10 81 27c28 26 30 32 60 136l113 419c-12 23 -28 32 -59 32h-56l7 54h254l268 -507l78 290
c21 80 22 86 22 108c0 37 -30 55 -90 55l7 54h277zM744 916c-3 -67 -61 -126 -124 -126c-21 0 -46 6 -85 21c-45 18 -57 21 -72 21c-22 0 -37 -15 -42 -42h-47c5 73 58 126 124 126c20 0 46 -6 79 -19c48 -19 55 -21 70 -21c25 0 42 14 50 40h47z" />
    <glyph glyph-name="Ograve" unicode="&#xd2;" horiz-adv-x="833" 
d="M797 441c0 -248 -208 -456 -455 -456c-185 0 -306 119 -306 301c0 249 214 451 454 451c173 0 307 -130 307 -296zM533 196c49 94 80 219 80 324c0 101 -47 163 -126 163c-75 0 -135 -50 -187 -155c-49 -100 -85 -241 -85 -335c0 -95 49 -154 127 -154
c72 0 135 51 191 157zM649 770h-65l-156 80c-17 9 -22 22 -13 39c14 26 54 47 90 47c28 0 41 -6 63 -40z" />
    <glyph glyph-name="Oacute" unicode="&#xd3;" horiz-adv-x="833" 
d="M797 441c0 -248 -208 -456 -455 -456c-185 0 -306 119 -306 301c0 249 214 451 454 451c173 0 307 -130 307 -296zM533 196c49 94 80 219 80 324c0 101 -47 163 -126 163c-75 0 -135 -50 -187 -155c-49 -100 -85 -241 -85 -335c0 -95 49 -154 127 -154
c72 0 135 51 191 157zM700 889c0 -17 -12 -30 -34 -39l-199 -80h-65l149 126c40 34 56 40 84 40c36 0 65 -21 65 -47z" />
    <glyph glyph-name="Ocircumflex" unicode="&#xd4;" horiz-adv-x="833" 
d="M797 441c0 -248 -208 -456 -455 -456c-185 0 -306 119 -306 301c0 249 214 451 454 451c173 0 307 -130 307 -296zM533 196c49 94 80 219 80 324c0 101 -47 163 -126 163c-75 0 -135 -50 -187 -155c-49 -100 -85 -241 -85 -335c0 -95 49 -154 127 -154
c72 0 135 51 191 157zM732 775h-70l-108 78l-152 -78h-80l188 157h122z" />
    <glyph glyph-name="Otilde" unicode="&#xd5;" horiz-adv-x="833" 
d="M797 441c0 -248 -208 -456 -455 -456c-185 0 -306 119 -306 301c0 249 214 451 454 451c173 0 307 -130 307 -296zM533 196c49 94 80 219 80 324c0 101 -47 163 -126 163c-75 0 -135 -50 -187 -155c-49 -100 -85 -241 -85 -335c0 -95 49 -154 127 -154
c72 0 135 51 191 157zM733 916c-3 -67 -61 -126 -124 -126c-21 0 -46 6 -85 21c-45 18 -57 21 -72 21c-22 0 -37 -15 -42 -42h-47c5 73 58 126 124 126c20 0 46 -6 79 -19c48 -19 55 -21 70 -21c25 0 42 14 50 40h47z" />
    <glyph glyph-name="Odieresis" unicode="&#xd6;" horiz-adv-x="833" 
d="M797 441c0 -248 -208 -456 -455 -456c-185 0 -306 119 -306 301c0 249 214 451 454 451c173 0 307 -130 307 -296zM533 196c49 94 80 219 80 324c0 101 -47 163 -126 163c-75 0 -135 -50 -187 -155c-49 -100 -85 -241 -85 -335c0 -95 49 -154 127 -154
c72 0 135 51 191 157zM525 854c0 -40 -32 -72 -72 -72c-39 0 -71 33 -71 72s32 71 72 71c39 0 71 -32 71 -71zM715 854c0 -40 -32 -72 -72 -72c-39 0 -71 33 -71 72s32 71 72 71c39 0 71 -32 71 -71z" />
    <glyph glyph-name="multiply" unicode="&#xd7;" horiz-adv-x="606" 
d="M516 102l-70 -70l-148 147l-148 -147l-70 70l147 148l-147 148l70 70l148 -147l148 147l70 -70l-147 -148z" />
    <glyph glyph-name="Oslash" unicode="&#xd8;" horiz-adv-x="833" 
d="M797 441c0 -247 -208 -456 -453 -456c-65 0 -128 15 -172 42l-90 -110h-65l114 140c-62 54 -95 135 -95 229c0 245 205 451 449 451c64 0 119 -13 167 -40l61 76h65l-86 -106c69 -60 105 -137 105 -226zM591 623c-22 38 -60 59 -104 59c-74 0 -135 -51 -187 -154
c-48 -99 -85 -240 -85 -331c0 -10 1 -22 2 -34zM533 197c48 92 80 219 80 317c0 18 -1 30 -3 52l-376 -462c22 -42 59 -64 107 -64c74 0 136 51 192 157z" />
    <glyph glyph-name="Ugrave" unicode="&#xd9;" horiz-adv-x="833" 
d="M888 668c-27 0 -59 -10 -78 -27c-28 -25 -31 -32 -61 -135l-74 -279c-45 -169 -138 -242 -304 -242c-174 0 -283 86 -283 211c0 28 6 65 17 107l74 275c12 46 14 54 14 63c0 22 -9 27 -75 27h-23l7 54h376l-8 -54h-22c-42 0 -56 -4 -66 -14c-9 -8 -9 -8 -27 -76l-81 -304
c-11 -40 -15 -64 -15 -88c0 -88 55 -139 150 -139c93 0 164 48 206 207l67 252c21 79 22 86 22 107c0 38 -29 55 -90 55l7 54h274zM648 770h-65l-156 80c-17 9 -22 22 -13 39c14 26 54 47 90 47c28 0 41 -6 63 -40z" />
    <glyph glyph-name="Uacute" unicode="&#xda;" horiz-adv-x="833" 
d="M888 668c-27 0 -59 -10 -78 -27c-28 -25 -31 -32 -61 -135l-74 -279c-45 -169 -138 -242 -304 -242c-174 0 -283 86 -283 211c0 28 6 65 17 107l74 275c12 46 14 54 14 63c0 22 -9 27 -75 27h-23l7 54h376l-8 -54h-22c-42 0 -56 -4 -66 -14c-9 -8 -9 -8 -27 -76l-81 -304
c-11 -40 -15 -64 -15 -88c0 -88 55 -139 150 -139c93 0 164 48 206 207l67 252c21 79 22 86 22 107c0 38 -29 55 -90 55l7 54h274zM699 889c0 -17 -12 -30 -34 -39l-199 -80h-65l149 126c40 34 56 40 84 40c36 0 65 -21 65 -47z" />
    <glyph glyph-name="Ucircumflex" unicode="&#xdb;" horiz-adv-x="833" 
d="M888 668c-27 0 -59 -10 -78 -27c-28 -25 -31 -32 -61 -135l-74 -279c-45 -169 -138 -242 -304 -242c-174 0 -283 86 -283 211c0 28 6 65 17 107l74 275c12 46 14 54 14 63c0 22 -9 27 -75 27h-23l7 54h376l-8 -54h-22c-42 0 -56 -4 -66 -14c-9 -8 -9 -8 -27 -76l-81 -304
c-11 -40 -15 -64 -15 -88c0 -88 55 -139 150 -139c93 0 164 48 206 207l67 252c21 79 22 86 22 107c0 38 -29 55 -90 55l7 54h274zM731 775h-70l-108 78l-152 -78h-80l188 157h122z" />
    <glyph glyph-name="Udieresis" unicode="&#xdc;" horiz-adv-x="833" 
d="M888 668c-27 0 -59 -10 -78 -27c-28 -25 -31 -32 -61 -135l-74 -279c-45 -169 -138 -242 -304 -242c-174 0 -283 86 -283 211c0 28 6 65 17 107l74 275c12 46 14 54 14 63c0 22 -9 27 -75 27h-23l7 54h376l-8 -54h-22c-42 0 -56 -4 -66 -14c-9 -8 -9 -8 -27 -76l-81 -304
c-11 -40 -15 -64 -15 -88c0 -88 55 -139 150 -139c93 0 164 48 206 207l67 252c21 79 22 86 22 107c0 38 -29 55 -90 55l7 54h274zM524 854c0 -40 -32 -72 -72 -72c-39 0 -71 33 -71 72s32 71 72 71c39 0 71 -32 71 -71zM714 854c0 -40 -32 -72 -72 -72c-39 0 -71 33 -71 72
s32 71 72 71c39 0 71 -32 71 -71z" />
    <glyph glyph-name="Yacute" unicode="&#xdd;" horiz-adv-x="704" 
d="M770 668c-63 -2 -95 -24 -154 -101l-200 -260l-43 -163c-11 -42 -14 -54 -14 -63c0 -22 14 -27 80 -27h25l-7 -54h-389l7 54h19c42 0 66 4 76 14c9 8 9 8 27 76l43 163l-117 304c-17 45 -36 57 -85 57h-23l7 54h366l-7 -54h-43c-34 0 -44 -5 -44 -24c0 -8 2 -17 9 -34
l91 -231l159 210c11 14 17 30 17 43c0 23 -21 36 -57 36h-36l8 54h292zM627 889c0 -17 -12 -30 -34 -39l-199 -80h-65l149 126c40 34 56 40 84 40c36 0 65 -21 65 -47z" />
    <glyph glyph-name="Thorn" unicode="&#xde;" horiz-adv-x="741" 
d="M690 391c0 -149 -99 -225 -354 -225h-75l-5 -22c-13 -55 -15 -55 -14 -63c0 -22 14 -27 79 -27h22l-8 -54h-373l7 54h18c42 0 55 4 65 14c9 8 9 8 27 76l116 434c9 34 15 55 14 63c0 22 -14 27 -79 27h-22l8 54h373l-7 -54h-17c-69 0 -71 -6 -82 -48l-11 -42h61
c193 0 257 -73 257 -187zM511 419c0 66 -38 105 -93 105h-11c-42 0 -52 -8 -64 -53l-67 -251h43c133 0 192 78 192 199z" />
    <glyph glyph-name="germandbls" unicode="&#xdf;" horiz-adv-x="574" 
d="M508 221c0 -139 -93 -236 -224 -236c-34 0 -55 4 -86 16l16 54c16 -17 28 -23 45 -23c67 0 99 183 99 267c0 41 -12 73 -33 87c-9 6 -53 17 -53 34c0 13 8 18 28 18c29 0 43 4 54 16c23 23 41 84 41 143c0 58 -22 95 -56 95c-47 0 -74 -51 -97 -186l-58 -337
c-13 -75 -54 -248 -86 -349l-164 -25c57 141 74 203 112 391l46 229c46 228 121 322 252 322c105 0 179 -65 179 -158c0 -84 -53 -148 -158 -169c97 -39 143 -92 143 -189z" />
    <glyph glyph-name="agrave" unicode="&#xe0;" horiz-adv-x="667" 
d="M646 157c-60 -101 -139 -172 -210 -172c-55 0 -85 35 -85 88c-48 -62 -94 -87 -163 -87c-101 0 -173 75 -173 181c0 162 138 312 286 312c59 0 101 -21 125 -63l14 48h157l-98 -332c-10 -39 -10 -39 -10 -46c0 -8 7 -16 14 -16c17 0 67 54 104 112zM395 351
c0 43 -25 73 -62 73c-82 0 -155 -175 -155 -289c0 -48 24 -79 61 -79c83 0 156 193 156 295zM461 538h-54l-119 88c-13 10 -15 25 -5 44c16 29 52 52 82 52c24 0 32 -8 46 -45z" />
    <glyph glyph-name="aacute" unicode="&#xe1;" horiz-adv-x="667" 
d="M646 157c-60 -101 -139 -172 -210 -172c-55 0 -85 35 -85 88c-48 -62 -94 -87 -163 -87c-101 0 -173 75 -173 181c0 162 138 312 286 312c59 0 101 -21 125 -63l14 48h157l-98 -332c-10 -39 -10 -39 -10 -46c0 -8 7 -16 14 -16c17 0 67 54 104 112zM395 351
c0 43 -25 73 -62 73c-82 0 -155 -175 -155 -289c0 -48 24 -79 61 -79c83 0 156 193 156 295zM514 670c0 -19 -10 -34 -28 -44l-166 -88h-54l124 139c34 37 46 45 70 45c30 0 54 -23 54 -52z" />
    <glyph glyph-name="acircumflex" unicode="&#xe2;" horiz-adv-x="667" 
d="M646 157c-60 -101 -139 -172 -210 -172c-55 0 -85 35 -85 88c-48 -62 -94 -87 -163 -87c-101 0 -173 75 -173 181c0 162 138 312 286 312c59 0 101 -21 125 -63l14 48h157l-98 -332c-10 -39 -10 -39 -10 -46c0 -8 7 -16 14 -16c17 0 67 54 104 112zM395 351
c0 43 -25 73 -62 73c-82 0 -155 -175 -155 -289c0 -48 24 -79 61 -79c83 0 156 193 156 295zM536 543h-59l-90 86l-126 -86h-67l157 174h101z" />
    <glyph glyph-name="atilde" unicode="&#xe3;" horiz-adv-x="667" 
d="M646 157c-60 -101 -139 -172 -210 -172c-55 0 -85 35 -85 88c-48 -62 -94 -87 -163 -87c-101 0 -173 75 -173 181c0 162 138 312 286 312c59 0 101 -21 125 -63l14 48h157l-98 -332c-10 -39 -10 -39 -10 -46c0 -8 7 -16 14 -16c17 0 67 54 104 112zM395 351
c0 43 -25 73 -62 73c-82 0 -155 -175 -155 -289c0 -48 24 -79 61 -79c83 0 156 193 156 295zM573 693c-3 -67 -61 -126 -124 -126c-21 0 -46 6 -85 21c-45 18 -57 21 -72 21c-22 0 -37 -15 -42 -42h-47c5 73 58 126 124 126c20 0 46 -6 79 -19c48 -19 55 -21 70 -21
c25 0 42 14 50 40h47z" />
    <glyph glyph-name="adieresis" unicode="&#xe4;" horiz-adv-x="667" 
d="M646 157c-60 -101 -139 -172 -210 -172c-55 0 -85 35 -85 88c-48 -62 -94 -87 -163 -87c-101 0 -173 75 -173 181c0 162 138 312 286 312c59 0 101 -21 125 -63l14 48h157l-98 -332c-10 -39 -10 -39 -10 -46c0 -8 7 -16 14 -16c17 0 67 54 104 112zM395 351
c0 43 -25 73 -62 73c-82 0 -155 -175 -155 -289c0 -48 24 -79 61 -79c83 0 156 193 156 295zM365 631c0 -40 -32 -72 -72 -72c-39 0 -71 33 -71 72s32 71 72 71c39 0 71 -32 71 -71zM555 631c0 -40 -32 -72 -72 -72c-39 0 -71 33 -71 72s32 71 72 71c39 0 71 -32 71 -71z
" />
    <glyph glyph-name="aring" unicode="&#xe5;" horiz-adv-x="667" 
d="M646 157c-60 -101 -139 -172 -210 -172c-55 0 -85 35 -85 88c-48 -62 -94 -87 -163 -87c-101 0 -173 75 -173 181c0 162 138 312 286 312c59 0 101 -21 125 -63l14 48h157l-98 -332c-10 -39 -10 -39 -10 -46c0 -8 7 -16 14 -16c17 0 67 54 104 112zM395 351
c0 43 -25 73 -62 73c-82 0 -155 -175 -155 -289c0 -48 24 -79 61 -79c83 0 156 193 156 295zM496 631c0 -60 -48 -108 -109 -108c-57 0 -106 49 -106 108c0 58 49 107 108 107s107 -48 107 -107zM442 631c0 29 -24 53 -53 53c-30 0 -54 -24 -54 -54c0 -28 24 -53 53 -53
c30 0 54 24 54 54z" />
    <glyph glyph-name="ae" unicode="&#xe6;" horiz-adv-x="815" 
d="M726 91c-64 -72 -137 -106 -231 -106s-154 38 -176 113c-43 -75 -110 -113 -201 -113c-86 0 -137 39 -137 105c0 93 84 142 343 174c13 50 17 70 17 96c0 44 -38 72 -96 72c-30 0 -51 -7 -51 -17s29 -44 29 -61c0 -36 -33 -64 -77 -64s-78 33 -78 76c0 67 71 113 173 113
c87 0 138 -20 180 -69c50 42 124 69 193 69c90 0 160 -53 160 -121c0 -89 -109 -166 -318 -177c-3 -23 -3 -31 -3 -45c0 -57 33 -92 86 -92c52 0 94 22 152 82zM311 214c-111 -10 -172 -47 -172 -105c0 -31 22 -53 51 -53c31 0 63 20 87 57c12 19 19 41 34 101zM652 385
c0 29 -17 47 -43 47c-63 0 -121 -82 -145 -204c101 14 188 77 188 157z" />
    <glyph glyph-name="ccedilla" unicode="&#xe7;" horiz-adv-x="537" 
d="M442 116c-71 -89 -144 -131 -228 -131c0 0 -8 0 -15 1l-35 -47c14 2 25 3 34 3c49 0 86 -32 86 -75c0 -52 -55 -87 -135 -87c-43 0 -82 10 -109 29l22 35c32 -14 51 -19 71 -19c30 0 50 16 50 38c0 20 -18 35 -43 35c-7 0 -14 -1 -29 -4l-16 17l62 79
c-98 20 -154 85 -154 181c0 167 143 308 313 308c104 0 171 -51 171 -129c0 -56 -34 -93 -86 -93c-46 0 -78 30 -78 72c0 28 10 45 38 62c9 5 12 9 12 16c0 15 -18 25 -42 25c-43 0 -80 -30 -111 -87c-30 -56 -52 -142 -52 -205c0 -55 34 -94 82 -94s98 32 156 101z" />
    <glyph glyph-name="egrave" unicode="&#xe8;" horiz-adv-x="519" 
d="M430 91c-63 -71 -137 -105 -228 -105c-132 0 -204 65 -204 185c0 164 148 308 316 308c94 0 164 -52 164 -121c0 -70 -56 -120 -170 -153c-47 -14 -90 -21 -149 -24c-2 -26 -2 -32 -2 -44c0 -57 33 -92 86 -92c52 0 92 21 152 81zM356 385c0 29 -17 47 -44 47
c-62 0 -121 -82 -144 -204c33 5 50 9 70 16c68 26 118 86 118 141zM437 538h-54l-119 88c-13 10 -15 25 -5 44c16 29 52 52 82 52c24 0 32 -8 46 -45z" />
    <glyph glyph-name="eacute" unicode="&#xe9;" horiz-adv-x="519" 
d="M430 91c-63 -71 -137 -105 -228 -105c-132 0 -204 65 -204 185c0 164 148 308 316 308c94 0 164 -52 164 -121c0 -70 -56 -120 -170 -153c-47 -14 -90 -21 -149 -24c-2 -26 -2 -32 -2 -44c0 -57 33 -92 86 -92c52 0 92 21 152 81zM356 385c0 29 -17 47 -44 47
c-62 0 -121 -82 -144 -204c33 5 50 9 70 16c68 26 118 86 118 141zM491 670c0 -19 -10 -34 -28 -44l-166 -88h-54l124 139c34 37 46 45 70 45c30 0 54 -23 54 -52z" />
    <glyph glyph-name="ecircumflex" unicode="&#xea;" horiz-adv-x="519" 
d="M430 91c-63 -71 -137 -105 -228 -105c-132 0 -204 65 -204 185c0 164 148 308 316 308c94 0 164 -52 164 -121c0 -70 -56 -120 -170 -153c-47 -14 -90 -21 -149 -24c-2 -26 -2 -32 -2 -44c0 -57 33 -92 86 -92c52 0 92 21 152 81zM356 385c0 29 -17 47 -44 47
c-62 0 -121 -82 -144 -204c33 5 50 9 70 16c68 26 118 86 118 141zM512 543h-59l-90 86l-126 -86h-67l157 174h101z" />
    <glyph glyph-name="edieresis" unicode="&#xeb;" horiz-adv-x="519" 
d="M430 91c-63 -71 -137 -105 -228 -105c-132 0 -204 65 -204 185c0 164 148 308 316 308c94 0 164 -52 164 -121c0 -70 -56 -120 -170 -153c-47 -14 -90 -21 -149 -24c-2 -26 -2 -32 -2 -44c0 -57 33 -92 86 -92c52 0 92 21 152 81zM356 385c0 29 -17 47 -44 47
c-62 0 -121 -82 -144 -204c33 5 50 9 70 16c68 26 118 86 118 141zM341 631c0 -40 -32 -72 -72 -72c-39 0 -71 33 -71 72s32 71 72 71c39 0 71 -32 71 -71zM531 631c0 -40 -32 -72 -72 -72c-39 0 -71 33 -71 72s32 71 72 71c39 0 71 -32 71 -71z" />
    <glyph glyph-name="igrave" unicode="&#xec;" horiz-adv-x="389" 
d="M353 149c-68 -114 -131 -164 -207 -164c-60 0 -104 38 -104 90c0 19 2 30 15 74l51 170c11 37 15 56 15 67c0 25 -12 31 -61 31h-24l7 47l267 14l-105 -356c-9 -31 -10 -34 -10 -42c0 -9 7 -16 16 -16c20 0 53 37 101 113zM342 538h-54l-119 88c-13 10 -15 25 -5 44
c16 29 52 52 82 52c24 0 32 -8 46 -45z" />
    <glyph glyph-name="iacute" unicode="&#xed;" horiz-adv-x="389" 
d="M353 149c-68 -114 -131 -164 -207 -164c-60 0 -104 38 -104 90c0 19 2 30 15 74l51 170c11 37 15 56 15 67c0 25 -12 31 -61 31h-24l7 47l267 14l-105 -356c-9 -31 -10 -34 -10 -42c0 -9 7 -16 16 -16c20 0 53 37 101 113zM395 670c0 -19 -10 -34 -28 -44l-166 -88h-54
l124 139c34 37 46 45 70 45c30 0 54 -23 54 -52z" />
    <glyph glyph-name="icircumflex" unicode="&#xee;" horiz-adv-x="389" 
d="M353 149c-68 -114 -131 -164 -207 -164c-60 0 -104 38 -104 90c0 19 2 30 15 74l51 170c11 37 15 56 15 67c0 25 -12 31 -61 31h-24l7 47l267 14l-105 -356c-9 -31 -10 -34 -10 -42c0 -9 7 -16 16 -16c20 0 53 37 101 113zM417 543h-59l-90 86l-126 -86h-67l157 174h101z
" />
    <glyph glyph-name="idieresis" unicode="&#xef;" horiz-adv-x="389" 
d="M353 149c-68 -114 -131 -164 -207 -164c-60 0 -104 38 -104 90c0 19 2 30 15 74l51 170c11 37 15 56 15 67c0 25 -12 31 -61 31h-24l7 47l267 14l-105 -356c-9 -31 -10 -34 -10 -42c0 -9 7 -16 16 -16c20 0 53 37 101 113zM246 631c0 -40 -32 -72 -72 -72
c-39 0 -71 33 -71 72s32 71 72 71c39 0 71 -32 71 -71zM436 631c0 -40 -32 -72 -72 -72c-39 0 -71 33 -71 72s32 71 72 71c39 0 71 -32 71 -71z" />
    <glyph glyph-name="eth" unicode="&#xf0;" horiz-adv-x="574" 
d="M540 310c0 -204 -140 -324 -320 -324c-133 0 -210 82 -210 201c0 157 144 292 311 292c24 0 47 -3 71 -9c-10 54 -32 99 -79 168l-139 -71l-26 51l127 64c-15 19 -38 38 -80 65l34 33c42 -18 72 -36 109 -65l143 73l26 -51l-124 -64c117 -134 157 -225 157 -363zM335 134
c28 71 50 168 50 222c0 45 -27 76 -65 76c-85 0 -155 -186 -155 -325c0 -49 24 -78 63 -78c44 0 79 34 107 105z" />
    <glyph glyph-name="ntilde" unicode="&#xf1;" horiz-adv-x="685" 
d="M642 152c-77 -119 -138 -167 -211 -167c-62 0 -102 35 -102 91c0 26 4 41 20 87l62 169c6 16 9 29 9 36c0 13 -15 26 -30 26c-24 0 -57 -24 -95 -69c-44 -53 -69 -105 -97 -198l-38 -127h-157l95 319c11 38 15 56 15 67c0 25 -12 31 -61 31h-24l7 47l250 14l-32 -132
c75 96 132 133 205 133c66 0 113 -43 113 -103c0 -33 -8 -67 -31 -128l-47 -128c-10 -30 -10 -30 -10 -38s7 -16 14 -16c18 0 44 26 97 100l9 11zM588 693c-3 -67 -61 -126 -124 -126c-21 0 -46 6 -85 21c-45 18 -57 21 -72 21c-22 0 -37 -15 -42 -42h-47
c5 73 58 126 124 126c20 0 46 -6 79 -19c48 -19 55 -21 70 -21c25 0 42 14 50 40h47z" />
    <glyph glyph-name="ograve" unicode="&#xf2;" horiz-adv-x="574" 
d="M540 285c0 -169 -139 -299 -320 -299c-63 0 -115 18 -150 51c-37 34 -60 92 -60 150c0 158 144 292 314 292c61 0 121 -20 160 -54c36 -31 56 -80 56 -140zM335 134c28 70 50 168 50 220c0 47 -26 78 -65 78c-43 0 -80 -38 -110 -110c-26 -63 -45 -154 -45 -214
c0 -50 24 -79 64 -79c43 0 79 35 106 105zM451 538h-54l-119 88c-13 10 -15 25 -5 44c16 29 52 52 82 52c24 0 32 -8 46 -45z" />
    <glyph glyph-name="oacute" unicode="&#xf3;" horiz-adv-x="574" 
d="M540 285c0 -169 -139 -299 -320 -299c-63 0 -115 18 -150 51c-37 34 -60 92 -60 150c0 158 144 292 314 292c61 0 121 -20 160 -54c36 -31 56 -80 56 -140zM335 134c28 70 50 168 50 220c0 47 -26 78 -65 78c-43 0 -80 -38 -110 -110c-26 -63 -45 -154 -45 -214
c0 -50 24 -79 64 -79c43 0 79 35 106 105zM505 670c0 -19 -10 -34 -28 -44l-166 -88h-54l124 139c34 37 46 45 70 45c30 0 54 -23 54 -52z" />
    <glyph glyph-name="ocircumflex" unicode="&#xf4;" horiz-adv-x="574" 
d="M540 285c0 -169 -139 -299 -320 -299c-63 0 -115 18 -150 51c-37 34 -60 92 -60 150c0 158 144 292 314 292c61 0 121 -20 160 -54c36 -31 56 -80 56 -140zM335 134c28 70 50 168 50 220c0 47 -26 78 -65 78c-43 0 -80 -38 -110 -110c-26 -63 -45 -154 -45 -214
c0 -50 24 -79 64 -79c43 0 79 35 106 105zM526 543h-59l-90 86l-126 -86h-67l157 174h101z" />
    <glyph glyph-name="otilde" unicode="&#xf5;" horiz-adv-x="574" 
d="M540 285c0 -169 -139 -299 -320 -299c-63 0 -115 18 -150 51c-37 34 -60 92 -60 150c0 158 144 292 314 292c61 0 121 -20 160 -54c36 -31 56 -80 56 -140zM335 134c28 70 50 168 50 220c0 47 -26 78 -65 78c-43 0 -80 -38 -110 -110c-26 -63 -45 -154 -45 -214
c0 -50 24 -79 64 -79c43 0 79 35 106 105zM563 693c-3 -67 -61 -126 -124 -126c-21 0 -46 6 -85 21c-45 18 -57 21 -72 21c-22 0 -37 -15 -42 -42h-47c5 73 58 126 124 126c20 0 46 -6 79 -19c48 -19 55 -21 70 -21c25 0 42 14 50 40h47z" />
    <glyph glyph-name="odieresis" unicode="&#xf6;" horiz-adv-x="574" 
d="M540 285c0 -169 -139 -299 -320 -299c-63 0 -115 18 -150 51c-37 34 -60 92 -60 150c0 158 144 292 314 292c61 0 121 -20 160 -54c36 -31 56 -80 56 -140zM335 134c28 70 50 168 50 220c0 47 -26 78 -65 78c-43 0 -80 -38 -110 -110c-26 -63 -45 -154 -45 -214
c0 -50 24 -79 64 -79c43 0 79 35 106 105zM355 631c0 -40 -32 -72 -72 -72c-39 0 -71 33 -71 72s32 71 72 71c39 0 71 -32 71 -71zM545 631c0 -40 -32 -72 -72 -72c-39 0 -71 33 -71 72s32 71 72 71c39 0 71 -32 71 -71z" />
    <glyph glyph-name="divide" unicode="&#xf7;" horiz-adv-x="606" 
d="M557 200h-518v100h518v-100zM392 431c0 -52 -42 -94 -94 -94s-94 42 -94 94c0 51 42 94 94 94s94 -43 94 -94zM392 70c0 -52 -42 -94 -94 -94s-94 42 -94 94c0 51 42 94 94 94s94 -43 94 -94z" />
    <glyph glyph-name="oslash" unicode="&#xf8;" horiz-adv-x="574" 
d="M540 285c0 -169 -139 -299 -319 -299c-19 0 -34 1 -54 4l-67 -116h-54l74 130c-70 31 -110 97 -110 183c0 155 144 291 309 291c21 0 41 -2 69 -7l61 107h54l-70 -121c70 -31 107 -90 107 -172zM358 419c-12 8 -25 12 -39 12c-41 0 -79 -38 -109 -109
c-26 -63 -45 -155 -45 -214c0 -6 1 -12 2 -22zM335 133c28 70 50 168 50 220c0 3 0 8 -1 17l-190 -332c10 -6 20 -9 34 -9c45 0 80 34 107 104z" />
    <glyph glyph-name="ugrave" unicode="&#xf9;" horiz-adv-x="685" 
d="M639 152c-78 -120 -136 -166 -212 -166c-64 0 -97 29 -97 85c0 8 0 16 1 26c-65 -78 -119 -111 -183 -111c-66 0 -110 44 -110 109c0 27 4 47 21 103l35 121c12 39 16 57 16 67c0 25 -12 31 -61 31h-10l7 47l253 14l-90 -304c-3 -8 -7 -24 -12 -41c-2 -7 -4 -15 -7 -24
c-1 -6 -2 -11 -2 -14c0 -13 12 -25 25 -25c26 0 74 39 110 89c30 41 52 88 68 140l48 165h158l-93 -312c-16 -56 -16 -56 -16 -67c0 -7 7 -14 14 -14c17 0 57 43 99 109zM484 538h-54l-119 88c-13 10 -15 25 -5 44c16 29 52 52 82 52c24 0 32 -8 46 -45z" />
    <glyph glyph-name="uacute" unicode="&#xfa;" horiz-adv-x="685" 
d="M639 152c-78 -120 -136 -166 -212 -166c-64 0 -97 29 -97 85c0 8 0 16 1 26c-65 -78 -119 -111 -183 -111c-66 0 -110 44 -110 109c0 27 4 47 21 103l35 121c12 39 16 57 16 67c0 25 -12 31 -61 31h-10l7 47l253 14l-90 -304c-3 -8 -7 -24 -12 -41c-2 -7 -4 -15 -7 -24
c-1 -6 -2 -11 -2 -14c0 -13 12 -25 25 -25c26 0 74 39 110 89c30 41 52 88 68 140l48 165h158l-93 -312c-16 -56 -16 -56 -16 -67c0 -7 7 -14 14 -14c17 0 57 43 99 109zM538 670c0 -19 -10 -34 -28 -44l-166 -88h-54l124 139c34 37 46 45 70 45c30 0 54 -23 54 -52z" />
    <glyph glyph-name="ucircumflex" unicode="&#xfb;" horiz-adv-x="685" 
d="M639 152c-78 -120 -136 -166 -212 -166c-64 0 -97 29 -97 85c0 8 0 16 1 26c-65 -78 -119 -111 -183 -111c-66 0 -110 44 -110 109c0 27 4 47 21 103l35 121c12 39 16 57 16 67c0 25 -12 31 -61 31h-10l7 47l253 14l-90 -304c-3 -8 -7 -24 -12 -41c-2 -7 -4 -15 -7 -24
c-1 -6 -2 -11 -2 -14c0 -13 12 -25 25 -25c26 0 74 39 110 89c30 41 52 88 68 140l48 165h158l-93 -312c-16 -56 -16 -56 -16 -67c0 -7 7 -14 14 -14c17 0 57 43 99 109zM559 543h-59l-90 86l-126 -86h-67l157 174h101z" />
    <glyph glyph-name="udieresis" unicode="&#xfc;" horiz-adv-x="685" 
d="M639 152c-78 -120 -136 -166 -212 -166c-64 0 -97 29 -97 85c0 8 0 16 1 26c-65 -78 -119 -111 -183 -111c-66 0 -110 44 -110 109c0 27 4 47 21 103l35 121c12 39 16 57 16 67c0 25 -12 31 -61 31h-10l7 47l253 14l-90 -304c-3 -8 -7 -24 -12 -41c-2 -7 -4 -15 -7 -24
c-1 -6 -2 -11 -2 -14c0 -13 12 -25 25 -25c26 0 74 39 110 89c30 41 52 88 68 140l48 165h158l-93 -312c-16 -56 -16 -56 -16 -67c0 -7 7 -14 14 -14c17 0 57 43 99 109zM388 631c0 -40 -32 -72 -72 -72c-39 0 -71 33 -71 72s32 71 72 71c39 0 71 -32 71 -71zM578 631
c0 -40 -32 -72 -72 -72c-39 0 -71 33 -71 72s32 71 72 71c39 0 71 -32 71 -71z" />
    <glyph glyph-name="yacute" unicode="&#xfd;" horiz-adv-x="519" 
d="M492 417c0 -57 -59 -191 -147 -334c-60 -99 -114 -172 -164 -222c-41 -42 -87 -63 -141 -63c-64 0 -106 36 -106 91c0 43 29 73 71 73c40 0 69 -27 69 -64c0 -8 -1 -15 -6 -28c-1 -2 -1 -6 -1 -6c0 -5 6 -10 13 -10c27 0 75 39 110 88l29 40l-100 338
c-11 37 -16 45 -29 45c-18 0 -26 -17 -54 -107l-43 13c33 141 85 208 162 208c34 0 63 -18 78 -47c11 -21 28 -67 37 -99l56 -190c50 84 67 124 67 158c0 19 -3 27 -19 53c-15 22 -21 40 -21 59c0 38 30 66 71 66c42 0 68 -24 68 -62zM456 670c0 -19 -10 -34 -28 -44
l-166 -88h-54l124 139c34 37 46 45 70 45c30 0 54 -23 54 -52z" />
    <glyph glyph-name="thorn" unicode="&#xfe;" horiz-adv-x="648" 
d="M590 298c0 -164 -137 -313 -287 -313c-60 0 -98 20 -126 65l-34 -115c-16 -55 -16 -55 -16 -64c0 -18 17 -26 57 -26h15l-7 -47h-310l7 47h4c27 0 55 6 63 14c9 8 9 8 29 76l192 646c12 42 15 54 15 64c0 25 -12 31 -62 31h-24l7 61h267l-91 -309c45 37 81 51 129 51
c103 0 172 -72 172 -181zM430 336c0 44 -26 73 -64 73c-37 0 -67 -23 -96 -74c-31 -55 -64 -166 -64 -218c0 -41 31 -74 69 -74c88 0 155 189 155 293z" />
    <glyph glyph-name="ydieresis" unicode="&#xff;" horiz-adv-x="519" 
d="M492 417c0 -57 -59 -191 -147 -334c-60 -99 -114 -172 -164 -222c-41 -42 -87 -63 -141 -63c-64 0 -106 36 -106 91c0 43 29 73 71 73c40 0 69 -27 69 -64c0 -8 -1 -15 -6 -28c-1 -2 -1 -6 -1 -6c0 -5 6 -10 13 -10c27 0 75 39 110 88l29 40l-100 338
c-11 37 -16 45 -29 45c-18 0 -26 -17 -54 -107l-43 13c33 141 85 208 162 208c34 0 63 -18 78 -47c11 -21 28 -67 37 -99l56 -190c50 84 67 124 67 158c0 19 -3 27 -19 53c-15 22 -21 40 -21 59c0 38 30 66 71 66c42 0 68 -24 68 -62zM307 631c0 -40 -32 -72 -72 -72
c-39 0 -71 33 -71 72s32 71 72 71c39 0 71 -32 71 -71zM497 631c0 -40 -32 -72 -72 -72c-39 0 -71 33 -71 72s32 71 72 71c39 0 71 -32 71 -71z" />
    <glyph glyph-name="Amacron" unicode="&#x100;" horiz-adv-x="741" 
d="M709 0h-374l7 54h16c41 0 52 1 66 8c10 4 17 14 17 23c0 7 -1 18 -4 32l-20 103h-232l-46 -81c-9 -15 -14 -31 -14 -43c0 -29 15 -42 71 -42h23l-8 -54h-286l7 54h16c44 0 85 39 123 103l348 579h62l131 -622c10 -47 29 -60 90 -60h14zM404 274l-46 241l-141 -241h187z
M658 891l-21 -76h-334l21 76h334z" />
    <glyph glyph-name="amacron" unicode="&#x101;" horiz-adv-x="667" 
d="M646 157c-60 -101 -139 -172 -210 -172c-55 0 -85 35 -85 88c-48 -62 -94 -87 -163 -87c-101 0 -173 75 -173 181c0 162 138 312 286 312c59 0 101 -21 125 -63l14 48h157l-98 -332c-10 -39 -10 -39 -10 -46c0 -8 7 -16 14 -16c17 0 67 54 104 112zM395 351
c0 43 -25 73 -62 73c-82 0 -155 -175 -155 -289c0 -48 24 -79 61 -79c83 0 156 193 156 295zM566 668l-21 -76h-334l21 76h334z" />
    <glyph glyph-name="Abreve" unicode="&#x102;" horiz-adv-x="741" 
d="M709 0h-374l7 54h16c41 0 52 1 66 8c10 4 17 14 17 23c0 7 -1 18 -4 32l-20 103h-232l-46 -81c-9 -15 -14 -31 -14 -43c0 -29 15 -42 71 -42h23l-8 -54h-286l7 54h16c44 0 85 39 123 103l348 579h62l131 -622c10 -47 29 -60 90 -60h14zM404 274l-46 241l-141 -241h187z
M682 927c-4 -33 -21 -65 -51 -92c-42 -38 -97 -56 -170 -56c-120 0 -181 61 -165 148h56c6 -54 42 -77 121 -77c74 0 137 31 152 77h57z" />
    <glyph glyph-name="abreve" unicode="&#x103;" horiz-adv-x="667" 
d="M646 157c-60 -101 -139 -172 -210 -172c-55 0 -85 35 -85 88c-48 -62 -94 -87 -163 -87c-101 0 -173 75 -173 181c0 162 138 312 286 312c59 0 101 -21 125 -63l14 48h157l-98 -332c-10 -39 -10 -39 -10 -46c0 -8 7 -16 14 -16c17 0 67 54 104 112zM395 351
c0 43 -25 73 -62 73c-82 0 -155 -175 -155 -289c0 -48 24 -79 61 -79c83 0 156 193 156 295zM550 712c-3 -36 -17 -72 -42 -102c-35 -42 -81 -62 -142 -62c-88 0 -139 49 -139 135c0 6 1 16 2 29h46c5 -60 35 -85 101 -85c62 0 114 34 127 85h47z" />
    <glyph glyph-name="Aogonek" unicode="&#x104;" horiz-adv-x="741" 
d="M668 -153c-30 -44 -81 -71 -130 -71c-54 0 -102 39 -102 102c0 61 45 98 79 122h-180l7 54h16c41 0 52 1 66 8c10 4 17 14 17 23c0 7 -1 18 -4 32l-20 103h-232l-46 -81c-9 -15 -14 -31 -14 -43c0 -29 15 -42 71 -42h23l-8 -54h-286l7 54h16c44 0 85 39 123 103l348 579
h62l131 -622c10 -47 29 -60 90 -60h14l-7 -54h-58c-60 0 -121 -44 -121 -94c0 -27 18 -46 40 -46c27 0 49 6 70 23zM404 274l-46 241l-141 -241h187z" />
    <glyph glyph-name="aogonek" unicode="&#x105;" horiz-adv-x="667" 
d="M563 -153c-30 -44 -81 -71 -130 -71c-54 0 -102 39 -102 102c0 54 35 89 68 114c-31 12 -48 42 -48 81c-48 -62 -94 -87 -163 -87c-101 0 -173 75 -173 181c0 162 138 312 286 312c59 0 101 -21 125 -63l14 48h157l-98 -332c-10 -39 -10 -39 -10 -46c0 -8 7 -16 14 -16
c17 0 67 54 104 112l39 -25c-48 -81 -108 -142 -167 -164c-35 -13 -54 -52 -54 -87c0 -27 18 -46 40 -46c27 0 49 6 70 23zM395 351c0 43 -25 73 -62 73c-82 0 -155 -175 -155 -289c0 -48 24 -79 61 -79c83 0 156 193 156 295z" />
    <glyph glyph-name="Cacute" unicode="&#x106;" horiz-adv-x="759" 
d="M679 212c-39 -124 -150 -227 -311 -227c-198 0 -333 118 -333 307c0 239 203 445 438 445c79 0 138 -26 184 -82l56 57h46l-58 -286l-49 6c-5 171 -58 252 -165 252c-166 0 -262 -263 -262 -446c0 -117 66 -190 172 -190c91 0 182 68 219 164h63zM704 889
c0 -17 -12 -30 -34 -39l-199 -80h-65l149 126c40 34 56 40 84 40c36 0 65 -21 65 -47z" />
    <glyph glyph-name="cacute" unicode="&#x107;" horiz-adv-x="537" 
d="M442 116c-72 -90 -144 -130 -232 -130c-126 0 -207 72 -207 185c0 167 143 307 313 307c104 0 171 -51 171 -128c0 -56 -34 -93 -86 -93c-46 0 -78 30 -78 72c0 28 10 44 38 61c9 6 12 9 12 16c0 15 -18 25 -42 25c-42 0 -80 -30 -111 -87c-30 -55 -52 -141 -52 -203
c0 -55 34 -94 82 -94s97 31 156 100zM483 670c0 -19 -10 -34 -28 -44l-166 -88h-54l124 139c34 37 46 45 70 45c30 0 54 -23 54 -52z" />
    <glyph glyph-name="Ccircumflex" unicode="&#x108;" horiz-adv-x="759" 
d="M679 212c-39 -124 -150 -227 -311 -227c-198 0 -333 118 -333 307c0 239 203 445 438 445c79 0 138 -26 184 -82l56 57h46l-58 -286l-49 6c-5 171 -58 252 -165 252c-166 0 -262 -263 -262 -446c0 -117 66 -190 172 -190c91 0 182 68 219 164h63zM736 775h-70l-108 78
l-152 -78h-80l188 157h122z" />
    <glyph glyph-name="ccircumflex" unicode="&#x109;" horiz-adv-x="537" 
d="M442 116c-72 -90 -144 -130 -232 -130c-126 0 -207 72 -207 185c0 167 143 307 313 307c104 0 171 -51 171 -128c0 -56 -34 -93 -86 -93c-46 0 -78 30 -78 72c0 28 10 44 38 61c9 6 12 9 12 16c0 15 -18 25 -42 25c-42 0 -80 -30 -111 -87c-30 -55 -52 -141 -52 -203
c0 -55 34 -94 82 -94s97 31 156 100zM504 543h-59l-90 86l-126 -86h-67l157 174h101z" />
    <glyph glyph-name="Cdotaccent" unicode="&#x10a;" horiz-adv-x="759" 
d="M679 212c-39 -124 -150 -227 -311 -227c-198 0 -333 118 -333 307c0 239 203 445 438 445c79 0 138 -26 184 -82l56 57h46l-58 -286l-49 6c-5 171 -58 252 -165 252c-166 0 -262 -263 -262 -446c0 -117 66 -190 172 -190c91 0 182 68 219 164h63zM624 854
c0 -40 -32 -72 -72 -72c-39 0 -71 33 -71 72s32 71 72 71c39 0 71 -32 71 -71z" />
    <glyph glyph-name="cdotaccent" unicode="&#x10b;" horiz-adv-x="537" 
d="M442 116c-72 -90 -144 -130 -232 -130c-126 0 -207 72 -207 185c0 167 143 307 313 307c104 0 171 -51 171 -128c0 -56 -34 -93 -86 -93c-46 0 -78 30 -78 72c0 28 10 44 38 61c9 6 12 9 12 16c0 15 -18 25 -42 25c-42 0 -80 -30 -111 -87c-30 -55 -52 -141 -52 -203
c0 -55 34 -94 82 -94s97 31 156 100zM428 631c0 -40 -32 -72 -72 -72c-39 0 -71 33 -71 72s32 71 72 71c39 0 71 -32 71 -71z" />
    <glyph glyph-name="Ccaron" unicode="&#x10c;" horiz-adv-x="759" 
d="M679 212c-39 -124 -150 -227 -311 -227c-198 0 -333 118 -333 307c0 239 203 445 438 445c79 0 138 -26 184 -82l56 57h46l-58 -286l-49 6c-5 171 -58 252 -165 252c-166 0 -262 -263 -262 -446c0 -117 66 -190 172 -190c91 0 182 68 219 164h63zM778 932l-188 -157h-122
l-100 157h70l108 -78l152 78h80z" />
    <glyph glyph-name="ccaron" unicode="&#x10d;" horiz-adv-x="537" 
d="M442 116c-72 -90 -144 -130 -232 -130c-126 0 -207 72 -207 185c0 167 143 307 313 307c104 0 171 -51 171 -128c0 -56 -34 -93 -86 -93c-46 0 -78 30 -78 72c0 28 10 44 38 61c9 6 12 9 12 16c0 15 -18 25 -42 25c-42 0 -80 -30 -111 -87c-30 -55 -52 -141 -52 -203
c0 -55 34 -94 82 -94s97 31 156 100zM541 718l-157 -176h-102l-84 176h59l90 -88l126 88h68z" />
    <glyph glyph-name="Dcaron" unicode="&#x10e;" horiz-adv-x="833" 
d="M796 437c0 -132 -56 -257 -151 -337c-86 -72 -186 -100 -360 -100h-334l7 54h14c42 0 56 4 67 14c7 8 9 8 27 76l116 434c9 34 13 54 13 63c0 22 -14 27 -79 27h-18l7 54h358c228 0 333 -103 333 -285zM610 501c0 109 -52 167 -149 167h-22c-46 0 -61 -13 -74 -63
l-128 -478c-8 -36 -9 -39 -9 -46c0 -20 15 -27 53 -27h29c86 0 157 37 205 108c55 82 95 226 95 339zM740 932l-188 -157h-122l-100 157h70l108 -78l152 78h80z" />
    <glyph glyph-name="dcaron" unicode="&#x10f;" horiz-adv-x="667" 
d="M632 157c-17 -29 -39 -60 -66 -91c-49 -55 -94 -81 -144 -81c-53 0 -85 30 -86 79v7c-55 -63 -97 -85 -162 -85c-102 0 -174 75 -174 181c0 161 138 311 286 311c59 0 100 -20 125 -62l48 162c11 37 15 56 15 66c0 25 -12 31 -61 31h-32l7 47l275 14l-179 -604
c-10 -39 -10 -39 -10 -47s7 -16 14 -16c18 0 66 52 105 113zM329 153c29 63 51 147 51 198c0 42 -25 72 -61 72c-41 0 -76 -31 -106 -95c-29 -61 -49 -140 -49 -193c0 -49 23 -79 60 -79c39 0 75 33 105 97zM867 632c0 -87 -66 -159 -189 -207l-19 37c83 37 123 78 123 123
c-10 -1 -16 -2 -24 -2c-44 0 -70 26 -70 71c0 48 35 82 85 82c56 0 94 -42 94 -104z" />
    <glyph glyph-name="Dcroat" unicode="&#x110;" horiz-adv-x="833" 
d="M796 438c0 -133 -56 -258 -151 -338c-85 -72 -186 -100 -360 -100h-334l7 54h20c42 0 50 4 61 14c8 8 8 8 27 76l50 195h-93l17 63h93l49 176c8 29 13 54 13 63c0 22 -11 27 -76 27h-21l7 54h358c109 0 170 -15 228 -56c69 -48 105 -126 105 -228zM610 501
c0 109 -52 167 -149 167h-22c-46 0 -60 -12 -74 -63l-56 -203h151l-17 -63h-151l-55 -212c-9 -36 -9 -38 -9 -46c0 -19 15 -27 53 -27h29c86 0 157 37 205 108c54 82 95 226 95 339z" />
    <glyph glyph-name="dcroat" unicode="&#x111;" horiz-adv-x="667" 
d="M632 157c-17 -29 -39 -60 -66 -91c-49 -55 -94 -81 -144 -81c-53 0 -85 30 -86 79v7c-55 -63 -97 -85 -162 -85c-102 0 -174 75 -174 181c0 161 138 311 286 311c59 0 100 -20 125 -62l38 129h-125l18 63h125c6 22 7 28 7 36c0 25 -12 31 -61 31h-32l7 47l275 14
l-38 -128h70l-18 -63h-71l-122 -413c-10 -39 -10 -39 -10 -47s7 -16 14 -16c18 0 66 52 105 113zM329 153c29 63 51 147 51 198c0 42 -25 72 -61 72c-41 0 -76 -31 -106 -95c-29 -61 -49 -140 -49 -193c0 -49 23 -79 60 -79c39 0 75 33 105 97z" />
    <glyph glyph-name="Emacron" unicode="&#x112;" horiz-adv-x="741" 
d="M602 0h-643l7 54h14c60 0 71 6 82 48l128 476c9 35 13 54 13 63c0 22 -14 27 -79 27h-19l8 54h615l-40 -245h-52c-2 145 -39 191 -158 191h-38c-41 0 -53 -9 -63 -48l-59 -219h31c87 0 122 33 156 122l53 -7l-90 -335l-53 7c4 30 5 44 5 62c0 65 -21 97 -84 97h-32
l-63 -236c-4 -13 -7 -26 -6 -32c0 -18 16 -25 54 -25h36c112 0 225 73 291 205l52 -11zM633 891l-21 -76h-334l21 76h334z" />
    <glyph glyph-name="emacron" unicode="&#x113;" horiz-adv-x="519" 
d="M430 91c-63 -71 -137 -105 -228 -105c-132 0 -204 65 -204 185c0 164 148 308 316 308c94 0 164 -52 164 -121c0 -70 -56 -120 -170 -153c-47 -14 -90 -21 -149 -24c-2 -26 -2 -32 -2 -44c0 -57 33 -92 86 -92c52 0 92 21 152 81zM356 385c0 29 -17 47 -44 47
c-62 0 -121 -82 -144 -204c33 5 50 9 70 16c68 26 118 86 118 141zM542 668l-21 -76h-334l21 76h334z" />
    <glyph glyph-name="Ebreve" unicode="&#x114;" horiz-adv-x="741" 
d="M602 0h-643l7 54h14c60 0 71 6 82 48l128 476c9 35 13 54 13 63c0 22 -14 27 -79 27h-19l8 54h615l-40 -245h-52c-2 145 -39 191 -158 191h-38c-41 0 -53 -9 -63 -48l-59 -219h31c87 0 122 33 156 122l53 -7l-90 -335l-53 7c4 30 5 44 5 62c0 65 -21 97 -84 97h-32
l-63 -236c-4 -13 -7 -26 -6 -32c0 -18 16 -25 54 -25h36c112 0 225 73 291 205l52 -11zM657 927c-4 -33 -21 -65 -51 -92c-42 -38 -97 -56 -170 -56c-120 0 -181 61 -165 148h56c6 -54 42 -77 121 -77c74 0 137 31 152 77h57z" />
    <glyph glyph-name="ebreve" unicode="&#x115;" horiz-adv-x="519" 
d="M430 91c-63 -71 -137 -105 -228 -105c-132 0 -204 65 -204 185c0 164 148 308 316 308c94 0 164 -52 164 -121c0 -70 -56 -120 -170 -153c-47 -14 -90 -21 -149 -24c-2 -26 -2 -32 -2 -44c0 -57 33 -92 86 -92c52 0 92 21 152 81zM356 385c0 29 -17 47 -44 47
c-62 0 -121 -82 -144 -204c33 5 50 9 70 16c68 26 118 86 118 141zM526 712c-3 -36 -17 -72 -42 -102c-35 -42 -81 -62 -142 -62c-88 0 -139 49 -139 135c0 6 1 16 2 29h46c5 -60 35 -85 101 -85c62 0 114 34 127 85h47z" />
    <glyph glyph-name="Edotaccent" unicode="&#x116;" horiz-adv-x="741" 
d="M602 0h-643l7 54h14c60 0 71 6 82 48l128 476c9 35 13 54 13 63c0 22 -14 27 -79 27h-19l8 54h615l-40 -245h-52c-2 145 -39 191 -158 191h-38c-41 0 -53 -9 -63 -48l-59 -219h31c87 0 122 33 156 122l53 -7l-90 -335l-53 7c4 30 5 44 5 62c0 65 -21 97 -84 97h-32
l-63 -236c-4 -13 -7 -26 -6 -32c0 -18 16 -25 54 -25h36c112 0 225 73 291 205l52 -11zM528 854c0 -40 -32 -72 -72 -72c-39 0 -71 33 -71 72s32 71 72 71c39 0 71 -32 71 -71z" />
    <glyph glyph-name="edotaccent" unicode="&#x117;" horiz-adv-x="519" 
d="M430 91c-63 -71 -137 -105 -228 -105c-132 0 -204 65 -204 185c0 164 148 308 316 308c94 0 164 -52 164 -121c0 -70 -56 -120 -170 -153c-47 -14 -90 -21 -149 -24c-2 -26 -2 -32 -2 -44c0 -57 33 -92 86 -92c52 0 92 21 152 81zM356 385c0 29 -17 47 -44 47
c-62 0 -121 -82 -144 -204c33 5 50 9 70 16c68 26 118 86 118 141zM436 631c0 -40 -32 -72 -72 -72c-39 0 -71 33 -71 72s32 71 72 71c39 0 71 -32 71 -71z" />
    <glyph glyph-name="Eogonek" unicode="&#x118;" horiz-adv-x="741" 
d="M561 -153c-30 -44 -81 -71 -130 -71c-54 0 -102 39 -102 102c0 61 45 98 79 122h-449l7 54h14c60 0 71 6 82 48l128 476c9 35 13 54 13 63c0 22 -14 27 -79 27h-19l8 54h615l-40 -245h-52c-2 145 -39 191 -158 191h-38c-41 0 -53 -9 -63 -48l-59 -219h31
c87 0 122 33 156 122l53 -7l-90 -335l-53 7c4 30 5 44 5 62c0 65 -21 97 -84 97h-32l-63 -236c-4 -13 -7 -26 -6 -32c0 -18 16 -25 54 -25h36c112 0 225 73 291 205l52 -11l-66 -248h-67c-55 0 -112 -45 -112 -94c0 -27 18 -46 40 -46c27 0 49 6 70 23z" />
    <glyph glyph-name="eogonek" unicode="&#x119;" horiz-adv-x="519" 
d="M365 -153c-30 -44 -81 -71 -130 -71c-54 0 -102 39 -102 102c0 50 30 84 60 108c-126 3 -195 68 -195 185c0 164 148 308 316 308c94 0 164 -52 164 -121c0 -70 -56 -120 -170 -153c-47 -14 -90 -21 -149 -24c-2 -26 -2 -32 -2 -44c0 -57 33 -92 86 -92
c52 0 92 21 152 81l35 -35c-38 -43 -80 -72 -127 -88c-43 -16 -76 -57 -76 -97c0 -27 18 -46 40 -46c27 0 49 6 70 23zM356 385c0 29 -17 47 -44 47c-62 0 -121 -82 -144 -204c33 5 50 9 70 16c68 26 118 86 118 141z" />
    <glyph glyph-name="Ecaron" unicode="&#x11a;" horiz-adv-x="741" 
d="M602 0h-643l7 54h14c60 0 71 6 82 48l128 476c9 35 13 54 13 63c0 22 -14 27 -79 27h-19l8 54h615l-40 -245h-52c-2 145 -39 191 -158 191h-38c-41 0 -53 -9 -63 -48l-59 -219h31c87 0 122 33 156 122l53 -7l-90 -335l-53 7c4 30 5 44 5 62c0 65 -21 97 -84 97h-32
l-63 -236c-4 -13 -7 -26 -6 -32c0 -18 16 -25 54 -25h36c112 0 225 73 291 205l52 -11zM682 932l-188 -157h-122l-100 157h70l108 -78l152 78h80z" />
    <glyph glyph-name="ecaron" unicode="&#x11b;" horiz-adv-x="519" 
d="M430 91c-63 -71 -137 -105 -228 -105c-132 0 -204 65 -204 185c0 164 148 308 316 308c94 0 164 -52 164 -121c0 -70 -56 -120 -170 -153c-47 -14 -90 -21 -149 -24c-2 -26 -2 -32 -2 -44c0 -57 33 -92 86 -92c52 0 92 21 152 81zM356 385c0 29 -17 47 -44 47
c-62 0 -121 -82 -144 -204c33 5 50 9 70 16c68 26 118 86 118 141zM549 718l-157 -176h-102l-84 176h59l90 -88l126 88h68z" />
    <glyph glyph-name="Gcircumflex" unicode="&#x11c;" horiz-adv-x="815" 
d="M795 282h-20c-76 0 -69 -11 -93 -90l-55 -206h-48l-19 95c-54 -65 -122 -96 -213 -96c-166 0 -313 106 -313 299c0 245 207 453 451 453c83 0 131 -21 185 -80l60 58h45l-57 -283l-51 7c-3 146 -56 244 -169 244c-79 0 -146 -51 -200 -152c-45 -84 -76 -209 -76 -302
c0 -115 47 -192 141 -192c63 0 117 44 141 115c10 30 24 89 24 103c0 23 -12 27 -77 27h-28l7 54h372zM732 775h-70l-108 78l-152 -78h-80l188 157h122z" />
    <glyph glyph-name="gcircumflex" unicode="&#x11d;" horiz-adv-x="611" 
d="M602 466c0 -34 -22 -58 -53 -58c-24 0 -39 13 -50 43c-5 12 -10 17 -17 17c-11 0 -21 -7 -34 -24c51 -30 79 -76 79 -130c0 -91 -88 -157 -210 -157c-19 0 -82 5 -117 10c-15 2 -27 3 -34 3c-27 0 -47 -14 -47 -31c0 -21 15 -31 49 -34c90 -9 154 -17 178 -22
c73 -17 104 -53 104 -118c0 -108 -98 -167 -278 -167c-151 0 -238 41 -238 111c0 50 40 81 126 97c-45 24 -60 45 -60 80c0 53 42 95 120 120c-36 30 -51 58 -51 98c0 103 93 175 227 175c39 0 67 -4 103 -16c49 49 88 70 131 70s72 -27 72 -67zM353 253c16 32 26 75 26 108
c0 41 -26 71 -62 71c-28 0 -50 -15 -66 -43c-18 -32 -29 -74 -29 -112c0 -45 25 -72 65 -72c28 0 51 16 66 48zM329 -85c0 24 -13 37 -44 45c-24 6 -101 13 -144 13c-56 0 -84 -19 -84 -58c0 -46 41 -70 120 -70c99 0 152 24 152 70zM484 543h-59l-90 86l-126 -86h-67
l157 174h101z" />
    <glyph glyph-name="Gbreve" unicode="&#x11e;" horiz-adv-x="815" 
d="M795 282h-20c-76 0 -69 -11 -93 -90l-55 -206h-48l-19 95c-54 -65 -122 -96 -213 -96c-166 0 -313 106 -313 299c0 245 207 453 451 453c83 0 131 -21 185 -80l60 58h45l-57 -283l-51 7c-3 146 -56 244 -169 244c-79 0 -146 -51 -200 -152c-45 -84 -76 -209 -76 -302
c0 -115 47 -192 141 -192c63 0 117 44 141 115c10 30 24 89 24 103c0 23 -12 27 -77 27h-28l7 54h372zM749 927c-4 -33 -21 -65 -51 -92c-42 -38 -97 -56 -170 -56c-120 0 -181 61 -165 148h56c6 -54 42 -77 121 -77c74 0 137 31 152 77h57z" />
    <glyph glyph-name="gbreve" unicode="&#x11f;" horiz-adv-x="611" 
d="M602 466c0 -34 -22 -58 -53 -58c-24 0 -39 13 -50 43c-5 12 -10 17 -17 17c-11 0 -21 -7 -34 -24c51 -30 79 -76 79 -130c0 -91 -88 -157 -210 -157c-19 0 -82 5 -117 10c-15 2 -27 3 -34 3c-27 0 -47 -14 -47 -31c0 -21 15 -31 49 -34c90 -9 154 -17 178 -22
c73 -17 104 -53 104 -118c0 -108 -98 -167 -278 -167c-151 0 -238 41 -238 111c0 50 40 81 126 97c-45 24 -60 45 -60 80c0 53 42 95 120 120c-36 30 -51 58 -51 98c0 103 93 175 227 175c39 0 67 -4 103 -16c49 49 88 70 131 70s72 -27 72 -67zM353 253c16 32 26 75 26 108
c0 41 -26 71 -62 71c-28 0 -50 -15 -66 -43c-18 -32 -29 -74 -29 -112c0 -45 25 -72 65 -72c28 0 51 16 66 48zM329 -85c0 24 -13 37 -44 45c-24 6 -101 13 -144 13c-56 0 -84 -19 -84 -58c0 -46 41 -70 120 -70c99 0 152 24 152 70zM498 712c-3 -36 -17 -72 -42 -102
c-35 -42 -81 -62 -142 -62c-88 0 -139 49 -139 135c0 6 1 16 2 29h46c5 -60 35 -85 101 -85c62 0 114 34 127 85h47z" />
    <glyph glyph-name="Gdotaccent" unicode="&#x120;" horiz-adv-x="815" 
d="M795 282h-20c-76 0 -69 -11 -93 -90l-55 -206h-48l-19 95c-54 -65 -122 -96 -213 -96c-166 0 -313 106 -313 299c0 245 207 453 451 453c83 0 131 -21 185 -80l60 58h45l-57 -283l-51 7c-3 146 -56 244 -169 244c-79 0 -146 -51 -200 -152c-45 -84 -76 -209 -76 -302
c0 -115 47 -192 141 -192c63 0 117 44 141 115c10 30 24 89 24 103c0 23 -12 27 -77 27h-28l7 54h372zM620 854c0 -40 -32 -72 -72 -72c-39 0 -71 33 -71 72s32 71 72 71c39 0 71 -32 71 -71z" />
    <glyph glyph-name="gdotaccent" unicode="&#x121;" horiz-adv-x="611" 
d="M602 466c0 -34 -22 -58 -53 -58c-24 0 -39 13 -50 43c-5 12 -10 17 -17 17c-11 0 -21 -7 -34 -24c51 -30 79 -76 79 -130c0 -91 -88 -157 -210 -157c-19 0 -82 5 -117 10c-15 2 -27 3 -34 3c-27 0 -47 -14 -47 -31c0 -21 15 -31 49 -34c90 -9 154 -17 178 -22
c73 -17 104 -53 104 -118c0 -108 -98 -167 -278 -167c-151 0 -238 41 -238 111c0 50 40 81 126 97c-45 24 -60 45 -60 80c0 53 42 95 120 120c-36 30 -51 58 -51 98c0 103 93 175 227 175c39 0 67 -4 103 -16c49 49 88 70 131 70s72 -27 72 -67zM353 253c16 32 26 75 26 108
c0 41 -26 71 -62 71c-28 0 -50 -15 -66 -43c-18 -32 -29 -74 -29 -112c0 -45 25 -72 65 -72c28 0 51 16 66 48zM329 -85c0 24 -13 37 -44 45c-24 6 -101 13 -144 13c-56 0 -84 -19 -84 -58c0 -46 41 -70 120 -70c99 0 152 24 152 70zM408 631c0 -40 -32 -72 -72 -72
c-39 0 -71 33 -71 72s32 71 72 71c39 0 71 -32 71 -71z" />
    <glyph glyph-name="Gcommaaccent" unicode="&#x122;" horiz-adv-x="815" 
d="M795 282h-20c-76 0 -69 -11 -93 -90l-55 -206h-48l-19 95c-54 -65 -122 -96 -213 -96c-166 0 -313 106 -313 299c0 245 207 453 451 453c83 0 131 -21 185 -80l60 58h45l-57 -283l-51 7c-3 146 -56 244 -169 244c-79 0 -146 -51 -200 -152c-45 -84 -76 -209 -76 -302
c0 -115 47 -192 141 -192c63 0 117 44 141 115c10 30 24 89 24 103c0 23 -12 27 -77 27h-28l7 54h372zM397 -164c0 -87 -66 -159 -189 -207l-19 37c83 37 123 78 123 123c-10 -1 -16 -2 -24 -2c-44 0 -70 26 -70 71c0 48 35 82 85 82c56 0 94 -42 94 -104z" />
    <glyph glyph-name="gcommaaccent" unicode="&#x123;" horiz-adv-x="611" 
d="M434 645c0 -48 -35 -82 -85 -82c-56 0 -94 42 -94 104c0 87 66 159 189 207l19 -37c-83 -37 -123 -78 -123 -123c10 1 16 2 24 2c44 0 70 -26 70 -71zM602 466c0 -34 -22 -58 -53 -58c-24 0 -39 13 -50 43c-5 12 -10 17 -17 17c-11 0 -21 -7 -34 -24
c51 -30 79 -76 79 -130c0 -91 -88 -157 -210 -157c-19 0 -82 5 -117 10c-15 2 -27 3 -34 3c-27 0 -47 -14 -47 -31c0 -21 15 -31 49 -34c90 -9 154 -17 178 -22c73 -17 104 -53 104 -118c0 -108 -98 -167 -278 -167c-151 0 -238 41 -238 111c0 50 40 81 126 97
c-45 24 -60 45 -60 80c0 53 42 95 120 120c-36 30 -51 58 -51 98c0 103 93 175 227 175c39 0 67 -4 103 -16c49 49 88 70 131 70s72 -27 72 -67zM353 253c16 32 26 75 26 108c0 41 -26 71 -62 71c-28 0 -50 -15 -66 -43c-18 -32 -29 -74 -29 -112c0 -45 25 -72 65 -72
c28 0 51 16 66 48zM329 -85c0 24 -13 37 -44 45c-24 6 -101 13 -144 13c-56 0 -84 -19 -84 -58c0 -46 41 -70 120 -70c99 0 152 24 152 70z" />
    <glyph glyph-name="Hcircumflex" unicode="&#x124;" horiz-adv-x="870" 
d="M762 0h-379l7 54h22c42 0 56 4 66 14c9 8 9 8 27 76l53 196h-256l-52 -196c-10 -34 -14 -55 -14 -63c0 -22 4 -27 69 -27h21l-8 -54h-359l7 54h19c55 0 66 6 77 48c3 12 8 28 11 42l117 434c9 34 13 54 13 63c0 22 -14 27 -79 27h-19l8 54h375l-7 -54h-22
c-42 0 -56 -4 -66 -14c-9 -7 -9 -7 -27 -76l-48 -177h256l47 177c10 35 14 54 14 63c0 22 -4 27 -69 27h-21l8 54h359l-7 -54h-17c-42 0 -53 -4 -64 -14c-8 -7 -8 -7 -26 -76l-117 -434c-8 -32 -13 -54 -13 -63c0 -22 14 -27 79 -27h22zM751 775h-70l-108 78l-152 -78h-80
l188 157h122z" />
    <glyph glyph-name="hcircumflex" unicode="&#x125;" horiz-adv-x="685" 
d="M637 152c-78 -120 -138 -167 -211 -167c-62 0 -102 35 -102 91c0 26 3 38 21 87l61 169c6 16 9 29 9 36c0 14 -15 27 -29 27c-24 0 -57 -25 -94 -70c-43 -52 -69 -104 -97 -198l-38 -127h-157l171 578c13 41 16 56 16 66c0 25 -12 31 -62 31h-24l7 47l268 14l-110 -370
c63 78 122 113 188 113c65 0 112 -43 112 -103c0 -33 -9 -69 -30 -128l-47 -128c-11 -30 -11 -30 -11 -38s7 -16 14 -16c18 0 43 25 97 100c3 3 6 7 9 11zM759 789h-70l-108 78l-152 -78h-80l188 157h122z" />
    <glyph glyph-name="Hbar" unicode="&#x126;" horiz-adv-x="870" 
d="M907 516h-126l-100 -372c-8 -32 -13 -54 -13 -63c0 -22 14 -27 79 -27h22l-7 -54h-379l7 54h22c42 0 56 4 66 14c9 8 9 8 27 76l53 196h-256l-52 -196c-10 -34 -14 -55 -14 -63c0 -22 4 -27 69 -27h21l-8 -54h-359l7 54h19c55 0 66 6 77 48c3 12 8 28 11 42l100 372h-108
v52h122l3 10c9 34 13 54 13 63c0 22 -14 27 -79 27h-19l8 54h375l-7 -54h-22c-42 0 -56 -4 -66 -14c-9 -7 -9 -7 -27 -76l-3 -10h255l3 10c10 35 14 54 14 63c0 22 -4 27 -69 27h-21l8 54h359l-7 -54h-17c-42 0 -53 -4 -64 -14c-8 -7 -8 -7 -26 -76l-3 -10h112v-52zM574 401
l31 115h-256l-31 -115h256z" />
    <glyph glyph-name="hbar" unicode="&#x127;" horiz-adv-x="775" 
d="M772 152c-78 -120 -138 -167 -211 -167c-62 0 -102 35 -102 91c0 26 3 38 21 87l61 169c6 16 9 29 9 36c0 14 -15 27 -29 27c-24 0 -57 -25 -94 -70c-43 -52 -69 -104 -97 -198l-38 -127h-157l143 484l-100 -27v44l114 30l14 47c13 41 16 56 16 66c0 25 -12 31 -62 31
h-24l7 47l268 14l-48 -160l175 46v-43l-189 -50l-48 -163c63 78 122 113 188 113c65 0 112 -43 112 -103c0 -33 -9 -69 -30 -128l-47 -128c-11 -30 -11 -30 -11 -38s7 -16 14 -16c18 0 43 25 97 100c3 3 6 7 9 11z" />
    <glyph glyph-name="Itilde" unicode="&#x128;" horiz-adv-x="444" 
d="M332 0h-373l7 54h20c42 0 53 4 63 14c9 8 9 8 27 76l116 434c10 34 14 54 14 63c0 22 -14 27 -79 27h-22l8 54h373l-7 -54h-21c-42 0 -52 -4 -62 -14c-9 -7 -9 -7 -27 -76l-116 -434c-14 -55 -14 -55 -14 -63c0 -22 14 -27 79 -27h22zM539 916c-3 -67 -61 -126 -124 -126
c-21 0 -46 6 -85 21c-45 18 -57 21 -72 21c-22 0 -37 -15 -42 -42h-47c5 73 58 126 124 126c20 0 46 -6 79 -19c48 -19 55 -21 70 -21c25 0 42 14 50 40h47z" />
    <glyph glyph-name="itilde" unicode="&#x129;" horiz-adv-x="389" 
d="M353 149c-68 -114 -131 -164 -207 -164c-60 0 -104 38 -104 90c0 19 2 30 15 74l51 170c11 37 15 56 15 67c0 25 -12 31 -61 31h-24l7 47l267 14l-105 -356c-9 -31 -10 -34 -10 -42c0 -9 7 -16 16 -16c20 0 53 37 101 113zM454 693c-3 -67 -61 -126 -124 -126
c-21 0 -46 6 -85 21c-45 18 -57 21 -72 21c-22 0 -37 -15 -42 -42h-47c5 73 58 126 124 126c20 0 46 -6 79 -19c48 -19 55 -21 70 -21c25 0 42 14 50 40h47z" />
    <glyph glyph-name="Imacron" unicode="&#x12a;" horiz-adv-x="444" 
d="M332 0h-373l7 54h20c42 0 53 4 63 14c9 8 9 8 27 76l116 434c10 34 14 54 14 63c0 22 -14 27 -79 27h-22l8 54h373l-7 -54h-21c-42 0 -52 -4 -62 -14c-9 -7 -9 -7 -27 -76l-116 -434c-14 -55 -14 -55 -14 -63c0 -22 14 -27 79 -27h22zM531 891l-21 -76h-334l21 76h334z
" />
    <glyph glyph-name="imacron" unicode="&#x12b;" horiz-adv-x="389" 
d="M353 149c-68 -114 -131 -164 -207 -164c-60 0 -104 38 -104 90c0 19 2 30 15 74l51 170c11 37 15 56 15 67c0 25 -12 31 -61 31h-24l7 47l267 14l-105 -356c-9 -31 -10 -34 -10 -42c0 -9 7 -16 16 -16c20 0 53 37 101 113zM447 668l-21 -76h-334l21 76h334z" />
    <glyph glyph-name="Ibreve" unicode="&#x12c;" horiz-adv-x="444" 
d="M332 0h-373l7 54h20c42 0 53 4 63 14c9 8 9 8 27 76l116 434c10 34 14 54 14 63c0 22 -14 27 -79 27h-22l8 54h373l-7 -54h-21c-42 0 -52 -4 -62 -14c-9 -7 -9 -7 -27 -76l-116 -434c-14 -55 -14 -55 -14 -63c0 -22 14 -27 79 -27h22zM555 927c-4 -33 -21 -65 -51 -92
c-42 -38 -97 -56 -170 -56c-120 0 -181 61 -165 148h56c6 -54 42 -77 121 -77c74 0 137 31 152 77h57z" />
    <glyph glyph-name="ibreve" unicode="&#x12d;" horiz-adv-x="389" 
d="M353 149c-68 -114 -131 -164 -207 -164c-60 0 -104 38 -104 90c0 19 2 30 15 74l51 170c11 37 15 56 15 67c0 25 -12 31 -61 31h-24l7 47l267 14l-105 -356c-9 -31 -10 -34 -10 -42c0 -9 7 -16 16 -16c20 0 53 37 101 113zM431 712c-3 -36 -17 -72 -42 -102
c-35 -42 -81 -62 -142 -62c-88 0 -139 49 -139 135c0 6 1 16 2 29h46c5 -60 35 -85 101 -85c62 0 114 34 127 85h47z" />
    <glyph glyph-name="Iogonek" unicode="&#x12e;" horiz-adv-x="444" 
d="M291 -153c-30 -44 -81 -71 -130 -71c-54 0 -102 39 -102 102c0 61 45 98 79 122h-179l7 54h20c42 0 53 4 63 14c9 8 9 8 27 76l116 434c10 34 14 54 14 63c0 22 -14 27 -79 27h-22l8 54h373l-7 -54h-21c-42 0 -52 -4 -62 -14c-9 -7 -9 -7 -27 -76l-116 -434
c-14 -55 -14 -55 -14 -63c0 -22 14 -27 79 -27h22l-8 -54h-93c-45 0 -86 -47 -86 -94c0 -27 18 -46 40 -46c27 0 49 6 70 23z" />
    <glyph glyph-name="iogonek" unicode="&#x12f;" horiz-adv-x="389" 
d="M272 -153c-30 -44 -81 -71 -130 -71c-54 0 -102 39 -102 102c0 53 35 89 67 113c-39 13 -65 44 -65 84c0 19 2 30 15 74l51 170c11 37 15 56 15 67c0 25 -12 31 -61 31h-24l7 47l267 14l-105 -356c-9 -31 -10 -34 -10 -42c0 -9 7 -16 16 -16c20 0 53 37 101 113l39 -28
c-48 -80 -93 -128 -142 -150c-41 -19 -77 -55 -77 -93c0 -27 18 -46 40 -46c27 0 49 6 70 23zM341 631c0 -40 -32 -72 -72 -72c-39 0 -71 33 -71 72s32 71 72 71c39 0 71 -32 71 -71z" />
    <glyph glyph-name="Idotaccent" unicode="&#x130;" horiz-adv-x="444" 
d="M332 0h-373l7 54h20c42 0 53 4 63 14c9 8 9 8 27 76l116 434c10 34 14 54 14 63c0 22 -14 27 -79 27h-22l8 54h373l-7 -54h-21c-42 0 -52 -4 -62 -14c-9 -7 -9 -7 -27 -76l-116 -434c-14 -55 -14 -55 -14 -63c0 -22 14 -27 79 -27h22zM426 854c0 -40 -32 -72 -72 -72
c-39 0 -71 33 -71 72s32 71 72 71c39 0 71 -32 71 -71z" />
    <glyph glyph-name="dotlessi" unicode="&#x131;" horiz-adv-x="389" 
d="M353 149c-68 -114 -131 -164 -207 -164c-60 0 -104 38 -104 90c0 19 2 30 15 74l51 170c11 37 15 56 15 67c0 25 -12 31 -61 31h-24l7 47l267 14l-105 -356c-9 -31 -10 -34 -10 -42c0 -9 7 -16 16 -16c20 0 53 37 101 113z" />
    <glyph glyph-name="Jcircumflex" unicode="&#x134;" horiz-adv-x="667" 
d="M711 668h-20c-42 0 -50 -4 -61 -14c-8 -8 -8 -8 -26 -76l-82 -304c-35 -130 -35 -130 -52 -161c-49 -89 -124 -128 -244 -128c-151 0 -235 66 -235 184c0 93 55 159 133 159c64 0 107 -39 107 -97c0 -52 -38 -93 -87 -93c-24 0 -63 22 -67 22c-12 0 -18 -9 -18 -25
c0 -52 49 -93 111 -93c47 0 92 27 120 72c22 36 25 44 52 146l85 318c10 36 14 54 14 63c0 22 -14 27 -79 27h-30l8 54h378zM773 775h-70l-108 78l-152 -78h-80l188 157h122z" />
    <glyph glyph-name="jcircumflex" unicode="&#x135;" horiz-adv-x="370" 
d="M359 478l-119 -403c-31 -103 -47 -140 -86 -187c-47 -59 -109 -90 -178 -90c-84 0 -146 47 -146 112c0 49 32 83 78 83s74 -29 74 -75c0 -26 -5 -35 -28 -49c-4 -2 -6 -6 -6 -10c0 -7 7 -12 17 -12c39 0 60 34 95 153l95 319c11 38 15 56 15 67c0 25 -12 31 -61 31h-32
l7 47zM462 543h-59l-90 86l-126 -86h-67l157 174h101z" />
    <glyph glyph-name="Kcommaaccent" unicode="&#x136;" horiz-adv-x="778" 
d="M749 0h-374l7 54h31c46 0 60 5 60 22c0 8 0 8 -11 31l-102 213l-84 -77l-26 -99c-10 -34 -14 -54 -14 -63c0 -22 4 -27 69 -27h21l-8 -54h-359l7 54h18c42 0 52 5 63 14c8 8 8 8 27 77l115 433c10 35 14 54 14 63c0 22 -14 27 -79 27h-19l8 54h375l-7 -54h-22
c-42 0 -56 -4 -66 -14c-9 -8 -9 -8 -27 -76l-61 -225l267 248c21 20 30 32 30 42c0 16 -15 25 -41 25h-35l7 54h299l-7 -54c-70 -4 -113 -24 -172 -81l-162 -150l143 -308c32 -70 39 -75 108 -75h15zM424 -164c0 -87 -66 -159 -189 -207l-19 37c83 37 123 78 123 123
c-10 -1 -16 -2 -24 -2c-44 0 -70 26 -70 71c0 48 35 82 85 82c56 0 94 -42 94 -104z" />
    <glyph glyph-name="kcommaaccent" unicode="&#x137;" horiz-adv-x="648" 
d="M584 135c-51 -105 -105 -150 -181 -150c-65 0 -102 39 -102 108c0 18 2 36 5 55c3 14 4 25 4 33c0 5 -1 10 -5 17c-8 -1 -16 -1 -21 -1c-22 0 -36 11 -36 29s15 31 36 31c13 0 21 -2 46 -13c76 25 114 61 114 107c0 27 -19 45 -47 45c-36 0 -71 -24 -117 -80
c-40 -48 -62 -96 -91 -193l-37 -123h-157l171 578c12 41 16 56 16 66c0 25 -12 31 -62 31h-23l6 47l268 14l-109 -365c78 81 129 108 201 108c70 0 118 -40 118 -98c0 -47 -32 -90 -92 -123c-28 -16 -57 -28 -102 -43c46 -26 56 -48 63 -131c1 -12 7 -19 16 -19
c23 0 51 35 75 93zM162 -164c0 -87 -66 -159 -189 -207l-19 37c83 37 123 78 123 123c-10 -1 -16 -2 -24 -2c-44 0 -70 26 -70 71c0 48 35 82 85 82c56 0 94 -42 94 -104z" />
    <glyph glyph-name="Lacute" unicode="&#x139;" horiz-adv-x="704" 
d="M602 0h-643l7 54h20c42 0 50 4 61 14c8 8 8 8 26 76l117 434c9 35 13 54 13 63c0 22 -14 27 -79 27h-19l8 54h382l-8 -54h-18c-42 0 -66 -4 -76 -14c-9 -8 -9 -8 -27 -76l-116 -434c-10 -35 -15 -55 -14 -64c0 -20 13 -26 53 -26h36c115 0 234 81 293 212l52 -11z
M494 889c0 -17 -12 -30 -34 -39l-199 -80h-65l149 126c40 34 56 40 84 40c36 0 65 -21 65 -47z" />
    <glyph glyph-name="lacute" unicode="&#x13a;" horiz-adv-x="389" 
d="M339 149c-21 -38 -51 -75 -86 -108c-41 -39 -79 -56 -125 -56c-61 0 -102 37 -102 91c0 23 5 49 23 106l117 396c11 37 15 55 15 66c0 25 -12 31 -61 31h-24l7 47l267 14l-182 -614l-5 -16c-3 -10 -5 -21 -5 -26c0 -10 7 -17 15 -17c22 0 67 47 107 113zM469 903
c0 -17 -12 -30 -34 -39l-199 -80h-65l149 126c40 34 56 40 84 40c36 0 65 -21 65 -47z" />
    <glyph glyph-name="Lcommaaccent" unicode="&#x13b;" horiz-adv-x="704" 
d="M602 0h-643l7 54h20c42 0 50 4 61 14c8 8 8 8 26 76l117 434c9 35 13 54 13 63c0 22 -14 27 -79 27h-19l8 54h382l-8 -54h-18c-42 0 -66 -4 -76 -14c-9 -8 -9 -8 -27 -76l-116 -434c-10 -35 -15 -55 -14 -64c0 -20 13 -26 53 -26h36c115 0 234 81 293 212l52 -11z
M430 -164c0 -87 -66 -159 -189 -207l-19 37c83 37 123 78 123 123c-10 -1 -16 -2 -24 -2c-44 0 -70 26 -70 71c0 48 35 82 85 82c56 0 94 -42 94 -104z" />
    <glyph glyph-name="lcommaaccent" unicode="&#x13c;" horiz-adv-x="389" 
d="M339 149c-21 -38 -51 -75 -86 -108c-41 -39 -79 -56 -125 -56c-61 0 -102 37 -102 91c0 23 5 49 23 106l117 396c11 37 15 55 15 66c0 25 -12 31 -61 31h-24l7 47l267 14l-182 -614l-5 -16c-3 -10 -5 -21 -5 -26c0 -10 7 -17 15 -17c22 0 67 47 107 113zM164 -164
c0 -87 -66 -159 -189 -207l-19 37c83 37 123 78 123 123c-10 -1 -16 -2 -24 -2c-44 0 -70 26 -70 71c0 48 35 82 85 82c56 0 94 -42 94 -104z" />
    <glyph glyph-name="Lcaron" unicode="&#x13d;" horiz-adv-x="704" 
d="M602 0h-643l7 54h20c42 0 50 4 61 14c8 8 8 8 26 76l117 434c9 35 13 54 13 63c0 22 -14 27 -79 27h-19l8 54h382l-8 -54h-18c-42 0 -66 -4 -76 -14c-9 -8 -9 -8 -27 -76l-116 -434c-10 -35 -15 -55 -14 -64c0 -20 13 -26 53 -26h36c115 0 234 81 293 212l52 -11z
M706 618c0 -87 -66 -159 -189 -207l-19 37c83 37 123 78 123 123c-10 -1 -16 -2 -24 -2c-44 0 -70 26 -70 71c0 48 35 82 85 82c56 0 94 -42 94 -104z" />
    <glyph glyph-name="lcaron" unicode="&#x13e;" horiz-adv-x="389" 
d="M339 149c-21 -38 -51 -75 -86 -108c-41 -39 -79 -56 -125 -56c-61 0 -102 37 -102 91c0 23 5 49 23 106l117 396c11 37 15 55 15 66c0 25 -12 31 -61 31h-24l7 47l267 14l-182 -614l-5 -16c-3 -10 -5 -21 -5 -26c0 -10 7 -17 15 -17c22 0 67 47 107 113zM574 632
c0 -87 -66 -159 -189 -207l-19 37c83 37 123 78 123 123c-10 -1 -16 -2 -24 -2c-44 0 -70 26 -70 71c0 48 35 82 85 82c56 0 94 -42 94 -104z" />
    <glyph glyph-name="Ldot" unicode="&#x13f;" horiz-adv-x="704" 
d="M602 0h-643l7 54h20c42 0 50 4 61 14c8 8 8 8 26 76l117 434c9 35 13 54 13 63c0 22 -14 27 -79 27h-19l8 54h382l-8 -54h-18c-42 0 -66 -4 -76 -14c-9 -8 -9 -8 -27 -76l-116 -434c-10 -35 -15 -55 -14 -64c0 -20 13 -26 53 -26h36c115 0 234 81 293 212l52 -11z
M649 384c0 -40 -32 -72 -72 -72c-39 0 -71 33 -71 72s32 71 72 71c39 0 71 -32 71 -71z" />
    <glyph glyph-name="ldot" unicode="&#x140;" horiz-adv-x="409" 
d="M339 149c-21 -38 -51 -75 -86 -108c-41 -39 -79 -56 -125 -56c-61 0 -102 37 -102 91c0 23 5 49 23 106l117 396c11 37 15 55 15 66c0 25 -12 31 -61 31h-24l7 47l267 14l-182 -614l-5 -16c-3 -10 -5 -21 -5 -26c0 -10 7 -17 15 -17c22 0 67 47 107 113zM463 384
c0 -40 -32 -72 -72 -72c-39 0 -71 33 -71 72s32 71 72 71c39 0 71 -32 71 -71z" />
    <glyph glyph-name="Lslash" unicode="&#x141;" horiz-adv-x="704" 
d="M602 0h-643l7 54h19c58 0 66 6 77 48l38 141l-100 -58l16 82l106 59l68 252c9 35 13 54 13 63c0 22 -14 27 -79 27h-19l8 54h382l-8 -54h-18c-69 0 -81 -6 -92 -48l-11 -42l-47 -171l189 106l-22 -82l-189 -107l-47 -180c-10 -37 -14 -55 -14 -64c0 -20 13 -26 53 -26h36
c80 0 138 25 203 87c42 39 68 76 90 125l52 -11z" />
    <glyph glyph-name="lslash" unicode="&#x142;" horiz-adv-x="389" 
d="M338 149c-21 -38 -51 -75 -86 -108c-41 -39 -79 -56 -126 -56c-60 0 -101 37 -101 91c0 22 6 52 22 106l34 113l-83 -62l24 85l84 62l59 198c12 39 16 56 16 66c0 25 -12 31 -61 31h-24l7 47l267 14l-82 -271l95 70l-26 -85l-94 -70l-76 -258c-9 -31 -10 -34 -10 -43
s7 -16 16 -16c15 0 33 15 60 49c22 27 35 46 46 64z" />
    <glyph glyph-name="Nacute" unicode="&#x143;" horiz-adv-x="852" 
d="M905 668c-34 0 -61 -9 -81 -27c-28 -27 -30 -30 -61 -136l-139 -519h-80l-296 566l-90 -335c-20 -80 -21 -87 -21 -108c0 -37 19 -55 77 -55h21l-8 -54h-284l7 54c34 1 61 10 81 27c28 26 30 32 60 136l113 419c-12 23 -28 32 -59 32h-56l7 54h254l268 -507l78 290
c21 80 22 86 22 108c0 37 -30 55 -90 55l7 54h277zM711 889c0 -17 -12 -30 -34 -39l-199 -80h-65l149 126c40 34 56 40 84 40c36 0 65 -21 65 -47z" />
    <glyph glyph-name="nacute" unicode="&#x144;" horiz-adv-x="685" 
d="M642 152c-77 -119 -138 -167 -211 -167c-62 0 -102 35 -102 91c0 26 4 41 20 87l62 169c6 16 9 29 9 36c0 13 -15 26 -30 26c-24 0 -57 -24 -95 -69c-44 -53 -69 -105 -97 -198l-38 -127h-157l95 319c11 38 15 56 15 67c0 25 -12 31 -61 31h-24l7 47l250 14l-32 -132
c75 96 132 133 205 133c66 0 113 -43 113 -103c0 -33 -8 -67 -31 -128l-47 -128c-10 -30 -10 -30 -10 -38s7 -16 14 -16c18 0 44 26 97 100l9 11zM530 670c0 -19 -10 -34 -28 -44l-166 -88h-54l124 139c34 37 46 45 70 45c30 0 54 -23 54 -52z" />
    <glyph glyph-name="Ncommaaccent" unicode="&#x145;" horiz-adv-x="852" 
d="M905 668c-34 0 -61 -9 -81 -27c-28 -27 -30 -30 -61 -136l-139 -519h-80l-296 566l-90 -335c-20 -80 -21 -87 -21 -108c0 -37 19 -55 77 -55h21l-8 -54h-284l7 54c34 1 61 10 81 27c28 26 30 32 60 136l113 419c-12 23 -28 32 -59 32h-56l7 54h254l268 -507l78 290
c21 80 22 86 22 108c0 37 -30 55 -90 55l7 54h277zM408 -164c0 -87 -66 -159 -189 -207l-19 37c83 37 123 78 123 123c-10 -1 -16 -2 -24 -2c-44 0 -70 26 -70 71c0 48 35 82 85 82c56 0 94 -42 94 -104z" />
    <glyph glyph-name="ncommaaccent" unicode="&#x146;" horiz-adv-x="685" 
d="M642 152c-77 -119 -138 -167 -211 -167c-62 0 -102 35 -102 91c0 26 4 41 20 87l62 169c6 16 9 29 9 36c0 13 -15 26 -30 26c-24 0 -57 -24 -95 -69c-44 -53 -69 -105 -97 -198l-38 -127h-157l95 319c11 38 15 56 15 67c0 25 -12 31 -61 31h-24l7 47l250 14l-32 -132
c75 96 132 133 205 133c66 0 113 -43 113 -103c0 -33 -8 -67 -31 -128l-47 -128c-10 -30 -10 -30 -10 -38s7 -16 14 -16c18 0 44 26 97 100l9 11zM313 -164c0 -87 -66 -159 -189 -207l-19 37c83 37 123 78 123 123c-10 -1 -16 -2 -24 -2c-44 0 -70 26 -70 71
c0 48 35 82 85 82c56 0 94 -42 94 -104z" />
    <glyph glyph-name="Ncaron" unicode="&#x147;" horiz-adv-x="852" 
d="M905 668c-34 0 -61 -9 -81 -27c-28 -27 -30 -30 -61 -136l-139 -519h-80l-296 566l-90 -335c-20 -80 -21 -87 -21 -108c0 -37 19 -55 77 -55h21l-8 -54h-284l7 54c34 1 61 10 81 27c28 26 30 32 60 136l113 419c-12 23 -28 32 -59 32h-56l7 54h254l268 -507l78 290
c21 80 22 86 22 108c0 37 -30 55 -90 55l7 54h277zM785 932l-188 -157h-122l-100 157h70l108 -78l152 78h80z" />
    <glyph glyph-name="ncaron" unicode="&#x148;" horiz-adv-x="685" 
d="M642 152c-77 -119 -138 -167 -211 -167c-62 0 -102 35 -102 91c0 26 4 41 20 87l62 169c6 16 9 29 9 36c0 13 -15 26 -30 26c-24 0 -57 -24 -95 -69c-44 -53 -69 -105 -97 -198l-38 -127h-157l95 319c11 38 15 56 15 67c0 25 -12 31 -61 31h-24l7 47l250 14l-32 -132
c75 96 132 133 205 133c66 0 113 -43 113 -103c0 -33 -8 -67 -31 -128l-47 -128c-10 -30 -10 -30 -10 -38s7 -16 14 -16c18 0 44 26 97 100l9 11zM588 718l-157 -176h-102l-84 176h59l90 -88l126 88h68z" />
    <glyph glyph-name="Eng" unicode="&#x14a;" horiz-adv-x="852" 
d="M905 668c-34 0 -61 -9 -81 -27c-28 -27 -30 -30 -61 -136l-139 -519c-32 -120 -126 -236 -235 -236c-84 0 -146 47 -146 112c0 49 32 83 78 83s74 -29 74 -75c0 -26 -5 -35 -28 -49c-4 -2 -6 -6 -6 -10c0 -7 7 -12 17 -12c82 0 139 97 164 191l-294 562l-90 -335
c-20 -80 -21 -87 -21 -108c0 -37 19 -55 77 -55h21l-8 -54h-284l7 54c34 1 61 10 81 27c28 26 30 32 60 136l113 419c-12 23 -28 32 -59 32h-56l7 54h254l268 -507l78 290c21 80 22 86 22 108c0 37 -30 55 -90 55l7 54h277z" />
    <glyph glyph-name="eng" unicode="&#x14b;" horiz-adv-x="685" 
d="M540 248l-47 -128c-43 -162 -144 -330 -285 -330c-68 0 -117 38 -117 90c0 39 25 66 62 66s59 -23 59 -60c0 -20 -4 -28 -22 -39c-3 -1 -5 -5 -5 -8c0 -5 6 -9 14 -9c61 0 112 189 150 333l62 169c6 16 9 29 9 36c0 13 -15 26 -30 26c-24 0 -57 -24 -95 -69
c-44 -53 -69 -105 -97 -198l-38 -127h-157l95 319c11 38 15 56 15 67c0 25 -12 31 -61 31h-24l7 47l250 14l-32 -132c75 96 132 133 205 133c66 0 113 -43 113 -103c0 -33 -8 -67 -31 -128z" />
    <glyph glyph-name="Omacron" unicode="&#x14c;" horiz-adv-x="833" 
d="M797 441c0 -248 -208 -456 -455 -456c-185 0 -306 119 -306 301c0 249 214 451 454 451c173 0 307 -130 307 -296zM533 196c49 94 80 219 80 324c0 101 -47 163 -126 163c-75 0 -135 -50 -187 -155c-49 -100 -85 -241 -85 -335c0 -95 49 -154 127 -154
c72 0 135 51 191 157zM725 891l-21 -76h-334l21 76h334z" />
    <glyph glyph-name="omacron" unicode="&#x14d;" horiz-adv-x="574" 
d="M540 285c0 -169 -139 -299 -320 -299c-63 0 -115 18 -150 51c-37 34 -60 92 -60 150c0 158 144 292 314 292c61 0 121 -20 160 -54c36 -31 56 -80 56 -140zM335 134c28 70 50 168 50 220c0 47 -26 78 -65 78c-43 0 -80 -38 -110 -110c-26 -63 -45 -154 -45 -214
c0 -50 24 -79 64 -79c43 0 79 35 106 105zM556 668l-21 -76h-334l21 76h334z" />
    <glyph glyph-name="Obreve" unicode="&#x14e;" horiz-adv-x="833" 
d="M797 441c0 -248 -208 -456 -455 -456c-185 0 -306 119 -306 301c0 249 214 451 454 451c173 0 307 -130 307 -296zM533 196c49 94 80 219 80 324c0 101 -47 163 -126 163c-75 0 -135 -50 -187 -155c-49 -100 -85 -241 -85 -335c0 -95 49 -154 127 -154
c72 0 135 51 191 157zM749 927c-4 -33 -21 -65 -51 -92c-42 -38 -97 -56 -170 -56c-120 0 -181 61 -165 148h56c6 -54 42 -77 121 -77c74 0 137 31 152 77h57z" />
    <glyph glyph-name="obreve" unicode="&#x14f;" horiz-adv-x="574" 
d="M540 285c0 -169 -139 -299 -320 -299c-63 0 -115 18 -150 51c-37 34 -60 92 -60 150c0 158 144 292 314 292c61 0 121 -20 160 -54c36 -31 56 -80 56 -140zM335 134c28 70 50 168 50 220c0 47 -26 78 -65 78c-43 0 -80 -38 -110 -110c-26 -63 -45 -154 -45 -214
c0 -50 24 -79 64 -79c43 0 79 35 106 105zM540 712c-3 -36 -17 -72 -42 -102c-35 -42 -81 -62 -142 -62c-88 0 -139 49 -139 135c0 6 1 16 2 29h46c5 -60 35 -85 101 -85c62 0 114 34 127 85h47z" />
    <glyph glyph-name="Ohungarumlaut" unicode="&#x150;" horiz-adv-x="833" 
d="M797 441c0 -248 -208 -456 -455 -456c-185 0 -306 119 -306 301c0 249 214 451 454 451c173 0 307 -130 307 -296zM533 196c49 94 80 219 80 324c0 101 -47 163 -126 163c-75 0 -135 -50 -187 -155c-49 -100 -85 -241 -85 -335c0 -95 49 -154 127 -154
c72 0 135 51 191 157zM640 905c0 -18 -12 -37 -28 -44l-166 -71h-54l123 122c40 41 47 45 71 45c30 0 54 -23 54 -52zM831 905c0 -18 -12 -37 -28 -44l-166 -71h-54l123 122c40 41 47 45 71 45c30 0 54 -23 54 -52z" />
    <glyph glyph-name="ohungarumlaut" unicode="&#x151;" horiz-adv-x="574" 
d="M540 285c0 -169 -139 -299 -320 -299c-63 0 -115 18 -150 51c-37 34 -60 92 -60 150c0 158 144 292 314 292c61 0 121 -20 160 -54c36 -31 56 -80 56 -140zM335 134c28 70 50 168 50 220c0 47 -26 78 -65 78c-43 0 -80 -38 -110 -110c-26 -63 -45 -154 -45 -214
c0 -50 24 -79 64 -79c43 0 79 35 106 105zM465 662c0 -18 -12 -37 -28 -44l-166 -71h-54l123 122c40 41 47 45 71 45c30 0 54 -23 54 -52zM656 662c0 -18 -12 -37 -28 -44l-166 -71h-54l123 122c40 41 47 45 71 45c30 0 54 -23 54 -52z" />
    <glyph glyph-name="OE" unicode="&#x152;" horiz-adv-x="963" 
d="M862 0h-555c-185 0 -288 106 -288 281c0 137 69 276 180 361c78 59 150 80 279 80h502l-40 -245h-49c0 72 -4 101 -18 127c-22 42 -59 64 -109 64h-17c-28 0 -41 -13 -50 -48l-59 -219h40c55 0 81 40 113 122l46 -7l-90 -335l-46 7c4 30 5 43 5 61c0 57 -10 98 -51 98
h-31l-64 -236c-3 -12 -5 -25 -5 -32c0 -15 16 -25 41 -25h28c93 0 204 100 255 205l49 -11zM397 157l101 377c7 26 11 55 11 75c0 39 -24 59 -69 59c-66 0 -114 -35 -160 -117c-55 -98 -91 -229 -91 -333c0 -98 32 -164 115 -164c49 0 72 24 93 103z" />
    <glyph glyph-name="oe" unicode="&#x153;" horiz-adv-x="852" 
d="M761 91c-61 -70 -136 -106 -222 -106c-69 0 -108 16 -154 61c-62 -47 -102 -60 -177 -60c-140 0 -213 84 -213 202c0 156 144 291 312 291c70 0 117 -20 158 -67c54 46 110 67 179 67c96 0 166 -51 166 -121c0 -89 -109 -166 -319 -177c-2 -22 -3 -31 -3 -44
c0 -58 33 -93 87 -93c52 0 94 23 152 82zM320 134c28 70 50 168 50 220c0 47 -26 78 -65 78c-85 0 -155 -187 -155 -324c0 -50 24 -79 64 -79c44 0 78 35 106 105zM688 385c0 28 -17 47 -44 47c-62 0 -120 -82 -144 -204c107 17 188 78 188 157z" />
    <glyph glyph-name="Racute" unicode="&#x154;" horiz-adv-x="796" 
d="M742 136c-34 -103 -90 -151 -175 -151c-84 0 -143 59 -143 142c0 34 12 103 12 142c0 55 -33 81 -92 81h-40l-55 -206c-9 -32 -13 -54 -13 -63c0 -22 14 -27 79 -27h26l-8 -54h-374l7 54h20c42 0 50 4 60 14c9 8 9 8 27 76l116 434c11 40 14 54 14 63c0 22 -12 27 -77 27
h-21l7 54h347c197 0 292 -42 292 -167c0 -114 -98 -181 -287 -196c97 -27 139 -77 139 -178v-34c0 -66 0 -66 7 -75c5 -7 11 -11 18 -11c28 0 49 36 71 96zM567 570c0 63 -38 98 -108 98h-25c-36 0 -46 -7 -54 -38l-61 -226h34c90 0 115 5 149 31c40 30 65 81 65 135z
M646 889c0 -17 -12 -30 -34 -39l-199 -80h-65l149 126c40 34 56 40 84 40c36 0 65 -21 65 -47z" />
    <glyph glyph-name="racute" unicode="&#x155;" horiz-adv-x="519" 
d="M524 391c0 -47 -32 -83 -75 -83c-32 0 -60 20 -67 49c-2 8 -3 16 -3 31c0 9 -3 13 -10 13c-8 0 -25 -11 -40 -26c-49 -47 -99 -140 -127 -236l-42 -139h-157l95 319c11 37 15 56 15 67c0 25 -12 31 -61 31h-24l7 47l250 14l-31 -127c62 93 111 128 177 128
c56 0 93 -35 93 -88zM460 670c0 -19 -10 -34 -28 -44l-166 -88h-54l124 139c34 37 46 45 70 45c30 0 54 -23 54 -52z" />
    <glyph glyph-name="Rcommaaccent" unicode="&#x156;" horiz-adv-x="796" 
d="M742 136c-34 -103 -90 -151 -175 -151c-84 0 -143 59 -143 142c0 34 12 103 12 142c0 55 -33 81 -92 81h-40l-55 -206c-9 -32 -13 -54 -13 -63c0 -22 14 -27 79 -27h26l-8 -54h-374l7 54h20c42 0 50 4 60 14c9 8 9 8 27 76l116 434c11 40 14 54 14 63c0 22 -12 27 -77 27
h-21l7 54h347c197 0 292 -42 292 -167c0 -114 -98 -181 -287 -196c97 -27 139 -77 139 -178v-34c0 -66 0 -66 7 -75c5 -7 11 -11 18 -11c28 0 49 36 71 96zM567 570c0 63 -38 98 -108 98h-25c-36 0 -46 -7 -54 -38l-61 -226h34c90 0 115 5 149 31c40 30 65 81 65 135z
M343 -164c0 -87 -66 -159 -189 -207l-19 37c83 37 123 78 123 123c-10 -1 -16 -2 -24 -2c-44 0 -70 26 -70 71c0 48 35 82 85 82c56 0 94 -42 94 -104z" />
    <glyph glyph-name="rcommaaccent" unicode="&#x157;" horiz-adv-x="519" 
d="M524 391c0 -47 -32 -83 -75 -83c-32 0 -60 20 -67 49c-2 8 -3 16 -3 31c0 9 -3 13 -10 13c-8 0 -25 -11 -40 -26c-49 -47 -99 -140 -127 -236l-42 -139h-157l95 319c11 37 15 56 15 67c0 25 -12 31 -61 31h-24l7 47l250 14l-31 -127c62 93 111 128 177 128
c56 0 93 -35 93 -88zM162 -164c0 -87 -66 -159 -189 -207l-19 37c83 37 123 78 123 123c-10 -1 -16 -2 -24 -2c-44 0 -70 26 -70 71c0 48 35 82 85 82c56 0 94 -42 94 -104z" />
    <glyph glyph-name="Rcaron" unicode="&#x158;" horiz-adv-x="796" 
d="M742 136c-34 -103 -90 -151 -175 -151c-84 0 -143 59 -143 142c0 34 12 103 12 142c0 55 -33 81 -92 81h-40l-55 -206c-9 -32 -13 -54 -13 -63c0 -22 14 -27 79 -27h26l-8 -54h-374l7 54h20c42 0 50 4 60 14c9 8 9 8 27 76l116 434c11 40 14 54 14 63c0 22 -12 27 -77 27
h-21l7 54h347c197 0 292 -42 292 -167c0 -114 -98 -181 -287 -196c97 -27 139 -77 139 -178v-34c0 -66 0 -66 7 -75c5 -7 11 -11 18 -11c28 0 49 36 71 96zM567 570c0 63 -38 98 -108 98h-25c-36 0 -46 -7 -54 -38l-61 -226h34c90 0 115 5 149 31c40 30 65 81 65 135z
M720 932l-188 -157h-122l-100 157h70l108 -78l152 78h80z" />
    <glyph glyph-name="rcaron" unicode="&#x159;" horiz-adv-x="519" 
d="M524 391c0 -47 -32 -83 -75 -83c-32 0 -60 20 -67 49c-2 8 -3 16 -3 31c0 9 -3 13 -10 13c-8 0 -25 -11 -40 -26c-49 -47 -99 -140 -127 -236l-42 -139h-157l95 319c11 37 15 56 15 67c0 25 -12 31 -61 31h-24l7 47l250 14l-31 -127c62 93 111 128 177 128
c56 0 93 -35 93 -88zM518 718l-157 -176h-102l-84 176h59l90 -88l126 88h68z" />
    <glyph glyph-name="Sacute" unicode="&#x15a;" horiz-adv-x="685" 
d="M612 224c0 -141 -119 -239 -292 -239c-90 0 -151 23 -217 80l-58 -65h-44l50 283l52 -8l-1 -30c1 -119 85 -206 215 -206c94 0 157 46 157 113c0 58 -36 87 -171 133c-84 28 -114 44 -145 74c-37 35 -56 82 -56 136c0 138 114 242 266 242c79 0 139 -23 200 -76l53 54h45
l-44 -263l-52 9c-5 148 -78 222 -190 222c-86 0 -143 -43 -143 -108c0 -48 18 -80 112 -111c184 -61 263 -104 263 -240zM628 889c0 -17 -12 -30 -34 -39l-199 -80h-65l149 126c40 34 56 40 84 40c36 0 65 -21 65 -47z" />
    <glyph glyph-name="sacute" unicode="&#x15b;" horiz-adv-x="481" 
d="M399 149c0 -98 -88 -164 -219 -164c-106 0 -178 47 -178 116c0 43 28 72 70 72c40 0 71 -27 71 -64c0 -19 -5 -28 -26 -46c-3 -3 -5 -6 -5 -9c0 -15 27 -26 63 -26c54 0 95 29 95 69c0 27 -16 44 -58 61c-57 24 -63 27 -84 40c-50 30 -72 68 -72 122c0 98 78 159 202 159
c105 0 179 -47 179 -112c0 -41 -28 -70 -69 -70c-40 0 -69 26 -69 61c0 16 2 21 18 41c4 5 6 9 6 12c0 11 -27 21 -56 21c-52 0 -89 -25 -89 -61c0 -26 19 -44 78 -69c41 -18 54 -24 75 -38c46 -30 68 -66 68 -115zM452 670c0 -19 -10 -34 -28 -44l-166 -88h-54l124 139
c34 37 46 45 70 45c30 0 54 -23 54 -52z" />
    <glyph glyph-name="Scircumflex" unicode="&#x15c;" horiz-adv-x="685" 
d="M612 224c0 -141 -119 -239 -292 -239c-90 0 -151 23 -217 80l-58 -65h-44l50 283l52 -8l-1 -30c1 -119 85 -206 215 -206c94 0 157 46 157 113c0 58 -36 87 -171 133c-84 28 -114 44 -145 74c-37 35 -56 82 -56 136c0 138 114 242 266 242c79 0 139 -23 200 -76l53 54h45
l-44 -263l-52 9c-5 148 -78 222 -190 222c-86 0 -143 -43 -143 -108c0 -48 18 -80 112 -111c184 -61 263 -104 263 -240zM660 775h-70l-108 78l-152 -78h-80l188 157h122z" />
    <glyph glyph-name="scircumflex" unicode="&#x15d;" horiz-adv-x="481" 
d="M399 149c0 -98 -88 -164 -219 -164c-106 0 -178 47 -178 116c0 43 28 72 70 72c40 0 71 -27 71 -64c0 -19 -5 -28 -26 -46c-3 -3 -5 -6 -5 -9c0 -15 27 -26 63 -26c54 0 95 29 95 69c0 27 -16 44 -58 61c-57 24 -63 27 -84 40c-50 30 -72 68 -72 122c0 98 78 159 202 159
c105 0 179 -47 179 -112c0 -41 -28 -70 -69 -70c-40 0 -69 26 -69 61c0 16 2 21 18 41c4 5 6 9 6 12c0 11 -27 21 -56 21c-52 0 -89 -25 -89 -61c0 -26 19 -44 78 -69c41 -18 54 -24 75 -38c46 -30 68 -66 68 -115zM473 543h-59l-90 86l-126 -86h-67l157 174h101z" />
    <glyph glyph-name="Scedilla" unicode="&#x15e;" horiz-adv-x="685" 
d="M612 223c0 -141 -119 -238 -292 -238c-5 0 -13 0 -25 1l-35 -48c13 2 26 3 31 3c52 0 89 -31 89 -75c0 -52 -55 -88 -135 -88c-43 0 -83 10 -109 29l22 35c31 -14 50 -19 71 -19c30 0 50 15 50 38c0 20 -18 35 -43 35c-7 0 -13 -1 -29 -4l-16 17l62 81
c-55 9 -104 33 -150 75l-58 -65h-44l50 283l52 -8v-15c0 -134 84 -221 214 -221c94 0 157 46 157 113c0 59 -36 87 -171 133c-84 28 -114 44 -145 74c-37 35 -56 82 -56 136c0 138 114 242 266 242c79 0 139 -23 200 -76l53 54h45l-44 -263l-52 9c-2 56 -9 90 -25 123
c-32 63 -92 99 -165 99c-86 0 -143 -43 -143 -108c0 -28 11 -54 32 -72c13 -13 39 -25 80 -39c73 -24 136 -50 173 -72c58 -33 90 -93 90 -169z" />
    <glyph glyph-name="scedilla" unicode="&#x15f;" horiz-adv-x="481" 
d="M399 149c0 -98 -88 -164 -217 -164c0 0 -9 0 -16 1l-34 -47c13 2 24 3 33 3c49 0 86 -32 86 -75c0 -52 -55 -87 -135 -87c-43 0 -82 10 -109 29l22 35c32 -14 51 -19 72 -19c29 0 49 16 49 38c0 20 -18 35 -42 35c-8 0 -14 -1 -29 -4l-17 17l62 79
c-78 16 -122 55 -122 111c0 43 28 72 70 72c40 0 71 -27 71 -64c0 -19 -5 -28 -26 -46c-3 -3 -5 -6 -5 -9c0 -15 27 -26 63 -26c54 0 95 29 95 69c0 27 -16 44 -58 61c-55 23 -63 27 -84 40c-50 30 -72 68 -72 121c0 98 78 160 200 160c107 0 181 -46 181 -112
c0 -41 -28 -70 -69 -70c-40 0 -69 26 -69 61c0 16 2 21 18 41c4 5 6 9 6 12c0 11 -27 21 -56 21c-52 0 -89 -25 -89 -61c0 -26 19 -44 78 -69c41 -18 54 -24 75 -38c46 -30 68 -66 68 -115z" />
    <glyph glyph-name="Scaron" unicode="&#x160;" horiz-adv-x="685" 
d="M612 224c0 -141 -119 -239 -292 -239c-90 0 -151 23 -217 80l-58 -65h-44l50 283l52 -8l-1 -30c1 -119 85 -206 215 -206c94 0 157 46 157 113c0 58 -36 87 -171 133c-84 28 -114 44 -145 74c-37 35 -56 82 -56 136c0 138 114 242 266 242c79 0 139 -23 200 -76l53 54h45
l-44 -263l-52 9c-5 148 -78 222 -190 222c-86 0 -143 -43 -143 -108c0 -48 18 -80 112 -111c184 -61 263 -104 263 -240zM702 932l-188 -157h-122l-100 157h70l108 -78l152 78h80z" />
    <glyph glyph-name="scaron" unicode="&#x161;" horiz-adv-x="481" 
d="M399 149c0 -98 -88 -164 -219 -164c-106 0 -178 47 -178 116c0 43 28 72 70 72c40 0 71 -27 71 -64c0 -19 -5 -28 -26 -46c-3 -3 -5 -6 -5 -9c0 -15 27 -26 63 -26c54 0 95 29 95 69c0 27 -16 44 -58 61c-57 24 -63 27 -84 40c-50 30 -72 68 -72 122c0 98 78 159 202 159
c105 0 179 -47 179 -112c0 -41 -28 -70 -69 -70c-40 0 -69 26 -69 61c0 16 2 21 18 41c4 5 6 9 6 12c0 11 -27 21 -56 21c-52 0 -89 -25 -89 -61c0 -26 19 -44 78 -69c41 -18 54 -24 75 -38c46 -30 68 -66 68 -115zM510 718l-157 -176h-102l-84 176h59l90 -88l126 88h68z
" />
    <glyph glyph-name="Tcedilla" unicode="&#x162;" horiz-adv-x="722" 
d="M718 439l-53 5c2 23 3 48 3 60c0 105 -42 164 -118 164c-29 0 -32 -2 -43 -45l-128 -479c-12 -44 -14 -54 -14 -63c0 -22 14 -27 80 -27h25l-7 -54h-172l-43 -61c13 2 24 3 33 3c49 0 86 -32 86 -75c0 -52 -55 -87 -135 -87c-43 0 -82 10 -109 29l22 35
c32 -14 51 -19 72 -19c29 0 49 16 49 38c0 20 -18 35 -42 35c-8 0 -14 -1 -29 -4l-17 17l68 89h-180l7 54h27c42 0 66 4 76 14c9 8 9 8 27 76l130 485c3 10 4 19 4 24c0 10 -10 15 -28 15c-85 0 -146 -65 -215 -229l-50 16l71 267h647z" />
    <glyph glyph-name="tcedilla" unicode="&#x163;" horiz-adv-x="407" 
d="M337 156c-38 -58 -48 -70 -68 -92c-48 -51 -98 -77 -148 -78l-33 -47c13 2 24 3 33 3c49 0 86 -32 86 -75c0 -52 -55 -87 -135 -87c-43 0 -82 10 -109 29l22 35c32 -14 51 -19 72 -19c29 0 49 16 49 38c0 20 -18 35 -42 35c-8 0 -14 -1 -29 -4l-17 17l62 82
c-33 13 -56 42 -56 76c0 19 5 47 14 77c3 9 7 22 11 37l65 220h-87l18 61h87l56 186h157l-55 -186h114l-18 -61h-114l-70 -236c-12 -41 -21 -76 -21 -83c0 -9 7 -18 15 -18c20 0 66 51 104 117z" />
    <glyph glyph-name="Tcaron" unicode="&#x164;" horiz-adv-x="722" 
d="M718 439l-53 5c2 23 3 48 3 60c0 105 -42 164 -118 164c-29 0 -32 -2 -43 -45l-128 -479c-12 -44 -14 -54 -14 -63c0 -22 14 -27 80 -27h25l-7 -54h-397l7 54h27c42 0 66 4 76 14c9 8 9 8 27 76l130 485c3 10 4 19 4 24c0 10 -10 15 -28 15c-85 0 -146 -65 -215 -229
l-50 16l71 267h647zM707 932l-188 -157h-122l-100 157h70l108 -78l152 78h80z" />
    <glyph glyph-name="tcaron" unicode="&#x165;" horiz-adv-x="407" 
d="M337 156c-38 -58 -48 -70 -68 -92c-49 -52 -99 -78 -150 -78c-53 0 -95 37 -95 83c0 19 5 47 14 77c3 9 7 22 11 37l65 220h-87l18 61h87l56 186h157l-55 -186h114l-18 -61h-114l-70 -236c-12 -41 -21 -76 -21 -83c0 -9 7 -18 15 -18c20 0 66 51 104 117zM571 708
c0 -87 -66 -159 -189 -207l-19 37c83 37 123 78 123 123c-10 -1 -16 -2 -24 -2c-44 0 -70 26 -70 71c0 48 35 82 85 82c56 0 94 -42 94 -104z" />
    <glyph glyph-name="Utilde" unicode="&#x168;" horiz-adv-x="833" 
d="M888 668c-27 0 -59 -10 -78 -27c-28 -25 -31 -32 -61 -135l-74 -279c-45 -169 -138 -242 -304 -242c-174 0 -283 86 -283 211c0 28 6 65 17 107l74 275c12 46 14 54 14 63c0 22 -9 27 -75 27h-23l7 54h376l-8 -54h-22c-42 0 -56 -4 -66 -14c-9 -8 -9 -8 -27 -76l-81 -304
c-11 -40 -15 -64 -15 -88c0 -88 55 -139 150 -139c93 0 164 48 206 207l67 252c21 79 22 86 22 107c0 38 -29 55 -90 55l7 54h274zM732 916c-3 -67 -61 -126 -124 -126c-21 0 -46 6 -85 21c-45 18 -57 21 -72 21c-22 0 -37 -15 -42 -42h-47c5 73 58 126 124 126
c20 0 46 -6 79 -19c48 -19 55 -21 70 -21c25 0 42 14 50 40h47z" />
    <glyph glyph-name="utilde" unicode="&#x169;" horiz-adv-x="685" 
d="M639 152c-78 -120 -136 -166 -212 -166c-64 0 -97 29 -97 85c0 8 0 16 1 26c-65 -78 -119 -111 -183 -111c-66 0 -110 44 -110 109c0 27 4 47 21 103l35 121c12 39 16 57 16 67c0 25 -12 31 -61 31h-10l7 47l253 14l-90 -304c-3 -8 -7 -24 -12 -41c-2 -7 -4 -15 -7 -24
c-1 -6 -2 -11 -2 -14c0 -13 12 -25 25 -25c26 0 74 39 110 89c30 41 52 88 68 140l48 165h158l-93 -312c-16 -56 -16 -56 -16 -67c0 -7 7 -14 14 -14c17 0 57 43 99 109zM596 693c-3 -67 -61 -126 -124 -126c-21 0 -46 6 -85 21c-45 18 -57 21 -72 21c-22 0 -37 -15 -42 -42
h-47c5 73 58 126 124 126c20 0 46 -6 79 -19c48 -19 55 -21 70 -21c25 0 42 14 50 40h47z" />
    <glyph glyph-name="Umacron" unicode="&#x16a;" horiz-adv-x="833" 
d="M888 668c-27 0 -59 -10 -78 -27c-28 -25 -31 -32 -61 -135l-74 -279c-45 -169 -138 -242 -304 -242c-174 0 -283 86 -283 211c0 28 6 65 17 107l74 275c12 46 14 54 14 63c0 22 -9 27 -75 27h-23l7 54h376l-8 -54h-22c-42 0 -56 -4 -66 -14c-9 -8 -9 -8 -27 -76l-81 -304
c-11 -40 -15 -64 -15 -88c0 -88 55 -139 150 -139c93 0 164 48 206 207l67 252c21 79 22 86 22 107c0 38 -29 55 -90 55l7 54h274zM724 891l-21 -76h-334l21 76h334z" />
    <glyph glyph-name="umacron" unicode="&#x16b;" horiz-adv-x="685" 
d="M639 152c-78 -120 -136 -166 -212 -166c-64 0 -97 29 -97 85c0 8 0 16 1 26c-65 -78 -119 -111 -183 -111c-66 0 -110 44 -110 109c0 27 4 47 21 103l35 121c12 39 16 57 16 67c0 25 -12 31 -61 31h-10l7 47l253 14l-90 -304c-3 -8 -7 -24 -12 -41c-2 -7 -4 -15 -7 -24
c-1 -6 -2 -11 -2 -14c0 -13 12 -25 25 -25c26 0 74 39 110 89c30 41 52 88 68 140l48 165h158l-93 -312c-16 -56 -16 -56 -16 -67c0 -7 7 -14 14 -14c17 0 57 43 99 109zM589 668l-21 -76h-334l21 76h334z" />
    <glyph glyph-name="Ubreve" unicode="&#x16c;" horiz-adv-x="833" 
d="M888 668c-27 0 -59 -10 -78 -27c-28 -25 -31 -32 -61 -135l-74 -279c-45 -169 -138 -242 -304 -242c-174 0 -283 86 -283 211c0 28 6 65 17 107l74 275c12 46 14 54 14 63c0 22 -9 27 -75 27h-23l7 54h376l-8 -54h-22c-42 0 -56 -4 -66 -14c-9 -8 -9 -8 -27 -76l-81 -304
c-11 -40 -15 -64 -15 -88c0 -88 55 -139 150 -139c93 0 164 48 206 207l67 252c21 79 22 86 22 107c0 38 -29 55 -90 55l7 54h274zM748 927c-4 -33 -21 -65 -51 -92c-42 -38 -97 -56 -170 -56c-120 0 -181 61 -165 148h56c6 -54 42 -77 121 -77c74 0 137 31 152 77h57z" />
    <glyph glyph-name="ubreve" unicode="&#x16d;" horiz-adv-x="685" 
d="M639 152c-78 -120 -136 -166 -212 -166c-64 0 -97 29 -97 85c0 8 0 16 1 26c-65 -78 -119 -111 -183 -111c-66 0 -110 44 -110 109c0 27 4 47 21 103l35 121c12 39 16 57 16 67c0 25 -12 31 -61 31h-10l7 47l253 14l-90 -304c-3 -8 -7 -24 -12 -41c-2 -7 -4 -15 -7 -24
c-1 -6 -2 -11 -2 -14c0 -13 12 -25 25 -25c26 0 74 39 110 89c30 41 52 88 68 140l48 165h158l-93 -312c-16 -56 -16 -56 -16 -67c0 -7 7 -14 14 -14c17 0 57 43 99 109zM573 712c-3 -36 -17 -72 -42 -102c-35 -42 -81 -62 -142 -62c-88 0 -139 49 -139 135c0 6 1 16 2 29
h46c5 -60 35 -85 101 -85c62 0 114 34 127 85h47z" />
    <glyph glyph-name="Uring" unicode="&#x16e;" horiz-adv-x="833" 
d="M888 668c-27 0 -59 -10 -78 -27c-28 -25 -31 -32 -61 -135l-74 -279c-45 -169 -138 -242 -304 -242c-174 0 -283 86 -283 211c0 28 6 65 17 107l74 275c12 46 14 54 14 63c0 22 -9 27 -75 27h-23l7 54h376l-8 -54h-22c-42 0 -56 -4 -66 -14c-9 -8 -9 -8 -27 -76l-81 -304
c-11 -40 -15 -64 -15 -88c0 -88 55 -139 150 -139c93 0 164 48 206 207l67 252c21 79 22 86 22 107c0 38 -29 55 -90 55l7 54h274zM658 869c0 -60 -48 -108 -109 -108c-57 0 -106 49 -106 108c0 58 49 107 108 107s107 -48 107 -107zM604 869c0 29 -24 53 -53 53
c-30 0 -54 -24 -54 -54c0 -28 24 -53 53 -53c30 0 54 24 54 54z" />
    <glyph glyph-name="uring" unicode="&#x16f;" horiz-adv-x="685" 
d="M639 152c-78 -120 -136 -166 -212 -166c-64 0 -97 29 -97 85c0 8 0 16 1 26c-65 -78 -119 -111 -183 -111c-66 0 -110 44 -110 109c0 27 4 47 21 103l35 121c12 39 16 57 16 67c0 25 -12 31 -61 31h-10l7 47l253 14l-90 -304c-3 -8 -7 -24 -12 -41c-2 -7 -4 -15 -7 -24
c-1 -6 -2 -11 -2 -14c0 -13 12 -25 25 -25c26 0 74 39 110 89c30 41 52 88 68 140l48 165h158l-93 -312c-16 -56 -16 -56 -16 -67c0 -7 7 -14 14 -14c17 0 57 43 99 109zM519 631c0 -60 -48 -108 -109 -108c-57 0 -106 49 -106 108c0 58 49 107 108 107s107 -48 107 -107z
M465 631c0 29 -24 53 -53 53c-30 0 -54 -24 -54 -54c0 -28 24 -53 53 -53c30 0 54 24 54 54z" />
    <glyph glyph-name="Uhungarumlaut" unicode="&#x170;" horiz-adv-x="833" 
d="M888 668c-27 0 -59 -10 -78 -27c-28 -25 -31 -32 -61 -135l-74 -279c-45 -169 -138 -242 -304 -242c-174 0 -283 86 -283 211c0 28 6 65 17 107l74 275c12 46 14 54 14 63c0 22 -9 27 -75 27h-23l7 54h376l-8 -54h-22c-42 0 -56 -4 -66 -14c-9 -8 -9 -8 -27 -76l-81 -304
c-11 -40 -15 -64 -15 -88c0 -88 55 -139 150 -139c93 0 164 48 206 207l67 252c21 79 22 86 22 107c0 38 -29 55 -90 55l7 54h274zM639 905c0 -18 -12 -37 -28 -44l-166 -71h-54l123 122c40 41 47 45 71 45c30 0 54 -23 54 -52zM830 905c0 -18 -12 -37 -28 -44l-166 -71h-54
l123 122c40 41 47 45 71 45c30 0 54 -23 54 -52z" />
    <glyph glyph-name="uhungarumlaut" unicode="&#x171;" horiz-adv-x="685" 
d="M639 152c-78 -120 -136 -166 -212 -166c-64 0 -97 29 -97 85c0 8 0 16 1 26c-65 -78 -119 -111 -183 -111c-66 0 -110 44 -110 109c0 27 4 47 21 103l35 121c12 39 16 57 16 67c0 25 -12 31 -61 31h-10l7 47l253 14l-90 -304c-3 -8 -7 -24 -12 -41c-2 -7 -4 -15 -7 -24
c-1 -6 -2 -11 -2 -14c0 -13 12 -25 25 -25c26 0 74 39 110 89c30 41 52 88 68 140l48 165h158l-93 -312c-16 -56 -16 -56 -16 -67c0 -7 7 -14 14 -14c17 0 57 43 99 109zM498 662c0 -18 -12 -37 -28 -44l-166 -71h-54l123 122c40 41 47 45 71 45c30 0 54 -23 54 -52z
M689 662c0 -18 -12 -37 -28 -44l-166 -71h-54l123 122c40 41 47 45 71 45c30 0 54 -23 54 -52z" />
    <glyph glyph-name="Uogonek" unicode="&#x172;" horiz-adv-x="833" 
d="M888 668c-27 0 -59 -10 -78 -27c-28 -25 -31 -32 -61 -135l-74 -279c-40 -149 -116 -223 -247 -239c-36 -4 -61 -44 -61 -82c0 -27 18 -46 40 -46c27 0 49 6 70 23l28 -36c-30 -44 -81 -71 -130 -71c-54 0 -102 39 -102 102c0 50 31 84 61 108c-152 12 -246 94 -246 210
c0 28 6 65 17 107l74 275c12 46 14 54 14 63c0 22 -9 27 -75 27h-23l7 54h376l-8 -54h-22c-42 0 -56 -4 -66 -14c-9 -8 -9 -8 -27 -76l-81 -304c-11 -40 -15 -64 -15 -88c0 -88 55 -139 150 -139c93 0 164 48 206 207l67 252c21 79 22 86 22 107c0 38 -29 55 -90 55l7 54
h274z" />
    <glyph glyph-name="uogonek" unicode="&#x173;" horiz-adv-x="685" 
d="M557 -153c-30 -44 -81 -71 -130 -71c-54 0 -102 39 -102 102c0 53 34 88 66 112c-40 9 -61 37 -61 81c0 8 0 16 1 26c-65 -78 -119 -111 -183 -111c-66 0 -110 44 -110 109c0 27 4 47 21 103l35 121c12 39 16 57 16 67c0 25 -12 31 -61 31h-10l7 47l253 14l-90 -304
c-3 -8 -7 -24 -12 -41c-2 -7 -4 -15 -7 -24c-1 -6 -2 -11 -2 -14c0 -13 12 -25 25 -25c26 0 74 39 110 89c30 41 52 88 68 140l48 165h158l-93 -312c-16 -56 -16 -56 -16 -67c0 -7 7 -14 14 -14c17 0 57 43 99 109l38 -28c-58 -90 -106 -138 -158 -157
c-37 -13 -62 -53 -62 -89c0 -27 18 -46 40 -46c27 0 49 6 70 23z" />
    <glyph glyph-name="Wcircumflex" unicode="&#x174;" horiz-adv-x="944" 
d="M987 668c-62 -10 -88 -38 -132 -144l-233 -538h-66l-68 483l-222 -483h-66l-86 644c-4 30 -12 38 -54 38h-20l7 54h303l-7 -54h-20c-36 0 -40 -7 -40 -36l1 -16l44 -352l148 329l-3 30c-4 34 -20 45 -68 45h-16l7 54h311l-7 -54h-22c-34 0 -47 -8 -46 -28
c0 -6 1 -15 3 -27l47 -337l129 310c9 21 13 36 13 46c0 21 -22 36 -54 36h-18l7 54h235zM771 775h-70l-108 78l-152 -78h-80l188 157h122z" />
    <glyph glyph-name="wcircumflex" unicode="&#x175;" horiz-adv-x="833" 
d="M788 390c0 -73 -30 -176 -72 -251c-57 -100 -135 -154 -221 -154c-80 0 -133 42 -150 118c-63 -83 -122 -118 -202 -118c-78 0 -121 40 -121 110c0 28 4 47 20 103l36 121c12 41 16 57 16 67c0 25 -12 31 -62 31h-10l7 47l254 14l-90 -301c-9 -33 -14 -55 -14 -69
c0 -20 17 -37 36 -37c36 0 73 27 103 74c17 27 46 95 59 141l53 178h157l-69 -234c-23 -91 -24 -97 -24 -117c0 -29 26 -57 54 -57c33 0 74 30 105 75c38 57 61 119 61 165c0 19 -3 24 -44 61c-21 19 -29 35 -29 57c0 39 27 65 69 65c47 0 78 -36 78 -89zM622 543h-59
l-90 86l-126 -86h-67l157 174h101z" />
    <glyph glyph-name="Ycircumflex" unicode="&#x176;" horiz-adv-x="704" 
d="M770 668c-63 -2 -95 -24 -154 -101l-200 -260l-43 -163c-11 -42 -14 -54 -14 -63c0 -22 14 -27 80 -27h25l-7 -54h-389l7 54h19c42 0 66 4 76 14c9 8 9 8 27 76l43 163l-117 304c-17 45 -36 57 -85 57h-23l7 54h366l-7 -54h-43c-34 0 -44 -5 -44 -24c0 -8 2 -17 9 -34
l91 -231l159 210c11 14 17 30 17 43c0 23 -21 36 -57 36h-36l8 54h292zM659 775h-70l-108 78l-152 -78h-80l188 157h122z" />
    <glyph glyph-name="ycircumflex" unicode="&#x177;" horiz-adv-x="519" 
d="M492 417c0 -57 -59 -191 -147 -334c-60 -99 -114 -172 -164 -222c-41 -42 -87 -63 -141 -63c-64 0 -106 36 -106 91c0 43 29 73 71 73c40 0 69 -27 69 -64c0 -8 -1 -15 -6 -28c-1 -2 -1 -6 -1 -6c0 -5 6 -10 13 -10c27 0 75 39 110 88l29 40l-100 338
c-11 37 -16 45 -29 45c-18 0 -26 -17 -54 -107l-43 13c33 141 85 208 162 208c34 0 63 -18 78 -47c11 -21 28 -67 37 -99l56 -190c50 84 67 124 67 158c0 19 -3 27 -19 53c-15 22 -21 40 -21 59c0 38 30 66 71 66c42 0 68 -24 68 -62zM478 543h-59l-90 86l-126 -86h-67
l157 174h101z" />
    <glyph glyph-name="Ydieresis" unicode="&#x178;" horiz-adv-x="704" 
d="M770 668c-63 -2 -95 -24 -154 -101l-200 -260l-43 -163c-11 -42 -14 -54 -14 -63c0 -22 14 -27 80 -27h25l-7 -54h-389l7 54h19c42 0 66 4 76 14c9 8 9 8 27 76l43 163l-117 304c-17 45 -36 57 -85 57h-23l7 54h366l-7 -54h-43c-34 0 -44 -5 -44 -24c0 -8 2 -17 9 -34
l91 -231l159 210c11 14 17 30 17 43c0 23 -21 36 -57 36h-36l8 54h292zM452 854c0 -40 -32 -72 -72 -72c-39 0 -71 33 -71 72s32 71 72 71c39 0 71 -32 71 -71zM642 854c0 -40 -32 -72 -72 -72c-39 0 -71 33 -71 72s32 71 72 71c39 0 71 -32 71 -71z" />
    <glyph glyph-name="Zacute" unicode="&#x179;" horiz-adv-x="704" 
d="M652 260l-70 -260h-611l8 54l507 614h-79c-129 0 -211 -56 -290 -200l-49 10l66 244h581l-8 -54l-510 -614h91c144 0 234 63 313 219zM612 889c0 -17 -12 -30 -34 -39l-199 -80h-65l149 126c40 34 56 40 84 40c36 0 65 -21 65 -47z" />
    <glyph glyph-name="zacute" unicode="&#x17a;" horiz-adv-x="519" 
d="M460 153c-34 -108 -106 -168 -201 -168c-53 0 -81 10 -173 64c-11 6 -16 8 -21 8c-9 0 -14 -9 -14 -29c-1 -26 -15 -43 -38 -43c-18 0 -32 15 -32 34c0 25 21 60 66 112c57 64 101 99 177 140c48 25 80 41 83 43c6 4 24 15 43 28c-30 -10 -52 -14 -82 -14
c-23 0 -33 1 -90 10c-30 5 -44 7 -56 7c-32 0 -41 -8 -64 -59l-42 15c41 118 108 178 198 178c40 0 74 -11 134 -43c24 -13 37 -18 44 -18c10 0 15 8 21 32c6 20 14 29 28 29c16 0 30 -15 30 -33c0 -36 -43 -99 -113 -166c-47 -44 -66 -56 -184 -117
c-28 -14 -39 -21 -64 -37c46 8 66 10 90 10c31 0 60 -5 95 -15c47 -14 47 -14 55 -14c26 0 46 19 66 62zM459 670c0 -19 -10 -34 -28 -44l-166 -88h-54l124 139c34 37 46 45 70 45c30 0 54 -23 54 -52z" />
    <glyph glyph-name="Zdotaccent" unicode="&#x17b;" horiz-adv-x="704" 
d="M652 260l-70 -260h-611l8 54l507 614h-79c-129 0 -211 -56 -290 -200l-49 10l66 244h581l-8 -54l-510 -614h91c144 0 234 63 313 219zM532 854c0 -40 -32 -72 -72 -72c-39 0 -71 33 -71 72s32 71 72 71c39 0 71 -32 71 -71z" />
    <glyph glyph-name="zdotaccent" unicode="&#x17c;" horiz-adv-x="519" 
d="M460 153c-34 -108 -106 -168 -201 -168c-53 0 -81 10 -173 64c-11 6 -16 8 -21 8c-9 0 -14 -9 -14 -29c-1 -26 -15 -43 -38 -43c-18 0 -32 15 -32 34c0 25 21 60 66 112c57 64 101 99 177 140c48 25 80 41 83 43c6 4 24 15 43 28c-30 -10 -52 -14 -82 -14
c-23 0 -33 1 -90 10c-30 5 -44 7 -56 7c-32 0 -41 -8 -64 -59l-42 15c41 118 108 178 198 178c40 0 74 -11 134 -43c24 -13 37 -18 44 -18c10 0 15 8 21 32c6 20 14 29 28 29c16 0 30 -15 30 -33c0 -36 -43 -99 -113 -166c-47 -44 -66 -56 -184 -117
c-28 -14 -39 -21 -64 -37c46 8 66 10 90 10c31 0 60 -5 95 -15c47 -14 47 -14 55 -14c26 0 46 19 66 62zM404 631c0 -40 -32 -72 -72 -72c-39 0 -71 33 -71 72s32 71 72 71c39 0 71 -32 71 -71z" />
    <glyph glyph-name="Zcaron" unicode="&#x17d;" horiz-adv-x="704" 
d="M652 260l-70 -260h-611l8 54l507 614h-79c-129 0 -211 -56 -290 -200l-49 10l66 244h581l-8 -54l-510 -614h91c144 0 234 63 313 219zM686 932l-188 -157h-122l-100 157h70l108 -78l152 78h80z" />
    <glyph glyph-name="zcaron" unicode="&#x17e;" horiz-adv-x="519" 
d="M460 153c-34 -108 -106 -168 -201 -168c-53 0 -81 10 -173 64c-11 6 -16 8 -21 8c-9 0 -14 -9 -14 -29c-1 -26 -15 -43 -38 -43c-18 0 -32 15 -32 34c0 25 21 60 66 112c57 64 101 99 177 140c48 25 80 41 83 43c6 4 24 15 43 28c-30 -10 -52 -14 -82 -14
c-23 0 -33 1 -90 10c-30 5 -44 7 -56 7c-32 0 -41 -8 -64 -59l-42 15c41 118 108 178 198 178c40 0 74 -11 134 -43c24 -13 37 -18 44 -18c10 0 15 8 21 32c6 20 14 29 28 29c16 0 30 -15 30 -33c0 -36 -43 -99 -113 -166c-47 -44 -66 -56 -184 -117
c-28 -14 -39 -21 -64 -37c46 8 66 10 90 10c31 0 60 -5 95 -15c47 -14 47 -14 55 -14c26 0 46 19 66 62zM517 718l-157 -176h-102l-84 176h59l90 -88l126 88h68z" />
    <glyph glyph-name="longs" unicode="&#x17f;" horiz-adv-x="389" 
d="M550 627c0 -46 -33 -79 -78 -79c-39 0 -68 28 -68 66c0 20 4 31 24 57c3 3 5 9 5 9c0 6 -10 10 -22 10c-48 0 -70 -39 -106 -185c-26 -103 -47 -211 -71 -316c-30 -141 -66 -272 -101 -368l-181 -26c28 44 69 163 117 338l64 270h-99l17 61h98c27 97 52 150 92 194
c50 54 105 79 172 79c80 0 137 -46 137 -110z" />
    <glyph glyph-name="Ereversed" unicode="&#x18e;" horiz-adv-x="741" 
d="M795 722l-20 -54h-19c-65 0 -82 -5 -94 -27c-5 -9 -11 -28 -21 -63l-127 -476c-11 -42 -4 -48 56 -48h14l-21 -54h-643l66 248l58 11c-4 -132 69 -205 181 -205h36c38 0 58 7 68 25c4 6 8 19 11 32l63 236h-32c-63 0 -101 -32 -135 -97c-10 -18 -17 -32 -29 -62l-56 -7
l89 335l57 7c-14 -89 3 -122 90 -122h31l59 219c11 39 4 48 -37 48h-38c-119 0 -181 -46 -261 -191h-52l91 245h615z" />
    <glyph glyph-name="florin" unicode="&#x192;" horiz-adv-x="574" 
d="M588 649c0 -45 -30 -76 -72 -76c-37 0 -62 23 -62 57c0 17 3 23 20 43c2 3 4 9 4 12s-5 6 -11 6c-14 0 -30 -10 -39 -25c-15 -25 -21 -48 -33 -129l-14 -91h137l-8 -57h-139l-16 -91l-41 -215c-38 -183 -125 -287 -240 -287c-60 0 -101 35 -101 85c0 45 33 79 77 79
c33 0 57 -21 57 -50c0 -17 -8 -39 -18 -50c-7 -7 -8 -10 -8 -10c0 -5 6 -9 14 -9c25 0 45 23 55 63c8 30 10 37 21 109l27 166l34 210h-118l9 57h121c21 93 39 142 71 190c42 63 107 101 170 101c61 0 103 -36 103 -88z" />
    <glyph glyph-name="Ohorn" unicode="&#x1a0;" horiz-adv-x="833" 
d="M797 441c0 -248 -208 -456 -455 -456c-185 0 -306 119 -306 301c0 249 214 451 454 451c61 0 115 -13 161 -41c11 7 20 16 26 26c-39 11 -56 41 -56 71c0 36 31 58 65 58c50 0 84 -39 84 -82c0 -41 -28 -84 -72 -107c64 -64 99 -131 99 -221zM533 196
c49 95 80 219 80 324c0 101 -47 163 -126 163c-75 0 -135 -50 -187 -155c-49 -100 -85 -241 -85 -335c0 -95 49 -154 127 -154c72 0 135 51 191 157z" />
    <glyph glyph-name="ohorn" unicode="&#x1a1;" horiz-adv-x="574" 
d="M609 531c0 -44 -51 -109 -102 -132c21 -30 33 -69 33 -114c0 -169 -139 -299 -320 -299c-133 0 -210 82 -210 201c0 158 144 292 314 292c53 0 105 -16 144 -42c12 7 42 36 48 47c-39 11 -56 41 -56 71c0 36 31 58 65 58c50 0 84 -39 84 -82zM335 134
c28 70 50 168 50 220c0 47 -26 78 -65 78c-85 0 -155 -187 -155 -324c0 -50 24 -79 64 -79c43 0 78 35 106 105z" />
    <glyph glyph-name="Uhorn" unicode="&#x1af;" horiz-adv-x="833" 
d="M933 770c0 -67 -63 -119 -148 -130l-110 -413c-45 -169 -138 -242 -304 -242c-174 0 -283 86 -283 211c0 28 6 65 17 107l74 275c12 46 14 54 14 63c0 22 -14 27 -80 27h-18l7 54h376l-8 -54h-12c-42 0 -66 -4 -76 -14c-9 -8 -9 -8 -27 -76l-81 -304
c-11 -40 -15 -64 -15 -88c0 -88 55 -139 150 -139c93 0 164 48 206 207l67 252c21 79 22 86 22 107c0 38 -29 55 -90 55l7 54h186l-9 -33c19 8 33 19 42 34c-39 11 -56 41 -56 71c0 36 31 58 65 58c50 0 84 -39 84 -82z" />
    <glyph glyph-name="uhorn" unicode="&#x1b0;" horiz-adv-x="690" 
d="M756 531c0 -68 -94 -142 -184 -151l-68 -228c-17 -56 -16 -56 -16 -67c0 -7 7 -14 14 -14c17 0 57 43 99 109l38 -28c-78 -120 -136 -166 -212 -166c-64 0 -97 29 -97 85c0 8 0 16 1 26c-65 -78 -119 -111 -183 -111c-66 0 -110 44 -110 109c-1 27 5 47 21 103l35 121
c11 39 16 57 16 67c0 25 -12 31 -61 31h-10l7 61h253l-90 -304c-5 -12 -21 -56 -21 -79c0 -13 12 -25 25 -25c54 0 143 115 178 229l48 165h158l-11 -35c22 7 68 39 77 55c-39 11 -56 41 -56 71c0 36 31 58 65 58c50 0 84 -39 84 -82z" />
    <glyph glyph-name="Acaron" unicode="&#x1cd;" horiz-adv-x="741" 
d="M709 0h-374l7 54h16c41 0 52 1 66 8c10 4 17 14 17 23c0 7 -1 18 -4 32l-20 103h-232l-46 -81c-9 -15 -14 -31 -14 -43c0 -29 15 -42 71 -42h23l-8 -54h-286l7 54h16c44 0 85 39 123 103l348 579h62l131 -622c10 -47 29 -60 90 -60h14zM404 274l-46 241l-141 -241h187z
M707 932l-188 -157h-122l-100 157h70l108 -78l152 78h80z" />
    <glyph glyph-name="acaron" unicode="&#x1ce;" horiz-adv-x="667" 
d="M646 157c-60 -101 -139 -172 -210 -172c-55 0 -85 35 -85 88c-48 -62 -94 -87 -163 -87c-101 0 -173 75 -173 181c0 162 138 312 286 312c59 0 101 -21 125 -63l14 48h157l-98 -332c-10 -39 -10 -39 -10 -46c0 -8 7 -16 14 -16c17 0 67 54 104 112zM395 351
c0 43 -25 73 -62 73c-82 0 -155 -175 -155 -289c0 -48 24 -79 61 -79c83 0 156 193 156 295zM573 718l-157 -176h-102l-84 176h59l90 -88l126 88h68z" />
    <glyph glyph-name="Icaron" unicode="&#x1cf;" horiz-adv-x="444" 
d="M332 0h-373l7 54h20c42 0 53 4 63 14c9 8 9 8 27 76l116 434c10 34 14 54 14 63c0 22 -14 27 -79 27h-22l8 54h373l-7 -54h-21c-42 0 -52 -4 -62 -14c-9 -7 -9 -7 -27 -76l-116 -434c-14 -55 -14 -55 -14 -63c0 -22 14 -27 79 -27h22zM580 932l-188 -157h-122l-100 157
h70l108 -78l152 78h80z" />
    <glyph glyph-name="icaron" unicode="&#x1d0;" horiz-adv-x="389" 
d="M353 149c-68 -114 -131 -164 -207 -164c-60 0 -104 38 -104 90c0 19 2 30 15 74l51 170c11 37 15 56 15 67c0 25 -12 31 -61 31h-24l7 47l267 14l-105 -356c-9 -31 -10 -34 -10 -42c0 -9 7 -16 16 -16c20 0 53 37 101 113zM454 718l-157 -176h-102l-84 176h59l90 -88
l126 88h68z" />
    <glyph glyph-name="Ocaron" unicode="&#x1d1;" horiz-adv-x="833" 
d="M797 441c0 -248 -208 -456 -455 -456c-185 0 -306 119 -306 301c0 249 214 451 454 451c173 0 307 -130 307 -296zM533 196c49 94 80 219 80 324c0 101 -47 163 -126 163c-75 0 -135 -50 -187 -155c-49 -100 -85 -241 -85 -335c0 -95 49 -154 127 -154
c72 0 135 51 191 157zM774 932l-188 -157h-122l-100 157h70l108 -78l152 78h80z" />
    <glyph glyph-name="ocaron" unicode="&#x1d2;" horiz-adv-x="574" 
d="M540 285c0 -169 -139 -299 -320 -299c-63 0 -115 18 -150 51c-37 34 -60 92 -60 150c0 158 144 292 314 292c61 0 121 -20 160 -54c36 -31 56 -80 56 -140zM335 134c28 70 50 168 50 220c0 47 -26 78 -65 78c-43 0 -80 -38 -110 -110c-26 -63 -45 -154 -45 -214
c0 -50 24 -79 64 -79c43 0 79 35 106 105zM563 718l-157 -176h-102l-84 176h59l90 -88l126 88h68z" />
    <glyph glyph-name="Ucaron" unicode="&#x1d3;" horiz-adv-x="833" 
d="M888 668c-27 0 -59 -10 -78 -27c-28 -25 -31 -32 -61 -135l-74 -279c-45 -169 -138 -242 -304 -242c-174 0 -283 86 -283 211c0 28 6 65 17 107l74 275c12 46 14 54 14 63c0 22 -9 27 -75 27h-23l7 54h376l-8 -54h-22c-42 0 -56 -4 -66 -14c-9 -8 -9 -8 -27 -76l-81 -304
c-11 -40 -15 -64 -15 -88c0 -88 55 -139 150 -139c93 0 164 48 206 207l67 252c21 79 22 86 22 107c0 38 -29 55 -90 55l7 54h274zM773 932l-188 -157h-122l-100 157h70l108 -78l152 78h80z" />
    <glyph glyph-name="ucaron" unicode="&#x1d4;" horiz-adv-x="685" 
d="M639 152c-78 -120 -136 -166 -212 -166c-64 0 -97 29 -97 85c0 8 0 16 1 26c-65 -78 -119 -111 -183 -111c-66 0 -110 44 -110 109c0 27 4 47 21 103l35 121c12 39 16 57 16 67c0 25 -12 31 -61 31h-10l7 47l253 14l-90 -304c-3 -8 -7 -24 -12 -41c-2 -7 -4 -15 -7 -24
c-1 -6 -2 -11 -2 -14c0 -13 12 -25 25 -25c26 0 74 39 110 89c30 41 52 88 68 140l48 165h158l-93 -312c-16 -56 -16 -56 -16 -67c0 -7 7 -14 14 -14c17 0 57 43 99 109zM596 718l-157 -176h-102l-84 176h59l90 -88l126 88h68z" />
    <glyph glyph-name="Udieresisacute" unicode="&#x1d7;" horiz-adv-x="833" 
d="M888 668c-27 0 -59 -10 -78 -27c-28 -25 -31 -32 -61 -135l-74 -279c-45 -169 -138 -242 -304 -242c-174 0 -283 86 -283 211c0 28 6 65 17 107l74 275c12 46 14 54 14 63c0 22 -9 27 -75 27h-23l7 54h376l-8 -54h-22c-42 0 -56 -4 -66 -14c-9 -8 -9 -8 -27 -76l-81 -304
c-11 -40 -15 -64 -15 -88c0 -88 55 -139 150 -139c93 0 164 48 206 207l67 252c21 79 22 86 22 107c0 38 -29 55 -90 55l7 54h274zM524 854c0 -40 -32 -72 -72 -72c-39 0 -71 33 -71 72s32 71 72 71c39 0 71 -32 71 -71zM714 854c0 -40 -32 -72 -72 -72c-39 0 -71 33 -71 72
s32 71 72 71c39 0 71 -32 71 -71zM753 1092c0 -17 -12 -30 -34 -39l-199 -80h-65l149 126c40 34 56 40 84 40c36 0 65 -21 65 -47z" />
    <glyph glyph-name="udieresisacute" unicode="&#x1d8;" horiz-adv-x="685" 
d="M639 152c-78 -120 -136 -166 -212 -166c-64 0 -97 29 -97 85c0 8 0 16 1 26c-65 -78 -119 -111 -183 -111c-66 0 -110 44 -110 109c0 27 4 47 21 103l35 121c12 39 16 57 16 67c0 25 -12 31 -61 31h-10l7 47l253 14l-90 -304c-3 -8 -7 -24 -12 -41c-2 -7 -4 -15 -7 -24
c-1 -6 -2 -11 -2 -14c0 -13 12 -25 25 -25c26 0 74 39 110 89c30 41 52 88 68 140l48 165h158l-93 -312c-16 -56 -16 -56 -16 -67c0 -7 7 -14 14 -14c17 0 57 43 99 109zM388 631c0 -40 -32 -72 -72 -72c-39 0 -71 33 -71 72s32 71 72 71c39 0 71 -32 71 -71zM578 631
c0 -40 -32 -72 -72 -72c-39 0 -71 33 -71 72s32 71 72 71c39 0 71 -32 71 -71zM613 852c0 -17 -12 -30 -34 -39l-199 -80h-65l149 126c40 34 56 40 84 40c36 0 65 -21 65 -47z" />
    <glyph glyph-name="Udieresiscaron" unicode="&#x1d9;" horiz-adv-x="833" 
d="M888 668c-27 0 -59 -10 -78 -27c-28 -25 -31 -32 -61 -135l-74 -279c-45 -169 -138 -242 -304 -242c-174 0 -283 86 -283 211c0 28 6 65 17 107l74 275c12 46 14 54 14 63c0 22 -9 27 -75 27h-23l7 54h376l-8 -54h-22c-42 0 -56 -4 -66 -14c-9 -8 -9 -8 -27 -76l-81 -304
c-11 -40 -15 -64 -15 -88c0 -88 55 -139 150 -139c93 0 164 48 206 207l67 252c21 79 22 86 22 107c0 38 -29 55 -90 55l7 54h274zM524 854c0 -40 -32 -72 -72 -72c-39 0 -71 33 -71 72s32 71 72 71c39 0 71 -32 71 -71zM714 854c0 -40 -32 -72 -72 -72c-39 0 -71 33 -71 72
s32 71 72 71c39 0 71 -32 71 -71zM827 1135l-188 -157h-122l-100 157h70l108 -78l152 78h80z" />
    <glyph glyph-name="udieresiscaron" unicode="&#x1da;" horiz-adv-x="685" 
d="M639 152c-78 -120 -136 -166 -212 -166c-64 0 -97 29 -97 85c0 8 0 16 1 26c-65 -78 -119 -111 -183 -111c-66 0 -110 44 -110 109c0 27 4 47 21 103l35 121c12 39 16 57 16 67c0 25 -12 31 -61 31h-10l7 47l253 14l-90 -304c-3 -8 -7 -24 -12 -41c-2 -7 -4 -15 -7 -24
c-1 -6 -2 -11 -2 -14c0 -13 12 -25 25 -25c26 0 74 39 110 89c30 41 52 88 68 140l48 165h158l-93 -312c-16 -56 -16 -56 -16 -67c0 -7 7 -14 14 -14c17 0 57 43 99 109zM388 631c0 -40 -32 -72 -72 -72c-39 0 -71 33 -71 72s32 71 72 71c39 0 71 -32 71 -71zM578 631
c0 -40 -32 -72 -72 -72c-39 0 -71 33 -71 72s32 71 72 71c39 0 71 -32 71 -71zM687 895l-188 -157h-122l-100 157h70l108 -78l152 78h80z" />
    <glyph glyph-name="Udieresisgrave" unicode="&#x1db;" horiz-adv-x="833" 
d="M888 668c-27 0 -59 -10 -78 -27c-28 -25 -31 -32 -61 -135l-74 -279c-45 -169 -138 -242 -304 -242c-174 0 -283 86 -283 211c0 28 6 65 17 107l74 275c12 46 14 54 14 63c0 22 -9 27 -75 27h-23l7 54h376l-8 -54h-22c-42 0 -56 -4 -66 -14c-9 -8 -9 -8 -27 -76l-81 -304
c-11 -40 -15 -64 -15 -88c0 -88 55 -139 150 -139c93 0 164 48 206 207l67 252c21 79 22 86 22 107c0 38 -29 55 -90 55l7 54h274zM524 854c0 -40 -32 -72 -72 -72c-39 0 -71 33 -71 72s32 71 72 71c39 0 71 -32 71 -71zM714 854c0 -40 -32 -72 -72 -72c-39 0 -71 33 -71 72
s32 71 72 71c39 0 71 -32 71 -71zM702 973h-65l-156 80c-17 9 -22 22 -13 39c14 26 54 47 90 47c28 0 41 -6 63 -40z" />
    <glyph glyph-name="udieresisgrave" unicode="&#x1dc;" horiz-adv-x="685" 
d="M639 152c-78 -120 -136 -166 -212 -166c-64 0 -97 29 -97 85c0 8 0 16 1 26c-65 -78 -119 -111 -183 -111c-66 0 -110 44 -110 109c0 27 4 47 21 103l35 121c12 39 16 57 16 67c0 25 -12 31 -61 31h-10l7 47l253 14l-90 -304c-3 -8 -7 -24 -12 -41c-2 -7 -4 -15 -7 -24
c-1 -6 -2 -11 -2 -14c0 -13 12 -25 25 -25c26 0 74 39 110 89c30 41 52 88 68 140l48 165h158l-93 -312c-16 -56 -16 -56 -16 -67c0 -7 7 -14 14 -14c17 0 57 43 99 109zM388 631c0 -40 -32 -72 -72 -72c-39 0 -71 33 -71 72s32 71 72 71c39 0 71 -32 71 -71zM578 631
c0 -40 -32 -72 -72 -72c-39 0 -71 33 -71 72s32 71 72 71c39 0 71 -32 71 -71zM562 733h-65l-156 80c-17 9 -22 22 -13 39c14 26 54 47 90 47c28 0 41 -6 63 -40z" />
    <glyph glyph-name="eturned" unicode="&#x1dd;" horiz-adv-x="519" 
d="M475 294c0 -164 -148 -308 -316 -308c-94 0 -164 52 -164 121c0 70 56 120 170 153c47 14 90 21 149 24c2 26 2 32 2 44c0 57 -33 92 -86 92c-52 0 -92 -21 -152 -81l-35 35c63 71 137 105 228 105c132 0 204 -65 204 -185zM305 237c-33 -5 -50 -9 -70 -16
c-68 -26 -118 -86 -118 -141c0 -29 17 -47 44 -47c62 0 121 82 144 204z" />
    <glyph glyph-name="Gcaron" unicode="&#x1e6;" horiz-adv-x="815" 
d="M795 282h-20c-76 0 -69 -11 -93 -90l-55 -206h-48l-19 95c-54 -65 -122 -96 -213 -96c-166 0 -313 106 -313 299c0 245 207 453 451 453c83 0 131 -21 185 -80l60 58h45l-57 -283l-51 7c-3 146 -56 244 -169 244c-79 0 -146 -51 -200 -152c-45 -84 -76 -209 -76 -302
c0 -115 47 -192 141 -192c63 0 117 44 141 115c10 30 24 89 24 103c0 23 -12 27 -77 27h-28l7 54h372zM774 932l-188 -157h-122l-100 157h70l108 -78l152 78h80z" />
    <glyph glyph-name="gcaron" unicode="&#x1e7;" horiz-adv-x="611" 
d="M602 466c0 -34 -22 -58 -53 -58c-24 0 -39 13 -50 43c-5 12 -10 17 -17 17c-11 0 -21 -7 -34 -24c51 -30 79 -76 79 -130c0 -91 -88 -157 -210 -157c-19 0 -82 5 -117 10c-15 2 -27 3 -34 3c-27 0 -47 -14 -47 -31c0 -21 15 -31 49 -34c90 -9 154 -17 178 -22
c73 -17 104 -53 104 -118c0 -108 -98 -167 -278 -167c-151 0 -238 41 -238 111c0 50 40 81 126 97c-45 24 -60 45 -60 80c0 53 42 95 120 120c-36 30 -51 58 -51 98c0 103 93 175 227 175c39 0 67 -4 103 -16c49 49 88 70 131 70s72 -27 72 -67zM353 253c16 32 26 75 26 108
c0 41 -26 71 -62 71c-28 0 -50 -15 -66 -43c-18 -32 -29 -74 -29 -112c0 -45 25 -72 65 -72c28 0 51 16 66 48zM329 -85c0 24 -13 37 -44 45c-24 6 -101 13 -144 13c-56 0 -84 -19 -84 -58c0 -46 41 -70 120 -70c99 0 152 24 152 70zM521 718l-157 -176h-102l-84 176h59
l90 -88l126 88h68z" />
    <glyph glyph-name="Oogonek" unicode="&#x1ea;" horiz-adv-x="833" 
d="M797 441c0 -216 -157 -401 -361 -446c-40 -9 -69 -50 -69 -89c0 -27 18 -46 40 -46c27 0 49 6 70 23l28 -36c-30 -44 -81 -71 -130 -71c-54 0 -102 39 -102 102c0 49 30 83 59 107c-179 4 -296 122 -296 301c0 249 214 451 454 451c173 0 307 -130 307 -296zM533 196
c49 94 80 219 80 324c0 101 -47 163 -126 163c-75 0 -135 -50 -187 -155c-49 -100 -85 -241 -85 -335c0 -95 49 -154 127 -154c72 0 135 51 191 157z" />
    <glyph glyph-name="oogonek" unicode="&#x1eb;" horiz-adv-x="574" 
d="M540 285c0 -140 -96 -254 -232 -288c-40 -10 -71 -52 -71 -91c0 -27 18 -46 40 -46c27 0 49 6 70 23l28 -36c-30 -44 -81 -71 -130 -71c-54 0 -102 39 -102 102c0 50 31 84 61 108c-56 3 -102 21 -134 51c-37 34 -60 92 -60 150c0 158 144 292 314 292
c61 0 121 -20 160 -54c36 -31 56 -80 56 -140zM335 134c28 70 50 168 50 220c0 47 -26 78 -65 78c-43 0 -80 -38 -110 -110c-26 -63 -45 -154 -45 -214c0 -50 24 -79 64 -79c43 0 79 35 106 105z" />
    <glyph glyph-name="jcaron" unicode="&#x1f0;" horiz-adv-x="370" 
d="M359 478l-119 -403c-31 -103 -47 -140 -86 -187c-47 -59 -109 -90 -178 -90c-84 0 -146 47 -146 112c0 49 32 83 78 83s74 -29 74 -75c0 -26 -5 -35 -28 -49c-4 -2 -6 -6 -6 -10c0 -7 7 -12 17 -12c39 0 60 34 95 153l95 319c11 38 15 56 15 67c0 25 -12 31 -61 31h-32
l7 47zM499 718l-157 -176h-102l-84 176h59l90 -88l126 88h68z" />
    <glyph glyph-name="Gacute" unicode="&#x1f4;" horiz-adv-x="815" 
d="M795 282h-20c-76 0 -69 -11 -93 -90l-55 -206h-48l-19 95c-54 -65 -122 -96 -213 -96c-166 0 -313 106 -313 299c0 245 207 453 451 453c83 0 131 -21 185 -80l60 58h45l-57 -283l-51 7c-3 146 -56 244 -169 244c-79 0 -146 -51 -200 -152c-45 -84 -76 -209 -76 -302
c0 -115 47 -192 141 -192c63 0 117 44 141 115c10 30 24 89 24 103c0 23 -12 27 -77 27h-28l7 54h372zM700 889c0 -17 -12 -30 -34 -39l-199 -80h-65l149 126c40 34 56 40 84 40c36 0 65 -21 65 -47z" />
    <glyph glyph-name="gacute" unicode="&#x1f5;" horiz-adv-x="611" 
d="M602 466c0 -34 -22 -58 -53 -58c-24 0 -39 13 -50 43c-5 12 -10 17 -17 17c-11 0 -21 -7 -34 -24c51 -30 79 -76 79 -130c0 -91 -88 -157 -210 -157c-19 0 -82 5 -117 10c-15 2 -27 3 -34 3c-27 0 -47 -14 -47 -31c0 -21 15 -31 49 -34c90 -9 154 -17 178 -22
c73 -17 104 -53 104 -118c0 -108 -98 -167 -278 -167c-151 0 -238 41 -238 111c0 50 40 81 126 97c-45 24 -60 45 -60 80c0 53 42 95 120 120c-36 30 -51 58 -51 98c0 103 93 175 227 175c39 0 67 -4 103 -16c49 49 88 70 131 70s72 -27 72 -67zM353 253c16 32 26 75 26 108
c0 41 -26 71 -62 71c-28 0 -50 -15 -66 -43c-18 -32 -29 -74 -29 -112c0 -45 25 -72 65 -72c28 0 51 16 66 48zM329 -85c0 24 -13 37 -44 45c-24 6 -101 13 -144 13c-56 0 -84 -19 -84 -58c0 -46 41 -70 120 -70c99 0 152 24 152 70zM463 670c0 -19 -10 -34 -28 -44
l-166 -88h-54l124 139c34 37 46 45 70 45c30 0 54 -23 54 -52z" />
    <glyph glyph-name="Aringacute" unicode="&#x1fa;" horiz-adv-x="741" 
d="M709 0h-374l7 54h16c41 0 52 1 66 8c10 4 17 14 17 23c0 7 -1 18 -4 32l-20 103h-232l-46 -81c-9 -15 -14 -31 -14 -43c0 -29 15 -42 71 -42h23l-8 -54h-286l7 54h16c44 0 85 39 123 103l348 579h62l131 -622c10 -47 29 -60 90 -60h14zM404 274l-46 241l-141 -241h187z
M693 1115c0 -17 -12 -30 -34 -39l-199 -80h-65l149 126c40 34 56 40 84 40c36 0 65 -21 65 -47zM592 869c0 -60 -48 -108 -109 -108c-57 0 -106 49 -106 108c0 58 49 107 108 107s107 -48 107 -107zM538 869c0 29 -24 53 -53 53c-30 0 -54 -24 -54 -54c0 -28 24 -53 53 -53
c30 0 54 24 54 54z" />
    <glyph glyph-name="aringacute" unicode="&#x1fb;" horiz-adv-x="667" 
d="M646 157c-60 -101 -139 -172 -210 -172c-55 0 -85 35 -85 88c-48 -62 -94 -87 -163 -87c-101 0 -173 75 -173 181c0 162 138 312 286 312c59 0 101 -21 125 -63l14 48h157l-98 -332c-10 -39 -10 -39 -10 -46c0 -8 7 -16 14 -16c17 0 67 54 104 112zM395 351
c0 43 -25 73 -62 73c-82 0 -155 -175 -155 -289c0 -48 24 -79 61 -79c83 0 156 193 156 295zM595 872c0 -17 -12 -30 -34 -39l-199 -80h-65l149 126c40 34 56 40 84 40c36 0 65 -21 65 -47zM494 626c0 -60 -48 -108 -109 -108c-57 0 -106 49 -106 108c0 58 49 107 108 107
s107 -48 107 -107zM440 626c0 29 -24 53 -53 53c-30 0 -54 -24 -54 -54c0 -28 24 -53 53 -53c30 0 54 24 54 54z" />
    <glyph glyph-name="AEacute" unicode="&#x1fc;" horiz-adv-x="889" 
d="M784 0h-594l8 54h24c42 0 46 4 56 14c7 8 9 8 27 76l34 127h-171l-91 -145c-8 -13 -12 -24 -12 -34c0 -26 24 -37 80 -38l-7 -54h-219l7 54c28 6 37 16 71 68l294 450c14 21 20 37 20 52c0 27 -28 44 -72 44h-31l7 54h688l-40 -245h-49c0 72 -5 101 -18 127
c-21 42 -63 64 -120 64h-11c-34 0 -47 -10 -57 -48l-58 -219h39c63 0 92 39 123 122l47 -7l-90 -335l-47 7c5 29 6 44 6 62c0 66 -21 97 -61 97h-32l-63 -236c-3 -12 -5 -23 -5 -32c0 -16 16 -25 47 -25h12c106 0 217 83 275 205l49 -11zM442 657c1 2 1 4 1 4c0 3 -5 6 -9 6
c-5 0 -9 -3 -13 -9l-216 -333h148zM735 889c0 -17 -12 -30 -34 -39l-199 -80h-65l149 126c40 34 56 40 84 40c36 0 65 -21 65 -47z" />
    <glyph glyph-name="aeacute" unicode="&#x1fd;" horiz-adv-x="815" 
d="M726 91c-64 -72 -137 -106 -231 -106s-154 38 -176 113c-43 -75 -110 -113 -201 -113c-86 0 -137 39 -137 105c0 93 84 142 343 174c13 50 17 70 17 96c0 44 -38 72 -96 72c-30 0 -51 -7 -51 -17s29 -44 29 -61c0 -36 -33 -64 -77 -64s-78 33 -78 76c0 67 71 113 173 113
c87 0 138 -20 180 -69c50 42 124 69 193 69c90 0 160 -53 160 -121c0 -89 -109 -166 -318 -177c-3 -23 -3 -31 -3 -45c0 -57 33 -92 86 -92c52 0 94 22 152 82zM311 214c-111 -10 -172 -47 -172 -105c0 -31 22 -53 51 -53c31 0 63 20 87 57c12 19 19 41 34 101zM652 385
c0 29 -17 47 -43 47c-63 0 -121 -82 -145 -204c101 14 188 77 188 157zM703 670c0 -19 -10 -34 -28 -44l-166 -88h-54l124 139c34 37 46 45 70 45c30 0 54 -23 54 -52z" />
    <glyph glyph-name="Oslashacute" unicode="&#x1fe;" horiz-adv-x="833" 
d="M797 441c0 -247 -208 -456 -453 -456c-65 0 -128 15 -172 42l-90 -110h-65l114 140c-62 54 -95 135 -95 229c0 245 205 451 449 451c64 0 119 -13 167 -40l61 76h65l-86 -106c69 -60 105 -137 105 -226zM591 623c-22 38 -60 59 -104 59c-74 0 -135 -51 -187 -154
c-48 -99 -85 -240 -85 -331c0 -10 1 -22 2 -34zM533 197c48 92 80 219 80 317c0 18 -1 30 -3 52l-376 -462c22 -42 59 -64 107 -64c74 0 136 51 192 157zM797 889c0 -17 -12 -30 -34 -39l-199 -80h-65l149 126c40 34 56 40 84 40c36 0 65 -21 65 -47z" />
    <glyph glyph-name="oslashacute" unicode="&#x1ff;" horiz-adv-x="574" 
d="M540 285c0 -169 -139 -299 -319 -299c-19 0 -34 1 -54 4l-67 -116h-54l74 130c-70 31 -110 97 -110 183c0 155 144 291 309 291c21 0 41 -2 69 -7l61 107h54l-70 -121c70 -31 107 -90 107 -172zM358 419c-12 8 -25 12 -39 12c-41 0 -79 -38 -109 -109
c-26 -63 -45 -155 -45 -214c0 -6 1 -12 2 -22zM335 133c28 70 50 168 50 220c0 3 0 8 -1 17l-190 -332c10 -6 20 -9 34 -9c45 0 80 34 107 104zM582 670c0 -19 -10 -34 -28 -44l-166 -88h-54l124 139c34 37 46 45 70 45c30 0 54 -23 54 -52z" />
    <glyph glyph-name="Adblgrave" unicode="&#x200;" horiz-adv-x="741" 
d="M709 0h-374l7 54h16c41 0 52 1 66 8c10 4 17 14 17 23c0 7 -1 18 -4 32l-20 103h-232l-46 -81c-9 -15 -14 -31 -14 -43c0 -29 15 -42 71 -42h23l-8 -54h-286l7 54h16c44 0 85 39 123 103l348 579h62l131 -622c10 -47 29 -60 90 -60h14zM404 274l-46 241l-141 -241h187z
M603 790h-54l-128 71c-13 7 -14 26 -5 44c16 29 52 52 82 52c24 0 29 -4 47 -45zM412 790h-54l-128 71c-13 7 -14 26 -5 44c16 29 52 52 82 52c24 0 29 -4 47 -45z" />
    <glyph glyph-name="adblgrave" unicode="&#x201;" horiz-adv-x="667" 
d="M646 157c-60 -101 -139 -172 -210 -172c-55 0 -85 35 -85 88c-48 -62 -94 -87 -163 -87c-101 0 -173 75 -173 181c0 162 138 312 286 312c59 0 101 -21 125 -63l14 48h157l-98 -332c-10 -39 -10 -39 -10 -46c0 -8 7 -16 14 -16c17 0 67 54 104 112zM395 351
c0 43 -25 73 -62 73c-82 0 -155 -175 -155 -289c0 -48 24 -79 61 -79c83 0 156 193 156 295zM505 547h-54l-128 71c-13 7 -14 26 -5 44c16 29 52 52 82 52c24 0 29 -4 47 -45zM314 547h-54l-128 71c-13 7 -14 26 -5 44c16 29 52 52 82 52c24 0 29 -4 47 -45z" />
    <glyph glyph-name="Edblgrave" unicode="&#x204;" horiz-adv-x="741" 
d="M602 0h-643l7 54h14c60 0 71 6 82 48l128 476c9 35 13 54 13 63c0 22 -14 27 -79 27h-19l8 54h615l-40 -245h-52c-2 145 -39 191 -158 191h-38c-41 0 -53 -9 -63 -48l-59 -219h31c87 0 122 33 156 122l53 -7l-90 -335l-53 7c4 30 5 44 5 62c0 65 -21 97 -84 97h-32
l-63 -236c-4 -13 -7 -26 -6 -32c0 -18 16 -25 54 -25h36c112 0 225 73 291 205l52 -11zM578 790h-54l-128 71c-13 7 -14 26 -5 44c16 29 52 52 82 52c24 0 29 -4 47 -45zM387 790h-54l-128 71c-13 7 -14 26 -5 44c16 29 52 52 82 52c24 0 29 -4 47 -45z" />
    <glyph glyph-name="edblgrave" unicode="&#x205;" horiz-adv-x="519" 
d="M430 91c-63 -71 -137 -105 -228 -105c-132 0 -204 65 -204 185c0 164 148 308 316 308c94 0 164 -52 164 -121c0 -70 -56 -120 -170 -153c-47 -14 -90 -21 -149 -24c-2 -26 -2 -32 -2 -44c0 -57 33 -92 86 -92c52 0 92 21 152 81zM356 385c0 29 -17 47 -44 47
c-62 0 -121 -82 -144 -204c33 5 50 9 70 16c68 26 118 86 118 141zM481 547h-54l-128 71c-13 7 -14 26 -5 44c16 29 52 52 82 52c24 0 29 -4 47 -45zM290 547h-54l-128 71c-13 7 -14 26 -5 44c16 29 52 52 82 52c24 0 29 -4 47 -45z" />
    <glyph glyph-name="Idblgrave" unicode="&#x208;" horiz-adv-x="444" 
d="M332 0h-373l7 54h20c42 0 53 4 63 14c9 8 9 8 27 76l116 434c10 34 14 54 14 63c0 22 -14 27 -79 27h-22l8 54h373l-7 -54h-21c-42 0 -52 -4 -62 -14c-9 -7 -9 -7 -27 -76l-116 -434c-14 -55 -14 -55 -14 -63c0 -22 14 -27 79 -27h22zM476 790h-54l-128 71
c-13 7 -14 26 -5 44c16 29 52 52 82 52c24 0 29 -4 47 -45zM285 790h-54l-128 71c-13 7 -14 26 -5 44c16 29 52 52 82 52c24 0 29 -4 47 -45z" />
    <glyph glyph-name="idblgrave" unicode="&#x209;" horiz-adv-x="389" 
d="M353 149c-68 -114 -131 -164 -207 -164c-60 0 -104 38 -104 90c0 19 2 30 15 74l51 170c11 37 15 56 15 67c0 25 -12 31 -61 31h-24l7 47l267 14l-105 -356c-9 -31 -10 -34 -10 -42c0 -9 7 -16 16 -16c20 0 53 37 101 113zM386 547h-54l-128 71c-13 7 -14 26 -5 44
c16 29 52 52 82 52c24 0 29 -4 47 -45zM195 547h-54l-128 71c-13 7 -14 26 -5 44c16 29 52 52 82 52c24 0 29 -4 47 -45z" />
    <glyph glyph-name="Odblgrave" unicode="&#x20c;" horiz-adv-x="833" 
d="M797 441c0 -248 -208 -456 -455 -456c-185 0 -306 119 -306 301c0 249 214 451 454 451c173 0 307 -130 307 -296zM533 196c49 94 80 219 80 324c0 101 -47 163 -126 163c-75 0 -135 -50 -187 -155c-49 -100 -85 -241 -85 -335c0 -95 49 -154 127 -154
c72 0 135 51 191 157zM670 790h-54l-128 71c-13 7 -14 26 -5 44c16 29 52 52 82 52c24 0 29 -4 47 -45zM479 790h-54l-128 71c-13 7 -14 26 -5 44c16 29 52 52 82 52c24 0 29 -4 47 -45z" />
    <glyph glyph-name="odblgrave" unicode="&#x20d;" horiz-adv-x="574" 
d="M540 285c0 -169 -139 -299 -320 -299c-63 0 -115 18 -150 51c-37 34 -60 92 -60 150c0 158 144 292 314 292c61 0 121 -20 160 -54c36 -31 56 -80 56 -140zM335 134c28 70 50 168 50 220c0 47 -26 78 -65 78c-43 0 -80 -38 -110 -110c-26 -63 -45 -154 -45 -214
c0 -50 24 -79 64 -79c43 0 79 35 106 105zM495 547h-54l-128 71c-13 7 -14 26 -5 44c16 29 52 52 82 52c24 0 29 -4 47 -45zM304 547h-54l-128 71c-13 7 -14 26 -5 44c16 29 52 52 82 52c24 0 29 -4 47 -45z" />
    <glyph glyph-name="Rdblgrave" unicode="&#x210;" horiz-adv-x="796" 
d="M742 136c-34 -103 -90 -151 -175 -151c-84 0 -143 59 -143 142c0 34 12 103 12 142c0 55 -33 81 -92 81h-40l-55 -206c-9 -32 -13 -54 -13 -63c0 -22 14 -27 79 -27h26l-8 -54h-374l7 54h20c42 0 50 4 60 14c9 8 9 8 27 76l116 434c11 40 14 54 14 63c0 22 -12 27 -77 27
h-21l7 54h347c197 0 292 -42 292 -167c0 -114 -98 -181 -287 -196c97 -27 139 -77 139 -178v-34c0 -66 0 -66 7 -75c5 -7 11 -11 18 -11c28 0 49 36 71 96zM567 570c0 63 -38 98 -108 98h-25c-36 0 -46 -7 -54 -38l-61 -226h34c90 0 115 5 149 31c40 30 65 81 65 135z
M616 790h-54l-128 71c-13 7 -14 26 -5 44c16 29 52 52 82 52c24 0 29 -4 47 -45zM425 790h-54l-128 71c-13 7 -14 26 -5 44c16 29 52 52 82 52c24 0 29 -4 47 -45z" />
    <glyph glyph-name="rdblgrave" unicode="&#x211;" horiz-adv-x="519" 
d="M524 391c0 -47 -32 -83 -75 -83c-32 0 -60 20 -67 49c-2 8 -3 16 -3 31c0 9 -3 13 -10 13c-8 0 -25 -11 -40 -26c-49 -47 -99 -140 -127 -236l-42 -139h-157l95 319c11 37 15 56 15 67c0 25 -12 31 -61 31h-24l7 47l250 14l-31 -127c62 93 111 128 177 128
c56 0 93 -35 93 -88zM450 547h-54l-128 71c-13 7 -14 26 -5 44c16 29 52 52 82 52c24 0 29 -4 47 -45zM259 547h-54l-128 71c-13 7 -14 26 -5 44c16 29 52 52 82 52c24 0 29 -4 47 -45z" />
    <glyph glyph-name="Udblgrave" unicode="&#x214;" horiz-adv-x="833" 
d="M888 668c-27 0 -59 -10 -78 -27c-28 -25 -31 -32 -61 -135l-74 -279c-45 -169 -138 -242 -304 -242c-174 0 -283 86 -283 211c0 28 6 65 17 107l74 275c12 46 14 54 14 63c0 22 -9 27 -75 27h-23l7 54h376l-8 -54h-22c-42 0 -56 -4 -66 -14c-9 -8 -9 -8 -27 -76l-81 -304
c-11 -40 -15 -64 -15 -88c0 -88 55 -139 150 -139c93 0 164 48 206 207l67 252c21 79 22 86 22 107c0 38 -29 55 -90 55l7 54h274zM669 790h-54l-128 71c-13 7 -14 26 -5 44c16 29 52 52 82 52c24 0 29 -4 47 -45zM478 790h-54l-128 71c-13 7 -14 26 -5 44
c16 29 52 52 82 52c24 0 29 -4 47 -45z" />
    <glyph glyph-name="udblgrave" unicode="&#x215;" horiz-adv-x="685" 
d="M639 152c-78 -120 -136 -166 -212 -166c-64 0 -97 29 -97 85c0 8 0 16 1 26c-65 -78 -119 -111 -183 -111c-66 0 -110 44 -110 109c0 27 4 47 21 103l35 121c12 39 16 57 16 67c0 25 -12 31 -61 31h-10l7 47l253 14l-90 -304c-3 -8 -7 -24 -12 -41c-2 -7 -4 -15 -7 -24
c-1 -6 -2 -11 -2 -14c0 -13 12 -25 25 -25c26 0 74 39 110 89c30 41 52 88 68 140l48 165h158l-93 -312c-16 -56 -16 -56 -16 -67c0 -7 7 -14 14 -14c17 0 57 43 99 109zM528 547h-54l-128 71c-13 7 -14 26 -5 44c16 29 52 52 82 52c24 0 29 -4 47 -45zM337 547h-54l-128 71
c-13 7 -14 26 -5 44c16 29 52 52 82 52c24 0 29 -4 47 -45z" />
    <glyph glyph-name="uni0218" unicode="&#x218;" horiz-adv-x="685" 
d="M612 224c0 -141 -119 -239 -292 -239c-90 0 -151 23 -217 80l-58 -65h-44l50 283l52 -8l-1 -30c1 -119 85 -206 215 -206c94 0 157 46 157 113c0 58 -36 87 -171 133c-84 28 -114 44 -145 74c-37 35 -56 82 -56 136c0 138 114 242 266 242c79 0 139 -23 200 -76l53 54h45
l-44 -263l-52 9c-5 148 -78 222 -190 222c-86 0 -143 -43 -143 -108c0 -48 18 -80 112 -111c184 -61 263 -104 263 -240zM325 -164c0 -87 -66 -159 -189 -207l-19 37c83 37 123 78 123 123c-10 -1 -16 -2 -24 -2c-44 0 -70 26 -70 71c0 48 35 82 85 82c56 0 94 -42 94 -104z
" />
    <glyph glyph-name="uni0219" unicode="&#x219;" horiz-adv-x="481" 
d="M399 149c0 -98 -88 -164 -219 -164c-106 0 -178 47 -178 116c0 43 28 72 70 72c40 0 71 -27 71 -64c0 -19 -5 -28 -26 -46c-3 -3 -5 -6 -5 -9c0 -15 27 -26 63 -26c54 0 95 29 95 69c0 27 -16 44 -58 61c-57 24 -63 27 -84 40c-50 30 -72 68 -72 122c0 98 78 159 202 159
c105 0 179 -47 179 -112c0 -41 -28 -70 -69 -70c-40 0 -69 26 -69 61c0 16 2 21 18 41c4 5 6 9 6 12c0 11 -27 21 -56 21c-52 0 -89 -25 -89 -61c0 -26 19 -44 78 -69c41 -18 54 -24 75 -38c46 -30 68 -66 68 -115zM235 -164c0 -87 -66 -159 -189 -207l-19 37
c83 37 123 78 123 123c-10 -1 -16 -2 -24 -2c-44 0 -70 26 -70 71c0 48 35 82 85 82c56 0 94 -42 94 -104z" />
    <glyph glyph-name="uni021A" unicode="&#x21a;" horiz-adv-x="722" 
d="M718 439l-53 5c2 23 3 48 3 60c0 105 -42 164 -118 164c-29 0 -32 -2 -43 -45l-128 -479c-12 -44 -14 -54 -14 -63c0 -22 14 -27 80 -27h25l-7 -54h-397l7 54h27c42 0 66 4 76 14c9 8 9 8 27 76l130 485c3 10 4 19 4 24c0 10 -10 15 -28 15c-85 0 -146 -65 -215 -229
l-50 16l71 267h647zM330 -164c0 -87 -66 -159 -189 -207l-19 37c83 37 123 78 123 123c-10 -1 -16 -2 -24 -2c-44 0 -70 26 -70 71c0 48 35 82 85 82c56 0 94 -42 94 -104z" />
    <glyph glyph-name="uni021B" unicode="&#x21b;" horiz-adv-x="407" 
d="M337 156c-38 -58 -48 -70 -68 -92c-49 -52 -99 -78 -150 -78c-53 0 -95 37 -95 83c0 19 5 47 14 77c3 9 7 22 11 37l65 220h-87l18 61h87l56 186h157l-55 -186h114l-18 -61h-114l-70 -236c-12 -41 -21 -76 -21 -83c0 -9 7 -18 15 -18c20 0 66 51 104 117zM201 -164
c0 -87 -66 -159 -189 -207l-19 37c83 37 123 78 123 123c-10 -1 -16 -2 -24 -2c-44 0 -70 26 -70 71c0 48 35 82 85 82c56 0 94 -42 94 -104z" />
    <glyph glyph-name="uni0237" unicode="&#x237;" horiz-adv-x="370" 
d="M359 478l-119 -403c-31 -103 -47 -140 -86 -187c-47 -59 -109 -90 -178 -90c-84 0 -146 47 -146 112c0 49 32 83 78 83s74 -29 74 -75c0 -26 -5 -35 -28 -49c-4 -2 -6 -6 -6 -10c0 -7 7 -12 17 -12c39 0 60 34 95 153l95 319c11 38 15 56 15 67c0 25 -12 31 -61 31h-32
l7 47z" />
    <glyph glyph-name="ereversed" unicode="&#x258;" horiz-adv-x="519" 
d="M442 171c-65 -120 -171 -185 -303 -185c-91 0 -147 34 -172 105l54 35c27 -60 56 -81 108 -81c53 0 105 35 135 92c7 12 10 18 22 44c-57 3 -97 10 -136 24c-96 33 -126 83 -88 153c37 69 135 121 229 121c168 0 239 -144 151 -308zM302 228c43 122 28 204 -34 204
c-27 0 -54 -18 -70 -47c-29 -55 -11 -115 43 -141c16 -7 31 -11 61 -16z" />
    <glyph glyph-name="schwa" unicode="&#x259;" horiz-adv-x="519" 
d="M475 294c0 -164 -148 -308 -316 -308c-94 0 -164 52 -164 121c0 70 56 120 170 153c47 14 90 21 149 24c2 26 2 32 2 44c0 57 -33 92 -86 92c-52 0 -92 -21 -152 -81l-35 35c63 71 137 105 228 105c132 0 204 -65 204 -185zM305 237c-33 -5 -50 -9 -70 -16
c-68 -26 -118 -86 -118 -141c0 -29 17 -47 44 -47c62 0 121 82 144 204z" />
    <glyph glyph-name="ringhalfright" unicode="&#x2be;" horiz-adv-x="414" 
d="M417 577c0 -116 -99 -213 -217 -213c-75 0 -122 38 -122 93c0 43 25 70 65 70c35 0 60 -23 60 -56c1 -21 -7 -34 -29 -47c-3 -2 -4 -2 -4 -4c0 -7 9 -9 19 -9c26 0 48 19 68 54c20 36 34 92 34 132c0 31 -19 54 -47 54c-30 0 -61 -20 -98 -64c-2 -1 -4 -2 -6 -2
s-4 0 -5 2l-24 20c-2 2 -3 4 -3 6s1 4 2 5c50 63 100 90 161 90c89 0 145 -51 146 -131z" />
    <glyph glyph-name="ringhalfleft" unicode="&#x2bf;" horiz-adv-x="414" 
d="M392 459c0 -2 -1 -4 -2 -5c-50 -63 -100 -90 -161 -90c-89 0 -145 51 -146 131c0 116 99 213 217 213c75 0 122 -38 122 -93c0 -43 -26 -70 -66 -70c-35 0 -59 23 -60 56c0 21 8 34 30 47c3 2 4 2 4 4c0 7 -9 9 -19 9c-26 0 -49 -19 -68 -54c-20 -36 -34 -92 -34 -132
c0 -31 19 -54 47 -54c30 0 61 20 98 64c2 1 4 2 6 2s4 0 5 -2l24 -20c1 -2 3 -4 3 -6z" />
    <glyph glyph-name="circumflex" unicode="&#x2c6;" 
d="M358 543h-59l-90 86l-126 -86h-67l157 174h101z" />
    <glyph glyph-name="caron" unicode="&#x2c7;" 
d="M395 718l-157 -176h-102l-84 176h59l90 -88l126 88h68z" />
    <glyph glyph-name="breve" unicode="&#x2d8;" 
d="M372 712c-3 -36 -17 -72 -42 -102c-35 -42 -81 -62 -142 -62c-88 0 -139 49 -139 135c0 6 1 16 2 29h46c5 -60 35 -85 101 -85c62 0 114 34 127 85h47z" />
    <glyph glyph-name="dotaccent" unicode="&#x2d9;" 
d="M282 631c0 -40 -32 -72 -72 -72c-39 0 -71 33 -71 72s32 71 72 71c39 0 71 -32 71 -71z" />
    <glyph glyph-name="ring" unicode="&#x2da;" 
d="M318 631c0 -60 -48 -108 -109 -108c-57 0 -106 49 -106 108c0 58 49 107 108 107s107 -48 107 -107zM264 631c0 29 -24 53 -53 53c-30 0 -54 -24 -54 -54c0 -28 24 -53 53 -53c30 0 54 24 54 54z" />
    <glyph glyph-name="ogonek" unicode="&#x2db;" 
d="M275 -153c-30 -44 -81 -71 -130 -71c-54 0 -102 39 -102 102c0 64 50 102 85 126h67c-26 -20 -58 -61 -58 -98c0 -27 18 -46 40 -46c27 0 49 6 70 23z" />
    <glyph glyph-name="tilde" unicode="&#x2dc;" 
d="M395 693c-3 -67 -61 -126 -124 -126c-21 0 -46 6 -85 21c-45 18 -57 21 -72 21c-22 0 -37 -15 -42 -42h-47c5 73 58 126 124 126c20 0 46 -6 79 -19c48 -19 55 -21 70 -21c25 0 42 14 50 40h47z" />
    <glyph glyph-name="hungarumlaut" unicode="&#x2dd;" 
d="M297 662c0 -18 -12 -37 -28 -44l-166 -71h-54l123 122c40 41 47 45 71 45c30 0 54 -23 54 -52zM488 662c0 -18 -12 -37 -28 -44l-166 -71h-54l123 122c40 41 47 45 71 45c30 0 54 -23 54 -52z" />
    <glyph glyph-name="uni0300" unicode="&#x300;" horiz-adv-x="0" 
d="M-92 538h-54l-119 88c-13 10 -15 25 -5 44c16 29 52 52 82 52c24 0 32 -8 46 -45z" />
    <glyph glyph-name="uni0301" unicode="&#x301;" horiz-adv-x="0" 
d="M-38 670c0 -19 -10 -34 -28 -44l-166 -88h-54l124 139c34 37 46 45 70 45c30 0 54 -23 54 -52z" />
    <glyph glyph-name="uni0302" unicode="&#x302;" horiz-adv-x="0" 
d="M-17 543h-59l-90 86l-126 -86h-67l157 174h101z" />
    <glyph glyph-name="uni0303" unicode="&#x303;" horiz-adv-x="0" 
d="M20 693c-3 -67 -61 -126 -124 -126c-21 0 -46 6 -85 21c-45 18 -57 21 -72 21c-22 0 -37 -15 -42 -42h-47c5 73 58 126 124 126c20 0 46 -6 79 -19c48 -19 55 -21 70 -21c25 0 42 14 50 40h47z" />
    <glyph glyph-name="uni0304" unicode="&#x304;" horiz-adv-x="0" 
d="M13 668l-21 -76h-334l21 76h334z" />
    <glyph glyph-name="uni0306" unicode="&#x306;" horiz-adv-x="0" 
d="M-3 712c-3 -36 -17 -72 -42 -102c-35 -42 -81 -62 -142 -62c-88 0 -139 49 -139 135c0 6 1 16 2 29h46c5 -60 35 -85 101 -85c62 0 114 34 127 85h47z" />
    <glyph glyph-name="uni0307" unicode="&#x307;" horiz-adv-x="0" 
d="M-93 631c0 -40 -32 -72 -72 -72c-39 0 -71 33 -71 72s32 71 72 71c39 0 71 -32 71 -71z" />
    <glyph glyph-name="uni0308" unicode="&#x308;" horiz-adv-x="0" 
d="M-188 631c0 -40 -32 -72 -72 -72c-39 0 -71 33 -71 72s32 71 72 71c39 0 71 -32 71 -71zM2 631c0 -40 -32 -72 -72 -72c-39 0 -71 33 -71 72s32 71 72 71c39 0 71 -32 71 -71z" />
    <glyph glyph-name="uni0309" unicode="&#x309;" horiz-adv-x="0" 
d="M-44 677c0 -34 -9 -53 -88 -98c-34 -20 -41 -24 -49 -54h-34c1 34 6 39 53 88c20 21 33 47 33 63c0 17 -12 27 -34 27c-13 0 -23 -2 -23 -5c13 -11 17 -17 17 -26c0 -26 -28 -45 -57 -45c-25 0 -41 13 -41 33c0 43 63 76 133 76c62 0 90 -32 90 -59zM-257 173l3 1l-2 -1
h-1z" />
    <glyph glyph-name="uni030A" unicode="&#x30a;" horiz-adv-x="0" 
d="M-57 631c0 -60 -48 -108 -109 -108c-57 0 -106 49 -106 108c0 58 49 107 108 107s107 -48 107 -107zM-111 631c0 29 -24 53 -53 53c-30 0 -54 -24 -54 -54c0 -28 24 -53 53 -53c30 0 54 24 54 54z" />
    <glyph glyph-name="uni030B" unicode="&#x30b;" horiz-adv-x="0" 
d="M-78 662c0 -18 -12 -37 -28 -44l-166 -71h-54l123 122c40 41 47 45 71 45c30 0 54 -23 54 -52zM113 662c0 -18 -12 -37 -28 -44l-166 -71h-54l123 122c40 41 47 45 71 45c30 0 54 -23 54 -52z" />
    <glyph glyph-name="uni030C" unicode="&#x30c;" horiz-adv-x="0" 
d="M20 718l-157 -176h-102l-84 176h59l90 -88l126 88h68z" />
    <glyph glyph-name="uni030F" unicode="&#x30f;" horiz-adv-x="0" 
d="M-48 547h-54l-128 71c-13 7 -14 26 -5 44c16 29 52 52 82 52c24 0 29 -4 47 -45zM-239 547h-54l-128 71c-13 7 -14 26 -5 44c16 29 52 52 82 52c24 0 29 -4 47 -45z" />
    <glyph glyph-name="uni0311" unicode="&#x311;" horiz-adv-x="0" 
d="M-44 548h-46c-5 60 -35 85 -101 85c-62 0 -114 -34 -127 -85h-47c3 36 17 72 42 102c35 42 81 62 142 62c88 0 139 -49 139 -135c0 -6 -1 -16 -2 -29z" />
    <glyph glyph-name="uni0323" unicode="&#x323;" horiz-adv-x="0" 
d="M-302 -150c0 -40 -32 -72 -72 -72c-39 0 -71 33 -71 72s32 71 72 71c39 0 71 -32 71 -71z" />
    <glyph glyph-name="uni0326" unicode="&#x326;" horiz-adv-x="0" 
d="M-391 -164c0 -87 -66 -159 -189 -207l-19 37c83 37 123 78 123 123c-10 -1 -16 -2 -24 -2c-44 0 -70 26 -70 71c0 48 35 82 85 82c56 0 94 -42 94 -104z" />
    <glyph glyph-name="uni032E" unicode="&#x32e;" horiz-adv-x="0" 
d="M-173 -77c-4 -33 -21 -65 -51 -92c-42 -38 -97 -56 -170 -56c-120 0 -181 61 -165 148h56c6 -54 42 -77 121 -77c74 0 137 31 152 77h57z" />
    <glyph glyph-name="uni032F" unicode="&#x32f;" horiz-adv-x="0" 
d="M-211 -225h-56c-6 54 -42 77 -121 77c-74 0 -137 -31 -152 -77h-57c4 33 21 65 51 92c42 38 97 56 170 56c120 0 181 -61 165 -148z" />
    <glyph glyph-name="uni0330" unicode="&#x330;" horiz-adv-x="0" 
d="M-189 -88c-3 -67 -61 -126 -124 -126c-21 0 -46 6 -85 21c-45 18 -57 21 -72 21c-22 0 -37 -15 -42 -42h-47c5 73 58 126 124 126c20 0 46 -6 79 -19c48 -19 55 -21 70 -21c25 0 42 14 50 40h47z" />
    <glyph glyph-name="uni0331" unicode="&#x331;" horiz-adv-x="0" 
d="M-196 -113l-21 -76h-334l21 76h334z" />
    <glyph glyph-name="uni0332" unicode="&#x332;" horiz-adv-x="0" 
d="M-196 -113l-21 -76h-334l21 76h334z" />
    <glyph glyph-name="Alpha" unicode="&#x391;" horiz-adv-x="741" 
d="M709 0h-374l7 54h16c41 0 52 1 66 8c10 4 17 14 17 23c0 7 -1 18 -4 32l-20 103h-232l-46 -81c-9 -15 -14 -31 -14 -43c0 -29 15 -42 71 -42h23l-8 -54h-286l7 54h16c44 0 85 39 123 103l348 579h62l131 -622c10 -47 29 -60 90 -60h14zM404 274l-46 241l-141 -241h187z
" />
    <glyph glyph-name="Beta" unicode="&#x392;" horiz-adv-x="759" 
d="M683 195c0 -145 -141 -195 -315 -195h-418l7 54h14c42 0 56 4 67 14c8 8 8 8 26 76l117 434c9 33 13 54 13 63c0 22 -14 27 -79 27h-19l8 54h352c189 0 264 -64 264 -171c0 -100 -83 -166 -231 -183c131 -23 194 -79 194 -173zM537 567c0 65 -35 101 -97 101h-15
c-36 0 -47 -11 -60 -60l-57 -211h31c71 0 99 6 129 26c43 29 69 84 69 144zM492 233c0 74 -23 110 -148 110h-50l-59 -221c-6 -21 -8 -31 -8 -38c0 -21 17 -30 53 -30h33c119 0 179 68 179 179z" />
    <glyph glyph-name="Gamma" unicode="&#x393;" horiz-adv-x="704" 
d="M686 477h-52c-2 145 -39 191 -158 191h-36c-41 0 -53 -9 -63 -48l-127 -476c-10 -36 -14 -54 -14 -63c0 -22 14 -27 79 -27h27l-8 -54h-375l7 54h14c62 0 71 6 82 48l128 476c9 35 13 54 13 63c0 22 -14 27 -79 27h-19l8 54h613z" />
    <glyph glyph-name="Delta" unicode="&#x394;" horiz-adv-x="764" 
d="M742 0h-720l526 737h76zM531 55l-61 469l-320 -469h381z" />
    <glyph glyph-name="Epsilon" unicode="&#x395;" horiz-adv-x="741" 
d="M602 0h-643l7 54h14c60 0 71 6 82 48l128 476c9 35 13 54 13 63c0 22 -14 27 -79 27h-19l8 54h615l-40 -245h-52c-2 145 -39 191 -158 191h-38c-41 0 -53 -9 -63 -48l-59 -219h31c87 0 122 33 156 122l53 -7l-90 -335l-53 7c4 30 5 44 5 62c0 65 -21 97 -84 97h-32
l-63 -236c-4 -13 -7 -26 -6 -32c0 -18 16 -25 54 -25h36c112 0 225 73 291 205l52 -11z" />
    <glyph glyph-name="Zeta" unicode="&#x396;" horiz-adv-x="704" 
d="M652 260l-70 -260h-611l8 54l507 614h-79c-129 0 -211 -56 -290 -200l-49 10l66 244h581l-8 -54l-510 -614h91c144 0 234 63 313 219z" />
    <glyph glyph-name="Eta" unicode="&#x397;" horiz-adv-x="870" 
d="M762 0h-379l7 54h22c42 0 56 4 66 14c9 8 9 8 27 76l53 196h-256l-52 -196c-10 -34 -14 -55 -14 -63c0 -22 4 -27 69 -27h21l-8 -54h-359l7 54h19c55 0 66 6 77 48c3 12 8 28 11 42l117 434c9 34 13 54 13 63c0 22 -14 27 -79 27h-19l8 54h375l-7 -54h-22
c-42 0 -56 -4 -66 -14c-9 -7 -9 -7 -27 -76l-48 -177h256l47 177c10 35 14 54 14 63c0 22 -4 27 -69 27h-21l8 54h359l-7 -54h-17c-42 0 -53 -4 -64 -14c-8 -7 -8 -7 -26 -76l-117 -434c-8 -32 -13 -54 -13 -63c0 -22 14 -27 79 -27h22z" />
    <glyph glyph-name="Theta" unicode="&#x398;" horiz-adv-x="833" 
d="M797 441c0 -248 -208 -456 -455 -456c-185 0 -306 119 -306 301c0 249 214 451 454 451c173 0 307 -130 307 -296zM533 196c49 94 80 219 80 324c0 101 -47 163 -126 163c-75 0 -135 -50 -187 -155c-49 -100 -85 -241 -85 -335c0 -95 49 -154 127 -154
c72 0 135 51 191 157zM483 187h-54l4 15c22 80 22 80 -38 80c-58 0 -59 0 -82 -80l-4 -15h-54l94 349h54l-4 -15c-22 -80 -22 -80 38 -80c58 0 59 0 82 80l4 15h54z" />
    <glyph glyph-name="Iota" unicode="&#x399;" horiz-adv-x="444" 
d="M332 0h-373l7 54h20c42 0 53 4 63 14c9 8 9 8 27 76l116 434c10 34 14 54 14 63c0 22 -14 27 -79 27h-22l8 54h373l-7 -54h-21c-42 0 -52 -4 -62 -14c-9 -7 -9 -7 -27 -76l-116 -434c-14 -55 -14 -55 -14 -63c0 -22 14 -27 79 -27h22z" />
    <glyph glyph-name="Kappa" unicode="&#x39a;" horiz-adv-x="778" 
d="M749 0h-374l7 54h31c46 0 60 5 60 22c0 8 0 8 -11 31l-102 213l-84 -77l-26 -99c-10 -34 -14 -54 -14 -63c0 -22 4 -27 69 -27h21l-8 -54h-359l7 54h18c42 0 52 5 63 14c8 8 8 8 27 77l115 433c10 35 14 54 14 63c0 22 -14 27 -79 27h-19l8 54h375l-7 -54h-22
c-42 0 -56 -4 -66 -14c-9 -8 -9 -8 -27 -76l-61 -225l267 248c21 20 30 32 30 42c0 16 -15 25 -41 25h-35l7 54h299l-7 -54c-70 -4 -113 -24 -172 -81l-162 -150l143 -308c32 -70 39 -75 108 -75h15z" />
    <glyph glyph-name="Lambda" unicode="&#x39b;" horiz-adv-x="741" 
d="M709 0h-374l7 54h16c41 0 52 1 66 8c10 4 17 14 17 23c0 7 -1 18 -4 32l-79 398l-219 -376c-9 -15 -14 -31 -14 -43c0 -29 15 -42 71 -42h23l-8 -54h-286l7 54h16c44 0 85 39 123 103l348 579h62l131 -622c10 -47 29 -60 90 -60h14z" />
    <glyph glyph-name="Mu" unicode="&#x39c;" horiz-adv-x="944" 
d="M834 0h-367l7 54h20c42 0 50 4 60 14c9 8 9 8 27 76l112 418l-337 -562h-63l-39 566l-94 -350c-20 -80 -21 -87 -21 -107c0 -35 29 -55 82 -55l-8 -54h-237l7 54c55 4 75 35 110 162l97 362c11 41 14 54 14 63c0 22 -14 27 -79 27h-19l7 54h293l35 -463l278 463h269
l-7 -54h-21c-42 0 -49 -4 -60 -14c-8 -7 -8 -7 -26 -76l-117 -434c-8 -32 -13 -55 -13 -63c0 -22 14 -27 79 -27h19z" />
    <glyph glyph-name="Nu" unicode="&#x39d;" horiz-adv-x="852" 
d="M905 668c-34 0 -61 -9 -81 -27c-28 -27 -30 -30 -61 -136l-139 -519h-80l-296 566l-90 -335c-20 -80 -21 -87 -21 -108c0 -37 19 -55 77 -55h21l-8 -54h-284l7 54c34 1 61 10 81 27c28 26 30 32 60 136l113 419c-12 23 -28 32 -59 32h-56l7 54h254l268 -507l78 290
c21 80 22 86 22 108c0 37 -30 55 -90 55l7 54h277z" />
    <glyph glyph-name="Xi" unicode="&#x39e;" horiz-adv-x="747" 
d="M781 210l-110 -210h-604l2 210h26c11 -81 34 -98 152 -98h304c118 0 151 17 204 98h26zM862 512h-26c-10 81 -34 98 -152 98h-304c-118 0 -150 -17 -204 -98h-26l110 210h604zM633 171h-54l4 15c14 52 13 63 4 72c-6 7 -10 7 -73 7h-144c-63 0 -67 0 -77 -7
c-13 -9 -20 -20 -34 -72l-4 -15h-54l93 349h54l-4 -15c-14 -52 -13 -64 -4 -73c6 -7 9 -7 73 -7h144c64 0 67 0 77 7c13 9 20 21 34 73l4 15h54z" />
    <glyph glyph-name="Omicron" unicode="&#x39f;" horiz-adv-x="833" 
d="M797 441c0 -248 -208 -456 -455 -456c-185 0 -306 119 -306 301c0 249 214 451 454 451c173 0 307 -130 307 -296zM533 196c49 94 80 219 80 324c0 101 -47 163 -126 163c-75 0 -135 -50 -187 -155c-49 -100 -85 -241 -85 -335c0 -95 49 -154 127 -154
c72 0 135 51 191 157z" />
    <glyph glyph-name="Pi" unicode="&#x3a0;" horiz-adv-x="870" 
d="M762 0h-379l7 54h22c42 0 56 4 66 14c9 8 9 8 27 76l116 434c10 35 14 54 14 63c0 22 -4 27 -69 27h-107c-42 0 -56 -4 -66 -14c-9 -7 -9 -7 -27 -76l-116 -434c-10 -34 -14 -55 -14 -63c0 -22 4 -27 69 -27h21l-8 -54h-359l7 54h19c55 0 66 6 77 48c3 12 8 28 11 42
l117 434c9 34 13 54 13 63c0 22 -14 27 -79 27h-19l8 54h799l-7 -54h-17c-42 0 -53 -4 -64 -14c-8 -7 -8 -7 -26 -76l-117 -434c-8 -32 -13 -54 -13 -63c0 -22 14 -27 79 -27h22z" />
    <glyph glyph-name="Rho" unicode="&#x3a1;" horiz-adv-x="741" 
d="M731 533c0 -147 -101 -222 -354 -222h-80l-45 -167c-12 -44 -14 -54 -14 -63c0 -22 14 -27 80 -27h25l-7 -54h-374l7 54h18c57 0 67 6 78 48l127 476c12 45 14 54 14 63c0 22 -9 27 -75 27h-19l7 54h315c234 0 297 -76 297 -189zM552 563c0 64 -36 105 -93 105h-17
c-42 0 -52 -8 -64 -53l-67 -250h49c132 0 192 77 192 198z" />
    <glyph glyph-name="Sigma" unicode="&#x3a3;" horiz-adv-x="749" 
d="M804 278l-131 -278h-658l341 324l-129 398h629l-33 -165h-28c9 101 -20 106 -141 106h-236l90 -264l-231 -219h287c121 0 158 17 212 98h28z" />
    <glyph glyph-name="Tau" unicode="&#x3a4;" horiz-adv-x="722" 
d="M718 439l-53 5c2 23 3 48 3 60c0 105 -42 164 -118 164c-29 0 -32 -2 -43 -45l-128 -479c-12 -44 -14 -54 -14 -63c0 -22 14 -27 80 -27h25l-7 -54h-397l7 54h27c42 0 66 4 76 14c9 8 9 8 27 76l130 485c3 10 4 19 4 24c0 10 -10 15 -28 15c-85 0 -146 -65 -215 -229
l-50 16l71 267h647z" />
    <glyph glyph-name="Upsilon" unicode="&#x3a5;" horiz-adv-x="704" 
d="M700 499l-51 13c7 27 4 54 -19 54c-132 0 -186 -174 -227 -327l-30 -95c-11 -42 -14 -54 -14 -63c0 -22 14 -27 80 -27h25l-7 -54h-389l7 54h19c42 0 66 4 76 14c9 8 9 8 27 76l29 117c38 143 77 305 -46 305c-46 0 -97 -25 -108 -67l-51 13c27 100 73 210 159 210
c202 0 193 -250 131 -483l7 22c58 215 126 461 312 461c95 0 99 -114 70 -223z" />
    <glyph glyph-name="Phi" unicode="&#x3a6;" horiz-adv-x="781" 
d="M834 359c-33 -122 -170 -183 -312 -200l-4 -15c-14 -55 -14 -55 -14 -63c0 -22 14 -27 79 -27h22l-8 -54h-373l7 54h20c42 0 53 4 63 14c9 8 9 8 27 76l4 17c-133 18 -237 79 -204 202c33 122 170 183 312 200l4 15c10 34 14 54 14 63c0 22 -14 27 -79 27h-22l8 54h373
l-7 -54h-21c-42 0 -52 -4 -62 -14c-9 -7 -9 -7 -27 -76l-4 -17c133 -18 237 -79 204 -202zM363 226l71 266c-58 -27 -105 -75 -121 -133c-16 -59 6 -108 50 -133zM662 363c16 59 -6 108 -50 133l-71 -266c58 27 105 75 121 133z" />
    <glyph glyph-name="Chi" unicode="&#x3a7;" horiz-adv-x="741" 
d="M698 0h-387l7 54h41c38 0 50 5 50 22c0 8 -1 12 -10 33l-73 170l-135 -132c-21 -20 -31 -38 -31 -53c0 -27 22 -40 66 -40h22l-7 -54h-313l7 54c50 -1 89 19 148 75l217 213l-126 280c-18 39 -29 46 -74 46h-37l8 54h374l-7 -54h-33c-41 0 -54 -5 -54 -20
c0 -6 3 -15 9 -29l69 -151l123 122c16 15 24 31 24 46c0 22 -15 32 -55 32h-21l7 54h304l-7 -54c-72 -5 -94 -17 -171 -91l-180 -173l132 -295c20 -44 39 -55 97 -55h23z" />
    <glyph glyph-name="Psi" unicode="&#x3a8;" horiz-adv-x="970" 
d="M1074 552c-63 0 -93 -82 -112 -155c-37 -137 -189 -216 -346 -237l-4 -16c-14 -55 -14 -55 -14 -63c0 -22 14 -27 79 -27h22l-8 -54h-373l7 54h20c42 0 53 4 63 14c9 8 9 8 27 76l5 17c-146 23 -255 102 -218 240c18 70 40 151 -17 151v52c129 0 221 -86 188 -207
c-20 -76 7 -142 64 -172l94 353c10 34 14 54 14 63c0 22 -14 27 -79 27h-22l8 54h373l-7 -54h-21c-42 0 -52 -4 -62 -14c-9 -7 -9 -7 -27 -76l-93 -349c73 32 135 96 155 172c32 117 162 203 284 203v-52z" />
    <glyph glyph-name="Omega" unicode="&#x3a9;" horiz-adv-x="833" 
d="M877 210l-110 -210h-269l50 186c106 79 138 155 168 266c39 146 40 233 -114 233s-203 -87 -242 -233c-30 -111 -38 -187 26 -266l-50 -186h-269l2 210h26c11 -81 34 -98 152 -98h42l5 17c-41 138 -184 135 -139 304c58 218 240 304 459 304s355 -86 297 -304
c-45 -169 -186 -166 -301 -304l-5 -17h42c118 0 151 17 204 98h26z" />
    <glyph glyph-name="alpha" unicode="&#x3b1;" horiz-adv-x="923" 
d="M908 110c-17 -65 -73 -125 -133 -125c-88 0 -139 57 -163 135c-70 -75 -149 -135 -237 -135c-172 0 -310 94 -268 251c42 156 223 258 390 258c112 0 196 -58 234 -147c58 73 118 147 135 160l62 -78c-59 -47 -125 -99 -178 -151c2 -14 3 -29 3 -44c0 -78 1 -197 22 -197
c39 0 72 43 83 87zM600 183c-2 16 -3 33 -3 51c-1 98 -5 208 -100 208c-99 0 -190 -102 -219 -210c-26 -100 5 -195 97 -195c86 0 159 68 225 146z" />
    <glyph glyph-name="beta" unicode="&#x3b2;" horiz-adv-x="638" 
d="M655 199c-36 -137 -204 -214 -356 -214c-35 0 -67 7 -95 20l-7 -25c-18 -69 -41 -138 -76 -204h-178c43 80 81 161 104 244l128 479c36 133 176 238 311 238c122 0 216 -74 185 -188c-17 -66 -77 -123 -144 -153c89 -29 155 -99 128 -197zM484 203
c23 87 -18 162 -101 162v52c58 0 99 69 117 136c16 61 35 132 -14 132c-91 0 -132 -120 -160 -226l-108 -403c23 -12 51 -19 81 -19c83 0 162 79 185 166z" />
    <glyph glyph-name="gamma" unicode="&#x3b3;" horiz-adv-x="686" 
d="M770 479c-39 -146 -159 -272 -287 -379l-61 -52l-31 -117c-23 -84 -49 -181 -121 -181c-87 0 -102 109 -29 203c17 22 73 72 130 120c26 140 21 262 -101 262c-43 0 -90 -30 -101 -72h-54c32 120 129 234 239 234c140 0 130 -171 88 -364l8 7c109 92 183 214 217 339h103
zM341 -56l11 44c-33 -29 -60 -54 -70 -66c-44 -57 -56 -120 -12 -120c33 0 54 80 71 142z" />
    <glyph glyph-name="delta" unicode="&#x3b4;" horiz-adv-x="593" 
d="M605 213c-34 -129 -174 -228 -306 -228c-139 0 -233 99 -197 233c30 111 157 160 287 173c-45 53 -75 118 -54 197c22 81 101 149 180 149c89 0 159 -50 156 -134l-100 3c1 41 -16 79 -56 79c-52 0 -95 -58 -111 -116c-14 -53 34 -101 73 -140c62 -64 146 -149 128 -216z
M434 218c12 44 13 88 -3 122c-71 -12 -140 -60 -158 -127c-22 -82 -45 -176 26 -176c74 0 112 95 135 181z" />
    <glyph glyph-name="epsilon" unicode="&#x3b5;" horiz-adv-x="580" 
d="M557 80c-64 -53 -141 -82 -214 -82c-146 0 -287 46 -253 172c14 53 52 84 102 103c-24 23 -34 54 -22 98c25 93 149 110 258 110c62 0 118 -19 160 -54l-34 -40c-33 28 -77 42 -126 42c-48 0 -94 -47 -108 -99c-4 -14 -2 -25 3 -33c44 3 91 3 135 3l-9 -83
c-40 0 -80 2 -118 6c-44 -19 -79 -50 -90 -93c-15 -54 40 -80 102 -80c61 0 127 26 181 70z" />
    <glyph glyph-name="zeta" unicode="&#x3b6;" horiz-adv-x="512" 
d="M453 -138c-17 -63 -82 -112 -145 -112c-39 0 -74 10 -103 28l27 44c21 -13 47 -20 76 -20c41 0 84 32 95 73c13 51 -4 99 -51 99c-158 0 -297 69 -259 209c48 179 156 357 297 434c-17 29 -20 65 -3 105h108c-10 -25 -15 -50 -14 -70c19 4 38 6 58 6c52 0 104 -15 91 -59
c-10 -39 -61 -46 -105 -46c-32 0 -60 6 -84 18c-91 -72 -136 -242 -177 -393c-21 -80 12 -152 88 -152c84 0 124 -77 101 -164z" />
    <glyph glyph-name="eta" unicode="&#x3b7;" horiz-adv-x="565" 
d="M420 -200h-152l143 532c6 16 9 29 9 36c0 13 -15 26 -30 26c-24 0 -57 -24 -95 -69c-44 -53 -69 -105 -97 -198l-38 -127h-157l95 319c11 38 15 56 15 67c0 25 -12 31 -61 31h-24l7 47l250 14l-32 -132c75 96 132 133 205 133c66 0 113 -43 113 -103
c0 -12 -20 -85 -31 -128z" />
    <glyph glyph-name="theta" unicode="&#x3b8;" horiz-adv-x="564" 
d="M614 353c-49 -182 -169 -368 -330 -368c-164 0 -194 187 -144 373c50 187 169 379 332 379c168 0 193 -193 142 -384zM449 382c37 136 78 303 23 303c-68 0 -116 -163 -154 -303h131zM435 330h-131c-35 -132 -75 -293 -19 -293c67 0 114 157 150 293z" />
    <glyph glyph-name="iota" unicode="&#x3b9;" horiz-adv-x="464" 
d="M450 113c-18 -68 -79 -128 -144 -128c-112 0 -207 54 -180 155l91 339h161l-102 -379c-8 -32 1 -63 30 -63c43 0 82 43 94 89z" />
    <glyph glyph-name="kappa" unicode="&#x3ba;" horiz-adv-x="640" 
d="M628 120c-20 -74 -94 -135 -166 -135c-105 0 -176 76 -148 177c10 38 -15 58 -52 68l-62 -230h-156l128 479h156l-38 -143c17 15 33 32 49 48c53 55 117 110 183 110c62 0 108 -34 124 -88l-50 -14c-9 31 -38 50 -74 50c-54 0 -102 -49 -146 -94c-21 -22 -43 -43 -67 -62
c93 -8 183 -43 160 -129c-14 -52 -32 -120 -7 -120c48 0 100 36 112 83h54z" />
    <glyph glyph-name="lambda" unicode="&#x3bb;" horiz-adv-x="683" 
d="M677 142c-20 -75 -81 -146 -149 -146c-57 0 -65 95 -72 170l-9 104l-207 -270h-196l383 500l-3 37c-4 44 -20 86 -64 86c-23 0 -34 -30 -41 -56l-50 13c19 75 77 146 145 146c45 0 55 -106 61 -184l33 -371c4 -41 31 -72 74 -72c23 0 37 29 45 56z" />
    <glyph glyph-name="mu.greek" unicode="&#x3bc;" horiz-adv-x="803" 
d="M789 113c-18 -66 -75 -128 -136 -128c-62 0 -118 19 -149 54c-43 -34 -95 -54 -146 -54c-61 0 -121 10 -163 33c-14 -92 -13 -183 3 -268h-177c45 130 85 260 120 390l91 339h161l-102 -379c-10 -40 24 -63 67 -63s88 17 123 46c-4 17 -3 36 2 57l91 339h162l-102 -379
c-8 -31 -8 -63 19 -63c40 0 74 44 86 89z" />
    <glyph glyph-name="nu" unicode="&#x3bd;" horiz-adv-x="633" 
d="M668 295c-21 -77 -67 -156 -143 -194l-231 -116l-54 282c-11 52 115 175 19 175c-43 0 -63 -76 -80 -139h-54c24 90 57 191 134 191c79 0 103 -80 118 -155l44 -231l81 40c63 31 99 97 116 161c11 41 -34 70 -71 93l85 132c68 -45 61 -145 36 -239z" />
    <glyph glyph-name="xi" unicode="&#x3be;" horiz-adv-x="592" 
d="M730 599c-12 -46 -95 -46 -162 -46c-33 0 -64 7 -89 19c-51 -35 -93 -93 -110 -156c-10 -40 7 -65 40 -81c46 7 94 10 141 10l-8 -84c-47 0 -96 1 -141 4c-74 -29 -135 -81 -154 -152c-19 -68 40 -108 112 -113c95 -6 178 -51 155 -138c-15 -56 -56 -112 -106 -112
c-30 0 -56 13 -71 35l43 30c6 -9 17 -13 28 -13c30 0 46 38 56 73c14 54 -48 69 -109 73c-151 10 -316 34 -280 169c23 86 91 143 178 178c-47 23 -72 61 -55 126c27 99 116 171 221 209c-13 26 -16 57 -6 92h104c-7 -25 -8 -49 -4 -69c23 3 46 5 69 5c75 0 164 0 148 -59z
" />
    <glyph glyph-name="omicron" unicode="&#x3bf;" horiz-adv-x="574" 
d="M540 285c0 -169 -139 -299 -320 -299c-63 0 -115 18 -150 51c-37 34 -60 92 -60 150c0 158 144 292 314 292c61 0 121 -20 160 -54c36 -31 56 -80 56 -140zM335 134c28 70 50 168 50 220c0 47 -26 78 -65 78c-43 0 -80 -38 -110 -110c-26 -63 -45 -154 -45 -214
c0 -50 24 -79 64 -79c43 0 79 35 106 105z" />
    <glyph glyph-name="pi" unicode="&#x3c0;" horiz-adv-x="815" 
d="M869 365c-55 -15 -109 -26 -163 -30l-51 -188c-17 -65 33 -110 101 -110l-14 -52c-139 0 -275 41 -243 162l51 189c-52 5 -103 13 -155 19l-38 -142c-34 -128 -156 -239 -280 -239v100c99 0 206 61 230 153l36 133c-20 1 -40 2 -60 2c-43 0 -91 -12 -101 -49l-51 13
c25 92 72 192 152 192c124 0 239 -32 364 -30c59 1 119 10 180 27z" />
    <glyph glyph-name="rho" unicode="&#x3c1;" horiz-adv-x="685" 
d="M703 232c-38 -145 -202 -247 -354 -247c-38 0 -74 6 -106 18c-6 -36 -13 -71 -23 -107c-13 -49 -28 -99 -57 -146h-186c39 60 75 122 92 187c27 101 18 198 45 299c40 148 203 258 357 258c161 0 273 -109 232 -262zM532 236c27 100 26 206 -61 206
c-91 0 -158 -106 -186 -210c-15 -59 -24 -118 -34 -177c30 -12 63 -18 98 -18c88 0 156 100 183 199z" />
    <glyph glyph-name="uni03C2" unicode="&#x3c2;" horiz-adv-x="529" 
d="M608 455l-74 -68c-22 24 -50 55 -79 55c-83 0 -155 -89 -179 -181c-16 -58 -10 -116 30 -147c32 -24 66 -45 97 -70c35 -27 63 -64 50 -113c-12 -46 -60 -82 -105 -82c-64 0 -120 21 -160 59l35 38c32 -30 75 -45 125 -45c24 0 49 19 55 43c7 27 -13 44 -32 59
c-31 25 -64 46 -96 70c-80 60 -176 131 -150 228c34 126 190 193 330 193c58 0 118 -2 153 -39z" />
    <glyph glyph-name="sigma" unicode="&#x3c3;" horiz-adv-x="710" 
d="M797 491c-78 -32 -157 -47 -236 -54c6 -4 11 -8 16 -12c36 -31 56 -80 56 -140c0 -169 -139 -299 -320 -299c-63 0 -115 18 -150 51c-37 34 -60 92 -60 150c0 158 144 292 314 292c15 0 31 -1 46 -4c100 8 203 46 304 88zM428 134c28 70 50 168 50 220
c0 47 -26 78 -65 78c-43 0 -80 -38 -110 -110c-26 -63 -45 -154 -45 -214c0 -50 24 -79 64 -79c43 0 79 35 106 105z" />
    <glyph glyph-name="tau" unicode="&#x3c4;" horiz-adv-x="685" 
d="M740 367c-77 -30 -156 -45 -230 -44l-60 -223c-8 -32 1 -63 30 -63c43 0 81 43 94 89l50 -13c-18 -68 -80 -128 -144 -128c-112 0 -208 54 -181 155l57 209c-24 7 -47 13 -73 13c-43 0 -91 -12 -101 -49l-51 13c25 92 72 192 152 192c14 0 108 -20 162 -32
c73 -15 156 -6 237 27z" />
    <glyph glyph-name="upsilon" unicode="&#x3c5;" horiz-adv-x="659" 
d="M680 243c-37 -137 -164 -258 -296 -258c-124 0 -227 64 -197 177c20 73 59 144 79 217c7 28 17 63 0 63c-35 0 -61 -42 -72 -83h-54c18 68 66 135 126 135c100 0 176 -62 151 -155c-17 -61 -42 -121 -59 -181c-15 -58 -23 -121 26 -121c110 0 215 104 246 220
c19 70 -37 114 -100 138l55 146c108 -40 130 -169 95 -298z" />
    <glyph glyph-name="phi" unicode="&#x3c6;" horiz-adv-x="794" 
d="M813 237c-36 -133 -177 -219 -325 -244l-18 -76c-15 -57 -32 -116 -72 -167h-197c51 65 99 134 118 208l9 32c-149 21 -258 109 -220 252c31 114 152 192 269 249l23 -46c-74 -37 -99 -128 -120 -208c-22 -82 1 -158 61 -187c15 73 27 147 47 220c32 121 150 224 267 224
c131 0 194 -120 158 -257zM641 242c24 87 54 200 14 200c-59 0 -91 -117 -116 -212c-15 -55 -25 -110 -36 -164c65 36 119 102 138 176z" />
    <glyph glyph-name="chi" unicode="&#x3c7;" horiz-adv-x="620" 
d="M597 -86c-20 -74 -61 -152 -124 -152c-69 0 -99 62 -109 128l-17 112c-57 -75 -106 -152 -128 -237h-162c40 148 157 273 264 401l-20 132c-6 37 -13 84 -44 84c-33 0 -65 -31 -74 -65l-50 13c19 74 60 152 124 152c69 0 83 -97 96 -176l13 -85c64 81 120 165 145 258
h161c-42 -156 -170 -287 -281 -422l24 -159c4 -25 30 -36 58 -36c33 0 64 31 74 65z" />
    </font>
</defs>
</svg>
