<?xml version="1.0" standalone="no"?>
<!DOCTYPE svg PUBLIC "-//W3C//DTD SVG 1.1//EN" "http://www.w3.org/Graphics/SVG/1.1/DTD/svg11.dtd" >
<svg xmlns="http://www.w3.org/2000/svg" xmlns:xlink="http://www.w3.org/1999/xlink" version="1.1">
<metadata>
Created by FontForge 20160407 at Tue May 31 12:17:36 2016
 By Jimmy Wärting
Copyright 2006, 2009 for TeX Gyre extensions by B. Jackowski and J.M. Nowacki (on behalf of TeX users groups). This work is released under the GUST Font License --  see http://tug.org/fonts/licenses/GUST-FONT-LICENSE.txt for details.
</metadata>
<defs>
<font id="TeXGyreSchola-Regular" horiz-adv-x="333" >
  <font-face 
    font-family="TeXGyreSchola"
    font-weight="400"
    font-stretch="normal"
    units-per-em="1000"
    panose-1="0 0 5 0 0 0 0 0 0 0"
    ascent="798"
    descent="-202"
    x-height="466"
    cap-height="722"
    bbox="-465 -332 1342 1135"
    underline-thickness="61"
    underline-position="-104"
    stemh="36"
    stemv="94"
    unicode-range="U+0020-FB04"
  />
<missing-glyph horiz-adv-x="280" 
 />
    <glyph glyph-name="I_J" unicode="IJ" horiz-adv-x="988" 
d="M371 0h-331v47h20c81 0 90 5 90 47v534c0 42 -9 47 -90 47h-20v47h331v-47h-20c-80 0 -89 -5 -89 -47v-534c0 -42 9 -47 89 -47h20v-47zM948 675h-19c-81 0 -90 -5 -90 -47v-360c0 -220 -73 -283 -224 -283c-129 0 -199 74 -199 170c0 71 42 122 100 122
c44 0 75 -30 75 -72c0 -41 -27 -72 -63 -72c-11 0 -20 1 -37 5h-3c-7 0 -12 -7 -12 -16c0 -46 55 -90 121 -90c58 0 99 30 118 87c10 30 13 70 13 158v351c0 42 -9 47 -89 47h-19v47h328v-47z" />
    <glyph glyph-name="i_j" unicode="ij" horiz-adv-x="584" 
d="M311 0h-259v36h12c64 0 70 7 70 47v279c0 42 -6 50 -43 50h-51v43l188 11v-383c0 -40 6 -47 71 -47h12v-36zM231 610c0 -28 -23 -50 -51 -50c-26 0 -49 23 -49 50s23 50 50 50s50 -23 50 -50zM544 71c0 -113 -10 -164 -41 -208c-29 -40 -80 -65 -136 -65
c-67 0 -112 33 -112 82c0 34 24 60 56 60c28 0 52 -22 52 -47c0 -7 -2 -13 -7 -24c-4 -10 -5 -12 -5 -16c0 -7 11 -13 25 -13c21 0 45 15 55 35c14 29 19 67 19 148v339c0 43 -6 50 -43 50h-58v43l195 11v-395zM547 610c0 -28 -23 -50 -51 -50c-26 0 -49 23 -49 50
s23 50 50 50s50 -23 50 -50z" />
    <glyph glyph-name="f_k" unicode="fk" horiz-adv-x="886" 
d="M896 0h-264v36h19c33 0 44 4 44 17c0 5 -3 11 -7 18l-119 167l-61 -58v-97c0 -40 1 -47 66 -47h14v-36h-253v36h14c64 0 65 7 65 47v513c-10 -9 -22 -14 -37 -14c-31 0 -55 23 -55 53c0 18 15 42 15 45c0 11 -13 17 -34 17c-66 0 -102 -48 -102 -174v-57h110v-43h-110
v-340c0 -40 11 -47 76 -47h18v-36h-267v36h14c64 0 65 7 65 47v340h-88v43h88v31c0 170 77 240 195 240h206v-495l135 130c16 16 23 28 23 39c0 13 -15 19 -47 19h-31v36h263v-36c-68 -8 -111 -30 -169 -87l-45 -44l142 -194c41 -52 61 -64 117 -69v-36z" />
    <glyph glyph-name="f_f" unicode="ff" horiz-adv-x="626" 
d="M742 643c0 -36 -23 -61 -56 -61c-31 0 -55 23 -55 53c0 18 15 42 15 45c0 11 -13 17 -34 17c-66 0 -102 -48 -102 -174v-57h110v-43h-110v-340c0 -40 11 -47 76 -47h18v-36h-267v36h14c64 0 65 7 65 47v340h-215v-340c0 -40 11 -47 76 -47h18v-36h-267v36h14
c64 0 65 7 65 47v340h-88v43h88v31c0 170 77 240 195 240c81 0 131 -36 131 -94c0 -36 -23 -61 -56 -61c-31 0 -55 23 -55 53c0 18 15 42 15 45c0 11 -13 17 -34 17c-66 0 -102 -48 -102 -174v-57h215v31c0 170 77 240 195 240c81 0 131 -36 131 -94z" />
    <glyph glyph-name="f_i" unicode="fi" horiz-adv-x="611" 
d="M588 0h-253v36h14c65 0 66 7 66 47v271c0 65 -3 69 -43 69h-167v-341c0 -39 1 -46 65 -46h14v-36h-253v36h14c65 0 66 7 66 47v340h-95v43h95v9c0 182 104 261 247 261c91 0 148 -38 148 -97c0 -36 -25 -60 -63 -60c-35 0 -62 23 -62 52c0 21 17 45 17 49
c0 11 -16 16 -47 16c-88 0 -146 -59 -146 -209v-21h151c48 0 81 2 153 7v-391c0 -39 1 -46 65 -46h14v-36z" />
    <glyph glyph-name="f_l" unicode="fl" horiz-adv-x="611" 
d="M590 0h-259v36h17c64 0 65 7 65 47v501c-10 -3 -15 -4 -22 -4c-27 0 -47 20 -47 49c0 15 17 29 17 49c0 11 -17 19 -40 19c-80 0 -123 -48 -123 -174v-57h110v-43h-110v-340c0 -40 11 -47 76 -47h18v-36h-267v36h14c64 0 65 7 65 47v340h-88v43h88v31
c0 156 74 240 261 240h142v-654c0 -40 1 -47 66 -47h17v-36z" />
    <glyph glyph-name="f_f_i" unicode="&#xfb00;i" horiz-adv-x="904" 
d="M897 0h-253v36h14c65 0 66 7 66 47v271c0 65 -3 69 -43 69h-167v-341c0 -39 1 -46 65 -46h14v-36h-253v36h14c65 0 66 7 66 47v340h-219v-340c0 -40 11 -47 76 -47h18v-36h-267v36h14c64 0 65 7 65 47v340h-88v43h88v31c0 170 77 240 195 240c81 0 131 -36 131 -94
c0 -36 -23 -61 -56 -61c-31 0 -55 23 -55 53c0 18 15 42 15 45c0 11 -13 17 -34 17c-66 0 -102 -48 -102 -174v-57h219v9c0 182 104 261 247 261c91 0 148 -38 148 -97c0 -36 -25 -60 -63 -60c-35 0 -62 23 -62 52c0 21 17 45 17 49c0 11 -16 16 -47 16
c-88 0 -146 -59 -146 -209v-21h151c48 0 81 2 153 7v-391c0 -39 1 -46 65 -46h14v-36z" />
    <glyph glyph-name="f_f_l" unicode="ffl" horiz-adv-x="904" 
d="M899 0h-259v36h17c64 0 65 7 65 47v501c-10 -3 -15 -4 -22 -4c-27 0 -47 20 -47 49c0 15 17 29 17 49c0 11 -17 19 -40 19c-80 0 -123 -48 -123 -174v-57h110v-43h-110v-340c0 -40 11 -47 76 -47h18v-36h-267v36h14c64 0 65 7 65 47v340h-212v-340c0 -40 11 -47 76 -47
h18v-36h-267v36h14c64 0 65 7 65 47v340h-88v43h88v31c0 170 77 240 195 240c81 0 131 -36 131 -94c0 -36 -23 -61 -56 -61c-31 0 -55 23 -55 53c0 18 15 42 15 45c0 11 -13 17 -34 17c-66 0 -102 -48 -102 -174v-57h212v31c0 156 74 240 261 240h142v-654
c0 -40 1 -47 66 -47h17v-36z" />
    <glyph glyph-name=".notdef" horiz-adv-x="280" 
 />
    <glyph glyph-name="space" unicode=" " horiz-adv-x="278" 
 />
    <glyph glyph-name="exclam" unicode="!" horiz-adv-x="296" 
d="M211 641c0 -29 -4 -60 -18 -130c-19 -94 -23 -144 -24 -320h-39c-2 179 -5 226 -24 320c-14 70 -18 101 -18 131c0 62 21 94 62 94s61 -31 61 -95zM212 49c0 -35 -28 -63 -63 -63c-34 0 -62 28 -62 63c0 34 28 62 63 62c34 0 62 -28 62 -62z" />
    <glyph glyph-name="quotedbl" unicode="&#x22;" horiz-adv-x="389" 
d="M147 693c0 -6 0 -11 -1 -16l-31 -179h-22l-31 179c-1 6 -1 11 -1 17c0 24 19 42 43 42c25 0 43 -18 43 -43zM328 693c0 -5 0 -11 -1 -16l-31 -179h-22l-31 179c-1 6 -1 10 -1 16c0 25 19 43 43 43c25 0 43 -18 43 -43z" />
    <glyph glyph-name="numbersign" unicode="#" horiz-adv-x="556" 
d="M524 416h-109l-19 -132h101v-56h-109l-33 -228h-65l33 228h-123l-33 -228h-65l33 228h-102v56h110l19 132h-102v56h110l31 214h65l-31 -214h123l31 214h65l-31 -214h101v-56zM350 416h-123l-19 -132h123z" />
    <glyph glyph-name="dollar" unicode="$" horiz-adv-x="556" 
d="M510 202c0 -126 -80 -205 -212 -212v-120h-47v119c-126 6 -206 66 -206 159c0 50 30 86 71 86c34 0 61 -27 61 -62c0 -29 -12 -45 -46 -65c-6 -3 -8 -6 -8 -11c0 -31 56 -59 128 -64v279c-137 41 -193 91 -193 196c0 104 71 174 193 189v105h47v-104
c109 -8 182 -67 182 -147c0 -44 -24 -70 -62 -70c-36 0 -60 23 -60 58c0 23 7 34 36 55c3 3 6 7 6 10c0 21 -48 44 -102 49v-247c161 -54 212 -89 212 -203zM251 420v230c-71 -6 -121 -52 -121 -111c0 -58 33 -90 121 -119zM436 166c0 68 -47 107 -138 132v-265
c82 9 138 62 138 133z" />
    <glyph glyph-name="percent" unicode="%" horiz-adv-x="833" 
d="M650 722l-414 -722h-50l360 631c-37 -22 -62 -29 -96 -29c-21 0 -38 3 -63 12c2 -15 3 -23 3 -32c0 -127 -105 -261 -217 -261c-74 0 -128 52 -128 124c0 118 117 263 233 263c40 0 65 -13 91 -47c30 -17 48 -22 73 -22c64 0 122 29 162 83h46zM353 587c0 15 -1 25 -6 41
c-28 10 -43 20 -61 41c-41 -14 -54 -26 -92 -93c-47 -82 -62 -121 -62 -158c0 -35 23 -59 56 -59c80 0 165 118 165 228zM792 282c0 -108 -93 -267 -217 -267c-75 0 -130 51 -130 121c0 121 112 265 230 265c68 0 117 -50 117 -119zM754 280c0 45 -28 81 -62 81
c-31 0 -57 -22 -88 -73c-53 -86 -74 -137 -74 -177c0 -32 25 -57 56 -57c80 0 168 117 168 226z" />
    <glyph glyph-name="ampersand" unicode="&#x26;" horiz-adv-x="815" 
d="M775 163c-15 -114 -85 -174 -175 -174c-55 0 -94 18 -142 67c-65 -50 -120 -71 -192 -71c-136 0 -215 98 -215 204c0 90 61 168 173 222c-31 66 -42 105 -42 149c0 106 70 177 175 177c93 0 156 -55 156 -135c0 -91 -57 -139 -173 -191c60 -110 112 -190 161 -248
c43 50 70 108 70 151c0 31 -21 47 -80 47h-20v43h282v-43h-21c-32 -1 -51 -10 -68 -27c-18 -18 -17 -19 -66 -109c-22 -40 -24 -44 -66 -96c40 -43 73 -61 110 -61c44 0 77 38 89 101zM433 600c0 55 -33 94 -79 94c-45 0 -78 -41 -78 -99c0 -37 14 -82 43 -142
c76 38 114 77 114 147zM427 90c-85 99 -118 150 -184 280c-60 -35 -85 -72 -85 -127c0 -100 80 -190 168 -190c33 0 57 9 101 37z" />
    <glyph glyph-name="quotesingle" unicode="'" horiz-adv-x="204" 
d="M145 693c0 -6 0 -11 -1 -16l-31 -179h-22l-31 179c-1 6 -1 11 -1 17c0 24 19 42 43 42c25 0 43 -18 43 -43z" />
    <glyph glyph-name="parenleft" unicode="(" 
d="M279 -123c-169 104 -243 256 -243 430c0 176 77 326 243 429v-37c-100 -88 -140 -200 -140 -392s40 -305 140 -393v-37z" />
    <glyph glyph-name="parenright" unicode=")" 
d="M297 307c0 -177 -78 -329 -243 -430v37c100 88 140 200 140 393c0 192 -40 304 -140 392v37c167 -101 243 -255 243 -429z" />
    <glyph glyph-name="asterisk" unicode="*" horiz-adv-x="500" 
d="M443 428c0 -22 -19 -39 -42 -39c-18 0 -29 7 -44 28c-27 37 -39 49 -66 65l-31 18v-36c0 -32 3 -42 23 -90c5 -12 8 -23 8 -31c0 -21 -21 -43 -42 -43s-42 22 -42 44c0 7 3 18 8 30c22 49 24 58 24 90v36l-31 -18c-28 -17 -39 -28 -66 -66c-15 -20 -26 -27 -44 -27
c-23 0 -42 17 -42 39c0 28 18 44 52 48c47 5 60 9 89 25l31 17l-31 18c-27 16 -43 20 -89 25c-34 3 -52 20 -52 48c0 21 19 39 42 39c18 0 29 -7 44 -28c27 -37 40 -50 66 -65l31 -18v36c0 32 -2 40 -23 89c-5 12 -8 23 -8 30c0 22 20 44 41 44s42 -21 42 -44
c0 -10 -1 -14 -17 -52c-10 -22 -14 -43 -14 -67v-36l31 18c27 16 39 28 66 65c15 21 26 28 44 28c23 0 42 -17 42 -39c0 -28 -18 -44 -52 -48c-46 -5 -61 -9 -89 -25l-31 -18l31 -18c27 -16 41 -18 89 -24c34 -4 52 -20 52 -48z" />
    <glyph glyph-name="plus" unicode="+" horiz-adv-x="606" 
d="M566 210h-223v-223h-80v223h-223v80h223v223h80v-223h223v-80z" />
    <glyph glyph-name="comma" unicode="," horiz-adv-x="278" 
d="M218 9c0 -70 -42 -131 -131 -192l-23 28c67 47 101 94 101 136c0 6 -2 9 -7 9h-3c-2 -1 -12 -1 -16 -1c-41 0 -68 23 -68 59c0 34 28 60 65 60c49 0 82 -39 82 -99z" />
    <glyph glyph-name="hyphen" unicode="-" 
d="M291 195h-249v83h249v-83z" />
    <glyph glyph-name="period" unicode="." horiz-adv-x="278" 
d="M199 49c0 -35 -28 -63 -63 -63c-34 0 -62 28 -62 63c0 34 28 62 63 62c34 0 62 -28 62 -62z" />
    <glyph glyph-name="slash" unicode="/" horiz-adv-x="278" 
d="M302 736l-267 -750h-58l267 750h58z" />
    <glyph glyph-name="zero" unicode="0" horiz-adv-x="556" 
d="M514 339c0 -208 -98 -354 -238 -354c-135 0 -234 151 -234 357c0 209 102 362 242 362s230 -162 230 -365zM402 357c0 137 -9 196 -36 242c-24 40 -56 62 -89 62c-38 0 -74 -29 -97 -80c-20 -43 -27 -102 -27 -218c0 -163 8 -226 36 -273c24 -40 56 -62 89 -62
c38 0 74 30 97 79c20 44 27 110 27 250z" />
    <glyph glyph-name="one" unicode="1" horiz-adv-x="556" 
d="M496 0h-396v47h65c80 0 89 5 89 47v430c0 59 -4 63 -62 63h-88v43c92 0 184 33 218 74h36c-5 -71 -7 -119 -7 -168v-413c0 -55 0 -55 7 -62c8 -10 30 -14 83 -14h55v-47z" />
    <glyph glyph-name="two" unicode="2" horiz-adv-x="556" 
d="M505 216l-19 -216h-451v28c44 58 62 81 98 123l137 146c83 88 118 155 118 229c0 84 -50 135 -132 135c-75 0 -138 -52 -138 -103c0 -13 2 -14 39 -30c22 -9 36 -32 36 -57c0 -36 -25 -61 -62 -61c-48 0 -80 43 -80 106c0 106 98 188 225 188c130 0 225 -82 225 -195
c0 -48 -16 -94 -48 -137c-22 -30 -63 -65 -153 -135c-64 -50 -87 -71 -156 -143h224c62 0 70 7 83 71l10 51h44z" />
    <glyph glyph-name="three" unicode="3" horiz-adv-x="556" 
d="M498 188c0 -123 -95 -203 -239 -203c-128 0 -217 67 -217 164c0 52 29 88 71 88c37 0 64 -27 64 -63c0 -25 -11 -43 -39 -59c-20 -12 -22 -13 -22 -22c0 -31 68 -65 131 -65c89 0 140 59 140 162c0 99 -40 152 -114 152c-8 0 -12 -2 -71 -2c-20 0 -31 8 -31 25
c0 18 11 27 32 27c17 0 48 -3 62 -3c72 0 110 49 110 142c0 85 -38 130 -110 130c-56 0 -115 -30 -115 -58c0 -6 3 -11 13 -18c23 -16 31 -30 31 -51c0 -36 -24 -60 -59 -60c-38 0 -66 29 -66 70c0 91 89 160 206 160c124 0 204 -68 204 -172c0 -82 -49 -134 -133 -164
c103 -29 152 -86 152 -180z" />
    <glyph glyph-name="four" unicode="4" horiz-adv-x="556" 
d="M527 175h-121v-81c0 -42 -1 -47 80 -47h14v-47h-292v47h21c81 0 80 5 80 47v81h-281v56l340 473h43c-5 -75 -5 -75 -5 -200v-273h121v-56zM309 231v303l-220 -303h220z" />
    <glyph glyph-name="five" unicode="5" horiz-adv-x="556" 
d="M502 224c0 -147 -99 -239 -256 -239c-123 0 -201 75 -201 164c0 47 32 84 72 84c36 0 63 -27 63 -62c0 -27 -9 -40 -40 -59c-12 -7 -18 -15 -18 -22c0 -31 62 -62 122 -62c107 0 149 71 149 190c0 114 -54 183 -143 183c-40 0 -73 -11 -108 -36c-4 -40 -20 -61 -45 -61
c-19 0 -32 14 -32 34c0 16 7 29 28 51c14 124 23 231 27 315c105 -25 142 -30 206 -30c57 0 84 5 133 26c5 3 10 4 13 4c5 0 8 -3 8 -9c0 -8 -4 -17 -15 -36c-33 -55 -95 -85 -180 -85c-39 0 -67 4 -121 17l-17 -170c55 23 87 30 129 30c135 0 226 -91 226 -227z" />
    <glyph glyph-name="six" unicode="6" horiz-adv-x="556" 
d="M516 224c0 -129 -97 -239 -230 -239c-148 0 -244 128 -244 323c0 205 105 396 292 396c94 0 164 -51 164 -120c0 -42 -28 -72 -66 -72c-35 0 -61 25 -61 59c0 14 5 28 15 47c4 7 5 10 5 14c0 18 -21 29 -56 29c-64 0 -116 -41 -145 -112c-22 -52 -27 -84 -37 -209
c47 63 97 90 165 90c113 0 198 -88 198 -206zM407 217c0 95 -44 152 -116 152c-81 0 -131 -63 -131 -166c0 -99 57 -175 128 -175c73 0 119 74 119 189z" />
    <glyph glyph-name="seven" unicode="7" horiz-adv-x="556" 
d="M508 671c-6 -13 -9 -22 -10 -24l-45 -94c-96 -212 -121 -290 -121 -410c0 -12 1 -25 1 -38c0 -86 -17 -119 -66 -119c-39 0 -63 29 -63 74c0 42 17 105 47 180c24 61 34 77 108 227l68 137l-62 -1c-46 0 -133 7 -193 7c-29 0 -36 -10 -51 -76l-18 -79l-44 7l31 242
c109 -7 177 -10 262 -10c61 0 94 1 156 6v-29z" />
    <glyph glyph-name="eight" unicode="8" horiz-adv-x="556" 
d="M513 201c0 -126 -92 -216 -246 -216c-139 0 -226 74 -226 183c0 83 43 136 146 176c-81 43 -113 96 -113 169c0 110 89 191 211 191c115 0 199 -67 199 -159c0 -65 -35 -114 -110 -155c97 -44 139 -102 139 -189zM410 539c0 73 -51 122 -128 122
c-79 0 -131 -43 -131 -106c0 -58 35 -97 116 -126l66 -24c57 48 77 82 77 134zM433 159c0 66 -32 105 -108 132l-92 33c-78 -36 -109 -81 -109 -156c0 -88 55 -140 148 -140c98 0 161 51 161 131z" />
    <glyph glyph-name="nine" unicode="9" horiz-adv-x="556" 
d="M513 374c0 -207 -104 -389 -294 -389c-92 0 -162 50 -162 116c0 40 30 72 68 72c33 0 59 -26 59 -59c0 -14 -2 -20 -14 -44c-4 -8 -6 -13 -6 -17c0 -15 23 -25 56 -25c67 0 122 43 148 117c18 51 23 81 36 202c-54 -68 -96 -91 -167 -91c-114 0 -198 88 -198 207
c0 135 101 241 229 241c149 0 245 -129 245 -330zM395 475c0 112 -49 186 -123 186c-76 0 -124 -70 -124 -180c0 -106 43 -165 119 -165c73 0 128 54 128 159z" />
    <glyph glyph-name="colon" unicode=":" horiz-adv-x="278" 
d="M211 49c0 -35 -28 -63 -63 -63c-34 0 -62 28 -62 63c0 34 28 62 63 62c34 0 62 -28 62 -62zM211 411c0 -35 -28 -63 -63 -63c-34 0 -62 28 -62 63c0 34 28 62 63 62c34 0 62 -28 62 -62z" />
    <glyph glyph-name="semicolon" unicode=";" horiz-adv-x="278" 
d="M226 9c0 -70 -42 -131 -131 -192l-23 28c67 47 101 94 101 136c0 6 -2 9 -7 9h-3c-2 -1 -12 -1 -16 -1c-41 0 -68 23 -68 59c0 34 28 60 65 60c49 0 82 -39 82 -99zM212 410c0 -35 -28 -63 -63 -63c-34 0 -62 28 -62 63c0 34 28 62 63 62c34 0 62 -28 62 -62z" />
    <glyph glyph-name="less" unicode="&#x3c;" horiz-adv-x="606" 
d="M526 -10l-463 224v72l463 224v-88l-354 -172l354 -172v-88z" />
    <glyph glyph-name="equal" unicode="=" horiz-adv-x="606" 
d="M566 300h-526v80h526v-80zM566 120h-526v80h526v-80z" />
    <glyph glyph-name="greater" unicode="&#x3e;" horiz-adv-x="606" 
d="M526 214l-463 -224v88l354 172l-354 172v88l463 -224v-72z" />
    <glyph glyph-name="question" unicode="?" horiz-adv-x="444" 
d="M411 562c0 -69 -22 -105 -120 -191c-64 -56 -74 -81 -74 -180h-44v32c0 47 4 73 14 101c12 35 14 34 87 136c20 28 32 68 32 108c0 77 -41 123 -112 123c-48 0 -92 -24 -92 -50c0 -12 45 -43 45 -75c0 -31 -25 -55 -57 -55c-37 0 -65 33 -65 77c0 86 82 148 195 148
c114 0 191 -70 191 -174zM255 48c0 -35 -28 -63 -63 -63c-34 0 -62 28 -62 63c0 34 28 62 63 62c34 0 62 -28 62 -62z" />
    <glyph glyph-name="at" unicode="@" horiz-adv-x="737" 
d="M705 435c0 -140 -112 -288 -228 -288c-41 0 -69 26 -69 65c0 7 0 12 1 20c-39 -58 -68 -79 -108 -79c-68 0 -125 60 -125 149c0 121 101 241 201 241c38 0 66 -24 78 -65l16 56h88l-73 -289c-3 -12 -4 -22 -4 -30c0 -14 11 -24 26 -24c62 0 145 126 145 237
c0 133 -112 257 -259 257c-171 0 -295 -136 -295 -324c0 -189 125 -324 300 -324c99 0 182 52 238 151h61c-47 -109 -169 -202 -307 -202c-197 0 -348 160 -348 370c0 217 153 380 346 380c174 0 316 -135 316 -301zM436 430c0 44 -17 72 -45 72c-71 0 -125 -157 -125 -231
c0 -49 18 -78 48 -78c61 0 122 145 122 237z" />
    <glyph glyph-name="A" unicode="A" horiz-adv-x="722" 
d="M731 0h-310v47h42c37 0 62 10 62 26c0 5 -2 12 -8 27l-54 134h-265l-33 -88c-6 -16 -9 -30 -9 -42c0 -38 27 -57 81 -57h20v-47h-265v47h14c50 0 64 15 100 106l230 583h42l255 -625c23 -56 29 -64 79 -64h19v-47zM442 288l-113 284l-111 -284h224z" />
    <glyph glyph-name="B" unicode="B" horiz-adv-x="722" 
d="M670 196c0 -122 -104 -196 -277 -196h-363v47h18c81 0 90 5 90 47v534c0 42 -9 47 -90 47h-18v47h359c151 0 243 -60 243 -176c0 -82 -52 -146 -162 -169c136 -24 200 -82 200 -181zM516 533c0 94 -42 142 -160 142h-40c-52 0 -66 -11 -66 -50v-228h89
c128 0 177 38 177 136zM547 199c0 110 -54 151 -209 151h-88v-240c0 -55 7 -63 58 -63h42c138 0 197 34 197 152z" />
    <glyph glyph-name="C" unicode="C" horiz-adv-x="722" 
d="M668 247c-23 -168 -125 -262 -285 -262c-197 0 -338 154 -338 369c0 209 155 383 339 383c67 0 106 -15 177 -67l40 59h53v-289h-44c-23 77 -38 116 -57 149c-38 64 -100 101 -170 101c-139 0 -206 -122 -206 -340c0 -215 70 -318 218 -318c118 0 197 68 226 223z" />
    <glyph glyph-name="D" unicode="D" horiz-adv-x="778" 
d="M732 365c0 -234 -121 -365 -367 -365h-336v47h19c80 0 89 5 89 47v534c0 42 -9 47 -89 47h-19v47h318c114 0 188 -16 243 -51c92 -60 142 -171 142 -306zM600 361c0 221 -71 314 -242 314h-52c-50 0 -57 -7 -57 -56v-517c0 -49 7 -55 57 -55h68c161 0 226 90 226 314z
" />
    <glyph glyph-name="E" unicode="E" horiz-adv-x="722" 
d="M663 267l-20 -267h-614v47h18c81 0 90 5 90 47v534c0 42 -9 47 -90 47h-18v47h615v-256h-43c-29 175 -71 209 -237 209h-52c-54 0 -63 -7 -63 -50v-228h24c95 0 135 39 140 137h47v-328h-47c-3 94 -20 144 -144 144h-20v-255c0 -42 21 -48 72 -48h66
c156 0 201 55 232 220h44z" />
    <glyph glyph-name="F" unicode="F" horiz-adv-x="667" 
d="M638 466h-44c-28 171 -71 209 -236 209h-46c-54 0 -63 -7 -63 -50v-228h24c95 0 135 39 140 137h47v-328h-47c-3 95 -20 144 -144 144h-20v-256c0 -42 9 -47 90 -47h33v-47h-343v47h18c81 0 90 5 90 47v534c0 42 -9 47 -90 47h-18v47h609v-256z" />
    <glyph glyph-name="G" unicode="G" horiz-adv-x="778" 
d="M772 282h-15c-54 0 -75 -4 -84 -14c-6 -7 -6 -8 -6 -62v-220h-42l-37 90c-65 -65 -124 -91 -208 -91c-189 0 -338 148 -338 363c0 200 140 389 349 389c73 0 117 -17 182 -69l39 61h52v-281h-43c-41 160 -120 242 -234 242c-139 0 -213 -119 -213 -342
c0 -207 76 -316 216 -316c110 0 174 68 174 190c0 55 -7 60 -91 60h-19v47h318v-47z" />
    <glyph glyph-name="H" unicode="H" horiz-adv-x="833" 
d="M804 0h-328v47h18c81 0 90 5 90 47v253h-335v-253c0 -42 9 -47 90 -47h19v-47h-329v47h18c81 0 90 5 90 47v534c0 42 -9 47 -90 47h-18v47h329v-47h-19c-81 0 -90 -5 -90 -47v-227h335v227c0 42 -9 47 -90 47h-14v47h324v-47h-18c-81 0 -90 -5 -90 -47v-534
c0 -42 9 -47 90 -47h18v-47z" />
    <glyph glyph-name="I" unicode="I" horiz-adv-x="407" 
d="M369 0h-331v47h20c81 0 90 5 90 47v534c0 42 -9 47 -90 47h-20v47h331v-47h-20c-80 0 -89 -5 -89 -47v-534c0 -42 9 -47 89 -47h20v-47z" />
    <glyph glyph-name="J" unicode="J" horiz-adv-x="556" 
d="M537 675h-19c-81 0 -90 -5 -90 -47v-360c0 -220 -73 -283 -224 -283c-129 0 -199 74 -199 170c0 71 42 122 100 122c44 0 75 -30 75 -72c0 -41 -27 -72 -63 -72c-11 0 -20 1 -37 5h-3c-7 0 -12 -7 -12 -16c0 -46 55 -90 121 -90c58 0 99 30 118 87c10 30 13 70 13 158
v351c0 42 -9 47 -89 47h-19v47h328v-47z" />
    <glyph glyph-name="K" unicode="K" horiz-adv-x="778" 
d="M803 0h-342v47h31c49 0 68 7 68 23c0 10 -4 18 -20 42l-174 255l-116 -117v-156c0 -42 9 -47 90 -47h19v-47h-329v47h18c81 0 90 5 90 47v534c0 42 -9 47 -90 47h-18v47h329v-47h-19c-81 0 -90 -5 -90 -47v-301l245 246c29 29 49 58 49 72c0 21 -19 30 -65 30h-25v47h308
v-47c-60 0 -121 -29 -169 -80l-149 -149l242 -349c29 -43 41 -50 98 -50h19v-47z" />
    <glyph glyph-name="L" unicode="L" horiz-adv-x="667" 
d="M646 274l-21 -274h-590v47h18c81 0 90 5 90 47v534c0 42 -9 47 -90 47h-18v47h328v-47h-18c-81 0 -90 -5 -90 -47v-533c0 -42 21 -48 72 -48h42c167 0 210 72 233 227h44z" />
    <glyph glyph-name="M" unicode="M" horiz-adv-x="944" 
d="M913 0h-328v47h18c81 0 90 4 90 47v564l-223 -658h-40l-238 658v-442c0 -136 20 -165 115 -169v-47h-285v47c96 4 116 33 116 169v412c0 42 -9 47 -90 47h-19v47h258l192 -533l183 533h251v-47h-18c-81 0 -90 -5 -90 -47v-534c0 -43 9 -47 90 -47h18v-47z" />
    <glyph glyph-name="N" unicode="N" horiz-adv-x="815" 
d="M794 675c-96 -4 -116 -33 -116 -170v-519h-42l-446 602v-371c0 -137 20 -166 115 -170v-47h-285v47c96 4 116 33 116 170v425c-18 25 -41 33 -92 33h-25v47h206l399 -531v314c0 137 -20 166 -115 170v47h285v-47z" />
    <glyph glyph-name="O" unicode="O" horiz-adv-x="778" 
d="M733 361c0 -214 -148 -376 -344 -376c-195 0 -344 162 -344 375c0 204 140 377 348 377c192 0 340 -164 340 -376zM601 361c0 230 -77 329 -209 329c-142 0 -215 -101 -215 -327c0 -230 73 -331 212 -331c138 0 212 101 212 329z" />
    <glyph glyph-name="P" unicode="P" horiz-adv-x="667" 
d="M649 524c0 -79 -40 -143 -111 -177c-40 -19 -87 -26 -177 -26h-113v-227c0 -42 9 -47 90 -47h26v-47h-336v47h18c81 0 90 5 90 47v534c0 42 -9 47 -90 47h-18v47h350c184 0 271 -74 271 -198zM526 520c0 106 -49 155 -153 155h-64c-55 0 -61 -5 -61 -51v-256h121
c106 0 157 49 157 152z" />
    <glyph glyph-name="Q" unicode="Q" horiz-adv-x="778" 
d="M748 -20c0 -105 -47 -169 -128 -169c-82 0 -132 69 -136 189c-33 -11 -55 -15 -89 -15c-195 0 -350 166 -350 375c0 196 145 377 343 377c193 0 346 -163 346 -368c0 -128 -54 -240 -158 -326c34 -109 58 -151 87 -151c25 0 35 24 40 88h45zM602 363
c0 212 -63 327 -212 327c-158 0 -213 -144 -213 -330c0 -116 19 -196 59 -249c-1 8 -1 15 -1 18c0 80 60 136 144 136s145 -52 171 -146c38 62 52 127 52 244zM480 54v10c0 98 -38 154 -106 154c-55 0 -93 -40 -93 -99c0 -55 39 -87 105 -87c39 0 63 6 94 22z" />
    <glyph glyph-name="R" unicode="R" horiz-adv-x="722" 
d="M713 160c-3 -120 -42 -175 -124 -175c-78 0 -117 46 -128 159l-5 51c-12 119 -63 155 -152 155h-58v-256c0 -42 9 -47 90 -47h18v-47h-328v47h18c81 0 90 5 90 47v534c0 42 -9 47 -90 47h-18v47h346c168 0 264 -65 264 -179c0 -101 -69 -159 -213 -179
c79 -20 116 -62 139 -154l16 -63c17 -69 25 -86 50 -86c27 0 39 30 43 99h42zM513 542c0 91 -45 133 -144 133h-54c-64 0 -69 -3 -69 -33v-245h110c100 0 157 39 157 145z" />
    <glyph glyph-name="S" unicode="S" horiz-adv-x="630" 
d="M590 205c0 -134 -94 -220 -241 -220c-87 0 -143 20 -210 75l-45 -68h-39l-4 285h43c15 -77 36 -124 78 -171c47 -52 100 -75 174 -75c55 0 88 11 121 40c30 27 45 60 45 100c0 39 -16 72 -46 95c-21 16 -28 18 -102 37l-95 24c-147 38 -201 92 -201 201
c0 125 88 209 219 209c71 0 135 -24 182 -69l40 60h37l12 -260h-43c-13 51 -31 93 -60 134c-40 57 -97 87 -167 87c-85 0 -142 -48 -142 -118c0 -61 42 -100 131 -123l107 -27c80 -20 119 -37 146 -63c39 -38 60 -91 60 -153z" />
    <glyph glyph-name="T" unicode="T" horiz-adv-x="667" 
d="M648 444h-43c-8 57 -18 100 -33 137c-25 60 -74 94 -135 94c-33 0 -47 -11 -47 -36v-545c0 -42 9 -47 89 -47h26v-47h-343v47h26c81 0 90 5 90 47v545c0 25 -14 36 -47 36c-68 0 -116 -38 -142 -111c-11 -32 -20 -70 -27 -120h-43l15 278h599z" />
    <glyph glyph-name="U" unicode="U" horiz-adv-x="815" 
d="M799 675c-96 -4 -116 -33 -116 -170v-227c0 -211 -103 -293 -283 -293c-164 0 -277 64 -277 216v427c0 42 -9 47 -89 47h-17v47h327v-47h-19c-81 0 -90 -5 -90 -47v-364c0 -143 44 -225 192 -225c155 0 202 102 202 245v221c0 137 -20 166 -115 170v47h285v-47z" />
    <glyph glyph-name="V" unicode="V" horiz-adv-x="722" 
d="M731 675h-18c-57 0 -71 -20 -101 -98l-230 -592h-40l-253 634c-19 46 -33 56 -77 56h-20v47h312v-47h-40c-45 0 -62 -7 -62 -25c0 -6 3 -18 8 -30l183 -465l155 412c7 19 12 42 12 56c0 32 -30 52 -81 52h-19v47h271v-47z" />
    <glyph glyph-name="W" unicode="W" horiz-adv-x="981" 
d="M976 675h-14c-55 0 -68 -22 -91 -103l-176 -587h-41l-162 497l-148 -497h-43l-216 651c-12 35 -18 39 -60 39h-19v47h282v-47h-45c-32 0 -43 -5 -43 -20c0 -5 2 -16 5 -25l144 -448l116 384l-26 78c-8 24 -22 31 -63 31h-23v47h289v-47h-16c-70 0 -72 -10 -72 -27
c0 -7 1 -9 7 -28l138 -438l120 406c4 11 6 25 6 35c0 35 -18 52 -76 52h-18v47h245v-47z" />
    <glyph glyph-name="X" unicode="X" horiz-adv-x="704" 
d="M716 0h-328v47h28c63 0 67 3 67 18c0 8 -5 19 -13 31l-149 211l-116 -168c-10 -15 -16 -31 -16 -44c0 -30 25 -48 65 -48h25v-47h-284v47h14c52 -1 81 25 121 80l162 225l-197 285c-23 33 -35 38 -84 38h-17v47h309v-47h-38c-38 0 -48 -3 -48 -13c0 -5 4 -15 11 -25
l133 -192l108 157c11 16 14 23 14 34c0 27 -11 39 -59 39h-24v47h275v-47h-16c-53 0 -82 -19 -137 -94l-133 -181l210 -301c34 -49 39 -52 103 -52h14v-47z" />
    <glyph glyph-name="Y" unicode="Y" horiz-adv-x="704" 
d="M713 675h-16c-59 0 -83 -21 -130 -107l-149 -269v-205c0 -43 8 -47 89 -47h26v-47h-343v47h26c81 0 90 5 90 47v193l-216 342c-23 37 -38 46 -81 46h-22v47h321v-47h-59c-27 0 -39 -6 -39 -19c0 -7 3 -16 11 -28l168 -271l124 221c11 20 17 37 17 52c0 32 -23 45 -78 45
h-23v47h284v-47z" />
    <glyph glyph-name="Z" unicode="Z" horiz-adv-x="611" 
d="M575 278l-18 -278h-533v36l409 639h-130c-134 0 -173 -39 -205 -206h-45l20 253h496v-36l-411 -639h166c65 0 119 19 144 52c29 36 46 86 60 179h47z" />
    <glyph glyph-name="bracketleft" unicode="[" 
d="M297 -108h-231v830h231v-37h-141v-757h141v-36z" />
    <glyph glyph-name="backslash" unicode="\" horiz-adv-x="606" 
d="M532 0h-58l-400 737h58z" />
    <glyph glyph-name="bracketright" unicode="]" 
d="M266 -108h-230v37h140v757h-140v36h230v-830z" />
    <glyph glyph-name="asciicircum" unicode="^" horiz-adv-x="606" 
d="M554 318h-87l-163 311l-165 -311h-87l209 404h85z" />
    <glyph glyph-name="underscore" unicode="_" horiz-adv-x="500" 
d="M500 -134h-500v61h500v-61z" />
    <glyph glyph-name="grave" unicode="`" 
d="M242 524h-41l-159 97c-15 9 -25 25 -25 39c0 19 16 35 35 35c15 0 25 -6 50 -31z" />
    <glyph glyph-name="a" unicode="a" horiz-adv-x="556" 
d="M543 51c0 -29 -47 -58 -92 -58c-47 0 -72 20 -88 71c-43 -51 -105 -79 -174 -79c-88 0 -145 46 -145 117c0 98 81 147 314 187v39c0 88 -41 110 -108 110c-48 0 -89 -18 -89 -39c0 -5 22 -36 22 -54c0 -30 -23 -51 -54 -51c-35 0 -58 24 -58 62c0 72 83 125 195 125
c115 0 186 -31 186 -159v-201c0 -50 10 -69 38 -69c6 0 29 11 43 11c5 0 10 -5 10 -12zM358 200v46c-173 -29 -213 -59 -213 -130c0 -45 34 -78 79 -78c43 0 89 25 114 62c17 26 20 40 20 100z" />
    <glyph glyph-name="b" unicode="b" horiz-adv-x="556" 
d="M520 236c0 -144 -92 -251 -215 -251c-62 0 -109 25 -150 79l-49 -78h-38c13 59 18 124 18 258v389c0 43 -6 50 -43 50h-35v43l172 11v-334c38 57 75 78 136 78c120 0 204 -101 204 -245zM415 226c0 131 -42 204 -117 204c-80 0 -123 -73 -123 -206
c0 -123 47 -196 126 -196c73 0 114 72 114 198z" />
    <glyph glyph-name="c" unicode="c" horiz-adv-x="444" 
d="M426 132c-43 -106 -94 -147 -183 -147c-124 0 -209 98 -209 240c0 149 93 256 223 256c89 0 156 -52 156 -119c0 -40 -26 -68 -61 -68s-60 23 -60 56c0 17 4 27 20 46c4 6 6 9 6 12c0 16 -26 30 -56 30c-74 0 -123 -81 -123 -202c0 -117 50 -190 130 -190
c52 0 86 29 118 101z" />
    <glyph glyph-name="d" unicode="d" horiz-adv-x="574" 
d="M554 0l-174 -7v79c-32 -60 -75 -87 -138 -87c-116 0 -199 101 -199 243c0 144 86 253 199 253c58 0 101 -23 138 -74v226c0 43 -7 50 -43 50h-59v43l196 11v-621c0 -63 8 -73 62 -73h18v-43zM379 231c0 48 -7 90 -19 120c-18 46 -57 76 -98 76s-78 -29 -95 -73
c-13 -34 -19 -79 -19 -138c0 -111 43 -177 113 -177c72 0 118 76 118 192z" />
    <glyph glyph-name="e" unicode="e" horiz-adv-x="500" 
d="M465 127c-41 -95 -109 -142 -204 -142c-135 0 -226 95 -226 235c0 150 96 261 224 261c123 0 206 -106 206 -256h-324c0 -126 56 -186 139 -186c67 0 109 30 150 107zM358 305c0 80 -40 133 -101 133s-115 -63 -115 -170h175c32 0 41 8 41 37z" />
    <glyph glyph-name="f" unicode="f" 
d="M433 643c0 -36 -23 -61 -56 -61c-31 0 -55 23 -55 53c0 18 15 42 15 45c0 11 -13 17 -34 17c-66 0 -102 -48 -102 -174v-57h110v-43h-110v-340c0 -40 11 -47 76 -47h18v-36h-267v36h14c64 0 65 7 65 47v340h-88v43h88v31c0 170 77 240 195 240c81 0 131 -36 131 -94z" />
    <glyph glyph-name="g" unicode="g" horiz-adv-x="537" 
d="M542 437c0 -27 -20 -48 -45 -48c-43 0 -44 51 -55 51c-8 0 -17 -6 -34 -24c28 -33 37 -58 37 -98c0 -66 -34 -118 -94 -145c-33 -15 -48 -17 -143 -19c-67 -2 -94 -15 -94 -45c0 -11 5 -22 12 -26c12 -6 15 -9 70 -9h102c69 0 101 -4 127 -14c37 -15 60 -55 60 -105
c0 -105 -84 -158 -251 -158c-134 0 -211 37 -211 103c0 41 30 73 92 95c-47 16 -67 42 -67 86c0 55 28 85 95 100c-52 24 -84 75 -84 134c0 100 78 166 197 166c50 0 82 -10 124 -38c46 42 64 52 96 52c39 0 66 -24 66 -58zM353 317c0 77 -35 121 -98 121
c-67 0 -105 -45 -105 -124c0 -75 39 -122 101 -122c64 0 102 47 102 125zM415 -72c0 32 -25 54 -65 58c-15 2 -21 2 -104 2h-74c-48 -25 -66 -47 -66 -80c0 -45 48 -70 132 -70c112 0 177 33 177 90z" />
    <glyph glyph-name="h" unicode="h" horiz-adv-x="611" 
d="M593 0h-253v36h14c65 0 66 7 66 47v201c0 49 -7 79 -22 101c-15 20 -45 35 -71 35c-43 0 -88 -31 -109 -76c-11 -23 -18 -68 -18 -118v-143c0 -40 1 -47 66 -47h14v-36h-253v36h14c64 0 65 7 65 47v550c0 43 -6 50 -43 50h-48v43l185 11v-353c45 67 94 97 158 97
c60 0 110 -29 135 -77c18 -34 21 -52 21 -124v-197c0 -40 1 -47 65 -47h14v-36z" />
    <glyph glyph-name="i" unicode="i" horiz-adv-x="315" 
d="M289 0h-259v36h12c64 0 70 7 70 47v279c0 42 -6 50 -43 50h-51v43l188 11v-383c0 -40 6 -47 71 -47h12v-36zM209 610c0 -28 -23 -50 -51 -50c-26 0 -49 23 -49 50s23 50 50 50s50 -23 50 -50z" />
    <glyph glyph-name="j" unicode="j" horiz-adv-x="296" 
d="M207 71c0 -113 -10 -164 -41 -208c-29 -40 -80 -65 -136 -65c-67 0 -112 33 -112 82c0 34 24 60 56 60c28 0 52 -22 52 -47c0 -7 -2 -13 -7 -24c-4 -10 -5 -12 -5 -16c0 -7 11 -13 25 -13c21 0 45 15 55 35c14 29 19 67 19 148v339c0 43 -6 50 -43 50h-58v43l195 11v-395
zM210 610c0 -28 -23 -50 -51 -50c-26 0 -49 23 -49 50s23 50 50 50s50 -23 50 -50z" />
    <glyph glyph-name="k" unicode="k" horiz-adv-x="593" 
d="M587 0h-264v36h19c33 0 44 4 44 17c0 5 -3 11 -7 18l-119 167l-61 -58v-97c0 -40 1 -47 66 -47h14v-36h-253v36h14c64 0 65 7 65 47v550c0 43 -6 50 -43 50h-48v43l185 11v-495l135 130c16 16 23 28 23 39c0 13 -15 19 -47 19h-31v36h263v-36c-68 -8 -111 -30 -169 -87
l-45 -44l142 -194c41 -52 61 -64 117 -69v-36z" />
    <glyph glyph-name="l" unicode="l" horiz-adv-x="315" 
d="M287 0h-259v36h17c64 0 65 7 65 47v550c0 43 -6 50 -42 50h-49v43l185 11v-654c0 -40 1 -47 66 -47h17v-36z" />
    <glyph glyph-name="m" unicode="m" horiz-adv-x="889" 
d="M868 0h-253v36h14c65 0 66 7 66 47v204c0 39 -3 61 -12 83c-13 31 -40 50 -73 50c-70 0 -115 -64 -115 -164v-173c0 -40 1 -47 65 -47h14v-36h-253v36h14c65 0 66 7 66 47v215c0 41 -6 70 -20 89c-12 19 -40 33 -66 33c-65 0 -114 -66 -114 -155v-181c0 -41 1 -48 65 -48
h14v-36h-252v36h14c64 0 65 7 65 48v278c0 43 -6 50 -43 50h-41v43l178 11v-77c39 63 84 92 144 92c67 0 121 -40 138 -100c43 69 91 100 156 100c48 0 89 -20 118 -57c26 -34 32 -55 32 -117v-223c0 -41 1 -48 65 -48h14v-36z" />
    <glyph glyph-name="n" unicode="n" horiz-adv-x="611" 
d="M593 0h-253v36h14c65 0 66 7 66 47v202c0 48 -7 79 -22 100c-15 20 -45 35 -71 35c-43 0 -88 -31 -109 -76c-11 -23 -18 -68 -18 -117v-144c0 -40 1 -47 66 -47h14v-36h-253v36h14c64 0 65 7 65 47v279c0 43 -6 50 -43 50h-36v43l173 11v-81c44 66 94 96 158 96
c59 0 110 -29 135 -77c18 -34 21 -52 21 -124v-197c0 -40 1 -47 65 -47h14v-36z" />
    <glyph glyph-name="o" unicode="o" horiz-adv-x="500" 
d="M466 233c0 -138 -96 -248 -216 -248s-216 110 -216 247c0 140 96 249 218 249c118 0 214 -111 214 -248zM361 233c0 132 -39 205 -109 205c-75 0 -113 -70 -113 -206c0 -132 39 -204 111 -204s111 72 111 205z" />
    <glyph glyph-name="p" unicode="p" horiz-adv-x="574" 
d="M535 235c0 -143 -86 -250 -202 -250c-61 0 -99 23 -132 81v-185c0 -40 8 -47 73 -47h14v-36h-260v36h14c64 0 65 7 65 47v481c0 43 -6 50 -43 50h-36v43l173 11v-71c35 60 76 86 138 86c110 0 196 -108 196 -246zM430 241c0 117 -40 186 -109 186
c-76 0 -121 -75 -121 -199c0 -115 47 -189 118 -189s112 73 112 202z" />
    <glyph glyph-name="q" unicode="q" horiz-adv-x="556" 
d="M548 -202h-260v36h13c65 0 74 7 74 47v177c-40 -55 -74 -73 -136 -73c-117 0 -203 100 -203 237c0 148 92 259 214 259c63 0 112 -27 152 -83l47 68h37c-11 -52 -14 -66 -16 -85l-1 -72v-428c0 -40 1 -47 65 -47h14v-36zM375 244c0 57 -6 93 -21 126
c-19 42 -55 68 -95 68c-79 0 -118 -70 -118 -210c0 -120 43 -189 117 -189c78 0 117 68 117 205z" />
    <glyph glyph-name="r" unicode="r" horiz-adv-x="444" 
d="M435 401c0 -41 -25 -68 -61 -68c-32 0 -55 23 -55 55c0 19 4 29 18 45c-42 -5 -76 -36 -100 -92c-25 -57 -39 -133 -39 -208v-50c0 -40 11 -47 75 -47h19v-36h-267v36h14c65 0 66 7 66 47v279c0 43 -6 50 -43 50h-41v43l177 11v-124c32 88 87 139 150 139
c53 0 87 -32 87 -80z" />
    <glyph glyph-name="s" unicode="s" horiz-adv-x="463" 
d="M421 139c0 -93 -65 -154 -163 -154c-50 0 -96 16 -137 49l-35 -41h-35v189h40c24 -100 84 -154 168 -154c59 0 100 33 100 80c0 40 -28 60 -107 79l-53 12c-60 14 -83 24 -106 45c-22 20 -35 53 -35 92c0 87 58 145 146 145c50 0 86 -12 122 -40l29 36h35v-168h-35
c-16 46 -27 66 -49 88c-28 27 -59 40 -97 40c-55 0 -93 -29 -93 -69c0 -22 13 -43 35 -53c18 -10 18 -10 73 -22l50 -11c61 -13 81 -21 105 -42c28 -23 42 -57 42 -101z" />
    <glyph glyph-name="t" unicode="t" horiz-adv-x="389" 
d="M374 159c0 -95 -49 -174 -148 -174c-59 0 -97 23 -114 65c-10 23 -12 47 -12 118v255h-82v39c81 6 125 72 135 202h41v-198h147v-43h-147v-273c0 -79 13 -104 59 -104c49 0 75 46 78 136h42c1 -10 1 -17 1 -23z" />
    <glyph glyph-name="u" unicode="u" horiz-adv-x="611" 
d="M594 0l-182 -7v83c-44 -64 -90 -91 -156 -91c-60 0 -108 23 -135 64c-15 23 -19 46 -19 97v216c0 43 -6 50 -43 50h-38v43l175 11v-305c0 -55 2 -65 15 -84c13 -20 39 -31 70 -31c49 0 89 26 110 70c15 33 21 66 21 123v123c0 43 -6 50 -43 50h-51v43l188 11v-350
c0 -64 8 -73 63 -73h25v-43z" />
    <glyph glyph-name="v" unicode="v" horiz-adv-x="537" 
d="M528 430h-14c-38 0 -56 -28 -83 -94l-142 -351h-35l-172 402c-15 34 -22 43 -60 43h-14v36h236v-36h-14c-41 0 -54 -6 -54 -23c0 -6 2 -15 5 -21l114 -265l92 232c6 15 8 31 9 42c0 23 -19 35 -54 35h-14v36h200v-36z" />
    <glyph glyph-name="w" unicode="w" horiz-adv-x="778" 
d="M763 430h-13c-35 0 -46 -17 -68 -76l-140 -369h-31l-122 316l-119 -316h-35l-150 396c-14 40 -24 49 -52 49h-18v36h220v-36h-18c-30 0 -41 -6 -41 -23c0 -6 2 -15 4 -22l97 -251l88 233l-9 26c-10 29 -20 37 -52 37h-17v36h224v-36h-24c-33 0 -42 -5 -42 -23
c0 -9 1 -14 4 -21l98 -257l85 228c4 12 8 27 8 37c0 25 -14 36 -49 36h-17v36h189v-36z" />
    <glyph glyph-name="x" unicode="x" horiz-adv-x="537" 
d="M529 0h-252v36h13c38 0 47 5 47 18c0 7 -6 20 -13 30l-76 101l-84 -101c-5 -5 -8 -14 -8 -21c0 -17 6 -27 49 -27h15v-36h-211v36h16c29 0 52 19 80 52l115 134l-122 154c-33 42 -46 51 -83 54v36h237v-36h-16c-31 0 -42 -5 -42 -18c0 -6 4 -15 10 -22l77 -98l63 75
c13 16 20 31 20 41c0 14 -15 22 -45 22h-19v36h207v-36h-15c-26 0 -45 -14 -69 -42l-114 -133l126 -170c26 -35 45 -49 80 -49h14v-36z" />
    <glyph glyph-name="y" unicode="y" horiz-adv-x="537" 
d="M531 430h-12c-38 0 -53 -20 -78 -81l-114 -282c-45 -111 -64 -151 -95 -193c-40 -54 -85 -80 -138 -80c-52 0 -91 33 -91 77c0 36 25 62 60 62c29 0 51 -19 51 -45c0 -11 -7 -28 -7 -35c0 -6 7 -10 16 -10c32 0 78 53 115 129l17 35l-163 369c-18 40 -34 54 -66 54h-13
v36h238v-36h-21c-34 0 -46 -7 -46 -25c0 -5 2 -12 6 -21l110 -257l91 226c7 17 10 30 10 40c0 26 -16 37 -54 37h-16v36h200v-36z" />
    <glyph glyph-name="z" unicode="z" horiz-adv-x="481" 
d="M435 179l-7 -179h-389v36l273 387h-87c-82 0 -118 -36 -127 -126h-40l9 169h361v-36l-273 -387h102c90 0 128 37 138 136h40z" />
    <glyph glyph-name="braceleft" unicode="{" 
d="M297 -108h-26c-89 0 -129 31 -129 150v116c0 114 -15 112 -76 133v32c64 21 76 21 76 133v116c0 119 40 150 129 150h26v-34c-65 -4 -81 -30 -81 -126v-130c0 -69 -13 -92 -67 -125c54 -33 67 -56 67 -125v-130c0 -96 16 -122 81 -126v-34z" />
    <glyph glyph-name="bar" unicode="|" horiz-adv-x="606" 
d="M343 -108h-80v830h80v-830z" />
    <glyph glyph-name="braceright" unicode="}" 
d="M267 291c-65 -21 -77 -21 -77 -133v-116c0 -121 -41 -150 -129 -150h-25v34c64 4 80 30 80 126v130c0 69 13 92 67 125c-54 33 -67 56 -67 125v130c0 96 -16 122 -80 126v34h25c88 0 129 -29 129 -150v-116c0 -111 13 -112 77 -133v-32z" />
    <glyph glyph-name="asciitilde" unicode="~" horiz-adv-x="606" 
d="M555 272c-37 -65 -92 -107 -140 -107c-24 0 -51 7 -99 31l-46 23c-57 28 -61 27 -80 28c-28 0 -59 -24 -86 -65l-53 38c37 65 92 107 140 107c25 0 47 -7 99 -32l46 -22c53 -26 60 -29 80 -28c28 0 59 24 86 65z" />
    <glyph glyph-name="uni00A0" unicode="&#xa0;" 
 />
    <glyph glyph-name="exclamdown" unicode="&#xa1;" horiz-adv-x="296" 
d="M208 -176c0 -62 -21 -94 -62 -94s-61 31 -61 95c0 29 4 60 18 130c19 94 23 144 24 320h39c2 -179 5 -226 24 -320c14 -70 18 -101 18 -131zM209 417c0 -34 -28 -62 -63 -62c-34 0 -62 28 -62 62c0 35 28 63 63 63c34 0 62 -28 62 -63z" />
    <glyph glyph-name="cent" unicode="&#xa2;" horiz-adv-x="556" 
d="M479 133c-33 -98 -96 -148 -186 -148c-18 0 -33 2 -52 6l-52 -132h-43l57 145c-83 36 -132 117 -132 220c0 151 97 257 236 257c30 0 53 -4 78 -13l46 117h43l-53 -135c28 -20 49 -58 49 -90c0 -35 -30 -65 -65 -65c-16 0 -26 4 -39 15l-99 -254c19 -6 29 -8 45 -8
c61 0 101 31 128 99zM367 421c-12 11 -32 17 -56 17c-85 0 -136 -74 -136 -198c0 -76 20 -133 56 -164z" />
    <glyph glyph-name="sterling" unicode="&#xa3;" horiz-adv-x="556" 
d="M537 147c-23 -105 -82 -162 -166 -162c-50 0 -95 17 -153 59c-39 -42 -71 -59 -114 -59c-51 0 -87 33 -87 80c0 51 38 86 94 86c25 0 46 -6 85 -23c5 20 7 31 7 44c0 43 -8 82 -33 153h-134v47h120c-20 71 -25 96 -25 134c0 118 80 198 198 198c102 0 177 -60 177 -142
c0 -49 -30 -84 -72 -84c-35 0 -60 25 -60 59c0 28 11 41 47 59c11 5 15 10 15 17c0 24 -46 48 -92 48c-71 0 -114 -44 -114 -118c0 -30 3 -46 33 -171h169v-47h-160c7 -34 10 -56 10 -87c0 -50 -9 -96 -27 -132c54 -26 84 -34 121 -34c65 0 98 24 126 90zM178 75
c-32 25 -53 35 -77 35c-23 0 -43 -19 -43 -42c0 -24 22 -43 49 -43c29 0 50 14 71 50z" />
    <glyph glyph-name="currency" unicode="&#xa4;" horiz-adv-x="556" 
d="M530 144l-51 -51l-51 51c-43 -33 -95 -50 -147 -50c-53 0 -108 19 -151 52l-53 -53l-51 51l53 53c-34 46 -52 97 -52 151c0 52 18 106 50 147l-51 50l51 52l51 -51c44 33 94 50 147 50c54 0 105 -18 151 -52l53 53l51 -52l-53 -52c34 -44 52 -97 52 -151
s-17 -104 -50 -147zM447 345c0 93 -76 169 -169 169s-169 -76 -169 -169c0 -92 76 -169 167 -169c96 0 171 75 171 169z" />
    <glyph glyph-name="yen" unicode="&#xa5;" horiz-adv-x="556" 
d="M557 675h-14c-44 0 -54 -20 -90 -107l-97 -236h101v-47h-115v-86h115v-47h-115v-29c0 -54 0 -54 5 -62c6 -10 23 -14 63 -14h19v-47h-285v47h19c61 0 67 5 67 48v57h-116v47h116v86h-116v47h95l-137 297c-18 38 -22 46 -53 46h-20v47h233v-47h-24c-20 0 -28 -5 -28 -19
c0 -7 3 -18 8 -28l125 -271l91 221c7 17 13 37 12 53c0 31 -14 44 -46 44h-17v47h204v-47z" />
    <glyph glyph-name="brokenbar" unicode="&#xa6;" horiz-adv-x="606" 
d="M343 390h-80v332h80v-332zM343 -108h-80v332h80v-332z" />
    <glyph glyph-name="section" unicode="&#xa7;" horiz-adv-x="500" 
d="M448 282c0 -79 -56 -140 -127 -140c-4 0 -10 0 -18 1c72 -58 103 -97 103 -159c0 -75 -64 -132 -151 -132c-77 0 -143 51 -143 111c0 31 24 55 55 55c32 0 55 -21 55 -50c0 -19 -7 -30 -27 -45c-5 -4 -8 -8 -8 -11c0 -13 32 -27 63 -27c50 0 87 29 87 69
c0 35 -17 58 -91 119l-78 64c-80 66 -110 114 -110 178c0 74 55 131 125 131h17c-73 71 -95 96 -95 158c0 77 61 132 147 132c77 0 142 -51 142 -110c0 -31 -24 -55 -55 -55c-32 0 -55 21 -55 49c0 26 35 49 35 56c0 14 -31 27 -63 27c-47 0 -82 -30 -82 -70
c0 -28 19 -54 68 -95l110 -92c52 -45 96 -105 96 -164zM382 240c0 40 -28 81 -93 135c-36 29 -68 44 -93 44c-41 0 -72 -31 -72 -73c0 -37 15 -60 71 -111c51 -47 86 -67 119 -67c36 0 68 34 68 72z" />
    <glyph glyph-name="dieresis" unicode="&#xa8;" 
d="M117 610c0 -28 -23 -50 -51 -50c-26 0 -49 23 -49 50s23 50 50 50s50 -23 50 -50zM316 610c0 -28 -23 -50 -51 -50c-26 0 -49 23 -49 50s23 50 50 50s50 -23 50 -50z" />
    <glyph glyph-name="copyright" unicode="&#xa9;" horiz-adv-x="737" 
d="M718 334c0 -192 -157 -348 -349 -348s-348 156 -348 348s156 349 348 349s349 -157 349 -349zM674 334c0 168 -137 305 -305 305s-304 -137 -304 -305s136 -304 304 -304s305 136 305 304zM550 277c-13 -90 -72 -140 -165 -140c-114 0 -197 80 -197 193
c0 110 91 200 198 200c38 0 60 -7 100 -33l22 29h34v-154h-30c-13 41 -21 61 -32 78c-21 33 -56 51 -95 51c-77 0 -111 -63 -111 -173c0 -108 36 -162 118 -162c67 0 111 36 126 116z" />
    <glyph glyph-name="ordfeminine" unicode="&#xaa;" horiz-adv-x="334" 
d="M329 473c0 -17 -31 -35 -60 -35c-30 0 -46 12 -56 42c-29 -30 -69 -47 -114 -47c-57 0 -94 27 -94 70c0 58 51 88 204 112v24c0 48 -23 65 -71 65c-31 0 -57 -10 -57 -23c0 -4 14 -23 14 -32c0 -18 -15 -31 -35 -31c-23 0 -38 15 -38 37c0 43 54 75 127 75
c72 0 121 -17 121 -95v-121c0 -29 7 -41 24 -41c3 0 19 7 28 7c4 0 7 -3 7 -7zM209 562v28c-106 -17 -138 -35 -138 -79c0 -27 22 -47 51 -47c46 0 87 25 87 98zM283 329h-260v40h260v-40z" />
    <glyph glyph-name="guillemotleft" unicode="&#xab;" horiz-adv-x="426" 
d="M388 390c0 -12 -94 -144 -96 -147c84 -119 95 -137 95 -147c0 -6 -6 -11 -12 -11c-7 -1 -12 5 -22 15l-87 85l-41 39c-7 7 -13 13 -20 19l110 106c50 48 54 53 62 53c6 0 11 -6 11 -12zM220 96c0 -6 -6 -11 -12 -11c-7 -1 -12 5 -22 15l-87 85l-41 39c-7 7 -13 13 -20 19
l148 144c11 10 16 15 23 15c6 0 11 -6 11 -12c1 -9 -12 -25 -44 -72l-51 -75c84 -119 95 -137 95 -147z" />
    <glyph glyph-name="logicalnot" unicode="&#xac;" horiz-adv-x="606" 
d="M566 380v-220h-80v140h-446v80h526z" />
    <glyph glyph-name="uni00AD" unicode="&#xad;" 
d="M291 195h-249v83h249v-83z" />
    <glyph glyph-name="registered" unicode="&#xae;" horiz-adv-x="737" 
d="M718 334c0 -192 -157 -348 -349 -348s-348 156 -348 348s156 349 348 349s349 -157 349 -349zM674 334c0 168 -137 305 -305 305s-304 -137 -304 -305s136 -304 304 -304s305 136 305 304zM566 236c-1 -65 -24 -95 -73 -95c-47 0 -72 23 -78 85l-3 26
c-7 58 -33 78 -81 78h-27v-130c0 -19 4 -22 45 -22h12v-29h-189v29h11c41 0 46 3 46 22v276c0 19 -5 21 -46 21h-11v30h198c98 0 155 -34 155 -95c0 -51 -37 -81 -113 -93c39 -12 59 -34 71 -79l9 -32c9 -33 12 -43 23 -43c15 0 20 16 22 51h29zM444 431c0 45 -23 66 -76 66
h-31c-31 0 -33 -1 -33 -14v-124h57c54 0 83 20 83 72z" />
    <glyph glyph-name="macron" unicode="&#xaf;" 
d="M323 583h-313v54h313v-54z" />
    <glyph glyph-name="degree" unicode="&#xb0;" horiz-adv-x="400" 
d="M350 533c0 -86 -66 -153 -150 -153s-150 68 -150 154c0 85 68 152 153 152c83 0 147 -67 147 -153zM293 533c0 53 -41 96 -91 96c-54 0 -96 -43 -96 -96s43 -96 94 -96c52 0 93 42 93 96z" />
    <glyph glyph-name="plusminus" unicode="&#xb1;" horiz-adv-x="606" 
d="M566 290h-223v-138h-80v138h-223v80h223v223h80v-223h223v-80zM566 0h-526v80h526v-80z" />
    <glyph glyph-name="two.superior" unicode="&#xb2;" 
d="M319 424l-12 -135h-294v22c53 65 20 31 149 159c52 51 74 90 74 133c0 48 -30 76 -80 76c-44 0 -84 -28 -84 -57c0 -8 48 -16 48 -52c0 -23 -18 -39 -43 -39c-32 0 -54 27 -54 66c0 65 63 115 146 115c84 0 145 -50 145 -119c0 -57 -25 -89 -127 -163
c-41 -30 -53 -40 -93 -78h136c36 0 40 4 48 39l7 33h34z" />
    <glyph glyph-name="three.superior" unicode="&#xb3;" 
d="M314 403c0 -74 -63 -123 -156 -123c-82 0 -140 42 -140 101c0 33 20 56 49 56c24 0 43 -18 43 -41c0 -19 -7 -27 -33 -42c-4 -2 -5 -6 -5 -6c0 -16 43 -35 79 -35c55 0 85 33 85 92c0 57 -24 86 -69 86c-3 1 -19 -1 -45 -1c-14 0 -22 7 -22 19s9 19 24 19c3 0 9 0 14 -1
l24 -1c45 -2 67 27 67 80c0 48 -23 73 -66 73c-32 0 -69 -16 -69 -30c0 -8 27 -23 27 -41c0 -23 -17 -39 -41 -39c-26 0 -45 19 -45 45c0 56 58 98 134 98c81 0 133 -41 133 -105c0 -49 -30 -74 -76 -97c56 -15 88 -54 88 -107z" />
    <glyph glyph-name="acute" unicode="&#xb4;" 
d="M316 660c0 -14 -10 -30 -25 -39l-159 -97h-41l140 140c25 25 35 31 50 31c19 0 35 -16 35 -35z" />
    <glyph glyph-name="uni00B5" unicode="&#xb5;" horiz-adv-x="611" 
d="M594 0l-182 -7v83c-43 -64 -90 -91 -154 -91c-50 0 -87 17 -117 54c0 -47 0 -51 12 -92c16 -57 19 -71 19 -92c0 -44 -20 -74 -49 -74s-50 30 -50 72c0 23 1 30 17 91c8 29 12 55 12 76v342c0 43 -6 50 -43 50h-38v43l175 11v-305c0 -55 2 -65 15 -84
c13 -20 39 -31 70 -31c49 0 89 26 110 70c15 33 21 66 21 123v123c0 43 -6 50 -43 50h-51v43l188 11v-350c0 -64 8 -73 63 -73h25v-43z" />
    <glyph glyph-name="paragraph" unicode="&#xb6;" horiz-adv-x="606" 
d="M557 -144h-359v36h4c38 0 61 5 69 14c6 8 6 8 6 73v345h-30c-129 0 -198 69 -198 199c0 124 60 199 173 199h335v-36c-59 -3 -65 -8 -65 -47v-660c0 -65 0 -65 7 -73c7 -9 15 -11 58 -14v-36zM277 357v329c-69 0 -92 -31 -92 -123v-82c0 -79 22 -124 80 -124h12z
M427 -107v793h-85v-793h85z" />
    <glyph glyph-name="periodcentered" unicode="&#xb7;" horiz-adv-x="278" 
d="M201 250c0 -34 -28 -62 -62 -62s-62 28 -62 62s28 62 62 62s62 -28 62 -62z" />
    <glyph glyph-name="cedilla" unicode="&#xb8;" 
d="M237 -128c0 -51 -49 -87 -120 -87c-32 0 -60 6 -88 17l14 33c24 -8 42 -12 61 -12c35 0 57 16 57 40c0 23 -19 39 -47 39c-9 0 -22 -2 -34 -5l-9 5l44 103h35l-24 -68c14 2 21 3 29 3c49 0 82 -28 82 -68z" />
    <glyph glyph-name="one.superior" unicode="&#xb9;" 
d="M294 289h-255v35h43c31 0 45 2 50 7c3 3 3 5 3 34v237c0 33 -1 34 -36 34h-59v33c60 0 119 18 141 43h28c-4 -46 -5 -73 -5 -102v-245c0 -29 0 -30 3 -34c5 -5 19 -7 49 -7h38v-35z" />
    <glyph glyph-name="ordmasculine" unicode="&#xba;" horiz-adv-x="300" 
d="M291 578c0 -86 -58 -145 -143 -145c-81 0 -138 61 -138 148c0 84 61 149 142 149c78 0 139 -66 139 -152zM223 587c0 75 -25 117 -71 117c-50 0 -74 -40 -74 -125c0 -78 25 -120 72 -120c49 0 73 42 73 128zM281 329h-260v40h260v-40z" />
    <glyph glyph-name="guillemotright" unicode="&#xbb;" horiz-adv-x="426" 
d="M221 243l-61 -58l-48 -47l-39 -38c-10 -11 -16 -15 -23 -15c-6 0 -11 5 -11 11c0 10 12 29 95 147c-82 118 -95 138 -95 147c0 6 6 12 12 12s12 -4 22 -15l58 -57zM388 243l-61 -58l-48 -47l-39 -38c-10 -11 -16 -15 -23 -15c-6 0 -11 5 -11 11c0 10 12 29 95 147
c-82 118 -95 138 -95 147c0 6 6 12 12 12s12 -4 22 -15l58 -57z" />
    <glyph glyph-name="onequarter" unicode="&#xbc;" horiz-adv-x="834" 
d="M711 708l-502 -708h-54l502 708h54zM795 103h-77v-44c0 -23 1 -23 59 -24v-35h-191v35h11c49 0 53 2 53 24v44h-177v37l216 283h32c-3 -50 -3 -50 -3 -122v-158h77v-40zM294 289h-255v35h43c49 0 53 0 53 41v237c0 33 -1 34 -36 34h-59v33c60 0 119 18 141 43h28
c-4 -46 -5 -73 -5 -102v-245c0 -41 3 -41 52 -41h38v-35zM650 143v165l-127 -165h127z" />
    <glyph glyph-name="onehalf" unicode="&#xbd;" horiz-adv-x="834" 
d="M705 708l-502 -708h-54l502 708h54zM294 289h-255v35h43c49 0 53 0 53 41v237c0 33 -1 34 -36 34h-59v33c60 0 119 18 141 43h28c-4 -46 -5 -73 -5 -102v-245c0 -41 3 -41 52 -41h38v-35zM821 135l-12 -135h-294v22c42 52 69 83 112 123c77 71 111 117 111 169
c0 48 -30 76 -80 76c-44 0 -84 -28 -84 -57c0 -8 48 -16 48 -52c0 -23 -18 -39 -43 -39c-32 0 -54 27 -54 66c0 65 63 115 146 115c84 0 145 -50 145 -119c0 -57 -25 -89 -127 -163c-40 -29 -53 -40 -93 -78h136c36 0 40 4 48 39l7 33h34z" />
    <glyph glyph-name="threequarters" unicode="&#xbe;" horiz-adv-x="834" 
d="M721 708l-502 -708h-54l502 708h54zM795 103h-77v-44c0 -23 1 -23 59 -24v-35h-191v35h11c49 0 53 2 53 24v44h-177v37l216 283h32c-3 -50 -3 -50 -3 -122v-158h77v-40zM324 403c0 -74 -63 -123 -156 -123c-82 0 -140 42 -140 101c0 33 20 56 49 56c24 0 43 -18 43 -41
c0 -19 -7 -27 -33 -42c-4 -2 -5 -6 -5 -6c0 -16 43 -35 79 -35c55 0 85 33 85 92c0 57 -24 86 -69 86c-3 1 -19 -1 -45 -1c-14 0 -22 7 -22 19s9 19 24 19c3 0 9 0 14 -1l24 -1c45 -2 67 27 67 80c0 48 -23 73 -66 73c-32 0 -69 -16 -69 -30c0 -8 27 -23 27 -41
c0 -23 -17 -39 -41 -39c-26 0 -45 19 -45 45c0 56 58 98 134 98c81 0 133 -41 133 -105c0 -49 -30 -74 -76 -97c56 -15 88 -54 88 -107zM650 143v165l-127 -165h127z" />
    <glyph glyph-name="questiondown" unicode="&#xbf;" horiz-adv-x="444" 
d="M419 -122c0 -86 -82 -148 -195 -148c-114 0 -191 70 -191 174c0 69 22 105 120 191c64 56 74 81 74 180h44v-32c0 -47 -4 -73 -14 -101c-12 -35 -14 -34 -87 -136c-20 -28 -32 -68 -32 -108c0 -77 41 -123 112 -123c48 0 92 24 92 50c0 12 -45 43 -45 75
c0 31 25 55 57 55c37 0 65 -33 65 -77zM314 418c0 -34 -28 -62 -63 -62c-34 0 -62 28 -62 62c0 35 28 63 63 63c34 0 62 -28 62 -63z" />
    <glyph glyph-name="Agrave" unicode="&#xc0;" horiz-adv-x="722" 
d="M731 0h-310v47h42c37 0 62 10 62 26c0 5 -2 12 -8 27l-54 134h-265l-33 -88c-6 -16 -9 -30 -9 -42c0 -38 27 -57 81 -57h20v-47h-265v47h14c50 0 64 15 100 106l230 583h42l255 -625c23 -56 29 -64 79 -64h19v-47zM442 288l-113 284l-111 -284h224zM459 769h-49l-191 88
c-18 9 -30 22 -30 35c0 17 19 31 42 31c18 0 30 -5 60 -28z" />
    <glyph glyph-name="Aacute" unicode="&#xc1;" horiz-adv-x="722" 
d="M731 0h-310v47h42c37 0 62 10 62 26c0 5 -2 12 -8 27l-54 134h-265l-33 -88c-6 -16 -9 -30 -9 -42c0 -38 27 -57 81 -57h20v-47h-265v47h14c50 0 64 15 100 106l230 583h42l255 -625c23 -56 29 -64 79 -64h19v-47zM442 288l-113 284l-111 -284h224zM525 892
c0 -13 -12 -26 -30 -35l-191 -88h-49l168 126c30 23 42 28 60 28c23 0 42 -14 42 -31z" />
    <glyph glyph-name="Acircumflex" unicode="&#xc2;" horiz-adv-x="722" 
d="M731 0h-310v47h42c37 0 62 10 62 26c0 5 -2 12 -8 27l-54 134h-265l-33 -88c-6 -16 -9 -30 -9 -42c0 -38 27 -57 81 -57h20v-47h-265v47h14c50 0 64 15 100 106l230 583h42l255 -625c23 -56 29 -64 79 -64h19v-47zM442 288l-113 284l-111 -284h224zM545 771h-44l-144 91
l-145 -91h-43l150 150h76z" />
    <glyph glyph-name="Atilde" unicode="&#xc3;" horiz-adv-x="722" 
d="M731 0h-310v47h42c37 0 62 10 62 26c0 5 -2 12 -8 27l-54 134h-265l-33 -88c-6 -16 -9 -30 -9 -42c0 -38 27 -57 81 -57h20v-47h-265v47h14c50 0 64 15 100 106l230 583h42l255 -625c23 -56 29 -64 79 -64h19v-47zM442 288l-113 284l-111 -284h224zM523 899
c-7 -63 -51 -106 -108 -106c-26 0 -38 4 -89 28c-19 9 -38 14 -52 14c-23 0 -40 -15 -47 -42h-35c13 62 51 101 100 101c23 0 31 -2 86 -27c34 -15 45 -19 59 -19c23 0 45 22 51 51h35z" />
    <glyph glyph-name="Adieresis" unicode="&#xc4;" horiz-adv-x="722" 
d="M731 0h-310v47h42c37 0 62 10 62 26c0 5 -2 12 -8 27l-54 134h-265l-33 -88c-6 -16 -9 -30 -9 -42c0 -38 27 -57 81 -57h20v-47h-265v47h14c50 0 64 15 100 106l230 583h42l255 -625c23 -56 29 -64 79 -64h19v-47zM442 288l-113 284l-111 -284h224zM308 846
c0 -28 -23 -50 -51 -50c-26 0 -49 23 -49 50s23 50 50 50s50 -23 50 -50zM507 846c0 -28 -23 -50 -51 -50c-26 0 -49 23 -49 50s23 50 50 50s50 -23 50 -50z" />
    <glyph glyph-name="Aring" unicode="&#xc5;" horiz-adv-x="722" 
d="M731 0h-310v47h42c37 0 62 10 62 26c0 5 -2 12 -8 27l-54 134h-265l-33 -88c-6 -16 -9 -30 -9 -42c0 -38 27 -57 81 -57h20v-47h-265v47h14c50 0 64 15 100 106l230 583h42l255 -625c23 -56 29 -64 79 -64h19v-47zM442 288l-113 284l-111 -284h224zM457 862
c0 -56 -45 -100 -101 -100c-53 0 -98 45 -98 100c0 54 45 99 99 99c55 0 100 -45 100 -99zM421 862c0 34 -29 63 -63 63c-35 0 -64 -29 -64 -63c0 -35 29 -64 63 -64c36 0 64 28 64 64z" />
    <glyph glyph-name="AE" unicode="&#xc6;" horiz-adv-x="1000" 
d="M963 267l-20 -267h-584v47h19c81 0 90 5 90 47v175h-239l-71 -130c-10 -18 -14 -34 -14 -46c0 -31 17 -46 69 -46h20v-47h-233v47c34 7 56 25 89 85l247 444c8 15 13 31 13 45c0 40 -14 54 -82 54h-27v47h693l14 -256h-43c-30 177 -73 209 -237 209h-24
c-54 0 -63 -7 -63 -50v-228h28c80 0 120 39 125 137h47v-328h-47c-3 94 -20 144 -129 144h-24v-255c0 -42 21 -48 72 -48h35c157 0 200 56 233 220h43zM468 323v325c0 20 -2 23 -10 23c-7 0 -10 -4 -17 -18l-183 -330h210z" />
    <glyph glyph-name="Ccedilla" unicode="&#xc7;" horiz-adv-x="722" 
d="M668 247c-23 -167 -125 -262 -281 -262c-11 0 -21 0 -41 2l-19 -51c15 2 21 3 30 3c48 0 81 -28 81 -68c0 -51 -49 -87 -121 -87c-30 0 -59 5 -87 17l14 33c24 -8 43 -12 62 -12c34 0 56 16 56 40c0 23 -19 39 -47 39c-9 0 -21 -2 -34 -6l-8 5l39 92
c-162 27 -267 186 -267 362c0 209 155 383 339 383c67 0 106 -15 177 -67l40 59h53v-289h-44c-23 77 -38 116 -57 149c-38 64 -100 101 -170 101c-139 0 -206 -122 -206 -340c0 -215 70 -318 218 -318c118 0 197 68 226 223z" />
    <glyph glyph-name="Egrave" unicode="&#xc8;" horiz-adv-x="722" 
d="M663 267l-20 -267h-614v47h18c81 0 90 5 90 47v534c0 42 -9 47 -90 47h-18v47h615v-256h-43c-29 175 -71 209 -237 209h-52c-54 0 -63 -7 -63 -50v-228h24c95 0 135 39 140 137h47v-328h-47c-3 94 -20 144 -144 144h-20v-255c0 -42 21 -48 72 -48h66
c156 0 201 55 232 220h44zM463 769h-49l-191 88c-18 9 -30 22 -30 35c0 17 19 31 42 31c18 0 30 -5 60 -28z" />
    <glyph glyph-name="Eacute" unicode="&#xc9;" horiz-adv-x="722" 
d="M663 267l-20 -267h-614v47h18c81 0 90 5 90 47v534c0 42 -9 47 -90 47h-18v47h615v-256h-43c-29 175 -71 209 -237 209h-52c-54 0 -63 -7 -63 -50v-228h24c95 0 135 39 140 137h47v-328h-47c-3 94 -20 144 -144 144h-20v-255c0 -42 21 -48 72 -48h66
c156 0 201 55 232 220h44zM529 892c0 -13 -12 -26 -30 -35l-191 -88h-49l168 126c30 23 42 28 60 28c23 0 42 -14 42 -31z" />
    <glyph glyph-name="Ecircumflex" unicode="&#xca;" horiz-adv-x="722" 
d="M663 267l-20 -267h-614v47h18c81 0 90 5 90 47v534c0 42 -9 47 -90 47h-18v47h615v-256h-43c-29 175 -71 209 -237 209h-52c-54 0 -63 -7 -63 -50v-228h24c95 0 135 39 140 137h47v-328h-47c-3 94 -20 144 -144 144h-20v-255c0 -42 21 -48 72 -48h66
c156 0 201 55 232 220h44zM549 771h-44l-144 91l-145 -91h-43l150 150h76z" />
    <glyph glyph-name="Edieresis" unicode="&#xcb;" horiz-adv-x="722" 
d="M663 267l-20 -267h-614v47h18c81 0 90 5 90 47v534c0 42 -9 47 -90 47h-18v47h615v-256h-43c-29 175 -71 209 -237 209h-52c-54 0 -63 -7 -63 -50v-228h24c95 0 135 39 140 137h47v-328h-47c-3 94 -20 144 -144 144h-20v-255c0 -42 21 -48 72 -48h66
c156 0 201 55 232 220h44zM312 846c0 -28 -23 -50 -51 -50c-26 0 -49 23 -49 50s23 50 50 50s50 -23 50 -50zM511 846c0 -28 -23 -50 -51 -50c-26 0 -49 23 -49 50s23 50 50 50s50 -23 50 -50z" />
    <glyph glyph-name="Igrave" unicode="&#xcc;" horiz-adv-x="407" 
d="M369 0h-331v47h20c81 0 90 5 90 47v534c0 42 -9 47 -90 47h-20v47h331v-47h-20c-80 0 -89 -5 -89 -47v-534c0 -42 9 -47 89 -47h20v-47zM305 769h-49l-191 88c-18 9 -30 22 -30 35c0 17 19 31 42 31c18 0 30 -5 60 -28z" />
    <glyph glyph-name="Iacute" unicode="&#xcd;" horiz-adv-x="407" 
d="M369 0h-331v47h20c81 0 90 5 90 47v534c0 42 -9 47 -90 47h-20v47h331v-47h-20c-80 0 -89 -5 -89 -47v-534c0 -42 9 -47 89 -47h20v-47zM372 892c0 -13 -12 -26 -30 -35l-191 -88h-49l168 126c30 23 42 28 60 28c23 0 42 -14 42 -31z" />
    <glyph glyph-name="Icircumflex" unicode="&#xce;" horiz-adv-x="407" 
d="M369 0h-331v47h20c81 0 90 5 90 47v534c0 42 -9 47 -90 47h-20v47h331v-47h-20c-80 0 -89 -5 -89 -47v-534c0 -42 9 -47 89 -47h20v-47zM392 771h-44l-144 91l-145 -91h-43l150 150h76z" />
    <glyph glyph-name="Idieresis" unicode="&#xcf;" horiz-adv-x="407" 
d="M369 0h-331v47h20c81 0 90 5 90 47v534c0 42 -9 47 -90 47h-20v47h331v-47h-20c-80 0 -89 -5 -89 -47v-534c0 -42 9 -47 89 -47h20v-47zM154 846c0 -28 -23 -50 -51 -50c-26 0 -49 23 -49 50s23 50 50 50s50 -23 50 -50zM353 846c0 -28 -23 -50 -51 -50
c-26 0 -49 23 -49 50s23 50 50 50s50 -23 50 -50z" />
    <glyph glyph-name="Eth" unicode="&#xd0;" horiz-adv-x="778" 
d="M732 361c0 -230 -122 -361 -367 -361h-336v47h19c80 0 89 5 89 47v256h-108v47h108v231c0 42 -9 47 -89 47h-19v47h318c114 0 189 -16 243 -51c90 -58 142 -173 142 -310zM600 361c0 221 -71 314 -241 314h-53c-50 0 -57 -7 -57 -56v-222h180v-47h-180v-248
c0 -49 7 -55 57 -55h68c162 0 226 89 226 314z" />
    <glyph glyph-name="Ntilde" unicode="&#xd1;" horiz-adv-x="815" 
d="M794 675c-96 -4 -116 -33 -116 -170v-519h-42l-446 602v-371c0 -137 20 -166 115 -170v-47h-285v47c96 4 116 33 116 170v425c-18 25 -41 33 -92 33h-25v47h206l399 -531v314c0 137 -20 166 -115 170v47h285v-47zM573 899c-7 -63 -51 -106 -108 -106c-26 0 -38 4 -89 28
c-19 9 -38 14 -52 14c-23 0 -40 -15 -47 -42h-35c13 62 51 101 100 101c23 0 31 -2 86 -27c34 -15 45 -19 59 -19c23 0 45 22 51 51h35z" />
    <glyph glyph-name="Ograve" unicode="&#xd2;" horiz-adv-x="778" 
d="M733 361c0 -214 -148 -376 -344 -376c-195 0 -344 162 -344 375c0 204 140 377 348 377c192 0 340 -164 340 -376zM601 361c0 230 -77 329 -209 329c-142 0 -215 -101 -215 -327c0 -230 73 -331 212 -331c138 0 212 101 212 329zM491 769h-49l-191 88
c-18 9 -30 22 -30 35c0 17 19 31 42 31c18 0 30 -5 60 -28z" />
    <glyph glyph-name="Oacute" unicode="&#xd3;" horiz-adv-x="778" 
d="M733 361c0 -214 -148 -376 -344 -376c-195 0 -344 162 -344 375c0 204 140 377 348 377c192 0 340 -164 340 -376zM601 361c0 230 -77 329 -209 329c-142 0 -215 -101 -215 -327c0 -230 73 -331 212 -331c138 0 212 101 212 329zM557 892c0 -13 -12 -26 -30 -35l-191 -88
h-49l168 126c30 23 42 28 60 28c23 0 42 -14 42 -31z" />
    <glyph glyph-name="Ocircumflex" unicode="&#xd4;" horiz-adv-x="778" 
d="M733 361c0 -214 -148 -376 -344 -376c-195 0 -344 162 -344 375c0 204 140 377 348 377c192 0 340 -164 340 -376zM601 361c0 230 -77 329 -209 329c-142 0 -215 -101 -215 -327c0 -230 73 -331 212 -331c138 0 212 101 212 329zM577 771h-44l-144 91l-145 -91h-43
l150 150h76z" />
    <glyph glyph-name="Otilde" unicode="&#xd5;" horiz-adv-x="778" 
d="M733 361c0 -214 -148 -376 -344 -376c-195 0 -344 162 -344 375c0 204 140 377 348 377c192 0 340 -164 340 -376zM601 361c0 230 -77 329 -209 329c-142 0 -215 -101 -215 -327c0 -230 73 -331 212 -331c138 0 212 101 212 329zM555 899c-7 -63 -51 -106 -108 -106
c-26 0 -38 4 -89 28c-19 9 -38 14 -52 14c-23 0 -40 -15 -47 -42h-35c13 62 51 101 100 101c23 0 31 -2 86 -27c34 -15 45 -19 59 -19c23 0 45 22 51 51h35z" />
    <glyph glyph-name="Odieresis" unicode="&#xd6;" horiz-adv-x="778" 
d="M733 361c0 -214 -148 -376 -344 -376c-195 0 -344 162 -344 375c0 204 140 377 348 377c192 0 340 -164 340 -376zM601 361c0 230 -77 329 -209 329c-142 0 -215 -101 -215 -327c0 -230 73 -331 212 -331c138 0 212 101 212 329zM340 846c0 -28 -23 -50 -51 -50
c-26 0 -49 23 -49 50s23 50 50 50s50 -23 50 -50zM539 846c0 -28 -23 -50 -51 -50c-26 0 -49 23 -49 50s23 50 50 50s50 -23 50 -50z" />
    <glyph glyph-name="multiply" unicode="&#xd7;" horiz-adv-x="606" 
d="M517 92l-56 -56l-158 157l-158 -157l-56 56l157 158l-157 158l56 56l158 -157l158 157l56 -56l-157 -158z" />
    <glyph glyph-name="Oslash" unicode="&#xd8;" horiz-adv-x="778" 
d="M733 366c0 -195 -139 -381 -346 -381c-77 0 -141 23 -204 73l-99 -134h-54l121 164c-66 69 -107 173 -107 272c0 196 146 377 347 377c72 0 133 -20 194 -63l65 88h54l-86 -117c72 -72 115 -177 115 -279zM542 616c-37 50 -88 74 -154 74c-139 0 -212 -116 -212 -337
c0 -82 10 -145 30 -190zM601 372c0 95 -10 151 -35 203l-337 -455c37 -58 91 -88 161 -88c142 0 211 115 211 340z" />
    <glyph glyph-name="Ugrave" unicode="&#xd9;" horiz-adv-x="815" 
d="M799 675c-96 -4 -116 -33 -116 -170v-227c0 -211 -103 -293 -283 -293c-164 0 -277 64 -277 216v427c0 42 -9 47 -89 47h-17v47h327v-47h-19c-81 0 -90 -5 -90 -47v-364c0 -143 44 -225 192 -225c155 0 202 102 202 245v221c0 137 -20 166 -115 170v47h285v-47zM509 769
h-49l-191 88c-18 9 -30 22 -30 35c0 17 19 31 42 31c18 0 30 -5 60 -28z" />
    <glyph glyph-name="Uacute" unicode="&#xda;" horiz-adv-x="815" 
d="M799 675c-96 -4 -116 -33 -116 -170v-227c0 -211 -103 -293 -283 -293c-164 0 -277 64 -277 216v427c0 42 -9 47 -89 47h-17v47h327v-47h-19c-81 0 -90 -5 -90 -47v-364c0 -143 44 -225 192 -225c155 0 202 102 202 245v221c0 137 -20 166 -115 170v47h285v-47zM576 892
c0 -13 -12 -26 -30 -35l-191 -88h-49l168 126c30 23 42 28 60 28c23 0 42 -14 42 -31z" />
    <glyph glyph-name="Ucircumflex" unicode="&#xdb;" horiz-adv-x="815" 
d="M799 675c-96 -4 -116 -33 -116 -170v-227c0 -211 -103 -293 -283 -293c-164 0 -277 64 -277 216v427c0 42 -9 47 -89 47h-17v47h327v-47h-19c-81 0 -90 -5 -90 -47v-364c0 -143 44 -225 192 -225c155 0 202 102 202 245v221c0 137 -20 166 -115 170v47h285v-47zM596 771
h-44l-144 91l-145 -91h-43l150 150h76z" />
    <glyph glyph-name="Udieresis" unicode="&#xdc;" horiz-adv-x="815" 
d="M799 675c-96 -4 -116 -33 -116 -170v-227c0 -211 -103 -293 -283 -293c-164 0 -277 64 -277 216v427c0 42 -9 47 -89 47h-17v47h327v-47h-19c-81 0 -90 -5 -90 -47v-364c0 -143 44 -225 192 -225c155 0 202 102 202 245v221c0 137 -20 166 -115 170v47h285v-47zM358 846
c0 -28 -23 -50 -51 -50c-26 0 -49 23 -49 50s23 50 50 50s50 -23 50 -50zM557 846c0 -28 -23 -50 -51 -50c-26 0 -49 23 -49 50s23 50 50 50s50 -23 50 -50z" />
    <glyph glyph-name="Yacute" unicode="&#xdd;" horiz-adv-x="704" 
d="M713 675h-16c-59 0 -83 -21 -130 -107l-149 -269v-205c0 -43 8 -47 89 -47h26v-47h-343v47h26c81 0 90 5 90 47v193l-216 342c-23 37 -38 46 -81 46h-22v47h321v-47h-59c-27 0 -39 -6 -39 -19c0 -7 3 -16 11 -28l168 -271l124 221c11 20 17 37 17 52c0 32 -23 45 -78 45
h-23v47h284v-47zM530 892c0 -13 -12 -26 -30 -35l-191 -88h-49l168 126c30 23 42 28 60 28c23 0 42 -14 42 -31z" />
    <glyph glyph-name="Thorn" unicode="&#xde;" horiz-adv-x="667" 
d="M649 379c0 -133 -116 -203 -342 -203h-57v-82c0 -42 9 -47 89 -47h20v-47h-331v47h20c81 0 90 5 90 48v533c0 42 -9 47 -90 47h-20v47h331v-47h-20c-80 0 -89 -5 -89 -47v-54h66c229 0 333 -77 333 -195zM526 381c0 104 -54 147 -203 147h-22c-47 0 -51 -4 -51 -52v-255
h46c174 0 230 39 230 160z" />
    <glyph glyph-name="germandbls" unicode="&#xdf;" horiz-adv-x="574" 
d="M535 194c0 -124 -67 -209 -164 -209c-73 0 -119 36 -119 92c0 37 22 61 55 61c30 0 54 -23 54 -53c0 -11 -1 -15 -12 -36c-1 -3 -2 -6 -2 -10c0 -10 8 -16 19 -16c38 0 64 70 64 172c0 135 -40 193 -133 199c-21 1 -28 6 -28 20c0 17 10 22 37 22c68 0 97 36 97 123
c0 89 -34 136 -98 136c-65 0 -103 -51 -103 -138v-557h-173v36h14c64 0 65 7 65 48v409c0 94 8 130 39 172c34 46 91 72 159 72c116 0 191 -69 191 -174c0 -69 -30 -112 -106 -151c98 -37 144 -111 144 -218z" />
    <glyph glyph-name="agrave" unicode="&#xe0;" horiz-adv-x="556" 
d="M543 51c0 -29 -47 -58 -92 -58c-47 0 -72 20 -88 71c-43 -51 -105 -79 -174 -79c-88 0 -145 46 -145 117c0 98 81 147 314 187v39c0 88 -41 110 -108 110c-48 0 -89 -18 -89 -39c0 -5 22 -36 22 -54c0 -30 -23 -51 -54 -51c-35 0 -58 24 -58 62c0 72 83 125 195 125
c115 0 186 -31 186 -159v-201c0 -50 10 -69 38 -69c6 0 29 11 43 11c5 0 10 -5 10 -12zM358 200v46c-173 -29 -213 -59 -213 -130c0 -45 34 -78 79 -78c43 0 89 25 114 62c17 26 20 40 20 100zM342 524h-41l-159 97c-15 9 -25 25 -25 39c0 19 16 35 35 35c15 0 25 -6 50 -31
z" />
    <glyph glyph-name="aacute" unicode="&#xe1;" horiz-adv-x="556" 
d="M543 51c0 -29 -47 -58 -92 -58c-47 0 -72 20 -88 71c-43 -51 -105 -79 -174 -79c-88 0 -145 46 -145 117c0 98 81 147 314 187v39c0 88 -41 110 -108 110c-48 0 -89 -18 -89 -39c0 -5 22 -36 22 -54c0 -30 -23 -51 -54 -51c-35 0 -58 24 -58 62c0 72 83 125 195 125
c115 0 186 -31 186 -159v-201c0 -50 10 -69 38 -69c6 0 29 11 43 11c5 0 10 -5 10 -12zM358 200v46c-173 -29 -213 -59 -213 -130c0 -45 34 -78 79 -78c43 0 89 25 114 62c17 26 20 40 20 100zM415 660c0 -14 -10 -30 -25 -39l-159 -97h-41l140 140c25 25 35 31 50 31
c19 0 35 -16 35 -35z" />
    <glyph glyph-name="acircumflex" unicode="&#xe2;" horiz-adv-x="556" 
d="M543 51c0 -29 -47 -58 -92 -58c-47 0 -72 20 -88 71c-43 -51 -105 -79 -174 -79c-88 0 -145 46 -145 117c0 98 81 147 314 187v39c0 88 -41 110 -108 110c-48 0 -89 -18 -89 -39c0 -5 22 -36 22 -54c0 -30 -23 -51 -54 -51c-35 0 -58 24 -58 62c0 72 83 125 195 125
c115 0 186 -31 186 -159v-201c0 -50 10 -69 38 -69c6 0 29 11 43 11c5 0 10 -5 10 -12zM358 200v46c-173 -29 -213 -59 -213 -130c0 -45 34 -78 79 -78c43 0 89 25 114 62c17 26 20 40 20 100zM422 527h-36l-120 101l-121 -101h-36l125 166h63z" />
    <glyph glyph-name="atilde" unicode="&#xe3;" horiz-adv-x="556" 
d="M543 51c0 -29 -47 -58 -92 -58c-47 0 -72 20 -88 71c-43 -51 -105 -79 -174 -79c-88 0 -145 46 -145 117c0 98 81 147 314 187v39c0 88 -41 110 -108 110c-48 0 -89 -18 -89 -39c0 -5 22 -36 22 -54c0 -30 -23 -51 -54 -51c-35 0 -58 24 -58 62c0 72 83 125 195 125
c115 0 186 -31 186 -159v-201c0 -50 10 -69 38 -69c6 0 29 11 43 11c5 0 10 -5 10 -12zM358 200v46c-173 -29 -213 -59 -213 -130c0 -45 34 -78 79 -78c43 0 89 25 114 62c17 26 20 40 20 100zM431 663c-7 -63 -51 -106 -108 -106c-26 0 -38 4 -89 28c-19 9 -38 14 -52 14
c-23 0 -40 -15 -47 -42h-35c13 62 51 101 100 101c23 0 31 -2 86 -27c34 -15 45 -19 59 -19c23 0 45 22 51 51h35z" />
    <glyph glyph-name="adieresis" unicode="&#xe4;" horiz-adv-x="556" 
d="M543 51c0 -29 -47 -58 -92 -58c-47 0 -72 20 -88 71c-43 -51 -105 -79 -174 -79c-88 0 -145 46 -145 117c0 98 81 147 314 187v39c0 88 -41 110 -108 110c-48 0 -89 -18 -89 -39c0 -5 22 -36 22 -54c0 -30 -23 -51 -54 -51c-35 0 -58 24 -58 62c0 72 83 125 195 125
c115 0 186 -31 186 -159v-201c0 -50 10 -69 38 -69c6 0 29 11 43 11c5 0 10 -5 10 -12zM358 200v46c-173 -29 -213 -59 -213 -130c0 -45 34 -78 79 -78c43 0 89 25 114 62c17 26 20 40 20 100zM216 610c0 -28 -23 -50 -51 -50c-26 0 -49 23 -49 50s23 50 50 50
s50 -23 50 -50zM415 610c0 -28 -23 -50 -51 -50c-26 0 -49 23 -49 50s23 50 50 50s50 -23 50 -50z" />
    <glyph glyph-name="aring" unicode="&#xe5;" horiz-adv-x="556" 
d="M543 51c0 -29 -47 -58 -92 -58c-47 0 -72 20 -88 71c-43 -51 -105 -79 -174 -79c-88 0 -145 46 -145 117c0 98 81 147 314 187v39c0 88 -41 110 -108 110c-48 0 -89 -18 -89 -39c0 -5 22 -36 22 -54c0 -30 -23 -51 -54 -51c-35 0 -58 24 -58 62c0 72 83 125 195 125
c115 0 186 -31 186 -159v-201c0 -50 10 -69 38 -69c6 0 29 11 43 11c5 0 10 -5 10 -12zM358 200v46c-173 -29 -213 -59 -213 -130c0 -45 34 -78 79 -78c43 0 89 25 114 62c17 26 20 40 20 100zM365 611c0 -56 -45 -100 -101 -100c-53 0 -98 45 -98 100c0 54 45 99 99 99
c55 0 100 -45 100 -99zM329 611c0 34 -29 63 -63 63c-35 0 -64 -29 -64 -63c0 -35 29 -64 63 -64c36 0 64 28 64 64z" />
    <glyph glyph-name="ae" unicode="&#xe6;" horiz-adv-x="796" 
d="M759 127c-45 -97 -110 -142 -205 -142c-58 0 -119 20 -156 53c-9 7 -15 14 -35 35c-52 -63 -103 -88 -179 -88c-90 0 -148 45 -148 114c0 66 40 115 118 145c51 20 76 26 183 45v46c0 75 -26 103 -97 103c-47 0 -86 -17 -86 -38c0 -4 1 -7 7 -14c10 -14 15 -28 15 -41
c0 -30 -23 -51 -54 -51c-36 0 -59 24 -59 62c0 70 83 125 190 125c69 0 126 -21 154 -57c40 37 91 57 145 57c62 0 118 -28 153 -78c33 -45 53 -106 53 -160v-18h-325c1 -60 7 -91 24 -120c27 -44 65 -66 116 -66c66 0 109 31 150 107zM337 193v53
c-82 -14 -113 -22 -141 -37c-39 -22 -59 -52 -59 -89c0 -48 31 -83 75 -83c41 0 82 22 105 55c17 26 20 39 20 101zM650 305c0 79 -40 132 -101 132c-48 0 -81 -29 -101 -89c-10 -27 -14 -50 -14 -80h175c32 0 41 8 41 37z" />
    <glyph glyph-name="ccedilla" unicode="&#xe7;" horiz-adv-x="444" 
d="M426 132c-40 -103 -96 -147 -184 -147l-19 -48c14 2 21 3 29 3c49 0 82 -28 82 -68c0 -51 -49 -87 -120 -87c-31 0 -60 6 -88 17l15 33c23 -8 42 -12 61 -12c33 0 56 16 56 40c0 23 -19 39 -47 39c-9 0 -20 -2 -34 -5l-8 5l37 86c-104 17 -172 111 -172 237
c0 149 93 256 223 256c89 0 156 -52 156 -119c0 -40 -26 -68 -61 -68s-60 23 -60 56c0 17 4 27 20 46c4 6 6 9 6 12c0 16 -26 30 -56 30c-74 0 -123 -81 -123 -202c0 -117 50 -190 130 -190c52 0 86 29 118 101z" />
    <glyph glyph-name="egrave" unicode="&#xe8;" horiz-adv-x="500" 
d="M465 127c-41 -95 -109 -142 -204 -142c-135 0 -226 95 -226 235c0 150 96 261 224 261c123 0 206 -106 206 -256h-324c0 -126 56 -186 139 -186c67 0 109 30 150 107zM358 305c0 80 -40 133 -101 133s-115 -63 -115 -170h175c32 0 41 8 41 37zM335 524h-41l-159 97
c-15 9 -25 25 -25 39c0 19 16 35 35 35c15 0 25 -6 50 -31z" />
    <glyph glyph-name="eacute" unicode="&#xe9;" horiz-adv-x="500" 
d="M465 127c-41 -95 -109 -142 -204 -142c-135 0 -226 95 -226 235c0 150 96 261 224 261c123 0 206 -106 206 -256h-324c0 -126 56 -186 139 -186c67 0 109 30 150 107zM358 305c0 80 -40 133 -101 133s-115 -63 -115 -170h175c32 0 41 8 41 37zM408 660
c0 -14 -10 -30 -25 -39l-159 -97h-41l140 140c25 25 35 31 50 31c19 0 35 -16 35 -35z" />
    <glyph glyph-name="ecircumflex" unicode="&#xea;" horiz-adv-x="500" 
d="M465 127c-41 -95 -109 -142 -204 -142c-135 0 -226 95 -226 235c0 150 96 261 224 261c123 0 206 -106 206 -256h-324c0 -126 56 -186 139 -186c67 0 109 30 150 107zM358 305c0 80 -40 133 -101 133s-115 -63 -115 -170h175c32 0 41 8 41 37zM415 527h-36l-120 101
l-121 -101h-36l125 166h63z" />
    <glyph glyph-name="edieresis" unicode="&#xeb;" horiz-adv-x="500" 
d="M465 127c-41 -95 -109 -142 -204 -142c-135 0 -226 95 -226 235c0 150 96 261 224 261c123 0 206 -106 206 -256h-324c0 -126 56 -186 139 -186c67 0 109 30 150 107zM358 305c0 80 -40 133 -101 133s-115 -63 -115 -170h175c32 0 41 8 41 37zM209 610
c0 -28 -23 -50 -51 -50c-26 0 -49 23 -49 50s23 50 50 50s50 -23 50 -50zM408 610c0 -28 -23 -50 -51 -50c-26 0 -49 23 -49 50s23 50 50 50s50 -23 50 -50z" />
    <glyph glyph-name="igrave" unicode="&#xec;" horiz-adv-x="315" 
d="M289 0h-259v36h12c64 0 70 7 70 47v279c0 42 -6 50 -43 50h-51v43l188 11v-383c0 -40 6 -47 71 -47h12v-36zM235 524h-41l-159 97c-15 9 -25 25 -25 39c0 19 16 35 35 35c15 0 25 -6 50 -31z" />
    <glyph glyph-name="iacute" unicode="&#xed;" horiz-adv-x="315" 
d="M289 0h-259v36h12c64 0 70 7 70 47v279c0 42 -6 50 -43 50h-51v43l188 11v-383c0 -40 6 -47 71 -47h12v-36zM308 660c0 -14 -10 -30 -25 -39l-159 -97h-41l140 140c25 25 35 31 50 31c19 0 35 -16 35 -35z" />
    <glyph glyph-name="icircumflex" unicode="&#xee;" horiz-adv-x="315" 
d="M289 0h-259v36h12c64 0 70 7 70 47v279c0 42 -6 50 -43 50h-51v43l188 11v-383c0 -40 6 -47 71 -47h12v-36zM315 527h-36l-120 101l-121 -101h-36l125 166h63z" />
    <glyph glyph-name="idieresis" unicode="&#xef;" horiz-adv-x="315" 
d="M289 0h-259v36h12c64 0 70 7 70 47v279c0 42 -6 50 -43 50h-51v43l188 11v-383c0 -40 6 -47 71 -47h12v-36zM109 610c0 -28 -23 -50 -51 -50c-26 0 -49 23 -49 50s23 50 50 50s50 -23 50 -50zM308 610c0 -28 -23 -50 -51 -50c-26 0 -49 23 -49 50s23 50 50 50
s50 -23 50 -50z" />
    <glyph glyph-name="eth" unicode="&#xf0;" horiz-adv-x="500" 
d="M466 236c0 -141 -95 -251 -216 -251c-120 0 -216 110 -216 248s96 248 217 248c15 0 28 -2 43 -5c-37 45 -43 51 -119 121l-118 -68l-23 38l102 59l-91 60l26 39c51 -23 78 -38 121 -66l122 72l25 -37l-105 -62c166 -122 232 -242 232 -396zM361 233
c0 132 -39 205 -109 205c-75 0 -113 -70 -113 -206c0 -132 39 -204 111 -204s111 72 111 205z" />
    <glyph glyph-name="ntilde" unicode="&#xf1;" horiz-adv-x="611" 
d="M593 0h-253v36h14c65 0 66 7 66 47v202c0 48 -7 79 -22 100c-15 20 -45 35 -71 35c-43 0 -88 -31 -109 -76c-11 -23 -18 -68 -18 -117v-144c0 -40 1 -47 66 -47h14v-36h-253v36h14c64 0 65 7 65 47v279c0 43 -6 50 -43 50h-36v43l173 11v-81c44 66 94 96 158 96
c59 0 110 -29 135 -77c18 -34 21 -52 21 -124v-197c0 -40 1 -47 65 -47h14v-36zM471 663c-7 -63 -51 -106 -108 -106c-26 0 -38 4 -89 28c-19 9 -38 14 -52 14c-23 0 -40 -15 -47 -42h-35c13 62 51 101 100 101c23 0 31 -2 86 -27c34 -15 45 -19 59 -19c23 0 45 22 51 51h35
z" />
    <glyph glyph-name="ograve" unicode="&#xf2;" horiz-adv-x="500" 
d="M466 233c0 -138 -96 -248 -216 -248s-216 110 -216 247c0 140 96 249 218 249c118 0 214 -111 214 -248zM361 233c0 132 -39 205 -109 205c-75 0 -113 -70 -113 -206c0 -132 39 -204 111 -204s111 72 111 205zM328 524h-41l-159 97c-15 9 -25 25 -25 39c0 19 16 35 35 35
c15 0 25 -6 50 -31z" />
    <glyph glyph-name="oacute" unicode="&#xf3;" horiz-adv-x="500" 
d="M466 233c0 -138 -96 -248 -216 -248s-216 110 -216 247c0 140 96 249 218 249c118 0 214 -111 214 -248zM361 233c0 132 -39 205 -109 205c-75 0 -113 -70 -113 -206c0 -132 39 -204 111 -204s111 72 111 205zM401 660c0 -14 -10 -30 -25 -39l-159 -97h-41l140 140
c25 25 35 31 50 31c19 0 35 -16 35 -35z" />
    <glyph glyph-name="ocircumflex" unicode="&#xf4;" horiz-adv-x="500" 
d="M466 233c0 -138 -96 -248 -216 -248s-216 110 -216 247c0 140 96 249 218 249c118 0 214 -111 214 -248zM361 233c0 132 -39 205 -109 205c-75 0 -113 -70 -113 -206c0 -132 39 -204 111 -204s111 72 111 205zM408 527h-36l-120 101l-121 -101h-36l125 166h63z" />
    <glyph glyph-name="otilde" unicode="&#xf5;" horiz-adv-x="500" 
d="M466 233c0 -138 -96 -248 -216 -248s-216 110 -216 247c0 140 96 249 218 249c118 0 214 -111 214 -248zM361 233c0 132 -39 205 -109 205c-75 0 -113 -70 -113 -206c0 -132 39 -204 111 -204s111 72 111 205zM417 663c-7 -63 -51 -106 -108 -106c-26 0 -38 4 -89 28
c-19 9 -38 14 -52 14c-23 0 -40 -15 -47 -42h-35c13 62 51 101 100 101c23 0 31 -2 86 -27c34 -15 45 -19 59 -19c23 0 45 22 51 51h35z" />
    <glyph glyph-name="odieresis" unicode="&#xf6;" horiz-adv-x="500" 
d="M466 233c0 -138 -96 -248 -216 -248s-216 110 -216 247c0 140 96 249 218 249c118 0 214 -111 214 -248zM361 233c0 132 -39 205 -109 205c-75 0 -113 -70 -113 -206c0 -132 39 -204 111 -204s111 72 111 205zM202 610c0 -28 -23 -50 -51 -50c-26 0 -49 23 -49 50
s23 50 50 50s50 -23 50 -50zM401 610c0 -28 -23 -50 -51 -50c-26 0 -49 23 -49 50s23 50 50 50s50 -23 50 -50z" />
    <glyph glyph-name="divide" unicode="&#xf7;" horiz-adv-x="606" 
d="M566 210h-526v80h526v-80zM365 431c0 -35 -28 -62 -62 -62s-62 27 -62 62c0 34 28 62 62 62s62 -28 62 -62zM365 70c0 -35 -28 -62 -62 -62s-62 27 -62 62c0 34 28 62 62 62s62 -28 62 -62z" />
    <glyph glyph-name="oslash" unicode="&#xf8;" horiz-adv-x="500" 
d="M466 228c0 -143 -91 -243 -219 -243c-34 0 -64 6 -89 19l-49 -95h-50l61 119c-55 48 -86 121 -86 204c0 139 96 249 216 249c32 0 60 -7 91 -23l50 97h50l-63 -122c55 -47 88 -124 88 -205zM316 409c-20 21 -39 29 -65 29c-74 0 -112 -71 -112 -209c0 -53 6 -91 19 -127z
M361 242c0 47 -6 87 -18 122l-158 -307c17 -20 38 -29 64 -29c86 0 112 98 112 214z" />
    <glyph glyph-name="ugrave" unicode="&#xf9;" horiz-adv-x="611" 
d="M594 0l-182 -7v83c-44 -64 -90 -91 -156 -91c-60 0 -108 23 -135 64c-15 23 -19 46 -19 97v216c0 43 -6 50 -43 50h-38v43l175 11v-305c0 -55 2 -65 15 -84c13 -20 39 -31 70 -31c49 0 89 26 110 70c15 33 21 66 21 123v123c0 43 -6 50 -43 50h-51v43l188 11v-350
c0 -64 8 -73 63 -73h25v-43zM380 524h-41l-159 97c-15 9 -25 25 -25 39c0 19 16 35 35 35c15 0 25 -6 50 -31z" />
    <glyph glyph-name="uacute" unicode="&#xfa;" horiz-adv-x="611" 
d="M594 0l-182 -7v83c-44 -64 -90 -91 -156 -91c-60 0 -108 23 -135 64c-15 23 -19 46 -19 97v216c0 43 -6 50 -43 50h-38v43l175 11v-305c0 -55 2 -65 15 -84c13 -20 39 -31 70 -31c49 0 89 26 110 70c15 33 21 66 21 123v123c0 43 -6 50 -43 50h-51v43l188 11v-350
c0 -64 8 -73 63 -73h25v-43zM453 660c0 -14 -10 -30 -25 -39l-159 -97h-41l140 140c25 25 35 31 50 31c19 0 35 -16 35 -35z" />
    <glyph glyph-name="ucircumflex" unicode="&#xfb;" horiz-adv-x="611" 
d="M594 0l-182 -7v83c-44 -64 -90 -91 -156 -91c-60 0 -108 23 -135 64c-15 23 -19 46 -19 97v216c0 43 -6 50 -43 50h-38v43l175 11v-305c0 -55 2 -65 15 -84c13 -20 39 -31 70 -31c49 0 89 26 110 70c15 33 21 66 21 123v123c0 43 -6 50 -43 50h-51v43l188 11v-350
c0 -64 8 -73 63 -73h25v-43zM460 527h-36l-120 101l-121 -101h-36l125 166h63z" />
    <glyph glyph-name="udieresis" unicode="&#xfc;" horiz-adv-x="611" 
d="M594 0l-182 -7v83c-44 -64 -90 -91 -156 -91c-60 0 -108 23 -135 64c-15 23 -19 46 -19 97v216c0 43 -6 50 -43 50h-38v43l175 11v-305c0 -55 2 -65 15 -84c13 -20 39 -31 70 -31c49 0 89 26 110 70c15 33 21 66 21 123v123c0 43 -6 50 -43 50h-51v43l188 11v-350
c0 -64 8 -73 63 -73h25v-43zM254 610c0 -28 -23 -50 -51 -50c-26 0 -49 23 -49 50s23 50 50 50s50 -23 50 -50zM453 610c0 -28 -23 -50 -51 -50c-26 0 -49 23 -49 50s23 50 50 50s50 -23 50 -50z" />
    <glyph glyph-name="yacute" unicode="&#xfd;" horiz-adv-x="537" 
d="M531 430h-12c-38 0 -53 -20 -78 -81l-114 -282c-45 -111 -64 -151 -95 -193c-40 -54 -85 -80 -138 -80c-52 0 -91 33 -91 77c0 36 25 62 60 62c29 0 51 -19 51 -45c0 -11 -7 -28 -7 -35c0 -6 7 -10 16 -10c32 0 78 53 115 129l17 35l-163 369c-18 40 -34 54 -66 54h-13
v36h238v-36h-21c-34 0 -46 -7 -46 -25c0 -5 2 -12 6 -21l110 -257l91 226c7 17 10 30 10 40c0 26 -16 37 -54 37h-16v36h200v-36zM440 660c0 -14 -10 -30 -25 -39l-159 -97h-41l140 140c25 25 35 31 50 31c19 0 35 -16 35 -35z" />
    <glyph glyph-name="thorn" unicode="&#xfe;" horiz-adv-x="574" 
d="M535 235c0 -143 -86 -250 -202 -250c-61 0 -99 23 -132 81v-185c0 -40 8 -47 73 -47h14v-36h-260v36h14c64 0 65 7 65 47v752c0 43 -6 50 -43 50h-36v44l173 10v-343c35 61 76 87 138 87c110 0 196 -109 196 -246zM430 241c0 117 -41 186 -109 186
c-75 0 -121 -75 -121 -199c0 -115 47 -189 118 -189s112 73 112 202z" />
    <glyph glyph-name="ydieresis" unicode="&#xff;" horiz-adv-x="537" 
d="M531 430h-12c-38 0 -53 -20 -78 -81l-114 -282c-45 -111 -64 -151 -95 -193c-40 -54 -85 -80 -138 -80c-52 0 -91 33 -91 77c0 36 25 62 60 62c29 0 51 -19 51 -45c0 -11 -7 -28 -7 -35c0 -6 7 -10 16 -10c32 0 78 53 115 129l17 35l-163 369c-18 40 -34 54 -66 54h-13
v36h238v-36h-21c-34 0 -46 -7 -46 -25c0 -5 2 -12 6 -21l110 -257l91 226c7 17 10 30 10 40c0 26 -16 37 -54 37h-16v36h200v-36zM241 610c0 -28 -23 -50 -51 -50c-26 0 -49 23 -49 50s23 50 50 50s50 -23 50 -50zM440 610c0 -28 -23 -50 -51 -50c-26 0 -49 23 -49 50
s23 50 50 50s50 -23 50 -50z" />
    <glyph glyph-name="Amacron" unicode="&#x100;" horiz-adv-x="722" 
d="M731 0h-310v47h42c37 0 62 10 62 26c0 5 -2 12 -8 27l-54 134h-265l-33 -88c-6 -16 -9 -30 -9 -42c0 -38 27 -57 81 -57h20v-47h-265v47h14c50 0 64 15 100 106l230 583h42l255 -625c23 -56 29 -64 79 -64h19v-47zM442 288l-113 284l-111 -284h224zM514 819h-313v54h313
v-54z" />
    <glyph glyph-name="amacron" unicode="&#x101;" horiz-adv-x="556" 
d="M543 51c0 -29 -47 -58 -92 -58c-47 0 -72 20 -88 71c-43 -51 -105 -79 -174 -79c-88 0 -145 46 -145 117c0 98 81 147 314 187v39c0 88 -41 110 -108 110c-48 0 -89 -18 -89 -39c0 -5 22 -36 22 -54c0 -30 -23 -51 -54 -51c-35 0 -58 24 -58 62c0 72 83 125 195 125
c115 0 186 -31 186 -159v-201c0 -50 10 -69 38 -69c6 0 29 11 43 11c5 0 10 -5 10 -12zM358 200v46c-173 -29 -213 -59 -213 -130c0 -45 34 -78 79 -78c43 0 89 25 114 62c17 26 20 40 20 100zM422 583h-313v54h313v-54z" />
    <glyph glyph-name="Abreve" unicode="&#x102;" horiz-adv-x="722" 
d="M731 0h-310v47h42c37 0 62 10 62 26c0 5 -2 12 -8 27l-54 134h-265l-33 -88c-6 -16 -9 -30 -9 -42c0 -38 27 -57 81 -57h20v-47h-265v47h14c50 0 64 15 100 106l230 583h42l255 -625c23 -56 29 -64 79 -64h19v-47zM442 288l-113 284l-111 -284h224zM527 917
c0 -86 -74 -142 -171 -142s-169 56 -169 142h43c6 -54 52 -86 127 -86s120 32 126 86h44z" />
    <glyph glyph-name="abreve" unicode="&#x103;" horiz-adv-x="556" 
d="M543 51c0 -29 -47 -58 -92 -58c-47 0 -72 20 -88 71c-43 -51 -105 -79 -174 -79c-88 0 -145 46 -145 117c0 98 81 147 314 187v39c0 88 -41 110 -108 110c-48 0 -89 -18 -89 -39c0 -5 22 -36 22 -54c0 -30 -23 -51 -54 -51c-35 0 -58 24 -58 62c0 72 83 125 195 125
c115 0 186 -31 186 -159v-201c0 -50 10 -69 38 -69c6 0 29 11 43 11c5 0 10 -5 10 -12zM358 200v46c-173 -29 -213 -59 -213 -130c0 -45 34 -78 79 -78c43 0 89 25 114 62c17 26 20 40 20 100zM407 675c0 -81 -61 -143 -142 -143s-141 62 -141 144v13h36
c5 -60 43 -95 106 -95c62 0 100 35 105 95h36v-14z" />
    <glyph glyph-name="Aogonek" unicode="&#x104;" horiz-adv-x="722" 
d="M731 -144c0 -40 -32 -92 -119 -92c-60 0 -114 41 -114 112c0 44 43 93 84 124h-161v47h42c37 0 62 10 62 26c0 5 -2 12 -8 27l-54 134h-265l-33 -88c-6 -16 -9 -30 -9 -42c0 -38 27 -57 81 -57h20v-47h-265v47h14c50 0 64 15 100 106l230 583h42l255 -625
c23 -56 29 -64 79 -64h19v-47h-9c-46 0 -97 -5 -118 -45c-10 -20 -18 -46 -18 -76c0 -31 13 -51 40 -51c67 0 81 40 95 40c5 0 10 -5 10 -12zM442 288l-113 284l-111 -284h224z" />
    <glyph glyph-name="aogonek" unicode="&#x105;" horiz-adv-x="556" 
d="M543 -144c0 -40 -32 -92 -119 -92c-60 0 -114 41 -114 112c0 46 48 98 91 129c-17 11 -29 30 -38 59c-43 -51 -105 -79 -174 -79c-88 0 -145 46 -145 117c0 98 81 147 314 187v39c0 88 -41 110 -108 110c-48 0 -89 -18 -89 -39c0 -5 22 -36 22 -54c0 -30 -23 -51 -54 -51
c-35 0 -58 24 -58 62c0 72 83 125 195 125c115 0 186 -31 186 -159v-201c0 -50 10 -69 38 -69c6 0 29 11 43 11c5 0 10 -5 10 -12c0 -23 -30 -46 -65 -55c-31 -7 -58 -28 -69 -57c-7 -18 -11 -37 -11 -60c0 -31 13 -51 40 -51c67 0 81 40 95 40c5 0 10 -5 10 -12zM358 200
v46c-173 -29 -213 -59 -213 -130c0 -45 34 -78 79 -78c43 0 89 25 114 62c17 26 20 40 20 100z" />
    <glyph glyph-name="Cacute" unicode="&#x106;" horiz-adv-x="722" 
d="M668 247c-23 -168 -125 -262 -285 -262c-197 0 -338 154 -338 369c0 209 155 383 339 383c67 0 106 -15 177 -67l40 59h53v-289h-44c-23 77 -38 116 -57 149c-38 64 -100 101 -170 101c-139 0 -206 -122 -206 -340c0 -215 70 -318 218 -318c118 0 197 68 226 223z
M552 892c0 -13 -12 -26 -30 -35l-191 -88h-49l168 126c30 23 42 28 60 28c23 0 42 -14 42 -31z" />
    <glyph glyph-name="cacute" unicode="&#x107;" horiz-adv-x="444" 
d="M426 132c-43 -106 -94 -147 -183 -147c-124 0 -209 98 -209 240c0 149 93 256 223 256c89 0 156 -52 156 -119c0 -40 -26 -68 -61 -68s-60 23 -60 56c0 17 4 27 20 46c4 6 6 9 6 12c0 16 -26 30 -56 30c-74 0 -123 -81 -123 -202c0 -117 50 -190 130 -190
c52 0 86 29 118 101zM406 660c0 -14 -10 -30 -25 -39l-159 -97h-41l140 140c25 25 35 31 50 31c19 0 35 -16 35 -35z" />
    <glyph glyph-name="Ccircumflex" unicode="&#x108;" horiz-adv-x="722" 
d="M668 247c-23 -168 -125 -262 -285 -262c-197 0 -338 154 -338 369c0 209 155 383 339 383c67 0 106 -15 177 -67l40 59h53v-289h-44c-23 77 -38 116 -57 149c-38 64 -100 101 -170 101c-139 0 -206 -122 -206 -340c0 -215 70 -318 218 -318c118 0 197 68 226 223z
M572 771h-44l-144 91l-145 -91h-43l150 150h76z" />
    <glyph glyph-name="ccircumflex" unicode="&#x109;" horiz-adv-x="444" 
d="M426 132c-43 -106 -94 -147 -183 -147c-124 0 -209 98 -209 240c0 149 93 256 223 256c89 0 156 -52 156 -119c0 -40 -26 -68 -61 -68s-60 23 -60 56c0 17 4 27 20 46c4 6 6 9 6 12c0 16 -26 30 -56 30c-74 0 -123 -81 -123 -202c0 -117 50 -190 130 -190
c52 0 86 29 118 101zM413 527h-36l-120 101l-121 -101h-36l125 166h63z" />
    <glyph glyph-name="Cdotaccent" unicode="&#x10a;" horiz-adv-x="722" 
d="M668 247c-23 -168 -125 -262 -285 -262c-197 0 -338 154 -338 369c0 209 155 383 339 383c67 0 106 -15 177 -67l40 59h53v-289h-44c-23 77 -38 116 -57 149c-38 64 -100 101 -170 101c-139 0 -206 -122 -206 -340c0 -215 70 -318 218 -318c118 0 197 68 226 223z
M435 846c0 -28 -23 -50 -51 -50c-26 0 -49 23 -49 50s23 50 50 50s50 -23 50 -50z" />
    <glyph glyph-name="cdotaccent" unicode="&#x10b;" horiz-adv-x="444" 
d="M426 132c-43 -106 -94 -147 -183 -147c-124 0 -209 98 -209 240c0 149 93 256 223 256c89 0 156 -52 156 -119c0 -40 -26 -68 -61 -68s-60 23 -60 56c0 17 4 27 20 46c4 6 6 9 6 12c0 16 -26 30 -56 30c-74 0 -123 -81 -123 -202c0 -117 50 -190 130 -190
c52 0 86 29 118 101zM307 610c0 -28 -23 -50 -51 -50c-26 0 -49 23 -49 50s23 50 50 50s50 -23 50 -50z" />
    <glyph glyph-name="Ccaron" unicode="&#x10c;" horiz-adv-x="722" 
d="M668 247c-23 -168 -125 -262 -285 -262c-197 0 -338 154 -338 369c0 209 155 383 339 383c67 0 106 -15 177 -67l40 59h53v-289h-44c-23 77 -38 116 -57 149c-38 64 -100 101 -170 101c-139 0 -206 -122 -206 -340c0 -215 70 -318 218 -318c118 0 197 68 226 223z
M573 921l-150 -150h-76l-150 150h44l144 -91l145 91h43z" />
    <glyph glyph-name="ccaron" unicode="&#x10d;" horiz-adv-x="444" 
d="M426 132c-43 -106 -94 -147 -183 -147c-124 0 -209 98 -209 240c0 149 93 256 223 256c89 0 156 -52 156 -119c0 -40 -26 -68 -61 -68s-60 23 -60 56c0 17 4 27 20 46c4 6 6 9 6 12c0 16 -26 30 -56 30c-74 0 -123 -81 -123 -202c0 -117 50 -190 130 -190
c52 0 86 29 118 101zM413 693l-125 -166h-63l-125 166h36l120 -101l121 101h36z" />
    <glyph glyph-name="Dcaron" unicode="&#x10e;" horiz-adv-x="778" 
d="M732 365c0 -234 -121 -365 -367 -365h-336v47h19c80 0 89 5 89 47v534c0 42 -9 47 -89 47h-19v47h318c114 0 188 -16 243 -51c92 -60 142 -171 142 -306zM600 361c0 221 -71 314 -242 314h-52c-50 0 -57 -7 -57 -56v-517c0 -49 7 -55 57 -55h68c161 0 226 90 226 314z
M578 921l-150 -150h-76l-150 150h44l144 -91l145 91h43z" />
    <glyph glyph-name="dcaron" unicode="&#x10f;" horiz-adv-x="574" 
d="M554 0l-174 -7v79c-32 -60 -75 -87 -138 -87c-116 0 -199 101 -199 243c0 144 86 253 199 253c58 0 101 -23 138 -74v226c0 43 -7 50 -43 50h-59v43l196 11v-621c0 -63 8 -73 62 -73h18v-43zM379 231c0 48 -7 90 -19 120c-18 46 -57 76 -98 76s-78 -29 -95 -73
c-13 -34 -19 -79 -19 -138c0 -111 43 -177 113 -177c72 0 118 76 118 192zM653 651c0 -37 -14 -77 -38 -109c-13 -17 -32 -38 -81 -67l-20 25c59 37 91 80 91 123c0 5 -2 8 -6 8h-3c-4 -1 -7 -1 -12 -1c-40 0 -64 20 -64 53c0 31 25 54 59 54c43 0 74 -35 74 -86z" />
    <glyph glyph-name="Dcroat" unicode="&#x110;" horiz-adv-x="778" 
d="M732 361c0 -230 -122 -361 -367 -361h-336v47h19c80 0 89 5 89 47v256h-108v47h108v231c0 42 -9 47 -89 47h-19v47h318c114 0 189 -16 243 -51c90 -58 142 -173 142 -310zM600 361c0 221 -71 314 -241 314h-53c-50 0 -57 -7 -57 -56v-222h180v-47h-180v-248
c0 -49 7 -55 57 -55h68c162 0 226 89 226 314z" />
    <glyph glyph-name="dcroat" unicode="&#x111;" horiz-adv-x="574" 
d="M554 0l-174 -7v79c-32 -60 -75 -87 -138 -87c-116 0 -199 101 -199 243c0 144 86 253 200 253c57 0 100 -23 137 -74v161h-139v47h139v18c0 43 -7 50 -43 50h-59v43l196 11v-122h80v-47h-80v-452c0 -63 8 -73 62 -73h18v-43zM379 231c0 48 -7 90 -19 120
c-18 46 -57 76 -98 76s-78 -29 -95 -73c-13 -34 -19 -79 -19 -138c0 -111 43 -177 113 -177c72 0 118 75 118 192z" />
    <glyph glyph-name="Emacron" unicode="&#x112;" horiz-adv-x="722" 
d="M663 267l-20 -267h-614v47h18c81 0 90 5 90 47v534c0 42 -9 47 -90 47h-18v47h615v-256h-43c-29 175 -71 209 -237 209h-52c-54 0 -63 -7 -63 -50v-228h24c95 0 135 39 140 137h47v-328h-47c-3 94 -20 144 -144 144h-20v-255c0 -42 21 -48 72 -48h66
c156 0 201 55 232 220h44zM518 819h-313v54h313v-54z" />
    <glyph glyph-name="emacron" unicode="&#x113;" horiz-adv-x="500" 
d="M465 127c-41 -95 -109 -142 -204 -142c-135 0 -226 95 -226 235c0 150 96 261 224 261c123 0 206 -106 206 -256h-324c0 -126 56 -186 139 -186c67 0 109 30 150 107zM358 305c0 80 -40 133 -101 133s-115 -63 -115 -170h175c32 0 41 8 41 37zM415 583h-313v54h313v-54z
" />
    <glyph glyph-name="Ebreve" unicode="&#x114;" horiz-adv-x="722" 
d="M663 267l-20 -267h-614v47h18c81 0 90 5 90 47v534c0 42 -9 47 -90 47h-18v47h615v-256h-43c-29 175 -71 209 -237 209h-52c-54 0 -63 -7 -63 -50v-228h24c95 0 135 39 140 137h47v-328h-47c-3 94 -20 144 -144 144h-20v-255c0 -42 21 -48 72 -48h66
c156 0 201 55 232 220h44zM531 917c0 -86 -74 -142 -171 -142s-169 56 -169 142h43c6 -54 52 -86 127 -86s120 32 126 86h44z" />
    <glyph glyph-name="ebreve" unicode="&#x115;" horiz-adv-x="500" 
d="M465 127c-41 -95 -109 -142 -204 -142c-135 0 -226 95 -226 235c0 150 96 261 224 261c123 0 206 -106 206 -256h-324c0 -126 56 -186 139 -186c67 0 109 30 150 107zM358 305c0 80 -40 133 -101 133s-115 -63 -115 -170h175c32 0 41 8 41 37zM400 675
c0 -81 -61 -143 -142 -143s-141 62 -141 144v13h36c5 -60 43 -95 106 -95c62 0 100 35 105 95h36v-14z" />
    <glyph glyph-name="Edotaccent" unicode="&#x116;" horiz-adv-x="722" 
d="M663 267l-20 -267h-614v47h18c81 0 90 5 90 47v534c0 42 -9 47 -90 47h-18v47h615v-256h-43c-29 175 -71 209 -237 209h-52c-54 0 -63 -7 -63 -50v-228h24c95 0 135 39 140 137h47v-328h-47c-3 94 -20 144 -144 144h-20v-255c0 -42 21 -48 72 -48h66
c156 0 201 55 232 220h44zM412 846c0 -28 -23 -50 -51 -50c-26 0 -49 23 -49 50s23 50 50 50s50 -23 50 -50z" />
    <glyph glyph-name="edotaccent" unicode="&#x117;" horiz-adv-x="500" 
d="M465 127c-41 -95 -109 -142 -204 -142c-135 0 -226 95 -226 235c0 150 96 261 224 261c123 0 206 -106 206 -256h-324c0 -126 56 -186 139 -186c67 0 109 30 150 107zM358 305c0 80 -40 133 -101 133s-115 -63 -115 -170h175c32 0 41 8 41 37zM309 610
c0 -28 -23 -50 -51 -50c-26 0 -49 23 -49 50s23 50 50 50s50 -23 50 -50z" />
    <glyph glyph-name="Eogonek" unicode="&#x118;" horiz-adv-x="722" 
d="M663 267l-20 -267h-17c-44 0 -90 -7 -110 -45c-10 -20 -18 -46 -18 -76c0 -31 13 -51 40 -51c67 0 81 40 95 40c5 0 10 -5 10 -12c0 -40 -32 -92 -119 -92c-60 0 -114 41 -114 112c0 44 43 93 84 124h-465v47h18c81 0 90 5 90 47v534c0 42 -9 47 -90 47h-18v47h615v-256
h-43c-29 175 -71 209 -237 209h-52c-54 0 -63 -7 -63 -50v-228h24c95 0 135 39 140 137h47v-328h-47c-3 94 -20 144 -144 144h-20v-255c0 -42 21 -48 72 -48h66c156 0 201 55 232 220h44z" />
    <glyph glyph-name="eogonek" unicode="&#x119;" horiz-adv-x="500" 
d="M465 127c-20 -47 -48 -83 -82 -107c-32 -22 -69 -48 -82 -81c-7 -18 -11 -37 -11 -60c0 -31 13 -51 40 -51c67 0 81 40 95 40c5 0 10 -5 10 -12c0 -40 -32 -92 -119 -92c-60 0 -114 41 -114 112c0 37 31 78 66 109h-7c-135 0 -226 95 -226 235c0 150 96 261 224 261
c123 0 206 -106 206 -256h-324c0 -126 56 -186 139 -186c67 0 109 30 150 107zM358 305c0 80 -40 133 -101 133s-115 -63 -115 -170h175c32 0 41 8 41 37z" />
    <glyph glyph-name="Ecaron" unicode="&#x11a;" horiz-adv-x="722" 
d="M663 267l-20 -267h-614v47h18c81 0 90 5 90 47v534c0 42 -9 47 -90 47h-18v47h615v-256h-43c-29 175 -71 209 -237 209h-52c-54 0 -63 -7 -63 -50v-228h24c95 0 135 39 140 137h47v-328h-47c-3 94 -20 144 -144 144h-20v-255c0 -42 21 -48 72 -48h66
c156 0 201 55 232 220h44zM550 921l-150 -150h-76l-150 150h44l144 -91l145 91h43z" />
    <glyph glyph-name="ecaron" unicode="&#x11b;" horiz-adv-x="500" 
d="M465 127c-41 -95 -109 -142 -204 -142c-135 0 -226 95 -226 235c0 150 96 261 224 261c123 0 206 -106 206 -256h-324c0 -126 56 -186 139 -186c67 0 109 30 150 107zM358 305c0 80 -40 133 -101 133s-115 -63 -115 -170h175c32 0 41 8 41 37zM415 693l-125 -166h-63
l-125 166h36l120 -101l121 101h36z" />
    <glyph glyph-name="Gcircumflex" unicode="&#x11c;" horiz-adv-x="778" 
d="M772 282h-15c-54 0 -75 -4 -84 -14c-6 -7 -6 -8 -6 -62v-220h-42l-37 90c-65 -65 -124 -91 -208 -91c-189 0 -338 148 -338 363c0 200 140 389 349 389c73 0 117 -17 182 -69l39 61h52v-281h-43c-41 160 -120 242 -234 242c-139 0 -213 -119 -213 -342
c0 -207 76 -316 216 -316c110 0 174 68 174 190c0 55 -7 60 -91 60h-19v47h318v-47zM577 771h-44l-144 91l-145 -91h-43l150 150h76z" />
    <glyph glyph-name="gcircumflex" unicode="&#x11d;" horiz-adv-x="537" 
d="M542 437c0 -27 -20 -48 -45 -48c-43 0 -44 51 -55 51c-8 0 -17 -6 -34 -24c28 -33 37 -58 37 -98c0 -66 -34 -118 -94 -145c-33 -15 -48 -17 -143 -19c-67 -2 -94 -15 -94 -45c0 -11 5 -22 12 -26c12 -6 15 -9 70 -9h102c69 0 101 -4 127 -14c37 -15 60 -55 60 -105
c0 -105 -84 -158 -251 -158c-134 0 -211 37 -211 103c0 41 30 73 92 95c-47 16 -67 42 -67 86c0 55 28 85 95 100c-52 24 -84 75 -84 134c0 100 78 166 197 166c50 0 82 -10 124 -38c46 42 64 52 96 52c39 0 66 -24 66 -58zM353 317c0 77 -35 121 -98 121
c-67 0 -105 -45 -105 -124c0 -75 39 -122 101 -122c64 0 102 47 102 125zM415 -72c0 32 -25 54 -65 58c-15 2 -21 2 -104 2h-74c-48 -25 -66 -47 -66 -80c0 -45 48 -70 132 -70c112 0 177 33 177 90zM412 527h-36l-120 101l-121 -101h-36l125 166h63z" />
    <glyph glyph-name="Gbreve" unicode="&#x11e;" horiz-adv-x="778" 
d="M772 282h-15c-54 0 -75 -4 -84 -14c-6 -7 -6 -8 -6 -62v-220h-42l-37 90c-65 -65 -124 -91 -208 -91c-189 0 -338 148 -338 363c0 200 140 389 349 389c73 0 117 -17 182 -69l39 61h52v-281h-43c-41 160 -120 242 -234 242c-139 0 -213 -119 -213 -342
c0 -207 76 -316 216 -316c110 0 174 68 174 190c0 55 -7 60 -91 60h-19v47h318v-47zM559 917c0 -86 -74 -142 -171 -142s-169 56 -169 142h43c6 -54 52 -86 127 -86s120 32 126 86h44z" />
    <glyph glyph-name="gbreve" unicode="&#x11f;" horiz-adv-x="537" 
d="M542 437c0 -27 -20 -48 -45 -48c-43 0 -44 51 -55 51c-8 0 -17 -6 -34 -24c28 -33 37 -58 37 -98c0 -66 -34 -118 -94 -145c-33 -15 -48 -17 -143 -19c-67 -2 -94 -15 -94 -45c0 -11 5 -22 12 -26c12 -6 15 -9 70 -9h102c69 0 101 -4 127 -14c37 -15 60 -55 60 -105
c0 -105 -84 -158 -251 -158c-134 0 -211 37 -211 103c0 41 30 73 92 95c-47 16 -67 42 -67 86c0 55 28 85 95 100c-52 24 -84 75 -84 134c0 100 78 166 197 166c50 0 82 -10 124 -38c46 42 64 52 96 52c39 0 66 -24 66 -58zM353 317c0 77 -35 121 -98 121
c-67 0 -105 -45 -105 -124c0 -75 39 -122 101 -122c64 0 102 47 102 125zM415 -72c0 32 -25 54 -65 58c-15 2 -21 2 -104 2h-74c-48 -25 -66 -47 -66 -80c0 -45 48 -70 132 -70c112 0 177 33 177 90zM397 675c0 -81 -61 -143 -142 -143s-141 62 -141 144v13h36
c5 -60 43 -95 106 -95c62 0 100 35 105 95h36v-14z" />
    <glyph glyph-name="Gdotaccent" unicode="&#x120;" horiz-adv-x="778" 
d="M772 282h-15c-54 0 -75 -4 -84 -14c-6 -7 -6 -8 -6 -62v-220h-42l-37 90c-65 -65 -124 -91 -208 -91c-189 0 -338 148 -338 363c0 200 140 389 349 389c73 0 117 -17 182 -69l39 61h52v-281h-43c-41 160 -120 242 -234 242c-139 0 -213 -119 -213 -342
c0 -207 76 -316 216 -316c110 0 174 68 174 190c0 55 -7 60 -91 60h-19v47h318v-47zM440 846c0 -28 -23 -50 -51 -50c-26 0 -49 23 -49 50s23 50 50 50s50 -23 50 -50z" />
    <glyph glyph-name="gdotaccent" unicode="&#x121;" horiz-adv-x="537" 
d="M542 437c0 -27 -20 -48 -45 -48c-43 0 -44 51 -55 51c-8 0 -17 -6 -34 -24c28 -33 37 -58 37 -98c0 -66 -34 -118 -94 -145c-33 -15 -48 -17 -143 -19c-67 -2 -94 -15 -94 -45c0 -11 5 -22 12 -26c12 -6 15 -9 70 -9h102c69 0 101 -4 127 -14c37 -15 60 -55 60 -105
c0 -105 -84 -158 -251 -158c-134 0 -211 37 -211 103c0 41 30 73 92 95c-47 16 -67 42 -67 86c0 55 28 85 95 100c-52 24 -84 75 -84 134c0 100 78 166 197 166c50 0 82 -10 124 -38c46 42 64 52 96 52c39 0 66 -24 66 -58zM353 317c0 77 -35 121 -98 121
c-67 0 -105 -45 -105 -124c0 -75 39 -122 101 -122c64 0 102 47 102 125zM415 -72c0 32 -25 54 -65 58c-15 2 -21 2 -104 2h-74c-48 -25 -66 -47 -66 -80c0 -45 48 -70 132 -70c112 0 177 33 177 90zM306 610c0 -28 -23 -50 -51 -50c-26 0 -49 23 -49 50s23 50 50 50
s50 -23 50 -50z" />
    <glyph glyph-name="Gcommaaccent" unicode="&#x122;" horiz-adv-x="778" 
d="M772 282h-15c-54 0 -75 -4 -84 -14c-6 -7 -6 -8 -6 -62v-220h-42l-37 90c-65 -65 -124 -91 -208 -91c-189 0 -338 148 -338 363c0 200 140 389 349 389c73 0 117 -17 182 -69l39 61h52v-281h-43c-41 160 -120 242 -234 242c-139 0 -213 -119 -213 -342
c0 -207 76 -316 216 -316c110 0 174 68 174 190c0 55 -7 60 -91 60h-19v47h318v-47zM458 -126c0 -37 -14 -77 -38 -109c-13 -17 -32 -38 -81 -67l-20 25c59 37 91 80 91 123c0 5 -2 8 -6 8h-3c-4 -1 -7 -1 -12 -1c-40 0 -64 20 -64 53c0 31 25 54 59 54c43 0 74 -35 74 -86z
" />
    <glyph glyph-name="gcommaaccent" unicode="&#x123;" horiz-adv-x="537" 
d="M326 762c-59 -37 -91 -80 -91 -123c0 -5 2 -8 6 -8h3c4 1 7 1 12 1c40 0 64 -20 64 -53c0 -31 -25 -54 -59 -54c-43 0 -74 35 -74 86c0 37 14 77 38 109c13 17 32 38 81 67zM542 437c0 -27 -20 -48 -45 -48c-43 0 -44 51 -55 51c-8 0 -17 -6 -34 -24
c28 -33 37 -58 37 -98c0 -66 -34 -118 -94 -145c-33 -15 -48 -17 -143 -19c-67 -2 -94 -15 -94 -45c0 -11 5 -22 12 -26c12 -6 15 -9 70 -9h102c69 0 101 -4 127 -14c37 -15 60 -55 60 -105c0 -105 -84 -158 -251 -158c-134 0 -211 37 -211 103c0 41 30 73 92 95
c-47 16 -67 42 -67 86c0 55 28 85 95 100c-52 24 -84 75 -84 134c0 100 78 166 197 166c50 0 82 -10 124 -38c46 42 64 52 96 52c39 0 66 -24 66 -58zM353 317c0 77 -35 121 -98 121c-67 0 -105 -45 -105 -124c0 -75 39 -122 101 -122c64 0 102 47 102 125zM415 -72
c0 32 -25 54 -65 58c-15 2 -21 2 -104 2h-74c-48 -25 -66 -47 -66 -80c0 -45 48 -70 132 -70c112 0 177 33 177 90z" />
    <glyph glyph-name="Hcircumflex" unicode="&#x124;" horiz-adv-x="833" 
d="M804 0h-328v47h18c81 0 90 5 90 47v253h-335v-253c0 -42 9 -47 90 -47h19v-47h-329v47h18c81 0 90 5 90 47v534c0 42 -9 47 -90 47h-18v47h329v-47h-19c-81 0 -90 -5 -90 -47v-227h335v227c0 42 -9 47 -90 47h-14v47h324v-47h-18c-81 0 -90 -5 -90 -47v-534
c0 -42 9 -47 90 -47h18v-47zM605 771h-44l-144 91l-145 -91h-43l150 150h76z" />
    <glyph glyph-name="hcircumflex" unicode="&#x125;" horiz-adv-x="611" 
d="M593 0h-253v36h14c65 0 66 7 66 47v201c0 49 -7 79 -22 101c-15 20 -45 35 -71 35c-43 0 -88 -31 -109 -76c-11 -23 -18 -68 -18 -118v-143c0 -40 1 -47 66 -47h14v-36h-253v36h14c64 0 65 7 65 47v550c0 43 -6 50 -43 50h-48v43l185 11v-353c45 67 94 97 158 97
c60 0 110 -29 135 -77c18 -34 21 -52 21 -124v-197c0 -40 1 -47 65 -47h14v-36zM494 786h-44l-144 91l-145 -91h-43l150 150h76z" />
    <glyph glyph-name="Hbar" unicode="&#x126;" horiz-adv-x="833" 
d="M804 0h-328v47h18c81 0 90 5 90 47v253h-335v-253c0 -42 9 -47 90 -47h19v-47h-329v47h18c81 0 90 5 90 47v427h-108v42h108v65c0 42 -9 47 -90 47h-18v47h329v-47h-19c-81 0 -90 -5 -90 -47v-65h335v65c0 42 -9 47 -90 47h-14v47h324v-47h-18c-81 0 -90 -5 -90 -47v-65
h108v-42h-108v-427c0 -42 9 -47 90 -47h18v-47zM584 401v120h-335v-120h335z" />
    <glyph glyph-name="hbar" unicode="&#x127;" horiz-adv-x="658" 
d="M618 0h-253v36h14c65 0 66 7 66 47v201c0 49 -7 79 -22 101c-15 20 -45 35 -71 35c-43 0 -88 -31 -109 -76c-11 -23 -18 -68 -18 -118v-143c0 -40 1 -47 66 -47h14v-36h-253v36h14c64 0 65 7 65 47v405l-91 -40v36l91 40v109c0 43 -6 50 -43 50h-48v43l185 11v-171
l106 46v-36l-106 -47v-145c45 67 94 97 158 97c60 0 110 -29 135 -77c18 -34 21 -52 21 -124v-197c0 -40 1 -47 65 -47h14v-36z" />
    <glyph glyph-name="Itilde" unicode="&#x128;" horiz-adv-x="407" 
d="M369 0h-331v47h20c81 0 90 5 90 47v534c0 42 -9 47 -90 47h-20v47h331v-47h-20c-80 0 -89 -5 -89 -47v-534c0 -42 9 -47 89 -47h20v-47zM369 899c-7 -63 -51 -106 -108 -106c-26 0 -38 4 -89 28c-19 9 -38 14 -52 14c-23 0 -40 -15 -47 -42h-35c13 62 51 101 100 101
c23 0 31 -2 86 -27c34 -15 45 -19 59 -19c23 0 45 22 51 51h35z" />
    <glyph glyph-name="itilde" unicode="&#x129;" horiz-adv-x="315" 
d="M289 0h-259v36h12c64 0 70 7 70 47v279c0 42 -6 50 -43 50h-51v43l188 11v-383c0 -40 6 -47 71 -47h12v-36zM324 663c-7 -63 -51 -106 -108 -106c-26 0 -38 4 -89 28c-19 9 -38 14 -52 14c-23 0 -40 -15 -47 -42h-35c13 62 51 101 100 101c23 0 31 -2 86 -27
c34 -15 45 -19 59 -19c23 0 45 22 51 51h35z" />
    <glyph glyph-name="Imacron" unicode="&#x12a;" horiz-adv-x="407" 
d="M369 0h-331v47h20c81 0 90 5 90 47v534c0 42 -9 47 -90 47h-20v47h331v-47h-20c-80 0 -89 -5 -89 -47v-534c0 -42 9 -47 89 -47h20v-47zM360 819h-313v54h313v-54z" />
    <glyph glyph-name="imacron" unicode="&#x12b;" horiz-adv-x="315" 
d="M289 0h-259v36h12c64 0 70 7 70 47v279c0 42 -6 50 -43 50h-51v43l188 11v-383c0 -40 6 -47 71 -47h12v-36zM315 583h-313v54h313v-54z" />
    <glyph glyph-name="Ibreve" unicode="&#x12c;" horiz-adv-x="407" 
d="M369 0h-331v47h20c81 0 90 5 90 47v534c0 42 -9 47 -90 47h-20v47h331v-47h-20c-80 0 -89 -5 -89 -47v-534c0 -42 9 -47 89 -47h20v-47zM374 917c0 -86 -74 -142 -171 -142s-169 56 -169 142h43c6 -54 52 -86 127 -86s120 32 126 86h44z" />
    <glyph glyph-name="ibreve" unicode="&#x12d;" horiz-adv-x="315" 
d="M289 0h-259v36h12c64 0 70 7 70 47v279c0 42 -6 50 -43 50h-51v43l188 11v-383c0 -40 6 -47 71 -47h12v-36zM300 675c0 -81 -61 -143 -142 -143s-141 62 -141 144v13h36c5 -60 43 -95 106 -95c62 0 100 35 105 95h36v-14z" />
    <glyph glyph-name="Iogonek" unicode="&#x12e;" horiz-adv-x="407" 
d="M369 0h-9c-54 0 -115 0 -138 -45c-10 -20 -18 -46 -18 -76c0 -31 13 -51 40 -51c67 0 81 40 95 40c5 0 10 -5 10 -12c0 -40 -32 -92 -119 -92c-60 0 -114 41 -114 112c0 44 43 93 84 124h-162v47h20c81 0 90 5 90 47v534c0 42 -9 47 -90 47h-20v47h331v-47h-20
c-80 0 -89 -5 -89 -47v-534c0 -42 9 -47 89 -47h20v-47z" />
    <glyph glyph-name="iogonek" unicode="&#x12f;" horiz-adv-x="315" 
d="M289 -144c0 -40 -32 -92 -119 -92c-60 0 -114 41 -114 112c0 44 43 93 84 124h-110v36h12c64 0 70 7 70 47v279c0 42 -6 50 -43 50h-51v43l188 11v-383c0 -40 6 -47 71 -47h12v-36h-56c-30 0 -57 -18 -71 -45c-10 -20 -18 -46 -18 -76c0 -31 13 -51 40 -51
c67 0 81 40 95 40c5 0 10 -5 10 -12zM209 610c0 -28 -23 -50 -51 -50c-26 0 -49 23 -49 50s23 50 50 50s50 -23 50 -50z" />
    <glyph glyph-name="Idotaccent" unicode="&#x130;" horiz-adv-x="407" 
d="M369 0h-331v47h20c81 0 90 5 90 47v534c0 42 -9 47 -90 47h-20v47h331v-47h-20c-80 0 -89 -5 -89 -47v-534c0 -42 9 -47 89 -47h20v-47zM254 846c0 -28 -23 -50 -51 -50c-26 0 -49 23 -49 50s23 50 50 50s50 -23 50 -50z" />
    <glyph glyph-name="dotlessi" unicode="&#x131;" horiz-adv-x="315" 
d="M289 0h-259v36h12c64 0 70 7 70 47v279c0 42 -6 50 -43 50h-51v43l188 11v-383c0 -40 6 -47 71 -47h12v-36z" />
    <glyph glyph-name="Jcircumflex" unicode="&#x134;" horiz-adv-x="556" 
d="M537 675h-19c-81 0 -90 -5 -90 -47v-360c0 -220 -73 -283 -224 -283c-129 0 -199 74 -199 170c0 71 42 122 100 122c44 0 75 -30 75 -72c0 -41 -27 -72 -63 -72c-11 0 -20 1 -37 5h-3c-7 0 -12 -7 -12 -16c0 -46 55 -90 121 -90c58 0 99 30 118 87c10 30 13 70 13 158
v351c0 42 -9 47 -89 47h-19v47h328v-47zM561 771h-44l-144 91l-145 -91h-43l150 150h76z" />
    <glyph glyph-name="jcircumflex" unicode="&#x135;" horiz-adv-x="296" 
d="M207 71c0 -113 -10 -164 -41 -208c-29 -40 -80 -65 -136 -65c-67 0 -112 33 -112 82c0 34 24 60 56 60c28 0 52 -22 52 -47c0 -7 -2 -13 -7 -24c-4 -10 -5 -12 -5 -16c0 -7 11 -13 25 -13c21 0 45 15 55 35c14 29 19 67 19 148v339c0 43 -6 50 -43 50h-58v43l195 11v-395
zM316 527h-36l-120 101l-121 -101h-36l125 166h63z" />
    <glyph glyph-name="Kcommaaccent" unicode="&#x136;" horiz-adv-x="778" 
d="M803 0h-342v47h31c49 0 68 7 68 23c0 10 -4 18 -20 42l-174 255l-116 -117v-156c0 -42 9 -47 90 -47h19v-47h-329v47h18c81 0 90 5 90 47v534c0 42 -9 47 -90 47h-18v47h329v-47h-19c-81 0 -90 -5 -90 -47v-301l245 246c29 29 49 58 49 72c0 21 -19 30 -65 30h-25v47h308
v-47c-60 0 -121 -29 -169 -80l-149 -149l242 -349c29 -43 41 -50 98 -50h19v-47zM479 -126c0 -37 -14 -77 -38 -109c-13 -17 -32 -38 -81 -67l-20 25c59 37 91 80 91 123c0 5 -2 8 -6 8h-3c-4 -1 -7 -1 -12 -1c-40 0 -64 20 -64 53c0 31 25 54 59 54c43 0 74 -35 74 -86z
" />
    <glyph glyph-name="kcommaaccent" unicode="&#x137;" horiz-adv-x="593" 
d="M587 0h-264v36h19c33 0 44 4 44 17c0 5 -3 11 -7 18l-119 167l-61 -58v-97c0 -40 1 -47 66 -47h14v-36h-253v36h14c64 0 65 7 65 47v550c0 43 -6 50 -43 50h-48v43l185 11v-495l135 130c16 16 23 28 23 39c0 13 -15 19 -47 19h-31v36h263v-36c-68 -8 -111 -30 -169 -87
l-45 -44l142 -194c41 -52 61 -64 117 -69v-36zM370 -126c0 -37 -14 -77 -38 -109c-13 -17 -32 -38 -81 -67l-20 25c59 37 91 80 91 123c0 5 -2 8 -6 8h-3c-4 -1 -7 -1 -12 -1c-40 0 -64 20 -64 53c0 31 25 54 59 54c43 0 74 -35 74 -86z" />
    <glyph glyph-name="Lacute" unicode="&#x139;" horiz-adv-x="667" 
d="M646 274l-21 -274h-590v47h18c81 0 90 5 90 47v534c0 42 -9 47 -90 47h-18v47h328v-47h-18c-81 0 -90 -5 -90 -47v-533c0 -42 21 -48 72 -48h42c167 0 210 72 233 227h44zM367 892c0 -13 -12 -26 -30 -35l-191 -88h-49l168 126c30 23 42 28 60 28c23 0 42 -14 42 -31z
" />
    <glyph glyph-name="lacute" unicode="&#x13a;" horiz-adv-x="315" 
d="M287 0h-259v36h17c64 0 65 7 65 47v550c0 43 -6 50 -42 50h-49v43l185 11v-654c0 -40 1 -47 66 -47h17v-36zM310 907c0 -13 -12 -26 -30 -35l-191 -88h-49l168 126c30 23 42 28 60 28c23 0 42 -14 42 -31z" />
    <glyph glyph-name="Lcommaaccent" unicode="&#x13b;" horiz-adv-x="667" 
d="M646 274l-21 -274h-590v47h18c81 0 90 5 90 47v534c0 42 -9 47 -90 47h-18v47h328v-47h-18c-81 0 -90 -5 -90 -47v-533c0 -42 21 -48 72 -48h42c167 0 210 72 233 227h44zM402 -126c0 -37 -14 -77 -38 -109c-13 -17 -32 -38 -81 -67l-20 25c59 37 91 80 91 123
c0 5 -2 8 -6 8h-3c-4 -1 -7 -1 -12 -1c-40 0 -64 20 -64 53c0 31 25 54 59 54c43 0 74 -35 74 -86z" />
    <glyph glyph-name="lcommaaccent" unicode="&#x13c;" horiz-adv-x="315" 
d="M287 0h-259v36h17c64 0 65 7 65 47v550c0 43 -6 50 -42 50h-49v43l185 11v-654c0 -40 1 -47 66 -47h17v-36zM226 -126c0 -37 -14 -77 -38 -109c-13 -17 -32 -38 -81 -67l-20 25c59 37 91 80 91 123c0 5 -2 8 -6 8h-3c-4 -1 -7 -1 -12 -1c-40 0 -64 20 -64 53
c0 31 25 54 59 54c43 0 74 -35 74 -86z" />
    <glyph glyph-name="Lcaron" unicode="&#x13d;" horiz-adv-x="667" 
d="M646 274l-21 -274h-590v47h18c81 0 90 5 90 47v534c0 42 -9 47 -90 47h-18v47h328v-47h-18c-81 0 -90 -5 -90 -47v-533c0 -42 21 -48 72 -48h42c167 0 210 72 233 227h44zM542 636c0 -37 -14 -77 -38 -109c-13 -17 -32 -38 -81 -67l-20 25c59 37 91 80 91 123
c0 5 -2 8 -6 8h-3c-4 -1 -7 -1 -12 -1c-40 0 -64 20 -64 53c0 31 25 54 59 54c43 0 74 -35 74 -86z" />
    <glyph glyph-name="lcaron" unicode="&#x13e;" horiz-adv-x="315" 
d="M287 0h-259v36h17c64 0 65 7 65 47v550c0 43 -6 50 -42 50h-49v43l185 11v-654c0 -40 1 -47 66 -47h17v-36zM383 651c0 -37 -14 -77 -38 -109c-13 -17 -32 -38 -81 -67l-20 25c59 37 91 80 91 123c0 5 -2 8 -6 8h-3c-4 -1 -7 -1 -12 -1c-40 0 -64 20 -64 53
c0 31 25 54 59 54c43 0 74 -35 74 -86z" />
    <glyph glyph-name="Ldot" unicode="&#x13f;" horiz-adv-x="667" 
d="M646 274l-21 -274h-590v47h18c81 0 90 5 90 47v534c0 42 -9 47 -90 47h-18v47h328v-47h-18c-81 0 -90 -5 -90 -47v-533c0 -42 21 -48 72 -48h42c167 0 210 72 233 227h44zM583 384c0 -28 -23 -50 -51 -50c-26 0 -49 23 -49 50s23 50 50 50s50 -23 50 -50z" />
    <glyph glyph-name="ldot" unicode="&#x140;" horiz-adv-x="315" 
d="M287 0h-259v36h17c64 0 65 7 65 47v550c0 43 -6 50 -42 50h-49v43l185 11v-654c0 -40 1 -47 66 -47h17v-36zM365 384c0 -28 -23 -50 -51 -50c-26 0 -49 23 -49 50s23 50 50 50s50 -23 50 -50z" />
    <glyph glyph-name="Lslash" unicode="&#x141;" horiz-adv-x="667" 
d="M645 274l-20 -274h-591v47h18c81 0 90 5 90 47v174l-108 -75v55l108 76v304c0 42 -9 47 -90 47h-18v47h328v-47h-18c-81 0 -90 -5 -90 -47v-239l187 137v-58l-187 -136v-237c0 -42 21 -48 72 -48h43c166 0 210 73 232 227h44z" />
    <glyph glyph-name="lslash" unicode="&#x142;" horiz-adv-x="315" 
d="M287 0h-259v36h7c64 0 75 7 75 47v262l-78 -79v64l78 79v224c0 43 -6 50 -42 50h-49v43l185 11v-249l78 79v-64l-78 -79v-341c0 -40 11 -47 76 -47h7v-36z" />
    <glyph glyph-name="Nacute" unicode="&#x143;" horiz-adv-x="815" 
d="M794 675c-96 -4 -116 -33 -116 -170v-519h-42l-446 602v-371c0 -137 20 -166 115 -170v-47h-285v47c96 4 116 33 116 170v425c-18 25 -41 33 -92 33h-25v47h206l399 -531v314c0 137 -20 166 -115 170v47h285v-47zM575 892c0 -13 -12 -26 -30 -35l-191 -88h-49l168 126
c30 23 42 28 60 28c23 0 42 -14 42 -31z" />
    <glyph glyph-name="nacute" unicode="&#x144;" horiz-adv-x="611" 
d="M593 0h-253v36h14c65 0 66 7 66 47v202c0 48 -7 79 -22 100c-15 20 -45 35 -71 35c-43 0 -88 -31 -109 -76c-11 -23 -18 -68 -18 -117v-144c0 -40 1 -47 66 -47h14v-36h-253v36h14c64 0 65 7 65 47v279c0 43 -6 50 -43 50h-36v43l173 11v-81c44 66 94 96 158 96
c59 0 110 -29 135 -77c18 -34 21 -52 21 -124v-197c0 -40 1 -47 65 -47h14v-36zM455 660c0 -14 -10 -30 -25 -39l-159 -97h-41l140 140c25 25 35 31 50 31c19 0 35 -16 35 -35z" />
    <glyph glyph-name="Ncommaaccent" unicode="&#x145;" horiz-adv-x="815" 
d="M794 675c-96 -4 -116 -33 -116 -170v-519h-42l-446 602v-371c0 -137 20 -166 115 -170v-47h-285v47c96 4 116 33 116 170v425c-18 25 -41 33 -92 33h-25v47h206l399 -531v314c0 137 -20 166 -115 170v47h285v-47zM476 -126c0 -37 -14 -77 -38 -109
c-13 -17 -32 -38 -81 -67l-20 25c59 37 91 80 91 123c0 5 -2 8 -6 8h-3c-4 -1 -7 -1 -12 -1c-40 0 -64 20 -64 53c0 31 25 54 59 54c43 0 74 -35 74 -86z" />
    <glyph glyph-name="ncommaaccent" unicode="&#x146;" horiz-adv-x="611" 
d="M593 0h-253v36h14c65 0 66 7 66 47v202c0 48 -7 79 -22 100c-15 20 -45 35 -71 35c-43 0 -88 -31 -109 -76c-11 -23 -18 -68 -18 -117v-144c0 -40 1 -47 66 -47h14v-36h-253v36h14c64 0 65 7 65 47v279c0 43 -6 50 -43 50h-36v43l173 11v-81c44 66 94 96 158 96
c59 0 110 -29 135 -77c18 -34 21 -52 21 -124v-197c0 -40 1 -47 65 -47h14v-36zM374 -126c0 -37 -14 -77 -38 -109c-13 -17 -32 -38 -81 -67l-20 25c59 37 91 80 91 123c0 5 -2 8 -6 8h-3c-4 -1 -7 -1 -12 -1c-40 0 -64 20 -64 53c0 31 25 54 59 54c43 0 74 -35 74 -86z" />
    <glyph glyph-name="Ncaron" unicode="&#x147;" horiz-adv-x="815" 
d="M794 675c-96 -4 -116 -33 -116 -170v-519h-42l-446 602v-371c0 -137 20 -166 115 -170v-47h-285v47c96 4 116 33 116 170v425c-18 25 -41 33 -92 33h-25v47h206l399 -531v314c0 137 -20 166 -115 170v47h285v-47zM596 921l-150 -150h-76l-150 150h44l144 -91l145 91h43z
" />
    <glyph glyph-name="ncaron" unicode="&#x148;" horiz-adv-x="611" 
d="M593 0h-253v36h14c65 0 66 7 66 47v202c0 48 -7 79 -22 100c-15 20 -45 35 -71 35c-43 0 -88 -31 -109 -76c-11 -23 -18 -68 -18 -117v-144c0 -40 1 -47 66 -47h14v-36h-253v36h14c64 0 65 7 65 47v279c0 43 -6 50 -43 50h-36v43l173 11v-81c44 66 94 96 158 96
c59 0 110 -29 135 -77c18 -34 21 -52 21 -124v-197c0 -40 1 -47 65 -47h14v-36zM462 693l-125 -166h-63l-125 166h36l120 -101l121 101h36z" />
    <glyph glyph-name="Eng" unicode="&#x14a;" horiz-adv-x="815" 
d="M794 675c-96 -4 -116 -33 -116 -170v-519c0 -158 -61 -318 -200 -318c-67 0 -112 33 -112 82c0 34 24 60 56 60c28 0 52 -22 52 -47c0 -7 -2 -13 -7 -24c-4 -10 -5 -12 -5 -16c0 -7 11 -13 25 -13c119 0 137 154 137 293l-434 585v-371c0 -137 20 -166 115 -170v-47h-285
v47c96 4 116 33 116 170v425c-18 25 -41 33 -92 33h-25v47h206l399 -531v314c0 137 -20 166 -115 170v47h285v-47z" />
    <glyph glyph-name="eng" unicode="&#x14b;" horiz-adv-x="611" 
d="M514 83c0 -199 -38 -415 -209 -415c-67 0 -112 33 -112 82c0 34 24 60 56 60c28 0 52 -22 52 -47c0 -7 -2 -13 -7 -24c-4 -10 -5 -12 -5 -16c0 -7 11 -13 25 -13c106 0 106 206 106 373v202c0 48 -7 79 -22 100c-15 20 -45 35 -71 35c-43 0 -88 -31 -109 -76
c-11 -23 -18 -68 -18 -117v-144c0 -40 1 -47 66 -47h14v-36h-253v36h14c64 0 65 7 65 47v279c0 43 -6 50 -43 50h-36v43l173 11v-81c44 66 94 96 158 96c59 0 110 -29 135 -77c18 -34 21 -52 21 -124v-197z" />
    <glyph glyph-name="Omacron" unicode="&#x14c;" horiz-adv-x="778" 
d="M733 361c0 -214 -148 -376 -344 -376c-195 0 -344 162 -344 375c0 204 140 377 348 377c192 0 340 -164 340 -376zM601 361c0 230 -77 329 -209 329c-142 0 -215 -101 -215 -327c0 -230 73 -331 212 -331c138 0 212 101 212 329zM546 819h-313v54h313v-54z" />
    <glyph glyph-name="omacron" unicode="&#x14d;" horiz-adv-x="500" 
d="M466 233c0 -138 -96 -248 -216 -248s-216 110 -216 247c0 140 96 249 218 249c118 0 214 -111 214 -248zM361 233c0 132 -39 205 -109 205c-75 0 -113 -70 -113 -206c0 -132 39 -204 111 -204s111 72 111 205zM408 583h-313v54h313v-54z" />
    <glyph glyph-name="Obreve" unicode="&#x14e;" horiz-adv-x="778" 
d="M733 361c0 -214 -148 -376 -344 -376c-195 0 -344 162 -344 375c0 204 140 377 348 377c192 0 340 -164 340 -376zM601 361c0 230 -77 329 -209 329c-142 0 -215 -101 -215 -327c0 -230 73 -331 212 -331c138 0 212 101 212 329zM559 917c0 -86 -74 -142 -171 -142
s-169 56 -169 142h43c6 -54 52 -86 127 -86s120 32 126 86h44z" />
    <glyph glyph-name="obreve" unicode="&#x14f;" horiz-adv-x="500" 
d="M466 233c0 -138 -96 -248 -216 -248s-216 110 -216 247c0 140 96 249 218 249c118 0 214 -111 214 -248zM361 233c0 132 -39 205 -109 205c-75 0 -113 -70 -113 -206c0 -132 39 -204 111 -204s111 72 111 205zM393 675c0 -81 -61 -143 -142 -143s-141 62 -141 144v13h36
c5 -60 43 -95 106 -95c62 0 100 35 105 95h36v-14z" />
    <glyph glyph-name="Ohungarumlaut" unicode="&#x150;" horiz-adv-x="778" 
d="M733 361c0 -214 -148 -376 -344 -376c-195 0 -344 162 -344 375c0 204 140 377 348 377c192 0 340 -164 340 -376zM601 361c0 230 -77 329 -209 329c-142 0 -215 -101 -215 -327c0 -230 73 -331 212 -331c138 0 212 101 212 329zM432 921c0 -13 -5 -25 -18 -40l-81 -98
l-16 9l35 98c15 42 30 59 53 59c15 0 27 -13 27 -28zM550 921c0 -13 -5 -24 -18 -40l-81 -98l-16 9l35 98c15 42 30 59 53 59c15 0 27 -13 27 -28z" />
    <glyph glyph-name="ohungarumlaut" unicode="&#x151;" horiz-adv-x="500" 
d="M466 233c0 -138 -96 -248 -216 -248s-216 110 -216 247c0 140 96 249 218 249c118 0 214 -111 214 -248zM361 233c0 132 -39 205 -109 205c-75 0 -113 -70 -113 -206c0 -132 39 -204 111 -204s111 72 111 205zM295 665c0 -13 -5 -25 -18 -40l-81 -98l-16 9l35 98
c15 42 30 59 53 59c15 0 27 -13 27 -28zM413 665c0 -13 -5 -24 -18 -40l-81 -98l-16 9l35 98c15 42 30 59 53 59c15 0 27 -13 27 -28z" />
    <glyph glyph-name="OE" unicode="&#x152;" horiz-adv-x="1000" 
d="M981 267l-20 -267h-588c-108 0 -181 27 -243 90c-70 72 -111 174 -111 276c0 198 128 356 362 356h570l14 -256h-44c-30 175 -71 209 -236 209h-26c-54 0 -63 -7 -63 -50v-228h23c95 0 125 39 130 137h47v-328h-47c-3 94 -10 144 -134 144h-19v-255c0 -42 21 -48 72 -48
h37c148 0 198 48 232 220h44zM484 237v272c0 74 -4 94 -26 121c-23 29 -63 45 -111 45c-143 0 -196 -122 -196 -315c0 -209 65 -313 197 -313c52 0 96 21 116 55c16 28 20 58 20 135z" />
    <glyph glyph-name="oe" unicode="&#x153;" horiz-adv-x="833" 
d="M800 127c-41 -95 -110 -142 -206 -142c-72 0 -137 28 -176 77c-43 -52 -98 -77 -170 -77c-125 0 -214 102 -214 247c0 139 97 249 219 249c65 0 130 -33 167 -87c45 58 103 87 172 87c123 0 208 -105 208 -256h-328c0 -134 61 -186 141 -186c67 0 111 31 152 107z
M366 239c0 128 -40 199 -112 199c-76 0 -115 -70 -115 -209c0 -129 40 -201 113 -201c88 0 114 96 114 211zM692 305c0 80 -41 133 -102 133c-63 0 -113 -60 -117 -170h177c33 0 42 8 42 37z" />
    <glyph glyph-name="Racute" unicode="&#x154;" horiz-adv-x="722" 
d="M713 160c-3 -120 -42 -175 -124 -175c-78 0 -117 46 -128 159l-5 51c-12 119 -63 155 -152 155h-58v-256c0 -42 9 -47 90 -47h18v-47h-328v47h18c81 0 90 5 90 47v534c0 42 -9 47 -90 47h-18v47h346c168 0 264 -65 264 -179c0 -101 -69 -159 -213 -179
c79 -20 116 -62 139 -154l16 -63c17 -69 25 -86 50 -86c27 0 39 30 43 99h42zM513 542c0 91 -45 133 -144 133h-54c-64 0 -69 -3 -69 -33v-245h110c100 0 157 39 157 145zM529 892c0 -13 -12 -26 -30 -35l-191 -88h-49l168 126c30 23 42 28 60 28c23 0 42 -14 42 -31z" />
    <glyph glyph-name="racute" unicode="&#x155;" horiz-adv-x="444" 
d="M435 401c0 -41 -25 -68 -61 -68c-32 0 -55 23 -55 55c0 19 4 29 18 45c-42 -5 -76 -36 -100 -92c-25 -57 -39 -133 -39 -208v-50c0 -40 11 -47 75 -47h19v-36h-267v36h14c65 0 66 7 66 47v279c0 43 -6 50 -43 50h-41v43l177 11v-124c32 88 87 139 150 139
c53 0 87 -32 87 -80zM347 660c0 -14 -10 -30 -25 -39l-159 -97h-41l140 140c25 25 35 31 50 31c19 0 35 -16 35 -35z" />
    <glyph glyph-name="Rcommaaccent" unicode="&#x156;" horiz-adv-x="722" 
d="M713 160c-3 -120 -42 -175 -124 -175c-78 0 -117 46 -128 159l-5 51c-12 119 -63 155 -152 155h-58v-256c0 -42 9 -47 90 -47h18v-47h-328v47h18c81 0 90 5 90 47v534c0 42 -9 47 -90 47h-18v47h346c168 0 264 -65 264 -179c0 -101 -69 -159 -213 -179
c79 -20 116 -62 139 -154l16 -63c17 -69 25 -86 50 -86c27 0 39 30 43 99h42zM513 542c0 91 -45 133 -144 133h-54c-64 0 -69 -3 -69 -33v-245h110c100 0 157 39 157 145zM430 -126c0 -37 -14 -77 -38 -109c-13 -17 -32 -38 -81 -67l-20 25c59 37 91 80 91 123
c0 5 -2 8 -6 8h-3c-4 -1 -7 -1 -12 -1c-40 0 -64 20 -64 53c0 31 25 54 59 54c43 0 74 -35 74 -86z" />
    <glyph glyph-name="rcommaaccent" unicode="&#x157;" horiz-adv-x="444" 
d="M435 401c0 -41 -25 -68 -61 -68c-32 0 -55 23 -55 55c0 19 4 29 18 45c-42 -5 -76 -36 -100 -92c-25 -57 -39 -133 -39 -208v-50c0 -40 11 -47 75 -47h19v-36h-267v36h14c65 0 66 7 66 47v279c0 43 -6 50 -43 50h-41v43l177 11v-124c32 88 87 139 150 139
c53 0 87 -32 87 -80zM227 -126c0 -37 -14 -77 -38 -109c-13 -17 -32 -38 -81 -67l-20 25c59 37 91 80 91 123c0 5 -2 8 -6 8h-3c-4 -1 -7 -1 -12 -1c-40 0 -64 20 -64 53c0 31 25 54 59 54c43 0 74 -35 74 -86z" />
    <glyph glyph-name="Rcaron" unicode="&#x158;" horiz-adv-x="722" 
d="M713 160c-3 -120 -42 -175 -124 -175c-78 0 -117 46 -128 159l-5 51c-12 119 -63 155 -152 155h-58v-256c0 -42 9 -47 90 -47h18v-47h-328v47h18c81 0 90 5 90 47v534c0 42 -9 47 -90 47h-18v47h346c168 0 264 -65 264 -179c0 -101 -69 -159 -213 -179
c79 -20 116 -62 139 -154l16 -63c17 -69 25 -86 50 -86c27 0 39 30 43 99h42zM513 542c0 91 -45 133 -144 133h-54c-64 0 -69 -3 -69 -33v-245h110c100 0 157 39 157 145zM550 921l-150 -150h-76l-150 150h44l144 -91l145 91h43z" />
    <glyph glyph-name="rcaron" unicode="&#x159;" horiz-adv-x="444" 
d="M435 401c0 -41 -25 -68 -61 -68c-32 0 -55 23 -55 55c0 19 4 29 18 45c-42 -5 -76 -36 -100 -92c-25 -57 -39 -133 -39 -208v-50c0 -40 11 -47 75 -47h19v-36h-267v36h14c65 0 66 7 66 47v279c0 43 -6 50 -43 50h-41v43l177 11v-124c32 88 87 139 150 139
c53 0 87 -32 87 -80zM354 693l-125 -166h-63l-125 166h36l120 -101l121 101h36z" />
    <glyph glyph-name="Sacute" unicode="&#x15a;" horiz-adv-x="630" 
d="M590 205c0 -134 -94 -220 -241 -220c-87 0 -143 20 -210 75l-45 -68h-39l-4 285h43c15 -77 36 -124 78 -171c47 -52 100 -75 174 -75c55 0 88 11 121 40c30 27 45 60 45 100c0 39 -16 72 -46 95c-21 16 -28 18 -102 37l-95 24c-147 38 -201 92 -201 201
c0 125 88 209 219 209c71 0 135 -24 182 -69l40 60h37l12 -260h-43c-13 51 -31 93 -60 134c-40 57 -97 87 -167 87c-85 0 -142 -48 -142 -118c0 -61 42 -100 131 -123l107 -27c80 -20 119 -37 146 -63c39 -38 60 -91 60 -153zM483 892c0 -13 -12 -26 -30 -35l-191 -88h-49
l168 126c30 23 42 28 60 28c23 0 42 -14 42 -31z" />
    <glyph glyph-name="sacute" unicode="&#x15b;" horiz-adv-x="463" 
d="M421 139c0 -93 -65 -154 -163 -154c-50 0 -96 16 -137 49l-35 -41h-35v189h40c24 -100 84 -154 168 -154c59 0 100 33 100 80c0 40 -28 60 -107 79l-53 12c-60 14 -83 24 -106 45c-22 20 -35 53 -35 92c0 87 58 145 146 145c50 0 86 -12 122 -40l29 36h35v-168h-35
c-16 46 -27 66 -49 88c-28 27 -59 40 -97 40c-55 0 -93 -29 -93 -69c0 -22 13 -43 35 -53c18 -10 18 -10 73 -22l50 -11c61 -13 81 -21 105 -42c28 -23 42 -57 42 -101zM381 660c0 -14 -10 -30 -25 -39l-159 -97h-41l140 140c25 25 35 31 50 31c19 0 35 -16 35 -35z" />
    <glyph glyph-name="Scircumflex" unicode="&#x15c;" horiz-adv-x="630" 
d="M590 205c0 -134 -94 -220 -241 -220c-87 0 -143 20 -210 75l-45 -68h-39l-4 285h43c15 -77 36 -124 78 -171c47 -52 100 -75 174 -75c55 0 88 11 121 40c30 27 45 60 45 100c0 39 -16 72 -46 95c-21 16 -28 18 -102 37l-95 24c-147 38 -201 92 -201 201
c0 125 88 209 219 209c71 0 135 -24 182 -69l40 60h37l12 -260h-43c-13 51 -31 93 -60 134c-40 57 -97 87 -167 87c-85 0 -142 -48 -142 -118c0 -61 42 -100 131 -123l107 -27c80 -20 119 -37 146 -63c39 -38 60 -91 60 -153zM503 771h-44l-144 91l-145 -91h-43l150 150h76z
" />
    <glyph glyph-name="scircumflex" unicode="&#x15d;" horiz-adv-x="463" 
d="M421 139c0 -93 -65 -154 -163 -154c-50 0 -96 16 -137 49l-35 -41h-35v189h40c24 -100 84 -154 168 -154c59 0 100 33 100 80c0 40 -28 60 -107 79l-53 12c-60 14 -83 24 -106 45c-22 20 -35 53 -35 92c0 87 58 145 146 145c50 0 86 -12 122 -40l29 36h35v-168h-35
c-16 46 -27 66 -49 88c-28 27 -59 40 -97 40c-55 0 -93 -29 -93 -69c0 -22 13 -43 35 -53c18 -10 18 -10 73 -22l50 -11c61 -13 81 -21 105 -42c28 -23 42 -57 42 -101zM388 527h-36l-120 101l-121 -101h-36l125 166h63z" />
    <glyph glyph-name="Scedilla" unicode="&#x15e;" horiz-adv-x="630" 
d="M590 205c0 -133 -94 -220 -238 -220c-5 0 -15 0 -26 1l-18 -49c14 2 20 3 29 3c49 0 82 -28 82 -68c0 -51 -49 -87 -121 -87c-31 0 -59 6 -87 17l14 33c24 -8 42 -12 61 -12c35 0 57 16 57 40c0 23 -19 39 -47 39c-9 0 -22 -2 -34 -5l-9 5l39 87c-64 10 -101 27 -153 71
l-45 -68h-39l-4 285h43c15 -77 36 -124 78 -171c47 -52 100 -75 174 -75c55 0 88 11 121 40c30 27 45 60 45 100c0 39 -16 72 -46 95c-21 16 -28 18 -102 37l-95 24c-147 38 -201 92 -201 201c0 125 88 209 219 209c71 0 135 -24 182 -69l40 60h37l12 -260h-43
c-13 51 -31 93 -60 134c-40 57 -97 87 -167 87c-85 0 -142 -48 -142 -118c0 -61 42 -100 131 -123l107 -27c80 -20 119 -37 146 -63c39 -38 60 -91 60 -153z" />
    <glyph glyph-name="scedilla" unicode="&#x15f;" horiz-adv-x="463" 
d="M421 139c0 -92 -65 -154 -162 -154h-16l-18 -48c13 2 20 3 28 3c49 0 82 -28 82 -68c0 -51 -49 -87 -120 -87c-31 0 -60 6 -88 17l15 33c23 -8 42 -12 61 -12c34 0 56 16 56 40c0 23 -19 39 -47 39c-9 0 -22 -2 -34 -5l-8 5l39 89c-37 9 -61 20 -88 43l-35 -41h-35v189
h40c24 -100 84 -154 168 -154c59 0 100 33 100 80c0 40 -28 60 -107 79l-53 12c-60 14 -83 24 -106 45c-22 20 -35 53 -35 92c0 87 58 145 146 145c50 0 86 -12 122 -40l29 36h35v-168h-35c-16 46 -27 66 -49 88c-28 27 -59 40 -97 40c-55 0 -93 -29 -93 -69
c0 -22 13 -43 35 -53c18 -10 18 -10 73 -22l50 -11c61 -13 81 -21 105 -42c28 -23 42 -57 42 -101z" />
    <glyph glyph-name="Scaron" unicode="&#x160;" horiz-adv-x="630" 
d="M590 205c0 -134 -94 -220 -241 -220c-87 0 -143 20 -210 75l-45 -68h-39l-4 285h43c15 -77 36 -124 78 -171c47 -52 100 -75 174 -75c55 0 88 11 121 40c30 27 45 60 45 100c0 39 -16 72 -46 95c-21 16 -28 18 -102 37l-95 24c-147 38 -201 92 -201 201
c0 125 88 209 219 209c71 0 135 -24 182 -69l40 60h37l12 -260h-43c-13 51 -31 93 -60 134c-40 57 -97 87 -167 87c-85 0 -142 -48 -142 -118c0 -61 42 -100 131 -123l107 -27c80 -20 119 -37 146 -63c39 -38 60 -91 60 -153zM504 921l-150 -150h-76l-150 150h44l144 -91
l145 91h43z" />
    <glyph glyph-name="scaron" unicode="&#x161;" horiz-adv-x="463" 
d="M421 139c0 -93 -65 -154 -163 -154c-50 0 -96 16 -137 49l-35 -41h-35v189h40c24 -100 84 -154 168 -154c59 0 100 33 100 80c0 40 -28 60 -107 79l-53 12c-60 14 -83 24 -106 45c-22 20 -35 53 -35 92c0 87 58 145 146 145c50 0 86 -12 122 -40l29 36h35v-168h-35
c-16 46 -27 66 -49 88c-28 27 -59 40 -97 40c-55 0 -93 -29 -93 -69c0 -22 13 -43 35 -53c18 -10 18 -10 73 -22l50 -11c61 -13 81 -21 105 -42c28 -23 42 -57 42 -101zM388 693l-125 -166h-63l-125 166h36l120 -101l121 101h36z" />
    <glyph glyph-name="Tcedilla" unicode="&#x162;" horiz-adv-x="667" 
d="M648 444h-43c-8 57 -18 100 -33 137c-25 60 -74 94 -135 94c-33 0 -47 -11 -47 -36v-545c0 -42 9 -47 89 -47h26v-47h-157l-22 -63c14 2 21 3 29 3c49 0 82 -28 82 -68c0 -51 -49 -87 -120 -87c-32 0 -60 6 -88 17l14 33c24 -8 42 -12 61 -12c35 0 57 16 57 40
c0 23 -19 39 -47 39c-9 0 -22 -2 -34 -5l-9 5l42 98h-151v47h26c81 0 90 5 90 47v545c0 25 -14 36 -47 36c-68 0 -116 -38 -142 -111c-11 -32 -20 -70 -27 -120h-43l15 278h599z" />
    <glyph glyph-name="tcedilla" unicode="&#x163;" horiz-adv-x="389" 
d="M374 159c0 -93 -47 -170 -141 -174l-17 -48c14 2 21 3 29 3c49 0 82 -28 82 -68c0 -51 -49 -87 -120 -87c-32 0 -60 6 -88 17l14 33c24 -8 42 -12 61 -12c35 0 57 16 57 40c0 23 -19 39 -47 39c-9 0 -22 -2 -34 -5l-9 5l36 85c-42 7 -71 28 -85 63c-10 23 -12 47 -12 118
v255h-82v39c81 6 125 72 135 202h41v-198h147v-43h-147v-273c0 -79 13 -104 59 -104c49 0 75 46 78 136h42c1 -10 1 -17 1 -23z" />
    <glyph glyph-name="Tcaron" unicode="&#x164;" horiz-adv-x="667" 
d="M648 444h-43c-8 57 -18 100 -33 137c-25 60 -74 94 -135 94c-33 0 -47 -11 -47 -36v-545c0 -42 9 -47 89 -47h26v-47h-343v47h26c81 0 90 5 90 47v545c0 25 -14 36 -47 36c-68 0 -116 -38 -142 -111c-11 -32 -20 -70 -27 -120h-43l15 278h599zM522 921l-150 -150h-76
l-150 150h44l144 -91l145 91h43z" />
    <glyph glyph-name="tcaron" unicode="&#x165;" horiz-adv-x="389" 
d="M374 159c0 -95 -49 -174 -148 -174c-59 0 -97 23 -114 65c-10 23 -12 47 -12 118v255h-82v39c81 6 125 72 135 202h41v-198h147v-43h-147v-273c0 -79 13 -104 59 -104c49 0 75 46 78 136h42c1 -10 1 -17 1 -23zM353 662c0 -37 -14 -77 -38 -109c-13 -17 -32 -38 -81 -67
l-20 25c59 37 91 80 91 123c0 5 -2 8 -6 8h-3c-4 -1 -7 -1 -12 -1c-40 0 -64 20 -64 53c0 31 25 54 59 54c43 0 74 -35 74 -86z" />
    <glyph glyph-name="Utilde" unicode="&#x168;" horiz-adv-x="815" 
d="M799 675c-96 -4 -116 -33 -116 -170v-227c0 -211 -103 -293 -283 -293c-164 0 -277 64 -277 216v427c0 42 -9 47 -89 47h-17v47h327v-47h-19c-81 0 -90 -5 -90 -47v-364c0 -143 44 -225 192 -225c155 0 202 102 202 245v221c0 137 -20 166 -115 170v47h285v-47zM573 899
c-7 -63 -51 -106 -108 -106c-26 0 -38 4 -89 28c-19 9 -38 14 -52 14c-23 0 -40 -15 -47 -42h-35c13 62 51 101 100 101c23 0 31 -2 86 -27c34 -15 45 -19 59 -19c23 0 45 22 51 51h35z" />
    <glyph glyph-name="utilde" unicode="&#x169;" horiz-adv-x="611" 
d="M594 0l-182 -7v83c-44 -64 -90 -91 -156 -91c-60 0 -108 23 -135 64c-15 23 -19 46 -19 97v216c0 43 -6 50 -43 50h-38v43l175 11v-305c0 -55 2 -65 15 -84c13 -20 39 -31 70 -31c49 0 89 26 110 70c15 33 21 66 21 123v123c0 43 -6 50 -43 50h-51v43l188 11v-350
c0 -64 8 -73 63 -73h25v-43zM469 663c-7 -63 -51 -106 -108 -106c-26 0 -38 4 -89 28c-19 9 -38 14 -52 14c-23 0 -40 -15 -47 -42h-35c13 62 51 101 100 101c23 0 31 -2 86 -27c34 -15 45 -19 59 -19c23 0 45 22 51 51h35z" />
    <glyph glyph-name="Umacron" unicode="&#x16a;" horiz-adv-x="815" 
d="M799 675c-96 -4 -116 -33 -116 -170v-227c0 -211 -103 -293 -283 -293c-164 0 -277 64 -277 216v427c0 42 -9 47 -89 47h-17v47h327v-47h-19c-81 0 -90 -5 -90 -47v-364c0 -143 44 -225 192 -225c155 0 202 102 202 245v221c0 137 -20 166 -115 170v47h285v-47zM564 819
h-313v54h313v-54z" />
    <glyph glyph-name="umacron" unicode="&#x16b;" horiz-adv-x="611" 
d="M594 0l-182 -7v83c-44 -64 -90 -91 -156 -91c-60 0 -108 23 -135 64c-15 23 -19 46 -19 97v216c0 43 -6 50 -43 50h-38v43l175 11v-305c0 -55 2 -65 15 -84c13 -20 39 -31 70 -31c49 0 89 26 110 70c15 33 21 66 21 123v123c0 43 -6 50 -43 50h-51v43l188 11v-350
c0 -64 8 -73 63 -73h25v-43zM460 583h-313v54h313v-54z" />
    <glyph glyph-name="Ubreve" unicode="&#x16c;" horiz-adv-x="815" 
d="M799 675c-96 -4 -116 -33 -116 -170v-227c0 -211 -103 -293 -283 -293c-164 0 -277 64 -277 216v427c0 42 -9 47 -89 47h-17v47h327v-47h-19c-81 0 -90 -5 -90 -47v-364c0 -143 44 -225 192 -225c155 0 202 102 202 245v221c0 137 -20 166 -115 170v47h285v-47zM578 917
c0 -86 -74 -142 -171 -142s-169 56 -169 142h43c6 -54 52 -86 127 -86s120 32 126 86h44z" />
    <glyph glyph-name="ubreve" unicode="&#x16d;" horiz-adv-x="611" 
d="M594 0l-182 -7v83c-44 -64 -90 -91 -156 -91c-60 0 -108 23 -135 64c-15 23 -19 46 -19 97v216c0 43 -6 50 -43 50h-38v43l175 11v-305c0 -55 2 -65 15 -84c13 -20 39 -31 70 -31c49 0 89 26 110 70c15 33 21 66 21 123v123c0 43 -6 50 -43 50h-51v43l188 11v-350
c0 -64 8 -73 63 -73h25v-43zM445 675c0 -81 -61 -143 -142 -143s-141 62 -141 144v13h36c5 -60 43 -95 106 -95c62 0 100 35 105 95h36v-14z" />
    <glyph glyph-name="Uring" unicode="&#x16e;" horiz-adv-x="815" 
d="M799 675c-96 -4 -116 -33 -116 -170v-227c0 -211 -103 -293 -283 -293c-164 0 -277 64 -277 216v427c0 42 -9 47 -89 47h-17v47h327v-47h-19c-81 0 -90 -5 -90 -47v-364c0 -143 44 -225 192 -225c155 0 202 102 202 245v221c0 137 -20 166 -115 170v47h285v-47zM507 862
c0 -56 -45 -100 -101 -100c-53 0 -98 45 -98 100c0 54 45 99 99 99c55 0 100 -45 100 -99zM471 862c0 34 -29 63 -63 63c-35 0 -64 -29 -64 -63c0 -35 29 -64 63 -64c36 0 64 28 64 64z" />
    <glyph glyph-name="uring" unicode="&#x16f;" horiz-adv-x="611" 
d="M594 0l-182 -7v83c-44 -64 -90 -91 -156 -91c-60 0 -108 23 -135 64c-15 23 -19 46 -19 97v216c0 43 -6 50 -43 50h-38v43l175 11v-305c0 -55 2 -65 15 -84c13 -20 39 -31 70 -31c49 0 89 26 110 70c15 33 21 66 21 123v123c0 43 -6 50 -43 50h-51v43l188 11v-350
c0 -64 8 -73 63 -73h25v-43zM403 611c0 -56 -45 -100 -101 -100c-53 0 -98 45 -98 100c0 54 45 99 99 99c55 0 100 -45 100 -99zM367 611c0 34 -29 63 -63 63c-35 0 -64 -29 -64 -63c0 -35 29 -64 63 -64c36 0 64 28 64 64z" />
    <glyph glyph-name="Uhungarumlaut" unicode="&#x170;" horiz-adv-x="815" 
d="M799 675c-96 -4 -116 -33 -116 -170v-227c0 -211 -103 -293 -283 -293c-164 0 -277 64 -277 216v427c0 42 -9 47 -89 47h-17v47h327v-47h-19c-81 0 -90 -5 -90 -47v-364c0 -143 44 -225 192 -225c155 0 202 102 202 245v221c0 137 -20 166 -115 170v47h285v-47zM451 921
c0 -13 -5 -25 -18 -40l-81 -98l-16 9l35 98c15 42 30 59 53 59c15 0 27 -13 27 -28zM569 921c0 -13 -5 -24 -18 -40l-81 -98l-16 9l35 98c15 42 30 59 53 59c15 0 27 -13 27 -28z" />
    <glyph glyph-name="uhungarumlaut" unicode="&#x171;" horiz-adv-x="611" 
d="M594 0l-182 -7v83c-44 -64 -90 -91 -156 -91c-60 0 -108 23 -135 64c-15 23 -19 46 -19 97v216c0 43 -6 50 -43 50h-38v43l175 11v-305c0 -55 2 -65 15 -84c13 -20 39 -31 70 -31c49 0 89 26 110 70c15 33 21 66 21 123v123c0 43 -6 50 -43 50h-51v43l188 11v-350
c0 -64 8 -73 63 -73h25v-43zM347 665c0 -13 -5 -25 -18 -40l-81 -98l-16 9l35 98c15 42 30 59 53 59c15 0 27 -13 27 -28zM465 665c0 -13 -5 -24 -18 -40l-81 -98l-16 9l35 98c15 42 30 59 53 59c15 0 27 -13 27 -28z" />
    <glyph glyph-name="Uogonek" unicode="&#x172;" horiz-adv-x="815" 
d="M799 675c-96 -4 -116 -33 -116 -170v-227c0 -169 -66 -255 -184 -283c-34 -8 -66 -25 -78 -56c-7 -18 -11 -37 -11 -60c0 -31 13 -51 40 -51c67 0 81 40 95 40c5 0 10 -5 10 -12c0 -40 -32 -92 -119 -92c-60 0 -114 41 -114 112c0 37 31 78 66 109
c-158 3 -265 68 -265 216v427c0 42 -9 47 -89 47h-17v47h327v-47h-19c-81 0 -90 -5 -90 -47v-364c0 -143 44 -225 192 -225c155 0 202 102 202 245v221c0 137 -20 166 -115 170v47h285v-47z" />
    <glyph glyph-name="uogonek" unicode="&#x173;" horiz-adv-x="611" 
d="M594 -144c0 -40 -32 -92 -119 -92c-60 0 -114 41 -114 112c0 41 38 87 76 118l-25 -1v83c-44 -64 -90 -91 -156 -91c-60 0 -108 23 -135 64c-15 23 -19 46 -19 97v216c0 43 -6 50 -43 50h-38v43l175 11v-305c0 -55 2 -65 15 -84c13 -20 39 -31 70 -31c49 0 89 26 110 70
c15 33 21 66 21 123v123c0 43 -6 50 -43 50h-51v43l188 11v-350c0 -64 8 -73 63 -73h25v-43l-39 -2c-36 -1 -72 -12 -88 -43c-10 -20 -18 -46 -18 -76c0 -31 13 -51 40 -51c67 0 81 40 95 40c5 0 10 -5 10 -12z" />
    <glyph glyph-name="Wcircumflex" unicode="&#x174;" horiz-adv-x="981" 
d="M976 675h-14c-55 0 -68 -22 -91 -103l-176 -587h-41l-162 497l-148 -497h-43l-216 651c-12 35 -18 39 -60 39h-19v47h282v-47h-45c-32 0 -43 -5 -43 -20c0 -5 2 -16 5 -25l144 -448l116 384l-26 78c-8 24 -22 31 -63 31h-23v47h289v-47h-16c-70 0 -72 -10 -72 -27
c0 -7 1 -9 7 -28l138 -438l120 406c4 11 6 25 6 35c0 35 -18 52 -76 52h-18v47h245v-47zM679 771h-44l-144 91l-145 -91h-43l150 150h76z" />
    <glyph glyph-name="wcircumflex" unicode="&#x175;" horiz-adv-x="778" 
d="M763 430h-13c-35 0 -46 -17 -68 -76l-140 -369h-31l-122 316l-119 -316h-35l-150 396c-14 40 -24 49 -52 49h-18v36h220v-36h-18c-30 0 -41 -6 -41 -23c0 -6 2 -15 4 -22l97 -251l88 233l-9 26c-10 29 -20 37 -52 37h-17v36h224v-36h-24c-33 0 -42 -5 -42 -23
c0 -9 1 -14 4 -21l98 -257l85 228c4 12 8 27 8 37c0 25 -14 36 -49 36h-17v36h189v-36zM545 527h-36l-120 101l-121 -101h-36l125 166h63z" />
    <glyph glyph-name="Ycircumflex" unicode="&#x176;" horiz-adv-x="704" 
d="M713 675h-16c-59 0 -83 -21 -130 -107l-149 -269v-205c0 -43 8 -47 89 -47h26v-47h-343v47h26c81 0 90 5 90 47v193l-216 342c-23 37 -38 46 -81 46h-22v47h321v-47h-59c-27 0 -39 -6 -39 -19c0 -7 3 -16 11 -28l168 -271l124 221c11 20 17 37 17 52c0 32 -23 45 -78 45
h-23v47h284v-47zM550 771h-44l-144 91l-145 -91h-43l150 150h76z" />
    <glyph glyph-name="ycircumflex" unicode="&#x177;" horiz-adv-x="537" 
d="M531 430h-12c-38 0 -53 -20 -78 -81l-114 -282c-45 -111 -64 -151 -95 -193c-40 -54 -85 -80 -138 -80c-52 0 -91 33 -91 77c0 36 25 62 60 62c29 0 51 -19 51 -45c0 -11 -7 -28 -7 -35c0 -6 7 -10 16 -10c32 0 78 53 115 129l17 35l-163 369c-18 40 -34 54 -66 54h-13
v36h238v-36h-21c-34 0 -46 -7 -46 -25c0 -5 2 -12 6 -21l110 -257l91 226c7 17 10 30 10 40c0 26 -16 37 -54 37h-16v36h200v-36zM447 527h-36l-120 101l-121 -101h-36l125 166h63z" />
    <glyph glyph-name="Ydieresis" unicode="&#x178;" horiz-adv-x="704" 
d="M713 675h-16c-59 0 -83 -21 -130 -107l-149 -269v-205c0 -43 8 -47 89 -47h26v-47h-343v47h26c81 0 90 5 90 47v193l-216 342c-23 37 -38 46 -81 46h-22v47h321v-47h-59c-27 0 -39 -6 -39 -19c0 -7 3 -16 11 -28l168 -271l124 221c11 20 17 37 17 52c0 32 -23 45 -78 45
h-23v47h284v-47zM313 846c0 -28 -23 -50 -51 -50c-26 0 -49 23 -49 50s23 50 50 50s50 -23 50 -50zM512 846c0 -28 -23 -50 -51 -50c-26 0 -49 23 -49 50s23 50 50 50s50 -23 50 -50z" />
    <glyph glyph-name="Zacute" unicode="&#x179;" horiz-adv-x="611" 
d="M575 278l-18 -278h-533v36l409 639h-130c-134 0 -173 -39 -205 -206h-45l20 253h496v-36l-411 -639h166c65 0 119 19 144 52c29 36 46 86 60 179h47zM489 892c0 -13 -12 -26 -30 -35l-191 -88h-49l168 126c30 23 42 28 60 28c23 0 42 -14 42 -31z" />
    <glyph glyph-name="zacute" unicode="&#x17a;" horiz-adv-x="481" 
d="M435 179l-7 -179h-389v36l273 387h-87c-82 0 -118 -36 -127 -126h-40l9 169h361v-36l-273 -387h102c90 0 128 37 138 136h40zM397 660c0 -14 -10 -30 -25 -39l-159 -97h-41l140 140c25 25 35 31 50 31c19 0 35 -16 35 -35z" />
    <glyph glyph-name="Zdotaccent" unicode="&#x17b;" horiz-adv-x="611" 
d="M575 278l-18 -278h-533v36l409 639h-130c-134 0 -173 -39 -205 -206h-45l20 253h496v-36l-411 -639h166c65 0 119 19 144 52c29 36 46 86 60 179h47zM372 846c0 -28 -23 -50 -51 -50c-26 0 -49 23 -49 50s23 50 50 50s50 -23 50 -50z" />
    <glyph glyph-name="zdotaccent" unicode="&#x17c;" horiz-adv-x="481" 
d="M435 179l-7 -179h-389v36l273 387h-87c-82 0 -118 -36 -127 -126h-40l9 169h361v-36l-273 -387h102c90 0 128 37 138 136h40zM298 610c0 -28 -23 -50 -51 -50c-26 0 -49 23 -49 50s23 50 50 50s50 -23 50 -50z" />
    <glyph glyph-name="Zcaron" unicode="&#x17d;" horiz-adv-x="611" 
d="M575 278l-18 -278h-533v36l409 639h-130c-134 0 -173 -39 -205 -206h-45l20 253h496v-36l-411 -639h166c65 0 119 19 144 52c29 36 46 86 60 179h47zM510 921l-150 -150h-76l-150 150h44l144 -91l145 91h43z" />
    <glyph glyph-name="zcaron" unicode="&#x17e;" horiz-adv-x="481" 
d="M435 179l-7 -179h-389v36l273 387h-87c-82 0 -118 -36 -127 -126h-40l9 169h361v-36l-273 -387h102c90 0 128 37 138 136h40zM404 693l-125 -166h-63l-125 166h36l120 -101l121 101h36z" />
    <glyph glyph-name="longs" unicode="&#x17f;" 
d="M433 643c0 -36 -23 -61 -56 -61c-31 0 -55 23 -55 53c0 18 15 42 15 45c0 11 -13 17 -34 17c-66 0 -102 -48 -102 -174v-440c0 -40 11 -47 76 -47h18v-36h-267v36h4c64 0 75 7 75 47v340h-88v43h88v31c0 170 77 240 195 240c81 0 131 -36 131 -94z" />
    <glyph glyph-name="Ereversed" unicode="&#x18e;" horiz-adv-x="722" 
d="M663 0h-614l-20 267h44c31 -165 76 -220 232 -220h66c51 0 72 6 72 48v255h-20c-124 0 -141 -50 -144 -144h-47v328h47c5 -98 45 -137 140 -137h24v228c0 43 -9 50 -63 50h-52c-166 0 -208 -34 -237 -209h-43v256h615v-47h-18c-81 0 -90 -5 -90 -47v-534
c0 -42 9 -47 90 -47h18v-47z" />
    <glyph glyph-name="florin" unicode="&#x192;" horiz-adv-x="556" 
d="M541 655c0 -35 -22 -58 -56 -58c-30 0 -53 19 -53 43c0 12 5 25 15 41c2 3 3 7 3 7c0 5 -8 9 -18 9c-42 0 -80 -45 -94 -197l-6 -63h133v-47h-137l-19 -227c-13 -154 -32 -232 -66 -284c-36 -54 -85 -84 -138 -84c-58 0 -102 35 -102 79c0 36 24 63 57 63
c29 0 52 -21 52 -47c0 -19 -17 -38 -17 -42c0 -6 5 -10 14 -10c27 0 58 28 72 65c18 50 20 65 37 278l17 209h-116v47h120l6 48c21 167 90 252 197 252c59 0 99 -33 99 -82z" />
    <glyph glyph-name="Ohorn" unicode="&#x1a0;" horiz-adv-x="778" 
d="M733 361c0 -214 -148 -376 -344 -376c-195 0 -344 162 -344 375c0 204 140 377 348 377c50 0 98 -12 140 -32c6 3 18 11 15 23c-19 9 -31 38 -31 52c0 24 23 48 50 48c33 0 60 -32 60 -64c0 -30 -21 -62 -55 -82c98 -65 161 -183 161 -321zM601 361
c0 230 -77 329 -209 329c-142 0 -215 -101 -215 -327c0 -230 73 -331 212 -331c138 0 212 101 212 329z" />
    <glyph glyph-name="ohorn" unicode="&#x1a1;" horiz-adv-x="500" 
d="M466 233c0 -138 -96 -248 -216 -248s-216 110 -216 247c0 140 96 249 218 249c38 0 73 -12 104 -32c7 4 19 12 16 24c-19 9 -31 38 -31 52c0 24 23 48 50 48c33 0 60 -32 60 -64s-24 -66 -62 -86c47 -46 77 -114 77 -190zM361 233c0 132 -39 205 -109 205
c-75 0 -113 -70 -113 -206c0 -132 39 -204 111 -204s111 72 111 205z" />
    <glyph glyph-name="Uhorn" unicode="&#x1af;" horiz-adv-x="769" 
d="M789 764c0 -49 -52 -90 -106 -104v-382c0 -211 -103 -293 -283 -293c-164 0 -269 66 -277 216v427c0 42 -9 47 -89 47h-17v47h327v-47h-19c-81 0 -90 -5 -90 -47v-364c0 -93 5 -117 32 -154c33 -45 92 -71 160 -71c81 0 145 36 178 98c19 35 24 67 24 147v221
c0 137 -20 166 -115 170v47h169v-24c10 4 30 16 27 30c-19 9 -31 38 -31 52c0 24 23 48 50 48c33 0 60 -32 60 -64z" />
    <glyph glyph-name="uhorn" unicode="&#x1b0;" horiz-adv-x="611" 
d="M612 508c0 -49 -52 -90 -106 -104v-288c0 -64 8 -73 63 -73h25v-43h-182v76c-44 -64 -90 -91 -156 -91c-93 0 -154 41 -154 161v216c0 43 -6 50 -43 50h-38v43l175 11v-305c0 -100 31 -115 85 -115c85 0 131 66 131 193v123c0 43 -6 50 -43 50h-51v54h188v-24
c10 4 30 16 27 30c-19 9 -31 38 -31 52c0 24 23 48 50 48c33 0 60 -32 60 -64z" />
    <glyph glyph-name="Acaron" unicode="&#x1cd;" horiz-adv-x="722" 
d="M731 0h-310v47h42c37 0 62 10 62 26c0 5 -2 12 -8 27l-54 134h-265l-33 -88c-6 -16 -9 -30 -9 -42c0 -38 27 -57 81 -57h20v-47h-265v47h14c50 0 64 15 100 106l230 583h42l255 -625c23 -56 29 -64 79 -64h19v-47zM442 288l-113 284l-111 -284h224zM546 921l-150 -150
h-76l-150 150h44l144 -91l145 91h43z" />
    <glyph glyph-name="acaron" unicode="&#x1ce;" horiz-adv-x="556" 
d="M543 51c0 -29 -47 -58 -92 -58c-47 0 -72 20 -88 71c-43 -51 -105 -79 -174 -79c-88 0 -145 46 -145 117c0 98 81 147 314 187v39c0 88 -41 110 -108 110c-48 0 -89 -18 -89 -39c0 -5 22 -36 22 -54c0 -30 -23 -51 -54 -51c-35 0 -58 24 -58 62c0 72 83 125 195 125
c115 0 186 -31 186 -159v-201c0 -50 10 -69 38 -69c6 0 29 11 43 11c5 0 10 -5 10 -12zM358 200v46c-173 -29 -213 -59 -213 -130c0 -45 34 -78 79 -78c43 0 89 25 114 62c17 26 20 40 20 100zM422 693l-125 -166h-63l-125 166h36l120 -101l121 101h36z" />
    <glyph glyph-name="Icaron" unicode="&#x1cf;" horiz-adv-x="407" 
d="M369 0h-331v47h20c81 0 90 5 90 47v534c0 42 -9 47 -90 47h-20v47h331v-47h-20c-80 0 -89 -5 -89 -47v-534c0 -42 9 -47 89 -47h20v-47zM392 921l-150 -150h-76l-150 150h44l144 -91l145 91h43z" />
    <glyph glyph-name="icaron" unicode="&#x1d0;" horiz-adv-x="315" 
d="M289 0h-259v36h12c64 0 70 7 70 47v279c0 42 -6 50 -43 50h-51v43l188 11v-383c0 -40 6 -47 71 -47h12v-36zM315 693l-125 -166h-63l-125 166h36l120 -101l121 101h36z" />
    <glyph glyph-name="Ocaron" unicode="&#x1d1;" horiz-adv-x="778" 
d="M733 361c0 -214 -148 -376 -344 -376c-195 0 -344 162 -344 375c0 204 140 377 348 377c192 0 340 -164 340 -376zM601 361c0 230 -77 329 -209 329c-142 0 -215 -101 -215 -327c0 -230 73 -331 212 -331c138 0 212 101 212 329zM578 921l-150 -150h-76l-150 150h44
l144 -91l145 91h43z" />
    <glyph glyph-name="ocaron" unicode="&#x1d2;" horiz-adv-x="500" 
d="M466 233c0 -138 -96 -248 -216 -248s-216 110 -216 247c0 140 96 249 218 249c118 0 214 -111 214 -248zM361 233c0 132 -39 205 -109 205c-75 0 -113 -70 -113 -206c0 -132 39 -204 111 -204s111 72 111 205zM408 693l-125 -166h-63l-125 166h36l120 -101l121 101h36z
" />
    <glyph glyph-name="Ucaron" unicode="&#x1d3;" horiz-adv-x="815" 
d="M799 675c-96 -4 -116 -33 -116 -170v-227c0 -211 -103 -293 -283 -293c-164 0 -277 64 -277 216v427c0 42 -9 47 -89 47h-17v47h327v-47h-19c-81 0 -90 -5 -90 -47v-364c0 -143 44 -225 192 -225c155 0 202 102 202 245v221c0 137 -20 166 -115 170v47h285v-47zM596 921
l-150 -150h-76l-150 150h44l144 -91l145 91h43z" />
    <glyph glyph-name="ucaron" unicode="&#x1d4;" horiz-adv-x="611" 
d="M594 0l-182 -7v83c-44 -64 -90 -91 -156 -91c-60 0 -108 23 -135 64c-15 23 -19 46 -19 97v216c0 43 -6 50 -43 50h-38v43l175 11v-305c0 -55 2 -65 15 -84c13 -20 39 -31 70 -31c49 0 89 26 110 70c15 33 21 66 21 123v123c0 43 -6 50 -43 50h-51v43l188 11v-350
c0 -64 8 -73 63 -73h25v-43zM460 693l-125 -166h-63l-125 166h36l120 -101l121 101h36z" />
    <glyph glyph-name="Udieresisacute" unicode="&#x1d7;" horiz-adv-x="815" 
d="M799 675c-96 -4 -116 -33 -116 -170v-227c0 -211 -103 -293 -283 -293c-164 0 -277 64 -277 216v427c0 42 -9 47 -89 47h-17v47h327v-47h-19c-81 0 -90 -5 -90 -47v-364c0 -143 44 -225 192 -225c155 0 202 102 202 245v221c0 137 -20 166 -115 170v47h285v-47zM358 846
c0 -28 -23 -50 -51 -50c-26 0 -49 23 -49 50s23 50 50 50s50 -23 50 -50zM557 846c0 -28 -23 -50 -51 -50c-26 0 -49 23 -49 50s23 50 50 50s50 -23 50 -50zM576 1066c0 -13 -12 -26 -30 -35l-191 -88h-49l168 126c30 23 42 28 60 28c23 0 42 -14 42 -31z" />
    <glyph glyph-name="udieresisacute" unicode="&#x1d8;" horiz-adv-x="611" 
d="M594 0l-182 -7v83c-44 -64 -90 -91 -156 -91c-60 0 -108 23 -135 64c-15 23 -19 46 -19 97v216c0 43 -6 50 -43 50h-38v43l175 11v-305c0 -55 2 -65 15 -84c13 -20 39 -31 70 -31c49 0 89 26 110 70c15 33 21 66 21 123v123c0 43 -6 50 -43 50h-51v43l188 11v-350
c0 -64 8 -73 63 -73h25v-43zM254 610c0 -28 -23 -50 -51 -50c-26 0 -49 23 -49 50s23 50 50 50s50 -23 50 -50zM453 610c0 -28 -23 -50 -51 -50c-26 0 -49 23 -49 50s23 50 50 50s50 -23 50 -50zM472 814c0 -13 -12 -26 -30 -35l-191 -88h-49l168 126c30 23 42 28 60 28
c23 0 42 -14 42 -31z" />
    <glyph glyph-name="Udieresiscaron" unicode="&#x1d9;" horiz-adv-x="815" 
d="M799 675c-96 -4 -116 -33 -116 -170v-227c0 -211 -103 -293 -283 -293c-164 0 -277 64 -277 216v427c0 42 -9 47 -89 47h-17v47h327v-47h-19c-81 0 -90 -5 -90 -47v-364c0 -143 44 -225 192 -225c155 0 202 102 202 245v221c0 137 -20 166 -115 170v47h285v-47zM358 846
c0 -28 -23 -50 -51 -50c-26 0 -49 23 -49 50s23 50 50 50s50 -23 50 -50zM557 846c0 -28 -23 -50 -51 -50c-26 0 -49 23 -49 50s23 50 50 50s50 -23 50 -50zM596 1095l-150 -150h-76l-150 150h44l144 -91l145 91h43z" />
    <glyph glyph-name="udieresiscaron" unicode="&#x1da;" horiz-adv-x="611" 
d="M594 0l-182 -7v83c-44 -64 -90 -91 -156 -91c-60 0 -108 23 -135 64c-15 23 -19 46 -19 97v216c0 43 -6 50 -43 50h-38v43l175 11v-305c0 -55 2 -65 15 -84c13 -20 39 -31 70 -31c49 0 89 26 110 70c15 33 21 66 21 123v123c0 43 -6 50 -43 50h-51v43l188 11v-350
c0 -64 8 -73 63 -73h25v-43zM254 610c0 -28 -23 -50 -51 -50c-26 0 -49 23 -49 50s23 50 50 50s50 -23 50 -50zM453 610c0 -28 -23 -50 -51 -50c-26 0 -49 23 -49 50s23 50 50 50s50 -23 50 -50zM493 843l-150 -150h-76l-150 150h44l144 -91l145 91h43z" />
    <glyph glyph-name="Udieresisgrave" unicode="&#x1db;" horiz-adv-x="815" 
d="M799 675c-96 -4 -116 -33 -116 -170v-227c0 -211 -103 -293 -283 -293c-164 0 -277 64 -277 216v427c0 42 -9 47 -89 47h-17v47h327v-47h-19c-81 0 -90 -5 -90 -47v-364c0 -143 44 -225 192 -225c155 0 202 102 202 245v221c0 137 -20 166 -115 170v47h285v-47zM358 846
c0 -28 -23 -50 -51 -50c-26 0 -49 23 -49 50s23 50 50 50s50 -23 50 -50zM557 846c0 -28 -23 -50 -51 -50c-26 0 -49 23 -49 50s23 50 50 50s50 -23 50 -50zM509 943h-49l-191 88c-18 9 -30 22 -30 35c0 17 19 31 42 31c18 0 30 -5 60 -28z" />
    <glyph glyph-name="udieresisgrave" unicode="&#x1dc;" horiz-adv-x="611" 
d="M594 0l-182 -7v83c-44 -64 -90 -91 -156 -91c-60 0 -108 23 -135 64c-15 23 -19 46 -19 97v216c0 43 -6 50 -43 50h-38v43l175 11v-305c0 -55 2 -65 15 -84c13 -20 39 -31 70 -31c49 0 89 26 110 70c15 33 21 66 21 123v123c0 43 -6 50 -43 50h-51v43l188 11v-350
c0 -64 8 -73 63 -73h25v-43zM254 610c0 -28 -23 -50 -51 -50c-26 0 -49 23 -49 50s23 50 50 50s50 -23 50 -50zM453 610c0 -28 -23 -50 -51 -50c-26 0 -49 23 -49 50s23 50 50 50s50 -23 50 -50zM406 691h-49l-191 88c-18 9 -30 22 -30 35c0 17 19 31 42 31
c18 0 30 -5 60 -28z" />
    <glyph glyph-name="eturned" unicode="&#x1dd;" horiz-adv-x="500" 
d="M465 246c0 -150 -96 -261 -224 -261c-123 0 -206 106 -206 256h324c0 126 -56 186 -139 186c-67 0 -109 -30 -150 -107l-35 19c41 95 109 142 204 142c135 0 226 -95 226 -235zM358 198h-175c-32 0 -41 -8 -41 -37c0 -80 40 -133 101 -133s115 63 115 170z" />
    <glyph glyph-name="Gcaron" unicode="&#x1e6;" horiz-adv-x="778" 
d="M772 282h-15c-54 0 -75 -4 -84 -14c-6 -7 -6 -8 -6 -62v-220h-42l-37 90c-65 -65 -124 -91 -208 -91c-189 0 -338 148 -338 363c0 200 140 389 349 389c73 0 117 -17 182 -69l39 61h52v-281h-43c-41 160 -120 242 -234 242c-139 0 -213 -119 -213 -342
c0 -207 76 -316 216 -316c110 0 174 68 174 190c0 55 -7 60 -91 60h-19v47h318v-47zM578 921l-150 -150h-76l-150 150h44l144 -91l145 91h43z" />
    <glyph glyph-name="gcaron" unicode="&#x1e7;" horiz-adv-x="537" 
d="M542 437c0 -27 -20 -48 -45 -48c-43 0 -44 51 -55 51c-8 0 -17 -6 -34 -24c28 -33 37 -58 37 -98c0 -66 -34 -118 -94 -145c-33 -15 -48 -17 -143 -19c-67 -2 -94 -15 -94 -45c0 -11 5 -22 12 -26c12 -6 15 -9 70 -9h102c69 0 101 -4 127 -14c37 -15 60 -55 60 -105
c0 -105 -84 -158 -251 -158c-134 0 -211 37 -211 103c0 41 30 73 92 95c-47 16 -67 42 -67 86c0 55 28 85 95 100c-52 24 -84 75 -84 134c0 100 78 166 197 166c50 0 82 -10 124 -38c46 42 64 52 96 52c39 0 66 -24 66 -58zM353 317c0 77 -35 121 -98 121
c-67 0 -105 -45 -105 -124c0 -75 39 -122 101 -122c64 0 102 47 102 125zM415 -72c0 32 -25 54 -65 58c-15 2 -21 2 -104 2h-74c-48 -25 -66 -47 -66 -80c0 -45 48 -70 132 -70c112 0 177 33 177 90zM412 693l-125 -166h-63l-125 166h36l120 -101l121 101h36z" />
    <glyph glyph-name="Oogonek" unicode="&#x1ea;" horiz-adv-x="778" 
d="M733 361c0 -171 -95 -309 -233 -357c-40 -14 -86 -30 -99 -65c-7 -18 -11 -37 -11 -60c0 -31 13 -51 40 -51c67 0 81 40 95 40c5 0 10 -5 10 -12c0 -40 -32 -92 -119 -92c-60 0 -114 41 -114 112c0 38 31 79 66 110c-184 11 -323 169 -323 374c0 204 140 377 348 377
c192 0 340 -164 340 -376zM601 361c0 230 -77 329 -209 329c-142 0 -215 -101 -215 -327c0 -230 73 -331 212 -331c138 0 212 101 212 329z" />
    <glyph glyph-name="oogonek" unicode="&#x1eb;" horiz-adv-x="500" 
d="M466 233c0 -97 -47 -179 -116 -221c-32 -18 -66 -39 -79 -73c-7 -18 -11 -37 -11 -60c0 -31 13 -51 40 -51c67 0 81 40 95 40c5 0 10 -5 10 -12c0 -40 -32 -92 -119 -92c-60 0 -114 41 -114 112c0 37 31 79 66 109c-114 7 -204 115 -204 247c0 140 96 249 218 249
c118 0 214 -111 214 -248zM361 233c0 132 -39 205 -109 205c-75 0 -113 -70 -113 -206c0 -132 39 -204 111 -204s111 72 111 205z" />
    <glyph glyph-name="jcaron" unicode="&#x1f0;" horiz-adv-x="296" 
d="M207 71c0 -113 -10 -164 -41 -208c-29 -40 -80 -65 -136 -65c-67 0 -112 33 -112 82c0 34 24 60 56 60c28 0 52 -22 52 -47c0 -7 -2 -13 -7 -24c-4 -10 -5 -12 -5 -16c0 -7 11 -13 25 -13c21 0 45 15 55 35c14 29 19 67 19 148v339c0 43 -6 50 -43 50h-58v43l195 11v-395
zM316 693l-125 -166h-63l-125 166h36l120 -101l121 101h36z" />
    <glyph glyph-name="Gacute" unicode="&#x1f4;" horiz-adv-x="778" 
d="M772 282h-15c-54 0 -75 -4 -84 -14c-6 -7 -6 -8 -6 -62v-220h-42l-37 90c-65 -65 -124 -91 -208 -91c-189 0 -338 148 -338 363c0 200 140 389 349 389c73 0 117 -17 182 -69l39 61h52v-281h-43c-41 160 -120 242 -234 242c-139 0 -213 -119 -213 -342
c0 -207 76 -316 216 -316c110 0 174 68 174 190c0 55 -7 60 -91 60h-19v47h318v-47zM557 892c0 -13 -12 -26 -30 -35l-191 -88h-49l168 126c30 23 42 28 60 28c23 0 42 -14 42 -31z" />
    <glyph glyph-name="gacute" unicode="&#x1f5;" horiz-adv-x="537" 
d="M542 437c0 -27 -20 -48 -45 -48c-43 0 -44 51 -55 51c-8 0 -17 -6 -34 -24c28 -33 37 -58 37 -98c0 -66 -34 -118 -94 -145c-33 -15 -48 -17 -143 -19c-67 -2 -94 -15 -94 -45c0 -11 5 -22 12 -26c12 -6 15 -9 70 -9h102c69 0 101 -4 127 -14c37 -15 60 -55 60 -105
c0 -105 -84 -158 -251 -158c-134 0 -211 37 -211 103c0 41 30 73 92 95c-47 16 -67 42 -67 86c0 55 28 85 95 100c-52 24 -84 75 -84 134c0 100 78 166 197 166c50 0 82 -10 124 -38c46 42 64 52 96 52c39 0 66 -24 66 -58zM353 317c0 77 -35 121 -98 121
c-67 0 -105 -45 -105 -124c0 -75 39 -122 101 -122c64 0 102 47 102 125zM415 -72c0 32 -25 54 -65 58c-15 2 -21 2 -104 2h-74c-48 -25 -66 -47 -66 -80c0 -45 48 -70 132 -70c112 0 177 33 177 90zM405 660c0 -14 -10 -30 -25 -39l-159 -97h-41l140 140c25 25 35 31 50 31
c19 0 35 -16 35 -35z" />
    <glyph glyph-name="Aringacute" unicode="&#x1fa;" horiz-adv-x="722" 
d="M731 0h-310v47h42c37 0 62 10 62 26c0 5 -2 12 -8 27l-54 134h-265l-33 -88c-6 -16 -9 -30 -9 -42c0 -38 27 -57 81 -57h20v-47h-265v47h14c50 0 64 15 100 106l230 583h42l255 -625c23 -56 29 -64 79 -64h19v-47zM442 288l-113 284l-111 -284h224zM525 1104
c0 -13 -12 -26 -30 -35l-191 -88h-49l168 126c30 23 42 28 60 28c23 0 42 -14 42 -31zM457 862c0 -56 -45 -100 -101 -100c-53 0 -98 45 -98 100c0 54 45 99 99 99c55 0 100 -45 100 -99zM421 862c0 34 -29 63 -63 63c-35 0 -64 -29 -64 -63c0 -35 29 -64 63 -64
c36 0 64 28 64 64z" />
    <glyph glyph-name="aringacute" unicode="&#x1fb;" horiz-adv-x="556" 
d="M543 51c0 -29 -47 -58 -92 -58c-47 0 -72 20 -88 71c-43 -51 -105 -79 -174 -79c-88 0 -145 46 -145 117c0 98 81 147 314 187v39c0 88 -41 110 -108 110c-48 0 -89 -18 -89 -39c0 -5 22 -36 22 -54c0 -30 -23 -51 -54 -51c-35 0 -58 24 -58 62c0 72 83 125 195 125
c115 0 186 -31 186 -159v-201c0 -50 10 -69 38 -69c6 0 29 11 43 11c5 0 10 -5 10 -12zM358 200v46c-173 -29 -213 -59 -213 -130c0 -45 34 -78 79 -78c43 0 89 25 114 62c17 26 20 40 20 100zM434 848c0 -13 -12 -26 -30 -35l-191 -88h-49l168 126c30 23 42 28 60 28
c23 0 42 -14 42 -31zM366 606c0 -56 -45 -100 -101 -100c-53 0 -98 45 -98 100c0 54 45 99 99 99c55 0 100 -45 100 -99zM330 606c0 34 -29 63 -63 63c-35 0 -64 -29 -64 -63c0 -35 29 -64 63 -64c36 0 64 28 64 64z" />
    <glyph glyph-name="AEacute" unicode="&#x1fc;" horiz-adv-x="1000" 
d="M963 267l-20 -267h-584v47h19c81 0 90 5 90 47v175h-239l-71 -130c-10 -18 -14 -34 -14 -46c0 -31 17 -46 69 -46h20v-47h-233v47c34 7 56 25 89 85l247 444c8 15 13 31 13 45c0 40 -14 54 -82 54h-27v47h693l14 -256h-43c-30 177 -73 209 -237 209h-24
c-54 0 -63 -7 -63 -50v-228h28c80 0 120 39 125 137h47v-328h-47c-3 94 -20 144 -129 144h-24v-255c0 -42 21 -48 72 -48h35c157 0 200 56 233 220h43zM468 323v325c0 20 -2 23 -10 23c-7 0 -10 -4 -17 -18l-183 -330h210zM668 892c0 -13 -12 -26 -30 -35l-191 -88h-49
l168 126c30 23 42 28 60 28c23 0 42 -14 42 -31z" />
    <glyph glyph-name="aeacute" unicode="&#x1fd;" horiz-adv-x="796" 
d="M759 127c-45 -97 -110 -142 -205 -142c-58 0 -119 20 -156 53c-9 7 -15 14 -35 35c-52 -63 -103 -88 -179 -88c-90 0 -148 45 -148 114c0 66 40 115 118 145c51 20 76 26 183 45v46c0 75 -26 103 -97 103c-47 0 -86 -17 -86 -38c0 -4 1 -7 7 -14c10 -14 15 -28 15 -41
c0 -30 -23 -51 -54 -51c-36 0 -59 24 -59 62c0 70 83 125 190 125c69 0 126 -21 154 -57c40 37 91 57 145 57c62 0 118 -28 153 -78c33 -45 53 -106 53 -160v-18h-325c1 -60 7 -91 24 -120c27 -44 65 -66 116 -66c66 0 109 31 150 107zM337 193v53
c-82 -14 -113 -22 -141 -37c-39 -22 -59 -52 -59 -89c0 -48 31 -83 75 -83c41 0 82 22 105 55c17 26 20 39 20 101zM650 305c0 79 -40 132 -101 132c-48 0 -81 -29 -101 -89c-10 -27 -14 -50 -14 -80h175c32 0 41 8 41 37zM547 660c0 -14 -10 -30 -25 -39l-159 -97h-41
l140 140c25 25 35 31 50 31c19 0 35 -16 35 -35z" />
    <glyph glyph-name="Oslashacute" unicode="&#x1fe;" horiz-adv-x="778" 
d="M733 366c0 -195 -139 -381 -346 -381c-77 0 -141 23 -204 73l-99 -134h-54l121 164c-66 69 -107 173 -107 272c0 196 146 377 347 377c72 0 133 -20 194 -63l65 88h54l-86 -117c72 -72 115 -177 115 -279zM542 616c-37 50 -88 74 -154 74c-139 0 -212 -116 -212 -337
c0 -82 10 -145 30 -190zM601 372c0 95 -10 151 -35 203l-337 -455c37 -58 91 -88 161 -88c142 0 211 115 211 340zM557 892c0 -13 -12 -26 -30 -35l-191 -88h-49l168 126c30 23 42 28 60 28c23 0 42 -14 42 -31z" />
    <glyph glyph-name="oslashacute" unicode="&#x1ff;" horiz-adv-x="500" 
d="M466 228c0 -143 -91 -243 -219 -243c-34 0 -64 6 -89 19l-49 -95h-50l61 119c-55 48 -86 121 -86 204c0 139 96 249 216 249c32 0 60 -7 91 -23l50 97h50l-63 -122c55 -47 88 -124 88 -205zM316 409c-20 21 -39 29 -65 29c-74 0 -112 -71 -112 -209c0 -53 6 -91 19 -127z
M361 242c0 47 -6 87 -18 122l-158 -307c17 -20 38 -29 64 -29c86 0 112 98 112 214zM399 660c0 -14 -10 -30 -25 -39l-159 -97h-41l140 140c25 25 35 31 50 31c19 0 35 -16 35 -35z" />
    <glyph glyph-name="Adblgrave" unicode="&#x200;" horiz-adv-x="722" 
d="M731 0h-310v47h42c37 0 62 10 62 26c0 5 -2 12 -8 27l-54 134h-265l-33 -88c-6 -16 -9 -30 -9 -42c0 -38 27 -57 81 -57h20v-47h-265v47h14c50 0 64 15 100 106l230 583h42l255 -625c23 -56 29 -64 79 -64h19v-47zM442 288l-113 284l-111 -284h224zM429 792l-16 -9
l-81 98c-13 15 -18 27 -18 40c0 15 12 28 27 28c23 0 38 -17 53 -59zM311 792l-16 -9l-81 98c-13 16 -18 27 -18 40c0 15 12 28 27 28c23 0 38 -17 53 -59z" />
    <glyph glyph-name="adblgrave" unicode="&#x201;" horiz-adv-x="556" 
d="M543 51c0 -29 -47 -58 -92 -58c-47 0 -72 20 -88 71c-43 -51 -105 -79 -174 -79c-88 0 -145 46 -145 117c0 98 81 147 314 187v39c0 88 -41 110 -108 110c-48 0 -89 -18 -89 -39c0 -5 22 -36 22 -54c0 -30 -23 -51 -54 -51c-35 0 -58 24 -58 62c0 72 83 125 195 125
c115 0 186 -31 186 -159v-201c0 -50 10 -69 38 -69c6 0 29 11 43 11c5 0 10 -5 10 -12zM358 200v46c-173 -29 -213 -59 -213 -130c0 -45 34 -78 79 -78c43 0 89 25 114 62c17 26 20 40 20 100zM338 536l-16 -9l-81 98c-13 15 -18 27 -18 40c0 15 12 28 27 28
c23 0 38 -17 53 -59zM220 536l-16 -9l-81 98c-13 16 -18 27 -18 40c0 15 12 28 27 28c23 0 38 -17 53 -59z" />
    <glyph glyph-name="Edblgrave" unicode="&#x204;" horiz-adv-x="722" 
d="M663 267l-20 -267h-614v47h18c81 0 90 5 90 47v534c0 42 -9 47 -90 47h-18v47h615v-256h-43c-29 175 -71 209 -237 209h-52c-54 0 -63 -7 -63 -50v-228h24c95 0 135 39 140 137h47v-328h-47c-3 94 -20 144 -144 144h-20v-255c0 -42 21 -48 72 -48h66
c156 0 201 55 232 220h44zM433 792l-16 -9l-81 98c-13 15 -18 27 -18 40c0 15 12 28 27 28c23 0 38 -17 53 -59zM315 792l-16 -9l-81 98c-13 16 -18 27 -18 40c0 15 12 28 27 28c23 0 38 -17 53 -59z" />
    <glyph glyph-name="edblgrave" unicode="&#x205;" horiz-adv-x="500" 
d="M465 127c-41 -95 -109 -142 -204 -142c-135 0 -226 95 -226 235c0 150 96 261 224 261c123 0 206 -106 206 -256h-324c0 -126 56 -186 139 -186c67 0 109 30 150 107zM358 305c0 80 -40 133 -101 133s-115 -63 -115 -170h175c32 0 41 8 41 37zM331 536l-16 -9l-81 98
c-13 15 -18 27 -18 40c0 15 12 28 27 28c23 0 38 -17 53 -59zM213 536l-16 -9l-81 98c-13 16 -18 27 -18 40c0 15 12 28 27 28c23 0 38 -17 53 -59z" />
    <glyph glyph-name="Idblgrave" unicode="&#x208;" horiz-adv-x="407" 
d="M369 0h-331v47h20c81 0 90 5 90 47v534c0 42 -9 47 -90 47h-20v47h331v-47h-20c-80 0 -89 -5 -89 -47v-534c0 -42 9 -47 89 -47h20v-47zM275 792l-16 -9l-81 98c-13 15 -18 27 -18 40c0 15 12 28 27 28c23 0 38 -17 53 -59zM157 792l-16 -9l-81 98c-13 16 -18 27 -18 40
c0 15 12 28 27 28c23 0 38 -17 53 -59z" />
    <glyph glyph-name="idblgrave" unicode="&#x209;" horiz-adv-x="315" 
d="M289 0h-259v36h12c64 0 70 7 70 47v279c0 42 -6 50 -43 50h-51v43l188 11v-383c0 -40 6 -47 71 -47h12v-36zM231 536l-16 -9l-81 98c-13 15 -18 27 -18 40c0 15 12 28 27 28c23 0 38 -17 53 -59zM113 536l-16 -9l-81 98c-13 16 -18 27 -18 40c0 15 12 28 27 28
c23 0 38 -17 53 -59z" />
    <glyph glyph-name="Odblgrave" unicode="&#x20c;" horiz-adv-x="778" 
d="M733 361c0 -214 -148 -376 -344 -376c-195 0 -344 162 -344 375c0 204 140 377 348 377c192 0 340 -164 340 -376zM601 361c0 230 -77 329 -209 329c-142 0 -215 -101 -215 -327c0 -230 73 -331 212 -331c138 0 212 101 212 329zM461 792l-16 -9l-81 98
c-13 15 -18 27 -18 40c0 15 12 28 27 28c23 0 38 -17 53 -59zM343 792l-16 -9l-81 98c-13 16 -18 27 -18 40c0 15 12 28 27 28c23 0 38 -17 53 -59z" />
    <glyph glyph-name="odblgrave" unicode="&#x20d;" horiz-adv-x="500" 
d="M466 233c0 -138 -96 -248 -216 -248s-216 110 -216 247c0 140 96 249 218 249c118 0 214 -111 214 -248zM361 233c0 132 -39 205 -109 205c-75 0 -113 -70 -113 -206c0 -132 39 -204 111 -204s111 72 111 205zM324 536l-16 -9l-81 98c-13 15 -18 27 -18 40
c0 15 12 28 27 28c23 0 38 -17 53 -59zM206 536l-16 -9l-81 98c-13 16 -18 27 -18 40c0 15 12 28 27 28c23 0 38 -17 53 -59z" />
    <glyph glyph-name="Rdblgrave" unicode="&#x210;" horiz-adv-x="722" 
d="M713 160c-3 -120 -42 -175 -124 -175c-78 0 -117 46 -128 159l-5 51c-12 119 -63 155 -152 155h-58v-256c0 -42 9 -47 90 -47h18v-47h-328v47h18c81 0 90 5 90 47v534c0 42 -9 47 -90 47h-18v47h346c168 0 264 -65 264 -179c0 -101 -69 -159 -213 -179
c79 -20 116 -62 139 -154l16 -63c17 -69 25 -86 50 -86c27 0 39 30 43 99h42zM513 542c0 91 -45 133 -144 133h-54c-64 0 -69 -3 -69 -33v-245h110c100 0 157 39 157 145zM433 792l-16 -9l-81 98c-13 15 -18 27 -18 40c0 15 12 28 27 28c23 0 38 -17 53 -59zM315 792l-16 -9
l-81 98c-13 16 -18 27 -18 40c0 15 12 28 27 28c23 0 38 -17 53 -59z" />
    <glyph glyph-name="rdblgrave" unicode="&#x211;" horiz-adv-x="444" 
d="M435 401c0 -41 -25 -68 -61 -68c-32 0 -55 23 -55 55c0 19 4 29 18 45c-42 -5 -76 -36 -100 -92c-25 -57 -39 -133 -39 -208v-50c0 -40 11 -47 75 -47h19v-36h-267v36h14c65 0 66 7 66 47v279c0 43 -6 50 -43 50h-41v43l177 11v-124c32 88 87 139 150 139
c53 0 87 -32 87 -80zM270 536l-16 -9l-81 98c-13 15 -18 27 -18 40c0 15 12 28 27 28c23 0 38 -17 53 -59zM152 536l-16 -9l-81 98c-13 16 -18 27 -18 40c0 15 12 28 27 28c23 0 38 -17 53 -59z" />
    <glyph glyph-name="Udblgrave" unicode="&#x214;" horiz-adv-x="815" 
d="M799 675c-96 -4 -116 -33 -116 -170v-227c0 -211 -103 -293 -283 -293c-164 0 -277 64 -277 216v427c0 42 -9 47 -89 47h-17v47h327v-47h-19c-81 0 -90 -5 -90 -47v-364c0 -143 44 -225 192 -225c155 0 202 102 202 245v221c0 137 -20 166 -115 170v47h285v-47zM479 792
l-16 -9l-81 98c-13 15 -18 27 -18 40c0 15 12 28 27 28c23 0 38 -17 53 -59zM361 792l-16 -9l-81 98c-13 16 -18 27 -18 40c0 15 12 28 27 28c23 0 38 -17 53 -59z" />
    <glyph glyph-name="udblgrave" unicode="&#x215;" horiz-adv-x="611" 
d="M594 0l-182 -7v83c-44 -64 -90 -91 -156 -91c-60 0 -108 23 -135 64c-15 23 -19 46 -19 97v216c0 43 -6 50 -43 50h-38v43l175 11v-305c0 -55 2 -65 15 -84c13 -20 39 -31 70 -31c49 0 89 26 110 70c15 33 21 66 21 123v123c0 43 -6 50 -43 50h-51v43l188 11v-350
c0 -64 8 -73 63 -73h25v-43zM376 536l-16 -9l-81 98c-13 15 -18 27 -18 40c0 15 12 28 27 28c23 0 38 -17 53 -59zM258 536l-16 -9l-81 98c-13 16 -18 27 -18 40c0 15 12 28 27 28c23 0 38 -17 53 -59z" />
    <glyph glyph-name="uni0218" unicode="&#x218;" horiz-adv-x="630" 
d="M590 205c0 -134 -94 -220 -241 -220c-87 0 -143 20 -210 75l-45 -68h-39l-4 285h43c15 -77 36 -124 78 -171c47 -52 100 -75 174 -75c55 0 88 11 121 40c30 27 45 60 45 100c0 39 -16 72 -46 95c-21 16 -28 18 -102 37l-95 24c-147 38 -201 92 -201 201
c0 125 88 209 219 209c71 0 135 -24 182 -69l40 60h37l12 -260h-43c-13 51 -31 93 -60 134c-40 57 -97 87 -167 87c-85 0 -142 -48 -142 -118c0 -61 42 -100 131 -123l107 -27c80 -20 119 -37 146 -63c39 -38 60 -91 60 -153zM384 -126c0 -37 -14 -77 -38 -109
c-13 -17 -32 -38 -81 -67l-20 25c59 37 91 80 91 123c0 5 -2 8 -6 8h-3c-4 -1 -7 -1 -12 -1c-40 0 -64 20 -64 53c0 31 25 54 59 54c43 0 74 -35 74 -86z" />
    <glyph glyph-name="uni0219" unicode="&#x219;" horiz-adv-x="463" 
d="M421 139c0 -93 -65 -154 -163 -154c-50 0 -96 16 -137 49l-35 -41h-35v189h40c24 -100 84 -154 168 -154c59 0 100 33 100 80c0 40 -28 60 -107 79l-53 12c-60 14 -83 24 -106 45c-22 20 -35 53 -35 92c0 87 58 145 146 145c50 0 86 -12 122 -40l29 36h35v-168h-35
c-16 46 -27 66 -49 88c-28 27 -59 40 -97 40c-55 0 -93 -29 -93 -69c0 -22 13 -43 35 -53c18 -10 18 -10 73 -22l50 -11c61 -13 81 -21 105 -42c28 -23 42 -57 42 -101zM300 -126c0 -37 -14 -77 -38 -109c-13 -17 -32 -38 -81 -67l-20 25c59 37 91 80 91 123c0 5 -2 8 -6 8
h-3c-4 -1 -7 -1 -12 -1c-40 0 -64 20 -64 53c0 31 25 54 59 54c43 0 74 -35 74 -86z" />
    <glyph glyph-name="uni021A" unicode="&#x21a;" horiz-adv-x="667" 
d="M648 444h-43c-8 57 -18 100 -33 137c-25 60 -74 94 -135 94c-33 0 -47 -11 -47 -36v-545c0 -42 9 -47 89 -47h26v-47h-343v47h26c81 0 90 5 90 47v545c0 25 -14 36 -47 36c-68 0 -116 -38 -142 -111c-11 -32 -20 -70 -27 -120h-43l15 278h599zM402 -126
c0 -37 -14 -77 -38 -109c-13 -17 -32 -38 -81 -67l-20 25c59 37 91 80 91 123c0 5 -2 8 -6 8h-3c-4 -1 -7 -1 -12 -1c-40 0 -64 20 -64 53c0 31 25 54 59 54c43 0 74 -35 74 -86z" />
    <glyph glyph-name="uni021B" unicode="&#x21b;" horiz-adv-x="389" 
d="M374 159c0 -95 -49 -174 -148 -174c-59 0 -97 23 -114 65c-10 23 -12 47 -12 118v255h-82v39c81 6 125 72 135 202h41v-198h147v-43h-147v-273c0 -79 13 -104 59 -104c49 0 75 46 78 136h42c1 -10 1 -17 1 -23zM295 -126c0 -37 -14 -77 -38 -109c-13 -17 -32 -38 -81 -67
l-20 25c59 37 91 80 91 123c0 5 -2 8 -6 8h-3c-4 -1 -7 -1 -12 -1c-40 0 -64 20 -64 53c0 31 25 54 59 54c43 0 74 -35 74 -86z" />
    <glyph glyph-name="uni0237" unicode="&#x237;" horiz-adv-x="296" 
d="M207 71c0 -113 -10 -164 -41 -208c-29 -40 -80 -65 -136 -65c-67 0 -112 33 -112 82c0 34 24 60 56 60c28 0 52 -22 52 -47c0 -7 -2 -13 -7 -24c-4 -10 -5 -12 -5 -16c0 -7 11 -13 25 -13c21 0 45 15 55 35c14 29 19 67 19 148v339c0 43 -6 50 -43 50h-58v43l195 11v-395
z" />
    <glyph glyph-name="ereversed" unicode="&#x258;" horiz-adv-x="500" 
d="M465 220c0 -140 -91 -235 -226 -235c-95 0 -163 47 -204 142l35 19c41 -77 83 -107 150 -107c83 0 139 60 139 186h-324c0 150 83 256 206 256c128 0 224 -111 224 -261zM358 268c0 107 -54 170 -115 170s-101 -53 -101 -133c0 -29 9 -37 41 -37h175z" />
    <glyph glyph-name="schwa" unicode="&#x259;" horiz-adv-x="500" 
d="M465 246c0 -150 -96 -261 -224 -261c-123 0 -206 106 -206 256h324c0 126 -56 186 -139 186c-67 0 -109 -30 -150 -107l-35 19c41 95 109 142 204 142c135 0 226 -95 226 -235zM358 198h-175c-32 0 -41 -8 -41 -37c0 -80 40 -133 101 -133s115 63 115 170z" />
    <glyph glyph-name="ringhalfright" unicode="&#x2be;" horiz-adv-x="357" 
d="M317 542c0 -105 -66 -179 -157 -179c-64 0 -112 39 -112 87c0 32 21 54 49 54s48 -19 48 -46c0 -13 -3 -21 -15 -35c-1 -2 -2 -2 -2 -3c0 -8 14 -12 29 -12c46 0 74 51 74 126c0 73 -29 119 -79 119c-31 0 -51 -19 -71 -63c-1 -2 -4 -4 -7 -4h-3l-26 10c-3 1 -5 4 -5 8v3
c31 74 67 103 130 103c87 0 147 -69 147 -168z" />
    <glyph glyph-name="ringhalfleft" unicode="&#x2bf;" horiz-adv-x="357" 
d="M317 466c-31 -74 -67 -103 -130 -103c-87 0 -147 69 -147 168c0 105 66 179 157 179c64 0 112 -39 112 -87c0 -32 -21 -54 -49 -54s-48 19 -48 46c0 13 3 21 15 35c1 2 2 2 2 3c0 8 -14 12 -29 12c-46 0 -74 -51 -74 -126c0 -73 29 -119 79 -119c31 0 51 19 71 63
c1 2 4 4 7 4h3l26 -10c3 -1 5 -4 5 -8v-3z" />
    <glyph glyph-name="circumflex" unicode="&#x2c6;" 
d="M323 527h-36l-120 101l-121 -101h-36l125 166h63z" />
    <glyph glyph-name="caron" unicode="&#x2c7;" 
d="M323 693l-125 -166h-63l-125 166h36l120 -101l121 101h36z" />
    <glyph glyph-name="breve" unicode="&#x2d8;" 
d="M308 675c0 -81 -61 -143 -142 -143s-141 62 -141 144v13h36c5 -60 43 -95 106 -95c62 0 100 35 105 95h36v-14z" />
    <glyph glyph-name="dotaccent" unicode="&#x2d9;" 
d="M217 610c0 -28 -23 -50 -51 -50c-26 0 -49 23 -49 50s23 50 50 50s50 -23 50 -50z" />
    <glyph glyph-name="ring" unicode="&#x2da;" 
d="M266 611c0 -56 -45 -100 -101 -100c-53 0 -98 45 -98 100c0 54 45 99 99 99c55 0 100 -45 100 -99zM230 611c0 34 -29 63 -63 63c-35 0 -64 -29 -64 -63c0 -35 29 -64 63 -64c36 0 64 28 64 64z" />
    <glyph glyph-name="ogonek" unicode="&#x2db;" 
d="M295 -144c0 -40 -32 -92 -119 -92c-60 0 -114 41 -114 112c0 51 58 109 104 138h57c-26 -13 -73 -60 -73 -135c0 -31 13 -51 40 -51c67 0 81 40 95 40c5 0 10 -5 10 -12z" />
    <glyph glyph-name="tilde" unicode="&#x2dc;" 
d="M332 663c-7 -63 -51 -106 -108 -106c-26 0 -38 4 -89 28c-19 9 -38 14 -52 14c-23 0 -40 -15 -47 -42h-35c13 62 51 101 100 101c23 0 31 -2 86 -27c34 -15 45 -19 59 -19c23 0 45 22 51 51h35z" />
    <glyph glyph-name="hungarumlaut" unicode="&#x2dd;" 
d="M210 665c0 -13 -5 -25 -18 -40l-81 -98l-16 9l35 98c15 42 30 59 53 59c15 0 27 -13 27 -28zM328 665c0 -13 -5 -24 -18 -40l-81 -98l-16 9l35 98c15 42 30 59 53 59c15 0 27 -13 27 -28z" />
    <glyph glyph-name="uni0300" unicode="&#x300;" horiz-adv-x="0" 
d="M-202 524h-41l-159 97c-15 9 -25 25 -25 39c0 19 16 35 35 35c15 0 25 -6 50 -31z" />
    <glyph glyph-name="uni0301" unicode="&#x301;" horiz-adv-x="0" 
d="M-128 660c0 -14 -10 -30 -25 -39l-159 -97h-41l140 140c25 25 35 31 50 31c19 0 35 -16 35 -35z" />
    <glyph glyph-name="uni0302" unicode="&#x302;" horiz-adv-x="0" 
d="M-121 527h-36l-120 101l-121 -101h-36l125 166h63z" />
    <glyph glyph-name="uni0303" unicode="&#x303;" horiz-adv-x="0" 
d="M-112 663c-7 -63 -51 -106 -108 -106c-26 0 -38 4 -89 28c-19 9 -38 14 -52 14c-23 0 -40 -15 -47 -42h-35c13 62 51 101 100 101c23 0 31 -2 86 -27c34 -15 45 -19 59 -19c23 0 45 22 51 51h35z" />
    <glyph glyph-name="uni0304" unicode="&#x304;" horiz-adv-x="0" 
d="M-121 583h-313v54h313v-54z" />
    <glyph glyph-name="uni0306" unicode="&#x306;" horiz-adv-x="0" 
d="M-136 675c0 -81 -61 -143 -142 -143s-141 62 -141 144v13h36c5 -60 43 -95 106 -95c62 0 100 35 105 95h36v-14z" />
    <glyph glyph-name="uni0307" unicode="&#x307;" horiz-adv-x="0" 
d="M-227 610c0 -28 -23 -50 -51 -50c-26 0 -49 23 -49 50s23 50 50 50s50 -23 50 -50z" />
    <glyph glyph-name="uni0308" unicode="&#x308;" horiz-adv-x="0" 
d="M-327 610c0 -28 -23 -50 -51 -50c-26 0 -49 23 -49 50s23 50 50 50s50 -23 50 -50zM-128 610c0 -28 -23 -50 -51 -50c-26 0 -49 23 -49 50s23 50 50 50s50 -23 50 -50z" />
    <glyph glyph-name="uni0309" unicode="&#x309;" horiz-adv-x="0" 
d="M-179 630c0 -24 -12 -36 -62 -63c-28 -15 -32 -21 -32 -53h-33v31c0 15 4 22 52 61h-1c9 8 14 16 14 25c0 16 -17 36 -45 36c-14 0 -28 -3 -32 -6c11 -10 19 -20 19 -31c0 -18 -16 -33 -37 -33c-24 0 -41 19 -41 42c0 40 43 68 104 68s94 -43 94 -77z" />
    <glyph glyph-name="uni030A" unicode="&#x30a;" horiz-adv-x="0" 
d="M-178 611c0 -56 -45 -100 -101 -100c-53 0 -98 45 -98 100c0 54 45 99 99 99c55 0 100 -45 100 -99zM-214 611c0 34 -29 63 -63 63c-35 0 -64 -29 -64 -63c0 -35 29 -64 63 -64c36 0 64 28 64 64z" />
    <glyph glyph-name="uni030B" unicode="&#x30b;" horiz-adv-x="0" 
d="M-234 665c0 -13 -5 -25 -18 -40l-81 -98l-16 9l35 98c15 42 30 59 53 59c15 0 27 -13 27 -28zM-116 665c0 -13 -5 -24 -18 -40l-81 -98l-16 9l35 98c15 42 30 59 53 59c15 0 27 -13 27 -28z" />
    <glyph glyph-name="uni030C" unicode="&#x30c;" horiz-adv-x="0" 
d="M-121 693l-125 -166h-63l-125 166h36l120 -101l121 101h36z" />
    <glyph glyph-name="uni030F" unicode="&#x30f;" horiz-adv-x="0" 
d="M-206 536l-16 -9l-81 98c-13 15 -18 27 -18 40c0 15 12 28 27 28c23 0 38 -17 53 -59zM-324 536l-16 -9l-81 98c-13 16 -18 27 -18 40c0 15 12 28 27 28c23 0 38 -17 53 -59z" />
    <glyph glyph-name="uni0311" unicode="&#x311;" horiz-adv-x="0" 
d="M-136 532h-36c-5 60 -43 95 -106 95c-62 0 -100 -35 -105 -95h-36v14c0 81 61 143 142 143s141 -62 141 -144v-13z" />
    <glyph glyph-name="uni0323" unicode="&#x323;" horiz-adv-x="0" 
d="M-227 -144c0 -28 -23 -50 -51 -50c-26 0 -49 23 -49 50s23 50 50 50s50 -23 50 -50z" />
    <glyph glyph-name="uni0326" unicode="&#x326;" horiz-adv-x="0" 
d="M-209 -126c0 -37 -14 -77 -38 -109c-13 -17 -32 -38 -81 -67l-20 25c59 37 91 80 91 123c0 5 -2 8 -6 8h-3c-4 -1 -7 -1 -12 -1c-40 0 -64 20 -64 53c0 31 25 54 59 54c43 0 74 -35 74 -86z" />
    <glyph glyph-name="uni032E" unicode="&#x32e;" horiz-adv-x="0" 
d="M-107 -73c0 -86 -74 -142 -171 -142s-169 56 -169 142h43c6 -54 52 -86 127 -86s120 32 126 86h44z" />
    <glyph glyph-name="uni032F" unicode="&#x32f;" horiz-adv-x="0" 
d="M-107 -215h-43c-6 54 -52 86 -127 86s-120 -32 -126 -86h-44c0 86 74 142 171 142s169 -56 169 -142z" />
    <glyph glyph-name="uni0330" unicode="&#x330;" horiz-adv-x="0" 
d="M-112 -91c-7 -63 -51 -106 -108 -106c-26 0 -38 4 -89 28c-19 9 -38 14 -52 14c-23 0 -40 -15 -47 -42h-35c13 62 51 101 100 101c23 0 31 -2 86 -27c34 -15 45 -19 59 -19c23 0 45 22 51 51h35z" />
    <glyph glyph-name="uni0331" unicode="&#x331;" horiz-adv-x="0" 
d="M-121 -171h-313v54h313v-54z" />
    <glyph glyph-name="uni0332" unicode="&#x332;" horiz-adv-x="0" 
d="M-121 -171h-313v54h313v-54z" />
    <glyph glyph-name="Alpha" unicode="&#x391;" horiz-adv-x="722" 
d="M731 0h-310v47h42c37 0 62 10 62 26c0 5 -2 12 -8 27l-54 134h-265l-33 -88c-6 -16 -9 -30 -9 -42c0 -38 27 -57 81 -57h20v-47h-265v47h14c50 0 64 15 100 106l230 583h42l255 -625c23 -56 29 -64 79 -64h19v-47zM442 288l-113 284l-111 -284h224z" />
    <glyph glyph-name="Beta" unicode="&#x392;" horiz-adv-x="722" 
d="M670 196c0 -122 -104 -196 -277 -196h-363v47h18c81 0 90 5 90 47v534c0 42 -9 47 -90 47h-18v47h359c151 0 243 -60 243 -176c0 -82 -52 -146 -162 -169c136 -24 200 -82 200 -181zM516 533c0 94 -42 142 -160 142h-40c-52 0 -66 -11 -66 -50v-228h89
c128 0 177 38 177 136zM547 199c0 110 -54 151 -209 151h-88v-240c0 -55 7 -63 58 -63h42c138 0 197 34 197 152z" />
    <glyph glyph-name="Gamma" unicode="&#x393;" horiz-adv-x="667" 
d="M638 466h-44c-28 171 -71 209 -236 209h-46c-54 0 -63 -7 -63 -50v-531c0 -42 9 -47 90 -47h33v-47h-343v47h18c81 0 90 5 90 47v534c0 42 -9 47 -90 47h-18v47h609v-256z" />
    <glyph glyph-name="Delta" unicode="&#x394;" horiz-adv-x="612" 
d="M608 0h-602l321 688zM479 51l-189 458l-213 -458h402z" />
    <glyph glyph-name="Epsilon" unicode="&#x395;" horiz-adv-x="722" 
d="M663 267l-20 -267h-614v47h18c81 0 90 5 90 47v534c0 42 -9 47 -90 47h-18v47h615v-256h-43c-29 175 -71 209 -237 209h-52c-54 0 -63 -7 -63 -50v-228h24c95 0 135 39 140 137h47v-328h-47c-3 94 -20 144 -144 144h-20v-255c0 -42 21 -48 72 -48h66
c156 0 201 55 232 220h44z" />
    <glyph glyph-name="Zeta" unicode="&#x396;" horiz-adv-x="611" 
d="M575 278l-18 -278h-533v36l409 639h-130c-134 0 -173 -39 -205 -206h-45l20 253h496v-36l-411 -639h166c65 0 119 19 144 52c29 36 46 86 60 179h47z" />
    <glyph glyph-name="Eta" unicode="&#x397;" horiz-adv-x="833" 
d="M804 0h-328v47h18c81 0 90 5 90 47v253h-335v-253c0 -42 9 -47 90 -47h19v-47h-329v47h18c81 0 90 5 90 47v534c0 42 -9 47 -90 47h-18v47h329v-47h-19c-81 0 -90 -5 -90 -47v-227h335v227c0 42 -9 47 -90 47h-14v47h324v-47h-18c-81 0 -90 -5 -90 -47v-534
c0 -42 9 -47 90 -47h18v-47z" />
    <glyph glyph-name="Theta" unicode="&#x398;" horiz-adv-x="778" 
d="M733 361c0 -214 -148 -376 -344 -376c-195 0 -344 162 -344 375c0 205 140 377 348 377c192 0 340 -164 340 -376zM601 361c0 167 -34 329 -209 329c-180 0 -215 -156 -215 -327c0 -170 32 -331 212 -331c178 0 212 160 212 329zM536 205h-47v20c0 80 -5 79 -47 79h-104
c-42 0 -47 -1 -47 -81v-20h-47v311h47v-20c0 -81 5 -78 47 -78h104c42 0 47 -1 47 80v20h47v-311z" />
    <glyph glyph-name="Iota" unicode="&#x399;" horiz-adv-x="407" 
d="M369 0h-331v47h20c81 0 90 5 90 47v534c0 42 -9 47 -90 47h-20v47h331v-47h-20c-80 0 -89 -5 -89 -47v-534c0 -42 9 -47 89 -47h20v-47z" />
    <glyph glyph-name="Kappa" unicode="&#x39a;" horiz-adv-x="778" 
d="M803 0h-342v47h31c49 0 68 7 68 23c0 10 -4 18 -20 42l-174 255l-116 -117v-156c0 -42 9 -47 90 -47h19v-47h-329v47h18c81 0 90 5 90 47v534c0 42 -9 47 -90 47h-18v47h329v-47h-19c-81 0 -90 -5 -90 -47v-301l245 246c29 29 49 58 49 72c0 21 -19 30 -65 30h-25v47h308
v-47c-60 0 -121 -29 -169 -80l-149 -149l242 -349c29 -43 41 -50 98 -50h19v-47z" />
    <glyph glyph-name="Lambda" unicode="&#x39b;" horiz-adv-x="722" 
d="M731 0h-310v47h42c37 0 62 10 62 26c0 5 -2 12 -8 27l-188 472l-164 -426c-6 -16 -9 -30 -9 -42c0 -38 27 -57 81 -57h20v-47h-265v47h14c50 0 64 15 100 106l230 583h42l255 -625c23 -56 29 -64 79 -64h19v-47z" />
    <glyph glyph-name="Mu" unicode="&#x39c;" horiz-adv-x="944" 
d="M913 0h-328v47h18c81 0 90 4 90 47v564l-223 -658h-40l-238 658v-442c0 -136 20 -165 115 -169v-47h-285v47c96 4 116 33 116 169v412c0 42 -9 47 -90 47h-19v47h258l192 -533l183 533h251v-47h-18c-81 0 -90 -5 -90 -47v-534c0 -43 9 -47 90 -47h18v-47z" />
    <glyph glyph-name="Nu" unicode="&#x39d;" horiz-adv-x="815" 
d="M794 675c-96 -4 -116 -33 -116 -170v-519h-42l-446 602v-371c0 -137 20 -166 115 -170v-47h-285v47c96 4 116 33 116 170v425c-18 25 -41 33 -92 33h-25v47h206l399 -531v314c0 137 -20 166 -115 170v47h285v-47z" />
    <glyph glyph-name="Xi" unicode="&#x39e;" horiz-adv-x="768" 
d="M768 220h-26c-31 -77 -48 -108 -202 -108h-311c-154 0 -171 31 -202 108h-26l54 -220h659zM768 502h-26c-31 77 -48 108 -202 108h-311c-154 0 -171 -31 -202 -108h-26l54 220h659zM604 205h-47v20c0 80 -5 79 -47 79h-254c-42 0 -47 -1 -47 -81v-20h-47v311h47v-20
c0 -81 5 -78 47 -78h254c42 0 47 -1 47 80v20h47v-311z" />
    <glyph glyph-name="Omicron" unicode="&#x39f;" horiz-adv-x="778" 
d="M733 361c0 -214 -148 -376 -344 -376c-195 0 -344 162 -344 375c0 204 140 377 348 377c192 0 340 -164 340 -376zM601 361c0 230 -77 329 -209 329c-142 0 -215 -101 -215 -327c0 -230 73 -331 212 -331c138 0 212 101 212 329z" />
    <glyph glyph-name="Pi" unicode="&#x3a0;" horiz-adv-x="833" 
d="M804 0h-328v47h18c81 0 90 5 90 47v534c0 42 -9 47 -90 47h-155c-81 0 -90 -5 -90 -47v-534c0 -42 9 -47 90 -47h19v-47h-329v47h18c81 0 90 5 90 47v534c0 42 -9 47 -90 47h-18v47h775v-47h-18c-81 0 -90 -5 -90 -47v-534c0 -42 9 -47 90 -47h18v-47z" />
    <glyph glyph-name="Rho" unicode="&#x3a1;" horiz-adv-x="667" 
d="M649 524c0 -79 -40 -143 -111 -177c-40 -19 -87 -26 -177 -26h-113v-227c0 -42 9 -47 90 -47h26v-47h-336v47h18c81 0 90 5 90 47v534c0 42 -9 47 -90 47h-18v47h350c184 0 271 -74 271 -198zM526 520c0 106 -49 155 -153 155h-64c-55 0 -61 -5 -61 -51v-256h121
c106 0 157 49 157 152z" />
    <glyph glyph-name="Sigma" unicode="&#x3a3;" horiz-adv-x="678" 
d="M659 210l-54 -210h-591l242 319l-233 403h593l10 -165h-26c-17 101 -47 124 -162 124h-262l188 -306l-201 -263h292c116 0 146 17 178 98h26z" />
    <glyph glyph-name="Tau" unicode="&#x3a4;" horiz-adv-x="667" 
d="M648 444h-43c-8 57 -18 100 -33 137c-25 60 -74 94 -135 94c-33 0 -47 -11 -47 -36v-545c0 -42 9 -47 89 -47h26v-47h-343v47h26c81 0 90 5 90 47v545c0 25 -14 36 -47 36c-68 0 -116 -38 -142 -111c-11 -32 -20 -70 -27 -120h-43l15 278h599z" />
    <glyph glyph-name="Upsilon" unicode="&#x3a5;" horiz-adv-x="704" 
d="M683 542h-42c0 44 -28 86 -69 86c-153 0 -154 -202 -154 -378v-156c0 -43 8 -47 89 -47h26v-47h-343v47h26c81 0 90 5 90 47v156c0 178 -14 378 -167 378c-44 0 -76 -41 -76 -86h-42c0 90 38 180 118 180c192 0 221 -248 221 -472h4c0 222 17 472 208 472
c78 0 111 -91 111 -180z" />
    <glyph glyph-name="Phi" unicode="&#x3a6;" horiz-adv-x="710" 
d="M671 361c0 -121 -123 -185 -259 -199v-68c0 -42 9 -47 89 -47h20v-47h-331v47h20c81 0 90 5 90 47v68c-137 14 -260 77 -260 199s123 185 260 199v68c0 42 -9 47 -90 47h-20v47h331v-47h-20c-80 0 -89 -5 -89 -47v-68c136 -14 259 -78 259 -199zM300 515
c-85 -17 -156 -72 -156 -154s71 -137 156 -154v308zM567 361c0 82 -70 137 -155 154v-308c85 17 155 72 155 154z" />
    <glyph glyph-name="Chi" unicode="&#x3a7;" horiz-adv-x="704" 
d="M716 0h-328v47h28c63 0 67 3 67 18c0 8 -5 19 -13 31l-149 211l-116 -168c-10 -15 -16 -31 -16 -44c0 -30 25 -48 65 -48h25v-47h-284v47h14c52 -1 81 25 121 80l162 225l-197 285c-23 33 -35 38 -84 38h-17v47h309v-47h-38c-38 0 -48 -3 -48 -13c0 -5 4 -15 11 -25
l133 -192l108 157c11 16 14 23 14 34c0 27 -11 39 -59 39h-24v47h275v-47h-16c-53 0 -82 -19 -137 -94l-133 -181l210 -301c34 -49 39 -52 103 -52h14v-47z" />
    <glyph glyph-name="Psi" unicode="&#x3a8;" horiz-adv-x="725" 
d="M685 557c-58 0 -58 -85 -58 -158c0 -118 -92 -211 -208 -234v-71c0 -42 9 -47 89 -47h20v-47h-331v47h20c81 0 90 5 90 47v71c-117 22 -209 115 -209 234c0 73 0 158 -58 158v42c97 0 162 -96 162 -200c0 -82 40 -158 105 -186v415c0 42 -9 47 -90 47h-20v47h331v-47h-20
c-80 0 -89 -5 -89 -47v-415c64 29 104 105 104 186c0 104 65 200 162 200v-42z" />
    <glyph glyph-name="Omega" unicode="&#x3a9;" horiz-adv-x="768" 
d="M768 210l-54 -210h-267v112c-1 110 149 156 149 307c0 167 -34 271 -209 271c-180 0 -215 -98 -215 -269c0 -152 149 -198 148 -309v-112h-265l-54 210h26c30 -77 83 -98 228 -98c0 114 -215 169 -215 306c0 205 140 319 348 319c192 0 340 -106 340 -318
c0 -138 -218 -195 -218 -307c154 0 201 21 232 98h26z" />
    <glyph glyph-name="alpha" unicode="&#x3b1;" horiz-adv-x="773" 
d="M733 115c0 -65 -30 -130 -88 -130c-78 0 -127 61 -156 139c-40 -77 -94 -139 -177 -139c-146 0 -272 105 -272 245c0 143 125 251 272 251c96 0 175 -62 217 -148c25 62 55 122 88 155l57 -56c-49 -48 -92 -102 -122 -163c3 -10 5 -21 6 -32c14 -92 31 -210 87 -210
c37 0 46 46 46 88h42zM472 185c-3 13 -5 26 -7 38c-15 106 -56 216 -153 216c-101 0 -168 -100 -168 -209c0 -106 68 -203 168 -203c83 0 127 76 160 158z" />
    <glyph glyph-name="beta" unicode="&#x3b2;" horiz-adv-x="580" 
d="M545 200c0 -128 -124 -215 -260 -215c-54 0 -106 14 -151 41v-26c0 -77 -8 -154 -28 -229h-98c20 75 32 152 32 229v466c0 145 104 271 245 271c112 0 213 -75 213 -182c0 -79 -69 -136 -148 -160c102 -26 195 -94 195 -195zM441 200c0 115 -130 173 -260 173v42
c107 0 213 46 213 140c0 72 -42 140 -109 140c-102 0 -151 -115 -151 -229v-390c43 -32 96 -49 151 -49c89 0 156 80 156 173z" />
    <glyph glyph-name="gamma" unicode="&#x3b3;" horiz-adv-x="597" 
d="M557 466c0 -136 -76 -255 -158 -362l-47 -62v-104c0 -86 0 -188 -63 -188c-79 0 -112 106 -60 198c4 7 41 57 80 108c-4 169 -25 331 -134 331c-60 0 -93 -64 -93 -131h-42c0 111 39 225 135 225c137 0 168 -177 175 -372l15 20c74 97 112 216 112 337h80zM310 -62v49
c-24 -31 -43 -56 -45 -60c-36 -63 -26 -135 24 -135c21 0 21 84 21 146z" />
    <glyph glyph-name="delta" unicode="&#x3b4;" horiz-adv-x="515" 
d="M475 210c0 -123 -96 -225 -217 -225c-122 0 -218 102 -218 225c0 104 99 164 214 181c-55 55 -100 120 -100 197c0 79 53 149 128 149c79 0 151 -50 157 -125l-80 -7c-4 47 -33 90 -77 90c-46 0 -63 -55 -63 -107c0 -58 62 -113 113 -159c68 -62 143 -129 143 -219z
M371 210c0 56 -35 103 -76 142c-82 -10 -151 -64 -151 -142c0 -91 34 -183 114 -183c79 0 113 92 113 183z" />
    <glyph glyph-name="epsilon" unicode="&#x3b5;" horiz-adv-x="527" 
d="M487 89c-42 -63 -113 -101 -189 -101c-128 0 -258 50 -258 163c0 54 31 87 78 106c-35 20 -57 50 -57 95c0 89 105 127 207 127c67 0 132 -24 184 -67l-27 -32c-44 36 -100 57 -157 57c-58 0 -113 -32 -113 -85c0 -37 22 -60 56 -73c45 5 95 6 142 6v-67
c-51 0 -105 2 -152 11c-40 -12 -67 -35 -67 -78c0 -76 80 -121 164 -121c62 0 120 31 155 82z" />
    <glyph glyph-name="zeta" unicode="&#x3b6;" horiz-adv-x="484" 
d="M464 -126c0 -68 -53 -124 -120 -124c-39 0 -77 11 -110 32l23 36c26 -17 56 -26 87 -26c44 0 78 37 78 82c0 56 -41 105 -96 105c-145 0 -286 71 -286 202c0 181 54 364 173 438c-25 28 -38 64 -31 103h82c-5 -28 -1 -55 12 -76c18 4 37 7 58 7c42 0 88 -7 88 -43
s-46 -42 -88 -42c-30 0 -58 7 -82 21c-97 -63 -108 -244 -108 -408c0 -93 85 -160 182 -160c78 0 138 -68 138 -147z" />
    <glyph glyph-name="eta" unicode="&#x3b7;" horiz-adv-x="611" 
d="M514 -200h-94v485c0 48 -7 79 -22 100c-15 20 -45 35 -71 35c-43 0 -88 -31 -109 -76c-11 -23 -18 -68 -18 -117v-227h-94v362c0 43 -6 50 -43 50h-36v43l173 11v-81c44 66 94 96 158 96c59 0 110 -29 135 -77c18 -34 21 -52 21 -124v-480z" />
    <glyph glyph-name="theta" unicode="&#x3b8;" horiz-adv-x="535" 
d="M495 358c0 -184 -67 -373 -227 -373c-161 0 -228 189 -228 373c0 186 65 379 228 379c162 0 227 -193 227 -379zM391 379c0 150 -6 316 -123 316c-118 0 -124 -166 -124 -316h247zM391 337h-247c0 -148 6 -310 124 -310c117 0 123 162 123 310z" />
    <glyph glyph-name="iota" unicode="&#x3b9;" horiz-adv-x="334" 
d="M294 117c0 -65 -23 -132 -79 -132c-74 0 -135 58 -135 132v349h94v-349c0 -43 4 -90 41 -90c36 0 37 48 37 90h42z" />
    <glyph glyph-name="kappa" unicode="&#x3ba;" horiz-adv-x="584" 
d="M544 117c0 -72 -53 -132 -122 -132c-87 0 -149 80 -149 170c0 62 -67 76 -139 79v-234h-94v466h94v-178c37 17 66 51 94 84c47 55 102 109 174 109c51 0 92 -42 91 -93l-42 1c1 27 -22 50 -49 50c-60 0 -103 -49 -142 -95c-21 -25 -44 -50 -71 -70
c88 -7 178 -40 178 -119c0 -60 3 -128 55 -128c46 0 80 42 80 90h42z" />
    <glyph glyph-name="lambda" unicode="&#x3bb;" horiz-adv-x="623" 
d="M583 128c0 -72 -25 -145 -88 -145c-61 0 -94 103 -120 186l-54 172l-175 -341h-106l241 469l-27 84c-15 48 -34 106 -74 106c-29 0 -42 -32 -42 -65h-42c0 71 22 145 84 145c59 0 90 -96 114 -173l121 -385c17 -53 37 -118 80 -118c30 0 46 32 46 65h42z" />
    <glyph glyph-name="mu.greek" unicode="&#x3bc;" horiz-adv-x="692" 
d="M652 117c0 -67 -34 -132 -94 -132c-55 0 -105 23 -134 61c-31 -37 -77 -61 -129 -61c-56 0 -112 13 -150 41c6 -93 21 -186 44 -276h-109c10 122 15 244 15 367v349h94v-349c0 -53 50 -90 106 -90c46 0 85 25 109 63c-2 8 -3 17 -3 27v349h94v-349c0 -46 22 -90 63 -90
c38 0 52 46 52 90h42z" />
    <glyph glyph-name="nu" unicode="&#x3bd;" horiz-adv-x="551" 
d="M511 294c0 -96 -38 -191 -120 -239l-125 -72l-131 347c-14 37 25 109 -28 109c-25 0 -25 -48 -25 -87h-42c0 62 14 129 67 129c55 0 90 -53 111 -107l115 -304l37 22c70 40 99 121 99 202c0 55 -46 95 -92 128l54 76c63 -45 80 -126 80 -204z" />
    <glyph glyph-name="xi" unicode="&#x3be;" horiz-adv-x="539" 
d="M519 -126c0 -62 -26 -124 -81 -124c-30 0 -58 14 -76 37l32 26c11 -13 27 -21 44 -21c33 0 39 43 39 82c0 53 -141 71 -247 84c-97 12 -190 66 -190 156c0 87 57 142 139 174c-62 23 -105 62 -105 131c0 100 70 173 166 209c-22 26 -35 58 -35 94h80c0 -28 9 -55 23 -75
c23 4 46 6 70 6c57 0 126 0 126 -43c0 -42 -69 -42 -126 -42c-33 0 -64 8 -90 22c-65 -31 -110 -95 -110 -171c0 -58 43 -89 102 -104c45 7 93 11 140 11v-67c-45 0 -92 1 -136 6c-80 -24 -140 -73 -140 -151c0 -56 37 -107 92 -114c127 -16 283 -36 283 -126z" />
    <glyph glyph-name="omicron" unicode="&#x3bf;" horiz-adv-x="500" 
d="M466 233c0 -138 -96 -248 -216 -248s-216 110 -216 247c0 140 96 249 218 249c118 0 214 -111 214 -248zM361 233c0 132 -39 205 -109 205c-75 0 -113 -70 -113 -206c0 -132 39 -204 111 -204s111 72 111 205z" />
    <glyph glyph-name="pi" unicode="&#x3c0;" horiz-adv-x="706" 
d="M666 398c-45 -16 -92 -26 -139 -30v-220c0 -61 25 -121 78 -121v-42c-93 0 -172 71 -172 163v219c-56 3 -112 13 -168 20v-166c0 -131 -81 -252 -204 -252v80c91 0 162 79 162 172v171c-22 2 -44 4 -66 4c-44 0 -75 -40 -75 -85h-42c0 89 38 179 117 179
c108 0 214 -32 322 -31c54 1 106 10 157 28z" />
    <glyph glyph-name="rho" unicode="&#x3c1;" horiz-adv-x="590" 
d="M550 230c0 -137 -116 -245 -255 -245c-46 0 -91 10 -132 29c4 -33 6 -65 6 -97c0 -57 -7 -114 -27 -167h-100c20 54 33 110 33 167c0 105 -35 208 -35 313c0 139 115 251 255 251s255 -112 255 -251zM446 230c0 106 -55 209 -151 209s-151 -103 -151 -209
c0 -56 7 -111 14 -166c41 -24 89 -37 137 -37c95 0 151 99 151 203z" />
    <glyph glyph-name="uni03C2" unicode="&#x3c2;" horiz-adv-x="492" 
d="M452 444l-52 -60c-29 25 -64 55 -97 55c-92 0 -169 -72 -169 -163c0 -72 55 -129 118 -166c38 -22 75 -45 112 -70s73 -58 73 -102c0 -47 -39 -84 -85 -84c-42 0 -82 18 -110 49l32 28c20 -22 48 -35 78 -35c23 0 43 18 43 42c0 30 -29 50 -55 68c-36 24 -73 46 -110 68
c-87 52 -190 112 -190 202c0 125 127 205 263 205c53 0 109 -2 149 -37z" />
    <glyph glyph-name="sigma" unicode="&#x3c3;" horiz-adv-x="539" 
d="M499 484c-43 -20 -88 -31 -134 -36c64 -43 107 -123 107 -215c0 -138 -96 -248 -216 -248s-216 110 -216 247c0 140 96 249 218 249c10 0 20 -1 30 -2c64 7 125 34 183 62zM367 233c0 132 -39 205 -109 205c-75 0 -113 -70 -113 -206c0 -132 39 -204 111 -204
s111 72 111 205z" />
    <glyph glyph-name="tau" unicode="&#x3c4;" horiz-adv-x="591" 
d="M551 401c-64 -34 -137 -50 -208 -45v-239c0 -43 4 -90 40 -90s38 48 38 90h42c0 -65 -23 -132 -80 -132c-74 0 -134 58 -134 132v256c-40 10 -90 23 -92 23c-44 0 -75 -40 -75 -85h-42c0 89 38 179 117 179c14 0 93 -20 139 -32c71 -18 146 -9 211 26z" />
    <glyph glyph-name="upsilon" unicode="&#x3c5;" horiz-adv-x="572" 
d="M532 250c0 -136 -76 -265 -201 -265c-105 0 -199 71 -199 170c0 66 20 129 20 195c0 41 0 89 -36 89c-34 0 -34 -48 -34 -89h-42c0 64 20 131 76 131c72 0 130 -59 130 -131c0 -65 -10 -130 -10 -195s35 -128 95 -128c102 0 159 110 159 223c0 71 -51 127 -104 175l62 70
c68 -60 84 -154 84 -245z" />
    <glyph glyph-name="phi" unicode="&#x3c6;" horiz-adv-x="690" 
d="M650 233c0 -129 -111 -221 -244 -243l1 -52c0 -65 -10 -130 -39 -188h-106c30 58 51 122 51 188l-1 48c-146 13 -272 109 -272 247c0 105 77 189 167 245l23 -36c-68 -42 -86 -128 -86 -209c0 -101 71 -186 166 -203c-5 73 -12 147 -12 220c0 118 65 231 174 231
c113 0 178 -122 178 -248zM546 233c0 95 0 206 -74 206c-77 0 -80 -101 -80 -189c0 -72 7 -143 11 -214c83 26 143 105 143 197z" />
    <glyph glyph-name="chi" unicode="&#x3c7;" horiz-adv-x="577" 
d="M577 -102c0 -73 -24 -150 -88 -150s-94 76 -120 142l-63 164c-68 -87 -125 -178 -125 -289h-94c0 145 97 255 188 367l-67 171c-17 45 -39 100 -80 100c-31 0 -46 -35 -46 -70h-42c0 73 24 150 88 150c55 0 91 -92 120 -165l57 -148c71 89 131 182 131 296h94
c0 -148 -101 -260 -194 -374l73 -187c15 -39 40 -77 80 -77c31 0 46 35 46 70h42z" />
    <glyph glyph-name="psi" unicode="&#x3c8;" horiz-adv-x="647" 
d="M607 250c0 -139 -94 -262 -226 -265v-235h-42v237c-109 11 -207 69 -207 168c0 66 20 129 20 195c0 41 0 89 -36 89c-34 0 -34 -48 -34 -89h-42c0 64 20 131 76 131c72 0 130 -59 130 -131c0 -65 -10 -130 -10 -195c0 -60 45 -109 103 -123v201c0 163 -9 327 -26 489h94
c-17 -162 -26 -326 -26 -489v-206c109 3 184 107 184 223c0 71 -51 127 -104 175l62 70c68 -60 84 -154 84 -245z" />
    <glyph glyph-name="omega" unicode="&#x3c9;" horiz-adv-x="741" 
d="M701 236c0 -131 -80 -251 -202 -251c-67 0 -109 42 -134 103c-23 -59 -63 -103 -123 -103c-122 0 -202 120 -202 251c0 95 59 176 126 245l30 -30c-54 -55 -62 -137 -62 -215c0 -100 21 -209 108 -209c64 0 90 66 101 138c-9 46 -12 96 -12 146h80c0 -129 0 -284 88 -284
c87 0 108 109 108 209c0 78 -8 160 -62 215l30 30c67 -69 126 -150 126 -245z" />
    <glyph glyph-name="uni03D1" unicode="&#x3d1;" horiz-adv-x="688" 
d="M648 467c-19 -6 -37 -11 -57 -15c6 -33 8 -68 8 -102c0 -183 -79 -365 -241 -365c-122 0 -241 61 -241 170c0 67 35 128 35 195c0 40 0 89 -29 89c-36 0 -41 -47 -41 -89h-42c0 65 26 131 83 131c70 0 123 -60 123 -131c0 -66 -25 -129 -25 -195c0 -72 63 -128 137 -128
c130 0 137 171 137 323l-1 95c-113 1 -233 11 -268 110c-31 89 33 182 127 182c126 0 201 -109 231 -244c17 4 34 8 50 14zM491 487c-9 113 -38 208 -138 208c-65 0 -109 -64 -87 -126c27 -75 130 -81 225 -82z" />
    <glyph glyph-name="uni03D5" unicode="&#x3d5;" horiz-adv-x="512" 
d="M472 233c0 -129 -84 -234 -194 -247v-236h-44v236c-110 13 -194 117 -194 246s81 231 189 247l-13 243h80l-13 -243c106 -14 189 -119 189 -246zM234 30v203l-3 202c-57 -16 -86 -84 -86 -203c0 -118 31 -188 89 -202zM367 233c0 117 -30 187 -86 202l-3 -202v-203
c58 14 89 84 89 203z" />
    <glyph glyph-name="uni03D6" unicode="&#x3d6;" horiz-adv-x="741" 
d="M701 236c0 -131 -80 -251 -202 -251c-67 0 -109 42 -134 103c-23 -59 -63 -103 -123 -103c-122 0 -202 120 -202 251c0 95 59 176 126 245l30 -30c-54 -55 -62 -137 -62 -215c0 -100 21 -209 108 -209c64 0 90 66 101 138c-9 46 -12 96 -12 146h80c0 -129 0 -284 88 -284
c87 0 108 109 108 209c0 175 -52 358 -203 358c-84 0 -168 -7 -250 -21l-7 42c85 14 170 21 257 21c186 0 297 -195 297 -400z" />
    <glyph glyph-name="uni03F1" unicode="&#x3f1;" horiz-adv-x="512" 
d="M472 -250h-42c0 53 -63 72 -124 72c-51 0 -120 1 -150 16c-115 57 -116 236 -116 394c0 140 96 249 218 249c118 0 214 -111 214 -248c0 -138 -96 -248 -216 -248c-68 0 -128 35 -167 90c11 -88 42 -161 125 -178c30 -6 61 1 92 1c89 -1 166 -63 166 -148zM367 233
c0 132 -39 205 -109 205c-75 0 -113 -70 -113 -206c0 -132 39 -204 111 -204s111 72 111 205z" />
    <glyph glyph-name="uni03F5" unicode="&#x3f5;" horiz-adv-x="515" 
d="M475 39c-40 -45 -103 -54 -163 -54c-149 0 -272 115 -272 262c0 153 168 234 338 234h67v-42h-67c-119 0 -229 -74 -234 -184c83 -5 171 66 251 28l-34 -72c-67 31 -144 0 -215 3c11 -100 72 -187 166 -187c42 0 75 33 103 65z" />
    <glyph glyph-name="baht" unicode="&#xe3f;" horiz-adv-x="722" 
d="M670 196c0 -118 -97 -191 -260 -196v-83h-42v83h-338v47h18c81 0 90 5 90 47v534c0 42 -9 47 -90 47h-18v47h337l1 83h42v-83c138 -6 222 -65 222 -176c0 -82 -52 -146 -162 -169c136 -24 200 -82 200 -181zM516 533c0 78 -29 124 -106 138l-1 -269c76 14 107 54 107 131
zM368 398l-1 277h-11h-40c-52 0 -66 -11 -66 -50v-228h89zM547 199c0 91 -37 135 -137 147l-1 -296c96 10 138 50 138 149zM368 47l-1 302l-29 1h-88v-240c0 -55 7 -63 58 -63h42h18z" />
    <glyph glyph-name="Ddotbelow" unicode="&#x1e0c;" horiz-adv-x="778" 
d="M732 365c0 -234 -121 -365 -367 -365h-336v47h19c80 0 89 5 89 47v534c0 42 -9 47 -89 47h-19v47h318c114 0 188 -16 243 -51c92 -60 142 -171 142 -306zM600 361c0 221 -71 314 -242 314h-52c-50 0 -57 -7 -57 -56v-517c0 -49 7 -55 57 -55h68c161 0 226 90 226 314z
M439 -144c0 -28 -23 -50 -51 -50c-26 0 -49 23 -49 50s23 50 50 50s50 -23 50 -50z" />
    <glyph glyph-name="ddotbelow" unicode="&#x1e0d;" horiz-adv-x="574" 
d="M554 0l-174 -7v79c-32 -60 -75 -87 -138 -87c-116 0 -199 101 -199 243c0 144 86 253 199 253c58 0 101 -23 138 -74v226c0 43 -7 50 -43 50h-59v43l196 11v-621c0 -63 8 -73 62 -73h18v-43zM379 231c0 48 -7 90 -19 120c-18 46 -57 76 -98 76s-78 -29 -95 -73
c-13 -34 -19 -79 -19 -138c0 -111 43 -177 113 -177c72 0 118 76 118 192zM337 -144c0 -28 -23 -50 -51 -50c-26 0 -49 23 -49 50s23 50 50 50s50 -23 50 -50z" />
    <glyph glyph-name="Dlinebelow" unicode="&#x1e0e;" horiz-adv-x="778" 
d="M732 365c0 -234 -121 -365 -367 -365h-336v47h19c80 0 89 5 89 47v534c0 42 -9 47 -89 47h-19v47h318c114 0 188 -16 243 -51c92 -60 142 -171 142 -306zM600 361c0 221 -71 314 -242 314h-52c-50 0 -57 -7 -57 -56v-517c0 -49 7 -55 57 -55h68c161 0 226 90 226 314z
M546 -171h-313v54h313v-54z" />
    <glyph glyph-name="dlinebelow" unicode="&#x1e0f;" horiz-adv-x="574" 
d="M554 0l-174 -7v79c-32 -60 -75 -87 -138 -87c-116 0 -199 101 -199 243c0 144 86 253 199 253c58 0 101 -23 138 -74v226c0 43 -7 50 -43 50h-59v43l196 11v-621c0 -63 8 -73 62 -73h18v-43zM379 231c0 48 -7 90 -19 120c-18 46 -57 76 -98 76s-78 -29 -95 -73
c-13 -34 -19 -79 -19 -138c0 -111 43 -177 113 -177c72 0 118 76 118 192zM444 -171h-313v54h313v-54z" />
    <glyph glyph-name="Hdotbelow" unicode="&#x1e24;" horiz-adv-x="833" 
d="M804 0h-328v47h18c81 0 90 5 90 47v253h-335v-253c0 -42 9 -47 90 -47h19v-47h-329v47h18c81 0 90 5 90 47v534c0 42 -9 47 -90 47h-18v47h329v-47h-19c-81 0 -90 -5 -90 -47v-227h335v227c0 42 -9 47 -90 47h-14v47h324v-47h-18c-81 0 -90 -5 -90 -47v-534
c0 -42 9 -47 90 -47h18v-47zM467 -144c0 -28 -23 -50 -51 -50c-26 0 -49 23 -49 50s23 50 50 50s50 -23 50 -50z" />
    <glyph glyph-name="hdotbelow" unicode="&#x1e25;" horiz-adv-x="611" 
d="M593 0h-253v36h14c65 0 66 7 66 47v201c0 49 -7 79 -22 101c-15 20 -45 35 -71 35c-43 0 -88 -31 -109 -76c-11 -23 -18 -68 -18 -118v-143c0 -40 1 -47 66 -47h14v-36h-253v36h14c64 0 65 7 65 47v550c0 43 -6 50 -43 50h-48v43l185 11v-353c45 67 94 97 158 97
c60 0 110 -29 135 -77c18 -34 21 -52 21 -124v-197c0 -40 1 -47 65 -47h14v-36zM354 -144c0 -28 -23 -50 -51 -50c-26 0 -49 23 -49 50s23 50 50 50s50 -23 50 -50z" />
    <glyph glyph-name="Hdieresis" unicode="&#x1e26;" horiz-adv-x="833" 
d="M804 0h-328v47h18c81 0 90 5 90 47v253h-335v-253c0 -42 9 -47 90 -47h19v-47h-329v47h18c81 0 90 5 90 47v534c0 42 -9 47 -90 47h-18v47h329v-47h-19c-81 0 -90 -5 -90 -47v-227h335v227c0 42 -9 47 -90 47h-14v47h324v-47h-18c-81 0 -90 -5 -90 -47v-534
c0 -42 9 -47 90 -47h18v-47zM367 846c0 -28 -23 -50 -51 -50c-26 0 -49 23 -49 50s23 50 50 50s50 -23 50 -50zM566 846c0 -28 -23 -50 -51 -50c-26 0 -49 23 -49 50s23 50 50 50s50 -23 50 -50z" />
    <glyph glyph-name="hdieresis" unicode="&#x1e27;" horiz-adv-x="611" 
d="M593 0h-253v36h14c65 0 66 7 66 47v201c0 49 -7 79 -22 101c-15 20 -45 35 -71 35c-43 0 -88 -31 -109 -76c-11 -23 -18 -68 -18 -118v-143c0 -40 1 -47 66 -47h14v-36h-253v36h14c64 0 65 7 65 47v550c0 43 -6 50 -43 50h-48v43l185 11v-353c45 67 94 97 158 97
c60 0 110 -29 135 -77c18 -34 21 -52 21 -124v-197c0 -40 1 -47 65 -47h14v-36zM256 861c0 -28 -23 -50 -51 -50c-26 0 -49 23 -49 50s23 50 50 50s50 -23 50 -50zM455 861c0 -28 -23 -50 -51 -50c-26 0 -49 23 -49 50s23 50 50 50s50 -23 50 -50z" />
    <glyph glyph-name="Hbrevebelow" unicode="&#x1e2a;" horiz-adv-x="833" 
d="M804 0h-328v47h18c81 0 90 5 90 47v253h-335v-253c0 -42 9 -47 90 -47h19v-47h-329v47h18c81 0 90 5 90 47v534c0 42 -9 47 -90 47h-18v47h329v-47h-19c-81 0 -90 -5 -90 -47v-227h335v227c0 42 -9 47 -90 47h-14v47h324v-47h-18c-81 0 -90 -5 -90 -47v-534
c0 -42 9 -47 90 -47h18v-47zM587 -73c0 -86 -74 -142 -171 -142s-169 56 -169 142h43c6 -54 52 -86 127 -86s120 32 126 86h44z" />
    <glyph glyph-name="hbrevebelow" unicode="&#x1e2b;" horiz-adv-x="611" 
d="M593 0h-253v36h14c65 0 66 7 66 47v201c0 49 -7 79 -22 101c-15 20 -45 35 -71 35c-43 0 -88 -31 -109 -76c-11 -23 -18 -68 -18 -118v-143c0 -40 1 -47 66 -47h14v-36h-253v36h14c64 0 65 7 65 47v550c0 43 -6 50 -43 50h-48v43l185 11v-353c45 67 94 97 158 97
c60 0 110 -29 135 -77c18 -34 21 -52 21 -124v-197c0 -40 1 -47 65 -47h14v-36zM474 -73c0 -86 -74 -142 -171 -142s-169 56 -169 142h43c6 -54 52 -86 127 -86s120 32 126 86h44z" />
    <glyph glyph-name="Idieresisacute" unicode="&#x1e2e;" horiz-adv-x="407" 
d="M369 0h-331v47h20c81 0 90 5 90 47v534c0 42 -9 47 -90 47h-20v47h331v-47h-20c-80 0 -89 -5 -89 -47v-534c0 -42 9 -47 89 -47h20v-47zM154 846c0 -28 -23 -50 -51 -50c-26 0 -49 23 -49 50s23 50 50 50s50 -23 50 -50zM353 846c0 -28 -23 -50 -51 -50
c-26 0 -49 23 -49 50s23 50 50 50s50 -23 50 -50zM372 1066c0 -13 -12 -26 -30 -35l-191 -88h-49l168 126c30 23 42 28 60 28c23 0 42 -14 42 -31z" />
    <glyph glyph-name="idieresisacute" unicode="&#x1e2f;" horiz-adv-x="315" 
d="M289 0h-259v36h12c64 0 70 7 70 47v279c0 42 -6 50 -43 50h-51v43l188 11v-383c0 -40 6 -47 71 -47h12v-36zM109 610c0 -28 -23 -50 -51 -50c-26 0 -49 23 -49 50s23 50 50 50s50 -23 50 -50zM308 610c0 -28 -23 -50 -51 -50c-26 0 -49 23 -49 50s23 50 50 50
s50 -23 50 -50zM327 814c0 -13 -12 -26 -30 -35l-191 -88h-49l168 126c30 23 42 28 60 28c23 0 42 -14 42 -31z" />
    <glyph glyph-name="Ldotbelow" unicode="&#x1e36;" horiz-adv-x="667" 
d="M646 274l-21 -274h-590v47h18c81 0 90 5 90 47v534c0 42 -9 47 -90 47h-18v47h328v-47h-18c-81 0 -90 -5 -90 -47v-533c0 -42 21 -48 72 -48h42c167 0 210 72 233 227h44zM384 -144c0 -28 -23 -50 -51 -50c-26 0 -49 23 -49 50s23 50 50 50s50 -23 50 -50z" />
    <glyph glyph-name="ldotbelow" unicode="&#x1e37;" horiz-adv-x="315" 
d="M287 0h-259v36h17c64 0 65 7 65 47v550c0 43 -6 50 -42 50h-49v43l185 11v-654c0 -40 1 -47 66 -47h17v-36zM207 -144c0 -28 -23 -50 -51 -50c-26 0 -49 23 -49 50s23 50 50 50s50 -23 50 -50z" />
    <glyph glyph-name="Ldotbelowmacron" unicode="&#x1e38;" horiz-adv-x="667" 
d="M646 274l-21 -274h-590v47h18c81 0 90 5 90 47v534c0 42 -9 47 -90 47h-18v47h328v-47h-18c-81 0 -90 -5 -90 -47v-533c0 -42 21 -48 72 -48h42c167 0 210 72 233 227h44zM384 -144c0 -28 -23 -50 -51 -50c-26 0 -49 23 -49 50s23 50 50 50s50 -23 50 -50zM356 819h-313
v54h313v-54z" />
    <glyph glyph-name="ldotbelowmacron" unicode="&#x1e39;" horiz-adv-x="315" 
d="M287 0h-259v36h17c64 0 65 7 65 47v550c0 43 -6 50 -42 50h-49v43l185 11v-654c0 -40 1 -47 66 -47h17v-36zM207 -144c0 -28 -23 -50 -51 -50c-26 0 -49 23 -49 50s23 50 50 50s50 -23 50 -50zM314 834h-313v54h313v-54z" />
    <glyph glyph-name="Mdotbelow" unicode="&#x1e42;" horiz-adv-x="944" 
d="M913 0h-328v47h18c81 0 90 4 90 47v564l-223 -658h-40l-238 658v-442c0 -136 20 -165 115 -169v-47h-285v47c96 4 116 33 116 169v412c0 42 -9 47 -90 47h-19v47h258l192 -533l183 533h251v-47h-18c-81 0 -90 -5 -90 -47v-534c0 -43 9 -47 90 -47h18v-47zM522 -144
c0 -28 -23 -50 -51 -50c-26 0 -49 23 -49 50s23 50 50 50s50 -23 50 -50z" />
    <glyph glyph-name="mdotbelow" unicode="&#x1e43;" horiz-adv-x="889" 
d="M868 0h-253v36h14c65 0 66 7 66 47v204c0 39 -3 61 -12 83c-13 31 -40 50 -73 50c-70 0 -115 -64 -115 -164v-173c0 -40 1 -47 65 -47h14v-36h-253v36h14c65 0 66 7 66 47v215c0 41 -6 70 -20 89c-12 19 -40 33 -66 33c-65 0 -114 -66 -114 -155v-181c0 -41 1 -48 65 -48
h14v-36h-252v36h14c64 0 65 7 65 48v278c0 43 -6 50 -43 50h-41v43l178 11v-77c39 63 84 92 144 92c67 0 121 -40 138 -100c43 69 91 100 156 100c48 0 89 -20 118 -57c26 -34 32 -55 32 -117v-223c0 -41 1 -48 65 -48h14v-36zM495 -144c0 -28 -23 -50 -51 -50
c-26 0 -49 23 -49 50s23 50 50 50s50 -23 50 -50z" />
    <glyph glyph-name="Ndotaccent" unicode="&#x1e44;" horiz-adv-x="815" 
d="M794 675c-96 -4 -116 -33 -116 -170v-519h-42l-446 602v-371c0 -137 20 -166 115 -170v-47h-285v47c96 4 116 33 116 170v425c-18 25 -41 33 -92 33h-25v47h206l399 -531v314c0 137 -20 166 -115 170v47h285v-47zM458 846c0 -28 -23 -50 -51 -50c-26 0 -49 23 -49 50
s23 50 50 50s50 -23 50 -50z" />
    <glyph glyph-name="ndotaccent" unicode="&#x1e45;" horiz-adv-x="611" 
d="M593 0h-253v36h14c65 0 66 7 66 47v202c0 48 -7 79 -22 100c-15 20 -45 35 -71 35c-43 0 -88 -31 -109 -76c-11 -23 -18 -68 -18 -117v-144c0 -40 1 -47 66 -47h14v-36h-253v36h14c64 0 65 7 65 47v279c0 43 -6 50 -43 50h-36v43l173 11v-81c44 66 94 96 158 96
c59 0 110 -29 135 -77c18 -34 21 -52 21 -124v-197c0 -40 1 -47 65 -47h14v-36zM356 610c0 -28 -23 -50 -51 -50c-26 0 -49 23 -49 50s23 50 50 50s50 -23 50 -50z" />
    <glyph glyph-name="Ndotbelow" unicode="&#x1e46;" horiz-adv-x="815" 
d="M794 675c-96 -4 -116 -33 -116 -170v-519h-42l-446 602v-371c0 -137 20 -166 115 -170v-47h-285v47c96 4 116 33 116 170v425c-18 25 -41 33 -92 33h-25v47h206l399 -531v314c0 137 -20 166 -115 170v47h285v-47zM457 -144c0 -28 -23 -50 -51 -50c-26 0 -49 23 -49 50
s23 50 50 50s50 -23 50 -50z" />
    <glyph glyph-name="ndotbelow" unicode="&#x1e47;" horiz-adv-x="611" 
d="M593 0h-253v36h14c65 0 66 7 66 47v202c0 48 -7 79 -22 100c-15 20 -45 35 -71 35c-43 0 -88 -31 -109 -76c-11 -23 -18 -68 -18 -117v-144c0 -40 1 -47 66 -47h14v-36h-253v36h14c64 0 65 7 65 47v279c0 43 -6 50 -43 50h-36v43l173 11v-81c44 66 94 96 158 96
c59 0 110 -29 135 -77c18 -34 21 -52 21 -124v-197c0 -40 1 -47 65 -47h14v-36zM356 -144c0 -28 -23 -50 -51 -50c-26 0 -49 23 -49 50s23 50 50 50s50 -23 50 -50z" />
    <glyph glyph-name="Rdotaccent" unicode="&#x1e58;" horiz-adv-x="722" 
d="M713 160c-3 -120 -42 -175 -124 -175c-78 0 -117 46 -128 159l-5 51c-12 119 -63 155 -152 155h-58v-256c0 -42 9 -47 90 -47h18v-47h-328v47h18c81 0 90 5 90 47v534c0 42 -9 47 -90 47h-18v47h346c168 0 264 -65 264 -179c0 -101 -69 -159 -213 -179
c79 -20 116 -62 139 -154l16 -63c17 -69 25 -86 50 -86c27 0 39 30 43 99h42zM513 542c0 91 -45 133 -144 133h-54c-64 0 -69 -3 -69 -33v-245h110c100 0 157 39 157 145zM412 846c0 -28 -23 -50 -51 -50c-26 0 -49 23 -49 50s23 50 50 50s50 -23 50 -50z" />
    <glyph glyph-name="rdotaccent" unicode="&#x1e59;" horiz-adv-x="444" 
d="M435 401c0 -41 -25 -68 -61 -68c-32 0 -55 23 -55 55c0 19 4 29 18 45c-42 -5 -76 -36 -100 -92c-25 -57 -39 -133 -39 -208v-50c0 -40 11 -47 75 -47h19v-36h-267v36h14c65 0 66 7 66 47v279c0 43 -6 50 -43 50h-41v43l177 11v-124c32 88 87 139 150 139
c53 0 87 -32 87 -80zM248 610c0 -28 -23 -50 -51 -50c-26 0 -49 23 -49 50s23 50 50 50s50 -23 50 -50z" />
    <glyph glyph-name="Rdotbelow" unicode="&#x1e5a;" horiz-adv-x="722" 
d="M713 160c-3 -120 -42 -175 -124 -175c-78 0 -117 46 -128 159l-5 51c-12 119 -63 155 -152 155h-58v-256c0 -42 9 -47 90 -47h18v-47h-328v47h18c81 0 90 5 90 47v534c0 42 -9 47 -90 47h-18v47h346c168 0 264 -65 264 -179c0 -101 -69 -159 -213 -179
c79 -20 116 -62 139 -154l16 -63c17 -69 25 -86 50 -86c27 0 39 30 43 99h42zM513 542c0 91 -45 133 -144 133h-54c-64 0 -69 -3 -69 -33v-245h110c100 0 157 39 157 145zM411 -144c0 -28 -23 -50 -51 -50c-26 0 -49 23 -49 50s23 50 50 50s50 -23 50 -50z" />
    <glyph glyph-name="rdotbelow" unicode="&#x1e5b;" horiz-adv-x="444" 
d="M435 401c0 -41 -25 -68 -61 -68c-32 0 -55 23 -55 55c0 19 4 29 18 45c-42 -5 -76 -36 -100 -92c-25 -57 -39 -133 -39 -208v-50c0 -40 11 -47 75 -47h19v-36h-267v36h14c65 0 66 7 66 47v279c0 43 -6 50 -43 50h-41v43l177 11v-124c32 88 87 139 150 139
c53 0 87 -32 87 -80zM209 -144c0 -28 -23 -50 -51 -50c-26 0 -49 23 -49 50s23 50 50 50s50 -23 50 -50z" />
    <glyph glyph-name="Rdotbelowmacron" unicode="&#x1e5c;" horiz-adv-x="722" 
d="M713 160c-3 -120 -42 -175 -124 -175c-78 0 -117 46 -128 159l-5 51c-12 119 -63 155 -152 155h-58v-256c0 -42 9 -47 90 -47h18v-47h-328v47h18c81 0 90 5 90 47v534c0 42 -9 47 -90 47h-18v47h346c168 0 264 -65 264 -179c0 -101 -69 -159 -213 -179
c79 -20 116 -62 139 -154l16 -63c17 -69 25 -86 50 -86c27 0 39 30 43 99h42zM513 542c0 91 -45 133 -144 133h-54c-64 0 -69 -3 -69 -33v-245h110c100 0 157 39 157 145zM411 -144c0 -28 -23 -50 -51 -50c-26 0 -49 23 -49 50s23 50 50 50s50 -23 50 -50zM518 819h-313v54
h313v-54z" />
    <glyph glyph-name="rdotbelowmacron" unicode="&#x1e5d;" horiz-adv-x="444" 
d="M435 401c0 -41 -25 -68 -61 -68c-32 0 -55 23 -55 55c0 19 4 29 18 45c-42 -5 -76 -36 -100 -92c-25 -57 -39 -133 -39 -208v-50c0 -40 11 -47 75 -47h19v-36h-267v36h14c65 0 66 7 66 47v279c0 43 -6 50 -43 50h-41v43l177 11v-124c32 88 87 139 150 139
c53 0 87 -32 87 -80zM209 -144c0 -28 -23 -50 -51 -50c-26 0 -49 23 -49 50s23 50 50 50s50 -23 50 -50zM354 598h-313v54h313v-54z" />
    <glyph glyph-name="Sdotbelow" unicode="&#x1e62;" horiz-adv-x="630" 
d="M590 205c0 -134 -94 -220 -241 -220c-87 0 -143 20 -210 75l-45 -68h-39l-4 285h43c15 -77 36 -124 78 -171c47 -52 100 -75 174 -75c55 0 88 11 121 40c30 27 45 60 45 100c0 39 -16 72 -46 95c-21 16 -28 18 -102 37l-95 24c-147 38 -201 92 -201 201
c0 125 88 209 219 209c71 0 135 -24 182 -69l40 60h37l12 -260h-43c-13 51 -31 93 -60 134c-40 57 -97 87 -167 87c-85 0 -142 -48 -142 -118c0 -61 42 -100 131 -123l107 -27c80 -20 119 -37 146 -63c39 -38 60 -91 60 -153zM365 -144c0 -28 -23 -50 -51 -50
c-26 0 -49 23 -49 50s23 50 50 50s50 -23 50 -50z" />
    <glyph glyph-name="sdotbelow" unicode="&#x1e63;" horiz-adv-x="463" 
d="M421 139c0 -93 -65 -154 -163 -154c-50 0 -96 16 -137 49l-35 -41h-35v189h40c24 -100 84 -154 168 -154c59 0 100 33 100 80c0 40 -28 60 -107 79l-53 12c-60 14 -83 24 -106 45c-22 20 -35 53 -35 92c0 87 58 145 146 145c50 0 86 -12 122 -40l29 36h35v-168h-35
c-16 46 -27 66 -49 88c-28 27 -59 40 -97 40c-55 0 -93 -29 -93 -69c0 -22 13 -43 35 -53c18 -10 18 -10 73 -22l50 -11c61 -13 81 -21 105 -42c28 -23 42 -57 42 -101zM282 -144c0 -28 -23 -50 -51 -50c-26 0 -49 23 -49 50s23 50 50 50s50 -23 50 -50z" />
    <glyph glyph-name="Tdotbelow" unicode="&#x1e6c;" horiz-adv-x="667" 
d="M648 444h-43c-8 57 -18 100 -33 137c-25 60 -74 94 -135 94c-33 0 -47 -11 -47 -36v-545c0 -42 9 -47 89 -47h26v-47h-343v47h26c81 0 90 5 90 47v545c0 25 -14 36 -47 36c-68 0 -116 -38 -142 -111c-11 -32 -20 -70 -27 -120h-43l15 278h599zM384 -144
c0 -28 -23 -50 -51 -50c-26 0 -49 23 -49 50s23 50 50 50s50 -23 50 -50z" />
    <glyph glyph-name="tdotbelow" unicode="&#x1e6d;" horiz-adv-x="389" 
d="M374 159c0 -95 -49 -174 -148 -174c-59 0 -97 23 -114 65c-10 23 -12 47 -12 118v255h-82v39c81 6 125 72 135 202h41v-198h147v-43h-147v-273c0 -79 13 -104 59 -104c49 0 75 46 78 136h42c1 -10 1 -17 1 -23zM276 -144c0 -28 -23 -50 -51 -50c-26 0 -49 23 -49 50
s23 50 50 50s50 -23 50 -50z" />
    <glyph glyph-name="Tlinebelow" unicode="&#x1e6e;" horiz-adv-x="667" 
d="M648 444h-43c-8 57 -18 100 -33 137c-25 60 -74 94 -135 94c-33 0 -47 -11 -47 -36v-545c0 -42 9 -47 89 -47h26v-47h-343v47h26c81 0 90 5 90 47v545c0 25 -14 36 -47 36c-68 0 -116 -38 -142 -111c-11 -32 -20 -70 -27 -120h-43l15 278h599zM490 -171h-313v54h313v-54z
" />
    <glyph glyph-name="tlinebelow" unicode="&#x1e6f;" horiz-adv-x="389" 
d="M374 159c0 -95 -49 -174 -148 -174c-59 0 -97 23 -114 65c-10 23 -12 47 -12 118v255h-82v39c81 6 125 72 135 202h41v-198h147v-43h-147v-273c0 -79 13 -104 59 -104c49 0 75 46 78 136h42c1 -10 1 -17 1 -23zM383 -171h-313v54h313v-54z" />
    <glyph glyph-name="Wgrave" unicode="&#x1e80;" horiz-adv-x="981" 
d="M976 675h-14c-55 0 -68 -22 -91 -103l-176 -587h-41l-162 497l-148 -497h-43l-216 651c-12 35 -18 39 -60 39h-19v47h282v-47h-45c-32 0 -43 -5 -43 -20c0 -5 2 -16 5 -25l144 -448l116 384l-26 78c-8 24 -22 31 -63 31h-23v47h289v-47h-16c-70 0 -72 -10 -72 -27
c0 -7 1 -9 7 -28l138 -438l120 406c4 11 6 25 6 35c0 35 -18 52 -76 52h-18v47h245v-47zM592 769h-49l-191 88c-18 9 -30 22 -30 35c0 17 19 31 42 31c18 0 30 -5 60 -28z" />
    <glyph glyph-name="wgrave" unicode="&#x1e81;" horiz-adv-x="778" 
d="M763 430h-13c-35 0 -46 -17 -68 -76l-140 -369h-31l-122 316l-119 -316h-35l-150 396c-14 40 -24 49 -52 49h-18v36h220v-36h-18c-30 0 -41 -6 -41 -23c0 -6 2 -15 4 -22l97 -251l88 233l-9 26c-10 29 -20 37 -52 37h-17v36h224v-36h-24c-33 0 -42 -5 -42 -23
c0 -9 1 -14 4 -21l98 -257l85 228c4 12 8 27 8 37c0 25 -14 36 -49 36h-17v36h189v-36zM465 524h-41l-159 97c-15 9 -25 25 -25 39c0 19 16 35 35 35c15 0 25 -6 50 -31z" />
    <glyph glyph-name="Wacute" unicode="&#x1e82;" horiz-adv-x="981" 
d="M976 675h-14c-55 0 -68 -22 -91 -103l-176 -587h-41l-162 497l-148 -497h-43l-216 651c-12 35 -18 39 -60 39h-19v47h282v-47h-45c-32 0 -43 -5 -43 -20c0 -5 2 -16 5 -25l144 -448l116 384l-26 78c-8 24 -22 31 -63 31h-23v47h289v-47h-16c-70 0 -72 -10 -72 -27
c0 -7 1 -9 7 -28l138 -438l120 406c4 11 6 25 6 35c0 35 -18 52 -76 52h-18v47h245v-47zM659 892c0 -13 -12 -26 -30 -35l-191 -88h-49l168 126c30 23 42 28 60 28c23 0 42 -14 42 -31z" />
    <glyph glyph-name="wacute" unicode="&#x1e83;" horiz-adv-x="778" 
d="M763 430h-13c-35 0 -46 -17 -68 -76l-140 -369h-31l-122 316l-119 -316h-35l-150 396c-14 40 -24 49 -52 49h-18v36h220v-36h-18c-30 0 -41 -6 -41 -23c0 -6 2 -15 4 -22l97 -251l88 233l-9 26c-10 29 -20 37 -52 37h-17v36h224v-36h-24c-33 0 -42 -5 -42 -23
c0 -9 1 -14 4 -21l98 -257l85 228c4 12 8 27 8 37c0 25 -14 36 -49 36h-17v36h189v-36zM538 660c0 -14 -10 -30 -25 -39l-159 -97h-41l140 140c25 25 35 31 50 31c19 0 35 -16 35 -35z" />
    <glyph glyph-name="Wdieresis" unicode="&#x1e84;" horiz-adv-x="981" 
d="M976 675h-14c-55 0 -68 -22 -91 -103l-176 -587h-41l-162 497l-148 -497h-43l-216 651c-12 35 -18 39 -60 39h-19v47h282v-47h-45c-32 0 -43 -5 -43 -20c0 -5 2 -16 5 -25l144 -448l116 384l-26 78c-8 24 -22 31 -63 31h-23v47h289v-47h-16c-70 0 -72 -10 -72 -27
c0 -7 1 -9 7 -28l138 -438l120 406c4 11 6 25 6 35c0 35 -18 52 -76 52h-18v47h245v-47zM441 846c0 -28 -23 -50 -51 -50c-26 0 -49 23 -49 50s23 50 50 50s50 -23 50 -50zM640 846c0 -28 -23 -50 -51 -50c-26 0 -49 23 -49 50s23 50 50 50s50 -23 50 -50z" />
    <glyph glyph-name="wdieresis" unicode="&#x1e85;" horiz-adv-x="778" 
d="M763 430h-13c-35 0 -46 -17 -68 -76l-140 -369h-31l-122 316l-119 -316h-35l-150 396c-14 40 -24 49 -52 49h-18v36h220v-36h-18c-30 0 -41 -6 -41 -23c0 -6 2 -15 4 -22l97 -251l88 233l-9 26c-10 29 -20 37 -52 37h-17v36h224v-36h-24c-33 0 -42 -5 -42 -23
c0 -9 1 -14 4 -21l98 -257l85 228c4 12 8 27 8 37c0 25 -14 36 -49 36h-17v36h189v-36zM339 610c0 -28 -23 -50 -51 -50c-26 0 -49 23 -49 50s23 50 50 50s50 -23 50 -50zM538 610c0 -28 -23 -50 -51 -50c-26 0 -49 23 -49 50s23 50 50 50s50 -23 50 -50z" />
    <glyph glyph-name="Zdotbelow" unicode="&#x1e92;" horiz-adv-x="611" 
d="M575 278l-18 -278h-533v36l409 639h-130c-134 0 -173 -39 -205 -206h-45l20 253h496v-36l-411 -639h166c65 0 119 19 144 52c29 36 46 86 60 179h47zM371 -144c0 -28 -23 -50 -51 -50c-26 0 -49 23 -49 50s23 50 50 50s50 -23 50 -50z" />
    <glyph glyph-name="zdotbelow" unicode="&#x1e93;" horiz-adv-x="481" 
d="M435 179l-7 -179h-389v36l273 387h-87c-82 0 -118 -36 -127 -126h-40l9 169h361v-36l-273 -387h102c90 0 128 37 138 136h40zM298 -144c0 -28 -23 -50 -51 -50c-26 0 -49 23 -49 50s23 50 50 50s50 -23 50 -50z" />
    <glyph glyph-name="tdieresis" unicode="&#x1e97;" horiz-adv-x="389" 
d="M374 159c0 -95 -49 -174 -148 -174c-59 0 -97 23 -114 65c-10 23 -12 47 -12 118v255h-82v39c81 6 125 72 135 202h41v-198h147v-43h-147v-273c0 -79 13 -104 59 -104c49 0 75 46 78 136h42c1 -10 1 -17 1 -23zM124 788c0 -28 -23 -50 -51 -50c-26 0 -49 23 -49 50
s23 50 50 50s50 -23 50 -50zM323 788c0 -28 -23 -50 -51 -50c-26 0 -49 23 -49 50s23 50 50 50s50 -23 50 -50z" />
    <glyph glyph-name="Adotbelow" unicode="&#x1ea0;" horiz-adv-x="722" 
d="M731 0h-310v47h42c37 0 62 10 62 26c0 5 -2 12 -8 27l-54 134h-265l-33 -88c-6 -16 -9 -30 -9 -42c0 -38 27 -57 81 -57h20v-47h-265v47h14c50 0 64 15 100 106l230 583h42l255 -625c23 -56 29 -64 79 -64h19v-47zM442 288l-113 284l-111 -284h224zM411 -144
c0 -28 -23 -50 -51 -50c-26 0 -49 23 -49 50s23 50 50 50s50 -23 50 -50z" />
    <glyph glyph-name="adotbelow" unicode="&#x1ea1;" horiz-adv-x="556" 
d="M543 51c0 -29 -47 -58 -92 -58c-47 0 -72 20 -88 71c-43 -51 -105 -79 -174 -79c-88 0 -145 46 -145 117c0 98 81 147 314 187v39c0 88 -41 110 -108 110c-48 0 -89 -18 -89 -39c0 -5 22 -36 22 -54c0 -30 -23 -51 -54 -51c-35 0 -58 24 -58 62c0 72 83 125 195 125
c115 0 186 -31 186 -159v-201c0 -50 10 -69 38 -69c6 0 29 11 43 11c5 0 10 -5 10 -12zM358 200v46c-173 -29 -213 -59 -213 -130c0 -45 34 -78 79 -78c43 0 89 25 114 62c17 26 20 40 20 100zM316 -144c0 -28 -23 -50 -51 -50c-26 0 -49 23 -49 50s23 50 50 50
s50 -23 50 -50z" />
    <glyph glyph-name="Ahookabove" unicode="&#x1ea2;" horiz-adv-x="722" 
d="M731 0h-310v47h42c37 0 62 10 62 26c0 5 -2 12 -8 27l-54 134h-265l-33 -88c-6 -16 -9 -30 -9 -42c0 -38 27 -57 81 -57h20v-47h-265v47h14c50 0 64 15 100 106l230 583h42l255 -625c23 -56 29 -64 79 -64h19v-47zM442 288l-113 284l-111 -284h224zM456 886
c0 -24 -12 -36 -62 -63c-28 -15 -32 -21 -32 -53h-33v31c0 15 4 22 52 61h-1c9 8 14 16 14 25c0 16 -17 36 -45 36c-14 0 -28 -3 -32 -6c11 -10 19 -20 19 -31c0 -18 -16 -33 -37 -33c-24 0 -41 19 -41 42c0 40 43 68 104 68s94 -43 94 -77z" />
    </font>
</defs>
</svg>
