<?xml version="1.0" encoding="utf-8"?>
<!-- Generator: Adobe Illustrator 16.0.3, SVG Export Plug-In . SVG Version: 6.00 Build 0)  -->
<!DOCTYPE svg PUBLIC "-//W3C//DTD SVG 1.1//EN" "http://www.w3.org/Graphics/SVG/1.1/DTD/svg11.dtd">
<svg version="1.1" id="Layer_1" xmlns="http://www.w3.org/2000/svg" xmlns:xlink="http://www.w3.org/1999/xlink" x="0px" y="0px"
	 width="512px" height="50px" viewBox="0 0 512 50" enable-background="new 0 0 512 50" xml:space="preserve">
<g id="XMLID_1_">
	<path id="XMLID_64_" fill="#1A1A18" d="M46.068,5.068c5.713,0.223,5.788,0.223,5.75,0.223c-2.505,0,4.371-0.119,6.868-0.223v0.83
		c-3.326,0.504-5.165,1.393-5.165,4.935c0,3.719,2.676,18.211,4.402,25.146c0.71,2.89,1.734,4.653,6.119,5.098v0.683
		c-3.156-0.117-6.979-0.238-10.135-0.238c-2.971,0-5.89,0.121-8.861,0.238v-0.683c3.392-0.489,6.188-1.053,6.188-4.815
		c0-0.903-0.06-2.402-0.417-4.341L46.713,9.559h-0.126C40.948,20.14,32.91,34.631,32.91,34.631S23.982,19.487,18.632,9.01h-0.118
		c-1.312,8.149-2.675,20.968-2.675,24.806c0,4.89,1.185,7.04,6.898,7.261v0.683c-3.274-0.117-6.484-0.238-9.758-0.238
		c-2.437,0-4.542,0.121-6.979,0.238v-0.683c3.334-0.221,6.046-1.704,6.749-4.653c0.608-2.532,1.001-5.557,1.423-8.326
		c0,0,1.971-14.123,2.223-15.368c0.237-1.229,0.939-6.593-5.461-6.831v-0.83c3.394,0.104,3.712,0.223,7.097,0.223
		c2.445,0,3.002-0.119,5.439-0.223l11.632,20.687c0,0,5.618-8.596,10.181-17.798C45.95,6.625,46.068,5.068,46.068,5.068
		L46.068,5.068z"/>
	<path id="XMLID_63_" fill="#1A1A18" d="M182.304,22.628c0-4.386-0.437-5.483-4.453-6.046v-0.636
		c2.668,0.075,5.039,0.163,7.707,0.163c2.171,0,4.172-0.088,6.289-0.163v0.636c-3.548,0.4-4.416,1.498-4.416,5.884v12.715
		c0,4.37,0.771,5.498,4.669,5.867v0.651c-2.521-0.09-4.816-0.161-7.328-0.161c-2.423,0-4.454,0.071-6.825,0.161v-0.651
		c3.838-0.46,4.356-1.319,4.356-5.689V30.35h-17.634v4.831c0,4.37,0.963,5.498,4.676,5.867v0.651
		c-2.528-0.09-4.824-0.161-7.336-0.161c-2.422,0-4.453,0.071-6.824,0.161v-0.651c4.12-0.46,4.356-1.497,4.356-5.867V22.287
		c0-4.385-0.415-5.392-4.454-5.705v-0.636c2.669,0.075,5.04,0.163,7.707,0.163c2.172,0,4.171-0.088,6.304-0.163v0.636
		c-4.155,0.563-4.43,1.32-4.43,5.705v6.639h17.634V22.628L182.304,22.628z"/>
	<path id="XMLID_60_" fill="#1A1A18" d="M251.877,17.575c1.533-0.518,3.259-0.592,4.446-0.592c4.786,0,8.2,2.772,8.2,6.875
		c0,3.423-3.504,5.779-7.667,5.779c-1.674,0-3.394-0.191-4.979-0.843V17.575L251.877,17.575z M256.67,41.048
		c-4.163-0.281-4.793-1.497-4.793-5.867v-4.995c1.978,0.578,4.157,0.874,6.122,0.891c5.97,0.029,11.973-2.816,11.973-7.826
		c0-4.816-5.054-7.542-11.826-7.542c-3.112,0-6.217,0.4-9.329,0.4c-2.178,0-4.341-0.088-6.519-0.163v0.636
		c3.779,0.312,4.459,1.498,4.459,5.884v12.715c0,4.37-0.592,5.407-4.549,5.867v0.651c2.563-0.09,4.928-0.161,7.351-0.161
		c2.511,0,4.646,0.071,7.112,0.161V41.048L256.67,41.048z"/>
	<path id="XMLID_57_" fill="#1A1A18" d="M283.974,28.823c0-6.372,4.505-12.091,12.693-12.091c8.193,0,12.699,5.719,12.699,12.091
		c0,6.37-4.506,12.09-12.699,12.09C288.479,40.913,283.974,35.193,283.974,28.823L283.974,28.823z M278.054,28.823
		c0,8.416,8.588,13.499,18.613,13.499c10.017,0,18.61-5.083,18.61-13.499c0-8.418-8.594-13.501-18.61-13.501
		C286.642,15.322,278.054,20.405,278.054,28.823L278.054,28.823z"/>
	<path id="XMLID_56_" fill="#1A1A18" d="M327.779,21.191c0-2.904-1.142-4.164-3.906-4.609v-0.636
		c2.72,0.075,5.425,0.163,8.143,0.163c1.978,0,3.735-0.088,5.713-0.163v0.636c-4.26,0.282-4.653,2.194-4.653,5.587v7.66
		c0,4.847,1.956,10.524,9.165,10.524c9.67,0,10.469-8.301,10.469-10.834v-6.98c0-4.193-0.442-5.557-4.401-5.957v-0.636
		c2.031,0.075,3.706,0.163,5.736,0.163c1.666,0,3.001-0.088,4.69-0.163v0.636c-2.81,0.327-4.253,0.713-4.253,5.098v7.72
		c0,6.224-2.951,12.923-13.426,12.923c-9.232,0-13.276-6.668-13.276-12.329V21.191L327.779,21.191z"/>
	<path id="XMLID_55_" fill="#1A1A18" d="M374.04,41.048c4.424-0.46,4.699-3.364,4.699-7.749V17.383
		c-6.87,0-9.084,0.208-11.553,6.388l-0.637-0.164l1.12-8.771c2.214,0.993,5.394,1.273,8.105,1.273h11.595
		c4.038,0,5.788-0.355,7.744-1.273l1.096,8.771l-0.645,0.164c-2.468-6.18-4.683-6.388-11.699-6.388v15.916
		c0,4.385,0.408,7.38,4.839,7.749v0.651c-2.513-0.09-4.98-0.34-7.507-0.34c-2.415,0-4.786,0.25-7.158,0.34V41.048L374.04,41.048z"/>
	<path id="XMLID_54_" fill="#1A1A18" d="M405.626,41.048c4.15-0.369,4.351-3.126,4.351-7.515v-9.394c0-4.385-0.2-7.082-4.46-7.557
		v-0.636c2.674,0.075,5.052,0.163,7.72,0.163c2.171,0,4.001-0.088,6.126-0.163v0.636c-4.72,0.757-4.266,3.172-4.266,7.557v9.394
		c0,4.389,0.066,7.055,4.51,7.515v0.651c-2.52-0.09-4.651-0.161-7.171-0.161c-2.407,0-4.438,0.071-6.81,0.161V41.048L405.626,41.048
		z"/>
	<path id="XMLID_53_" fill="#1A1A18" d="M439.138,39.832c1.091,0.192,3.312,0.521,5.15,0.521c7.936,0,11.87-1.869,16.612-6.879
		l0.72,0.356l-5.105,8.861c-0.668-0.771-2.676-1.154-3.794-1.154h-17.627c-1.919,0-3.461,0.071-5.388,0.161v-0.651
		c4.194-0.369,4.314-3.335,4.314-7.72v-9.661c0-4.372-0.381-6.61-4.4-7.085v-0.636c4.437,0.075,7.407,0.163,13.431,0.163
		c4.588,0,10.144,0.474,13.047-1.273c-0.11,1.525,0.944,6.504,1.247,8.029l-0.822,0.164c-1.668-5.037-5.817-5.719-10.804-5.719
		c-2.319,0-4.26,0.073-6.581,0.236v11.366c1.293,0,2.172-0.075,3.461-0.075c4.492,0,7.269-1.214,7.861-5.008h0.586
		c0,1.883-0.098,3.748-0.098,5.588c0,1.881,0.098,3.763,0.098,5.646h-0.586c-1.14-4.432-3.215-4.861-8.5-4.861h-2.822V39.832
		L439.138,39.832z"/>
	<path id="XMLID_50_" fill="#1A1A18" d="M477.608,25.428c0-2.917,0.104-5.423,0.2-7.941c1.482-0.342,3.104-0.43,4.734-0.43
		c4.141,0,7.757,2.312,7.757,5.72c0,4.222-3.014,5.985-8.105,5.985c-1.519,0-3.147-0.264-4.586-0.664V25.428L477.608,25.428z
		 M502.296,41.062c-6.32-0.548-6.854-9.173-14.714-11.426c4.236-0.029,7.653-2.695,7.653-6.297c0-5.749-6.66-7.632-12.396-7.632
		c-2.513,0-6.572,0.4-8.389,0.4c-2.132,0-4.207-0.088-6.328-0.163v0.636c3.981,0.4,4.351,1.32,4.351,8.209v10.625
		c0,1.866-0.294,5.171-4.351,5.631v0.651c2.373-0.09,4.753-0.161,7.167-0.161c2.52,0,4.646,0.071,7.166,0.161v-0.651
		c-4.025-0.562-4.847-1.733-4.847-6.121v-5.319c1.282,0.342,4.461,0.488,5.684,0.918c6.602,2.313,5.342,7.839,10.454,11.013h8.55
		V41.062L502.296,41.062z"/>
	<path id="XMLID_47_" fill="#1A1A18" d="M229.56,36.766L217.66,12.538l-3.17,6.193l-8.795,16.628
		c-1.423,2.651-2.267,4.995-6.482,5.689v0.651c2.176-0.09,3.838-0.161,5.875-0.161c2.083,0,3.777,0.071,5.809,0.161v-0.651
		c-2.134-0.103-5.268-0.919-4.031-3.733l3.297-6.965h10.743l3.253,7.067c0.926,2.446-1.171,3.528-4.238,3.631v0.651
		c2.333-0.09,3.326-0.161,7.031-0.161c2.75,0,5.052,0.071,7.743,0.161v-0.651C231.399,40.735,230.525,38.811,229.56,36.766
		L229.56,36.766z M215.72,19.116l4.57,9.929h-9.558L215.72,19.116L215.72,19.116z"/>
	<path id="XMLID_46_" fill="#1A1A18" d="M146.25,30.334c-5.158,5.957-13.493,10.211-23.733,10.211
		c-11.58,0-18.36-8.136-18.36-18.006c0-8.875,5.114-16.699,18.213-16.699c10.232,0,17.011,5.394,19.887,12.047l1.117-0.342
		c-0.556-3.156-2.215-8.698-2.215-13.306c-4.713,2.443-11.358-0.237-19.265-0.237c-14.3,0-26.547,7.882-26.547,19.146
		c0,11.261,12.773,19.159,27.074,19.159c11.885,0,19.628-5.038,25.213-10.668L146.25,30.334L146.25,30.334z"/>
	<path id="XMLID_45_" fill="#1A1A18" d="M79.825,39.094c0,1.702-1.769,3.096-3.956,3.096c-2.186,0-3.95-1.394-3.95-3.096
		c0-1.706,1.764-3.085,3.95-3.085C78.056,36.009,79.825,37.388,79.825,39.094L79.825,39.094z"/>
	<path id="XMLID_44_" fill="#1A1A18" d="M64.674,43.655c-2.757-0.089-5.81-0.161-8.402-0.161c-1.283,0-2.563,0.014-3.84,0.059
		c-1.436,0.134-2.688,0.639-3.682,0.83v0.681c2.974-0.119,5.891-0.222,8.871-0.222c3.154,0,6.979,0.103,10.135,0.222v-0.681
		C67.17,44.279,65.652,43.745,64.674,43.655L64.674,43.655z"/>
	<path id="XMLID_43_" fill="#1A1A18" d="M383.57,43.33c-1.022,0-2.03,0.044-3.024,0.103c-0.962,0.12-2.163,0.684-2.785,0.935v0.638
		c2.363-0.075,4.741-0.325,7.158-0.325c2.52,0,4.985,0.25,7.497,0.325v-0.638c-0.578-0.209-1.8-0.681-2.637-0.771
		C387.697,43.494,385.651,43.33,383.57,43.33L383.57,43.33z"/>
	<path id="XMLID_42_" fill="#1A1A18" d="M15.698,43.833c-1.549,0-2.964,0.046-4.409,0.104c-0.532,0.149-1.044,0.311-1.585,0.445
		v0.681c2.445-0.119,4.549-0.222,6.979-0.222c3.275,0,6.491,0.103,9.765,0.222v-0.681c-0.429-0.12-0.851-0.237-1.272-0.328
		C21.995,43.938,18.877,43.833,15.698,43.833L15.698,43.833z"/>
	<path id="XMLID_41_" fill="#1A1A18" d="M18.56,36.111c0,1.322,0.087,2.432,0.325,3.381c0.259,0.119,0.541,0.236,0.859,0.325
		c-0.134-0.786-0.2-1.675-0.2-2.696c0-3.229,0.971-12.862,2.066-20.7c-0.304-0.565-0.6-1.113-0.896-1.66
		C19.589,22.718,18.56,32.795,18.56,36.111L18.56,36.111z"/>
	<polygon id="XMLID_40_" fill="#1A1A18" points="35.933,22.762 27.76,8.239 26.695,8.239 35.369,23.651 35.933,22.762 	"/>
	<path id="XMLID_39_" fill="#1A1A18" d="M35.821,36.587c0.505,0.859,0.8,1.35,0.8,1.35s5.662-10.21,10.828-19.753
		c-0.144-0.728-0.276-1.452-0.394-2.104C42.305,24.881,36.903,34.646,35.821,36.587L35.821,36.587z"/>
	<path id="XMLID_38_" fill="#1A1A18" d="M56.241,13.145c0,3.719,2.676,18.198,4.402,25.132c0.097,0.4,0.207,0.771,0.319,1.126
		c0.244,0.134,0.497,0.251,0.8,0.356c-0.044-0.147-0.082-0.281-0.125-0.46c-1.726-6.95-4.401-21.428-4.401-25.145
		c0-3.558,1.83-4.432,5.163-4.937V8.374c-0.593,0.029-1.428,0.059-2.332,0.089C57.59,9.025,56.241,10.106,56.241,13.145
		L56.241,13.145z"/>
	<path id="XMLID_37_" fill="#1A1A18" d="M82.161,40.085c0.242,0.4,0.385,0.845,0.385,1.318c0,1.689-1.771,3.084-3.958,3.084
		c-0.978,0-1.867-0.283-2.555-0.742c0.645,1.038,1.985,1.748,3.542,1.748c2.184,0,3.962-1.377,3.962-3.098
		C83.537,41.478,82.996,40.649,82.161,40.085L82.161,40.085z"/>
	<path id="XMLID_36_" fill="#1A1A18" d="M150.146,33.638c-0.015,0.029-0.043,0.046-0.058,0.061l0.266,0.265
		c-5.587,5.619-13.329,10.642-25.213,10.642c-6.334,0-12.373-1.556-17.129-4.251c-0.417-0.18-0.816-0.358-1.208-0.536
		c5.03,3.645,12.062,5.795,19.517,5.795c11.876,0,19.62-5.024,25.207-10.64L150.146,33.638L150.146,33.638z"/>
	<path id="XMLID_35_" fill="#1A1A18" d="M106.878,24.852c0,3.378,0.792,6.533,2.296,9.247c0.444,0.503,0.918,0.978,1.422,1.407
		c-1.658-2.799-2.541-6.106-2.541-9.646c0-8.877,5.112-16.715,18.213-16.715c3.697,0,6.943,0.726,9.713,1.94
		c-0.592-0.474-1.214-0.889-1.867-1.289c-2.616-1.035-5.625-1.659-9.019-1.659C111.989,8.136,106.878,15.975,106.878,24.852
		L106.878,24.852z"/>
	<path id="XMLID_34_" fill="#1A1A18" d="M146.095,19.858l-0.512,0.161c0.201,0.386,0.391,0.786,0.563,1.187l1.125-0.34
		c-0.562-3.17-2.215-8.699-2.215-13.309c-0.362,0.179-0.733,0.327-1.119,0.46C144.219,12.287,145.59,17.028,146.095,19.858
		L146.095,19.858z"/>
	<path id="XMLID_33_" fill="#1A1A18" d="M164.729,43.85c-1.556,0-2.955,0.029-4.378,0.073c-0.533,0.193-1.03,0.371-1.453,0.444
		v0.638c2.371-0.075,4.401-0.149,6.824-0.149c2.511,0,4.81,0.074,7.328,0.149v-0.638c-0.319-0.073-0.74-0.222-1.193-0.37
		C169.419,43.923,167.174,43.85,164.729,43.85L164.729,43.85z"/>
	<path id="XMLID_32_" fill="#1A1A18" d="M181.458,33.667c0-0.325,0-0.664,0-1.006H167.39v4.831c0,0.947,0.043,1.719,0.155,2.386
		c0.265,0.088,0.555,0.146,0.895,0.222c-0.044-0.488-0.06-1.022-0.06-1.601v-4.832H181.458L181.458,33.667z"/>
	<path id="XMLID_31_" fill="#1A1A18" d="M167.39,24.6v3.498c0.303,0,0.628,0,0.99,0v-2.491c0-4.385,0.276-5.127,4.418-5.705v-0.636
		c-1.111,0.044-2.2,0.071-3.291,0.103C167.559,20.02,167.39,21.222,167.39,24.6L167.39,24.6z"/>
	<path id="XMLID_30_" fill="#1A1A18" d="M192.373,19.369c-1.741,0.682-2.222,2.119-2.222,5.408v12.715
		c0,0.947,0.036,1.733,0.132,2.4c0.266,0.073,0.563,0.148,0.903,0.207c-0.037-0.488-0.051-1.022-0.051-1.601V25.77
		c0-4.372,0.868-5.482,4.431-5.868v-0.636C194.478,19.31,193.432,19.337,192.373,19.369L192.373,19.369z"/>
	<path id="XMLID_29_" fill="#1A1A18" d="M194.559,43.997c-2.416-0.074-4.646-0.147-7.076-0.147c-1.577,0-2.993,0.029-4.446,0.073
		c-0.532,0.193-1.021,0.371-1.378,0.444v0.638c2.364-0.075,4.393-0.149,6.817-0.149c2.519,0,4.816,0.074,7.334,0.149v-0.638
		C195.485,44.294,195.048,44.146,194.559,43.997L194.559,43.997z"/>
	<path id="XMLID_28_" fill="#1A1A18" d="M207.807,43.85c-1.327,0-2.497,0.029-3.765,0.073c-0.438,0.177-0.836,0.34-1.125,0.444
		v0.638c2.186-0.075,3.846-0.149,5.883-0.149c2.083,0,3.771,0.074,5.808,0.149v-0.638c-0.273-0.073-0.658-0.222-1.147-0.37
		C211.497,43.923,209.835,43.85,207.807,43.85L207.807,43.85z"/>
	<path id="XMLID_27_" fill="#1A1A18" d="M212.89,32.661l-3.305,6.963c-0.052,0.135-0.095,0.269-0.141,0.388
		c0.408,0.088,0.852,0.147,1.334,0.191l3.097-6.536h7.632c-0.164-0.368-0.319-0.696-0.458-1.006H212.89L212.89,32.661z"/>
	<path id="XMLID_26_" fill="#1A1A18" d="M216.543,28.23l1.266-2.563c-0.229-0.505-0.466-1.024-0.712-1.543l-0.37,0.696l-1.697,3.41
		C215.535,28.23,216.045,28.23,216.543,28.23L216.543,28.23z"/>
	<path id="XMLID_25_" fill="#1A1A18" d="M232.464,39.255c0.283,0.237,0.771,0.623,1.35,0.592l-12.018-24.464l-0.541,1.008
		l10.957,22.345C232.302,38.914,232.375,39.077,232.464,39.255L232.464,39.255z"/>
	<path id="XMLID_24_" fill="#1A1A18" d="M237.413,43.997c-2.696-0.074-5-0.147-7.742-0.147c-2.089,0-3.311,0.029-4.394,0.059
		c-0.586,0.179-1.147,0.354-1.645,0.459v0.638c2.334-0.075,3.319-0.149,7.031-0.149c2.749,0,5.045,0.074,7.743,0.149v-0.638
		C238.118,44.263,237.777,44.146,237.413,43.997L237.413,43.997z"/>
	<path id="XMLID_23_" fill="#1A1A18" d="M252.277,43.85c-1.666,0-3.312,0.044-5.015,0.088c-0.505,0.162-0.972,0.325-1.357,0.43
		v0.638c2.578-0.075,4.942-0.149,7.365-0.149c2.52,0,4.654,0.074,7.113,0.149v-0.638c-0.318-0.073-0.733-0.222-1.192-0.37
		C256.805,43.923,254.722,43.85,252.277,43.85L252.277,43.85z"/>
	<path id="XMLID_22_" fill="#1A1A18" d="M254.604,19.873v8.742c0.312,0.06,0.636,0.104,0.985,0.133V20.88
		c1.527-0.504,3.261-0.579,4.447-0.579c0.94,0,1.831,0.119,2.659,0.311c-0.246-0.353-0.549-0.68-0.874-0.977
		c-0.859-0.223-1.785-0.34-2.771-0.34C257.863,19.295,256.129,19.369,254.604,19.873L254.604,19.873z"/>
	<path id="XMLID_21_" fill="#1A1A18" d="M271.378,21.769c0.845,1.068,1.312,2.328,1.312,3.794c0,5.008-6.009,7.853-11.958,7.824
		c-1.979-0.016-4.157-0.296-6.128-0.889v4.994c0,0.963,0.029,1.763,0.127,2.428c0.259,0.075,0.555,0.15,0.895,0.194
		c-0.021-0.49-0.037-1.021-0.037-1.615v-4.993c1.972,0.593,4.142,0.859,6.127,0.874c5.966,0.044,11.96-2.815,11.96-7.824
		C273.676,24.6,272.831,23,271.378,21.769L271.378,21.769z"/>
	<path id="XMLID_20_" fill="#1A1A18" d="M286.693,31.118c0,2.031,0.459,3.973,1.312,5.677c0.297,0.297,0.593,0.563,0.918,0.815
		c-0.815-1.675-1.236-3.541-1.236-5.483c0-6.372,4.488-12.077,12.691-12.077c1.853,0,3.496,0.296,4.965,0.815
		c-0.407-0.415-0.883-0.801-1.364-1.143c-1.37-0.428-2.903-0.682-4.593-0.682C291.192,19.042,286.693,24.75,286.693,31.118
		L286.693,31.118z"/>
	<path id="XMLID_19_" fill="#1A1A18" d="M315.138,23.592c1.802,2.046,2.861,4.577,2.861,7.526c0,8.418-8.598,13.516-18.613,13.516
		c-4.787,0-9.262-1.172-12.611-3.304c-0.267-0.121-0.555-0.224-0.813-0.342c3.459,2.994,8.704,4.639,14.417,4.639
		c10.019,0,18.604-5.082,18.604-13.5C318.981,28.675,317.538,25.785,315.138,23.592L315.138,23.592z"/>
	<path id="XMLID_18_" fill="#1A1A18" d="M335.802,24.466v7.675c0,1.896,0.303,3.913,1.09,5.676c0.251,0.222,0.518,0.415,0.83,0.593
		c-0.66-1.66-0.934-3.513-0.934-5.261v-7.676c0-3.394,0.398-5.29,4.645-5.571v-0.636c-1.185,0.044-2.312,0.088-3.438,0.132
		C336.031,20.184,335.802,21.886,335.802,24.466L335.802,24.466z"/>
	<path id="XMLID_17_" fill="#1A1A18" d="M359.089,19.398c-1.253,0.55-1.881,1.689-1.881,4.595v7.721
		c0,6.223-2.956,12.92-13.428,12.92c-3.467,0-6.2-0.947-8.252-2.399c-0.126-0.045-0.246-0.074-0.355-0.135
		c2.155,2.104,5.312,3.527,9.594,3.527c10.479,0,13.421-6.698,13.421-12.92V25c0-4.388,1.443-4.772,4.258-5.098v-0.636
		C361.237,19.31,360.192,19.383,359.089,19.398L359.089,19.398z"/>
	<path id="XMLID_16_" fill="#1A1A18" d="M377.901,19.754c-3.728,0.221-5.586,1.141-7.344,4.845l-0.293,2.327l0.635,0.161
		c1.816-4.549,3.512-5.866,7.002-6.237C377.901,20.436,377.901,20.08,377.901,19.754L377.901,19.754z"/>
	<path id="XMLID_15_" fill="#1A1A18" d="M386.593,19.679v15.944c0,1.587,0.052,2.98,0.34,4.15c0.252,0.119,0.535,0.222,0.852,0.283
		c-0.161-0.996-0.207-2.149-0.207-3.44V20.687c2.371,0,4.194,0.029,5.669,0.311c-0.261-0.386-0.534-0.696-0.815-0.978
		C390.925,19.708,389.054,19.679,386.593,19.679L386.593,19.679z"/>
	<path id="XMLID_14_" fill="#1A1A18" d="M398.819,18.153c-0.275,0.135-0.541,0.237-0.817,0.356l0.921,7.425l-0.127,0.029
		c0.163,0.357,0.317,0.724,0.473,1.125l0.645-0.161L398.819,18.153L398.819,18.153z"/>
	<path id="XMLID_13_" fill="#1A1A18" d="M420.28,19.354c-2.767,1.082-2.451,3.379-2.451,7.098v9.396c0,1.569,0,2.904,0.215,3.999
		c0.269,0.103,0.557,0.194,0.891,0.268c-0.098-0.949-0.104-2.046-0.104-3.261v-9.395c0-4.37-0.474-6.801,4.247-7.557v-0.636
		C422.099,19.295,421.188,19.337,420.28,19.354L420.28,19.354z"/>
	<path id="XMLID_12_" fill="#1A1A18" d="M422.299,43.997c-2.513-0.074-4.631-0.147-7.136-0.147c-1.697,0-3.209,0.044-4.778,0.088
		c-0.423,0.149-0.778,0.325-1.053,0.43v0.638c2.371-0.075,4.4-0.149,6.824-0.149c2.52,0,4.646,0.074,7.171,0.149v-0.638
		C423.068,44.279,422.697,44.146,422.299,43.997L422.299,43.997z"/>
	<path id="XMLID_11_" fill="#1A1A18" d="M441.857,19.844v8.179c0.422-0.015,0.741-0.015,0.741-0.015c0.098,0,0.164-0.015,0.26-0.015
		v-7.127c2.312-0.164,4.238-0.254,6.564-0.254c1.897,0,3.667,0.121,5.231,0.521c-0.259-0.371-0.585-0.697-0.92-0.993
		c-1.579-0.417-3.371-0.52-5.296-0.52C446.11,19.621,444.193,19.694,441.857,19.844L441.857,19.844z"/>
	<path id="XMLID_10_" fill="#1A1A18" d="M464.62,36.795c-0.526,0.534-1.037,1.052-1.533,1.527l-3.854,6.683
		c-0.657-0.757-2.658-1.155-3.792-1.155h-17.621c-1.214,0-2.275,0.029-3.394,0.073c-0.457,0.193-0.82,0.386-0.991,0.444v0.638
		c1.918-0.075,3.451-0.149,5.378-0.149h17.612c1.135,0,3.137,0.386,3.801,1.143l5.098-8.848L464.62,36.795L464.62,36.795z"/>
	<path id="XMLID_9_" fill="#1A1A18" d="M441.857,32.513v6.845c0.334,0.045,0.661,0.074,1.001,0.089v-5.926h2.816
		c1.341,0,2.474,0.029,3.438,0.146c-0.163-0.368-0.355-0.664-0.547-0.947c-1.062-0.163-2.321-0.207-3.884-0.207H441.857
		L441.857,32.513z"/>
	<path id="XMLID_8_" fill="#1A1A18" d="M458.894,18.584c0.251,2.118,0.938,5.409,1.162,6.593l-0.225,0.044
		c0.127,0.342,0.3,0.802,0.41,1.128l0.814-0.165c-0.303-1.541-1.356-6.505-1.237-8.032
		C459.538,18.317,459.232,18.449,458.894,18.584L458.894,18.584z"/>
	<path id="XMLID_7_" fill="#1A1A18" d="M454.174,27.134c-0.098,0.593-0.252,1.126-0.446,1.6c-0.029,0.991-0.059,2.001-0.059,2.993
		c0,1.794,0.082,3.586,0.098,5.365c0.072,0.223,0.168,0.444,0.236,0.696c0.251-0.119,0.503-0.252,0.74-0.388
		c-0.022-1.553-0.089-3.108-0.089-4.666c0-1.838,0.103-3.719,0.103-5.601H454.174L454.174,27.134z"/>
	<path id="XMLID_6_" fill="#1A1A18" d="M480.528,19.798c-0.104,2.505-0.202,5.008-0.202,7.958v0.015
		c0.35,0.044,0.676,0.103,0.994,0.118c0.023-2.563,0.104-4.831,0.2-7.083c1.475-0.355,3.104-0.43,4.743-0.43
		c0.887,0,1.746,0.119,2.568,0.326c-0.228-0.355-0.525-0.682-0.872-0.979c-0.845-0.236-1.757-0.354-2.69-0.354
		C483.632,19.369,482.009,19.458,480.528,19.798L480.528,19.798z"/>
	<path id="XMLID_5_" fill="#1A1A18" d="M485.685,32.734c-1.377-0.356-4.164-0.503-5.358-0.813v5.318c0,0.993,0.052,1.821,0.173,2.52
		c0.259,0.104,0.555,0.19,0.889,0.266c-0.044-0.532-0.067-1.11-0.067-1.777v-5.335c1.216,0.342,4.104,0.489,5.444,0.859
		C486.462,33.401,486.1,33.06,485.685,32.734L485.685,32.734z"/>
	<path id="XMLID_4_" fill="#1A1A18" d="M478.002,43.85c-1.735,0-3.447,0.044-5.144,0.088c-0.386,0.179-0.748,0.325-1.021,0.43v0.638
		c2.369-0.075,4.741-0.149,7.164-0.149c2.52,0,4.639,0.074,7.158,0.149v-0.638c-0.274-0.104-0.652-0.238-1.051-0.37
		C482.624,43.923,480.505,43.85,478.002,43.85L478.002,43.85z"/>
	<path id="XMLID_3_" fill="#1A1A18" d="M497.946,25.653c0,2.858-2.148,5.126-5.171,5.956c0.37,0.312,0.71,0.652,1.037,0.994
		c2.985-0.847,5.135-3.099,5.135-5.942c0-2.075-0.884-3.646-2.269-4.816C497.481,22.865,497.946,24.125,497.946,25.653
		L497.946,25.653z"/>
	<path id="XMLID_2_" fill="#1A1A18" d="M504.474,43.85h-8.002c-0.459-0.283-0.865-0.595-1.23-0.905
		c0.586,0.696,1.299,1.335,2.224,1.911H506v-0.473C505.407,44.323,504.957,44.07,504.474,43.85L504.474,43.85z"/>
</g>
</svg>
