<?xml version="1.0" encoding="utf-8"?>
<!-- Generator: Adobe Illustrator 16.0.3, SVG Export Plug-In . SVG Version: 6.00 Build 0)  -->
<!DOCTYPE svg PUBLIC "-//W3C//DTD SVG 1.1//EN" "http://www.w3.org/Graphics/SVG/1.1/DTD/svg11.dtd">
<svg version="1.1" id="Layer_1" xmlns="http://www.w3.org/2000/svg" xmlns:xlink="http://www.w3.org/1999/xlink" x="0px" y="0px"
	 width="512px" height="512px" viewBox="0 0 512 512" enable-background="new 0 0 512 512" xml:space="preserve">
<g>
	<path fill="#FFFFFF" d="M251.803,293.483c0.474-1.44,1.172-2.465,2.94-2.312c1.179,0.102,1.99-0.498,2.569-1.618
		c1.799-3.477,3.608-6.981,4.729-10.71c1.037-3.459,2.455-6.852,2.431-10.622c-0.023-3.717-0.438-7.322-1.239-10.952
		c-0.455-2.057-0.225-4.268-0.276-6.411c-0.077-3.366-0.162-6.732-0.191-10.098c-0.021-2.255-0.087-4.521,0.116-6.762
		c0.201-2.233,1.245-2.884,3.214-2.233c0.468,0.155,1.002,0.64,1.165,1.095c0.576,1.637,1.232,3.296,1.455,5
		c0.944,7.2,1.496,14.438,0.906,21.701c-0.267,3.244-0.843,6.461-1.257,9.694c-0.616,4.833-0.669,9.645,0.358,14.449
		c0.373,1.749,0.429,3.565,0.648,5.521c2.35-0.147,4.569-0.22,6.773-0.443c3.237-0.327,6.476-0.676,9.688-1.167
		c4.076-0.625,8.125-1.393,12.185-2.116c4.388-0.785,8.81-1.424,13.145-2.433c4.003-0.93,8.045-1.539,12.083-2.2
		c3.551-0.584,7.104-1.157,10.656-1.723c1.707-0.271,3.42-0.501,5.124-0.768c0.816-0.125,1.586-0.182,2.187,0.831
		c-1.638,0.855-3.322,1.509-5.059,1.743c-1.593,0.217-3.129,0.453-4.628,1.071c-0.768,0.316-1.669,0.295-2.501,0.454
		c-2.962,0.575-5.919,1.162-8.881,1.742c-0.283,0.056-0.692-0.032-0.842,0.133c-0.921,1.003-2.055,0.743-3.19,0.697
		c-0.455-0.02-1.062,0.114-1.354,0.416c-0.76,0.795-1.601,0.8-2.594,0.725c-1.254-0.094-2.62-0.352-3.597,0.954
		c-0.997-0.23-1.899-0.586-2.938,0.396c-0.687,0.648-2.037,0.601-3.099,0.845c-1.961,0.458-3.935,0.859-5.885,1.36
		c-1.511,0.388-3.036,0.623-4.576,0.836c-3.136,0.436-6.26,0.962-9.389,1.453c-3.489,0.547-6.981,1.075-10.466,1.653
		c-1.771,0.296-1.939,0.499-1.676,2.272c0.19,1.278,0.554,2.535,0.896,3.787c1.254,4.589,2.146,9.325,4.952,13.323
		c1.572,2.241,3.301,4.366,4.955,6.546c0.172,0.228,0.312,0.476,0.583,0.887c-0.586,0.53-1.1,1.143-1.746,1.545
		c-1.322,0.823-1.93,0.622-2.815-0.688c-0.487-0.717-1.003-1.412-1.512-2.114c-1.601-2.216-3.075-4.538-4.839-6.614
		c-2.017-2.375-3.753-4.968-6.674-6.586c-2.141-1.188-3.787-3.265-5.645-4.955c-0.744-0.675-1.463-1.381-2.412-2.278
		c-0.566,0.77-1.012,1.386-1.467,1.992c-2.248,3.011-4.262,6.236-6.805,8.971c-3.495,3.756-7.224,7.335-11.435,10.323
		c-4.558,3.228-9.098,6.484-13.767,9.546c-2.708,1.775-5.71,3.093-8.468,4.797c-2.857,1.764-6.008,2.812-9.071,4.084
		c-0.858,0.355-1.797,0.532-2.715,0.724c-2.831,0.591-5.654,1.216-8.507,1.679c-0.949,0.152-1.971-0.158-2.962-0.235
		c-0.426-0.031-0.854,0-1.283-0.015c-0.637-0.021-1.327,0.095-1.899-0.111c-2.208-0.802-4.623-1.218-6.255-3.177
		c-0.226-0.272-0.564-0.579-0.882-0.618c-1.721-0.208-2.482-1.61-3.424-2.736c-2.962-3.538-5.183-7.543-6.185-12.023
		c-0.521-2.327-0.618-4.88,0.542-7.24c1.133-2.306,2.725-4.174,5.199-4.929c2.046-0.625,4.199-0.961,6.328-1.234
		c1.015-0.131,2.147,1.215,2.501,2.407c1.128,3.801,0.702,7.42-1.32,10.808c-0.717,1.198-1.589,2.334-2.558,3.339
		c-0.375,0.388-1.213,0.332-1.908,0.491c-0.336-1.433,0.165-2.322,0.833-3.074c0.71-0.802,1.09-1.512,0.901-2.705
		c-0.184-1.155,0.23-2.4,0.339-3.611c0.053-0.615,0.01-1.24,0.01-1.83c-3.771-0.233-5.592,1.992-6.098,4.805
		c-0.124,0.667,0.045,1.403,0.155,2.102c0.189,1.203,0.339,2.426,0.685,3.588c0.279,0.938,0.7,1.89,1.274,2.676
		c1.397,1.916,2.545,4.006,4.4,5.6c2.26,1.941,4.747,2.952,7.735,3.327c5.754,0.722,10.985-0.699,16.109-3.054
		c1.749-0.804,3.647-1.301,5.342-2.193c4.23-2.229,8.532-4.374,12.53-6.975c4.712-3.066,9.311-6.367,13.634-9.955
		c3.712-3.081,7.255-6.433,10.077-10.438c1.329-1.886,2.84-3.641,4.23-5.489c1.514-2.015,1.492-2.187,0.008-4.374
		C251.987,293.876,251.904,293.677,251.803,293.483 M258.84,296.342c2.497,4.034,5.739,6.727,9.197,9.197
		c0.159-0.095,0.322-0.188,0.482-0.281c-0.81-3.484-1.618-6.967-2.422-10.426C263.419,293.939,261.438,295.601,258.84,296.342
		 M260.172,290.778c1.601-0.232,2.748-0.295,3.821-0.609c0.413-0.122,0.946-0.834,0.93-1.258c-0.068-1.866-0.315-3.727-0.497-5.589
		c-0.167-0.017-0.333-0.034-0.501-0.051C262.736,285.649,261.547,288.027,260.172,290.778"/>
</g>
<g>
	<path fill="#FFFFFF" d="M164.702,419.571c-0.885,1.656,0.357,3.973-2.235,4.68c-1.104-2.066-1.321-4.243-1.04-6.48
		c0.115-0.92,0.417-1.85,0.804-2.701c0.703-1.54,2.048-1.756,3.401-0.794c2.847,2.022,4.361,4.945,5.686,8.031
		c1.71,3.976,2.432,8.217,3.372,12.4c0.521,2.327,1.163,4.638,1.518,6.992c0.493,3.262,0.823,6.551,1.118,9.838
		c0.254,2.834,0.288,5.689,0.562,8.522c0.142,1.478,0.587,2.926,0.941,4.599c1.087-1.051,1.99-1.961,2.936-2.828
		c2.75-2.524,6.007-4.197,9.401-5.679c4.842-2.114,9.831-3.788,14.971-4.968c6.553-1.503,13.148-2.825,19.705-4.314
		c5.63-1.279,11.228-2.703,16.849-4.025c2.604-0.613,5.229-1.138,7.844-1.702c0.281-0.061,0.585-0.078,0.837-0.198
		c1.378-0.674,2.792-1.153,4.35-1.219c0.464-0.017,0.917-0.368,1.365-0.563c0.043-0.288,0.152-0.521,0.097-0.7
		c-1.012-3.194-0.469-6.266,0.678-9.305c0.228-0.603,0.262-1.273,0.468-1.887c0.815-2.421,1.937-4.452,4.848-4.958
		c3.137-0.543,6.187-0.453,9.274,0.264c2.619,0.61,4.137,2.569,5.664,4.462c0.786,0.975,1.295,2.219,1.731,3.413
		c0.548,1.491-0.187,2.812-1.289,3.653c-2.356,1.8-4.979,3.132-7.853,4.035c-2.599,0.813-5.09,1.975-7.743,3.024
		c0.994,2.366,3.013,3.345,4.841,4.366c3.812,2.129,8.022,2.504,12.34,2.754c3.82,0.22,7.449-0.543,11.162-0.979
		c4.499-0.525,8.749-1.931,12.862-3.664c3.746-1.578,7.013-4.044,9.489-7.297c1.021-1.339,1.472-3.129,2.104-4.741
		c0.394-1.003,0.604-2.075,0.97-3.09c0.333-0.923,1.098-1.473,2.032-1.237c0.846,0.215,1.619,0.871,1.533,1.876
		c-0.135,1.582-0.361,3.163-0.678,4.72c-0.923,4.536-0.596,9.023,1.422,13.126c2.381,4.843,6.881,6.654,12.022,6.928
		c2.588,0.139,5.207,0.124,7.784-0.11c2.645-0.243,5.258-0.829,7.882-1.274c1.071-0.182,2.161-0.302,3.2-0.6
		c3.672-1.052,7.328-2.159,10.984-3.258c1.449-0.438,2.886-0.916,4.328-1.378c1.172-0.375,2.361-0.727,3.025-1.717
		c-0.688-2.068-1.357-4.014-1.986-5.968c-1.089-3.387-0.999-6.894-0.375-10.279c0.495-2.692,1.867-5.194,4.047-7.049
		c1.526-1.301,5.641-1.013,7.074,0.522c2.076,2.218,3.168,4.86,3.549,7.919c0.534,4.298-1.062,7.752-3.697,10.911
		c-0.999,1.199-2.022,2.377-3.099,3.641c1.065,2.347,2.932,4.09,5.015,5.228c3.321,1.814,7.009,2.894,10.869,1.899
		c2.489-0.64,4.962-1.258,6.96-3.25c1.615-1.613,1.714-3.53,2.146-5.461c0.531-2.38-1.267-3.892-2.124-5.737
		c-0.757-1.627-1.853-3.094-2.636-4.71c-1.558-3.211-4.244-4.802-7.546-5.664c-0.654-0.17-1.275-0.573-1.844-0.966
		c-0.927-0.64-0.893-1.642-0.688-2.571c0.216-0.984,1.104-1.367,1.969-1.49c2.82-0.401,5.46,0.141,7.889,1.69
		c1.634,1.046,2.835,2.355,3.729,4.146c1.34,2.692,2.796,5.311,3.794,8.167c0.798,2.292,2.769,3.628,4.604,5.053
		c1.98,1.535,4.331,2.3,6.596,3.214c5.073,2.048,10.376,2.997,15.857,3.023c2.871,0.016,5.749,0.273,8.62,0.249
		c2.754-0.021,5.51-0.21,8.255-0.424c4.534-0.351,9.053-0.859,13.586-1.152c3.139-0.203,6.297-0.099,9.439-0.237
		c2.953-0.131,5.895-0.406,8.845-0.6c2.729-0.183,5.463-0.323,8.192-0.507c1.586-0.106,3.167-0.375,4.753-0.378
		c3.824-0.007,7.643,0.07,11.447-0.511c0.681-0.104,1.456,0.434,2.495,0.779c-1.425,1.085-2.705,1.243-3.989,1.381
		c-2.008,0.216-4.021,0.395-6.027,0.651c-2.625,0.337-5.26,1.114-7.855,0.986c-2.209-0.109-4.158,0.355-6.224,0.811
		c-1.07,0.237-2.298-0.342-3.43-0.249c-1.664,0.138-3.295,0.653-4.959,0.816c-5.405,0.522-10.819,0.941-16.228,1.433
		c-3.928,0.358-7.847,0.835-11.777,1.129c-2.074,0.152-4.169,0.061-6.255,0.015c-5.356-0.121-10.728-0.106-16.067-0.497
		c-2.688-0.198-5.342-1.082-7.972-1.801c-2.201-0.602-4.572-1.057-6.436-2.25c-1.469-0.942-2.997-1.147-4.582-1.727
		c-0.372,1.018-0.795,2.018-1.109,3.052c-1.056,3.479-3.692,5.296-6.897,6.349c-2.174,0.712-4.443,1.354-6.706,1.523
		c-3.505,0.262-6.927-0.528-10.068-2.143c-3.041-1.562-5.661-3.715-7.893-6.423c-0.766,0.445-1.442,0.826-2.104,1.23
		c-1.123,0.688-2.285,1.111-3.635,1.269c-1.073,0.126-2.067,0.835-3.124,1.206c-0.873,0.308-1.786,0.496-2.682,0.741
		c-0.697,0.191-1.468,0.256-2.077,0.605c-4.089,2.329-8.583,3.23-13.165,3.834c-2.355,0.31-4.746,0.431-7.071,0.893
		c-2.12,0.422-4.154-0.141-6.229-0.154c-2.246-0.013-4.438-0.651-6.496-1.47c-1.434-0.572-2.864-1.485-3.917-2.602
		c-2.228-2.366-3.981-5.09-4.826-8.309c-0.42-1.608-0.902-3.199-1.401-4.957c-0.288,0.213-0.573,0.368-0.78,0.591
		c-3.073,3.317-6.977,5.328-11.095,6.962c-2.145,0.854-4.313,1.746-6.553,2.233c-3.804,0.828-7.662,1.438-11.521,1.968
		c-2.137,0.296-4.334,0.441-6.483,0.312c-5.639-0.338-11.06-1.559-15.667-5.08c-1.734-1.33-3.738-2.443-4.498-4.623
		c-4.189,1.027-8.248,1.918-12.244,3.027c-5.927,1.648-11.931,2.921-17.948,4.163c-5.176,1.07-10.327,2.267-15.485,3.424
		c-3.171,0.71-6.395,1.259-9.487,2.226c-4.4,1.373-8.816,2.768-12.894,5.003c-0.758,0.414-1.557,0.756-2.302,1.189
		c-3.581,2.1-5.848,5.332-7.746,8.909c-0.832,1.567-0.282,3.153-0.103,4.674c0.288,2.429,0.861,4.833,1.455,7.211
		c0.661,2.649,1.522,5.248,2.221,7.888c0.861,3.247,1.8,6.454,3.284,9.485c0.604,1.235,0.072,2.047-1.3,2.317
		c-0.072,0.013-0.146,0.003-0.218,0.013c-0.841,0.106-1.948,0.601-2.469,0.242c-1.095-0.754-2.073-1.843-2.758-2.996
		c-1.249-2.106-2.43-4.293-3.304-6.574c-1.026-2.683-1.803-5.478-2.492-8.272c-0.965-3.919-0.196-7.72,0.981-11.508
		c0.368-1.185,0.399-2.635,0.086-3.831c-0.523-1.995-0.906-3.99-1.04-6.037c-0.194-2.95-0.01-5.972-0.608-8.832
		c-0.835-3.996-0.522-8.075-1.373-12.038c-0.181-0.847-0.528-1.661-0.715-2.506c-0.704-3.163-1.042-6.452-2.14-9.467
		c-1.241-3.406-1.633-7.191-4.048-10.132C165.377,420.147,165.147,419.981,164.702,419.571 M261.792,437.8
		c4.686-2.005,9.49-3.438,13.694-5.903c0.469-2.272-2.008-2.966-2.093-4.793c-0.006-0.127-0.481-0.247-0.746-0.347
		c-0.472-0.174-0.989-0.264-1.421-0.512c-1.847-1.055-3.767-0.912-5.664-0.285c-0.622,0.206-1.308,0.681-1.634,1.23
		c-0.773,1.291-1.376,2.69-1.999,4.065C260.995,433.324,261.013,435.429,261.792,437.8 M374,443.541
		c2.235-2.111,4.374-3.363,5.441-6.027c0.856-2.146,1.282-4.057,0.754-6.26c-0.783-3.258-1.813-4.245-5.366-4.785
		c-0.61,0.823-1.434,1.658-1.937,2.654C370.447,433.966,372.248,438.487,374,443.541"/>
	<path fill="#FFFFFF" d="M6,486.198c0.109-0.994-0.138-2.308,0.395-2.848c0.977-0.99,2.341-1.748,3.68-2.2
		c2.384-0.81,4.837-1.602,7.32-1.887c3.545-0.407,7.202-1.062,10.698,0.094c3.056,1.01,5.968,0.54,8.952-0.056
		c3.896-0.777,7.816-1.434,11.7-2.257c4.172-0.884,8.321-1.877,12.469-2.864c5.481-1.308,10.938-2.728,16.433-3.96
		c5.32-1.191,10.515-2.795,15.472-5.006c2.801-1.247,5.486-2.94,7.877-4.864c2.395-1.931,4.293-4.439,5.067-7.57
		c0.084-0.337,0.224-0.731,0.126-1.032c-0.803-2.448-1.323-4.95-2.625-7.283c-1.266-2.265-3.036-3.963-4.721-5.801
		c-0.91-0.99-1.941-1.898-2.678-3.003c-0.411-0.612-0.758-0.93-1.454-1.029c-0.329-0.045-0.702-0.269-0.916-0.525
		c-2.021-2.434-4.726-3.959-7.339-5.616c-3.523-2.234-6.991-4.564-10.534-6.766c-2.387-1.482-4.937-2.71-7.282-4.25
		c-1.701-1.118-3.424-2.247-4.809-3.823c-0.879-0.999-2.161-1.647-3.026-2.652c-1.196-1.393-1.947-3.23-3.3-4.404
		c-1.547-1.343-1.954-3.18-2.635-4.803c-1.38-3.299-2.343-6.764-2.391-10.451c-0.031-2.589,0.04-5.166,0.064-7.738
		c0.033-3.351,1.208-6.09,2.751-8.812c1.194-2.104,2.277-4.356,3.869-6.132c2.993-3.34,6.564-6.021,10.495-8.277
		c3.874-2.221,8.134-3.378,12.244-4.918c3.154-1.183,6.529-1.858,9.859-2.466c3.533-0.644,7.118-1.136,10.702-1.337
		c3.616-0.2,7.281-0.203,10.882,0.143c5.177,0.494,10.354,1.202,15.462,2.175c3.271,0.626,6.295,2.185,9.082,4.057
		c1.51,1.015,2.153,2.717,2.857,4.296c0.703,1.579,1.36,3.206,1.79,4.875c0.297,1.146,0.361,2.429,0.194,3.604
		c-0.256,1.819-0.51,1.913-2.828,2.228c-0.079-0.607-0.308-1.242-0.214-1.823c0.63-3.918-0.401-7.227-3.377-9.917
		c-1.404-1.269-2.747-2.574-4.76-2.831c-0.397-0.051-0.741-0.434-1.133-0.604c-0.785-0.342-1.562-0.802-2.385-0.93
		c-2.573-0.391-5.168-0.626-7.749-0.962c-5.102-0.669-10.225-0.986-15.367-0.864c-3.097,0.072-6.324-0.208-9.259,0.562
		c-5.094,1.335-10.313,2.206-15.278,4.121c-4.129,1.594-8.124,3.335-11.847,5.749c-3.542,2.297-6.229,5.361-8.633,8.755
		c-1.529,2.155-2.421,4.562-3.005,7.105c-0.339,1.47-0.701,2.939-0.947,4.427c-0.168,1.02-0.268,2.077-0.208,3.104
		c0.302,5.212,1.418,10.229,4.033,14.802c1.294,2.264,2.984,4.221,5.229,5.636c0.539,1.671,2.211,2.184,3.377,3.191
		c0.955,0.822,2.2,1.314,3.326,1.941c0.309,0.173,0.672,0.253,0.965,0.446c2.072,1.358,4.106,2.775,6.2,4.1
		c2.566,1.627,5.172,3.192,7.771,4.769c7.811,4.731,14.887,10.354,20.171,17.867c1.45,2.059,3.067,4.396,2.807,7.274
		c1.386,3.397,0.225,6.666-1.13,9.597c-1.046,2.263-2.816,4.371-5.124,5.742c-2.238,1.331-4.407,2.823-6.767,3.889
		c-2.822,1.276-5.783,2.265-8.738,3.211c-2.953,0.947-5.957,1.749-8.968,2.504c-3.981,0.998-7.993,1.88-11.989,2.828
		c-4.223,1.004-8.426,2.109-12.67,3.021c-4.456,0.954-8.947,1.754-13.432,2.579c-3.626,0.666-7.26,1.296-10.9,1.894
		c-2.425,0.399-4.866,0.7-7.297,1.068c-2.647,0.399-5.279,0.923-7.938,1.213C11.888,486.805,9.073,487.589,6,486.198"/>
</g>
<g>
	<path fill="#FFFFFF" d="M273.555,24.311c-0.428-0.761-0.808-1.433-1.31-2.323c0.867-0.436,1.904-0.721,2.587-1.376
		c0.585-0.561,0.765-1.545,1.141-2.376c-2.228-2.228-5.2-2.69-8-3.648c-2.444-0.835-4.956-0.804-7.432-1.138
		c-2.138-0.288-4.339-0.215-6.509-0.155c-4.182,0.114-8.368,0.238-12.539,0.533c-3.31,0.235-6.602,0.74-9.905,1.103
		c-1.656,0.183-3.32,0.287-4.976,0.479c-2.521,0.29-5.059,0.31-7.585,0.491c-1.559,0.11-3.083,0.67-4.642,0.922
		c-0.746,0.12-1.533-0.026-2.302-0.016c-0.345,0.005-0.768-0.012-1.023,0.167c-0.979,0.691-1.98,0.839-3.087,0.386
		c-0.193-0.079-0.495-0.197-0.615-0.111c-2.317,1.674-5.13,1.126-7.688,1.693c-2.321,0.512-4.72,0.683-7.081,1.013
		c-1.717,0.24-3.432,0.493-5.145,0.745c-4.007,0.588-8.005,1.229-12.018,1.758c-3.732,0.49-7.485,0.837-11.222,1.293
		c-2.723,0.333-5.435,0.764-8.158,1.102c-1.942,0.242-3.893,0.416-5.842,0.598c-3.243,0.302-6.485,0.618-9.734,0.852
		c-0.919,0.065-1.856-0.191-2.785-0.189c-0.531,0.002-1.069,0.208-1.592,0.358c-0.198,0.059-0.434,0.359-0.539,0.308
		c-1.302-0.61-2.375,0.29-3.542,0.427c-4.621,0.546-9.279,0.783-13.927,1.087c-0.598,0.04-1.258-0.08-1.81-0.311
		c-1.524-0.64-2.259-0.354-2.93,1.235c-0.098,0.231-0.34,0.478-0.572,0.564c-1.332,0.492-2.731,0.869-3.198,2.473
		c-1.992,0.947-2.379,3.039-3.222,4.74c-0.698,1.406-1.091,3.006-1.365,4.563c-0.461,2.64-0.776,5.309-1.049,7.976
		c-0.31,3.021-0.545,6.052-0.738,9.083c-0.27,4.195-0.2,8.39,0.299,12.565c0.593,4.953,1.077,9.929,1.957,14.833
		c1.499,8.361,1.952,16.821,2.778,25.247c0.308,3.138,0.566,6.311,0.424,9.448c-0.137,3.062,0.302,6.025,0.547,9.035
		c0.213,2.627-0.152,5.313,0.097,7.974c0.228,2.433,0.451,4.866,0.687,7.299c0.194,1.998,0.402,3.995,0.627,6.239
		c0.642-0.315,1.095-0.472,1.476-0.736c2.315-1.615,4.481-3.5,6.945-4.833c3.676-1.987,7.439-3.882,11.604-4.743
		c3.825-0.793,7.621-1.749,11.471-2.387c3.352-0.556,6.76-0.762,10.142-1.139c1.58-0.177,3.151-0.451,4.734-0.571
		c2.601-0.197,5.213-0.251,7.812-0.463c2.364-0.191,4.71-0.569,7.071-0.769c3.583-0.301,7.176-0.475,10.756-0.789
		c2.594-0.227,5.173-0.599,7.759-0.9c1.212-0.139,2.428-0.229,3.636-0.392c3.208-0.438,6.413-0.93,9.627-1.34
		c1.184-0.151,2.373-0.071,3.746,0.683c-1.614,0.863-2.892,1.672-4.549,1.571c-0.633-0.038-1.335,0.004-1.907,0.242
		c-0.938,0.39-1.868,0.502-2.864,0.629c-2.28,0.286-4.5,1.087-6.782,1.303c-2.768,0.265-5.457,1.361-8.302,0.86
		c-0.198-0.037-0.42,0.062-0.634,0.095c-2.746,0.446-5.497,0.875-8.241,1.34c-1.818,0.308-3.576,1.148-5.494,0.208
		c-0.453-0.222-1.24,0.233-1.872,0.379c-1.187,0.276-2.359,0.671-3.562,0.81c-5.443,0.628-10.897,1.164-16.344,1.774
		c-2.372,0.267-4.766,0.484-7.095,0.978c-5.162,1.095-10.308,2.209-15.229,4.273c-2.446,1.026-4.366,2.754-6.638,3.973
		c-0.702,0.378-1.403,0.755-2.095,1.15c-0.951,0.543-1.81,1.106-2.178,2.293c-0.223,0.717-0.809,1.362-1.344,1.936
		c-1.039,1.116-1.236,2.401-0.958,3.818c0.867,4.423,1.017,8.894,1.146,13.388c0.07,2.457,0.83,4.892,1.276,7.336
		c0.525,2.876,1.033,5.743,0.456,8.687c-0.296,1.525-1.308,2.333-2.603,2.856c-1.603,0.645-2.388,0.317-3.148-1.222
		c-1.527-3.09-3.222-6.114-4.475-9.314c-0.762-1.947-2.023-3.82-1.718-6.156c0.102-0.779-0.575-1.629-0.712-2.476
		c-0.539-3.332-1.598-6.552-1.874-9.952c-0.432-5.326-1.15-10.631-1.667-15.951c-0.166-1.71-0.048-3.445-0.122-5.167
		c-0.079-1.88-0.273-3.756-0.342-5.638c-0.206-5.562-0.357-11.13-0.563-16.693c-0.134-3.618-0.251-7.241-0.511-10.852
		c-0.251-3.491-0.087-6.99-0.522-10.487c-0.659-5.281-0.977-10.602-1.479-15.903c-0.298-3.158-0.67-6.311-1.014-9.465
		c-0.036-0.336-0.115-0.667-0.251-1.44c-0.501,0.681-0.863,1-1.005,1.397c-1.187,3.325-2.327,6.665-3.5,9.994
		c-0.144,0.404-0.419,0.76-0.613,1.15c-0.786,1.586-1.563,3.18-2.372,4.824c-1.012-0.714-0.826-1.809-0.312-2.771
		c1.225-2.287,1.218-4.86,1.869-7.276c0.242-0.902,0.517-1.797,0.807-2.688c1.022-3.145,2.136-6.265,3.062-9.44
		c0.463-1.585,0.599-3.265,0.871-4.904c0.059-0.356,0.044-0.723,0.094-1.082c0.215-1.567,0.914-2.473,1.925-2.51
		c1.142-0.046,2.577,1.365,2.622,2.751c0.098,3.069,0.697,6.102,0.841,9.142c0.274,5.85,1.618,11.55,2.032,17.361
		c0.334,4.669,0.421,9.355,0.64,14.031c0.046,1.009,0.241,2.01,0.275,3.018c0.2,5.984,0.337,11.97,0.566,17.953
		c0.204,5.392,0.431,10.785,0.773,16.169c0.311,4.895,0.729,9.785,1.214,14.665c0.373,3.734,0.846,7.443,0.932,11.213
		c0.046,2.038,1.034,4.051,1.585,6.079c0.226,0.831,0.412,1.671,0.627,2.504c0.126,0.486,0.121,1.163,0.441,1.414
		c1.211,0.95,1.503,2.207,1.366,3.687c0.989,0.22,1.35-0.126,1.343-0.953c-0.01-1.304,0.008-2.611-0.05-3.912
		c-0.141-3.088-0.297-6.175-0.49-9.259c-0.1-1.583-0.297-3.16-0.453-4.781c-0.76-0.463-2.067-0.07-2.132-1.459
		c-0.078-1.607-0.259-3.22,2.032-3.898c-0.189-2.32-0.383-4.601-0.556-6.883c-0.174-2.314-0.35-4.629-0.484-6.947
		c-0.28-4.758-0.565-9.52-0.772-14.283c-0.056-1.273,0.255-2.559,0.227-3.835c-0.028-1.255-0.416-2.504-0.403-3.755
		c0.042-4.009-0.234-7.985-0.827-11.95c-0.365-2.431-0.511-4.896-0.847-7.33c-0.424-3.081-0.938-6.148-1.419-9.219
		c-0.605-3.857-1.236-7.708-1.816-11.569c-0.438-2.93-1.174-5.875-1.137-8.803c0.062-4.905-0.471-9.819,0.259-14.734
		c0.379-2.545,0.045-5.188,0.236-7.772c0.159-2.149,0.478-4.31,0.97-6.407c0.738-3.158,1.567-6.278,3.044-9.236
		c1.096-2.197,2.504-3.882,4.71-4.8c2.39-0.996,4.658-2.388,7.307-2.637c2.233-0.211,4.472-0.352,6.709-0.46
		c2.002-0.098,4.014-0.017,6.006-0.187c1.939-0.168,3.85-0.634,5.786-0.826c3.533-0.351,7.075-0.59,10.612-0.89
		c1.363-0.117,2.726-0.258,4.084-0.415c4.743-0.543,9.494-1.035,14.224-1.67c5.6-0.75,11.177-1.661,16.773-2.441
		c3.083-0.426,6.197-0.651,9.277-1.1c3.94-0.576,7.852-1.329,11.791-1.92c2.054-0.307,4.141-0.387,6.205-0.646
		c2.151-0.271,4.286-0.683,6.437-0.942c5.16-0.626,10.322-1.214,15.486-1.789c3.959-0.439,7.917-0.918,11.888-1.227
		c5.987-0.465,11.972-0.755,17.989-0.142c3.387,0.346,6.789,0.479,10.075,1.435c2.551,0.744,5.041,1.523,7.343,3.033
		c1.608,1.052,2.305,2.57,3.201,3.992c0.55,0.873,0.16,2.189-0.694,2.744C277.894,22.143,276.308,24.155,273.555,24.311"/>
	<path fill="#FFFFFF" d="M326.104,166.061c-1.986,1.831-4.548,2.29-6.672,3.547c-1.423,0.841-2.983,1.083-4.512,1.523
		c-0.69,0.197-1.461,0.384-1.993,0.821c-1.186,0.979-2.247,1.626-4.003,1.426c-1.339-0.151-2.798,0.764-4.201,1.209
		c-2.441,0.777-4.836,1.791-7.334,2.266c-2.156,0.411-4.386,0.854-6.656,0.316c-0.92-0.217-1.96,0.127-2.914-0.007
		c-2.63-0.367-5.248-0.831-7.862-1.305c-0.624-0.112-1.245-0.354-1.821-0.63c-4.242-2.037-8.27-4.374-11.643-7.747
		c-1.332-1.331-2.931-2.394-4.592-3.728c-1.354,3.078-4.323,4.093-6.662,5.854c-1.873,1.409-4.099,1.616-6.354,1.432
		c-3.815-0.311-7.167-1.79-9.567-4.774c-1.363-1.694-2.646-3.581-3.02-5.88c-0.218-1.339-0.636-2.645-0.9-3.979
		c-0.521-2.642,0.097-5.198,1.079-7.579c0.546-1.324,1.687-2.473,2.757-3.493c2.97-2.826,6.639-4.533,10.354-6.137
		c1.747-0.755,3.487-0.358,5.032,0.38c1.983,0.945,3.57,2.438,4.5,4.536c1.369,3.081,2.511,6.181,1.352,9.825
		c2.658-0.417,3.681,1.024,4.206,3.187c0.756,3.129,2.638,5.62,4.938,7.744c2.711,2.504,5.772,4.492,9.233,5.902
		c1.507,0.611,2.8,1.725,4.491,1.979c4.428,0.667,8.801,0.737,13.289,0.08c5.005-0.733,9.846-2.028,14.755-3.124
		c3.562-0.794,6.76-2.449,10.209-3.444C323.031,165.846,324.463,165.373,326.104,166.061 M252.954,166.212
		c1.113-2.784,2.083-5.089,2.943-7.437c0.286-0.786,0.293-1.674,0.42-2.519c0.159-1.069,0.126-2.211,0.504-3.195
		c1.13-2.948,0.096-5.421-1.635-7.646c-1.124-1.444-2.772-2.538-4.694-2.187c-2.263,0.412-4.438,1.259-6.145,2.952
		c-0.615,0.61-1.136,1.354-1.843,1.823c-3.255,2.158-3.125,5.63-2.987,8.751c0.116,2.64,1.374,5.213,3.122,7.361
		c1.309,1.607,2.994,2.85,5.074,2.881C249.534,167.026,251.366,166.471,252.954,166.212 M258.176,161.68
		c1.655-1.216,2.448-2.653,1.296-4.901C258.988,158.606,258.583,160.143,258.176,161.68"/>
	<path fill="#FFFFFF" d="M427.03,149.899c-0.344,1.114-1.291,1.491-2.269,1.766c-1.766,0.494-3.402,1.184-4.875,2.327
		c-0.717,0.555-1.7,0.752-2.528,1.179c-0.746,0.386-1.443,0.863-2.16,1.305c-0.185,0.113-0.352,0.344-0.532,0.351
		c-2.179,0.085-3.632,1.8-5.543,2.446c-3.184,1.081-6.407,2.042-9.597,3.106c-3.49,1.162-6.927,2.487-10.447,3.544
		c-2.941,0.884-5.971,1.483-8.962,2.208c-1.609,0.391-3.209,0.846-4.836,1.154c-2.48,0.47-4.968,0.96-7.473,1.218
		c-4.365,0.449-8.771,0.769-13-0.803c-3.534-1.316-6.561-3.263-9.049-6.309c-3.19-3.907-3.559-8.438-3.204-12.912
		c0.524-6.621,6.284-9.634,12.126-8.667c0.74,0.122,2.428,1.982,2.201,2.671c-0.241,0.74-0.841,1.586-1.513,1.908
		c-1.078,0.514-2.332,0.689-3.53,0.908c-2.655,0.486-4.263,1.843-4.521,4.465c-0.311,3.109-0.253,6.264,1.753,8.938
		c2.062,2.755,4.753,4.531,8.222,5.081c1.751,0.277,3.486,0.537,5.271,0.641c4.904,0.287,9.653-0.603,14.363-1.696
		c4.77-1.107,9.487-2.446,14.208-3.759c2.991-0.833,5.963-1.749,8.91-2.726c3.839-1.272,7.641-2.655,11.466-3.963
		c0.885-0.303,1.843-0.409,2.703-0.758c3.047-1.232,6.068-2.519,9.089-3.812C424.577,149.17,426.144,149.215,427.03,149.899"/>
</g>
</svg>
