<?xml version="1.0" standalone="no"?>
<!DOCTYPE svg PUBLIC "-//W3C//DTD SVG 1.1//EN" "http://www.w3.org/Graphics/SVG/1.1/DTD/svg11.dtd" >
<svg xmlns="http://www.w3.org/2000/svg" xmlns:xlink="http://www.w3.org/1999/xlink" version="1.1">
<metadata>
Created by FontForge 20160407 at Tue May 31 12:17:39 2016
 By Jimmy Wärting
Copyright 2006, 2009 for TeX Gyre extensions by B. Jackowski and J.M. Nowacki (on behalf of TeX users groups). This work is released under the GUST Font License --  see http://tug.org/fonts/licenses/GUST-FONT-LICENSE.txt for details.
</metadata>
<defs>
<font id="TeXGyreSchola-Italic" horiz-adv-x="333" >
  <font-face 
    font-family="TeXGyreSchola"
    font-weight="400"
    font-style="italic"
    font-stretch="normal"
    units-per-em="1000"
    panose-1="0 0 5 0 0 0 0 0 0 0"
    ascent="798"
    descent="-202"
    x-height="470"
    cap-height="722"
    bbox="-541 -320 1367 1130"
    underline-thickness="42"
    underline-position="-102"
    slope="-15"
    stemh="47"
    stemv="86"
    unicode-range="U+0020-FB04"
  />
<missing-glyph horiz-adv-x="280" 
 />
    <glyph glyph-name="I_J" unicode="IJ" horiz-adv-x="930" 
d="M389 0h-310l5 47c59 1 72 3 84 14c9 9 10 12 23 62l128 476c7 27 10 41 10 49c0 22 -14 27 -80 27h-22l6 47h310l-5 -47c-58 -1 -72 -3 -84 -14c-9 -9 -9 -10 -23 -62l-128 -476c-9 -34 -10 -39 -10 -48c0 -23 14 -28 80 -28h22zM1070 675h-18c-42 0 -53 -4 -63 -14
c-8 -8 -9 -8 -23 -62l-109 -407c-38 -142 -116 -207 -250 -207c-120 0 -191 58 -191 158c0 81 53 145 121 145c47 0 79 -29 79 -71c0 -41 -27 -70 -66 -70c-20 0 -36 17 -60 17c-15 0 -26 -14 -26 -32c0 -59 53 -104 122 -104c84 0 129 52 166 191l102 380c6 24 10 41 10 49
c0 22 -14 27 -79 27h-30l6 47h314z" />
    <glyph glyph-name="i_j" unicode="ij" horiz-adv-x="649" 
d="M405 140c-28 -43 -44 -65 -62 -85c-40 -46 -81 -69 -124 -69c-39 0 -69 27 -69 62c0 22 4 38 22 101l58 195c6 22 9 35 9 44c0 22 -16 31 -57 31h-24l4 36l192 15l-106 -357c-8 -28 -12 -46 -12 -56c0 -12 7 -21 17 -21c27 0 71 44 121 121zM393 610
c0 -27 -22 -49 -49 -49s-49 22 -49 49s22 49 49 49s49 -22 49 -49zM735 470l-119 -400c-43 -145 -51 -165 -81 -202c-39 -45 -90 -70 -143 -70c-62 0 -102 31 -102 80c0 35 23 60 56 60c28 0 48 -19 48 -47c0 -10 -1 -14 -8 -27c-3 -5 -5 -10 -5 -14c0 -9 10 -18 21 -18
c44 0 80 54 108 163c10 41 20 78 25 92l76 257c7 23 9 35 9 43c0 23 -16 32 -57 32h-35l4 36zM773 610c0 -27 -22 -49 -49 -49s-49 22 -49 49s22 49 49 49s49 -22 49 -49z" />
    <glyph glyph-name="f_k" unicode="fk" horiz-adv-x="849" 
d="M761 134c-62 -104 -112 -149 -167 -149c-50 0 -74 33 -74 100l1 49v37c0 18 -5 27 -16 27c0 0 -2 0 -20 -2c-7 -1 -14 -1 -14 -1c-12 0 -22 10 -22 22c0 17 11 27 31 27c8 0 20 -2 27 -5c6 -2 13 -3 13 -3c7 0 20 5 42 16c68 34 97 66 97 107c0 29 -20 51 -46 51
c-38 0 -90 -36 -134 -92c-32 -41 -70 -121 -90 -188l-38 -130h-87l177 599c-7 -4 -16 -6 -25 -6c-29 0 -52 20 -52 45c0 9 2 17 9 28c6 10 7 14 7 18c0 10 -11 17 -24 17c-37 0 -64 -27 -88 -86c-20 -47 -25 -65 -49 -160h129l-14 -47h-126l-62 -247
c-23 -92 -81 -283 -104 -345l-110 -18c62 138 113 289 148 436l41 174h-89l13 47h87c25 92 41 134 70 181c39 65 94 100 157 100c20 0 39 -4 55 -11l155 12l-124 -418c68 105 128 151 197 151c55 0 98 -40 98 -91c0 -67 -65 -125 -183 -167c32 -26 43 -52 48 -122
c3 -40 7 -49 21 -49c24 0 47 25 104 113z" />
    <glyph glyph-name="f_f" unicode="ff" horiz-adv-x="686" 
d="M759 646c0 -30 -23 -53 -54 -53c-29 0 -52 20 -52 45c0 9 2 17 9 28c6 10 7 14 7 18c0 10 -11 17 -24 17c-37 0 -64 -27 -88 -86c-20 -47 -25 -65 -49 -160h129l-14 -47h-126l-62 -247c-23 -92 -81 -283 -104 -345l-110 -18c62 138 113 289 148 436l41 174h-202l-62 -247
c-23 -92 -81 -283 -104 -345l-110 -18c62 138 113 289 148 436l41 174h-89l13 47h87c25 92 41 134 70 181c39 65 94 100 157 100c64 0 111 -38 111 -90c0 -30 -23 -53 -54 -53c-29 0 -52 20 -52 45c0 9 2 17 9 28c6 10 7 14 7 18c0 10 -11 17 -24 17c-37 0 -64 -27 -88 -86
c-20 -47 -25 -65 -49 -160h202c25 92 41 134 70 181c39 65 94 100 157 100c64 0 111 -38 111 -90z" />
    <glyph glyph-name="f_i" unicode="fi" horiz-adv-x="611" 
d="M564 140c-59 -100 -124 -154 -187 -154c-38 0 -68 27 -68 63c0 22 2 32 23 100l54 184c12 43 12 43 12 52c0 17 -14 23 -56 23h-126l-62 -247c-21 -85 -81 -284 -104 -345l-110 -18c54 114 108 273 148 436l41 174h-89l13 47h87c36 120 43 134 77 181
c49 67 114 100 198 100c73 0 124 -35 124 -86c0 -32 -24 -57 -56 -57c-30 0 -53 20 -53 45c0 24 16 35 16 46s-13 18 -36 18c-56 0 -97 -28 -127 -87c-21 -40 -32 -72 -56 -160h90c64 0 106 3 196 14l-106 -356c-9 -33 -12 -45 -12 -56c0 -12 7 -21 17 -21
c27 0 74 47 122 122z" />
    <glyph glyph-name="f_l" unicode="fl" horiz-adv-x="611" 
d="M568 140c-60 -102 -124 -155 -187 -155c-40 0 -65 27 -65 70c0 30 4 51 27 128l124 418c-15 8 -23 22 -23 37c0 11 16 37 16 47c0 11 -14 16 -43 16c-62 0 -103 -27 -134 -86c-20 -40 -32 -73 -56 -160h143l-13 -47h-141l-62 -247c-21 -85 -81 -284 -104 -345l-110 -18
c55 117 108 274 148 436l41 174h-89l13 47h87c37 121 42 133 78 181c51 70 112 100 202 100c26 0 42 -2 65 -7l109 7l-185 -623c-13 -44 -13 -45 -13 -57c0 -11 7 -20 18 -20c28 0 75 47 123 122z" />
    <glyph glyph-name="f_f_i" unicode="&#xfb00;i" horiz-adv-x="904" 
d="M843 140c-59 -100 -124 -154 -187 -154c-38 0 -68 27 -68 63c0 22 2 32 23 100l54 184c12 43 12 43 12 52c0 17 -14 23 -56 23h-126l-62 -247c-21 -85 -81 -284 -104 -345l-110 -18c54 114 108 273 148 436l41 174h-200l-62 -247c-23 -92 -81 -283 -104 -345l-110 -18
c62 138 113 289 148 436l41 174h-89l13 47h87c25 92 41 134 70 181c39 65 94 100 157 100c64 0 111 -38 111 -90c0 -30 -23 -53 -54 -53c-29 0 -52 20 -52 45c0 9 2 17 9 28c6 10 7 14 7 18c0 10 -11 17 -24 17c-37 0 -64 -27 -88 -86c-20 -47 -25 -65 -49 -160h200
c36 120 43 134 77 181c49 67 114 100 198 100c73 0 124 -35 124 -86c0 -32 -24 -57 -56 -57c-30 0 -53 20 -53 45c0 24 16 35 16 46s-13 18 -36 18c-56 0 -97 -28 -127 -87c-21 -40 -32 -72 -56 -160h90c64 0 106 3 196 14l-106 -356c-9 -33 -12 -45 -12 -56
c0 -12 7 -21 17 -21c27 0 74 47 122 122z" />
    <glyph glyph-name="f_f_l" unicode="ffl" horiz-adv-x="904" 
d="M837 140c-60 -102 -124 -155 -187 -155c-40 0 -65 27 -65 70c0 30 4 51 27 128l124 418c-15 8 -23 22 -23 37c0 11 16 37 16 47c0 11 -14 16 -43 16c-62 0 -103 -27 -134 -86c-20 -40 -32 -73 -56 -160h143l-13 -47h-141l-62 -247c-21 -85 -81 -284 -104 -345l-110 -18
c55 117 108 274 148 436l41 174h-190l-62 -247c-23 -92 -81 -283 -104 -345l-110 -18c62 138 113 289 148 436l41 174h-89l13 47h87c25 92 41 134 70 181c39 65 94 100 157 100c64 0 111 -38 111 -90c0 -30 -23 -53 -54 -53c-29 0 -52 20 -52 45c0 9 2 17 9 28
c6 10 7 14 7 18c0 10 -11 17 -24 17c-37 0 -64 -27 -88 -86c-20 -47 -25 -65 -49 -160h190c37 121 42 133 78 181c51 70 112 100 202 100c26 0 42 -2 65 -7l109 7l-185 -623c-13 -44 -13 -45 -13 -57c0 -11 7 -20 18 -20c28 0 75 47 123 122z" />
    <glyph glyph-name=".notdef" horiz-adv-x="280" 
 />
    <glyph glyph-name="space" unicode=" " horiz-adv-x="278" 
 />
    <glyph glyph-name="exclam" unicode="!" 
d="M316 679c0 -30 -1 -32 -50 -136c-48 -106 -81 -199 -126 -361l-36 10c49 184 70 302 79 434c5 70 33 111 74 111c35 0 59 -24 59 -58zM154 47c0 -35 -28 -62 -63 -62c-33 0 -61 28 -61 62s28 62 62 62s62 -28 62 -62z" />
    <glyph glyph-name="quotedbl" unicode="&#x22;" horiz-adv-x="400" 
d="M243 689c0 -9 -4 -19 -13 -32l-110 -147l-20 10l56 175c8 26 20 37 42 37c24 0 45 -20 45 -43zM395 689c0 -9 -4 -20 -13 -32l-110 -147l-20 10l56 175c8 26 20 37 42 37c24 0 45 -20 45 -43z" />
    <glyph glyph-name="numbersign" unicode="#" horiz-adv-x="556" 
d="M497 220h-110l-32 -220h-65l32 220h-123l-32 -220h-65l32 220h-101v56h109l21 148h-103v56h111l30 206h65l-30 -206h123l30 206h65l-30 -206h100v-56h-108l-21 -148h102v-56zM330 276l21 148h-123l-21 -148h123z" />
    <glyph glyph-name="dollar" unicode="$" horiz-adv-x="556" 
d="M473 199c0 -78 -47 -146 -128 -185c-41 -19 -76 -27 -134 -28h-7l-33 -121h-43l34 124c-95 16 -159 78 -159 154c0 54 32 91 77 91c36 0 62 -24 62 -59c0 -28 -17 -48 -49 -57c-16 -4 -20 -8 -20 -18c0 -28 46 -60 99 -70l74 274l-6 3l-6 2c-84 35 -131 98 -131 176
c0 116 106 208 240 208h7l27 99h43l-28 -103c88 -16 144 -74 144 -148c0 -48 -26 -77 -67 -77c-33 0 -58 23 -58 54c0 25 10 40 34 52c13 7 17 12 17 21c0 22 -35 46 -81 56l-70 -259c42 -17 45 -18 66 -31c65 -42 96 -93 96 -158zM273 404l66 247
c-97 -1 -156 -50 -156 -129c0 -51 33 -96 85 -116zM385 163c0 59 -33 98 -87 120c-4 2 -9 4 -13 5l-70 -262c27 1 46 4 67 10c62 19 103 70 103 127z" />
    <glyph glyph-name="percent" unicode="%" horiz-adv-x="833" 
d="M651 722l-414 -722h-50l362 635c-39 -22 -63 -30 -97 -30c-21 0 -38 3 -65 12c3 -17 4 -25 4 -36c0 -125 -105 -260 -217 -260c-74 0 -128 52 -128 124c0 116 115 263 233 263c40 0 65 -13 91 -47c30 -17 48 -22 73 -22c64 0 122 29 162 83h46zM357 587c0 15 -2 26 -6 43
c-29 11 -44 20 -64 43c-43 -15 -56 -27 -95 -95c-46 -81 -62 -122 -62 -159c0 -36 24 -62 59 -62c81 0 168 118 168 230zM792 282c0 -108 -93 -267 -217 -267c-75 0 -130 51 -130 121c0 121 112 265 230 265c68 0 117 -50 117 -119zM757 280c0 47 -29 84 -65 84
c-32 0 -60 -23 -91 -74c-53 -86 -74 -140 -74 -179c0 -33 26 -60 59 -60c82 0 171 119 171 229z" />
    <glyph glyph-name="ampersand" unicode="&#x26;" horiz-adv-x="852" 
d="M753 125c-61 -96 -124 -140 -201 -140c-53 0 -90 16 -130 58c-72 -40 -134 -58 -200 -58c-119 0 -198 74 -198 185c0 105 58 177 239 254c-6 45 -8 66 -8 93c0 133 74 220 187 220c90 0 152 -53 152 -131c0 -88 -55 -142 -222 -190c28 -118 67 -217 106 -270
c68 63 110 124 110 159c0 30 -19 49 -64 49h-17l6 43h260l-5 -43c-67 -7 -89 -27 -161 -130c-35 -50 -61 -80 -100 -116c33 -38 58 -52 91 -52c45 0 73 21 121 90zM523 609c0 47 -34 82 -79 82c-55 0 -90 -49 -90 -126c0 -31 2 -53 10 -106c93 31 159 83 159 150zM392 80
c-57 91 -93 180 -121 299c-92 -46 -132 -105 -132 -183c0 -76 47 -155 135 -155c39 0 75 12 118 39z" />
    <glyph glyph-name="quotesingle" unicode="'" horiz-adv-x="278" 
d="M262 691c0 -10 -5 -22 -14 -34l-114 -147l-20 10l58 175c8 26 21 37 43 37c25 0 47 -20 47 -41z" />
    <glyph glyph-name="parenleft" unicode="(" 
d="M399 713c-84 -44 -128 -84 -167 -150c-69 -119 -113 -289 -113 -441c0 -88 14 -144 58 -230l-21 -15c-78 97 -116 208 -116 336c0 227 147 448 349 523z" />
    <glyph glyph-name="parenright" unicode=")" 
d="M265 400c0 -226 -147 -447 -348 -523l-10 23c84 45 128 84 166 150c70 120 113 289 113 442c0 87 -14 143 -57 229l21 15c77 -96 115 -207 115 -336z" />
    <glyph glyph-name="asterisk" unicode="*" horiz-adv-x="500" 
d="M407 373c0 -24 -17 -41 -41 -41c-22 0 -37 12 -47 39c-16 45 -20 52 -47 80l-23 24l-9 -33c-4 -14 -6 -28 -6 -41c0 -11 2 -28 5 -51c1 -8 2 -14 2 -19c0 -24 -20 -45 -44 -45c-22 0 -40 20 -40 44c0 13 4 22 17 37c31 38 35 45 45 81l9 32l-33 -8
c-30 -9 -43 -17 -80 -46c-16 -13 -24 -17 -37 -17c-24 0 -44 18 -44 41s21 44 45 44c5 0 11 -1 19 -2c23 -4 39 -6 49 -6c13 0 27 2 43 6l32 9l-23 24c-24 22 -36 30 -81 46c-27 11 -39 25 -39 47c0 23 17 41 41 41c22 0 37 -12 47 -39c17 -47 21 -54 47 -80l23 -24l9 33
c4 14 6 29 6 42c0 10 -2 30 -5 50c-1 8 -2 15 -2 20c0 23 21 44 44 44c22 0 40 -20 40 -44c0 -13 -4 -22 -17 -37c-31 -36 -35 -43 -45 -81l-9 -32l33 8c31 9 44 17 80 46c16 13 24 17 37 17c24 0 44 -18 44 -41s-22 -44 -45 -44c-5 0 -11 1 -19 2c-28 6 -37 7 -47 7
c-11 0 -27 -3 -45 -7l-32 -9l24 -24c22 -22 36 -30 79 -46c28 -11 40 -25 40 -47z" />
    <glyph glyph-name="plus" unicode="+" horiz-adv-x="606" 
d="M561 210h-223v-223h-80v223h-223v80h223v223h80v-223h223v-80z" />
    <glyph glyph-name="comma" unicode="," horiz-adv-x="278" 
d="M151 29c0 -77 -69 -154 -177 -196l-13 31c74 34 118 80 127 131c-7 -1 -13 -1 -17 -1c-34 0 -56 21 -56 53c0 35 30 62 67 62c40 0 69 -34 69 -80z" />
    <glyph glyph-name="hyphen" unicode="-" 
d="M237 195h-205l22 83h205z" />
    <glyph glyph-name="period" unicode="." horiz-adv-x="278" 
d="M141 47c0 -35 -28 -62 -63 -62c-33 0 -61 28 -61 62s28 62 62 62s62 -28 62 -62z" />
    <glyph glyph-name="slash" unicode="/" horiz-adv-x="606" 
d="M466 722l-268 -830h-58l268 830h58z" />
    <glyph glyph-name="zero" unicode="0" horiz-adv-x="556" 
d="M527 454c0 -247 -153 -469 -324 -469c-102 0 -174 102 -174 247c0 235 145 472 322 472c105 0 176 -101 176 -250zM430 531c0 87 -28 133 -81 133c-132 0 -225 -325 -225 -506c0 -85 31 -133 84 -133c152 0 222 387 222 506z" />
    <glyph glyph-name="one" unicode="1" horiz-adv-x="556" 
d="M420 0h-370l5 47h43c50 0 73 4 84 14c8 8 9 9 23 62l107 400c10 36 10 36 10 45c0 18 -7 20 -68 20h-69l12 44c72 0 179 35 233 76h29l-157 -585c-9 -41 -9 -41 -9 -49c0 -22 14 -27 79 -27h54z" />
    <glyph glyph-name="two" unicode="2" horiz-adv-x="556" 
d="M471 193l-77 -193h-429c9 56 49 99 315 329c90 78 123 133 123 208c0 70 -47 117 -117 117c-67 0 -142 -48 -142 -91c0 -12 5 -17 28 -29c33 -18 46 -35 46 -61c0 -36 -28 -64 -65 -64c-47 0 -77 36 -77 92c0 109 111 203 239 203c115 0 193 -71 193 -175
c0 -79 -33 -138 -113 -200c-26 -20 -33 -24 -169 -119c-81 -57 -124 -94 -148 -125h232c49 0 62 11 99 76l26 46z" />
    <glyph glyph-name="three" unicode="3" horiz-adv-x="556" 
d="M458 220c0 -134 -115 -235 -266 -235c-120 0 -194 61 -194 158c0 52 28 86 71 86c35 0 64 -28 64 -62c0 -27 -12 -45 -41 -58c-16 -7 -20 -11 -20 -22c0 -32 49 -60 104 -60c110 0 174 94 174 212c0 62 -32 104 -79 104c-15 0 -44 -6 -58 -6c-18 0 -29 10 -29 26
c0 18 13 28 34 28c0 0 11 -4 58 -4c66 0 130 85 130 173c0 62 -40 99 -107 99c-47 0 -97 -25 -97 -49c0 -13 35 -42 35 -68c0 -33 -24 -57 -57 -57c-37 0 -63 28 -63 69c0 81 92 150 201 150c111 0 188 -65 188 -159c0 -78 -49 -140 -132 -170c-10 -3 -23 -7 -34 -11
c80 -26 118 -74 118 -144z" />
    <glyph glyph-name="four" unicode="4" horiz-adv-x="556" 
d="M438 0h-311l6 47h18c49 0 73 4 84 14c8 7 8 9 23 62l16 61h-282v42l466 482h54l-126 -470h114l-14 -54h-114l-17 -61c-7 -25 -10 -41 -10 -49c0 -22 14 -27 80 -27h18zM289 238l85 318l-309 -318h224z" />
    <glyph glyph-name="five" unicode="5" horiz-adv-x="556" 
d="M480 274c0 -159 -132 -289 -293 -289c-106 0 -183 64 -183 152c0 48 33 85 77 85c35 0 60 -24 60 -56c0 -21 -9 -39 -26 -51c5 4 -38 -17 -38 -28c0 -33 49 -61 107 -61c103 0 187 106 187 236c0 83 -42 129 -116 129c-39 0 -72 -12 -103 -36c-3 -37 -18 -56 -44 -56
c-20 0 -36 15 -36 34s9 30 40 50l91 321c72 -19 146 -29 205 -29c40 0 74 8 114 25c6 3 10 4 10 4c4 0 8 -6 8 -12c0 -47 -84 -106 -185 -106c-35 0 -77 5 -131 16l-56 -189c50 24 82 33 126 33c109 0 186 -72 186 -172z" />
    <glyph glyph-name="six" unicode="6" horiz-adv-x="556" 
d="M492 256c0 -145 -111 -271 -261 -271c-122 0 -195 89 -195 236c0 220 160 483 358 483c89 0 153 -50 153 -118c0 -45 -28 -75 -69 -75c-34 0 -58 22 -58 54c0 21 22 58 22 68c0 19 -20 31 -50 31c-110 0 -198 -148 -234 -329c41 63 95 94 165 94c100 0 169 -71 169 -173z
M387 250c0 77 -35 121 -97 121c-92 0 -161 -94 -161 -218c0 -80 38 -127 102 -127c88 0 156 97 156 224z" />
    <glyph glyph-name="seven" unicode="7" horiz-adv-x="556" 
d="M561 674l-94 -146c-139 -225 -169 -290 -219 -478c-13 -47 -32 -65 -68 -65s-58 22 -58 58c0 35 18 79 62 150c49 80 49 80 177 260l109 156h-169c-105 0 -123 -9 -171 -88l-24 -40l-37 12l97 211l25 -1l101 -6c36 -2 68 -3 95 -3c55 0 122 4 174 10v-30z" />
    <glyph glyph-name="eight" unicode="8" horiz-adv-x="556" 
d="M480 209c0 -130 -111 -224 -264 -224c-128 0 -208 61 -208 157c0 91 63 164 181 209c-54 39 -75 78 -75 139c0 120 100 214 229 214c107 0 184 -65 184 -156c0 -81 -39 -125 -151 -178c82 -53 104 -98 104 -161zM452 554c0 62 -49 107 -117 107c-78 0 -141 -55 -141 -123
c0 -57 38 -96 139 -145c69 24 119 92 119 161zM393 164c0 71 -52 106 -166 160c-84 -38 -138 -90 -138 -170c0 -77 53 -125 138 -125c94 0 166 59 166 135z" />
    <glyph glyph-name="nine" unicode="9" horiz-adv-x="556" 
d="M519 454c0 -209 -158 -469 -359 -469c-89 0 -153 49 -153 117c0 43 28 74 68 74c34 0 60 -25 60 -58c0 -21 -25 -52 -25 -61c0 -18 19 -30 50 -30c101 0 189 112 233 315c-46 -58 -97 -85 -163 -85c-96 0 -170 72 -170 167c0 136 109 280 260 280c124 0 199 -94 199 -250
zM424 531c0 80 -41 131 -105 131c-89 0 -153 -109 -153 -228c0 -75 35 -118 98 -118c92 0 160 91 160 215z" />
    <glyph glyph-name="colon" unicode=":" horiz-adv-x="278" 
d="M166 47c0 -35 -28 -62 -63 -62c-33 0 -61 28 -61 62s28 62 62 62s62 -28 62 -62zM254 401c0 -35 -28 -62 -63 -62c-33 0 -61 28 -61 62s28 62 62 62s62 -28 62 -62z" />
    <glyph glyph-name="semicolon" unicode=";" horiz-adv-x="278" 
d="M176 29c0 -77 -68 -153 -177 -196l-13 32c75 34 118 78 127 130c-7 -1 -13 -1 -17 -1c-34 0 -56 21 -56 53c0 35 30 62 67 62c40 0 69 -34 69 -80zM261 401c0 -35 -28 -62 -63 -62c-33 0 -61 28 -61 62s28 62 62 62s62 -28 62 -62z" />
    <glyph glyph-name="less" unicode="&#x3c;" horiz-adv-x="606" 
d="M521 -15l-464 229v72l464 229v-90l-356 -175l356 -175v-90z" />
    <glyph glyph-name="equal" unicode="=" horiz-adv-x="606" 
d="M561 300h-526v80h526v-80zM561 120h-526v80h526v-80z" />
    <glyph glyph-name="greater" unicode="&#x3e;" horiz-adv-x="606" 
d="M521 214l-464 -229v90l356 175l-356 175v90l464 -229v-72z" />
    <glyph glyph-name="question" unicode="?" horiz-adv-x="444" 
d="M417 598c0 -85 -39 -131 -183 -224c-48 -31 -67 -57 -67 -88c0 -30 17 -49 45 -49c41 0 61 20 78 73l36 -6c-12 -63 -58 -105 -115 -105c-56 0 -94 40 -94 100c0 71 42 128 159 218c57 44 78 74 78 112s-33 67 -75 67c-74 0 -127 -49 -127 -170h-38c-1 11 -1 18 -1 24
c0 109 70 187 168 187c80 0 136 -57 136 -139zM226 47c0 -35 -28 -62 -63 -62c-33 0 -61 28 -61 62s28 62 62 62s62 -28 62 -62z" />
    <glyph glyph-name="at" unicode="@" horiz-adv-x="747" 
d="M702 188c-47 -109 -169 -202 -309 -202c-206 0 -365 161 -365 370c0 217 161 380 365 380c185 0 335 -135 335 -301c0 -143 -124 -288 -247 -288c-41 0 -69 26 -69 65c0 7 0 12 1 20c-39 -58 -68 -79 -108 -79c-68 0 -125 60 -125 149c0 121 101 241 201 241
c38 0 66 -24 78 -65l16 56h88l-73 -289c-3 -12 -4 -22 -4 -30c0 -14 11 -24 27 -24c67 0 163 125 163 238c0 133 -122 256 -277 256c-183 0 -315 -136 -315 -324s133 -324 317 -324c101 0 184 52 240 151h61zM440 430c0 44 -17 72 -45 72c-71 0 -125 -157 -125 -231
c0 -49 18 -78 48 -78c61 0 122 145 122 237z" />
    <glyph glyph-name="A" unicode="A" horiz-adv-x="704" 
d="M663 0h-301l5 47h23c57 0 65 7 65 36c0 7 -2 20 -4 32l-23 123h-255l-55 -96c-12 -20 -18 -40 -18 -55c0 -30 17 -40 69 -40h24l-6 -47h-269l5 47c54 0 95 33 148 121l330 569h41l125 -629c10 -52 21 -61 76 -61h25zM420 285l-57 287l-163 -287h220z" />
    <glyph glyph-name="B" unicode="B" horiz-adv-x="722" 
d="M630 206c0 -128 -100 -206 -298 -206h-363l5 47h15c38 0 63 5 73 14c8 8 8 8 23 62l128 476c5 20 9 41 9 49c0 22 -14 27 -79 27h-26l6 47h301c167 0 244 -63 244 -167c0 -98 -72 -161 -195 -184c106 -32 157 -86 157 -165zM549 570c0 73 -36 105 -118 105h-29
c-52 0 -59 -7 -75 -68l-58 -213h83c132 0 197 70 197 176zM508 225c0 81 -53 122 -188 122h-63l-64 -238c-4 -15 -6 -27 -6 -35c0 -21 16 -27 70 -27h50c139 0 201 82 201 178z" />
    <glyph glyph-name="C" unicode="C" horiz-adv-x="722" 
d="M634 205c-66 -155 -163 -220 -300 -220c-178 0 -294 117 -294 295c0 234 193 457 402 457c76 0 127 -23 175 -80l60 58h36l-56 -280h-41c-7 188 -64 259 -166 259c-175 0 -285 -261 -285 -454c0 -117 61 -206 186 -206c106 0 175 48 242 189z" />
    <glyph glyph-name="D" unicode="D" horiz-adv-x="778" 
d="M735 435c0 -134 -68 -273 -175 -358c-70 -55 -155 -77 -296 -77h-302l5 47h20c49 0 57 4 68 14c8 8 8 8 23 62l128 476c5 20 9 41 9 49c0 22 -14 27 -79 27h-26l6 47h290c112 0 175 -14 225 -52c67 -50 104 -133 104 -235zM614 489c0 122 -60 186 -188 186h-30
c-53 0 -60 -6 -76 -65l-133 -500c-3 -11 -6 -23 -6 -31c0 -22 13 -32 46 -32h32c97 0 161 18 206 57c81 71 149 248 149 385z" />
    <glyph glyph-name="E" unicode="E" horiz-adv-x="722" 
d="M642 245l-78 -245h-601l5 47h19c49 0 58 4 69 14c8 8 9 9 23 62l128 476c5 20 9 41 9 49c0 22 -14 27 -79 27h-26l6 47h584l-39 -241h-45v35c0 128 -54 159 -139 159h-58c-75 0 -83 -5 -100 -69l-55 -205h33c97 0 139 37 168 125l45 -6l-89 -334l-45 8c7 32 9 47 9 69
c0 61 -27 91 -101 91h-32l-59 -220c-10 -38 -11 -43 -11 -55c0 -24 18 -32 70 -32h54c137 0 201 37 289 198l5 8z" />
    <glyph glyph-name="F" unicode="F" horiz-adv-x="667" 
d="M659 481h-45v35c0 69 -9 101 -37 126c-25 22 -59 33 -102 33h-52c-75 0 -83 -5 -100 -69l-55 -205h33c97 0 139 37 168 125l45 -6l-89 -334l-45 8c7 32 9 47 9 69c0 61 -27 91 -101 91h-32l-62 -231c-10 -41 -10 -41 -10 -49c0 -22 14 -27 79 -27h26l-5 -47h-318l5 47h22
c49 0 55 4 66 14c8 8 9 9 23 62l128 476c5 20 9 41 9 49c0 22 -14 27 -79 27h-26l6 47h578z" />
    <glyph glyph-name="G" unicode="G" horiz-adv-x="778" 
d="M757 285h-21c-42 0 -51 -3 -63 -13c-10 -8 -11 -9 -26 -63l-60 -223h-44l-12 81c-62 -59 -122 -82 -217 -82c-172 0 -275 107 -275 288c0 224 190 464 416 464c81 0 136 -25 188 -84l62 62h34l-55 -281l-42 7c-3 170 -69 253 -179 253c-90 0 -166 -57 -225 -169
c-47 -90 -77 -207 -77 -303c0 -121 67 -194 178 -194c96 0 162 52 188 150l18 80v5c0 17 -20 22 -79 22h-33l5 47h325z" />
    <glyph glyph-name="H" unicode="H" horiz-adv-x="833" 
d="M713 0h-317l5 47h17c49 0 60 4 71 14c8 8 8 9 23 62l61 231h-321l-62 -231c-10 -41 -10 -41 -10 -49c0 -22 14 -27 79 -27h26l-5 -47h-318l5 47h15c49 0 62 4 73 14c8 8 9 9 23 62l128 476c5 20 9 41 9 49c0 22 -14 27 -79 27h-26l6 47h317l-5 -47h-17
c-49 0 -60 -4 -70 -14c-9 -7 -9 -7 -23 -62l-54 -198h322l53 198c7 24 10 41 10 49c0 22 -14 27 -79 27h-26l5 47h318l-5 -47h-17c-50 0 -60 -4 -71 -14c-8 -7 -8 -7 -23 -62l-128 -476c-5 -19 -9 -42 -9 -49c0 -22 14 -27 79 -27h26z" />
    <glyph glyph-name="I" unicode="I" horiz-adv-x="407" 
d="M277 0h-310l5 47c59 1 72 3 84 14c9 9 10 12 23 62l128 476c7 27 10 41 10 49c0 22 -14 27 -80 27h-22l6 47h310l-5 -47c-58 -1 -72 -3 -84 -14c-9 -9 -9 -10 -23 -62l-128 -476c-9 -34 -10 -39 -10 -48c0 -23 14 -28 80 -28h22z" />
    <glyph glyph-name="J" unicode="J" horiz-adv-x="611" 
d="M641 675h-18c-42 0 -53 -4 -63 -14c-8 -8 -9 -8 -23 -62l-109 -407c-38 -142 -116 -207 -250 -207c-120 0 -191 58 -191 158c0 81 53 145 121 145c47 0 79 -29 79 -71c0 -41 -27 -70 -66 -70c-20 0 -36 17 -60 17c-15 0 -26 -14 -26 -32c0 -59 53 -104 122 -104
c84 0 129 52 166 191l102 380c6 24 10 41 10 49c0 22 -14 27 -79 27h-30l6 47h314z" />
    <glyph glyph-name="K" unicode="K" horiz-adv-x="741" 
d="M691 0h-327l5 47h33c53 0 68 4 68 18c0 6 0 6 -16 39l-117 246l-113 -93l-36 -134c-10 -41 -10 -41 -10 -49c0 -22 14 -27 79 -27h26l-5 -47h-318l5 47h19c49 0 58 4 69 14c8 7 9 8 23 62l128 476c5 20 9 41 9 49c0 22 -14 27 -79 27h-26l6 47h317l-5 -47h-17
c-49 0 -60 -4 -70 -14c-9 -7 -9 -7 -24 -62l-68 -257l288 240c38 31 54 51 54 68c0 19 -14 25 -59 25h-22l6 47h300l-5 -47c-80 -6 -122 -26 -201 -98l-188 -157l152 -315c28 -58 28 -58 94 -58h31z" />
    <glyph glyph-name="L" unicode="L" horiz-adv-x="667" 
d="M630 245l-78 -245h-589l5 47h19c49 0 58 4 69 14c8 8 9 9 23 62l128 476c5 20 9 41 9 49c0 22 -14 27 -79 27h-26l6 47h336l-6 -47h-22c-49 0 -73 -4 -83 -14c-9 -8 -9 -8 -23 -62l-125 -465c-10 -37 -11 -42 -11 -55c0 -24 18 -32 70 -32h42c142 0 206 45 294 206z" />
    <glyph glyph-name="M" unicode="M" horiz-adv-x="944" 
d="M819 0h-317l5 47h17c49 0 60 4 71 14c8 8 8 8 23 62l132 493l-386 -616h-36l-62 602l-103 -385c-22 -89 -23 -93 -23 -115c0 -37 29 -55 89 -55l-5 -47h-250l5 47c72 2 92 28 130 170l102 382c6 23 10 41 10 49c0 22 -14 27 -79 27h-26l5 47h242l53 -540l341 540h216
l-5 -47h-14c-50 0 -63 -4 -74 -14c-8 -7 -8 -7 -23 -62l-127 -476c-6 -20 -10 -42 -10 -49c0 -22 14 -27 79 -27h26z" />
    <glyph glyph-name="N" unicode="N" horiz-adv-x="815" 
d="M854 675c-84 -3 -104 -26 -142 -170l-139 -519h-39l-278 601l-99 -370c-23 -89 -24 -93 -24 -115c0 -37 19 -55 80 -55h21l-6 -47h-276l5 47c87 2 106 24 145 170l114 426c-8 27 -17 32 -65 32h-52l5 47h211l253 -552l90 335c22 89 23 93 23 115c0 37 -29 55 -90 55l6 47
h262z" />
    <glyph glyph-name="O" unicode="O" horiz-adv-x="778" 
d="M735 450c0 -238 -190 -465 -423 -465c-166 0 -272 113 -272 290c0 249 203 462 417 462c158 0 278 -118 278 -287zM618 496c0 111 -45 198 -158 198c-69 0 -126 -32 -179 -100c-65 -84 -123 -266 -123 -387c0 -110 60 -179 156 -179c78 0 151 43 196 116
c62 100 108 249 108 352z" />
    <glyph glyph-name="P" unicode="P" horiz-adv-x="667" 
d="M663 541c0 -79 -39 -144 -109 -182c-68 -36 -93 -41 -279 -41h-28l-52 -195c-11 -41 -9 -41 -10 -49c0 -22 14 -27 79 -27h26l-5 -47h-318l5 47h15c49 0 62 4 73 14c8 8 8 8 23 62l128 476c5 20 9 41 9 49c0 22 -14 27 -79 27h-26l6 47h295c185 0 247 -74 247 -181z
M551 552c0 89 -40 123 -145 123h-12c-41 0 -54 -10 -64 -48l-70 -262h29c98 -1 88 1 102 2c111 11 160 90 160 185z" />
    <glyph glyph-name="Q" unicode="Q" horiz-adv-x="778" 
d="M658 -60c-45 -83 -90 -128 -158 -128c-67 0 -115 57 -115 137c0 9 1 26 4 43c-25 -5 -42 -7 -66 -7c-176 0 -283 111 -283 293c0 242 194 459 412 459c161 0 283 -109 283 -290c0 -153 -64 -296 -237 -420v-22c1 -80 13 -116 50 -116c26 0 53 27 75 73zM615 505
c0 130 -58 188 -160 188c-175 0 -298 -274 -298 -493c0 -59 10 -93 38 -128c-7 23 -9 34 -9 51c0 84 61 144 147 144c87 0 142 -54 152 -151c80 110 130 259 130 389zM396 45c8 44 9 49 9 72c0 61 -34 101 -87 101c-54 0 -95 -43 -95 -100c0 -56 36 -89 98 -89
c25 0 45 4 75 16z" />
    <glyph glyph-name="R" unicode="R" horiz-adv-x="741" 
d="M673 132c-39 -106 -79 -147 -143 -147c-63 0 -106 49 -106 121c0 19 0 24 6 100c2 21 3 42 3 54c0 65 -32 90 -116 90h-69l-61 -227c-11 -41 -9 -41 -10 -49c0 -22 14 -27 79 -27h26l-5 -47h-318l5 47h16c49 0 61 4 72 14c8 8 9 9 23 62l128 476c5 20 9 41 9 49
c0 22 -14 27 -79 27h-26l6 47h320c189 0 258 -63 258 -164c0 -65 -40 -126 -102 -158c-36 -18 -75 -27 -153 -36c73 -27 103 -75 103 -162c0 -11 -1 -23 -1 -36l-1 -51c-1 -42 10 -61 30 -61c28 0 45 22 70 93zM571 565c0 70 -48 110 -132 110h-49c-47 0 -57 -9 -71 -60
l-59 -218h78c84 0 114 5 151 27c54 32 82 80 82 141z" />
    <glyph glyph-name="S" unicode="S" horiz-adv-x="667" 
d="M569 214c0 -132 -113 -229 -269 -229c-81 0 -150 26 -206 78l-59 -63h-35l55 285l40 -7c-1 -11 -1 -24 -1 -28c0 -134 81 -222 205 -222c103 0 174 58 174 143c0 37 -15 66 -44 87c-12 8 -24 13 -78 36l-86 36c-117 49 -147 105 -147 183c0 126 105 224 240 224
c73 0 130 -23 182 -74l54 52h38l-54 -261l-42 7c1 9 1 17 1 20c0 132 -66 213 -172 213c-89 0 -156 -57 -156 -131c0 -52 35 -88 114 -119l85 -34c119 -48 161 -98 161 -196z" />
    <glyph glyph-name="T" unicode="T" horiz-adv-x="685" 
d="M684 447l-42 5c2 41 2 52 2 70c0 107 -32 153 -122 153h-14c-31 0 -36 -5 -50 -56l-133 -496c-5 -19 -9 -42 -9 -49c0 -22 14 -27 79 -27h37l-6 -47h-346l5 47h22c49 0 73 4 84 14c8 8 9 9 23 62l136 510c3 11 5 20 5 25c0 12 -10 17 -33 17h-14
c-91 0 -129 -40 -227 -217l-41 6l88 258h598z" />
    <glyph glyph-name="U" unicode="U" horiz-adv-x="815" 
d="M855 675c-88 -4 -97 -15 -140 -170l-56 -211c-64 -242 -123 -309 -316 -309c-163 0 -250 67 -250 191c0 34 4 60 20 118l82 305c5 20 9 41 9 49c0 22 -14 27 -79 27h-25l5 47h318l-6 -47h-18c-49 0 -59 -4 -69 -14c-10 -8 -9 -8 -23 -62l-90 -333
c-8 -28 -14 -77 -14 -103c0 -85 59 -135 161 -135c77 0 134 28 174 84c24 34 35 67 65 178l58 215c22 89 23 93 23 115c0 39 -29 55 -93 55l6 47h263z" />
    <glyph glyph-name="V" unicode="V" horiz-adv-x="704" 
d="M767 675c-71 -7 -96 -30 -174 -162l-297 -528h-37l-117 592c-16 80 -30 98 -78 98h-28l7 47h295l-5 -47h-34c-49 0 -60 -6 -60 -32c0 -9 3 -29 8 -52l87 -436l223 401c23 40 31 61 31 78c0 29 -22 41 -75 41h-18l5 47h272z" />
    <glyph glyph-name="W" unicode="W" horiz-adv-x="926" 
d="M968 675c-68 -15 -88 -37 -135 -143l-238 -547h-38l-70 505l-227 -505h-35l-79 602c-5 37 -12 65 -19 72c-9 11 -26 16 -48 16h-26l5 47h267l-6 -47h-20c-42 0 -55 -8 -55 -30c0 -6 0 -11 5 -46l54 -403l168 383l-7 50c-6 43 -7 46 -70 46h-18l5 47h278l-5 -47h-19
c-49 0 -61 -6 -61 -27c0 -9 1 -17 2 -27l54 -425l163 376c16 38 23 59 23 72c0 21 -21 31 -64 31h-17l5 47h233z" />
    <glyph glyph-name="X" unicode="X" horiz-adv-x="704" 
d="M645 0h-321l6 47h31c48 0 61 5 61 23c0 6 -2 16 -6 25l-90 214l-151 -159c-25 -26 -39 -50 -39 -68c0 -23 18 -35 62 -35h21l-6 -47h-286l5 47c69 9 99 27 174 106l197 207l-104 245c-27 63 -38 70 -103 70h-24l5 47h315l-5 -47h-18c-46 0 -67 -9 -67 -28
c0 -7 1 -10 10 -32l72 -172l122 125c35 37 48 58 48 78s-17 29 -52 29h-20l5 47h283l-5 -47c-70 -2 -100 -19 -177 -97l-182 -186l116 -272c30 -69 36 -73 102 -73h26z" />
    <glyph glyph-name="Y" unicode="Y" horiz-adv-x="685" 
d="M753 675c-72 -4 -101 -23 -171 -111l-200 -256l-50 -185c-10 -41 -10 -41 -10 -49c0 -22 14 -27 80 -27h36l-5 -47h-347l6 47h22c49 0 73 4 83 14c9 8 9 9 23 62l50 185l-120 298c-23 56 -42 69 -101 69h-17l5 47h308l-5 -47h-28c-44 0 -61 -7 -61 -24c0 -8 4 -21 11 -38
l100 -249l170 218c16 19 26 41 26 54c0 24 -24 39 -64 39h-23l5 47h282z" />
    <glyph glyph-name="Z" unicode="Z" horiz-adv-x="667" 
d="M611 256l-82 -256h-554l6 38l533 637h-96c-83 0 -139 -13 -177 -42c-41 -30 -46 -42 -117 -161l-41 11l81 239h503l-6 -39l-534 -636h135c155 0 214 38 307 221z" />
    <glyph glyph-name="bracketleft" unicode="[" 
d="M207 -76l-9 -32h-231l223 830h220l-9 -33h-135l-205 -765h146z" />
    <glyph glyph-name="backslash" unicode="\" horiz-adv-x="606" 
d="M522 0h-54l-379 708h54z" />
    <glyph glyph-name="bracketright" unicode="]" 
d="M359 722l-223 -830h-219l9 33h134l205 765h-146l9 32h231z" />
    <glyph glyph-name="asciicircum" unicode="^" horiz-adv-x="606" 
d="M554 318h-87l-163 311l-165 -311h-87l209 404h85z" />
    <glyph glyph-name="underscore" unicode="_" horiz-adv-x="500" 
d="M500 -123h-500v42h500v-42z" />
    <glyph glyph-name="grave" unicode="`" 
d="M291 525h-39l-108 96c-9 10 -11 25 -4 39c10 19 35 35 54 35c15 0 22 -7 34 -30z" />
    <glyph glyph-name="a" unicode="a" horiz-adv-x="574" 
d="M523 141c-12 -27 -29 -55 -49 -83c-35 -49 -73 -73 -117 -73c-36 0 -61 26 -61 65c0 10 1 17 5 32c-50 -72 -90 -97 -152 -97c-89 0 -148 65 -148 163c0 80 30 164 81 230c47 60 104 92 165 92c65 0 115 -43 122 -105l27 90h87l-100 -336c-7 -25 -11 -44 -11 -54
c0 -14 10 -25 21 -25c26 0 61 42 99 118zM289 126c31 63 51 143 51 200c0 55 -29 89 -76 89c-30 0 -58 -12 -80 -35c-53 -54 -92 -158 -92 -246c0 -61 30 -98 80 -98s86 28 117 90z" />
    <glyph glyph-name="b" unicode="b" horiz-adv-x="556" 
d="M488 300c0 -91 -36 -175 -101 -238c-55 -53 -114 -77 -192 -77c-99 0 -163 56 -163 143c0 20 5 48 14 79l120 404c6 22 9 35 9 43c0 23 -16 32 -57 32h-24l4 36l192 15l-106 -358c56 66 99 91 157 91c89 0 147 -67 147 -170zM389 305c0 65 -30 104 -81 104
c-50 0 -94 -31 -132 -91c-35 -58 -59 -137 -59 -198s32 -97 86 -97c52 0 94 29 132 92c34 57 54 126 54 190z" />
    <glyph glyph-name="c" unicode="c" horiz-adv-x="444" 
d="M370 110c-53 -83 -118 -125 -193 -125c-104 0 -172 71 -172 181c0 160 126 304 266 304c72 0 130 -48 130 -108c0 -43 -27 -75 -63 -75c-31 0 -53 20 -53 49c0 24 10 36 37 48c11 4 16 9 16 15c0 17 -32 33 -64 33c-44 0 -80 -24 -115 -74c-39 -56 -62 -135 -62 -206
c0 -75 34 -119 93 -119c48 0 101 34 151 99z" />
    <glyph glyph-name="d" unicode="d" horiz-adv-x="611" 
d="M564 140c-56 -106 -112 -155 -175 -155c-44 0 -68 25 -68 71c0 4 0 14 1 22c-44 -64 -94 -93 -162 -93c-93 0 -157 67 -157 165c0 166 134 320 278 320c35 0 69 -14 90 -36c11 -12 17 -22 25 -46l66 223c6 20 9 34 9 44c0 22 -16 31 -57 31h-31l4 36l199 15l-178 -600
c-10 -35 -15 -58 -15 -72c0 -17 9 -27 25 -27c33 0 58 26 116 120zM369 334c0 53 -36 91 -85 91s-93 -33 -131 -99c-32 -56 -53 -129 -53 -186c0 -65 36 -108 89 -108c48 0 90 33 123 97c32 61 57 152 57 205z" />
    <glyph glyph-name="e" unicode="e" horiz-adv-x="444" 
d="M363 89c-54 -70 -119 -104 -196 -104c-108 0 -173 65 -173 173c0 163 132 312 278 312c70 0 119 -42 119 -103c0 -58 -43 -109 -120 -143c-45 -20 -65 -26 -182 -54c-1 -13 -2 -27 -2 -34c0 -64 37 -104 97 -104c52 0 96 23 155 84zM307 373c0 34 -22 57 -55 57
c-74 0 -135 -86 -158 -221c56 12 73 17 102 30c72 32 111 79 111 134z" />
    <glyph glyph-name="f" unicode="f" 
d="M470 646c0 -30 -23 -53 -54 -53c-29 0 -52 20 -52 45c0 9 2 17 9 28c6 10 7 14 7 18c0 10 -11 17 -24 17c-37 0 -64 -27 -88 -86c-20 -47 -25 -65 -49 -160h129l-14 -47h-126l-62 -247c-23 -92 -81 -283 -104 -345l-110 -18c62 138 113 289 148 436l41 174h-89l13 47h87
c25 92 41 134 70 181c39 65 94 100 157 100c64 0 111 -38 111 -90z" />
    <glyph glyph-name="g" unicode="g" horiz-adv-x="537" 
d="M399 -40c0 -47 -25 -90 -68 -118c-49 -32 -106 -44 -205 -44c-83 0 -129 11 -169 39c-22 17 -36 45 -36 73c0 33 19 65 49 83c21 13 37 19 79 28c-39 19 -55 40 -55 74c0 24 13 51 33 67c23 20 44 27 90 33c-43 23 -62 56 -62 104c0 92 95 171 205 171c32 0 54 -5 86 -19
c52 41 79 54 114 54s63 -24 63 -52c0 -25 -18 -44 -40 -44c-16 0 -22 4 -38 26c-8 11 -16 16 -26 16c-12 0 -21 -5 -37 -19c39 -28 59 -65 59 -111c0 -45 -26 -96 -65 -127c-35 -28 -79 -42 -135 -42c-25 0 -31 1 -72 7c-14 2 -28 3 -41 3c-35 0 -60 -17 -60 -40
c0 -17 13 -29 37 -35c14 -3 22 -4 110 -9c68 -4 100 -11 132 -28c33 -18 52 -51 52 -90zM352 352c0 49 -33 80 -85 80c-72 0 -121 -63 -121 -153c0 -56 34 -90 88 -90c31 0 59 13 77 34c25 31 41 82 41 129zM322 -69c0 25 -12 42 -37 52c-23 10 -95 20 -140 20
c-90 0 -143 -32 -143 -86c0 -52 46 -77 142 -77c114 0 178 32 178 91z" />
    <glyph glyph-name="h" unicode="h" horiz-adv-x="611" 
d="M555 133c-54 -95 -120 -148 -182 -148c-40 0 -70 32 -70 75c0 21 5 43 18 83l53 156c10 31 15 53 15 70c0 24 -18 41 -44 41c-47 0 -97 -36 -143 -103c-36 -52 -48 -81 -74 -168l-41 -139h-87l181 611c6 21 9 35 9 44c0 22 -16 31 -57 31h-31l4 36l199 15l-119 -402
c68 94 126 135 188 135c57 0 101 -42 101 -98c0 -28 -8 -67 -24 -112l-47 -138c-16 -45 -19 -56 -19 -67s8 -19 18 -19c31 0 72 39 123 118z" />
    <glyph glyph-name="i" unicode="i" 
d="M282 140c-28 -43 -44 -65 -62 -85c-40 -46 -81 -69 -124 -69c-39 0 -69 27 -69 62c0 22 4 38 22 101l58 195c6 22 9 35 9 44c0 22 -16 31 -57 31h-24l4 36l192 15l-106 -357c-8 -28 -12 -46 -12 -56c0 -12 7 -21 17 -21c27 0 71 44 121 121zM270 610
c0 -27 -22 -49 -49 -49s-49 22 -49 49s22 49 49 49s49 -22 49 -49z" />
    <glyph glyph-name="j" unicode="j" horiz-adv-x="315" 
d="M279 470l-119 -400c-43 -145 -51 -165 -81 -202c-39 -45 -90 -70 -143 -70c-62 0 -102 31 -102 80c0 35 23 60 56 60c28 0 48 -19 48 -47c0 -10 -1 -14 -8 -27c-3 -5 -5 -10 -5 -14c0 -9 10 -18 21 -18c44 0 80 54 108 163c10 41 20 78 25 92l76 257c7 23 9 35 9 43
c0 23 -16 32 -57 32h-35l4 36zM317 610c0 -27 -22 -49 -49 -49s-49 22 -49 49s22 49 49 49s49 -22 49 -49z" />
    <glyph glyph-name="k" unicode="k" horiz-adv-x="556" 
d="M492 134c-62 -104 -112 -149 -167 -149c-50 0 -74 33 -74 100l1 49v37c0 18 -5 27 -16 27c0 0 -2 0 -20 -2c-7 -1 -14 -1 -14 -1c-12 0 -22 10 -22 22c0 17 11 27 31 27c8 0 20 -2 27 -5c6 -2 13 -3 13 -3c7 0 20 5 42 16c68 34 97 66 97 107c0 29 -20 51 -46 51
c-38 0 -90 -36 -134 -92c-32 -41 -70 -121 -90 -188l-38 -130h-87l181 611c6 22 9 34 9 44c0 22 -16 31 -57 31h-31l4 36l199 15l-124 -418c68 105 128 151 197 151c55 0 98 -40 98 -91c0 -67 -65 -125 -183 -167c32 -26 43 -52 48 -122c3 -40 7 -49 21 -49
c24 0 47 25 104 113z" />
    <glyph glyph-name="l" unicode="l" 
d="M268 140c-60 -102 -124 -155 -187 -155c-40 0 -65 27 -65 70c0 31 3 47 27 127l127 429c6 20 9 34 9 44c0 22 -16 31 -57 31h-31l4 36l199 15l-185 -625c-13 -43 -13 -44 -13 -55c0 -12 7 -21 18 -21c28 0 73 44 123 121z" />
    <glyph glyph-name="m" unicode="m" horiz-adv-x="889" 
d="M837 131c-42 -61 -56 -78 -76 -98c-34 -32 -66 -48 -99 -48c-46 0 -78 28 -78 70c0 28 1 34 28 112l46 142c9 28 14 50 14 64c0 23 -14 37 -39 37c-38 0 -89 -34 -125 -83c-32 -43 -57 -99 -82 -182l-43 -145h-87l80 271c12 38 20 80 20 100c0 25 -16 39 -42 39
c-75 0 -166 -116 -211 -269l-41 -141h-87l102 344c5 18 8 34 8 43c0 23 -16 32 -56 32h-24l3 36l182 15l-29 -135c70 100 116 135 179 135c55 0 97 -40 97 -93c0 -12 -2 -29 -6 -48c58 94 122 141 193 141c54 0 93 -38 93 -91c0 -21 -5 -53 -12 -75l-63 -194
c-9 -29 -12 -40 -12 -49c0 -13 10 -25 21 -25c26 0 62 37 115 116z" />
    <glyph glyph-name="n" unicode="n" horiz-adv-x="611" 
d="M562 135c-56 -97 -120 -150 -183 -150c-40 0 -70 32 -70 74c0 22 5 45 18 84l53 156c10 31 15 53 15 70c0 23 -17 41 -40 41c-43 0 -96 -39 -139 -103c-36 -53 -48 -81 -74 -168l-41 -139h-87l102 344c6 22 9 35 9 44c0 22 -16 31 -57 31h-24l4 36l181 15l-29 -135
c67 92 126 135 185 135c53 0 96 -44 96 -97c0 -29 -8 -68 -24 -113l-47 -138c-16 -44 -19 -56 -19 -67s8 -19 18 -19c31 0 74 41 124 120z" />
    <glyph glyph-name="o" unicode="o" horiz-adv-x="500" 
d="M450 281c0 -74 -32 -154 -85 -214c-48 -54 -110 -82 -182 -82c-109 0 -178 73 -178 187c0 83 29 155 84 212c54 56 119 86 184 86c97 0 177 -85 177 -189zM308 122c27 55 47 135 47 187c0 77 -32 123 -87 123c-38 0 -70 -18 -98 -54c-41 -55 -75 -167 -75 -250
c0 -68 31 -105 89 -105c53 0 90 30 124 99z" />
    <glyph glyph-name="p" unicode="p" horiz-adv-x="574" 
d="M506 307c0 -82 -29 -165 -80 -229c-48 -62 -110 -93 -180 -93c-66 0 -92 19 -119 88l-49 -163c-7 -25 -11 -42 -11 -50c0 -20 16 -26 64 -26h12l-4 -36h-240l4 36c68 3 69 4 89 76l128 434c6 19 9 34 9 44c0 22 -16 31 -57 31h-24l4 36l182 15l-15 -85
c45 55 98 85 149 85c39 0 79 -20 105 -52c23 -29 33 -62 33 -111zM365 144c30 62 47 130 47 185c0 53 -30 88 -75 88c-40 0 -82 -28 -115 -78c-38 -58 -69 -154 -69 -212c0 -53 35 -92 84 -92c53 0 93 34 128 109z" />
    <glyph glyph-name="q" unicode="q" horiz-adv-x="556" 
d="M390 -202h-246l4 36c77 2 78 3 98 76l43 145c-45 -48 -87 -69 -138 -69c-39 0 -84 17 -109 43c-26 25 -42 70 -42 116c0 169 130 325 271 325c52 0 95 -24 128 -69l61 69h39l-166 -560c-6 -21 -11 -42 -11 -50c0 -20 16 -26 64 -26h8zM312 153c24 52 44 134 44 183
c0 56 -33 95 -80 95c-48 0 -98 -41 -135 -112c-27 -51 -46 -127 -46 -181c0 -62 32 -104 78 -104c53 0 104 43 139 119z" />
    <glyph glyph-name="r" unicode="r" horiz-adv-x="444" 
d="M433 396c0 -37 -25 -64 -59 -64c-19 0 -35 8 -43 22c-4 6 -4 9 -4 32c0 15 -6 23 -18 23c-46 0 -129 -126 -166 -251l-47 -158h-87l102 344c5 18 10 40 10 47c0 19 -18 28 -58 28h-24l4 36l181 15l-23 -116c53 82 97 116 153 116c46 0 79 -31 79 -74z" />
    <glyph glyph-name="s" unicode="s" horiz-adv-x="444" 
d="M356 139c0 -91 -79 -154 -194 -154c-100 0 -163 43 -163 113c0 39 25 67 58 67c29 0 51 -22 51 -50c0 -18 -3 -23 -21 -43c-4 -3 -7 -10 -7 -15c0 -20 36 -34 87 -34c69 0 114 35 114 88c0 34 -14 49 -71 72c-41 16 -62 26 -78 34c-44 23 -69 60 -69 102
c0 87 76 151 181 151c86 0 148 -43 148 -104c0 -36 -23 -61 -57 -61c-30 0 -52 19 -52 46c0 15 2 20 16 40c3 5 5 10 5 14c0 16 -27 27 -65 27c-58 0 -102 -34 -102 -80c0 -39 17 -55 82 -78c55 -20 65 -25 87 -39c32 -22 50 -57 50 -96z" />
    <glyph glyph-name="t" unicode="t" horiz-adv-x="352" 
d="M285 140c-26 -42 -36 -58 -50 -77c-35 -47 -91 -78 -138 -78c-40 0 -72 34 -72 76c0 22 5 45 19 95l75 252h-94l14 47h94l49 166h87l-49 -166h109l-14 -47h-109l-95 -319c-2 -8 -3 -15 -3 -23c0 -17 9 -28 23 -28c33 0 62 28 124 122z" />
    <glyph glyph-name="u" unicode="u" horiz-adv-x="611" 
d="M556 135c-71 -110 -120 -150 -181 -150c-37 0 -64 28 -64 66c0 19 2 33 12 68c-59 -92 -116 -133 -186 -133c-56 0 -95 37 -95 92c0 31 0 31 31 131l40 135c5 18 8 34 8 43c0 23 -15 32 -56 32h-24l3 36l193 15l-98 -328c-8 -27 -11 -45 -11 -57c0 -24 19 -43 43 -43
c71 0 163 114 204 253l47 160h87l-99 -332c-8 -29 -12 -48 -12 -59c0 -13 9 -24 19 -24c20 0 60 41 109 113z" />
    <glyph glyph-name="v" unicode="v" horiz-adv-x="519" 
d="M445 391c0 -78 -37 -196 -87 -277c-54 -86 -116 -130 -186 -130c-72 0 -127 57 -127 131c0 31 7 73 19 114l34 115c6 18 10 39 10 46c0 20 -18 29 -57 29h-17l3 36l185 15l-68 -231c-18 -60 -24 -92 -24 -124c0 -44 29 -78 66 -78c52 0 108 50 147 131
c26 53 44 115 44 149c0 22 -4 30 -28 57c-15 17 -21 30 -21 46c0 27 20 50 45 50c35 0 62 -35 62 -79z" />
    <glyph glyph-name="w" unicode="w" horiz-adv-x="778" 
d="M708 391c0 -82 -41 -205 -95 -289c-53 -81 -106 -117 -174 -117c-66 0 -108 42 -108 108c0 11 1 25 2 41c-36 -54 -51 -72 -76 -97c-33 -34 -75 -52 -118 -52c-65 0 -107 38 -107 97c0 20 5 46 17 85l52 177c5 16 8 34 8 43c0 23 -15 32 -56 32h-17l4 36l185 15l-87 -293
c-20 -67 -20 -69 -20 -91c0 -27 23 -48 52 -48c34 0 68 24 104 75c40 55 69 114 87 175l50 167h87l-65 -216c-16 -56 -23 -94 -23 -130c0 -44 21 -71 55 -71c47 0 94 44 139 128c26 50 45 114 45 152c0 21 -4 29 -28 56c-16 18 -21 29 -21 46c0 28 20 50 46 50
c35 0 62 -35 62 -79z" />
    <glyph glyph-name="x" unicode="x" horiz-adv-x="500" 
d="M456 125c-26 -46 -29 -51 -47 -72c-46 -56 -64 -68 -101 -68c-49 0 -75 28 -92 103l-15 67l-30 -54c-43 -76 -90 -116 -138 -116c-40 0 -66 25 -66 62c0 34 21 58 51 58c25 0 38 -12 43 -39c2 -13 8 -20 15 -20c16 0 41 28 69 79l45 80l-12 58c-20 99 -20 99 -29 115
c-4 8 -14 15 -21 15c-17 0 -31 -15 -82 -88l-29 21c45 65 59 85 75 103c25 28 47 41 69 41c41 0 63 -33 80 -119l11 -55l29 52c34 63 35 63 55 85c21 23 51 37 78 37c33 0 57 -26 57 -61c0 -33 -19 -54 -50 -54c-18 0 -25 5 -34 25c-4 9 -9 13 -17 13c-18 0 -39 -22 -63 -67
l-44 -81l19 -95c18 -82 28 -104 51 -104c18 0 35 15 64 54c15 21 18 26 28 42z" />
    <glyph glyph-name="y" unicode="y" horiz-adv-x="500" 
d="M454 418c0 -33 -12 -64 -69 -174c-75 -146 -154 -278 -201 -338c-59 -74 -113 -108 -171 -108c-52 0 -92 33 -92 74c0 30 23 54 52 54c19 0 36 -12 43 -31c3 -8 3 -8 3 -39c0 -10 7 -16 19 -16c27 0 66 28 106 77c17 22 24 32 57 84c-22 126 -40 210 -71 324
c-11 43 -24 64 -38 64c-17 0 -28 -16 -65 -96l-31 14c41 108 86 163 130 163c43 0 71 -46 94 -155l44 -211c65 103 104 197 104 247c0 15 0 18 -6 52c-1 6 -2 12 -2 17c0 27 22 50 49 50s45 -21 45 -52z" />
    <glyph glyph-name="z" unicode="z" horiz-adv-x="463" 
d="M388 139c-31 -94 -94 -154 -162 -154c-35 0 -71 10 -119 32c-65 31 -65 31 -77 31c-8 0 -9 -1 -9 -17c0 -29 -11 -46 -30 -46c-15 0 -24 9 -24 24c0 30 26 77 72 128c57 62 80 80 227 171c38 24 49 34 74 60c-25 -6 -37 -8 -51 -8c-30 0 -37 1 -92 20
c-26 8 -50 14 -60 14c-25 0 -51 -25 -82 -80l-33 17c48 94 101 139 165 139c22 0 39 -6 84 -28c30 -15 55 -23 72 -23c14 0 20 5 26 26c5 17 13 25 24 25c14 0 24 -10 24 -23c0 -26 -32 -81 -79 -134c-49 -56 -90 -88 -167 -132c-79 -46 -98 -60 -121 -89c24 7 36 9 49 9
c28 0 40 -3 101 -24c28 -10 53 -16 67 -16c33 0 59 28 86 90z" />
    <glyph glyph-name="braceleft" unicode="{" 
d="M169 -79l-8 -29h-21c-55 0 -88 32 -88 87c0 25 4 49 17 95l23 88c12 44 13 50 13 69c0 30 -16 51 -49 62l7 28c65 19 87 46 107 133l32 118c18 66 37 102 68 123c23 16 65 27 101 27h10l-8 -29c-55 -6 -81 -38 -106 -133l-35 -128c-22 -78 -48 -109 -108 -125
c36 -14 52 -34 52 -65c0 -14 -3 -32 -13 -67l-29 -111c-10 -36 -15 -64 -15 -84c0 -35 18 -57 50 -59z" />
    <glyph glyph-name="bar" unicode="|" horiz-adv-x="606" 
d="M338 -108h-80v830h80v-830z" />
    <glyph glyph-name="braceright" unicode="}" 
d="M227 321l-8 -28c-64 -18 -87 -46 -108 -133l-31 -118c-18 -66 -38 -102 -69 -123c-22 -16 -64 -27 -101 -27h-8l8 29c54 6 80 38 105 133l35 128c21 78 48 109 107 125c-35 14 -51 34 -51 65c0 15 3 33 12 67l30 111c10 36 15 65 15 85c0 34 -19 56 -50 58l8 29h21
c53 0 89 -33 89 -83c0 -22 -6 -54 -18 -99l-23 -88c-12 -44 -13 -50 -13 -69c0 -30 18 -53 50 -62z" />
    <glyph glyph-name="asciitilde" unicode="~" horiz-adv-x="606" 
d="M545 272c-37 -65 -92 -107 -140 -107c-25 0 -49 8 -99 31l-46 23c-58 27 -60 28 -80 28c-28 0 -59 -24 -86 -65l-53 38c37 65 92 107 140 107c25 0 47 -7 99 -32l46 -22c53 -26 60 -28 80 -28c28 0 59 24 86 65z" />
    <glyph glyph-name="uni00A0" unicode="&#xa0;" 
 />
    <glyph glyph-name="exclamdown" unicode="&#xa1;" 
d="M276 -156c-5 -70 -33 -111 -74 -111c-35 0 -59 24 -59 58c0 30 1 32 50 136c48 106 81 199 126 361l36 -10c-49 -184 -70 -302 -79 -434zM429 423c0 -34 -28 -62 -62 -62s-62 28 -62 62c0 35 28 62 63 62c33 0 61 -28 61 -62z" />
    <glyph glyph-name="cent" unicode="&#xa2;" horiz-adv-x="556" 
d="M428 113c-58 -86 -131 -131 -206 -127l-54 -121h-43l57 127c-75 22 -121 89 -121 175c0 161 127 302 271 302c19 0 34 -3 56 -12l55 124h43l-64 -145c24 -21 35 -44 35 -73c0 -43 -28 -74 -66 -74c-13 0 -21 2 -30 9l-117 -263c64 7 96 28 153 100zM393 400
c0 17 -31 32 -65 32c-50 0 -91 -34 -127 -106c-30 -60 -45 -116 -45 -170c0 -53 17 -90 49 -110l139 311c8 19 16 26 34 30c13 3 15 4 15 13z" />
    <glyph glyph-name="sterling" unicode="&#xa3;" horiz-adv-x="556" 
d="M522 136c-42 -104 -101 -151 -188 -151c-51 0 -84 13 -148 60c-41 -45 -67 -60 -110 -60c-49 0 -84 34 -84 80c0 47 38 85 87 85c25 0 54 -7 90 -21c11 35 15 56 15 93c0 30 -2 53 -8 103h-126l5 43h117c-2 35 -2 42 -2 56c0 176 100 280 230 280c84 0 145 -50 145 -119
c0 -52 -29 -88 -71 -88c-33 0 -56 22 -56 53c0 21 9 38 30 53c20 15 22 17 22 27c0 22 -24 36 -60 36c-96 0 -137 -88 -137 -252c0 -10 0 -26 1 -46h136l-5 -43h-132c0 -70 -17 -148 -51 -220c48 -25 87 -36 128 -36c59 0 100 24 137 81zM149 75c-30 25 -49 34 -73 34
c-25 0 -45 -19 -45 -44c0 -26 19 -43 47 -43c31 0 54 17 71 53z" />
    <glyph glyph-name="currency" unicode="&#xa4;" horiz-adv-x="556" 
d="M530 145l-51 -52l-51 51c-44 -33 -95 -50 -147 -50c-53 0 -107 18 -151 52l-53 -53l-52 52l53 53c-34 45 -52 97 -52 151c0 52 18 106 50 147l-51 51l52 51l50 -51c44 33 94 50 147 50c54 0 106 -18 151 -52l54 53l51 -51l-53 -53c34 -44 52 -97 52 -152
c0 -53 -17 -103 -50 -147zM447 346c0 93 -76 169 -169 169s-169 -76 -169 -169s76 -170 167 -170c95 0 171 75 171 170z" />
    <glyph glyph-name="yen" unicode="&#xa5;" horiz-adv-x="556" 
d="M618 657c-61 -13 -77 -26 -139 -112l-126 -177h120l-5 -43h-146l-1 -2l-21 -78h146l-5 -43h-152l-22 -79c-9 -41 -9 -41 -9 -49c0 -22 15 -27 79 -27h27l-5 -47h-317l5 47h13c48 0 73 4 83 14c9 8 9 9 23 62l22 79h-148l5 43h154l21 78l-1 2h-146l5 43h126l-80 220
c-16 47 -42 69 -80 69h-4l5 47h256l-5 -47h-14c-45 0 -62 -7 -62 -24c0 -9 0 -10 11 -39l76 -215l128 185c21 29 26 40 26 55c0 23 -25 38 -65 38h-9l5 47h231z" />
    <glyph glyph-name="brokenbar" unicode="&#xa6;" horiz-adv-x="606" 
d="M338 390h-80v332h80v-332zM338 -108h-80v332h80v-332z" />
    <glyph glyph-name="section" unicode="&#xa7;" horiz-adv-x="500" 
d="M436 258c0 -76 -59 -134 -135 -134c-16 0 -27 2 -48 7c39 -65 51 -98 51 -138c0 -83 -68 -143 -161 -143c-88 0 -154 51 -154 118c0 37 25 63 58 63c32 0 55 -22 55 -54c0 -18 -6 -31 -22 -46c-8 -7 -9 -10 -9 -15c0 -18 33 -34 67 -34c49 0 82 34 82 85
c0 42 -14 75 -73 150l-61 78c-40 50 -55 91 -55 136c0 75 60 132 138 132c17 0 28 -2 49 -9c-42 61 -55 94 -55 139c0 88 65 144 166 144c87 0 151 -50 151 -117c0 -37 -23 -64 -57 -64c-32 0 -57 24 -57 55c0 22 6 32 31 53c4 3 6 6 6 9c0 17 -33 32 -69 32
c-55 0 -90 -33 -90 -85c0 -40 19 -76 81 -157l57 -75c37 -48 54 -89 54 -130zM360 230c0 27 -14 57 -38 90l-42 57c-25 33 -61 53 -96 53c-45 0 -76 -30 -76 -72c0 -21 9 -45 26 -68l48 -67c38 -54 57 -66 95 -66c45 0 83 33 83 73z" />
    <glyph glyph-name="dieresis" unicode="&#xa8;" 
d="M184 610c0 -27 -22 -49 -49 -49s-49 22 -49 49s22 49 49 49s49 -22 49 -49zM374 610c0 -27 -22 -49 -49 -49s-49 22 -49 49s22 49 49 49s49 -22 49 -49z" />
    <glyph glyph-name="copyright" unicode="&#xa9;" horiz-adv-x="747" 
d="M723 339c0 -195 -159 -353 -354 -353s-353 158 -353 353s158 354 353 354s354 -159 354 -354zM679 339c0 171 -139 310 -310 310s-309 -139 -309 -310s138 -309 309 -309s310 138 310 309zM560 523l-29 -149h-27c-6 97 -39 134 -96 134c-98 0 -154 -134 -151 -232
c1 -58 35 -104 104 -104c60 0 98 25 134 98l28 -11c-36 -82 -91 -117 -171 -117c-103 0 -172 61 -175 155c-3 122 106 238 226 238c43 0 73 -12 101 -41l32 29h24z" />
    <glyph glyph-name="ordfeminine" unicode="&#xaa;" horiz-adv-x="422" 
d="M366 330h-283v40h283v-40zM422 535c-30 -60 -68 -93 -107 -93c-24 0 -40 16 -40 39c0 5 1 9 3 19c-33 -43 -58 -58 -99 -58c-58 0 -96 39 -96 97c0 98 77 192 158 192c44 0 76 -25 81 -63l18 54h56l-65 -200c-5 -16 -7 -26 -7 -32c0 -8 6 -15 14 -15c16 0 35 20 65 70z
M303 645c0 33 -19 53 -49 53c-64 0 -112 -93 -112 -167c0 -37 20 -59 52 -59c65 0 109 103 109 173z" />
    <glyph glyph-name="guillemotleft" unicode="&#xab;" horiz-adv-x="426" 
d="M326 102c0 -10 -7 -17 -16 -17c-5 0 -10 4 -18 15l-109 143l186 144c14 11 20 15 24 15c5 0 9 -6 9 -13c0 -9 0 -9 -61 -72l-78 -84l61 -119c1 -4 2 -7 2 -12zM128 102c0 -10 -7 -17 -16 -17c-5 0 -10 4 -18 15l-42 57l-67 86l186 144c14 11 20 15 24 15c5 0 9 -6 9 -13
c0 -9 0 -9 -61 -72l-78 -84l61 -119c1 -4 2 -7 2 -12z" />
    <glyph glyph-name="logicalnot" unicode="&#xac;" horiz-adv-x="606" 
d="M561 380v-220h-80v140h-446v80h526z" />
    <glyph glyph-name="uni00AD" unicode="&#xad;" 
d="M237 195h-205l22 83h205z" />
    <glyph glyph-name="registered" unicode="&#xae;" horiz-adv-x="747" 
d="M723 339c0 -195 -159 -353 -354 -353s-353 158 -353 353s158 354 353 354s354 -159 354 -354zM679 339c0 171 -139 310 -310 310s-309 -139 -309 -310s138 -309 309 -309s310 138 310 309zM575 444c1 -34 -21 -66 -57 -83c-19 -9 -39 -14 -78 -18c37 -15 53 -40 54 -82
v-19v-26c0 -19 4 -29 14 -29c15 0 24 11 37 48l25 -9c-21 -58 -44 -80 -82 -80s-65 26 -66 65c0 10 0 12 2 52c1 10 1 21 1 27c-1 32 -18 44 -63 44h-36l-31 -115c-3 -13 -4 -20 -5 -25c1 -10 9 -11 42 -11h16l-3 -29h-183l3 29h10c26 0 32 1 37 6c5 4 5 5 12 31l66 246
c2 10 4 20 4 24c0 11 -8 12 -41 12h-16l3 29h183c110 0 151 -33 152 -87zM499 448c-1 34 -27 54 -72 54h-28c-24 0 -29 -5 -36 -29l-29 -110h39c46 0 63 3 83 14c29 16 44 40 43 71z" />
    <glyph glyph-name="macron" unicode="&#xaf;" 
d="M375 585h-301l11 51h301z" />
    <glyph glyph-name="degree" unicode="&#xb0;" horiz-adv-x="400" 
d="M370 533c0 -86 -66 -153 -150 -153s-150 68 -150 154c0 85 68 152 153 152c83 0 147 -67 147 -153zM313 533c0 53 -41 96 -91 96c-54 0 -96 -43 -96 -96s43 -96 94 -96c52 0 93 42 93 96z" />
    <glyph glyph-name="plusminus" unicode="&#xb1;" horiz-adv-x="606" 
d="M561 290h-223v-138h-80v138h-223v80h223v223h80v-223h223v-80zM561 0h-526v80h526v-80z" />
    <glyph glyph-name="two.superior" unicode="&#xb2;" 
d="M331 407l-51 -119h-280c5 37 29 60 203 200c56 45 77 78 77 120c0 40 -29 66 -73 66c-40 0 -86 -27 -86 -50c0 -6 2 -8 16 -15c21 -11 30 -22 30 -39c0 -23 -19 -41 -44 -41c-32 0 -52 23 -52 58c0 66 72 123 154 123c76 0 128 -43 128 -107c0 -47 -22 -83 -73 -120
c-17 -12 -19 -14 -108 -71c-45 -29 -75 -51 -89 -67h142c29 0 37 5 59 43l18 30z" />
    <glyph glyph-name="three.superior" unicode="&#xb3;" 
d="M301 421c0 -81 -75 -142 -174 -142c-78 0 -126 37 -126 96c0 32 19 54 48 54c24 0 44 -18 44 -39c0 -18 -9 -29 -28 -37c-9 -4 -11 -6 -11 -10c0 -17 30 -32 64 -32c65 0 108 49 108 121c0 35 -20 58 -50 58c-5 0 -14 -1 -23 -2c-5 -1 -10 -1 -13 -1c-13 0 -22 7 -22 18
c0 12 10 20 25 20l22 -1c7 -1 14 -1 14 -1c42 0 82 48 82 98c0 35 -24 56 -66 56c-28 0 -59 -14 -59 -26c0 -3 2 -6 8 -11c10 -10 14 -18 14 -29c0 -21 -17 -37 -39 -37c-25 0 -43 18 -43 44c0 50 60 92 130 92c73 0 125 -40 125 -97c0 -47 -34 -86 -89 -103
c-6 -2 -11 -4 -11 -4c45 -14 70 -44 70 -85z" />
    <glyph glyph-name="acute" unicode="&#xb4;" 
d="M347 660c0 -14 -10 -29 -25 -39l-159 -96h-39l138 140c24 23 35 30 50 30c19 0 35 -16 35 -35z" />
    <glyph glyph-name="uni00B5" unicode="&#xb5;" horiz-adv-x="611" 
d="M556 135c-71 -110 -120 -150 -181 -150c-37 0 -64 28 -64 66c0 19 2 33 12 68c-58 -91 -116 -133 -184 -133c-38 0 -61 14 -79 46c-11 -36 -11 -40 -12 -80c-2 -71 -4 -85 -17 -116c-14 -31 -43 -55 -68 -55c-19 0 -33 17 -33 39c0 30 7 48 52 124c17 31 29 57 35 76
l96 324c5 18 8 34 8 43c0 23 -15 32 -56 32h-24l3 36l193 15l-98 -328c-8 -27 -11 -45 -11 -57c0 -24 19 -43 43 -43c71 0 163 114 204 253l47 160h87l-99 -332c-8 -29 -12 -48 -12 -59c0 -13 9 -24 19 -24c20 0 60 41 109 113z" />
    <glyph glyph-name="paragraph" unicode="&#xb6;" horiz-adv-x="650" 
d="M427 -144h-339l3 36h5c30 0 56 6 65 14c7 8 8 8 26 73l92 345h-33c-101 0 -151 43 -151 131c0 80 40 168 98 217c49 41 82 50 198 50h254l-3 -36c-61 -3 -67 -9 -75 -40l-179 -667c-15 -57 -15 -57 -15 -65c0 -15 10 -19 57 -22zM288 357l88 329
c-68 0 -100 -31 -125 -123l-22 -82c-6 -23 -10 -49 -10 -65c0 -37 18 -59 49 -59h20zM300 -107l212 793h-71l-212 -793h71z" />
    <glyph glyph-name="periodcentered" unicode="&#xb7;" horiz-adv-x="278" 
d="M196 250c0 -34 -28 -62 -62 -62s-62 28 -62 62s28 62 62 62s62 -28 62 -62z" />
    <glyph glyph-name="cedilla" unicode="&#xb8;" 
d="M215 -129c0 -52 -49 -87 -124 -87c-32 0 -60 5 -88 17l18 33c24 -8 43 -12 62 -12c34 0 56 16 56 40s-19 39 -48 39c-10 0 -20 -2 -33 -6l-9 6l59 104h35l-39 -69c14 2 21 3 30 3c48 0 81 -28 81 -68z" />
    <glyph glyph-name="one.superior" unicode="&#xb9;" 
d="M283 288h-240l4 34h31c29 0 44 2 50 7c4 4 4 4 13 35l68 237c2 2 7 21 7 26c0 7 -3 8 -40 8h-48l9 32c46 0 114 20 148 45h24l-100 -349c-6 -24 -6 -24 -6 -28c0 -11 8 -13 47 -13h38z" />
    <glyph glyph-name="ordmasculine" unicode="&#xba;" horiz-adv-x="372" 
d="M367 329h-284v40h284v-40zM372 619c0 -90 -75 -177 -176 -177c-71 0 -113 42 -113 113c0 93 82 176 174 176c63 0 115 -51 115 -112zM310 638c0 44 -21 70 -56 70c-64 0 -112 -93 -112 -180c0 -41 20 -63 58 -63c57 0 110 83 110 173z" />
    <glyph glyph-name="guillemotright" unicode="&#xbb;" horiz-adv-x="426" 
d="M202 243l-186 -143c-14 -11 -20 -15 -24 -15c-5 0 -9 6 -9 13c0 9 0 9 60 72l79 84l-61 119c-1 3 -2 7 -2 12c0 10 7 17 16 17c5 0 10 -4 18 -15zM400 243l-186 -143c-14 -11 -20 -15 -24 -15c-5 0 -9 6 -9 13c0 9 0 9 60 72l79 84l-61 119c-1 3 -2 7 -2 12
c0 10 7 17 16 17c5 0 10 -4 18 -15z" />
    <glyph glyph-name="onequarter" unicode="&#xbc;" horiz-adv-x="834" 
d="M660 708l-383 -708h-54l383 708h54zM815 109h-72l-10 -34c-6 -23 -6 -23 -6 -27c0 -11 8 -13 47 -13h15l-4 -35h-202l4 35h15c47 0 52 2 59 26l14 48h-177v30l295 285h40l-79 -276h71zM273 288h-240l4 34h31c29 0 44 2 50 7c4 4 4 4 13 35l68 237c2 2 7 21 7 26
c0 7 -3 8 -40 8h-48l9 32c46 0 114 20 148 45h24l-100 -349c-6 -24 -6 -24 -6 -28c0 -11 8 -13 47 -13h38zM735 321l-180 -173h131z" />
    <glyph glyph-name="onehalf" unicode="&#xbd;" horiz-adv-x="834" 
d="M653 708l-383 -708h-54l383 708h54zM273 288h-240l4 34h31c29 0 44 2 50 7c4 4 4 4 13 35l68 237c2 2 7 21 7 26c0 7 -3 8 -40 8h-48l9 32c46 0 114 20 148 45h24l-100 -349c-6 -24 -6 -24 -6 -28c0 -11 8 -13 47 -13h38zM822 119l-51 -119h-280c5 37 29 60 203 200
c56 45 77 78 77 120c0 40 -29 66 -73 66c-40 0 -86 -27 -86 -50c0 -6 2 -8 16 -15c21 -11 30 -22 30 -39c0 -23 -19 -41 -44 -41c-32 0 -52 23 -52 58c0 66 72 123 154 123c76 0 128 -43 128 -107c0 -47 -22 -83 -73 -120c-17 -12 -19 -14 -108 -71c-45 -29 -75 -51 -89 -67
h142c29 0 37 5 59 43l18 30z" />
    <glyph glyph-name="threequarters" unicode="&#xbe;" horiz-adv-x="834" 
d="M672 708l-383 -708h-54l383 708h54zM815 109h-72l-10 -34c-6 -23 -6 -23 -6 -27c0 -11 8 -13 47 -13h15l-4 -35h-202l4 35h15c47 0 52 2 59 26l14 48h-177v30l295 285h40l-79 -276h71zM301 421c0 -81 -75 -142 -174 -142c-78 0 -126 37 -126 96c0 32 19 54 48 54
c24 0 44 -18 44 -39c0 -18 -9 -29 -28 -37c-9 -4 -11 -6 -11 -10c0 -17 30 -32 64 -32c65 0 108 49 108 121c0 35 -20 58 -50 58c-5 0 -14 -1 -23 -2c-5 -1 -10 -1 -13 -1c-13 0 -22 7 -22 18c0 12 10 20 25 20l22 -1c7 -1 14 -1 14 -1c42 0 82 48 82 98c0 35 -24 56 -66 56
c-28 0 -59 -14 -59 -26c0 -3 2 -6 8 -11c10 -10 14 -18 14 -29c0 -21 -17 -37 -39 -37c-25 0 -43 18 -43 44c0 50 60 92 130 92c73 0 125 -40 125 -97c0 -47 -34 -86 -89 -103c-6 -2 -11 -4 -11 -4c45 -14 70 -44 70 -85zM735 321l-180 -173h131z" />
    <glyph glyph-name="questiondown" unicode="&#xbf;" horiz-adv-x="444" 
d="M457 -80c0 -109 -70 -187 -168 -187c-80 0 -136 57 -136 139c0 85 39 131 183 224c48 31 67 57 67 88c0 30 -17 49 -45 49c-41 0 -61 -20 -78 -73l-36 6c12 63 58 105 115 105c56 0 94 -40 94 -100c0 -71 -42 -128 -159 -218c-57 -44 -78 -74 -78 -112s33 -67 75 -67
c74 0 127 49 127 170h38c1 -11 1 -18 1 -24zM468 423c0 -34 -28 -62 -62 -62s-62 28 -62 62c0 35 28 62 63 62c33 0 61 -28 61 -62z" />
    <glyph glyph-name="Agrave" unicode="&#xc0;" horiz-adv-x="704" 
d="M663 0h-301l5 47h23c57 0 65 7 65 36c0 7 -2 20 -4 32l-23 123h-255l-55 -96c-12 -20 -18 -40 -18 -55c0 -30 17 -40 69 -40h24l-6 -47h-269l5 47c54 0 95 33 148 121l330 569h41l125 -629c10 -52 21 -61 76 -61h25zM420 285l-57 287l-163 -287h220zM537 765h-47l-145 86
c-14 8 -18 23 -11 36c10 17 37 31 59 31c18 0 30 -6 46 -27z" />
    <glyph glyph-name="Aacute" unicode="&#xc1;" horiz-adv-x="704" 
d="M663 0h-301l5 47h23c57 0 65 7 65 36c0 7 -2 20 -4 32l-23 123h-255l-55 -96c-12 -20 -18 -40 -18 -55c0 -30 17 -40 69 -40h24l-6 -47h-269l5 47c54 0 95 33 148 121l330 569h41l125 -629c10 -52 21 -61 76 -61h25zM420 285l-57 287l-163 -287h220zM589 887
c0 -13 -12 -28 -30 -36l-191 -86h-47l166 126c27 21 42 27 60 27c22 0 42 -14 42 -31z" />
    <glyph glyph-name="Acircumflex" unicode="&#xc2;" horiz-adv-x="704" 
d="M663 0h-301l5 47h23c57 0 65 7 65 36c0 7 -2 20 -4 32l-23 123h-255l-55 -96c-12 -20 -18 -40 -18 -55c0 -30 17 -40 69 -40h24l-6 -47h-269l5 47c54 0 95 33 148 121l330 569h41l125 -629c10 -52 21 -61 76 -61h25zM420 285l-57 287l-163 -287h220zM606 766h-43l-104 94
l-163 -94h-43l184 152h60z" />
    <glyph glyph-name="Atilde" unicode="&#xc3;" horiz-adv-x="704" 
d="M663 0h-301l5 47h23c57 0 65 7 65 36c0 7 -2 20 -4 32l-23 123h-255l-55 -96c-12 -20 -18 -40 -18 -55c0 -30 17 -40 69 -40h24l-6 -47h-269l5 47c54 0 95 33 148 121l330 569h41l125 -629c10 -52 21 -61 76 -61h25zM420 285l-57 287l-163 -287h220zM613 895
c-7 -58 -49 -105 -93 -105c-22 0 -31 2 -86 23c-44 16 -60 21 -74 21c-22 0 -37 -15 -45 -45h-30c12 66 45 105 90 105c17 0 41 -6 100 -26c36 -13 45 -15 59 -15c22 0 37 12 49 42h30z" />
    <glyph glyph-name="Adieresis" unicode="&#xc4;" horiz-adv-x="704" 
d="M663 0h-301l5 47h23c57 0 65 7 65 36c0 7 -2 20 -4 32l-23 123h-255l-55 -96c-12 -20 -18 -40 -18 -55c0 -30 17 -40 69 -40h24l-6 -47h-269l5 47c54 0 95 33 148 121l330 569h41l125 -629c10 -52 21 -61 76 -61h25zM420 285l-57 287l-163 -287h220zM404 842
c0 -27 -22 -49 -49 -49s-49 22 -49 49s22 49 49 49s49 -22 49 -49zM594 842c0 -27 -22 -49 -49 -49s-49 22 -49 49s22 49 49 49s49 -22 49 -49z" />
    <glyph glyph-name="Aring" unicode="&#xc5;" horiz-adv-x="704" 
d="M663 0h-301l5 47h23c57 0 65 7 65 36c0 7 -2 20 -4 32l-23 123h-255l-55 -96c-12 -20 -18 -40 -18 -55c0 -30 17 -40 69 -40h24l-6 -47h-269l5 47c54 0 95 33 148 121l330 569h41l125 -629c10 -52 21 -61 76 -61h25zM420 285l-57 287l-163 -287h220zM553 858
c0 -56 -45 -100 -101 -100c-53 0 -98 46 -98 100s45 99 100 99c54 0 99 -45 99 -99zM517 858c0 34 -29 63 -63 63c-35 0 -64 -29 -64 -63c0 -35 29 -64 63 -64c36 0 64 28 64 64z" />
    <glyph glyph-name="AE" unicode="&#xc6;" horiz-adv-x="870" 
d="M817 245l-78 -245h-532l6 47h18c49 0 59 4 69 14c9 8 9 8 23 62l42 155h-191l-95 -137c-15 -22 -25 -45 -25 -58c0 -34 42 -37 77 -36l-6 -47h-217l5 47c25 0 45 14 69 46l320 460c27 39 37 61 37 80c0 31 -21 42 -80 42h-27l5 47h633l-39 -241h-45l1 71
c0 82 -39 123 -118 123h-27c-52 0 -61 -8 -77 -69l-55 -205h27c82 0 108 36 137 125l46 -6l-90 -334l-45 8c7 29 9 47 9 70c0 60 -10 90 -70 90h-27l-59 -220c-5 -17 -12 -41 -12 -56c0 -21 20 -31 64 -31h22c129 0 204 71 265 206zM377 325l83 310c6 22 11 39 -1 39
c-6 0 -13 -4 -23 -20l-231 -329h172z" />
    <glyph glyph-name="Ccedilla" unicode="&#xc7;" horiz-adv-x="722" 
d="M634 205c-65 -153 -162 -220 -296 -220h-17l-29 -49c14 2 20 3 29 3c49 0 82 -28 82 -68c0 -52 -50 -87 -124 -87c-33 0 -60 5 -88 17l18 33c24 -8 42 -12 62 -12c33 0 56 16 56 40c0 23 -19 39 -48 39c-10 0 -19 -2 -34 -6l-8 6l50 87c-156 22 -247 130 -247 292
c0 234 193 457 402 457c76 0 127 -23 175 -80l60 58h36l-56 -280h-41c-7 188 -64 259 -166 259c-175 0 -285 -261 -285 -454c0 -117 61 -206 186 -206c106 0 175 48 242 189z" />
    <glyph glyph-name="Egrave" unicode="&#xc8;" horiz-adv-x="722" 
d="M642 245l-78 -245h-601l5 47h19c49 0 58 4 69 14c8 8 9 9 23 62l128 476c5 20 9 41 9 49c0 22 -14 27 -79 27h-26l6 47h584l-39 -241h-45v35c0 128 -54 159 -139 159h-58c-75 0 -83 -5 -100 -69l-55 -205h33c97 0 139 37 168 125l45 -6l-89 -334l-45 8c7 32 9 47 9 69
c0 61 -27 91 -101 91h-32l-59 -220c-10 -38 -11 -43 -11 -55c0 -24 18 -32 70 -32h54c137 0 201 37 289 198l5 8zM529 765h-47l-145 86c-14 8 -18 23 -11 36c10 17 37 31 59 31c18 0 30 -6 46 -27z" />
    <glyph glyph-name="Eacute" unicode="&#xc9;" horiz-adv-x="722" 
d="M642 245l-78 -245h-601l5 47h19c49 0 58 4 69 14c8 8 9 9 23 62l128 476c5 20 9 41 9 49c0 22 -14 27 -79 27h-26l6 47h584l-39 -241h-45v35c0 128 -54 159 -139 159h-58c-75 0 -83 -5 -100 -69l-55 -205h33c97 0 139 37 168 125l45 -6l-89 -334l-45 8c7 32 9 47 9 69
c0 61 -27 91 -101 91h-32l-59 -220c-10 -38 -11 -43 -11 -55c0 -24 18 -32 70 -32h54c137 0 201 37 289 198l5 8zM581 887c0 -13 -12 -28 -30 -36l-191 -86h-47l166 126c27 21 42 27 60 27c22 0 42 -14 42 -31z" />
    <glyph glyph-name="Ecircumflex" unicode="&#xca;" horiz-adv-x="722" 
d="M642 245l-78 -245h-601l5 47h19c49 0 58 4 69 14c8 8 9 9 23 62l128 476c5 20 9 41 9 49c0 22 -14 27 -79 27h-26l6 47h584l-39 -241h-45v35c0 128 -54 159 -139 159h-58c-75 0 -83 -5 -100 -69l-55 -205h33c97 0 139 37 168 125l45 -6l-89 -334l-45 8c7 32 9 47 9 69
c0 61 -27 91 -101 91h-32l-59 -220c-10 -38 -11 -43 -11 -55c0 -24 18 -32 70 -32h54c137 0 201 37 289 198l5 8zM598 766h-43l-104 94l-163 -94h-43l184 152h60z" />
    <glyph glyph-name="Edieresis" unicode="&#xcb;" horiz-adv-x="722" 
d="M642 245l-78 -245h-601l5 47h19c49 0 58 4 69 14c8 8 9 9 23 62l128 476c5 20 9 41 9 49c0 22 -14 27 -79 27h-26l6 47h584l-39 -241h-45v35c0 128 -54 159 -139 159h-58c-75 0 -83 -5 -100 -69l-55 -205h33c97 0 139 37 168 125l45 -6l-89 -334l-45 8c7 32 9 47 9 69
c0 61 -27 91 -101 91h-32l-59 -220c-10 -38 -11 -43 -11 -55c0 -24 18 -32 70 -32h54c137 0 201 37 289 198l5 8zM396 842c0 -27 -22 -49 -49 -49s-49 22 -49 49s22 49 49 49s49 -22 49 -49zM586 842c0 -27 -22 -49 -49 -49s-49 22 -49 49s22 49 49 49s49 -22 49 -49z" />
    <glyph glyph-name="Igrave" unicode="&#xcc;" horiz-adv-x="407" 
d="M277 0h-310l5 47c59 1 72 3 84 14c9 9 10 12 23 62l128 476c7 27 10 41 10 49c0 22 -14 27 -80 27h-22l6 47h310l-5 -47c-58 -1 -72 -3 -84 -14c-9 -9 -9 -10 -23 -62l-128 -476c-9 -34 -10 -39 -10 -48c0 -23 14 -28 80 -28h22zM415 765h-47l-145 86
c-14 8 -18 23 -11 36c10 17 37 31 59 31c18 0 30 -6 46 -27z" />
    <glyph glyph-name="Iacute" unicode="&#xcd;" horiz-adv-x="407" 
d="M277 0h-310l5 47c59 1 72 3 84 14c9 9 10 12 23 62l128 476c7 27 10 41 10 49c0 22 -14 27 -80 27h-22l6 47h310l-5 -47c-58 -1 -72 -3 -84 -14c-9 -9 -9 -10 -23 -62l-128 -476c-9 -34 -10 -39 -10 -48c0 -23 14 -28 80 -28h22zM467 887c0 -13 -12 -28 -30 -36l-191 -86
h-47l166 126c27 21 42 27 60 27c22 0 42 -14 42 -31z" />
    <glyph glyph-name="Icircumflex" unicode="&#xce;" horiz-adv-x="407" 
d="M277 0h-310l5 47c59 1 72 3 84 14c9 9 10 12 23 62l128 476c7 27 10 41 10 49c0 22 -14 27 -80 27h-22l6 47h310l-5 -47c-58 -1 -72 -3 -84 -14c-9 -9 -9 -10 -23 -62l-128 -476c-9 -34 -10 -39 -10 -48c0 -23 14 -28 80 -28h22zM484 766h-43l-104 94l-163 -94h-43
l184 152h60z" />
    <glyph glyph-name="Idieresis" unicode="&#xcf;" horiz-adv-x="407" 
d="M277 0h-310l5 47c59 1 72 3 84 14c9 9 10 12 23 62l128 476c7 27 10 41 10 49c0 22 -14 27 -80 27h-22l6 47h310l-5 -47c-58 -1 -72 -3 -84 -14c-9 -9 -9 -10 -23 -62l-128 -476c-9 -34 -10 -39 -10 -48c0 -23 14 -28 80 -28h22zM282 842c0 -27 -22 -49 -49 -49
s-49 22 -49 49s22 49 49 49s49 -22 49 -49zM472 842c0 -27 -22 -49 -49 -49s-49 22 -49 49s22 49 49 49s49 -22 49 -49z" />
    <glyph glyph-name="Eth" unicode="&#xd0;" horiz-adv-x="778" 
d="M735 435c0 -134 -68 -273 -175 -358c-68 -54 -156 -77 -289 -77h-309l5 47h18c49 0 59 4 70 14c8 8 9 8 23 62l60 231h-102l12 47h103l55 198c5 18 9 41 9 49c0 22 -14 27 -79 27h-26l6 47h290c112 0 175 -14 225 -52c67 -50 104 -133 104 -235zM613 480
c0 132 -57 195 -187 195h-30c-49 0 -58 3 -76 -65l-57 -209h198l-12 -47h-199l-63 -244c-4 -13 -7 -26 -6 -35c0 -18 16 -28 46 -28h32c96 0 161 18 205 57c81 73 149 244 149 376z" />
    <glyph glyph-name="Ntilde" unicode="&#xd1;" horiz-adv-x="815" 
d="M854 675c-84 -3 -104 -26 -142 -170l-139 -519h-39l-278 601l-99 -370c-23 -89 -24 -93 -24 -115c0 -37 19 -55 80 -55h21l-6 -47h-276l5 47c87 2 106 24 145 170l114 426c-8 27 -17 32 -65 32h-52l5 47h211l253 -552l90 335c22 89 23 93 23 115c0 37 -29 55 -90 55l6 47
h262zM700 895c-7 -58 -49 -105 -93 -105c-22 0 -31 2 -86 23c-44 16 -60 21 -74 21c-22 0 -37 -15 -45 -45h-30c12 66 45 105 90 105c17 0 41 -6 100 -26c36 -13 45 -15 59 -15c22 0 37 12 49 42h30z" />
    <glyph glyph-name="Ograve" unicode="&#xd2;" horiz-adv-x="778" 
d="M735 450c0 -238 -190 -465 -423 -465c-166 0 -272 113 -272 290c0 249 203 462 417 462c158 0 278 -118 278 -287zM618 496c0 111 -45 198 -158 198c-69 0 -126 -32 -179 -100c-65 -84 -123 -266 -123 -387c0 -110 60 -179 156 -179c78 0 151 43 196 116
c62 100 108 249 108 352zM601 765h-47l-145 86c-14 8 -18 23 -11 36c10 17 37 31 59 31c18 0 30 -6 46 -27z" />
    <glyph glyph-name="Oacute" unicode="&#xd3;" horiz-adv-x="778" 
d="M735 450c0 -238 -190 -465 -423 -465c-166 0 -272 113 -272 290c0 249 203 462 417 462c158 0 278 -118 278 -287zM618 496c0 111 -45 198 -158 198c-69 0 -126 -32 -179 -100c-65 -84 -123 -266 -123 -387c0 -110 60 -179 156 -179c78 0 151 43 196 116
c62 100 108 249 108 352zM653 887c0 -13 -12 -28 -30 -36l-191 -86h-47l166 126c27 21 42 27 60 27c22 0 42 -14 42 -31z" />
    <glyph glyph-name="Ocircumflex" unicode="&#xd4;" horiz-adv-x="778" 
d="M735 450c0 -238 -190 -465 -423 -465c-166 0 -272 113 -272 290c0 249 203 462 417 462c158 0 278 -118 278 -287zM618 496c0 111 -45 198 -158 198c-69 0 -126 -32 -179 -100c-65 -84 -123 -266 -123 -387c0 -110 60 -179 156 -179c78 0 151 43 196 116
c62 100 108 249 108 352zM670 766h-43l-104 94l-163 -94h-43l184 152h60z" />
    <glyph glyph-name="Otilde" unicode="&#xd5;" horiz-adv-x="778" 
d="M735 450c0 -238 -190 -465 -423 -465c-166 0 -272 113 -272 290c0 249 203 462 417 462c158 0 278 -118 278 -287zM618 496c0 111 -45 198 -158 198c-69 0 -126 -32 -179 -100c-65 -84 -123 -266 -123 -387c0 -110 60 -179 156 -179c78 0 151 43 196 116
c62 100 108 249 108 352zM677 895c-7 -58 -49 -105 -93 -105c-22 0 -31 2 -86 23c-44 16 -60 21 -74 21c-22 0 -37 -15 -45 -45h-30c12 66 45 105 90 105c17 0 41 -6 100 -26c36 -13 45 -15 59 -15c22 0 37 12 49 42h30z" />
    <glyph glyph-name="Odieresis" unicode="&#xd6;" horiz-adv-x="778" 
d="M735 450c0 -238 -190 -465 -423 -465c-166 0 -272 113 -272 290c0 249 203 462 417 462c158 0 278 -118 278 -287zM618 496c0 111 -45 198 -158 198c-69 0 -126 -32 -179 -100c-65 -84 -123 -266 -123 -387c0 -110 60 -179 156 -179c78 0 151 43 196 116
c62 100 108 249 108 352zM468 842c0 -27 -22 -49 -49 -49s-49 22 -49 49s22 49 49 49s49 -22 49 -49zM658 842c0 -27 -22 -49 -49 -49s-49 22 -49 49s22 49 49 49s49 -22 49 -49z" />
    <glyph glyph-name="multiply" unicode="&#xd7;" horiz-adv-x="606" 
d="M512 92l-56 -56l-158 157l-158 -157l-56 56l157 158l-157 158l56 56l158 -157l158 157l56 -56l-157 -158z" />
    <glyph glyph-name="Oslash" unicode="&#xd8;" horiz-adv-x="778" 
d="M735 451c0 -239 -190 -466 -422 -466c-63 0 -116 15 -160 44l-94 -116h-58l118 145c-52 51 -79 127 -79 218c0 245 194 461 413 461c64 0 123 -18 171 -53l53 66h58l-77 -95c52 -54 77 -120 77 -204zM584 634c-25 38 -71 59 -127 59c-66 0 -125 -33 -176 -99
c-65 -85 -123 -266 -123 -385c0 -27 5 -60 14 -84zM615 509c0 29 -4 56 -11 79l-409 -506c27 -35 68 -53 120 -53c192 0 300 269 300 480z" />
    <glyph glyph-name="Ugrave" unicode="&#xd9;" horiz-adv-x="815" 
d="M855 675c-88 -4 -97 -15 -140 -170l-56 -211c-64 -242 -123 -309 -316 -309c-163 0 -250 67 -250 191c0 34 4 60 20 118l82 305c5 20 9 41 9 49c0 22 -14 27 -79 27h-25l5 47h318l-6 -47h-18c-49 0 -59 -4 -69 -14c-10 -8 -9 -8 -23 -62l-90 -333
c-8 -28 -14 -77 -14 -103c0 -85 59 -135 161 -135c77 0 134 28 174 84c24 34 35 67 65 178l58 215c22 89 23 93 23 115c0 39 -29 55 -93 55l6 47h263zM620 765h-47l-145 86c-14 8 -18 23 -11 36c10 17 37 31 59 31c18 0 30 -6 46 -27z" />
    <glyph glyph-name="Uacute" unicode="&#xda;" horiz-adv-x="815" 
d="M855 675c-88 -4 -97 -15 -140 -170l-56 -211c-64 -242 -123 -309 -316 -309c-163 0 -250 67 -250 191c0 34 4 60 20 118l82 305c5 20 9 41 9 49c0 22 -14 27 -79 27h-25l5 47h318l-6 -47h-18c-49 0 -59 -4 -69 -14c-10 -8 -9 -8 -23 -62l-90 -333
c-8 -28 -14 -77 -14 -103c0 -85 59 -135 161 -135c77 0 134 28 174 84c24 34 35 67 65 178l58 215c22 89 23 93 23 115c0 39 -29 55 -93 55l6 47h263zM672 887c0 -13 -12 -28 -30 -36l-191 -86h-47l166 126c27 21 42 27 60 27c22 0 42 -14 42 -31z" />
    <glyph glyph-name="Ucircumflex" unicode="&#xdb;" horiz-adv-x="815" 
d="M855 675c-88 -4 -97 -15 -140 -170l-56 -211c-64 -242 -123 -309 -316 -309c-163 0 -250 67 -250 191c0 34 4 60 20 118l82 305c5 20 9 41 9 49c0 22 -14 27 -79 27h-25l5 47h318l-6 -47h-18c-49 0 -59 -4 -69 -14c-10 -8 -9 -8 -23 -62l-90 -333
c-8 -28 -14 -77 -14 -103c0 -85 59 -135 161 -135c77 0 134 28 174 84c24 34 35 67 65 178l58 215c22 89 23 93 23 115c0 39 -29 55 -93 55l6 47h263zM689 766h-43l-104 94l-163 -94h-43l184 152h60z" />
    <glyph glyph-name="Udieresis" unicode="&#xdc;" horiz-adv-x="815" 
d="M855 675c-88 -4 -97 -15 -140 -170l-56 -211c-64 -242 -123 -309 -316 -309c-163 0 -250 67 -250 191c0 34 4 60 20 118l82 305c5 20 9 41 9 49c0 22 -14 27 -79 27h-25l5 47h318l-6 -47h-18c-49 0 -59 -4 -69 -14c-10 -8 -9 -8 -23 -62l-90 -333
c-8 -28 -14 -77 -14 -103c0 -85 59 -135 161 -135c77 0 134 28 174 84c24 34 35 67 65 178l58 215c22 89 23 93 23 115c0 39 -29 55 -93 55l6 47h263zM487 842c0 -27 -22 -49 -49 -49s-49 22 -49 49s22 49 49 49s49 -22 49 -49zM677 842c0 -27 -22 -49 -49 -49
s-49 22 -49 49s22 49 49 49s49 -22 49 -49z" />
    <glyph glyph-name="Yacute" unicode="&#xdd;" horiz-adv-x="685" 
d="M753 675c-72 -4 -101 -23 -171 -111l-200 -256l-50 -185c-10 -41 -10 -41 -10 -49c0 -22 14 -27 80 -27h36l-5 -47h-347l6 47h22c49 0 73 4 83 14c9 8 9 9 23 62l50 185l-120 298c-23 56 -42 69 -101 69h-17l5 47h308l-5 -47h-28c-44 0 -61 -7 -61 -24c0 -8 4 -21 11 -38
l100 -249l170 218c16 19 26 41 26 54c0 24 -24 39 -64 39h-23l5 47h282zM608 887c0 -13 -12 -28 -30 -36l-191 -86h-47l166 126c27 21 42 27 60 27c22 0 42 -14 42 -31z" />
    <glyph glyph-name="Thorn" unicode="&#xde;" horiz-adv-x="667" 
d="M624 410c0 -80 -39 -145 -109 -183c-68 -36 -103 -41 -289 -41h-18l-17 -63c-9 -34 -10 -39 -10 -48c0 -23 14 -28 80 -28h22l-6 -47h-310l5 47c58 1 72 3 84 14c9 9 9 12 23 62l128 477c7 27 10 40 10 48c0 22 -14 27 -80 27h-22l6 47h310l-5 -47
c-98 -1 -88 -7 -107 -75l-3 -9h61c185 0 247 -74 247 -181zM512 421c0 89 -40 123 -145 123h-12c-41 0 -54 -10 -64 -48l-70 -263h19c98 -1 98 1 112 2c112 11 160 91 160 186z" />
    <glyph glyph-name="germandbls" unicode="&#xdf;" horiz-adv-x="556" 
d="M469 247c0 -127 -79 -261 -201 -261c-62 0 -106 36 -106 86c0 34 22 58 53 58c27 0 49 -19 49 -42c0 -14 -14 -40 -14 -51c0 -7 10 -14 21 -14c50 0 110 160 110 275c0 62 -25 91 -96 104c-20 3 -29 9 -29 22c0 10 9 19 19 19c3 0 3 -1 31 -5c15 -3 26 -3 32 -3
c55 0 103 82 103 176c0 57 -30 90 -80 90s-85 -34 -114 -110c-12 -30 -15 -42 -68 -247l-35 -143c-33 -145 -69 -266 -114 -385l-106 -18c31 50 72 168 129 378l44 175c43 170 70 243 111 300c42 58 93 85 158 85c96 0 159 -56 159 -143c0 -89 -50 -153 -148 -186
c64 -43 92 -92 92 -160z" />
    <glyph glyph-name="agrave" unicode="&#xe0;" horiz-adv-x="574" 
d="M523 141c-12 -27 -29 -55 -49 -83c-35 -49 -73 -73 -117 -73c-36 0 -61 26 -61 65c0 10 1 17 5 32c-50 -72 -90 -97 -152 -97c-89 0 -148 65 -148 163c0 80 30 164 81 230c47 60 104 92 165 92c65 0 115 -43 122 -105l27 90h87l-100 -336c-7 -25 -11 -44 -11 -54
c0 -14 10 -25 21 -25c26 0 61 42 99 118zM289 126c31 63 51 143 51 200c0 55 -29 89 -76 89c-30 0 -58 -12 -80 -35c-53 -54 -92 -158 -92 -246c0 -61 30 -98 80 -98s86 28 117 90zM377 525h-39l-108 96c-9 10 -11 25 -4 39c10 19 35 35 54 35c15 0 22 -7 34 -30z" />
    <glyph glyph-name="aacute" unicode="&#xe1;" horiz-adv-x="574" 
d="M523 141c-12 -27 -29 -55 -49 -83c-35 -49 -73 -73 -117 -73c-36 0 -61 26 -61 65c0 10 1 17 5 32c-50 -72 -90 -97 -152 -97c-89 0 -148 65 -148 163c0 80 30 164 81 230c47 60 104 92 165 92c65 0 115 -43 122 -105l27 90h87l-100 -336c-7 -25 -11 -44 -11 -54
c0 -14 10 -25 21 -25c26 0 61 42 99 118zM289 126c31 63 51 143 51 200c0 55 -29 89 -76 89c-30 0 -58 -12 -80 -35c-53 -54 -92 -158 -92 -246c0 -61 30 -98 80 -98s86 28 117 90zM433 660c0 -14 -10 -29 -25 -39l-159 -96h-39l138 140c24 23 35 30 50 30
c19 0 35 -16 35 -35z" />
    <glyph glyph-name="acircumflex" unicode="&#xe2;" horiz-adv-x="574" 
d="M523 141c-12 -27 -29 -55 -49 -83c-35 -49 -73 -73 -117 -73c-36 0 -61 26 -61 65c0 10 1 17 5 32c-50 -72 -90 -97 -152 -97c-89 0 -148 65 -148 163c0 80 30 164 81 230c47 60 104 92 165 92c65 0 115 -43 122 -105l27 90h87l-100 -336c-7 -25 -11 -44 -11 -54
c0 -14 10 -25 21 -25c26 0 61 42 99 118zM289 126c31 63 51 143 51 200c0 55 -29 89 -76 89c-30 0 -58 -12 -80 -35c-53 -54 -92 -158 -92 -246c0 -61 30 -98 80 -98s86 28 117 90zM440 526h-36l-86 104l-136 -104h-36l153 169h50z" />
    <glyph glyph-name="atilde" unicode="&#xe3;" horiz-adv-x="574" 
d="M523 141c-12 -27 -29 -55 -49 -83c-35 -49 -73 -73 -117 -73c-36 0 -61 26 -61 65c0 10 1 17 5 32c-50 -72 -90 -97 -152 -97c-89 0 -148 65 -148 163c0 80 30 164 81 230c47 60 104 92 165 92c65 0 115 -43 122 -105l27 90h87l-100 -336c-7 -25 -11 -44 -11 -54
c0 -14 10 -25 21 -25c26 0 61 42 99 118zM289 126c31 63 51 143 51 200c0 55 -29 89 -76 89c-30 0 -58 -12 -80 -35c-53 -54 -92 -158 -92 -246c0 -61 30 -98 80 -98s86 28 117 90zM480 663c-7 -58 -49 -105 -93 -105c-22 0 -31 2 -86 23c-44 16 -60 21 -74 21
c-22 0 -37 -15 -45 -45h-30c12 66 45 105 90 105c17 0 41 -6 100 -26c36 -13 45 -15 59 -15c22 0 37 12 49 42h30z" />
    <glyph glyph-name="adieresis" unicode="&#xe4;" horiz-adv-x="574" 
d="M523 141c-12 -27 -29 -55 -49 -83c-35 -49 -73 -73 -117 -73c-36 0 -61 26 -61 65c0 10 1 17 5 32c-50 -72 -90 -97 -152 -97c-89 0 -148 65 -148 163c0 80 30 164 81 230c47 60 104 92 165 92c65 0 115 -43 122 -105l27 90h87l-100 -336c-7 -25 -11 -44 -11 -54
c0 -14 10 -25 21 -25c26 0 61 42 99 118zM289 126c31 63 51 143 51 200c0 55 -29 89 -76 89c-30 0 -58 -12 -80 -35c-53 -54 -92 -158 -92 -246c0 -61 30 -98 80 -98s86 28 117 90zM270 610c0 -27 -22 -49 -49 -49s-49 22 -49 49s22 49 49 49s49 -22 49 -49zM460 610
c0 -27 -22 -49 -49 -49s-49 22 -49 49s22 49 49 49s49 -22 49 -49z" />
    <glyph glyph-name="aring" unicode="&#xe5;" horiz-adv-x="574" 
d="M523 141c-12 -27 -29 -55 -49 -83c-35 -49 -73 -73 -117 -73c-36 0 -61 26 -61 65c0 10 1 17 5 32c-50 -72 -90 -97 -152 -97c-89 0 -148 65 -148 163c0 80 30 164 81 230c47 60 104 92 165 92c65 0 115 -43 122 -105l27 90h87l-100 -336c-7 -25 -11 -44 -11 -54
c0 -14 10 -25 21 -25c26 0 61 42 99 118zM289 126c31 63 51 143 51 200c0 55 -29 89 -76 89c-30 0 -58 -12 -80 -35c-53 -54 -92 -158 -92 -246c0 -61 30 -98 80 -98s86 28 117 90zM415 611c0 -56 -45 -100 -101 -100c-53 0 -98 46 -98 100s45 99 100 99c54 0 99 -45 99 -99
zM379 611c0 34 -29 63 -63 63c-35 0 -64 -29 -64 -63c0 -35 29 -64 63 -64c36 0 64 28 64 64z" />
    <glyph glyph-name="ae" unicode="&#xe6;" horiz-adv-x="722" 
d="M638 91c-62 -73 -126 -106 -208 -106c-81 0 -128 36 -142 106c-52 -77 -104 -106 -188 -106c-73 0 -118 38 -118 99c0 96 90 146 321 176c13 51 15 66 15 88c0 50 -40 83 -100 83c-38 0 -71 -14 -71 -31c0 -4 25 -23 25 -51c0 -30 -21 -50 -53 -50c-33 0 -54 22 -54 56
c0 64 71 115 161 115c64 0 114 -24 153 -73c52 48 110 73 173 73c70 0 115 -40 115 -101c0 -95 -77 -140 -297 -177c-7 -25 -9 -37 -9 -55c0 -65 35 -104 95 -104c55 0 108 29 154 84zM581 375c0 32 -20 52 -51 52c-68 0 -112 -60 -152 -195c123 20 203 55 203 143zM293 220
c-142 -20 -218 -53 -218 -125c0 -35 25 -60 61 -60c76 0 123 51 157 185z" />
    <glyph glyph-name="ccedilla" unicode="&#xe7;" horiz-adv-x="444" 
d="M370 110c-47 -76 -114 -121 -185 -124l-27 -50c14 2 21 3 30 3c48 0 81 -28 81 -68c0 -52 -49 -87 -124 -87c-32 0 -60 5 -88 17l18 33c23 -8 43 -12 63 -12c33 0 55 16 55 40c0 23 -19 39 -48 39c-9 0 -20 -2 -33 -6l-9 6l47 85c-93 15 -145 79 -145 179
c0 161 126 305 266 305c72 0 130 -48 130 -108c0 -43 -27 -75 -63 -75c-31 0 -53 20 -53 49c0 24 10 36 37 48c11 4 16 9 16 15c0 17 -32 33 -64 33c-45 0 -84 -25 -116 -74c-34 -52 -61 -145 -61 -213s38 -112 96 -112c49 0 94 30 148 99z" />
    <glyph glyph-name="egrave" unicode="&#xe8;" horiz-adv-x="444" 
d="M363 89c-54 -70 -119 -104 -196 -104c-108 0 -173 65 -173 173c0 163 132 312 278 312c70 0 119 -42 119 -103c0 -58 -43 -109 -120 -143c-45 -20 -65 -26 -182 -54c-1 -13 -2 -27 -2 -34c0 -64 37 -104 97 -104c52 0 96 23 155 84zM307 373c0 34 -22 57 -55 57
c-74 0 -135 -86 -158 -221c56 12 73 17 102 30c72 32 111 79 111 134zM383 525h-39l-108 96c-9 10 -11 25 -4 39c10 19 35 35 54 35c15 0 22 -7 34 -30z" />
    <glyph glyph-name="eacute" unicode="&#xe9;" horiz-adv-x="444" 
d="M363 89c-54 -70 -119 -104 -196 -104c-108 0 -173 65 -173 173c0 163 132 312 278 312c70 0 119 -42 119 -103c0 -58 -43 -109 -120 -143c-45 -20 -65 -26 -182 -54c-1 -13 -2 -27 -2 -34c0 -64 37 -104 97 -104c52 0 96 23 155 84zM307 373c0 34 -22 57 -55 57
c-74 0 -135 -86 -158 -221c56 12 73 17 102 30c72 32 111 79 111 134zM439 660c0 -14 -10 -29 -25 -39l-159 -96h-39l138 140c24 23 35 30 50 30c19 0 35 -16 35 -35z" />
    <glyph glyph-name="ecircumflex" unicode="&#xea;" horiz-adv-x="444" 
d="M363 89c-54 -70 -119 -104 -196 -104c-108 0 -173 65 -173 173c0 163 132 312 278 312c70 0 119 -42 119 -103c0 -58 -43 -109 -120 -143c-45 -20 -65 -26 -182 -54c-1 -13 -2 -27 -2 -34c0 -64 37 -104 97 -104c52 0 96 23 155 84zM307 373c0 34 -22 57 -55 57
c-74 0 -135 -86 -158 -221c56 12 73 17 102 30c72 32 111 79 111 134zM446 526h-36l-86 104l-136 -104h-36l153 169h50z" />
    <glyph glyph-name="edieresis" unicode="&#xeb;" horiz-adv-x="444" 
d="M363 89c-54 -70 -119 -104 -196 -104c-108 0 -173 65 -173 173c0 163 132 312 278 312c70 0 119 -42 119 -103c0 -58 -43 -109 -120 -143c-45 -20 -65 -26 -182 -54c-1 -13 -2 -27 -2 -34c0 -64 37 -104 97 -104c52 0 96 23 155 84zM307 373c0 34 -22 57 -55 57
c-74 0 -135 -86 -158 -221c56 12 73 17 102 30c72 32 111 79 111 134zM276 610c0 -27 -22 -49 -49 -49s-49 22 -49 49s22 49 49 49s49 -22 49 -49zM466 610c0 -27 -22 -49 -49 -49s-49 22 -49 49s22 49 49 49s49 -22 49 -49z" />
    <glyph glyph-name="igrave" unicode="&#xec;" 
d="M282 140c-28 -43 -44 -65 -62 -85c-40 -46 -81 -69 -124 -69c-39 0 -69 27 -69 62c0 22 4 38 22 101l58 195c6 22 9 35 9 44c0 22 -16 31 -57 31h-24l4 36l192 15l-106 -357c-8 -28 -12 -46 -12 -56c0 -12 7 -21 17 -21c27 0 71 44 121 121zM282 525h-39l-108 96
c-9 10 -11 25 -4 39c10 19 35 35 54 35c15 0 22 -7 34 -30z" />
    <glyph glyph-name="iacute" unicode="&#xed;" 
d="M282 140c-28 -43 -44 -65 -62 -85c-40 -46 -81 -69 -124 -69c-39 0 -69 27 -69 62c0 22 4 38 22 101l58 195c6 22 9 35 9 44c0 22 -16 31 -57 31h-24l4 36l192 15l-106 -357c-8 -28 -12 -46 -12 -56c0 -12 7 -21 17 -21c27 0 71 44 121 121zM337 660
c0 -14 -10 -29 -25 -39l-159 -96h-39l138 140c24 23 35 30 50 30c19 0 35 -16 35 -35z" />
    <glyph glyph-name="icircumflex" unicode="&#xee;" 
d="M282 140c-28 -43 -44 -65 -62 -85c-40 -46 -81 -69 -124 -69c-39 0 -69 27 -69 62c0 22 4 38 22 101l58 195c6 22 9 35 9 44c0 22 -16 31 -57 31h-24l4 36l192 15l-106 -357c-8 -28 -12 -46 -12 -56c0 -12 7 -21 17 -21c27 0 71 44 121 121zM345 526h-36l-86 104
l-136 -104h-36l153 169h50z" />
    <glyph glyph-name="idieresis" unicode="&#xef;" 
d="M282 140c-28 -43 -44 -65 -62 -85c-40 -46 -81 -69 -124 -69c-39 0 -69 27 -69 62c0 22 4 38 22 101l58 195c6 22 9 35 9 44c0 22 -16 31 -57 31h-24l4 36l192 15l-106 -357c-8 -28 -12 -46 -12 -56c0 -12 7 -21 17 -21c27 0 71 44 121 121zM175 610
c0 -27 -22 -49 -49 -49s-49 22 -49 49s22 49 49 49s49 -22 49 -49zM365 610c0 -27 -22 -49 -49 -49s-49 22 -49 49s22 49 49 49s49 -22 49 -49z" />
    <glyph glyph-name="eth" unicode="&#xf0;" horiz-adv-x="500" 
d="M450 292c0 -172 -124 -307 -267 -307c-109 0 -178 73 -178 188c0 159 130 297 269 297c23 0 45 -5 68 -15l-3 6l-17 33c-19 36 -44 66 -67 89l-135 -67l-17 35l121 61c-23 20 -31 27 -73 60l38 39c44 -24 66 -39 101 -66l142 71l18 -35l-126 -63
c87 -87 126 -192 126 -326zM319 147c21 51 36 120 36 161c0 78 -32 124 -87 124c-100 0 -173 -159 -173 -304c0 -68 31 -105 89 -105s101 39 135 124z" />
    <glyph glyph-name="ntilde" unicode="&#xf1;" horiz-adv-x="611" 
d="M562 135c-56 -97 -120 -150 -183 -150c-40 0 -70 32 -70 74c0 22 5 45 18 84l53 156c10 31 15 53 15 70c0 23 -17 41 -40 41c-43 0 -96 -39 -139 -103c-36 -53 -48 -81 -74 -168l-41 -139h-87l102 344c6 22 9 35 9 44c0 22 -16 31 -57 31h-24l4 36l181 15l-29 -135
c67 92 126 135 185 135c53 0 96 -44 96 -97c0 -29 -8 -68 -24 -113l-47 -138c-16 -44 -19 -56 -19 -67s8 -19 18 -19c31 0 74 41 124 120zM533 663c-7 -58 -49 -105 -93 -105c-22 0 -31 2 -86 23c-44 16 -60 21 -74 21c-22 0 -37 -15 -45 -45h-30c12 66 45 105 90 105
c17 0 41 -6 100 -26c36 -13 45 -15 59 -15c22 0 37 12 49 42h30z" />
    <glyph glyph-name="ograve" unicode="&#xf2;" horiz-adv-x="500" 
d="M450 281c0 -74 -32 -154 -85 -214c-48 -54 -110 -82 -182 -82c-109 0 -178 73 -178 187c0 83 29 155 84 212c54 56 119 86 184 86c97 0 177 -85 177 -189zM308 122c27 55 47 135 47 187c0 77 -32 123 -87 123c-38 0 -70 -18 -98 -54c-41 -55 -75 -167 -75 -250
c0 -68 31 -105 89 -105c53 0 90 30 124 99zM392 525h-39l-108 96c-9 10 -11 25 -4 39c10 19 35 35 54 35c15 0 22 -7 34 -30z" />
    <glyph glyph-name="oacute" unicode="&#xf3;" horiz-adv-x="500" 
d="M450 281c0 -74 -32 -154 -85 -214c-48 -54 -110 -82 -182 -82c-109 0 -178 73 -178 187c0 83 29 155 84 212c54 56 119 86 184 86c97 0 177 -85 177 -189zM308 122c27 55 47 135 47 187c0 77 -32 123 -87 123c-38 0 -70 -18 -98 -54c-41 -55 -75 -167 -75 -250
c0 -68 31 -105 89 -105c53 0 90 30 124 99zM447 660c0 -14 -10 -29 -25 -39l-159 -96h-39l138 140c24 23 35 30 50 30c19 0 35 -16 35 -35z" />
    <glyph glyph-name="ocircumflex" unicode="&#xf4;" horiz-adv-x="500" 
d="M450 281c0 -74 -32 -154 -85 -214c-48 -54 -110 -82 -182 -82c-109 0 -178 73 -178 187c0 83 29 155 84 212c54 56 119 86 184 86c97 0 177 -85 177 -189zM308 122c27 55 47 135 47 187c0 77 -32 123 -87 123c-38 0 -70 -18 -98 -54c-41 -55 -75 -167 -75 -250
c0 -68 31 -105 89 -105c53 0 90 30 124 99zM455 526h-36l-86 104l-136 -104h-36l153 169h50z" />
    <glyph glyph-name="otilde" unicode="&#xf5;" horiz-adv-x="500" 
d="M450 281c0 -74 -32 -154 -85 -214c-48 -54 -110 -82 -182 -82c-109 0 -178 73 -178 187c0 83 29 155 84 212c54 56 119 86 184 86c97 0 177 -85 177 -189zM308 122c27 55 47 135 47 187c0 77 -32 123 -87 123c-38 0 -70 -18 -98 -54c-41 -55 -75 -167 -75 -250
c0 -68 31 -105 89 -105c53 0 90 30 124 99zM495 663c-7 -58 -49 -105 -93 -105c-22 0 -31 2 -86 23c-44 16 -60 21 -74 21c-22 0 -37 -15 -45 -45h-30c12 66 45 105 90 105c17 0 41 -6 100 -26c36 -13 45 -15 59 -15c22 0 37 12 49 42h30z" />
    <glyph glyph-name="odieresis" unicode="&#xf6;" horiz-adv-x="500" 
d="M450 281c0 -74 -32 -154 -85 -214c-48 -54 -110 -82 -182 -82c-109 0 -178 73 -178 187c0 83 29 155 84 212c54 56 119 86 184 86c97 0 177 -85 177 -189zM308 122c27 55 47 135 47 187c0 77 -32 123 -87 123c-38 0 -70 -18 -98 -54c-41 -55 -75 -167 -75 -250
c0 -68 31 -105 89 -105c53 0 90 30 124 99zM285 610c0 -27 -22 -49 -49 -49s-49 22 -49 49s22 49 49 49s49 -22 49 -49zM475 610c0 -27 -22 -49 -49 -49s-49 22 -49 49s22 49 49 49s49 -22 49 -49z" />
    <glyph glyph-name="divide" unicode="&#xf7;" horiz-adv-x="606" 
d="M561 210h-526v80h526v-80zM360 431c0 -35 -28 -62 -62 -62s-62 27 -62 62c0 34 28 62 62 62s62 -28 62 -62zM360 70c0 -35 -28 -62 -62 -62s-62 27 -62 62c0 34 28 62 62 62s62 -28 62 -62z" />
    <glyph glyph-name="oslash" unicode="&#xf8;" horiz-adv-x="500" 
d="M440 282c0 -144 -111 -297 -269 -297c-23 0 -43 3 -64 8l-64 -113h-43l72 129c-50 32 -77 89 -77 164c0 158 129 297 268 297c22 0 43 -4 63 -12l52 90h43l-62 -108c51 -38 81 -96 81 -158zM304 418c-15 10 -29 14 -47 14c-96 0 -172 -159 -172 -303c0 -25 6 -50 16 -70z
M298 122c28 57 47 134 47 190c0 28 -5 54 -15 76l-201 -355c15 -7 28 -10 45 -10c53 0 90 30 124 99z" />
    <glyph glyph-name="ugrave" unicode="&#xf9;" horiz-adv-x="611" 
d="M556 135c-71 -110 -120 -150 -181 -150c-37 0 -64 28 -64 66c0 19 2 33 12 68c-59 -92 -116 -133 -186 -133c-56 0 -95 37 -95 92c0 31 0 31 31 131l40 135c5 18 8 34 8 43c0 23 -15 32 -56 32h-24l3 36l193 15l-98 -328c-8 -27 -11 -45 -11 -57c0 -24 19 -43 43 -43
c71 0 163 114 204 253l47 160h87l-99 -332c-8 -29 -12 -48 -12 -59c0 -13 9 -24 19 -24c20 0 60 41 109 113zM427 525h-39l-108 96c-9 10 -11 25 -4 39c10 19 35 35 54 35c15 0 22 -7 34 -30z" />
    <glyph glyph-name="uacute" unicode="&#xfa;" horiz-adv-x="611" 
d="M556 135c-71 -110 -120 -150 -181 -150c-37 0 -64 28 -64 66c0 19 2 33 12 68c-59 -92 -116 -133 -186 -133c-56 0 -95 37 -95 92c0 31 0 31 31 131l40 135c5 18 8 34 8 43c0 23 -15 32 -56 32h-24l3 36l193 15l-98 -328c-8 -27 -11 -45 -11 -57c0 -24 19 -43 43 -43
c71 0 163 114 204 253l47 160h87l-99 -332c-8 -29 -12 -48 -12 -59c0 -13 9 -24 19 -24c20 0 60 41 109 113zM482 660c0 -14 -10 -29 -25 -39l-159 -96h-39l138 140c24 23 35 30 50 30c19 0 35 -16 35 -35z" />
    <glyph glyph-name="ucircumflex" unicode="&#xfb;" horiz-adv-x="611" 
d="M556 135c-71 -110 -120 -150 -181 -150c-37 0 -64 28 -64 66c0 19 2 33 12 68c-59 -92 -116 -133 -186 -133c-56 0 -95 37 -95 92c0 31 0 31 31 131l40 135c5 18 8 34 8 43c0 23 -15 32 -56 32h-24l3 36l193 15l-98 -328c-8 -27 -11 -45 -11 -57c0 -24 19 -43 43 -43
c71 0 163 114 204 253l47 160h87l-99 -332c-8 -29 -12 -48 -12 -59c0 -13 9 -24 19 -24c20 0 60 41 109 113zM490 526h-36l-86 104l-136 -104h-36l153 169h50z" />
    <glyph glyph-name="udieresis" unicode="&#xfc;" horiz-adv-x="611" 
d="M556 135c-71 -110 -120 -150 -181 -150c-37 0 -64 28 -64 66c0 19 2 33 12 68c-59 -92 -116 -133 -186 -133c-56 0 -95 37 -95 92c0 31 0 31 31 131l40 135c5 18 8 34 8 43c0 23 -15 32 -56 32h-24l3 36l193 15l-98 -328c-8 -27 -11 -45 -11 -57c0 -24 19 -43 43 -43
c71 0 163 114 204 253l47 160h87l-99 -332c-8 -29 -12 -48 -12 -59c0 -13 9 -24 19 -24c20 0 60 41 109 113zM320 610c0 -27 -22 -49 -49 -49s-49 22 -49 49s22 49 49 49s49 -22 49 -49zM510 610c0 -27 -22 -49 -49 -49s-49 22 -49 49s22 49 49 49s49 -22 49 -49z" />
    <glyph glyph-name="yacute" unicode="&#xfd;" horiz-adv-x="500" 
d="M454 418c0 -33 -12 -64 -69 -174c-75 -146 -154 -278 -201 -338c-59 -74 -113 -108 -171 -108c-52 0 -92 33 -92 74c0 30 23 54 52 54c19 0 36 -12 43 -31c3 -8 3 -8 3 -39c0 -10 7 -16 19 -16c27 0 66 28 106 77c17 22 24 32 57 84c-22 126 -40 210 -71 324
c-11 43 -24 64 -38 64c-17 0 -28 -16 -65 -96l-31 14c41 108 86 163 130 163c43 0 71 -46 94 -155l44 -211c65 103 104 197 104 247c0 15 0 18 -6 52c-1 6 -2 12 -2 17c0 27 22 50 49 50s45 -21 45 -52zM422 660c0 -14 -10 -29 -25 -39l-159 -96h-39l138 140
c24 23 35 30 50 30c19 0 35 -16 35 -35z" />
    <glyph glyph-name="thorn" unicode="&#xfe;" horiz-adv-x="574" 
d="M506 307c0 -160 -112 -322 -260 -322c-66 0 -92 19 -120 88l-48 -163c-11 -42 -11 -42 -11 -51c0 -19 16 -25 64 -25h12l-4 -36h-240l4 36c68 3 68 4 88 76l209 701c7 25 9 35 9 43c0 23 -16 32 -57 32h-32l4 36l199 15l-104 -352c45 55 98 85 149 85
c75 0 138 -61 138 -163zM365 144c30 62 47 129 47 185c0 53 -30 88 -75 88c-96 0 -185 -172 -185 -290c0 -53 36 -92 84 -92c53 0 93 34 129 109z" />
    <glyph glyph-name="ydieresis" unicode="&#xff;" horiz-adv-x="500" 
d="M454 418c0 -33 -12 -64 -69 -174c-75 -146 -154 -278 -201 -338c-59 -74 -113 -108 -171 -108c-52 0 -92 33 -92 74c0 30 23 54 52 54c19 0 36 -12 43 -31c3 -8 3 -8 3 -39c0 -10 7 -16 19 -16c27 0 66 28 106 77c17 22 24 32 57 84c-22 126 -40 210 -71 324
c-11 43 -24 64 -38 64c-17 0 -28 -16 -65 -96l-31 14c41 108 86 163 130 163c43 0 71 -46 94 -155l44 -211c65 103 104 197 104 247c0 15 0 18 -6 52c-1 6 -2 12 -2 17c0 27 22 50 49 50s45 -21 45 -52zM259 610c0 -27 -22 -49 -49 -49s-49 22 -49 49s22 49 49 49
s49 -22 49 -49zM449 610c0 -27 -22 -49 -49 -49s-49 22 -49 49s22 49 49 49s49 -22 49 -49z" />
    <glyph glyph-name="Amacron" unicode="&#x100;" horiz-adv-x="704" 
d="M663 0h-301l5 47h23c57 0 65 7 65 36c0 7 -2 20 -4 32l-23 123h-255l-55 -96c-12 -20 -18 -40 -18 -55c0 -30 17 -40 69 -40h24l-6 -47h-269l5 47c54 0 95 33 148 121l330 569h41l125 -629c10 -52 21 -61 76 -61h25zM420 285l-57 287l-163 -287h220zM595 817h-301l11 51
h301z" />
    <glyph glyph-name="amacron" unicode="&#x101;" horiz-adv-x="574" 
d="M523 141c-12 -27 -29 -55 -49 -83c-35 -49 -73 -73 -117 -73c-36 0 -61 26 -61 65c0 10 1 17 5 32c-50 -72 -90 -97 -152 -97c-89 0 -148 65 -148 163c0 80 30 164 81 230c47 60 104 92 165 92c65 0 115 -43 122 -105l27 90h87l-100 -336c-7 -25 -11 -44 -11 -54
c0 -14 10 -25 21 -25c26 0 61 42 99 118zM289 126c31 63 51 143 51 200c0 55 -29 89 -76 89c-30 0 -58 -12 -80 -35c-53 -54 -92 -158 -92 -246c0 -61 30 -98 80 -98s86 28 117 90zM461 585h-301l11 51h301z" />
    <glyph glyph-name="Abreve" unicode="&#x102;" horiz-adv-x="704" 
d="M663 0h-301l5 47h23c57 0 65 7 65 36c0 7 -2 20 -4 32l-23 123h-255l-55 -96c-12 -20 -18 -40 -18 -55c0 -30 17 -40 69 -40h24l-6 -47h-269l5 47c54 0 95 33 148 121l330 569h41l125 -629c10 -52 21 -61 76 -61h25zM420 285l-57 287l-163 -287h220zM630 914
c-21 -87 -99 -143 -200 -143c-107 0 -174 65 -160 143h36c4 -54 53 -86 129 -86c72 0 128 30 158 86h37z" />
    <glyph glyph-name="abreve" unicode="&#x103;" horiz-adv-x="574" 
d="M523 141c-12 -27 -29 -55 -49 -83c-35 -49 -73 -73 -117 -73c-36 0 -61 26 -61 65c0 10 1 17 5 32c-50 -72 -90 -97 -152 -97c-89 0 -148 65 -148 163c0 80 30 164 81 230c47 60 104 92 165 92c65 0 115 -43 122 -105l27 90h87l-100 -336c-7 -25 -11 -44 -11 -54
c0 -14 10 -25 21 -25c26 0 61 42 99 118zM289 126c31 63 51 143 51 200c0 55 -29 89 -76 89c-30 0 -58 -12 -80 -35c-53 -54 -92 -158 -92 -246c0 -61 30 -98 80 -98s86 28 117 90zM462 690c-18 -97 -83 -159 -167 -159c-79 0 -134 56 -134 135c0 5 0 14 1 24h30
c3 -60 44 -96 107 -96c60 0 107 34 132 96h31z" />
    <glyph glyph-name="Aogonek" unicode="&#x104;" horiz-adv-x="704" 
d="M625 -142c-30 -40 -80 -80 -117 -80c-40 0 -80 41 -83 91c3 48 36 90 80 131h-143l5 47h23c57 0 65 7 65 36c0 7 -2 20 -4 32l-23 123h-255l-55 -96c-12 -20 -18 -40 -18 -55c0 -30 17 -40 69 -40h24l-6 -47h-269l5 47c54 0 95 33 148 121l330 569h41l125 -629
c10 -52 21 -61 76 -61h25l-5 -47h-47c-59 0 -119 -44 -119 -94c0 -32 14 -61 44 -61c21 0 36 5 64 31zM420 285l-57 287l-163 -287h220z" />
    <glyph glyph-name="aogonek" unicode="&#x105;" horiz-adv-x="574" 
d="M447 -142c-30 -40 -80 -80 -117 -80c-40 0 -80 41 -83 91c3 46 34 86 75 126c-16 11 -26 31 -26 55c0 10 1 17 5 32c-50 -72 -90 -97 -152 -97c-89 0 -148 65 -148 163c0 80 30 164 81 230c47 60 104 92 165 92c65 0 115 -43 122 -105l27 90h87l-100 -336
c-7 -25 -11 -44 -11 -54c0 -14 10 -25 21 -25c26 0 61 42 99 118l31 -17c-12 -27 -29 -55 -49 -83c-25 -34 -50 -56 -79 -66c-40 -15 -76 -50 -76 -86c0 -32 14 -61 44 -61c21 0 36 5 64 31zM289 126c31 63 51 143 51 200c0 55 -29 89 -76 89c-30 0 -58 -12 -80 -35
c-53 -54 -92 -158 -92 -246c0 -61 30 -98 80 -98s86 28 117 90z" />
    <glyph glyph-name="Cacute" unicode="&#x106;" horiz-adv-x="722" 
d="M634 205c-66 -155 -163 -220 -300 -220c-178 0 -294 117 -294 295c0 234 193 457 402 457c76 0 127 -23 175 -80l60 58h36l-56 -280h-41c-7 188 -64 259 -166 259c-175 0 -285 -261 -285 -454c0 -117 61 -206 186 -206c106 0 175 48 242 189zM656 887
c0 -13 -12 -28 -30 -36l-191 -86h-47l166 126c27 21 42 27 60 27c22 0 42 -14 42 -31z" />
    <glyph glyph-name="cacute" unicode="&#x107;" horiz-adv-x="444" 
d="M370 110c-53 -83 -118 -125 -193 -125c-104 0 -172 71 -172 181c0 160 126 304 266 304c72 0 130 -48 130 -108c0 -43 -27 -75 -63 -75c-31 0 -53 20 -53 49c0 24 10 36 37 48c11 4 16 9 16 15c0 17 -32 33 -64 33c-44 0 -80 -24 -115 -74c-39 -56 -62 -135 -62 -206
c0 -75 34 -119 93 -119c48 0 101 34 151 99zM443 660c0 -14 -10 -29 -25 -39l-159 -96h-39l138 140c24 23 35 30 50 30c19 0 35 -16 35 -35z" />
    <glyph glyph-name="Ccircumflex" unicode="&#x108;" horiz-adv-x="722" 
d="M634 205c-66 -155 -163 -220 -300 -220c-178 0 -294 117 -294 295c0 234 193 457 402 457c76 0 127 -23 175 -80l60 58h36l-56 -280h-41c-7 188 -64 259 -166 259c-175 0 -285 -261 -285 -454c0 -117 61 -206 186 -206c106 0 175 48 242 189zM673 766h-43l-104 94
l-163 -94h-43l184 152h60z" />
    <glyph glyph-name="ccircumflex" unicode="&#x109;" horiz-adv-x="444" 
d="M370 110c-53 -83 -118 -125 -193 -125c-104 0 -172 71 -172 181c0 160 126 304 266 304c72 0 130 -48 130 -108c0 -43 -27 -75 -63 -75c-31 0 -53 20 -53 49c0 24 10 36 37 48c11 4 16 9 16 15c0 17 -32 33 -64 33c-44 0 -80 -24 -115 -74c-39 -56 -62 -135 -62 -206
c0 -75 34 -119 93 -119c48 0 101 34 151 99zM451 526h-36l-86 104l-136 -104h-36l153 169h50z" />
    <glyph glyph-name="Cdotaccent" unicode="&#x10a;" horiz-adv-x="722" 
d="M634 205c-66 -155 -163 -220 -300 -220c-178 0 -294 117 -294 295c0 234 193 457 402 457c76 0 127 -23 175 -80l60 58h36l-56 -280h-41c-7 188 -64 259 -166 259c-175 0 -285 -261 -285 -454c0 -117 61 -206 186 -206c106 0 175 48 242 189zM566 842
c0 -27 -22 -49 -49 -49s-49 22 -49 49s22 49 49 49s49 -22 49 -49z" />
    <glyph glyph-name="cdotaccent" unicode="&#x10b;" horiz-adv-x="444" 
d="M370 110c-53 -83 -118 -125 -193 -125c-104 0 -172 71 -172 181c0 160 126 304 266 304c72 0 130 -48 130 -108c0 -43 -27 -75 -63 -75c-31 0 -53 20 -53 49c0 24 10 36 37 48c11 4 16 9 16 15c0 17 -32 33 -64 33c-44 0 -80 -24 -115 -74c-39 -56 -62 -135 -62 -206
c0 -75 34 -119 93 -119c48 0 101 34 151 99zM376 610c0 -27 -22 -49 -49 -49s-49 22 -49 49s22 49 49 49s49 -22 49 -49z" />
    <glyph glyph-name="Ccaron" unicode="&#x10c;" horiz-adv-x="722" 
d="M634 205c-66 -155 -163 -220 -300 -220c-178 0 -294 117 -294 295c0 234 193 457 402 457c76 0 127 -23 175 -80l60 58h36l-56 -280h-41c-7 188 -64 259 -166 259c-175 0 -285 -261 -285 -454c0 -117 61 -206 186 -206c106 0 175 48 242 189zM713 918l-184 -152h-60
l-109 152h43l104 -94l163 94h43z" />
    <glyph glyph-name="ccaron" unicode="&#x10d;" horiz-adv-x="444" 
d="M370 110c-53 -83 -118 -125 -193 -125c-104 0 -172 71 -172 181c0 160 126 304 266 304c72 0 130 -48 130 -108c0 -43 -27 -75 -63 -75c-31 0 -53 20 -53 49c0 24 10 36 37 48c11 4 16 9 16 15c0 17 -32 33 -64 33c-44 0 -80 -24 -115 -74c-39 -56 -62 -135 -62 -206
c0 -75 34 -119 93 -119c48 0 101 34 151 99zM490 692l-159 -163h-51l-95 163h37l89 -98l142 98h37z" />
    <glyph glyph-name="Dcaron" unicode="&#x10e;" horiz-adv-x="778" 
d="M735 435c0 -134 -68 -273 -175 -358c-70 -55 -155 -77 -296 -77h-302l5 47h20c49 0 57 4 68 14c8 8 8 8 23 62l128 476c5 20 9 41 9 49c0 22 -14 27 -79 27h-26l6 47h290c112 0 175 -14 225 -52c67 -50 104 -133 104 -235zM614 489c0 122 -60 186 -188 186h-30
c-53 0 -60 -6 -76 -65l-133 -500c-3 -11 -6 -23 -6 -31c0 -22 13 -32 46 -32h32c97 0 161 18 206 57c81 71 149 248 149 385zM656 918l-184 -152h-60l-109 152h43l104 -94l163 94h43z" />
    <glyph glyph-name="dcaron" unicode="&#x10f;" horiz-adv-x="611" 
d="M564 140c-56 -106 -112 -155 -175 -155c-44 0 -68 25 -68 71c0 4 0 14 1 22c-44 -64 -94 -93 -162 -93c-93 0 -157 67 -157 165c0 166 134 320 278 320c35 0 69 -14 90 -36c11 -12 17 -22 25 -46l66 223c6 20 9 34 9 44c0 22 -16 31 -57 31h-31l4 36l199 15l-178 -600
c-10 -35 -15 -58 -15 -72c0 -17 9 -27 25 -27c33 0 58 26 116 120zM369 334c0 53 -36 91 -85 91s-93 -33 -131 -99c-32 -56 -53 -129 -53 -186c0 -65 36 -108 89 -108c48 0 90 33 123 97c32 61 57 152 57 205zM739 665c0 -69 -63 -139 -160 -176l-12 28
c67 30 107 72 114 117l-15 -1c-30 0 -50 19 -50 48c0 31 26 56 60 56c36 0 63 -30 63 -72z" />
    <glyph glyph-name="Dcroat" unicode="&#x110;" horiz-adv-x="778" 
d="M735 435c0 -134 -68 -273 -175 -358c-68 -54 -156 -77 -289 -77h-309l5 47h18c49 0 59 4 70 14c8 8 9 8 23 62l60 231h-102l12 47h103l55 198c5 18 9 41 9 49c0 22 -14 27 -79 27h-26l6 47h290c112 0 175 -14 225 -52c67 -50 104 -133 104 -235zM613 480
c0 132 -57 195 -187 195h-30c-49 0 -58 3 -76 -65l-57 -209h198l-12 -47h-199l-63 -244c-4 -13 -7 -26 -6 -35c0 -18 16 -28 46 -28h32c96 0 161 18 205 57c81 73 149 244 149 376z" />
    <glyph glyph-name="dcroat" unicode="&#x111;" horiz-adv-x="611" 
d="M564 140c-56 -106 -112 -155 -175 -155c-44 0 -68 25 -68 71c0 4 0 14 1 22c-44 -64 -94 -93 -162 -93c-93 0 -157 67 -157 165c0 166 134 320 278 320c35 0 69 -14 90 -36c11 -12 17 -22 25 -46l52 175h-124l10 47h128c7 23 9 35 9 44c0 23 -16 32 -57 32h-31l4 36
l199 15l-38 -127h87l-10 -47h-90l-127 -426c-10 -35 -15 -58 -15 -72c0 -17 9 -27 25 -27c33 0 58 26 116 120zM369 334c0 53 -36 91 -85 91s-93 -33 -131 -99c-32 -56 -53 -129 -53 -186c0 -65 36 -108 89 -108c48 0 90 33 123 97c32 61 57 152 57 205z" />
    <glyph glyph-name="Emacron" unicode="&#x112;" horiz-adv-x="722" 
d="M642 245l-78 -245h-601l5 47h19c49 0 58 4 69 14c8 8 9 9 23 62l128 476c5 20 9 41 9 49c0 22 -14 27 -79 27h-26l6 47h584l-39 -241h-45v35c0 128 -54 159 -139 159h-58c-75 0 -83 -5 -100 -69l-55 -205h33c97 0 139 37 168 125l45 -6l-89 -334l-45 8c7 32 9 47 9 69
c0 61 -27 91 -101 91h-32l-59 -220c-10 -38 -11 -43 -11 -55c0 -24 18 -32 70 -32h54c137 0 201 37 289 198l5 8zM587 817h-301l11 51h301z" />
    <glyph glyph-name="emacron" unicode="&#x113;" horiz-adv-x="444" 
d="M363 89c-54 -70 -119 -104 -196 -104c-108 0 -173 65 -173 173c0 163 132 312 278 312c70 0 119 -42 119 -103c0 -58 -43 -109 -120 -143c-45 -20 -65 -26 -182 -54c-1 -13 -2 -27 -2 -34c0 -64 37 -104 97 -104c52 0 96 23 155 84zM307 373c0 34 -22 57 -55 57
c-74 0 -135 -86 -158 -221c56 12 73 17 102 30c72 32 111 79 111 134zM467 585h-301l11 51h301z" />
    <glyph glyph-name="Ebreve" unicode="&#x114;" horiz-adv-x="722" 
d="M642 245l-78 -245h-601l5 47h19c49 0 58 4 69 14c8 8 9 9 23 62l128 476c5 20 9 41 9 49c0 22 -14 27 -79 27h-26l6 47h584l-39 -241h-45v35c0 128 -54 159 -139 159h-58c-75 0 -83 -5 -100 -69l-55 -205h33c97 0 139 37 168 125l45 -6l-89 -334l-45 8c7 32 9 47 9 69
c0 61 -27 91 -101 91h-32l-59 -220c-10 -38 -11 -43 -11 -55c0 -24 18 -32 70 -32h54c137 0 201 37 289 198l5 8zM622 914c-21 -87 -99 -143 -200 -143c-107 0 -174 65 -160 143h36c4 -54 53 -86 129 -86c72 0 128 30 158 86h37z" />
    <glyph glyph-name="ebreve" unicode="&#x115;" horiz-adv-x="444" 
d="M363 89c-54 -70 -119 -104 -196 -104c-108 0 -173 65 -173 173c0 163 132 312 278 312c70 0 119 -42 119 -103c0 -58 -43 -109 -120 -143c-45 -20 -65 -26 -182 -54c-1 -13 -2 -27 -2 -34c0 -64 37 -104 97 -104c52 0 96 23 155 84zM307 373c0 34 -22 57 -55 57
c-74 0 -135 -86 -158 -221c56 12 73 17 102 30c72 32 111 79 111 134zM468 690c-18 -97 -83 -159 -167 -159c-79 0 -134 56 -134 135c0 5 0 14 1 24h30c3 -60 44 -96 107 -96c60 0 107 34 132 96h31z" />
    <glyph glyph-name="Edotaccent" unicode="&#x116;" horiz-adv-x="722" 
d="M642 245l-78 -245h-601l5 47h19c49 0 58 4 69 14c8 8 9 9 23 62l128 476c5 20 9 41 9 49c0 22 -14 27 -79 27h-26l6 47h584l-39 -241h-45v35c0 128 -54 159 -139 159h-58c-75 0 -83 -5 -100 -69l-55 -205h33c97 0 139 37 168 125l45 -6l-89 -334l-45 8c7 32 9 47 9 69
c0 61 -27 91 -101 91h-32l-59 -220c-10 -38 -11 -43 -11 -55c0 -24 18 -32 70 -32h54c137 0 201 37 289 198l5 8zM491 842c0 -27 -22 -49 -49 -49s-49 22 -49 49s22 49 49 49s49 -22 49 -49z" />
    <glyph glyph-name="edotaccent" unicode="&#x117;" horiz-adv-x="444" 
d="M363 89c-54 -70 -119 -104 -196 -104c-108 0 -173 65 -173 173c0 163 132 312 278 312c70 0 119 -42 119 -103c0 -58 -43 -109 -120 -143c-45 -20 -65 -26 -182 -54c-1 -13 -2 -27 -2 -34c0 -64 37 -104 97 -104c52 0 96 23 155 84zM307 373c0 34 -22 57 -55 57
c-74 0 -135 -86 -158 -221c56 12 73 17 102 30c72 32 111 79 111 134zM371 610c0 -27 -22 -49 -49 -49s-49 22 -49 49s22 49 49 49s49 -22 49 -49z" />
    <glyph glyph-name="Eogonek" unicode="&#x118;" horiz-adv-x="722" 
d="M642 245l-78 -245h-63c-51 0 -103 -46 -103 -94c0 -32 14 -61 44 -61c21 0 36 5 64 31l20 -18c-30 -40 -80 -80 -117 -80c-40 0 -80 41 -83 91c3 48 36 90 80 131h-443l5 47h19c49 0 58 4 69 14c8 8 9 9 23 62l128 476c5 20 9 41 9 49c0 22 -14 27 -79 27h-26l6 47h584
l-39 -241h-45v35c0 128 -54 159 -139 159h-58c-75 0 -83 -5 -100 -69l-55 -205h33c97 0 139 37 168 125l45 -6l-89 -334l-45 8c7 32 9 47 9 69c0 61 -27 91 -101 91h-32l-59 -220c-10 -38 -11 -43 -11 -55c0 -24 18 -32 70 -32h54c137 0 201 37 289 198l5 8z" />
    <glyph glyph-name="eogonek" unicode="&#x119;" horiz-adv-x="444" 
d="M363 89c-38 -49 -81 -80 -130 -95c-40 -11 -70 -51 -70 -88c0 -32 14 -61 44 -61c21 0 36 5 64 31l20 -18c-30 -40 -80 -80 -117 -80c-40 0 -80 41 -83 91c3 42 29 80 65 116c-101 5 -162 69 -162 173c0 163 132 312 278 312c70 0 119 -42 119 -103
c0 -58 -43 -109 -120 -143c-45 -20 -65 -26 -182 -54c-1 -13 -2 -27 -2 -34c0 -64 37 -104 97 -104c52 0 96 23 155 84zM307 373c0 34 -22 57 -55 57c-74 0 -135 -86 -158 -221c56 12 73 17 102 30c72 32 111 79 111 134z" />
    <glyph glyph-name="Ecaron" unicode="&#x11a;" horiz-adv-x="722" 
d="M642 245l-78 -245h-601l5 47h19c49 0 58 4 69 14c8 8 9 9 23 62l128 476c5 20 9 41 9 49c0 22 -14 27 -79 27h-26l6 47h584l-39 -241h-45v35c0 128 -54 159 -139 159h-58c-75 0 -83 -5 -100 -69l-55 -205h33c97 0 139 37 168 125l45 -6l-89 -334l-45 8c7 32 9 47 9 69
c0 61 -27 91 -101 91h-32l-59 -220c-10 -38 -11 -43 -11 -55c0 -24 18 -32 70 -32h54c137 0 201 37 289 198l5 8zM638 918l-184 -152h-60l-109 152h43l104 -94l163 94h43z" />
    <glyph glyph-name="ecaron" unicode="&#x11b;" horiz-adv-x="444" 
d="M363 89c-54 -70 -119 -104 -196 -104c-108 0 -173 65 -173 173c0 163 132 312 278 312c70 0 119 -42 119 -103c0 -58 -43 -109 -120 -143c-45 -20 -65 -26 -182 -54c-1 -13 -2 -27 -2 -34c0 -64 37 -104 97 -104c52 0 96 23 155 84zM307 373c0 34 -22 57 -55 57
c-74 0 -135 -86 -158 -221c56 12 73 17 102 30c72 32 111 79 111 134zM485 692l-159 -163h-51l-95 163h37l89 -98l142 98h37z" />
    <glyph glyph-name="Gcircumflex" unicode="&#x11c;" horiz-adv-x="778" 
d="M757 285h-21c-42 0 -51 -3 -63 -13c-10 -8 -11 -9 -26 -63l-60 -223h-44l-12 81c-62 -59 -122 -82 -217 -82c-172 0 -275 107 -275 288c0 224 190 464 416 464c81 0 136 -25 188 -84l62 62h34l-55 -281l-42 7c-3 170 -69 253 -179 253c-90 0 -166 -57 -225 -169
c-47 -90 -77 -207 -77 -303c0 -121 67 -194 178 -194c96 0 162 52 188 150l18 80v5c0 17 -20 22 -79 22h-33l5 47h325zM670 766h-43l-104 94l-163 -94h-43l184 152h60z" />
    <glyph glyph-name="gcircumflex" unicode="&#x11d;" horiz-adv-x="537" 
d="M399 -40c0 -47 -25 -90 -68 -118c-49 -32 -106 -44 -205 -44c-83 0 -129 11 -169 39c-22 17 -36 45 -36 73c0 33 19 65 49 83c21 13 37 19 79 28c-39 19 -55 40 -55 74c0 24 13 51 33 67c23 20 44 27 90 33c-43 23 -62 56 -62 104c0 92 95 171 205 171c32 0 54 -5 86 -19
c52 41 79 54 114 54s63 -24 63 -52c0 -25 -18 -44 -40 -44c-16 0 -22 4 -38 26c-8 11 -16 16 -26 16c-12 0 -21 -5 -37 -19c39 -28 59 -65 59 -111c0 -45 -26 -96 -65 -127c-35 -28 -79 -42 -135 -42c-25 0 -31 1 -72 7c-14 2 -28 3 -41 3c-35 0 -60 -17 -60 -40
c0 -17 13 -29 37 -35c14 -3 22 -4 110 -9c68 -4 100 -11 132 -28c33 -18 52 -51 52 -90zM352 352c0 49 -33 80 -85 80c-72 0 -121 -63 -121 -153c0 -56 34 -90 88 -90c31 0 59 13 77 34c25 31 41 82 41 129zM322 -69c0 25 -12 42 -37 52c-23 10 -95 20 -140 20
c-90 0 -143 -32 -143 -86c0 -52 46 -77 142 -77c114 0 178 32 178 91zM422 526h-36l-86 104l-136 -104h-36l153 169h50z" />
    <glyph glyph-name="Gbreve" unicode="&#x11e;" horiz-adv-x="778" 
d="M757 285h-21c-42 0 -51 -3 -63 -13c-10 -8 -11 -9 -26 -63l-60 -223h-44l-12 81c-62 -59 -122 -82 -217 -82c-172 0 -275 107 -275 288c0 224 190 464 416 464c81 0 136 -25 188 -84l62 62h34l-55 -281l-42 7c-3 170 -69 253 -179 253c-90 0 -166 -57 -225 -169
c-47 -90 -77 -207 -77 -303c0 -121 67 -194 178 -194c96 0 162 52 188 150l18 80v5c0 17 -20 22 -79 22h-33l5 47h325zM694 914c-21 -87 -99 -143 -200 -143c-107 0 -174 65 -160 143h36c4 -54 53 -86 129 -86c72 0 128 30 158 86h37z" />
    <glyph glyph-name="gbreve" unicode="&#x11f;" horiz-adv-x="537" 
d="M399 -40c0 -47 -25 -90 -68 -118c-49 -32 -106 -44 -205 -44c-83 0 -129 11 -169 39c-22 17 -36 45 -36 73c0 33 19 65 49 83c21 13 37 19 79 28c-39 19 -55 40 -55 74c0 24 13 51 33 67c23 20 44 27 90 33c-43 23 -62 56 -62 104c0 92 95 171 205 171c32 0 54 -5 86 -19
c52 41 79 54 114 54s63 -24 63 -52c0 -25 -18 -44 -40 -44c-16 0 -22 4 -38 26c-8 11 -16 16 -26 16c-12 0 -21 -5 -37 -19c39 -28 59 -65 59 -111c0 -45 -26 -96 -65 -127c-35 -28 -79 -42 -135 -42c-25 0 -31 1 -72 7c-14 2 -28 3 -41 3c-35 0 -60 -17 -60 -40
c0 -17 13 -29 37 -35c14 -3 22 -4 110 -9c68 -4 100 -11 132 -28c33 -18 52 -51 52 -90zM352 352c0 49 -33 80 -85 80c-72 0 -121 -63 -121 -153c0 -56 34 -90 88 -90c31 0 59 13 77 34c25 31 41 82 41 129zM322 -69c0 25 -12 42 -37 52c-23 10 -95 20 -140 20
c-90 0 -143 -32 -143 -86c0 -52 46 -77 142 -77c114 0 178 32 178 91zM444 690c-18 -97 -83 -159 -167 -159c-79 0 -134 56 -134 135c0 5 0 14 1 24h30c3 -60 44 -96 107 -96c60 0 107 34 132 96h31z" />
    <glyph glyph-name="Gdotaccent" unicode="&#x120;" horiz-adv-x="778" 
d="M757 285h-21c-42 0 -51 -3 -63 -13c-10 -8 -11 -9 -26 -63l-60 -223h-44l-12 81c-62 -59 -122 -82 -217 -82c-172 0 -275 107 -275 288c0 224 190 464 416 464c81 0 136 -25 188 -84l62 62h34l-55 -281l-42 7c-3 170 -69 253 -179 253c-90 0 -166 -57 -225 -169
c-47 -90 -77 -207 -77 -303c0 -121 67 -194 178 -194c96 0 162 52 188 150l18 80v5c0 17 -20 22 -79 22h-33l5 47h325zM563 842c0 -27 -22 -49 -49 -49s-49 22 -49 49s22 49 49 49s49 -22 49 -49z" />
    <glyph glyph-name="gdotaccent" unicode="&#x121;" horiz-adv-x="537" 
d="M399 -40c0 -47 -25 -90 -68 -118c-49 -32 -106 -44 -205 -44c-83 0 -129 11 -169 39c-22 17 -36 45 -36 73c0 33 19 65 49 83c21 13 37 19 79 28c-39 19 -55 40 -55 74c0 24 13 51 33 67c23 20 44 27 90 33c-43 23 -62 56 -62 104c0 92 95 171 205 171c32 0 54 -5 86 -19
c52 41 79 54 114 54s63 -24 63 -52c0 -25 -18 -44 -40 -44c-16 0 -22 4 -38 26c-8 11 -16 16 -26 16c-12 0 -21 -5 -37 -19c39 -28 59 -65 59 -111c0 -45 -26 -96 -65 -127c-35 -28 -79 -42 -135 -42c-25 0 -31 1 -72 7c-14 2 -28 3 -41 3c-35 0 -60 -17 -60 -40
c0 -17 13 -29 37 -35c14 -3 22 -4 110 -9c68 -4 100 -11 132 -28c33 -18 52 -51 52 -90zM352 352c0 49 -33 80 -85 80c-72 0 -121 -63 -121 -153c0 -56 34 -90 88 -90c31 0 59 13 77 34c25 31 41 82 41 129zM322 -69c0 25 -12 42 -37 52c-23 10 -95 20 -140 20
c-90 0 -143 -32 -143 -86c0 -52 46 -77 142 -77c114 0 178 32 178 91zM347 610c0 -27 -22 -49 -49 -49s-49 22 -49 49s22 49 49 49s49 -22 49 -49z" />
    <glyph glyph-name="Gcommaaccent" unicode="&#x122;" horiz-adv-x="778" 
d="M757 285h-21c-42 0 -51 -3 -63 -13c-10 -8 -11 -9 -26 -63l-60 -223h-44l-12 81c-62 -59 -122 -82 -217 -82c-172 0 -275 107 -275 288c0 224 190 464 416 464c81 0 136 -25 188 -84l62 62h34l-55 -281l-42 7c-3 170 -69 253 -179 253c-90 0 -166 -57 -225 -169
c-47 -90 -77 -207 -77 -303c0 -121 67 -194 178 -194c96 0 162 52 188 150l18 80v5c0 17 -20 22 -79 22h-33l5 47h325zM340 -112c0 -69 -63 -139 -160 -176l-12 28c67 30 107 72 114 117l-15 -1c-30 0 -50 19 -50 48c0 31 26 56 60 56c36 0 63 -30 63 -72z" />
    <glyph glyph-name="gcommaaccent" unicode="&#x123;" horiz-adv-x="537" 
d="M405 755c-67 -30 -107 -72 -114 -117l15 1c30 0 50 -19 50 -48c0 -31 -26 -56 -60 -56c-36 0 -63 30 -63 72c0 69 63 139 160 176zM399 -40c0 -47 -25 -90 -68 -118c-49 -32 -106 -44 -205 -44c-83 0 -129 11 -169 39c-22 17 -36 45 -36 73c0 33 19 65 49 83
c21 13 37 19 79 28c-39 19 -55 40 -55 74c0 24 13 51 33 67c23 20 44 27 90 33c-43 23 -62 56 -62 104c0 92 95 171 205 171c32 0 54 -5 86 -19c52 41 79 54 114 54s63 -24 63 -52c0 -25 -18 -44 -40 -44c-16 0 -22 4 -38 26c-8 11 -16 16 -26 16c-12 0 -21 -5 -37 -19
c39 -28 59 -65 59 -111c0 -45 -26 -96 -65 -127c-35 -28 -79 -42 -135 -42c-25 0 -31 1 -72 7c-14 2 -28 3 -41 3c-35 0 -60 -17 -60 -40c0 -17 13 -29 37 -35c14 -3 22 -4 110 -9c68 -4 100 -11 132 -28c33 -18 52 -51 52 -90zM352 352c0 49 -33 80 -85 80
c-72 0 -121 -63 -121 -153c0 -56 34 -90 88 -90c31 0 59 13 77 34c25 31 41 82 41 129zM322 -69c0 25 -12 42 -37 52c-23 10 -95 20 -140 20c-90 0 -143 -32 -143 -86c0 -52 46 -77 142 -77c114 0 178 32 178 91z" />
    <glyph glyph-name="Hcircumflex" unicode="&#x124;" horiz-adv-x="833" 
d="M713 0h-317l5 47h17c49 0 60 4 71 14c8 8 8 9 23 62l61 231h-321l-62 -231c-10 -41 -10 -41 -10 -49c0 -22 14 -27 79 -27h26l-5 -47h-318l5 47h15c49 0 62 4 73 14c8 8 9 9 23 62l128 476c5 20 9 41 9 49c0 22 -14 27 -79 27h-26l6 47h317l-5 -47h-17
c-49 0 -60 -4 -70 -14c-9 -7 -9 -7 -23 -62l-54 -198h322l53 198c7 24 10 41 10 49c0 22 -14 27 -79 27h-26l5 47h318l-5 -47h-17c-50 0 -60 -4 -71 -14c-8 -7 -8 -7 -23 -62l-128 -476c-5 -19 -9 -42 -9 -49c0 -22 14 -27 79 -27h26zM700 766h-43l-104 94l-163 -94h-43
l184 152h60z" />
    <glyph glyph-name="hcircumflex" unicode="&#x125;" horiz-adv-x="611" 
d="M555 133c-54 -95 -120 -148 -182 -148c-40 0 -70 32 -70 75c0 21 5 43 18 83l53 156c10 31 15 53 15 70c0 24 -18 41 -44 41c-47 0 -97 -36 -143 -103c-36 -52 -48 -81 -74 -168l-41 -139h-87l181 611c6 21 9 35 9 44c0 22 -16 31 -57 31h-31l4 36l199 15l-119 -402
c68 94 126 135 188 135c57 0 101 -42 101 -98c0 -28 -8 -67 -24 -112l-47 -138c-16 -45 -19 -56 -19 -67s8 -19 18 -19c31 0 72 39 123 118zM692 781h-43l-104 94l-163 -94h-43l184 152h60z" />
    <glyph glyph-name="Hbar" unicode="&#x126;" horiz-adv-x="833" 
d="M859 521h-129l-107 -398c-5 -19 -9 -42 -9 -49c0 -22 14 -27 79 -27h26l-6 -47h-317l5 47h17c49 0 60 4 71 14c8 8 8 9 23 62l61 231h-321l-62 -231c-10 -41 -10 -41 -10 -49c0 -22 14 -27 79 -27h26l-5 -47h-318l5 47h15c49 0 62 4 73 14c8 8 9 9 23 62l107 398h-117v42
h128l10 36c5 20 9 41 9 49c0 22 -14 27 -79 27h-26l6 47h317l-5 -47h-17c-49 0 -60 -4 -70 -14c-9 -7 -9 -7 -23 -62l-10 -36h321l10 36c7 24 10 41 10 49c0 22 -14 27 -79 27h-26l5 47h318l-5 -47h-17c-50 0 -60 -4 -71 -14c-8 -7 -8 -7 -23 -62l-10 -36h117zM586 401
l32 120h-321l-33 -120h322z" />
    <glyph glyph-name="hbar" unicode="&#x127;" horiz-adv-x="692" 
d="M687 133c-54 -95 -120 -148 -182 -148c-40 0 -70 32 -70 75c0 21 5 43 18 83l53 156c10 31 15 53 15 70c0 24 -18 41 -44 41c-47 0 -97 -36 -143 -103c-36 -52 -48 -81 -74 -168l-41 -139h-87l143 483l-105 -31v36l117 34l26 89c6 21 9 35 9 44c0 22 -16 31 -57 31h-31
l4 36l199 15l-55 -187l215 64v-36l-227 -67l-52 -176c68 94 126 135 188 135c57 0 101 -42 101 -98c0 -28 -8 -67 -24 -112l-47 -138c-16 -45 -19 -56 -19 -67s8 -19 18 -19c31 0 72 39 123 118z" />
    <glyph glyph-name="Itilde" unicode="&#x128;" horiz-adv-x="407" 
d="M277 0h-310l5 47c59 1 72 3 84 14c9 9 10 12 23 62l128 476c7 27 10 41 10 49c0 22 -14 27 -80 27h-22l6 47h310l-5 -47c-58 -1 -72 -3 -84 -14c-9 -9 -9 -10 -23 -62l-128 -476c-9 -34 -10 -39 -10 -48c0 -23 14 -28 80 -28h22zM491 895c-7 -58 -49 -105 -93 -105
c-22 0 -31 2 -86 23c-44 16 -60 21 -74 21c-22 0 -37 -15 -45 -45h-30c12 66 45 105 90 105c17 0 41 -6 100 -26c36 -13 45 -15 59 -15c22 0 37 12 49 42h30z" />
    <glyph glyph-name="itilde" unicode="&#x129;" 
d="M282 140c-28 -43 -44 -65 -62 -85c-40 -46 -81 -69 -124 -69c-39 0 -69 27 -69 62c0 22 4 38 22 101l58 195c6 22 9 35 9 44c0 22 -16 31 -57 31h-24l4 36l192 15l-106 -357c-8 -28 -12 -46 -12 -56c0 -12 7 -21 17 -21c27 0 71 44 121 121zM385 663
c-7 -58 -49 -105 -93 -105c-22 0 -31 2 -86 23c-44 16 -60 21 -74 21c-22 0 -37 -15 -45 -45h-30c12 66 45 105 90 105c17 0 41 -6 100 -26c36 -13 45 -15 59 -15c22 0 37 12 49 42h30z" />
    <glyph glyph-name="Imacron" unicode="&#x12a;" horiz-adv-x="407" 
d="M277 0h-310l5 47c59 1 72 3 84 14c9 9 10 12 23 62l128 476c7 27 10 41 10 49c0 22 -14 27 -80 27h-22l6 47h310l-5 -47c-58 -1 -72 -3 -84 -14c-9 -9 -9 -10 -23 -62l-128 -476c-9 -34 -10 -39 -10 -48c0 -23 14 -28 80 -28h22zM473 817h-301l11 51h301z" />
    <glyph glyph-name="imacron" unicode="&#x12b;" 
d="M282 140c-28 -43 -44 -65 -62 -85c-40 -46 -81 -69 -124 -69c-39 0 -69 27 -69 62c0 22 4 38 22 101l58 195c6 22 9 35 9 44c0 22 -16 31 -57 31h-24l4 36l192 15l-106 -357c-8 -28 -12 -46 -12 -56c0 -12 7 -21 17 -21c27 0 71 44 121 121zM366 585h-301l11 51h301z" />
    <glyph glyph-name="Ibreve" unicode="&#x12c;" horiz-adv-x="407" 
d="M277 0h-310l5 47c59 1 72 3 84 14c9 9 10 12 23 62l128 476c7 27 10 41 10 49c0 22 -14 27 -80 27h-22l6 47h310l-5 -47c-58 -1 -72 -3 -84 -14c-9 -9 -9 -10 -23 -62l-128 -476c-9 -34 -10 -39 -10 -48c0 -23 14 -28 80 -28h22zM508 914c-21 -87 -99 -143 -200 -143
c-107 0 -174 65 -160 143h36c4 -54 53 -86 129 -86c72 0 128 30 158 86h37z" />
    <glyph glyph-name="ibreve" unicode="&#x12d;" 
d="M282 140c-28 -43 -44 -65 -62 -85c-40 -46 -81 -69 -124 -69c-39 0 -69 27 -69 62c0 22 4 38 22 101l58 195c6 22 9 35 9 44c0 22 -16 31 -57 31h-24l4 36l192 15l-106 -357c-8 -28 -12 -46 -12 -56c0 -12 7 -21 17 -21c27 0 71 44 121 121zM367 690
c-18 -97 -83 -159 -167 -159c-79 0 -134 56 -134 135c0 5 0 14 1 24h30c3 -60 44 -96 107 -96c60 0 107 34 132 96h31z" />
    <glyph glyph-name="Iogonek" unicode="&#x12e;" horiz-adv-x="407" 
d="M239 -142c-30 -40 -80 -80 -117 -80c-40 0 -80 41 -83 91c3 48 36 90 80 131h-152l5 47c59 1 72 3 84 14c9 9 10 12 23 62l128 476c7 27 10 41 10 49c0 22 -14 27 -80 27h-22l6 47h310l-5 -47c-58 -1 -72 -3 -84 -14c-9 -9 -9 -10 -23 -62l-128 -476
c-9 -34 -10 -39 -10 -48c0 -23 14 -28 80 -28h22l-6 -47h-48c-58 0 -118 -44 -118 -94c0 -32 14 -61 44 -61c21 0 36 5 64 31z" />
    <glyph glyph-name="iogonek" unicode="&#x12f;" 
d="M206 -142c-30 -40 -80 -80 -117 -80c-40 0 -80 41 -82 91c2 44 30 82 68 120c-28 8 -48 31 -48 59c0 22 4 38 22 101l58 195c6 22 9 35 9 44c0 22 -16 31 -57 31h-24l4 36l192 15l-106 -357c-8 -28 -12 -46 -12 -56c0 -12 7 -21 17 -21c27 0 71 44 121 121l31 -17
c-28 -43 -44 -65 -62 -85c-24 -28 -48 -47 -73 -58c-39 -17 -69 -55 -69 -91c0 -32 14 -61 44 -61c21 0 36 5 64 31zM270 610c0 -27 -22 -49 -49 -49s-49 22 -49 49s22 49 49 49s49 -22 49 -49z" />
    <glyph glyph-name="Idotaccent" unicode="&#x130;" horiz-adv-x="407" 
d="M277 0h-310l5 47c59 1 72 3 84 14c9 9 10 12 23 62l128 476c7 27 10 41 10 49c0 22 -14 27 -80 27h-22l6 47h310l-5 -47c-58 -1 -72 -3 -84 -14c-9 -9 -9 -10 -23 -62l-128 -476c-9 -34 -10 -39 -10 -48c0 -23 14 -28 80 -28h22zM377 842c0 -27 -22 -49 -49 -49
s-49 22 -49 49s22 49 49 49s49 -22 49 -49z" />
    <glyph glyph-name="dotlessi" unicode="&#x131;" 
d="M282 140c-28 -43 -44 -65 -62 -85c-40 -46 -81 -69 -124 -69c-39 0 -69 27 -69 62c0 22 4 38 22 101l58 195c6 22 9 35 9 44c0 22 -16 31 -57 31h-24l4 36l192 15l-106 -357c-8 -28 -12 -46 -12 -56c0 -12 7 -21 17 -21c27 0 71 44 121 121z" />
    <glyph glyph-name="Jcircumflex" unicode="&#x134;" horiz-adv-x="611" 
d="M641 675h-18c-42 0 -53 -4 -63 -14c-8 -8 -9 -8 -23 -62l-109 -407c-38 -142 -116 -207 -250 -207c-120 0 -191 58 -191 158c0 81 53 145 121 145c47 0 79 -29 79 -71c0 -41 -27 -70 -66 -70c-20 0 -36 17 -60 17c-15 0 -26 -14 -26 -32c0 -59 53 -104 122 -104
c84 0 129 52 166 191l102 380c6 24 10 41 10 49c0 22 -14 27 -79 27h-30l6 47h314zM703 766h-43l-104 94l-163 -94h-43l184 152h60z" />
    <glyph glyph-name="jcircumflex" unicode="&#x135;" horiz-adv-x="315" 
d="M279 470l-119 -400c-43 -145 -51 -165 -81 -202c-39 -45 -90 -70 -143 -70c-62 0 -102 31 -102 80c0 35 23 60 56 60c28 0 48 -19 48 -47c0 -10 -1 -14 -8 -27c-3 -5 -5 -10 -5 -14c0 -9 10 -18 21 -18c44 0 80 54 108 163c10 41 20 78 25 92l76 257c7 23 9 35 9 43
c0 23 -16 32 -57 32h-35l4 36zM392 526h-36l-86 104l-136 -104h-36l153 169h50z" />
    <glyph glyph-name="Kcommaaccent" unicode="&#x136;" horiz-adv-x="741" 
d="M691 0h-327l5 47h33c53 0 68 4 68 18c0 6 0 6 -16 39l-117 246l-113 -93l-36 -134c-10 -41 -10 -41 -10 -49c0 -22 14 -27 79 -27h26l-5 -47h-318l5 47h19c49 0 58 4 69 14c8 7 9 8 23 62l128 476c5 20 9 41 9 49c0 22 -14 27 -79 27h-26l6 47h317l-5 -47h-17
c-49 0 -60 -4 -70 -14c-9 -7 -9 -7 -24 -62l-68 -257l288 240c38 31 54 51 54 68c0 19 -14 25 -59 25h-22l6 47h300l-5 -47c-80 -6 -122 -26 -201 -98l-188 -157l152 -315c28 -58 28 -58 94 -58h31zM373 -112c0 -69 -63 -139 -160 -176l-12 28c67 30 107 72 114 117l-15 -1
c-30 0 -50 19 -50 48c0 31 26 56 60 56c36 0 63 -30 63 -72z" />
    <glyph glyph-name="kcommaaccent" unicode="&#x137;" horiz-adv-x="556" 
d="M492 134c-62 -104 -112 -149 -167 -149c-50 0 -74 33 -74 100l1 49v37c0 18 -5 27 -16 27c0 0 -2 0 -20 -2c-7 -1 -14 -1 -14 -1c-12 0 -22 10 -22 22c0 17 11 27 31 27c8 0 20 -2 27 -5c6 -2 13 -3 13 -3c7 0 20 5 42 16c68 34 97 66 97 107c0 29 -20 51 -46 51
c-38 0 -90 -36 -134 -92c-32 -41 -70 -121 -90 -188l-38 -130h-87l181 611c6 22 9 34 9 44c0 22 -16 31 -57 31h-31l4 36l199 15l-124 -418c68 105 128 151 197 151c55 0 98 -40 98 -91c0 -67 -65 -125 -183 -167c32 -26 43 -52 48 -122c3 -40 7 -49 21 -49
c24 0 47 25 104 113zM258 -112c0 -69 -63 -139 -160 -176l-12 28c67 30 107 72 114 117l-15 -1c-30 0 -50 19 -50 48c0 31 26 56 60 56c36 0 63 -30 63 -72z" />
    <glyph glyph-name="Lacute" unicode="&#x139;" horiz-adv-x="667" 
d="M630 245l-78 -245h-589l5 47h19c49 0 58 4 69 14c8 8 9 9 23 62l128 476c5 20 9 41 9 49c0 22 -14 27 -79 27h-26l6 47h336l-6 -47h-22c-49 0 -73 -4 -83 -14c-9 -8 -9 -8 -23 -62l-125 -465c-10 -37 -11 -42 -11 -55c0 -24 18 -32 70 -32h42c142 0 206 45 294 206z
M460 887c0 -13 -12 -28 -30 -36l-191 -86h-47l166 126c27 21 42 27 60 27c22 0 42 -14 42 -31z" />
    <glyph glyph-name="lacute" unicode="&#x13a;" 
d="M268 140c-60 -102 -124 -155 -187 -155c-40 0 -65 27 -65 70c0 31 3 47 27 127l127 429c6 20 9 34 9 44c0 22 -16 31 -57 31h-31l4 36l199 15l-185 -625c-13 -43 -13 -44 -13 -55c0 -12 7 -21 18 -21c28 0 73 44 123 121zM401 902c0 -13 -12 -28 -30 -36l-191 -86h-47
l166 126c27 21 42 27 60 27c22 0 42 -14 42 -31z" />
    <glyph glyph-name="Lcommaaccent" unicode="&#x13b;" horiz-adv-x="667" 
d="M630 245l-78 -245h-589l5 47h19c49 0 58 4 69 14c8 8 9 9 23 62l128 476c5 20 9 41 9 49c0 22 -14 27 -79 27h-26l6 47h336l-6 -47h-22c-49 0 -73 -4 -83 -14c-9 -8 -9 -8 -23 -62l-125 -465c-10 -37 -11 -42 -11 -55c0 -24 18 -32 70 -32h42c142 0 206 45 294 206z
M386 -112c0 -69 -63 -139 -160 -176l-12 28c67 30 107 72 114 117l-15 -1c-30 0 -50 19 -50 48c0 31 26 56 60 56c36 0 63 -30 63 -72z" />
    <glyph glyph-name="lcommaaccent" unicode="&#x13c;" 
d="M268 140c-60 -102 -124 -155 -187 -155c-40 0 -65 27 -65 70c0 31 3 47 27 127l127 429c6 20 9 34 9 44c0 22 -16 31 -57 31h-31l4 36l199 15l-185 -625c-13 -43 -13 -44 -13 -55c0 -12 7 -21 18 -21c28 0 73 44 123 121zM98 -112c0 -69 -63 -139 -160 -176l-12 28
c67 30 107 72 114 117l-15 -1c-30 0 -50 19 -50 48c0 31 26 56 60 56c36 0 63 -30 63 -72z" />
    <glyph glyph-name="Lcaron" unicode="&#x13d;" horiz-adv-x="667" 
d="M630 245l-78 -245h-589l5 47h19c49 0 58 4 69 14c8 8 9 9 23 62l128 476c5 20 9 41 9 49c0 22 -14 27 -79 27h-26l6 47h336l-6 -47h-22c-49 0 -73 -4 -83 -14c-9 -8 -9 -8 -23 -62l-125 -465c-10 -37 -11 -42 -11 -55c0 -24 18 -32 70 -32h42c142 0 206 45 294 206z
M613 650c0 -69 -63 -139 -160 -176l-12 28c67 30 107 72 114 117l-15 -1c-30 0 -50 19 -50 48c0 31 26 56 60 56c36 0 63 -30 63 -72z" />
    <glyph glyph-name="lcaron" unicode="&#x13e;" 
d="M268 140c-60 -102 -124 -155 -187 -155c-40 0 -65 27 -65 70c0 31 3 47 27 127l127 429c6 20 9 34 9 44c0 22 -16 31 -57 31h-31l4 36l199 15l-185 -625c-13 -43 -13 -44 -13 -55c0 -12 7 -21 18 -21c28 0 73 44 123 121zM447 665c0 -69 -63 -139 -160 -176l-12 28
c67 30 107 72 114 117l-15 -1c-30 0 -50 19 -50 48c0 31 26 56 60 56c36 0 63 -30 63 -72z" />
    <glyph glyph-name="Ldot" unicode="&#x13f;" horiz-adv-x="667" 
d="M630 245l-78 -245h-589l5 47h19c49 0 58 4 69 14c8 8 9 9 23 62l128 476c5 20 9 41 9 49c0 22 -14 27 -79 27h-26l6 47h336l-6 -47h-22c-49 0 -73 -4 -83 -14c-9 -8 -9 -8 -23 -62l-125 -465c-10 -37 -11 -42 -11 -55c0 -24 18 -32 70 -32h42c142 0 206 45 294 206z
M587 384c0 -27 -22 -49 -49 -49s-49 22 -49 49s22 49 49 49s49 -22 49 -49z" />
    <glyph glyph-name="ldot" unicode="&#x140;" 
d="M268 140c-60 -102 -124 -155 -187 -155c-40 0 -65 27 -65 70c0 31 3 47 27 127l127 429c6 20 9 34 9 44c0 22 -16 31 -57 31h-31l4 36l199 15l-185 -625c-13 -43 -13 -44 -13 -55c0 -12 7 -21 18 -21c28 0 73 44 123 121zM361 384c0 -27 -22 -49 -49 -49s-49 22 -49 49
s22 49 49 49s49 -22 49 -49z" />
    <glyph glyph-name="Lslash" unicode="&#x141;" horiz-adv-x="667" 
d="M630 245l-78 -245h-589l5 47h17c49 0 60 4 71 14c8 8 9 9 23 62l37 135l-120 -69l18 65l119 68l74 277c5 20 9 41 9 49c0 22 -14 27 -79 27h-26l6 47h336l-6 -47h-22c-49 0 -73 -4 -83 -14c-9 -8 -9 -8 -23 -62l-58 -214l198 114l-19 -64l-196 -114l-50 -187
c-10 -37 -11 -42 -11 -55c0 -24 18 -32 70 -32h42c157 0 215 62 294 206z" />
    <glyph glyph-name="lslash" unicode="&#x142;" 
d="M270 140c-60 -102 -124 -155 -187 -155c-40 0 -65 27 -65 70c0 32 1 38 28 128l45 154l-111 -75l18 60l111 75l64 214c11 40 11 40 11 47c0 19 -20 28 -59 28h-32l4 36l200 15l-86 -282l123 83l-17 -60l-123 -83l-82 -283c-14 -43 -14 -44 -14 -55c0 -12 7 -21 18 -21
c28 0 72 43 124 121z" />
    <glyph glyph-name="Nacute" unicode="&#x143;" horiz-adv-x="815" 
d="M854 675c-84 -3 -104 -26 -142 -170l-139 -519h-39l-278 601l-99 -370c-23 -89 -24 -93 -24 -115c0 -37 19 -55 80 -55h21l-6 -47h-276l5 47c87 2 106 24 145 170l114 426c-8 27 -17 32 -65 32h-52l5 47h211l253 -552l90 335c22 89 23 93 23 115c0 37 -29 55 -90 55l6 47
h262zM676 887c0 -13 -12 -28 -30 -36l-191 -86h-47l166 126c27 21 42 27 60 27c22 0 42 -14 42 -31z" />
    <glyph glyph-name="nacute" unicode="&#x144;" horiz-adv-x="611" 
d="M562 135c-56 -97 -120 -150 -183 -150c-40 0 -70 32 -70 74c0 22 5 45 18 84l53 156c10 31 15 53 15 70c0 23 -17 41 -40 41c-43 0 -96 -39 -139 -103c-36 -53 -48 -81 -74 -168l-41 -139h-87l102 344c6 22 9 35 9 44c0 22 -16 31 -57 31h-24l4 36l181 15l-29 -135
c67 92 126 135 185 135c53 0 96 -44 96 -97c0 -29 -8 -68 -24 -113l-47 -138c-16 -44 -19 -56 -19 -67s8 -19 18 -19c31 0 74 41 124 120zM486 660c0 -14 -10 -29 -25 -39l-159 -96h-39l138 140c24 23 35 30 50 30c19 0 35 -16 35 -35z" />
    <glyph glyph-name="Ncommaaccent" unicode="&#x145;" horiz-adv-x="815" 
d="M854 675c-84 -3 -104 -26 -142 -170l-139 -519h-39l-278 601l-99 -370c-23 -89 -24 -93 -24 -115c0 -37 19 -55 80 -55h21l-6 -47h-276l5 47c87 2 106 24 145 170l114 426c-8 27 -17 32 -65 32h-52l5 47h211l253 -552l90 335c22 89 23 93 23 115c0 37 -29 55 -90 55l6 47
h262zM363 -112c0 -69 -63 -139 -160 -176l-12 28c67 30 107 72 114 117l-15 -1c-30 0 -50 19 -50 48c0 31 26 56 60 56c36 0 63 -30 63 -72z" />
    <glyph glyph-name="ncommaaccent" unicode="&#x146;" horiz-adv-x="611" 
d="M562 135c-56 -97 -120 -150 -183 -150c-40 0 -70 32 -70 74c0 22 5 45 18 84l53 156c10 31 15 53 15 70c0 23 -17 41 -40 41c-43 0 -96 -39 -139 -103c-36 -53 -48 -81 -74 -168l-41 -139h-87l102 344c6 22 9 35 9 44c0 22 -16 31 -57 31h-24l4 36l181 15l-29 -135
c67 92 126 135 185 135c53 0 96 -44 96 -97c0 -29 -8 -68 -24 -113l-47 -138c-16 -44 -19 -56 -19 -67s8 -19 18 -19c31 0 74 41 124 120zM258 -112c0 -69 -63 -139 -160 -176l-12 28c67 30 107 72 114 117l-15 -1c-30 0 -50 19 -50 48c0 31 26 56 60 56c36 0 63 -30 63 -72
z" />
    <glyph glyph-name="Ncaron" unicode="&#x147;" horiz-adv-x="815" 
d="M854 675c-84 -3 -104 -26 -142 -170l-139 -519h-39l-278 601l-99 -370c-23 -89 -24 -93 -24 -115c0 -37 19 -55 80 -55h21l-6 -47h-276l5 47c87 2 106 24 145 170l114 426c-8 27 -17 32 -65 32h-52l5 47h211l253 -552l90 335c22 89 23 93 23 115c0 37 -29 55 -90 55l6 47
h262zM733 918l-184 -152h-60l-109 152h43l104 -94l163 94h43z" />
    <glyph glyph-name="ncaron" unicode="&#x148;" horiz-adv-x="611" 
d="M562 135c-56 -97 -120 -150 -183 -150c-40 0 -70 32 -70 74c0 22 5 45 18 84l53 156c10 31 15 53 15 70c0 23 -17 41 -40 41c-43 0 -96 -39 -139 -103c-36 -53 -48 -81 -74 -168l-41 -139h-87l102 344c6 22 9 35 9 44c0 22 -16 31 -57 31h-24l4 36l181 15l-29 -135
c67 92 126 135 185 135c53 0 96 -44 96 -97c0 -29 -8 -68 -24 -113l-47 -138c-16 -44 -19 -56 -19 -67s8 -19 18 -19c31 0 74 41 124 120zM532 692l-159 -163h-51l-95 163h37l89 -98l142 98h37z" />
    <glyph glyph-name="Eng" unicode="&#x14a;" horiz-adv-x="815" 
d="M854 675c-84 -3 -104 -26 -142 -170l-139 -519c-32 -121 -131 -236 -242 -236c-62 0 -102 31 -102 80c0 35 23 60 56 60c28 0 48 -19 48 -47c0 -10 -1 -14 -8 -27c-3 -5 -5 -10 -5 -14c0 -9 10 -18 21 -18c93 0 157 112 185 219l-270 584l-99 -370
c-23 -89 -24 -93 -24 -115c0 -37 19 -55 80 -55h21l-6 -47h-276l5 47c87 2 106 24 145 170l114 426c-8 27 -17 32 -65 32h-52l5 47h211l253 -552l90 335c22 89 23 93 23 115c0 37 -29 55 -90 55l6 47h262z" />
    <glyph glyph-name="eng" unicode="&#x14b;" horiz-adv-x="611" 
d="M457 260l-47 -138c-42 -155 -96 -332 -230 -332c-49 0 -81 25 -81 64c0 28 18 48 45 48c22 0 38 -15 38 -37c0 -8 -1 -11 -6 -22c-3 -4 -4 -8 -4 -11c0 -7 8 -14 16 -14c52 0 102 186 139 325l53 156c10 31 15 53 15 70c0 23 -17 41 -40 41c-43 0 -96 -39 -139 -103
c-36 -53 -48 -81 -74 -168l-41 -139h-87l102 344c6 22 9 35 9 44c0 22 -16 31 -57 31h-24l4 36l181 15l-29 -135c67 92 126 135 185 135c53 0 96 -44 96 -97c0 -29 -8 -68 -24 -113z" />
    <glyph glyph-name="Omacron" unicode="&#x14c;" horiz-adv-x="778" 
d="M735 450c0 -238 -190 -465 -423 -465c-166 0 -272 113 -272 290c0 249 203 462 417 462c158 0 278 -118 278 -287zM618 496c0 111 -45 198 -158 198c-69 0 -126 -32 -179 -100c-65 -84 -123 -266 -123 -387c0 -110 60 -179 156 -179c78 0 151 43 196 116
c62 100 108 249 108 352zM659 817h-301l11 51h301z" />
    <glyph glyph-name="omacron" unicode="&#x14d;" horiz-adv-x="500" 
d="M450 281c0 -74 -32 -154 -85 -214c-48 -54 -110 -82 -182 -82c-109 0 -178 73 -178 187c0 83 29 155 84 212c54 56 119 86 184 86c97 0 177 -85 177 -189zM308 122c27 55 47 135 47 187c0 77 -32 123 -87 123c-38 0 -70 -18 -98 -54c-41 -55 -75 -167 -75 -250
c0 -68 31 -105 89 -105c53 0 90 30 124 99zM476 585h-301l11 51h301z" />
    <glyph glyph-name="Obreve" unicode="&#x14e;" horiz-adv-x="778" 
d="M735 450c0 -238 -190 -465 -423 -465c-166 0 -272 113 -272 290c0 249 203 462 417 462c158 0 278 -118 278 -287zM618 496c0 111 -45 198 -158 198c-69 0 -126 -32 -179 -100c-65 -84 -123 -266 -123 -387c0 -110 60 -179 156 -179c78 0 151 43 196 116
c62 100 108 249 108 352zM694 914c-21 -87 -99 -143 -200 -143c-107 0 -174 65 -160 143h36c4 -54 53 -86 129 -86c72 0 128 30 158 86h37z" />
    <glyph glyph-name="obreve" unicode="&#x14f;" horiz-adv-x="500" 
d="M450 281c0 -74 -32 -154 -85 -214c-48 -54 -110 -82 -182 -82c-109 0 -178 73 -178 187c0 83 29 155 84 212c54 56 119 86 184 86c97 0 177 -85 177 -189zM308 122c27 55 47 135 47 187c0 77 -32 123 -87 123c-38 0 -70 -18 -98 -54c-41 -55 -75 -167 -75 -250
c0 -68 31 -105 89 -105c53 0 90 30 124 99zM477 690c-18 -97 -83 -159 -167 -159c-79 0 -134 56 -134 135c0 5 0 14 1 24h30c3 -60 44 -96 107 -96c60 0 107 34 132 96h31z" />
    <glyph glyph-name="Ohungarumlaut" unicode="&#x150;" horiz-adv-x="778" 
d="M735 450c0 -238 -190 -465 -423 -465c-166 0 -272 113 -272 290c0 249 203 462 417 462c158 0 278 -118 278 -287zM618 496c0 111 -45 198 -158 198c-69 0 -126 -32 -179 -100c-65 -84 -123 -266 -123 -387c0 -110 60 -179 156 -179c78 0 151 43 196 116
c62 100 108 249 108 352zM620 912c0 -13 -11 -30 -25 -39l-159 -95h-41l140 139c25 24 35 30 50 30c19 0 35 -16 35 -35zM771 912c0 -14 -10 -30 -25 -39l-159 -95h-41l140 139c25 24 35 30 50 30c19 0 35 -16 35 -35z" />
    <glyph glyph-name="ohungarumlaut" unicode="&#x151;" horiz-adv-x="500" 
d="M450 281c0 -74 -32 -154 -85 -214c-48 -54 -110 -82 -182 -82c-109 0 -178 73 -178 187c0 83 29 155 84 212c54 56 119 86 184 86c97 0 177 -85 177 -189zM308 122c27 55 47 135 47 187c0 77 -32 123 -87 123c-38 0 -70 -18 -98 -54c-41 -55 -75 -167 -75 -250
c0 -68 31 -105 89 -105c53 0 90 30 124 99zM432 660c0 -13 -11 -30 -25 -39l-159 -95h-41l140 139c25 24 35 30 50 30c19 0 35 -16 35 -35zM583 660c0 -14 -10 -30 -25 -39l-159 -95h-41l140 139c25 24 35 30 50 30c19 0 35 -16 35 -35z" />
    <glyph glyph-name="OE" unicode="&#x152;" horiz-adv-x="981" 
d="M909 245l-78 -245h-509c-192 0 -286 110 -286 284c0 157 85 309 214 386c64 38 133 52 252 52h461l-39 -241h-45v20c0 25 2 45 1 51c0 83 -39 123 -118 123h-28c-52 0 -61 -8 -77 -69l-55 -205h27c82 0 108 36 137 125l45 -6l-89 -334l-45 8c7 30 9 49 9 71
c0 59 -10 89 -70 89h-27l-59 -220c-11 -40 -11 -44 -11 -56c0 -21 20 -31 63 -31h22c112 0 177 39 243 167l21 39zM427 165l101 378c11 43 13 51 13 69c0 42 -33 65 -94 65c-80 0 -147 -48 -204 -143c-49 -83 -84 -213 -84 -311c0 -105 63 -177 154 -177c65 0 89 25 114 119
z" />
    <glyph glyph-name="oe" unicode="&#x153;" horiz-adv-x="778" 
d="M692 89c-56 -73 -116 -104 -198 -104c-69 0 -110 21 -143 71c-46 -47 -105 -71 -177 -71c-109 0 -174 72 -174 192c0 152 131 293 268 293c68 0 114 -34 148 -88c49 53 116 88 186 88c69 0 118 -43 118 -103c0 -58 -43 -109 -120 -143c-46 -20 -66 -26 -182 -54
c-1 -13 -2 -27 -2 -34c0 -64 37 -104 97 -104c53 0 96 23 155 84zM304 121c30 62 46 131 46 200c0 67 -33 109 -86 109c-99 0 -173 -156 -173 -302c0 -69 31 -107 89 -107c53 0 90 30 124 100zM636 373c0 33 -22 55 -54 55c-75 0 -140 -90 -158 -219c150 34 212 88 212 164z
" />
    <glyph glyph-name="Racute" unicode="&#x154;" horiz-adv-x="741" 
d="M673 132c-39 -106 -79 -147 -143 -147c-63 0 -106 49 -106 121c0 19 0 24 6 100c2 21 3 42 3 54c0 65 -32 90 -116 90h-69l-61 -227c-11 -41 -9 -41 -10 -49c0 -22 14 -27 79 -27h26l-5 -47h-318l5 47h16c49 0 61 4 72 14c8 8 9 9 23 62l128 476c5 20 9 41 9 49
c0 22 -14 27 -79 27h-26l6 47h320c189 0 258 -63 258 -164c0 -65 -40 -126 -102 -158c-36 -18 -75 -27 -153 -36c73 -27 103 -75 103 -162c0 -11 -1 -23 -1 -36l-1 -51c-1 -42 10 -61 30 -61c28 0 45 22 70 93zM571 565c0 70 -48 110 -132 110h-49c-47 0 -57 -9 -71 -60
l-59 -218h78c84 0 114 5 151 27c54 32 82 80 82 141zM588 887c0 -13 -12 -28 -30 -36l-191 -86h-47l166 126c27 21 42 27 60 27c22 0 42 -14 42 -31z" />
    <glyph glyph-name="racute" unicode="&#x155;" horiz-adv-x="444" 
d="M433 396c0 -37 -25 -64 -59 -64c-19 0 -35 8 -43 22c-4 6 -4 9 -4 32c0 15 -6 23 -18 23c-46 0 -129 -126 -166 -251l-47 -158h-87l102 344c5 18 10 40 10 47c0 19 -18 28 -58 28h-24l4 36l181 15l-23 -116c53 82 97 116 153 116c46 0 79 -31 79 -74zM381 660
c0 -14 -10 -29 -25 -39l-159 -96h-39l138 140c24 23 35 30 50 30c19 0 35 -16 35 -35z" />
    <glyph glyph-name="Rcommaaccent" unicode="&#x156;" horiz-adv-x="741" 
d="M673 132c-39 -106 -79 -147 -143 -147c-63 0 -106 49 -106 121c0 19 0 24 6 100c2 21 3 42 3 54c0 65 -32 90 -116 90h-69l-61 -227c-11 -41 -9 -41 -10 -49c0 -22 14 -27 79 -27h26l-5 -47h-318l5 47h16c49 0 61 4 72 14c8 8 9 9 23 62l128 476c5 20 9 41 9 49
c0 22 -14 27 -79 27h-26l6 47h320c189 0 258 -63 258 -164c0 -65 -40 -126 -102 -158c-36 -18 -75 -27 -153 -36c73 -27 103 -75 103 -162c0 -11 -1 -23 -1 -36l-1 -51c-1 -42 10 -61 30 -61c28 0 45 22 70 93zM571 565c0 70 -48 110 -132 110h-49c-47 0 -57 -9 -71 -60
l-59 -218h78c84 0 114 5 151 27c54 32 82 80 82 141zM275 -112c0 -69 -63 -139 -160 -176l-12 28c67 30 107 72 114 117l-15 -1c-30 0 -50 19 -50 48c0 31 26 56 60 56c36 0 63 -30 63 -72z" />
    <glyph glyph-name="rcommaaccent" unicode="&#x157;" horiz-adv-x="444" 
d="M433 396c0 -37 -25 -64 -59 -64c-19 0 -35 8 -43 22c-4 6 -4 9 -4 32c0 15 -6 23 -18 23c-46 0 -129 -126 -166 -251l-47 -158h-87l102 344c5 18 10 40 10 47c0 19 -18 28 -58 28h-24l4 36l181 15l-23 -116c53 82 97 116 153 116c46 0 79 -31 79 -74zM107 -112
c0 -69 -63 -139 -160 -176l-12 28c67 30 107 72 114 117l-15 -1c-30 0 -50 19 -50 48c0 31 26 56 60 56c36 0 63 -30 63 -72z" />
    <glyph glyph-name="Rcaron" unicode="&#x158;" horiz-adv-x="741" 
d="M673 132c-39 -106 -79 -147 -143 -147c-63 0 -106 49 -106 121c0 19 0 24 6 100c2 21 3 42 3 54c0 65 -32 90 -116 90h-69l-61 -227c-11 -41 -9 -41 -10 -49c0 -22 14 -27 79 -27h26l-5 -47h-318l5 47h16c49 0 61 4 72 14c8 8 9 9 23 62l128 476c5 20 9 41 9 49
c0 22 -14 27 -79 27h-26l6 47h320c189 0 258 -63 258 -164c0 -65 -40 -126 -102 -158c-36 -18 -75 -27 -153 -36c73 -27 103 -75 103 -162c0 -11 -1 -23 -1 -36l-1 -51c-1 -42 10 -61 30 -61c28 0 45 22 70 93zM571 565c0 70 -48 110 -132 110h-49c-47 0 -57 -9 -71 -60
l-59 -218h78c84 0 114 5 151 27c54 32 82 80 82 141zM645 918l-184 -152h-60l-109 152h43l104 -94l163 94h43z" />
    <glyph glyph-name="rcaron" unicode="&#x159;" horiz-adv-x="444" 
d="M433 396c0 -37 -25 -64 -59 -64c-19 0 -35 8 -43 22c-4 6 -4 9 -4 32c0 15 -6 23 -18 23c-46 0 -129 -126 -166 -251l-47 -158h-87l102 344c5 18 10 40 10 47c0 19 -18 28 -58 28h-24l4 36l181 15l-23 -116c53 82 97 116 153 116c46 0 79 -31 79 -74zM427 692l-159 -163
h-51l-95 163h37l89 -98l142 98h37z" />
    <glyph glyph-name="Sacute" unicode="&#x15a;" horiz-adv-x="667" 
d="M569 214c0 -132 -113 -229 -269 -229c-81 0 -150 26 -206 78l-59 -63h-35l55 285l40 -7c-1 -11 -1 -24 -1 -28c0 -134 81 -222 205 -222c103 0 174 58 174 143c0 37 -15 66 -44 87c-12 8 -24 13 -78 36l-86 36c-117 49 -147 105 -147 183c0 126 105 224 240 224
c73 0 130 -23 182 -74l54 52h38l-54 -261l-42 7c1 9 1 17 1 20c0 132 -66 213 -172 213c-89 0 -156 -57 -156 -131c0 -52 35 -88 114 -119l85 -34c119 -48 161 -98 161 -196zM597 887c0 -13 -12 -28 -30 -36l-191 -86h-47l166 126c27 21 42 27 60 27c22 0 42 -14 42 -31z
" />
    <glyph glyph-name="sacute" unicode="&#x15b;" horiz-adv-x="444" 
d="M356 139c0 -91 -79 -154 -194 -154c-100 0 -163 43 -163 113c0 39 25 67 58 67c29 0 51 -22 51 -50c0 -18 -3 -23 -21 -43c-4 -3 -7 -10 -7 -15c0 -20 36 -34 87 -34c69 0 114 35 114 88c0 34 -14 49 -71 72c-41 16 -62 26 -78 34c-44 23 -69 60 -69 102
c0 87 76 151 181 151c86 0 148 -43 148 -104c0 -36 -23 -61 -57 -61c-30 0 -52 19 -52 46c0 15 2 20 16 40c3 5 5 10 5 14c0 16 -27 27 -65 27c-58 0 -102 -34 -102 -80c0 -39 17 -55 82 -78c55 -20 65 -25 87 -39c32 -22 50 -57 50 -96zM422 660c0 -14 -10 -29 -25 -39
l-159 -96h-39l138 140c24 23 35 30 50 30c19 0 35 -16 35 -35z" />
    <glyph glyph-name="Scircumflex" unicode="&#x15c;" horiz-adv-x="667" 
d="M569 214c0 -132 -113 -229 -269 -229c-81 0 -150 26 -206 78l-59 -63h-35l55 285l40 -7c-1 -11 -1 -24 -1 -28c0 -134 81 -222 205 -222c103 0 174 58 174 143c0 37 -15 66 -44 87c-12 8 -24 13 -78 36l-86 36c-117 49 -147 105 -147 183c0 126 105 224 240 224
c73 0 130 -23 182 -74l54 52h38l-54 -261l-42 7c1 9 1 17 1 20c0 132 -66 213 -172 213c-89 0 -156 -57 -156 -131c0 -52 35 -88 114 -119l85 -34c119 -48 161 -98 161 -196zM614 766h-43l-104 94l-163 -94h-43l184 152h60z" />
    <glyph glyph-name="scircumflex" unicode="&#x15d;" horiz-adv-x="444" 
d="M356 139c0 -91 -79 -154 -194 -154c-100 0 -163 43 -163 113c0 39 25 67 58 67c29 0 51 -22 51 -50c0 -18 -3 -23 -21 -43c-4 -3 -7 -10 -7 -15c0 -20 36 -34 87 -34c69 0 114 35 114 88c0 34 -14 49 -71 72c-41 16 -62 26 -78 34c-44 23 -69 60 -69 102
c0 87 76 151 181 151c86 0 148 -43 148 -104c0 -36 -23 -61 -57 -61c-30 0 -52 19 -52 46c0 15 2 20 16 40c3 5 5 10 5 14c0 16 -27 27 -65 27c-58 0 -102 -34 -102 -80c0 -39 17 -55 82 -78c55 -20 65 -25 87 -39c32 -22 50 -57 50 -96zM430 526h-36l-86 104l-136 -104h-36
l153 169h50z" />
    <glyph glyph-name="Scedilla" unicode="&#x15e;" horiz-adv-x="667" 
d="M569 214c0 -133 -111 -228 -269 -229l-29 -49c14 2 21 3 30 3c48 0 81 -28 81 -68c0 -53 -49 -87 -124 -87c-33 0 -59 5 -88 17l18 33c24 -8 43 -12 62 -12c34 0 56 16 56 40s-19 39 -48 39c-10 0 -20 -2 -33 -6l-9 6l50 86c-62 5 -131 35 -172 76l-59 -63h-35l55 285
l40 -7c-1 -11 -1 -24 -1 -28c0 -67 16 -116 53 -158c39 -44 87 -64 152 -64c103 0 174 58 174 143c0 37 -15 66 -44 87c-12 8 -24 14 -78 36l-86 36c-52 22 -80 39 -100 61c-30 33 -47 77 -47 122c0 126 105 224 240 224c73 0 130 -23 182 -74l54 52h38l-54 -261l-42 7
c1 9 1 17 1 20c0 132 -66 213 -172 213c-89 0 -156 -57 -156 -131c0 -51 35 -88 114 -119l85 -34c119 -47 161 -98 161 -196z" />
    <glyph glyph-name="scedilla" unicode="&#x15f;" horiz-adv-x="444" 
d="M356 139c0 -89 -75 -151 -187 -154l-29 -49c14 2 20 3 29 3c49 0 82 -28 82 -68c0 -52 -49 -87 -124 -87c-33 0 -60 5 -88 17l18 33c24 -8 42 -12 62 -12c33 0 56 16 56 40s-19 39 -48 39c-10 0 -20 -2 -34 -6l-8 6l49 85c-86 9 -135 49 -135 112c0 39 25 67 58 67
c29 0 51 -22 51 -50c0 -18 -3 -23 -21 -43c-4 -3 -7 -10 -7 -15c0 -20 36 -34 87 -34c69 0 114 35 114 88c0 34 -14 49 -71 72c-41 16 -62 26 -78 34c-44 23 -69 60 -69 102c0 86 77 151 178 151c89 0 151 -42 151 -104c0 -36 -23 -61 -57 -61c-30 0 -52 19 -52 46
c0 15 2 20 16 40c3 5 5 10 5 14c0 16 -27 27 -65 27c-58 0 -102 -34 -102 -80c0 -39 17 -55 82 -78c55 -20 65 -25 87 -39c32 -22 50 -57 50 -96z" />
    <glyph glyph-name="Scaron" unicode="&#x160;" horiz-adv-x="667" 
d="M569 214c0 -132 -113 -229 -269 -229c-81 0 -150 26 -206 78l-59 -63h-35l55 285l40 -7c-1 -11 -1 -24 -1 -28c0 -134 81 -222 205 -222c103 0 174 58 174 143c0 37 -15 66 -44 87c-12 8 -24 13 -78 36l-86 36c-117 49 -147 105 -147 183c0 126 105 224 240 224
c73 0 130 -23 182 -74l54 52h38l-54 -261l-42 7c1 9 1 17 1 20c0 132 -66 213 -172 213c-89 0 -156 -57 -156 -131c0 -52 35 -88 114 -119l85 -34c119 -48 161 -98 161 -196zM654 918l-184 -152h-60l-109 152h43l104 -94l163 94h43z" />
    <glyph glyph-name="scaron" unicode="&#x161;" horiz-adv-x="444" 
d="M356 139c0 -91 -79 -154 -194 -154c-100 0 -163 43 -163 113c0 39 25 67 58 67c29 0 51 -22 51 -50c0 -18 -3 -23 -21 -43c-4 -3 -7 -10 -7 -15c0 -20 36 -34 87 -34c69 0 114 35 114 88c0 34 -14 49 -71 72c-41 16 -62 26 -78 34c-44 23 -69 60 -69 102
c0 87 76 151 181 151c86 0 148 -43 148 -104c0 -36 -23 -61 -57 -61c-30 0 -52 19 -52 46c0 15 2 20 16 40c3 5 5 10 5 14c0 16 -27 27 -65 27c-58 0 -102 -34 -102 -80c0 -39 17 -55 82 -78c55 -20 65 -25 87 -39c32 -22 50 -57 50 -96zM469 692l-159 -163h-51l-95 163h37
l89 -98l142 98h37z" />
    <glyph glyph-name="Tcedilla" unicode="&#x162;" horiz-adv-x="685" 
d="M684 447l-42 5c2 41 2 52 2 70c0 107 -32 153 -122 153h-14c-31 0 -36 -5 -50 -56l-133 -496c-5 -19 -9 -42 -9 -49c0 -22 14 -27 79 -27h37l-6 -47h-166l-36 -64c14 2 21 3 30 3c48 0 81 -28 81 -68c0 -52 -49 -87 -124 -87c-32 0 -60 5 -88 17l18 33
c24 -8 43 -12 62 -12c34 0 56 16 56 40s-19 39 -48 39c-10 0 -20 -2 -33 -6l-9 6l56 99h-145l5 47h22c49 0 73 4 84 14c8 8 9 9 23 62l136 510c3 11 5 20 5 25c0 12 -10 17 -33 17h-14c-91 0 -129 -40 -227 -217l-41 6l88 258h598z" />
    <glyph glyph-name="tcedilla" unicode="&#x163;" horiz-adv-x="352" 
d="M285 140c-26 -42 -36 -58 -50 -77c-34 -45 -87 -76 -133 -78l-28 -49c14 2 21 3 30 3c48 0 81 -28 81 -68c0 -52 -49 -87 -124 -87c-32 0 -60 5 -88 17l18 33c24 -8 43 -12 62 -12c34 0 56 16 56 40s-19 39 -48 39c-10 0 -20 -2 -33 -6l-9 6l51 89c-26 12 -45 39 -45 71
c0 22 5 45 19 95l75 252h-94l14 47h94l49 166h87l-49 -166h109l-14 -47h-109l-95 -319c-2 -8 -3 -15 -3 -23c0 -17 9 -28 23 -28c33 0 62 28 124 122z" />
    <glyph glyph-name="Tcaron" unicode="&#x164;" horiz-adv-x="685" 
d="M684 447l-42 5c2 41 2 52 2 70c0 107 -32 153 -122 153h-14c-31 0 -36 -5 -50 -56l-133 -496c-5 -19 -9 -42 -9 -49c0 -22 14 -27 79 -27h37l-6 -47h-346l5 47h22c49 0 73 4 84 14c8 8 9 9 23 62l136 510c3 11 5 20 5 25c0 12 -10 17 -33 17h-14
c-91 0 -129 -40 -227 -217l-41 6l88 258h598zM659 918l-184 -152h-60l-109 152h43l104 -94l163 94h43z" />
    <glyph glyph-name="tcaron" unicode="&#x165;" horiz-adv-x="352" 
d="M285 140c-26 -42 -36 -58 -50 -77c-35 -47 -91 -78 -138 -78c-40 0 -72 34 -72 76c0 22 5 45 19 95l75 252h-94l14 47h94l49 166h87l-49 -166h109l-14 -47h-109l-95 -319c-2 -8 -3 -15 -3 -23c0 -17 9 -28 23 -28c33 0 62 28 124 122zM433 666c0 -69 -63 -139 -160 -176
l-12 28c67 30 107 72 114 117l-15 -1c-30 0 -50 19 -50 48c0 31 26 56 60 56c36 0 63 -30 63 -72z" />
    <glyph glyph-name="Utilde" unicode="&#x168;" horiz-adv-x="815" 
d="M855 675c-88 -4 -97 -15 -140 -170l-56 -211c-64 -242 -123 -309 -316 -309c-163 0 -250 67 -250 191c0 34 4 60 20 118l82 305c5 20 9 41 9 49c0 22 -14 27 -79 27h-25l5 47h318l-6 -47h-18c-49 0 -59 -4 -69 -14c-10 -8 -9 -8 -23 -62l-90 -333
c-8 -28 -14 -77 -14 -103c0 -85 59 -135 161 -135c77 0 134 28 174 84c24 34 35 67 65 178l58 215c22 89 23 93 23 115c0 39 -29 55 -93 55l6 47h263zM696 895c-7 -58 -49 -105 -93 -105c-22 0 -31 2 -86 23c-44 16 -60 21 -74 21c-22 0 -37 -15 -45 -45h-30
c12 66 45 105 90 105c17 0 41 -6 100 -26c36 -13 45 -15 59 -15c22 0 37 12 49 42h30z" />
    <glyph glyph-name="utilde" unicode="&#x169;" horiz-adv-x="611" 
d="M556 135c-71 -110 -120 -150 -181 -150c-37 0 -64 28 -64 66c0 19 2 33 12 68c-59 -92 -116 -133 -186 -133c-56 0 -95 37 -95 92c0 31 0 31 31 131l40 135c5 18 8 34 8 43c0 23 -15 32 -56 32h-24l3 36l193 15l-98 -328c-8 -27 -11 -45 -11 -57c0 -24 19 -43 43 -43
c71 0 163 114 204 253l47 160h87l-99 -332c-8 -29 -12 -48 -12 -59c0 -13 9 -24 19 -24c20 0 60 41 109 113zM530 663c-7 -58 -49 -105 -93 -105c-22 0 -31 2 -86 23c-44 16 -60 21 -74 21c-22 0 -37 -15 -45 -45h-30c12 66 45 105 90 105c17 0 41 -6 100 -26
c36 -13 45 -15 59 -15c22 0 37 12 49 42h30z" />
    <glyph glyph-name="Umacron" unicode="&#x16a;" horiz-adv-x="815" 
d="M855 675c-88 -4 -97 -15 -140 -170l-56 -211c-64 -242 -123 -309 -316 -309c-163 0 -250 67 -250 191c0 34 4 60 20 118l82 305c5 20 9 41 9 49c0 22 -14 27 -79 27h-25l5 47h318l-6 -47h-18c-49 0 -59 -4 -69 -14c-10 -8 -9 -8 -23 -62l-90 -333
c-8 -28 -14 -77 -14 -103c0 -85 59 -135 161 -135c77 0 134 28 174 84c24 34 35 67 65 178l58 215c22 89 23 93 23 115c0 39 -29 55 -93 55l6 47h263zM678 817h-301l11 51h301z" />
    <glyph glyph-name="umacron" unicode="&#x16b;" horiz-adv-x="611" 
d="M556 135c-71 -110 -120 -150 -181 -150c-37 0 -64 28 -64 66c0 19 2 33 12 68c-59 -92 -116 -133 -186 -133c-56 0 -95 37 -95 92c0 31 0 31 31 131l40 135c5 18 8 34 8 43c0 23 -15 32 -56 32h-24l3 36l193 15l-98 -328c-8 -27 -11 -45 -11 -57c0 -24 19 -43 43 -43
c71 0 163 114 204 253l47 160h87l-99 -332c-8 -29 -12 -48 -12 -59c0 -13 9 -24 19 -24c20 0 60 41 109 113zM511 585h-301l11 51h301z" />
    <glyph glyph-name="Ubreve" unicode="&#x16c;" horiz-adv-x="815" 
d="M855 675c-88 -4 -97 -15 -140 -170l-56 -211c-64 -242 -123 -309 -316 -309c-163 0 -250 67 -250 191c0 34 4 60 20 118l82 305c5 20 9 41 9 49c0 22 -14 27 -79 27h-25l5 47h318l-6 -47h-18c-49 0 -59 -4 -69 -14c-10 -8 -9 -8 -23 -62l-90 -333
c-8 -28 -14 -77 -14 -103c0 -85 59 -135 161 -135c77 0 134 28 174 84c24 34 35 67 65 178l58 215c22 89 23 93 23 115c0 39 -29 55 -93 55l6 47h263zM713 914c-21 -87 -99 -143 -200 -143c-107 0 -174 65 -160 143h36c4 -54 53 -86 129 -86c72 0 128 30 158 86h37z" />
    <glyph glyph-name="ubreve" unicode="&#x16d;" horiz-adv-x="611" 
d="M556 135c-71 -110 -120 -150 -181 -150c-37 0 -64 28 -64 66c0 19 2 33 12 68c-59 -92 -116 -133 -186 -133c-56 0 -95 37 -95 92c0 31 0 31 31 131l40 135c5 18 8 34 8 43c0 23 -15 32 -56 32h-24l3 36l193 15l-98 -328c-8 -27 -11 -45 -11 -57c0 -24 19 -43 43 -43
c71 0 163 114 204 253l47 160h87l-99 -332c-8 -29 -12 -48 -12 -59c0 -13 9 -24 19 -24c20 0 60 41 109 113zM512 690c-18 -97 -83 -159 -167 -159c-79 0 -134 56 -134 135c0 5 0 14 1 24h30c3 -60 44 -96 107 -96c60 0 107 34 132 96h31z" />
    <glyph glyph-name="Uring" unicode="&#x16e;" horiz-adv-x="815" 
d="M855 675c-88 -4 -97 -15 -140 -170l-56 -211c-64 -242 -123 -309 -316 -309c-163 0 -250 67 -250 191c0 34 4 60 20 118l82 305c5 20 9 41 9 49c0 22 -14 27 -79 27h-25l5 47h318l-6 -47h-18c-49 0 -59 -4 -69 -14c-10 -8 -9 -8 -23 -62l-90 -333
c-8 -28 -14 -77 -14 -103c0 -85 59 -135 161 -135c77 0 134 28 174 84c24 34 35 67 65 178l58 215c22 89 23 93 23 115c0 39 -29 55 -93 55l6 47h263zM636 858c0 -56 -45 -100 -101 -100c-53 0 -98 46 -98 100s45 99 100 99c54 0 99 -45 99 -99zM600 858c0 34 -29 63 -63 63
c-35 0 -64 -29 -64 -63c0 -35 29 -64 63 -64c36 0 64 28 64 64z" />
    <glyph glyph-name="uring" unicode="&#x16f;" horiz-adv-x="611" 
d="M556 135c-71 -110 -120 -150 -181 -150c-37 0 -64 28 -64 66c0 19 2 33 12 68c-59 -92 -116 -133 -186 -133c-56 0 -95 37 -95 92c0 31 0 31 31 131l40 135c5 18 8 34 8 43c0 23 -15 32 -56 32h-24l3 36l193 15l-98 -328c-8 -27 -11 -45 -11 -57c0 -24 19 -43 43 -43
c71 0 163 114 204 253l47 160h87l-99 -332c-8 -29 -12 -48 -12 -59c0 -13 9 -24 19 -24c20 0 60 41 109 113zM465 611c0 -56 -45 -100 -101 -100c-53 0 -98 46 -98 100s45 99 100 99c54 0 99 -45 99 -99zM429 611c0 34 -29 63 -63 63c-35 0 -64 -29 -64 -63
c0 -35 29 -64 63 -64c36 0 64 28 64 64z" />
    <glyph glyph-name="Uhungarumlaut" unicode="&#x170;" horiz-adv-x="815" 
d="M855 675c-88 -4 -97 -15 -140 -170l-56 -211c-64 -242 -123 -309 -316 -309c-163 0 -250 67 -250 191c0 34 4 60 20 118l82 305c5 20 9 41 9 49c0 22 -14 27 -79 27h-25l5 47h318l-6 -47h-18c-49 0 -59 -4 -69 -14c-10 -8 -9 -8 -23 -62l-90 -333
c-8 -28 -14 -77 -14 -103c0 -85 59 -135 161 -135c77 0 134 28 174 84c24 34 35 67 65 178l58 215c22 89 23 93 23 115c0 39 -29 55 -93 55l6 47h263zM639 912c0 -13 -11 -30 -25 -39l-159 -95h-41l140 139c25 24 35 30 50 30c19 0 35 -16 35 -35zM790 912
c0 -14 -10 -30 -25 -39l-159 -95h-41l140 139c25 24 35 30 50 30c19 0 35 -16 35 -35z" />
    <glyph glyph-name="uhungarumlaut" unicode="&#x171;" horiz-adv-x="611" 
d="M556 135c-71 -110 -120 -150 -181 -150c-37 0 -64 28 -64 66c0 19 2 33 12 68c-59 -92 -116 -133 -186 -133c-56 0 -95 37 -95 92c0 31 0 31 31 131l40 135c5 18 8 34 8 43c0 23 -15 32 -56 32h-24l3 36l193 15l-98 -328c-8 -27 -11 -45 -11 -57c0 -24 19 -43 43 -43
c71 0 163 114 204 253l47 160h87l-99 -332c-8 -29 -12 -48 -12 -59c0 -13 9 -24 19 -24c20 0 60 41 109 113zM467 660c0 -13 -11 -30 -25 -39l-159 -95h-41l140 139c25 24 35 30 50 30c19 0 35 -16 35 -35zM618 660c0 -14 -10 -30 -25 -39l-159 -95h-41l140 139
c25 24 35 30 50 30c19 0 35 -16 35 -35z" />
    <glyph glyph-name="Uogonek" unicode="&#x172;" horiz-adv-x="815" 
d="M855 675c-88 -4 -97 -15 -140 -170l-56 -211c-54 -206 -105 -285 -238 -304c-48 -7 -94 -43 -94 -84c0 -32 14 -61 44 -61c21 0 36 5 64 31l20 -18c-30 -40 -80 -80 -117 -80c-40 0 -80 41 -83 91c3 42 29 80 65 116c-148 7 -227 73 -227 191c0 34 4 60 20 118l82 305
c5 20 9 41 9 49c0 22 -14 27 -79 27h-25l5 47h318l-6 -47h-18c-49 0 -59 -4 -69 -14c-10 -8 -9 -8 -23 -62l-90 -333c-8 -28 -14 -77 -14 -103c0 -85 59 -135 161 -135c77 0 134 28 174 84c24 34 35 67 65 178l58 215c22 89 23 93 23 115c0 39 -29 55 -93 55l6 47h263z" />
    <glyph glyph-name="uogonek" unicode="&#x173;" horiz-adv-x="611" 
d="M482 -142c-30 -40 -81 -80 -118 -80c-40 0 -79 41 -82 91c2 44 31 83 69 120c-24 10 -40 33 -40 62c0 19 2 33 12 68c-59 -92 -116 -133 -186 -133c-56 0 -95 37 -95 92c0 31 0 31 31 131l40 135c5 18 8 34 8 43c0 23 -15 32 -56 32h-24l3 36l193 15l-98 -328
c-8 -27 -11 -45 -11 -57c0 -24 19 -43 43 -43c71 0 163 114 204 253l47 160h87l-99 -332c-8 -29 -12 -48 -12 -59c0 -13 9 -24 19 -24c20 0 60 41 109 113l30 -18c-50 -77 -89 -120 -128 -138c-40 -19 -74 -54 -74 -91c0 -32 14 -61 44 -61c21 0 36 5 64 31z" />
    <glyph glyph-name="Wcircumflex" unicode="&#x174;" horiz-adv-x="926" 
d="M968 675c-68 -15 -88 -37 -135 -143l-238 -547h-38l-70 505l-227 -505h-35l-79 602c-5 37 -12 65 -19 72c-9 11 -26 16 -48 16h-26l5 47h267l-6 -47h-20c-42 0 -55 -8 -55 -30c0 -6 0 -11 5 -46l54 -403l168 383l-7 50c-6 43 -7 46 -70 46h-18l5 47h278l-5 -47h-19
c-49 0 -61 -6 -61 -27c0 -9 1 -17 2 -27l54 -425l163 376c16 38 23 59 23 72c0 21 -21 31 -64 31h-17l5 47h233zM709 766h-43l-104 94l-163 -94h-43l184 152h60z" />
    <glyph glyph-name="wcircumflex" unicode="&#x175;" horiz-adv-x="778" 
d="M708 391c0 -82 -41 -205 -95 -289c-53 -81 -106 -117 -174 -117c-66 0 -108 42 -108 108c0 11 1 25 2 41c-36 -54 -51 -72 -76 -97c-33 -34 -75 -52 -118 -52c-65 0 -107 38 -107 97c0 20 5 46 17 85l52 177c5 16 8 34 8 43c0 23 -15 32 -56 32h-17l4 36l185 15l-87 -293
c-20 -67 -20 -69 -20 -91c0 -27 23 -48 52 -48c34 0 68 24 104 75c40 55 69 114 87 175l50 167h87l-65 -216c-16 -56 -23 -94 -23 -130c0 -44 21 -71 55 -71c47 0 94 44 139 128c26 50 45 114 45 152c0 21 -4 29 -28 56c-16 18 -21 29 -21 46c0 28 20 50 46 50
c35 0 62 -35 62 -79zM585 526h-36l-86 104l-136 -104h-36l153 169h50z" />
    <glyph glyph-name="Ycircumflex" unicode="&#x176;" horiz-adv-x="685" 
d="M753 675c-72 -4 -101 -23 -171 -111l-200 -256l-50 -185c-10 -41 -10 -41 -10 -49c0 -22 14 -27 80 -27h36l-5 -47h-347l6 47h22c49 0 73 4 83 14c9 8 9 9 23 62l50 185l-120 298c-23 56 -42 69 -101 69h-17l5 47h308l-5 -47h-28c-44 0 -61 -7 -61 -24c0 -8 4 -21 11 -38
l100 -249l170 218c16 19 26 41 26 54c0 24 -24 39 -64 39h-23l5 47h282zM625 766h-43l-104 94l-163 -94h-43l184 152h60z" />
    <glyph glyph-name="ycircumflex" unicode="&#x177;" horiz-adv-x="500" 
d="M454 418c0 -33 -12 -64 -69 -174c-75 -146 -154 -278 -201 -338c-59 -74 -113 -108 -171 -108c-52 0 -92 33 -92 74c0 30 23 54 52 54c19 0 36 -12 43 -31c3 -8 3 -8 3 -39c0 -10 7 -16 19 -16c27 0 66 28 106 77c17 22 24 32 57 84c-22 126 -40 210 -71 324
c-11 43 -24 64 -38 64c-17 0 -28 -16 -65 -96l-31 14c41 108 86 163 130 163c43 0 71 -46 94 -155l44 -211c65 103 104 197 104 247c0 15 0 18 -6 52c-1 6 -2 12 -2 17c0 27 22 50 49 50s45 -21 45 -52zM429 526h-36l-86 104l-136 -104h-36l153 169h50z" />
    <glyph glyph-name="Ydieresis" unicode="&#x178;" horiz-adv-x="685" 
d="M753 675c-72 -4 -101 -23 -171 -111l-200 -256l-50 -185c-10 -41 -10 -41 -10 -49c0 -22 14 -27 80 -27h36l-5 -47h-347l6 47h22c49 0 73 4 83 14c9 8 9 9 23 62l50 185l-120 298c-23 56 -42 69 -101 69h-17l5 47h308l-5 -47h-28c-44 0 -61 -7 -61 -24c0 -8 4 -21 11 -38
l100 -249l170 218c16 19 26 41 26 54c0 24 -24 39 -64 39h-23l5 47h282zM423 842c0 -27 -22 -49 -49 -49s-49 22 -49 49s22 49 49 49s49 -22 49 -49zM613 842c0 -27 -22 -49 -49 -49s-49 22 -49 49s22 49 49 49s49 -22 49 -49z" />
    <glyph glyph-name="Zacute" unicode="&#x179;" horiz-adv-x="667" 
d="M611 256l-82 -256h-554l6 38l533 637h-96c-83 0 -139 -13 -177 -42c-41 -30 -46 -42 -117 -161l-41 11l81 239h503l-6 -39l-534 -636h135c155 0 214 38 307 221zM587 887c0 -13 -12 -28 -30 -36l-191 -86h-47l166 126c27 21 42 27 60 27c22 0 42 -14 42 -31z" />
    <glyph glyph-name="zacute" unicode="&#x17a;" horiz-adv-x="463" 
d="M388 139c-31 -94 -94 -154 -162 -154c-35 0 -71 10 -119 32c-65 31 -65 31 -77 31c-8 0 -9 -1 -9 -17c0 -29 -11 -46 -30 -46c-15 0 -24 9 -24 24c0 30 26 77 72 128c57 62 80 80 227 171c38 24 49 34 74 60c-25 -6 -37 -8 -51 -8c-30 0 -37 1 -92 20
c-26 8 -50 14 -60 14c-25 0 -51 -25 -82 -80l-33 17c48 94 101 139 165 139c22 0 39 -6 84 -28c30 -15 55 -23 72 -23c14 0 20 5 26 26c5 17 13 25 24 25c14 0 24 -10 24 -23c0 -26 -32 -81 -79 -134c-49 -56 -90 -88 -167 -132c-79 -46 -98 -60 -121 -89c24 7 36 9 49 9
c28 0 40 -3 101 -24c28 -10 53 -16 67 -16c33 0 59 28 86 90zM411 660c0 -14 -10 -29 -25 -39l-159 -96h-39l138 140c24 23 35 30 50 30c19 0 35 -16 35 -35z" />
    <glyph glyph-name="Zdotaccent" unicode="&#x17b;" horiz-adv-x="667" 
d="M611 256l-82 -256h-554l6 38l533 637h-96c-83 0 -139 -13 -177 -42c-41 -30 -46 -42 -117 -161l-41 11l81 239h503l-6 -39l-534 -636h135c155 0 214 38 307 221zM497 842c0 -27 -22 -49 -49 -49s-49 22 -49 49s22 49 49 49s49 -22 49 -49z" />
    <glyph glyph-name="zdotaccent" unicode="&#x17c;" horiz-adv-x="463" 
d="M388 139c-31 -94 -94 -154 -162 -154c-35 0 -71 10 -119 32c-65 31 -65 31 -77 31c-8 0 -9 -1 -9 -17c0 -29 -11 -46 -30 -46c-15 0 -24 9 -24 24c0 30 26 77 72 128c57 62 80 80 227 171c38 24 49 34 74 60c-25 -6 -37 -8 -51 -8c-30 0 -37 1 -92 20
c-26 8 -50 14 -60 14c-25 0 -51 -25 -82 -80l-33 17c48 94 101 139 165 139c22 0 39 -6 84 -28c30 -15 55 -23 72 -23c14 0 20 5 26 26c5 17 13 25 24 25c14 0 24 -10 24 -23c0 -26 -32 -81 -79 -134c-49 -56 -90 -88 -167 -132c-79 -46 -98 -60 -121 -89c24 7 36 9 49 9
c28 0 40 -3 101 -24c28 -10 53 -16 67 -16c33 0 59 28 86 90zM343 610c0 -27 -22 -49 -49 -49s-49 22 -49 49s22 49 49 49s49 -22 49 -49z" />
    <glyph glyph-name="Zcaron" unicode="&#x17d;" horiz-adv-x="667" 
d="M611 256l-82 -256h-554l6 38l533 637h-96c-83 0 -139 -13 -177 -42c-41 -30 -46 -42 -117 -161l-41 11l81 239h503l-6 -39l-534 -636h135c155 0 214 38 307 221zM644 918l-184 -152h-60l-109 152h43l104 -94l163 94h43z" />
    <glyph glyph-name="zcaron" unicode="&#x17e;" horiz-adv-x="463" 
d="M388 139c-31 -94 -94 -154 -162 -154c-35 0 -71 10 -119 32c-65 31 -65 31 -77 31c-8 0 -9 -1 -9 -17c0 -29 -11 -46 -30 -46c-15 0 -24 9 -24 24c0 30 26 77 72 128c57 62 80 80 227 171c38 24 49 34 74 60c-25 -6 -37 -8 -51 -8c-30 0 -37 1 -92 20
c-26 8 -50 14 -60 14c-25 0 -51 -25 -82 -80l-33 17c48 94 101 139 165 139c22 0 39 -6 84 -28c30 -15 55 -23 72 -23c14 0 20 5 26 26c5 17 13 25 24 25c14 0 24 -10 24 -23c0 -26 -32 -81 -79 -134c-49 -56 -90 -88 -167 -132c-79 -46 -98 -60 -121 -89c24 7 36 9 49 9
c28 0 40 -3 101 -24c28 -10 53 -16 67 -16c33 0 59 28 86 90zM457 692l-159 -163h-51l-95 163h37l89 -98l142 98h37z" />
    <glyph glyph-name="longs" unicode="&#x17f;" 
d="M470 646c0 -30 -23 -53 -54 -53c-29 0 -52 20 -52 45c0 9 2 17 9 28c6 10 7 14 7 18c0 10 -11 17 -24 17c-37 0 -64 -27 -88 -86c-20 -47 -25 -65 -49 -160l-73 -294c-23 -92 -81 -283 -104 -345l-110 -18c62 138 113 289 148 436l41 174h-89l13 47h87
c25 92 41 134 70 181c39 65 94 100 157 100c64 0 111 -38 111 -90z" />
    <glyph glyph-name="Ereversed" unicode="&#x18e;" horiz-adv-x="722" 
d="M770 722l-19 -47h-26c-65 0 -82 -5 -94 -27c-4 -8 -11 -29 -17 -49l-127 -476c-15 -53 -14 -54 -10 -62c5 -10 12 -14 61 -14h19l-20 -47h-601l53 245l45 8l1 -8c2 -161 46 -198 183 -198h54c52 0 74 8 87 32c7 12 8 17 19 55l59 220h-32c-74 0 -117 -30 -150 -91
c-12 -22 -18 -37 -28 -69l-49 -8l90 334l48 6c-18 -88 4 -125 101 -125h33l55 205c17 64 12 69 -63 69h-58c-85 0 -156 -31 -225 -159l-18 -35h-45l90 241h584z" />
    <glyph glyph-name="florin" unicode="&#x192;" horiz-adv-x="556" 
d="M563 660c0 -37 -25 -64 -61 -64c-28 0 -49 18 -49 43c0 13 3 20 15 36c4 6 6 9 6 12c0 6 -7 10 -16 10c-29 0 -59 -25 -77 -64c-17 -36 -27 -73 -45 -158l-9 -42h136l-5 -43h-138l-48 -253c-25 -132 -44 -190 -82 -246c-42 -61 -96 -93 -156 -93c-54 0 -91 31 -91 76
c0 36 26 63 62 63c28 0 48 -19 48 -45c0 -14 -3 -19 -17 -35c-3 -3 -4 -6 -4 -9c0 -6 6 -10 14 -10c30 0 61 25 78 62c19 42 28 75 52 205l53 285h-120l5 43h122l10 43c14 68 45 143 75 182c38 50 91 78 150 78c56 0 92 -30 92 -76z" />
    <glyph glyph-name="Ohorn" unicode="&#x1a0;" horiz-adv-x="778" 
d="M735 450c0 -238 -190 -465 -423 -465c-166 0 -272 113 -272 290c0 249 203 462 417 462c49 0 96 -12 137 -34c8 5 16 11 22 19c-25 15 -39 23 -39 46c0 30 28 49 53 49c35 0 58 -28 58 -59c0 -30 -22 -63 -53 -82c67 -58 100 -128 100 -226zM618 496
c0 111 -45 198 -158 198c-69 0 -126 -32 -179 -100c-65 -84 -123 -266 -123 -387c0 -110 60 -179 156 -179c78 0 151 43 196 116c62 100 108 249 108 352z" />
    <glyph glyph-name="ohorn" unicode="&#x1a1;" horiz-adv-x="500" 
d="M450 281c0 -141 -110 -296 -267 -296c-109 0 -178 73 -178 187c0 165 135 298 268 298c38 0 73 -13 102 -35c9 5 16 12 23 20c-25 15 -39 23 -39 46c0 30 28 49 53 49c35 0 58 -28 58 -59c0 -35 -27 -68 -64 -87c27 -33 44 -76 44 -123zM308 122c27 55 47 135 47 187
c0 77 -32 123 -87 123c-100 0 -173 -159 -173 -304c0 -68 31 -105 89 -105c53 0 90 30 124 99z" />
    <glyph glyph-name="Uhorn" unicode="&#x1af;" horiz-adv-x="790" 
d="M875 758c0 -54 -57 -94 -121 -107l-95 -357c-27 -102 -27 -102 -41 -137c-49 -127 -134 -172 -275 -172c-163 0 -250 67 -250 191c0 34 4 60 20 118l82 305c5 20 9 41 9 49c0 22 -14 27 -79 27h-25l5 47h318l-6 -47h-4c-49 0 -73 -4 -83 -14c-10 -8 -9 -8 -23 -62
l-90 -333c-8 -28 -14 -77 -14 -103c0 -85 59 -135 161 -135c77 0 134 28 174 84c25 34 35 67 65 178l58 215c24 89 23 93 23 115c0 39 -29 55 -93 55l6 47h176l-8 -28c16 7 28 16 38 28c-25 15 -39 23 -39 46c0 30 28 49 53 49c35 0 58 -28 58 -59z" />
    <glyph glyph-name="uhorn" unicode="&#x1b0;" horiz-adv-x="605" 
d="M556 135c-71 -110 -120 -150 -181 -150c-37 0 -64 28 -64 66c0 19 2 33 12 68c-59 -92 -116 -133 -186 -133c-56 0 -95 37 -95 92c0 31 1 31 31 131l40 135c5 18 8 34 8 43c0 23 -15 32 -56 32h-24l3 36l193 15l-98 -328c-8 -27 -11 -45 -11 -57c0 -24 19 -43 43 -43
c71 0 163 114 204 253l47 160h87l-9 -28c16 7 29 16 39 28c-25 15 -39 23 -39 46c0 30 28 49 53 49c35 0 58 -28 58 -59c0 -54 -57 -95 -123 -106l-78 -262c-9 -29 -12 -48 -12 -59c0 -13 9 -24 19 -24c20 0 60 41 109 113z" />
    <glyph glyph-name="Acaron" unicode="&#x1cd;" horiz-adv-x="704" 
d="M663 0h-301l5 47h23c57 0 65 7 65 36c0 7 -2 20 -4 32l-23 123h-255l-55 -96c-12 -20 -18 -40 -18 -55c0 -30 17 -40 69 -40h24l-6 -47h-269l5 47c54 0 95 33 148 121l330 569h41l125 -629c10 -52 21 -61 76 -61h25zM420 285l-57 287l-163 -287h220zM646 918l-184 -152
h-60l-109 152h43l104 -94l163 94h43z" />
    <glyph glyph-name="acaron" unicode="&#x1ce;" horiz-adv-x="574" 
d="M523 141c-12 -27 -29 -55 -49 -83c-35 -49 -73 -73 -117 -73c-36 0 -61 26 -61 65c0 10 1 17 5 32c-50 -72 -90 -97 -152 -97c-89 0 -148 65 -148 163c0 80 30 164 81 230c47 60 104 92 165 92c65 0 115 -43 122 -105l27 90h87l-100 -336c-7 -25 -11 -44 -11 -54
c0 -14 10 -25 21 -25c26 0 61 42 99 118zM289 126c31 63 51 143 51 200c0 55 -29 89 -76 89c-30 0 -58 -12 -80 -35c-53 -54 -92 -158 -92 -246c0 -61 30 -98 80 -98s86 28 117 90zM479 692l-159 -163h-51l-95 163h37l89 -98l142 98h37z" />
    <glyph glyph-name="Icaron" unicode="&#x1cf;" horiz-adv-x="407" 
d="M277 0h-310l5 47c59 1 72 3 84 14c9 9 10 12 23 62l128 476c7 27 10 41 10 49c0 22 -14 27 -80 27h-22l6 47h310l-5 -47c-58 -1 -72 -3 -84 -14c-9 -9 -9 -10 -23 -62l-128 -476c-9 -34 -10 -39 -10 -48c0 -23 14 -28 80 -28h22zM524 918l-184 -152h-60l-109 152h43
l104 -94l163 94h43z" />
    <glyph glyph-name="icaron" unicode="&#x1d0;" 
d="M282 140c-28 -43 -44 -65 -62 -85c-40 -46 -81 -69 -124 -69c-39 0 -69 27 -69 62c0 22 4 38 22 101l58 195c6 22 9 35 9 44c0 22 -16 31 -57 31h-24l4 36l192 15l-106 -357c-8 -28 -12 -46 -12 -56c0 -12 7 -21 17 -21c27 0 71 44 121 121zM384 692l-159 -163h-51
l-95 163h37l89 -98l142 98h37z" />
    <glyph glyph-name="Ocaron" unicode="&#x1d1;" horiz-adv-x="778" 
d="M735 450c0 -238 -190 -465 -423 -465c-166 0 -272 113 -272 290c0 249 203 462 417 462c158 0 278 -118 278 -287zM618 496c0 111 -45 198 -158 198c-69 0 -126 -32 -179 -100c-65 -84 -123 -266 -123 -387c0 -110 60 -179 156 -179c78 0 151 43 196 116
c62 100 108 249 108 352zM710 918l-184 -152h-60l-109 152h43l104 -94l163 94h43z" />
    <glyph glyph-name="ocaron" unicode="&#x1d2;" horiz-adv-x="500" 
d="M450 281c0 -74 -32 -154 -85 -214c-48 -54 -110 -82 -182 -82c-109 0 -178 73 -178 187c0 83 29 155 84 212c54 56 119 86 184 86c97 0 177 -85 177 -189zM308 122c27 55 47 135 47 187c0 77 -32 123 -87 123c-38 0 -70 -18 -98 -54c-41 -55 -75 -167 -75 -250
c0 -68 31 -105 89 -105c53 0 90 30 124 99zM494 692l-159 -163h-51l-95 163h37l89 -98l142 98h37z" />
    <glyph glyph-name="Ucaron" unicode="&#x1d3;" horiz-adv-x="815" 
d="M855 675c-88 -4 -97 -15 -140 -170l-56 -211c-64 -242 -123 -309 -316 -309c-163 0 -250 67 -250 191c0 34 4 60 20 118l82 305c5 20 9 41 9 49c0 22 -14 27 -79 27h-25l5 47h318l-6 -47h-18c-49 0 -59 -4 -69 -14c-10 -8 -9 -8 -23 -62l-90 -333
c-8 -28 -14 -77 -14 -103c0 -85 59 -135 161 -135c77 0 134 28 174 84c24 34 35 67 65 178l58 215c22 89 23 93 23 115c0 39 -29 55 -93 55l6 47h263zM729 918l-184 -152h-60l-109 152h43l104 -94l163 94h43z" />
    <glyph glyph-name="ucaron" unicode="&#x1d4;" horiz-adv-x="611" 
d="M556 135c-71 -110 -120 -150 -181 -150c-37 0 -64 28 -64 66c0 19 2 33 12 68c-59 -92 -116 -133 -186 -133c-56 0 -95 37 -95 92c0 31 0 31 31 131l40 135c5 18 8 34 8 43c0 23 -15 32 -56 32h-24l3 36l193 15l-98 -328c-8 -27 -11 -45 -11 -57c0 -24 19 -43 43 -43
c71 0 163 114 204 253l47 160h87l-99 -332c-8 -29 -12 -48 -12 -59c0 -13 9 -24 19 -24c20 0 60 41 109 113zM529 692l-159 -163h-51l-95 163h37l89 -98l142 98h37z" />
    <glyph glyph-name="Udieresisacute" unicode="&#x1d7;" horiz-adv-x="815" 
d="M855 675c-88 -4 -97 -15 -140 -170l-56 -211c-64 -242 -123 -309 -316 -309c-163 0 -250 67 -250 191c0 34 4 60 20 118l82 305c5 20 9 41 9 49c0 22 -14 27 -79 27h-25l5 47h318l-6 -47h-18c-49 0 -59 -4 -69 -14c-10 -8 -9 -8 -23 -62l-90 -333
c-8 -28 -14 -77 -14 -103c0 -85 59 -135 161 -135c77 0 134 28 174 84c24 34 35 67 65 178l58 215c22 89 23 93 23 115c0 39 -29 55 -93 55l6 47h263zM487 842c0 -27 -22 -49 -49 -49s-49 22 -49 49s22 49 49 49s49 -22 49 -49zM677 842c0 -27 -22 -49 -49 -49
s-49 22 -49 49s22 49 49 49s49 -22 49 -49zM717 1056c0 -13 -12 -28 -30 -36l-191 -86h-47l166 126c27 21 42 27 60 27c22 0 42 -14 42 -31z" />
    <glyph glyph-name="udieresisacute" unicode="&#x1d8;" horiz-adv-x="611" 
d="M556 135c-71 -110 -120 -150 -181 -150c-37 0 -64 28 -64 66c0 19 2 33 12 68c-59 -92 -116 -133 -186 -133c-56 0 -95 37 -95 92c0 31 0 31 31 131l40 135c5 18 8 34 8 43c0 23 -15 32 -56 32h-24l3 36l193 15l-98 -328c-8 -27 -11 -45 -11 -57c0 -24 19 -43 43 -43
c71 0 163 114 204 253l47 160h87l-99 -332c-8 -29 -12 -48 -12 -59c0 -13 9 -24 19 -24c20 0 60 41 109 113zM320 610c0 -27 -22 -49 -49 -49s-49 22 -49 49s22 49 49 49s49 -22 49 -49zM510 610c0 -27 -22 -49 -49 -49s-49 22 -49 49s22 49 49 49s49 -22 49 -49zM547 809
c0 -13 -12 -28 -30 -36l-191 -86h-47l166 126c27 21 42 27 60 27c22 0 42 -14 42 -31z" />
    <glyph glyph-name="Udieresiscaron" unicode="&#x1d9;" horiz-adv-x="815" 
d="M855 675c-88 -4 -97 -15 -140 -170l-56 -211c-64 -242 -123 -309 -316 -309c-163 0 -250 67 -250 191c0 34 4 60 20 118l82 305c5 20 9 41 9 49c0 22 -14 27 -79 27h-25l5 47h318l-6 -47h-18c-49 0 -59 -4 -69 -14c-10 -8 -9 -8 -23 -62l-90 -333
c-8 -28 -14 -77 -14 -103c0 -85 59 -135 161 -135c77 0 134 28 174 84c24 34 35 67 65 178l58 215c22 89 23 93 23 115c0 39 -29 55 -93 55l6 47h263zM487 842c0 -27 -22 -49 -49 -49s-49 22 -49 49s22 49 49 49s49 -22 49 -49zM677 842c0 -27 -22 -49 -49 -49
s-49 22 -49 49s22 49 49 49s49 -22 49 -49zM774 1087l-184 -152h-60l-109 152h43l104 -94l163 94h43z" />
    <glyph glyph-name="udieresiscaron" unicode="&#x1da;" horiz-adv-x="611" 
d="M556 135c-71 -110 -120 -150 -181 -150c-37 0 -64 28 -64 66c0 19 2 33 12 68c-59 -92 -116 -133 -186 -133c-56 0 -95 37 -95 92c0 31 0 31 31 131l40 135c5 18 8 34 8 43c0 23 -15 32 -56 32h-24l3 36l193 15l-98 -328c-8 -27 -11 -45 -11 -57c0 -24 19 -43 43 -43
c71 0 163 114 204 253l47 160h87l-99 -332c-8 -29 -12 -48 -12 -59c0 -13 9 -24 19 -24c20 0 60 41 109 113zM320 610c0 -27 -22 -49 -49 -49s-49 22 -49 49s22 49 49 49s49 -22 49 -49zM510 610c0 -27 -22 -49 -49 -49s-49 22 -49 49s22 49 49 49s49 -22 49 -49zM604 840
l-184 -152h-60l-109 152h43l104 -94l163 94h43z" />
    <glyph glyph-name="Udieresisgrave" unicode="&#x1db;" horiz-adv-x="815" 
d="M855 675c-88 -4 -97 -15 -140 -170l-56 -211c-64 -242 -123 -309 -316 -309c-163 0 -250 67 -250 191c0 34 4 60 20 118l82 305c5 20 9 41 9 49c0 22 -14 27 -79 27h-25l5 47h318l-6 -47h-18c-49 0 -59 -4 -69 -14c-10 -8 -9 -8 -23 -62l-90 -333
c-8 -28 -14 -77 -14 -103c0 -85 59 -135 161 -135c77 0 134 28 174 84c24 34 35 67 65 178l58 215c22 89 23 93 23 115c0 39 -29 55 -93 55l6 47h263zM487 842c0 -27 -22 -49 -49 -49s-49 22 -49 49s22 49 49 49s49 -22 49 -49zM677 842c0 -27 -22 -49 -49 -49
s-49 22 -49 49s22 49 49 49s49 -22 49 -49zM665 934h-47l-145 86c-14 8 -18 23 -11 36c10 17 37 31 59 31c18 0 30 -6 46 -27z" />
    <glyph glyph-name="udieresisgrave" unicode="&#x1dc;" horiz-adv-x="611" 
d="M556 135c-71 -110 -120 -150 -181 -150c-37 0 -64 28 -64 66c0 19 2 33 12 68c-59 -92 -116 -133 -186 -133c-56 0 -95 37 -95 92c0 31 0 31 31 131l40 135c5 18 8 34 8 43c0 23 -15 32 -56 32h-24l3 36l193 15l-98 -328c-8 -27 -11 -45 -11 -57c0 -24 19 -43 43 -43
c71 0 163 114 204 253l47 160h87l-99 -332c-8 -29 -12 -48 -12 -59c0 -13 9 -24 19 -24c20 0 60 41 109 113zM320 610c0 -27 -22 -49 -49 -49s-49 22 -49 49s22 49 49 49s49 -22 49 -49zM510 610c0 -27 -22 -49 -49 -49s-49 22 -49 49s22 49 49 49s49 -22 49 -49zM495 687
h-47l-145 86c-14 8 -18 23 -11 36c10 17 37 31 59 31c18 0 30 -6 46 -27z" />
    <glyph glyph-name="eturned" unicode="&#x1dd;" horiz-adv-x="444" 
d="M408 297c0 -163 -132 -312 -278 -312c-70 0 -119 42 -119 103c0 58 43 109 120 143c45 20 65 26 182 54c1 13 2 27 2 34c0 64 -37 104 -97 104c-52 0 -96 -23 -155 -84l-24 27c54 70 119 104 196 104c108 0 173 -65 173 -173zM308 246c-56 -12 -73 -17 -102 -30
c-72 -32 -111 -79 -111 -134c0 -34 22 -57 55 -57c74 0 135 86 158 221z" />
    <glyph glyph-name="Gcaron" unicode="&#x1e6;" horiz-adv-x="778" 
d="M757 285h-21c-42 0 -51 -3 -63 -13c-10 -8 -11 -9 -26 -63l-60 -223h-44l-12 81c-62 -59 -122 -82 -217 -82c-172 0 -275 107 -275 288c0 224 190 464 416 464c81 0 136 -25 188 -84l62 62h34l-55 -281l-42 7c-3 170 -69 253 -179 253c-90 0 -166 -57 -225 -169
c-47 -90 -77 -207 -77 -303c0 -121 67 -194 178 -194c96 0 162 52 188 150l18 80v5c0 17 -20 22 -79 22h-33l5 47h325zM710 918l-184 -152h-60l-109 152h43l104 -94l163 94h43z" />
    <glyph glyph-name="gcaron" unicode="&#x1e7;" horiz-adv-x="537" 
d="M399 -40c0 -47 -25 -90 -68 -118c-49 -32 -106 -44 -205 -44c-83 0 -129 11 -169 39c-22 17 -36 45 -36 73c0 33 19 65 49 83c21 13 37 19 79 28c-39 19 -55 40 -55 74c0 24 13 51 33 67c23 20 44 27 90 33c-43 23 -62 56 -62 104c0 92 95 171 205 171c32 0 54 -5 86 -19
c52 41 79 54 114 54s63 -24 63 -52c0 -25 -18 -44 -40 -44c-16 0 -22 4 -38 26c-8 11 -16 16 -26 16c-12 0 -21 -5 -37 -19c39 -28 59 -65 59 -111c0 -45 -26 -96 -65 -127c-35 -28 -79 -42 -135 -42c-25 0 -31 1 -72 7c-14 2 -28 3 -41 3c-35 0 -60 -17 -60 -40
c0 -17 13 -29 37 -35c14 -3 22 -4 110 -9c68 -4 100 -11 132 -28c33 -18 52 -51 52 -90zM352 352c0 49 -33 80 -85 80c-72 0 -121 -63 -121 -153c0 -56 34 -90 88 -90c31 0 59 13 77 34c25 31 41 82 41 129zM322 -69c0 25 -12 42 -37 52c-23 10 -95 20 -140 20
c-90 0 -143 -32 -143 -86c0 -52 46 -77 142 -77c114 0 178 32 178 91zM461 692l-159 -163h-51l-95 163h37l89 -98l142 98h37z" />
    <glyph glyph-name="Oogonek" unicode="&#x1ea;" horiz-adv-x="778" 
d="M735 450c0 -202 -137 -397 -322 -450c-52 -16 -106 -50 -106 -94c0 -32 14 -61 44 -61c21 0 36 5 64 31l20 -18c-30 -40 -80 -80 -117 -80c-40 0 -80 41 -83 91c3 42 29 80 65 116c-159 6 -260 117 -260 290c0 249 203 462 417 462c158 0 278 -118 278 -287zM618 496
c0 111 -45 198 -158 198c-69 0 -126 -32 -179 -100c-65 -84 -123 -266 -123 -387c0 -110 60 -179 156 -179c78 0 151 43 196 116c62 100 108 249 108 352z" />
    <glyph glyph-name="oogonek" unicode="&#x1eb;" horiz-adv-x="500" 
d="M450 281c0 -74 -32 -154 -85 -214c-24 -27 -52 -47 -82 -61c-48 -22 -96 -57 -96 -100c0 -32 14 -61 44 -61c21 0 36 5 64 31l20 -18c-30 -40 -80 -80 -117 -80c-40 0 -80 41 -83 91c3 42 29 80 65 116c-107 1 -175 74 -175 187c0 83 29 155 84 212c54 56 119 86 184 86
c97 0 177 -85 177 -189zM308 122c27 55 47 135 47 187c0 77 -32 123 -87 123c-38 0 -70 -18 -98 -54c-41 -55 -75 -167 -75 -250c0 -68 31 -105 89 -105c53 0 90 30 124 99z" />
    <glyph glyph-name="jcaron" unicode="&#x1f0;" horiz-adv-x="315" 
d="M279 470l-119 -400c-43 -145 -51 -165 -81 -202c-39 -45 -90 -70 -143 -70c-62 0 -102 31 -102 80c0 35 23 60 56 60c28 0 48 -19 48 -47c0 -10 -1 -14 -8 -27c-3 -5 -5 -10 -5 -14c0 -9 10 -18 21 -18c44 0 80 54 108 163c10 41 20 78 25 92l76 257c7 23 9 35 9 43
c0 23 -16 32 -57 32h-35l4 36zM431 692l-159 -163h-51l-95 163h37l89 -98l142 98h37z" />
    <glyph glyph-name="Gacute" unicode="&#x1f4;" horiz-adv-x="778" 
d="M757 285h-21c-42 0 -51 -3 -63 -13c-10 -8 -11 -9 -26 -63l-60 -223h-44l-12 81c-62 -59 -122 -82 -217 -82c-172 0 -275 107 -275 288c0 224 190 464 416 464c81 0 136 -25 188 -84l62 62h34l-55 -281l-42 7c-3 170 -69 253 -179 253c-90 0 -166 -57 -225 -169
c-47 -90 -77 -207 -77 -303c0 -121 67 -194 178 -194c96 0 162 52 188 150l18 80v5c0 17 -20 22 -79 22h-33l5 47h325zM653 887c0 -13 -12 -28 -30 -36l-191 -86h-47l166 126c27 21 42 27 60 27c22 0 42 -14 42 -31z" />
    <glyph glyph-name="gacute" unicode="&#x1f5;" horiz-adv-x="537" 
d="M399 -40c0 -47 -25 -90 -68 -118c-49 -32 -106 -44 -205 -44c-83 0 -129 11 -169 39c-22 17 -36 45 -36 73c0 33 19 65 49 83c21 13 37 19 79 28c-39 19 -55 40 -55 74c0 24 13 51 33 67c23 20 44 27 90 33c-43 23 -62 56 -62 104c0 92 95 171 205 171c32 0 54 -5 86 -19
c52 41 79 54 114 54s63 -24 63 -52c0 -25 -18 -44 -40 -44c-16 0 -22 4 -38 26c-8 11 -16 16 -26 16c-12 0 -21 -5 -37 -19c39 -28 59 -65 59 -111c0 -45 -26 -96 -65 -127c-35 -28 -79 -42 -135 -42c-25 0 -31 1 -72 7c-14 2 -28 3 -41 3c-35 0 -60 -17 -60 -40
c0 -17 13 -29 37 -35c14 -3 22 -4 110 -9c68 -4 100 -11 132 -28c33 -18 52 -51 52 -90zM352 352c0 49 -33 80 -85 80c-72 0 -121 -63 -121 -153c0 -56 34 -90 88 -90c31 0 59 13 77 34c25 31 41 82 41 129zM322 -69c0 25 -12 42 -37 52c-23 10 -95 20 -140 20
c-90 0 -143 -32 -143 -86c0 -52 46 -77 142 -77c114 0 178 32 178 91zM414 660c0 -14 -10 -29 -25 -39l-159 -96h-39l138 140c24 23 35 30 50 30c19 0 35 -16 35 -35z" />
    <glyph glyph-name="Aringacute" unicode="&#x1fa;" horiz-adv-x="704" 
d="M663 0h-301l5 47h23c57 0 65 7 65 36c0 7 -2 20 -4 32l-23 123h-255l-55 -96c-12 -20 -18 -40 -18 -55c0 -30 17 -40 69 -40h24l-6 -47h-269l5 47c54 0 95 33 148 121l330 569h41l125 -629c10 -52 21 -61 76 -61h25zM420 285l-57 287l-163 -287h220zM646 1099
c0 -13 -12 -28 -30 -36l-191 -86h-47l166 126c27 21 42 27 60 27c22 0 42 -14 42 -31zM553 858c0 -56 -45 -100 -101 -100c-53 0 -98 46 -98 100s45 99 100 99c54 0 99 -45 99 -99zM517 858c0 34 -29 63 -63 63c-35 0 -64 -29 -64 -63c0 -35 29 -64 63 -64c36 0 64 28 64 64
z" />
    <glyph glyph-name="aringacute" unicode="&#x1fb;" horiz-adv-x="574" 
d="M523 141c-12 -27 -29 -55 -49 -83c-35 -49 -73 -73 -117 -73c-36 0 -61 26 -61 65c0 10 1 17 5 32c-50 -72 -90 -97 -152 -97c-89 0 -148 65 -148 163c0 80 30 164 81 230c47 60 104 92 165 92c65 0 115 -43 122 -105l27 90h87l-100 -336c-7 -25 -11 -44 -11 -54
c0 -14 10 -25 21 -25c26 0 61 42 99 118zM289 126c31 63 51 143 51 200c0 55 -29 89 -76 89c-30 0 -58 -12 -80 -35c-53 -54 -92 -158 -92 -246c0 -61 30 -98 80 -98s86 28 117 90zM507 847c0 -13 -12 -28 -30 -36l-191 -86h-47l166 126c27 21 42 27 60 27
c22 0 42 -14 42 -31zM414 606c0 -56 -45 -100 -101 -100c-53 0 -98 46 -98 100s45 99 100 99c54 0 99 -45 99 -99zM378 606c0 34 -29 63 -63 63c-35 0 -64 -29 -64 -63c0 -35 29 -64 63 -64c36 0 64 28 64 64z" />
    <glyph glyph-name="AEacute" unicode="&#x1fc;" horiz-adv-x="870" 
d="M817 245l-78 -245h-532l6 47h18c49 0 59 4 69 14c9 8 9 8 23 62l42 155h-191l-95 -137c-15 -22 -25 -45 -25 -58c0 -34 42 -37 77 -36l-6 -47h-217l5 47c25 0 45 14 69 46l320 460c27 39 37 61 37 80c0 31 -21 42 -80 42h-27l5 47h633l-39 -241h-45l1 71
c0 82 -39 123 -118 123h-27c-52 0 -61 -8 -77 -69l-55 -205h27c82 0 108 36 137 125l46 -6l-90 -334l-45 8c7 29 9 47 9 70c0 60 -10 90 -70 90h-27l-59 -220c-5 -17 -12 -41 -12 -56c0 -21 20 -31 64 -31h22c129 0 204 71 265 206zM377 325l83 310c6 22 11 39 -1 39
c-6 0 -13 -4 -23 -20l-231 -329h172zM711 887c0 -13 -12 -28 -30 -36l-191 -86h-47l166 126c27 21 42 27 60 27c22 0 42 -14 42 -31z" />
    <glyph glyph-name="aeacute" unicode="&#x1fd;" horiz-adv-x="722" 
d="M638 91c-62 -73 -126 -106 -208 -106c-81 0 -128 36 -142 106c-52 -77 -104 -106 -188 -106c-73 0 -118 38 -118 99c0 96 90 146 321 176c13 51 15 66 15 88c0 50 -40 83 -100 83c-38 0 -71 -14 -71 -31c0 -4 25 -23 25 -51c0 -30 -21 -50 -53 -50c-33 0 -54 22 -54 56
c0 64 71 115 161 115c64 0 114 -24 153 -73c52 48 110 73 173 73c70 0 115 -40 115 -101c0 -95 -77 -140 -297 -177c-7 -25 -9 -37 -9 -55c0 -65 35 -104 95 -104c55 0 108 29 154 84zM581 375c0 32 -20 52 -51 52c-68 0 -112 -60 -152 -195c123 20 203 55 203 143zM293 220
c-142 -20 -218 -53 -218 -125c0 -35 25 -60 61 -60c76 0 123 51 157 185zM641 660c0 -14 -10 -29 -25 -39l-159 -96h-39l138 140c24 23 35 30 50 30c19 0 35 -16 35 -35z" />
    <glyph glyph-name="Oslashacute" unicode="&#x1fe;" horiz-adv-x="778" 
d="M735 451c0 -239 -190 -466 -422 -466c-63 0 -116 15 -160 44l-94 -116h-58l118 145c-52 51 -79 127 -79 218c0 245 194 461 413 461c64 0 123 -18 171 -53l53 66h58l-77 -95c52 -54 77 -120 77 -204zM584 634c-25 38 -71 59 -127 59c-66 0 -125 -33 -176 -99
c-65 -85 -123 -266 -123 -385c0 -27 5 -60 14 -84zM615 509c0 29 -4 56 -11 79l-409 -506c27 -35 68 -53 120 -53c192 0 300 269 300 480zM754 887c0 -13 -12 -28 -30 -36l-191 -86h-47l166 126c27 21 42 27 60 27c22 0 42 -14 42 -31z" />
    <glyph glyph-name="oslashacute" unicode="&#x1ff;" horiz-adv-x="500" 
d="M440 282c0 -144 -111 -297 -269 -297c-23 0 -43 3 -64 8l-64 -113h-43l72 129c-50 32 -77 89 -77 164c0 158 129 297 268 297c22 0 43 -4 63 -12l52 90h43l-62 -108c51 -38 81 -96 81 -158zM304 418c-15 10 -29 14 -47 14c-96 0 -172 -159 -172 -303c0 -25 6 -50 16 -70z
M298 122c28 57 47 134 47 190c0 28 -5 54 -15 76l-201 -355c15 -7 28 -10 45 -10c53 0 90 30 124 99zM530 660c0 -14 -10 -29 -25 -39l-159 -96h-39l138 140c24 23 35 30 50 30c19 0 35 -16 35 -35z" />
    <glyph glyph-name="Adblgrave" unicode="&#x200;" horiz-adv-x="704" 
d="M663 0h-301l5 47h23c57 0 65 7 65 36c0 7 -2 20 -4 32l-23 123h-255l-55 -96c-12 -20 -18 -40 -18 -55c0 -30 17 -40 69 -40h24l-6 -47h-269l5 47c54 0 95 33 148 121l330 569h41l125 -629c10 -52 21 -61 76 -61h25zM420 285l-57 287l-163 -287h220zM534 778h-41l-108 95
c-9 9 -11 26 -4 39c10 19 34 35 53 35c15 0 22 -6 34 -30zM383 778h-41l-108 95c-10 9 -12 25 -4 39c10 19 34 35 53 35c15 0 22 -6 34 -30z" />
    <glyph glyph-name="adblgrave" unicode="&#x201;" horiz-adv-x="574" 
d="M523 141c-12 -27 -29 -55 -49 -83c-35 -49 -73 -73 -117 -73c-36 0 -61 26 -61 65c0 10 1 17 5 32c-50 -72 -90 -97 -152 -97c-89 0 -148 65 -148 163c0 80 30 164 81 230c47 60 104 92 165 92c65 0 115 -43 122 -105l27 90h87l-100 -336c-7 -25 -11 -44 -11 -54
c0 -14 10 -25 21 -25c26 0 61 42 99 118zM289 126c31 63 51 143 51 200c0 55 -29 89 -76 89c-30 0 -58 -12 -80 -35c-53 -54 -92 -158 -92 -246c0 -61 30 -98 80 -98s86 28 117 90zM395 526h-41l-108 95c-9 9 -11 26 -4 39c10 19 34 35 53 35c15 0 22 -6 34 -30zM244 526
h-41l-108 95c-10 9 -12 25 -4 39c10 19 34 35 53 35c15 0 22 -6 34 -30z" />
    <glyph glyph-name="Edblgrave" unicode="&#x204;" horiz-adv-x="722" 
d="M642 245l-78 -245h-601l5 47h19c49 0 58 4 69 14c8 8 9 9 23 62l128 476c5 20 9 41 9 49c0 22 -14 27 -79 27h-26l6 47h584l-39 -241h-45v35c0 128 -54 159 -139 159h-58c-75 0 -83 -5 -100 -69l-55 -205h33c97 0 139 37 168 125l45 -6l-89 -334l-45 8c7 32 9 47 9 69
c0 61 -27 91 -101 91h-32l-59 -220c-10 -38 -11 -43 -11 -55c0 -24 18 -32 70 -32h54c137 0 201 37 289 198l5 8zM526 778h-41l-108 95c-9 9 -11 26 -4 39c10 19 34 35 53 35c15 0 22 -6 34 -30zM375 778h-41l-108 95c-10 9 -12 25 -4 39c10 19 34 35 53 35
c15 0 22 -6 34 -30z" />
    <glyph glyph-name="edblgrave" unicode="&#x205;" horiz-adv-x="444" 
d="M363 89c-54 -70 -119 -104 -196 -104c-108 0 -173 65 -173 173c0 163 132 312 278 312c70 0 119 -42 119 -103c0 -58 -43 -109 -120 -143c-45 -20 -65 -26 -182 -54c-1 -13 -2 -27 -2 -34c0 -64 37 -104 97 -104c52 0 96 23 155 84zM307 373c0 34 -22 57 -55 57
c-74 0 -135 -86 -158 -221c56 12 73 17 102 30c72 32 111 79 111 134zM401 526h-41l-108 95c-9 9 -11 26 -4 39c10 19 34 35 53 35c15 0 22 -6 34 -30zM250 526h-41l-108 95c-10 9 -12 25 -4 39c10 19 34 35 53 35c15 0 22 -6 34 -30z" />
    <glyph glyph-name="Idblgrave" unicode="&#x208;" horiz-adv-x="407" 
d="M277 0h-310l5 47c59 1 72 3 84 14c9 9 10 12 23 62l128 476c7 27 10 41 10 49c0 22 -14 27 -80 27h-22l6 47h310l-5 -47c-58 -1 -72 -3 -84 -14c-9 -9 -9 -10 -23 -62l-128 -476c-9 -34 -10 -39 -10 -48c0 -23 14 -28 80 -28h22zM412 778h-41l-108 95c-9 9 -11 26 -4 39
c10 19 34 35 53 35c15 0 22 -6 34 -30zM261 778h-41l-108 95c-10 9 -12 25 -4 39c10 19 34 35 53 35c15 0 22 -6 34 -30z" />
    <glyph glyph-name="idblgrave" unicode="&#x209;" 
d="M282 140c-28 -43 -44 -65 -62 -85c-40 -46 -81 -69 -124 -69c-39 0 -69 27 -69 62c0 22 4 38 22 101l58 195c6 22 9 35 9 44c0 22 -16 31 -57 31h-24l4 36l192 15l-106 -357c-8 -28 -12 -46 -12 -56c0 -12 7 -21 17 -21c27 0 71 44 121 121zM300 526h-41l-108 95
c-9 9 -11 26 -4 39c10 19 34 35 53 35c15 0 22 -6 34 -30zM149 526h-41l-108 95c-10 9 -12 25 -4 39c10 19 34 35 53 35c15 0 22 -6 34 -30z" />
    <glyph glyph-name="Odblgrave" unicode="&#x20c;" horiz-adv-x="778" 
d="M735 450c0 -238 -190 -465 -423 -465c-166 0 -272 113 -272 290c0 249 203 462 417 462c158 0 278 -118 278 -287zM618 496c0 111 -45 198 -158 198c-69 0 -126 -32 -179 -100c-65 -84 -123 -266 -123 -387c0 -110 60 -179 156 -179c78 0 151 43 196 116
c62 100 108 249 108 352zM598 778h-41l-108 95c-9 9 -11 26 -4 39c10 19 34 35 53 35c15 0 22 -6 34 -30zM447 778h-41l-108 95c-10 9 -12 25 -4 39c10 19 34 35 53 35c15 0 22 -6 34 -30z" />
    <glyph glyph-name="odblgrave" unicode="&#x20d;" horiz-adv-x="500" 
d="M450 281c0 -74 -32 -154 -85 -214c-48 -54 -110 -82 -182 -82c-109 0 -178 73 -178 187c0 83 29 155 84 212c54 56 119 86 184 86c97 0 177 -85 177 -189zM308 122c27 55 47 135 47 187c0 77 -32 123 -87 123c-38 0 -70 -18 -98 -54c-41 -55 -75 -167 -75 -250
c0 -68 31 -105 89 -105c53 0 90 30 124 99zM410 526h-41l-108 95c-9 9 -11 26 -4 39c10 19 34 35 53 35c15 0 22 -6 34 -30zM259 526h-41l-108 95c-10 9 -12 25 -4 39c10 19 34 35 53 35c15 0 22 -6 34 -30z" />
    <glyph glyph-name="Rdblgrave" unicode="&#x210;" horiz-adv-x="741" 
d="M673 132c-39 -106 -79 -147 -143 -147c-63 0 -106 49 -106 121c0 19 0 24 6 100c2 21 3 42 3 54c0 65 -32 90 -116 90h-69l-61 -227c-11 -41 -9 -41 -10 -49c0 -22 14 -27 79 -27h26l-5 -47h-318l5 47h16c49 0 61 4 72 14c8 8 9 9 23 62l128 476c5 20 9 41 9 49
c0 22 -14 27 -79 27h-26l6 47h320c189 0 258 -63 258 -164c0 -65 -40 -126 -102 -158c-36 -18 -75 -27 -153 -36c73 -27 103 -75 103 -162c0 -11 -1 -23 -1 -36l-1 -51c-1 -42 10 -61 30 -61c28 0 45 22 70 93zM571 565c0 70 -48 110 -132 110h-49c-47 0 -57 -9 -71 -60
l-59 -218h78c84 0 114 5 151 27c54 32 82 80 82 141zM533 778h-41l-108 95c-9 9 -11 26 -4 39c10 19 34 35 53 35c15 0 22 -6 34 -30zM382 778h-41l-108 95c-10 9 -12 25 -4 39c10 19 34 35 53 35c15 0 22 -6 34 -30z" />
    <glyph glyph-name="rdblgrave" unicode="&#x211;" horiz-adv-x="444" 
d="M433 396c0 -37 -25 -64 -59 -64c-19 0 -35 8 -43 22c-4 6 -4 9 -4 32c0 15 -6 23 -18 23c-46 0 -129 -126 -166 -251l-47 -158h-87l102 344c5 18 10 40 10 47c0 19 -18 28 -58 28h-24l4 36l181 15l-23 -116c53 82 97 116 153 116c46 0 79 -31 79 -74zM343 526h-41
l-108 95c-9 9 -11 26 -4 39c10 19 34 35 53 35c15 0 22 -6 34 -30zM192 526h-41l-108 95c-10 9 -12 25 -4 39c10 19 34 35 53 35c15 0 22 -6 34 -30z" />
    <glyph glyph-name="Udblgrave" unicode="&#x214;" horiz-adv-x="815" 
d="M855 675c-88 -4 -97 -15 -140 -170l-56 -211c-64 -242 -123 -309 -316 -309c-163 0 -250 67 -250 191c0 34 4 60 20 118l82 305c5 20 9 41 9 49c0 22 -14 27 -79 27h-25l5 47h318l-6 -47h-18c-49 0 -59 -4 -69 -14c-10 -8 -9 -8 -23 -62l-90 -333
c-8 -28 -14 -77 -14 -103c0 -85 59 -135 161 -135c77 0 134 28 174 84c24 34 35 67 65 178l58 215c22 89 23 93 23 115c0 39 -29 55 -93 55l6 47h263zM617 778h-41l-108 95c-9 9 -11 26 -4 39c10 19 34 35 53 35c15 0 22 -6 34 -30zM466 778h-41l-108 95c-10 9 -12 25 -4 39
c10 19 34 35 53 35c15 0 22 -6 34 -30z" />
    <glyph glyph-name="udblgrave" unicode="&#x215;" horiz-adv-x="611" 
d="M556 135c-71 -110 -120 -150 -181 -150c-37 0 -64 28 -64 66c0 19 2 33 12 68c-59 -92 -116 -133 -186 -133c-56 0 -95 37 -95 92c0 31 0 31 31 131l40 135c5 18 8 34 8 43c0 23 -15 32 -56 32h-24l3 36l193 15l-98 -328c-8 -27 -11 -45 -11 -57c0 -24 19 -43 43 -43
c71 0 163 114 204 253l47 160h87l-99 -332c-8 -29 -12 -48 -12 -59c0 -13 9 -24 19 -24c20 0 60 41 109 113zM445 526h-41l-108 95c-9 9 -11 26 -4 39c10 19 34 35 53 35c15 0 22 -6 34 -30zM294 526h-41l-108 95c-10 9 -12 25 -4 39c10 19 34 35 53 35c15 0 22 -6 34 -30z
" />
    <glyph glyph-name="uni0218" unicode="&#x218;" horiz-adv-x="667" 
d="M569 214c0 -132 -113 -229 -269 -229c-81 0 -150 26 -206 78l-59 -63h-35l55 285l40 -7c-1 -11 -1 -24 -1 -28c0 -134 81 -222 205 -222c103 0 174 58 174 143c0 37 -15 66 -44 87c-12 8 -24 13 -78 36l-86 36c-117 49 -147 105 -147 183c0 126 105 224 240 224
c73 0 130 -23 182 -74l54 52h38l-54 -261l-42 7c1 9 1 17 1 20c0 132 -66 213 -172 213c-89 0 -156 -57 -156 -131c0 -52 35 -88 114 -119l85 -34c119 -48 161 -98 161 -196zM285 -112c0 -69 -63 -139 -160 -176l-12 28c67 30 107 72 114 117l-15 -1c-30 0 -50 19 -50 48
c0 31 26 56 60 56c36 0 63 -30 63 -72z" />
    <glyph glyph-name="uni0219" unicode="&#x219;" horiz-adv-x="444" 
d="M356 139c0 -91 -79 -154 -194 -154c-100 0 -163 43 -163 113c0 39 25 67 58 67c29 0 51 -22 51 -50c0 -18 -3 -23 -21 -43c-4 -3 -7 -10 -7 -15c0 -20 36 -34 87 -34c69 0 114 35 114 88c0 34 -14 49 -71 72c-41 16 -62 26 -78 34c-44 23 -69 60 -69 102
c0 87 76 151 181 151c86 0 148 -43 148 -104c0 -36 -23 -61 -57 -61c-30 0 -52 19 -52 46c0 15 2 20 16 40c3 5 5 10 5 14c0 16 -27 27 -65 27c-58 0 -102 -34 -102 -80c0 -39 17 -55 82 -78c55 -20 65 -25 87 -39c32 -22 50 -57 50 -96zM194 -112c0 -69 -63 -139 -160 -176
l-12 28c67 30 107 72 114 117l-15 -1c-30 0 -50 19 -50 48c0 31 26 56 60 56c36 0 63 -30 63 -72z" />
    <glyph glyph-name="uni021A" unicode="&#x21a;" horiz-adv-x="685" 
d="M684 447l-42 5c2 41 2 52 2 70c0 107 -32 153 -122 153h-14c-31 0 -36 -5 -50 -56l-133 -496c-5 -19 -9 -42 -9 -49c0 -22 14 -27 79 -27h37l-6 -47h-346l5 47h22c49 0 73 4 84 14c8 8 9 9 23 62l136 510c3 11 5 20 5 25c0 12 -10 17 -33 17h-14
c-91 0 -129 -40 -227 -217l-41 6l88 258h598zM289 -112c0 -69 -63 -139 -160 -176l-12 28c67 30 107 72 114 117l-15 -1c-30 0 -50 19 -50 48c0 31 26 56 60 56c36 0 63 -30 63 -72z" />
    <glyph glyph-name="uni021B" unicode="&#x21b;" horiz-adv-x="352" 
d="M285 140c-26 -42 -36 -58 -50 -77c-35 -47 -91 -78 -138 -78c-40 0 -72 34 -72 76c0 22 5 45 19 95l75 252h-94l14 47h94l49 166h87l-49 -166h109l-14 -47h-109l-95 -319c-2 -8 -3 -15 -3 -23c0 -17 9 -28 23 -28c33 0 62 28 124 122zM153 -112c0 -69 -63 -139 -160 -176
l-12 28c67 30 107 72 114 117l-15 -1c-30 0 -50 19 -50 48c0 31 26 56 60 56c36 0 63 -30 63 -72z" />
    <glyph glyph-name="uni0237" unicode="&#x237;" horiz-adv-x="315" 
d="M279 470l-119 -400c-43 -145 -51 -165 -81 -202c-39 -45 -90 -70 -143 -70c-62 0 -102 31 -102 80c0 35 23 60 56 60c28 0 48 -19 48 -47c0 -10 -1 -14 -8 -27c-3 -5 -5 -10 -5 -14c0 -9 10 -18 21 -18c44 0 80 54 108 163c10 41 20 78 25 92l76 257c7 23 9 35 9 43
c0 23 -16 32 -57 32h-35l4 36z" />
    <glyph glyph-name="ereversed" unicode="&#x258;" horiz-adv-x="444" 
d="M371 158c-58 -108 -158 -173 -266 -173c-77 0 -124 34 -140 104l38 27c26 -61 58 -84 110 -84c60 0 118 40 153 104c4 7 10 21 16 34c-102 28 -119 34 -153 54c-59 34 -74 85 -43 143c32 61 104 103 174 103c146 0 198 -149 111 -312zM298 209c49 135 34 221 -40 221
c-33 0 -67 -23 -85 -57c-30 -55 -16 -102 39 -134c22 -13 36 -18 86 -30z" />
    <glyph glyph-name="schwa" unicode="&#x259;" horiz-adv-x="444" 
d="M408 297c0 -163 -132 -312 -278 -312c-70 0 -119 42 -119 103c0 58 43 109 120 143c45 20 65 26 182 54c1 13 2 27 2 34c0 64 -37 104 -97 104c-52 0 -96 -23 -155 -84l-24 27c54 70 119 104 196 104c108 0 173 -65 173 -173zM308 246c-56 -12 -73 -17 -102 -30
c-72 -32 -111 -79 -111 -134c0 -34 22 -57 55 -57c74 0 135 86 158 221z" />
    <glyph glyph-name="ringhalfright" unicode="&#x2be;" horiz-adv-x="357" 
d="M366 582c1 -111 -87 -211 -184 -211c-53 0 -96 36 -96 80c0 34 23 58 51 58c25 0 43 -17 43 -41c0 -19 -7 -29 -30 -39c-3 -1 -5 -1 -5 -3c-1 -8 18 -14 34 -14c27 0 49 16 70 46c26 36 40 87 41 133c0 44 -20 71 -54 71c-31 0 -64 -22 -95 -63c-1 -1 -4 -3 -6 -3
s-4 1 -5 2l-19 15c-2 1 -4 3 -4 6l1 4c38 58 84 87 136 87c74 0 122 -50 122 -128z" />
    <glyph glyph-name="ringhalfleft" unicode="&#x2bf;" horiz-adv-x="357" 
d="M341 458c-38 -58 -84 -87 -136 -87c-74 0 -122 50 -122 128c-1 111 87 211 184 211c53 0 96 -36 96 -80c0 -34 -23 -58 -51 -58c-25 0 -43 17 -43 41c0 19 7 29 30 39c3 1 5 1 6 3c0 8 -19 14 -35 14c-27 0 -49 -16 -70 -46c-26 -36 -40 -87 -41 -133
c1 -44 20 -71 54 -71c31 0 64 22 95 63c1 1 4 3 6 3s4 -1 5 -2l19 -15c2 -1 4 -3 4 -6z" />
    <glyph glyph-name="circumflex" unicode="&#x2c6;" 
d="M354 526h-36l-86 104l-136 -104h-36l153 169h50z" />
    <glyph glyph-name="caron" unicode="&#x2c7;" 
d="M393 692l-159 -163h-51l-95 163h37l89 -98l142 98h37z" />
    <glyph glyph-name="breve" unicode="&#x2d8;" 
d="M376 690c-18 -97 -83 -159 -167 -159c-79 0 -134 56 -134 135c0 5 0 14 1 24h30c3 -60 44 -96 107 -96c60 0 107 34 132 96h31z" />
    <glyph glyph-name="dotaccent" unicode="&#x2d9;" 
d="M279 610c0 -27 -22 -49 -49 -49s-49 22 -49 49s22 49 49 49s49 -22 49 -49z" />
    <glyph glyph-name="ring" unicode="&#x2da;" 
d="M329 611c0 -56 -45 -100 -101 -100c-53 0 -98 46 -98 100s45 99 100 99c54 0 99 -45 99 -99zM293 611c0 34 -29 63 -63 63c-35 0 -64 -29 -64 -63c0 -35 29 -64 63 -64c36 0 64 28 64 64z" />
    <glyph glyph-name="ogonek" unicode="&#x2db;" 
d="M255 -142c-30 -40 -80 -80 -117 -80c-40 0 -80 41 -83 91c3 50 39 93 85 136h36c-39 -48 -49 -72 -49 -99c0 -32 14 -61 44 -61c21 0 36 5 64 31z" />
    <glyph glyph-name="tilde" unicode="&#x2dc;" 
d="M394 663c-7 -58 -49 -105 -93 -105c-22 0 -31 2 -86 23c-44 16 -60 21 -74 21c-22 0 -37 -15 -45 -45h-30c12 66 45 105 90 105c17 0 41 -6 100 -26c36 -13 45 -15 59 -15c22 0 37 12 49 42h30z" />
    <glyph glyph-name="hungarumlaut" unicode="&#x2dd;" 
d="M331 660c0 -13 -11 -30 -25 -39l-159 -95h-41l140 139c25 24 35 30 50 30c19 0 35 -16 35 -35zM482 660c0 -14 -10 -30 -25 -39l-159 -95h-41l140 139c25 24 35 30 50 30c19 0 35 -16 35 -35z" />
    <glyph glyph-name="uni0300" unicode="&#x300;" horiz-adv-x="0" 
d="M-62 525h-39l-108 96c-9 10 -11 25 -4 39c10 19 35 35 54 35c15 0 22 -7 34 -30z" />
    <glyph glyph-name="uni0301" unicode="&#x301;" horiz-adv-x="0" 
d="M-6 660c0 -14 -10 -29 -25 -39l-159 -96h-39l138 140c24 23 35 30 50 30c19 0 35 -16 35 -35z" />
    <glyph glyph-name="uni0302" unicode="&#x302;" horiz-adv-x="0" 
d="M1 526h-36l-86 104l-136 -104h-36l153 169h50z" />
    <glyph glyph-name="uni0303" unicode="&#x303;" horiz-adv-x="0" 
d="M41 663c-7 -58 -49 -105 -93 -105c-22 0 -31 2 -86 23c-44 16 -60 21 -74 21c-22 0 -37 -15 -45 -45h-30c12 66 45 105 90 105c17 0 41 -6 100 -26c36 -13 45 -15 59 -15c22 0 37 12 49 42h30z" />
    <glyph glyph-name="uni0304" unicode="&#x304;" horiz-adv-x="0" 
d="M22 585h-301l11 51h301z" />
    <glyph glyph-name="uni0306" unicode="&#x306;" horiz-adv-x="0" 
d="M23 690c-18 -97 -83 -159 -167 -159c-79 0 -134 56 -134 135c0 5 0 14 1 24h30c3 -60 44 -96 107 -96c60 0 107 34 132 96h31z" />
    <glyph glyph-name="uni0307" unicode="&#x307;" horiz-adv-x="0" 
d="M-74 610c0 -27 -22 -49 -49 -49s-49 22 -49 49s22 49 49 49s49 -22 49 -49z" />
    <glyph glyph-name="uni0308" unicode="&#x308;" horiz-adv-x="0" 
d="M-169 610c0 -27 -22 -49 -49 -49s-49 22 -49 49s22 49 49 49s49 -22 49 -49zM21 610c0 -27 -22 -49 -49 -49s-49 22 -49 49s22 49 49 49s49 -22 49 -49z" />
    <glyph glyph-name="uni0309" unicode="&#x309;" horiz-adv-x="0" 
d="M-17 645c0 -35 -15 -47 -80 -78c-32 -15 -38 -21 -46 -53h-33l5 18c8 29 -4 25 71 74h-1c14 10 21 19 21 31c0 15 -12 30 -36 30c-14 0 -29 -3 -34 -6c6 -8 12 -17 12 -25c0 -21 -25 -39 -47 -39c-20 0 -32 13 -32 30c0 46 60 80 124 80c52 0 76 -32 76 -62z" />
    <glyph glyph-name="uni030A" unicode="&#x30a;" horiz-adv-x="0" 
d="M-24 611c0 -56 -45 -100 -101 -100c-53 0 -98 46 -98 100s45 99 100 99c54 0 99 -45 99 -99zM-60 611c0 34 -29 63 -63 63c-35 0 -64 -29 -64 -63c0 -35 29 -64 63 -64c36 0 64 28 64 64z" />
    <glyph glyph-name="uni030B" unicode="&#x30b;" horiz-adv-x="0" 
d="M-22 660c0 -13 -11 -30 -25 -39l-159 -95h-41l140 139c25 24 35 30 50 30c19 0 35 -16 35 -35zM129 660c0 -14 -10 -30 -25 -39l-159 -95h-41l140 139c25 24 35 30 50 30c19 0 35 -16 35 -35z" />
    <glyph glyph-name="uni030C" unicode="&#x30c;" horiz-adv-x="0" 
d="M40 692l-159 -163h-51l-95 163h37l89 -98l142 98h37z" />
    <glyph glyph-name="uni030F" unicode="&#x30f;" horiz-adv-x="0" 
d="M-44 526h-41l-108 95c-9 9 -11 26 -4 39c10 19 34 35 53 35c15 0 22 -6 34 -30zM-195 526h-41l-108 95c-10 9 -12 25 -4 39c10 19 34 35 53 35c15 0 22 -6 34 -30z" />
    <glyph glyph-name="uni0311" unicode="&#x311;" horiz-adv-x="0" 
d="M-19 531h-30c-3 60 -44 96 -107 96c-60 0 -107 -34 -132 -96h-31c18 97 83 159 167 159c79 0 134 -56 134 -135c0 -5 0 -14 -1 -24z" />
    <glyph glyph-name="uni0323" unicode="&#x323;" horiz-adv-x="0" 
d="M-275 -140c0 -27 -22 -49 -49 -49s-49 22 -49 49s22 49 49 49s49 -22 49 -49z" />
    <glyph glyph-name="uni0326" unicode="&#x326;" horiz-adv-x="0" 
d="M-235 -112c0 -69 -63 -139 -160 -176l-12 28c67 30 107 72 114 117l-15 -1c-30 0 -50 19 -50 48c0 31 26 56 60 56c36 0 63 -30 63 -72z" />
    <glyph glyph-name="uni032E" unicode="&#x32e;" horiz-adv-x="0" 
d="M-143 -68c-21 -87 -99 -143 -200 -143c-107 0 -174 65 -160 143h36c4 -54 53 -86 129 -86c72 0 128 30 158 86h37z" />
    <glyph glyph-name="uni032F" unicode="&#x32f;" horiz-adv-x="0" 
d="M-181 -211h-36c-4 54 -53 86 -129 86c-72 0 -128 -30 -158 -86h-37c21 87 99 143 200 143c107 0 174 -65 160 -143z" />
    <glyph glyph-name="uni0330" unicode="&#x330;" horiz-adv-x="0" 
d="M-160 -87c-7 -58 -49 -105 -93 -105c-22 0 -31 2 -86 23c-44 16 -60 21 -74 21c-22 0 -37 -15 -45 -45h-30c12 66 45 105 90 105c17 0 41 -6 100 -26c36 -13 45 -15 59 -15c22 0 37 12 49 42h30z" />
    <glyph glyph-name="uni0331" unicode="&#x331;" horiz-adv-x="0" 
d="M-179 -165h-301l11 51h301z" />
    <glyph glyph-name="uni0332" unicode="&#x332;" horiz-adv-x="0" 
d="M-179 -165h-301l11 51h301z" />
    <glyph glyph-name="Alpha" unicode="&#x391;" horiz-adv-x="704" 
d="M663 0h-301l5 47h23c57 0 65 7 65 36c0 7 -2 20 -4 32l-23 123h-255l-55 -96c-12 -20 -18 -40 -18 -55c0 -30 17 -40 69 -40h24l-6 -47h-269l5 47c54 0 95 33 148 121l330 569h41l125 -629c10 -52 21 -61 76 -61h25zM420 285l-57 287l-163 -287h220z" />
    <glyph glyph-name="Beta" unicode="&#x392;" horiz-adv-x="722" 
d="M630 206c0 -128 -100 -206 -298 -206h-363l5 47h15c38 0 63 5 73 14c8 8 8 8 23 62l128 476c5 20 9 41 9 49c0 22 -14 27 -79 27h-26l6 47h301c167 0 244 -63 244 -167c0 -98 -72 -161 -195 -184c106 -32 157 -86 157 -165zM549 570c0 73 -36 105 -118 105h-29
c-52 0 -59 -7 -75 -68l-58 -213h83c132 0 197 70 197 176zM508 225c0 81 -53 122 -188 122h-63l-64 -238c-4 -15 -6 -27 -6 -35c0 -21 16 -27 70 -27h50c139 0 201 82 201 178z" />
    <glyph glyph-name="Gamma" unicode="&#x393;" horiz-adv-x="667" 
d="M659 481h-45v35c0 69 -9 101 -37 126c-25 22 -59 33 -102 33h-52c-75 0 -83 -5 -100 -69l-129 -483c-10 -41 -10 -41 -10 -49c0 -22 14 -27 79 -27h26l-5 -47h-318l5 47h22c49 0 55 4 66 14c8 8 9 9 23 62l128 476c5 20 9 41 9 49c0 22 -14 27 -79 27h-26l6 47h578z" />
    <glyph glyph-name="Delta" unicode="&#x394;" horiz-adv-x="612" 
d="M608 0h-602l321 688zM479 51l-189 458l-213 -458h402z" />
    <glyph glyph-name="Epsilon" unicode="&#x395;" horiz-adv-x="722" 
d="M642 245l-78 -245h-601l5 47h19c49 0 58 4 69 14c8 8 9 9 23 62l128 476c5 20 9 41 9 49c0 22 -14 27 -79 27h-26l6 47h584l-39 -241h-45v35c0 128 -54 159 -139 159h-58c-75 0 -83 -5 -100 -69l-55 -205h33c97 0 139 37 168 125l45 -6l-89 -334l-45 8c7 32 9 47 9 69
c0 61 -27 91 -101 91h-32l-59 -220c-10 -38 -11 -43 -11 -55c0 -24 18 -32 70 -32h54c137 0 201 37 289 198l5 8z" />
    <glyph glyph-name="Zeta" unicode="&#x396;" horiz-adv-x="667" 
d="M611 256l-82 -256h-554l6 38l533 637h-96c-83 0 -139 -13 -177 -42c-41 -30 -46 -42 -117 -161l-41 11l81 239h503l-6 -39l-534 -636h135c155 0 214 38 307 221z" />
    <glyph glyph-name="Eta" unicode="&#x397;" horiz-adv-x="833" 
d="M713 0h-317l5 47h17c49 0 60 4 71 14c8 8 8 9 23 62l61 231h-321l-62 -231c-10 -41 -10 -41 -10 -49c0 -22 14 -27 79 -27h26l-5 -47h-318l5 47h15c49 0 62 4 73 14c8 8 9 9 23 62l128 476c5 20 9 41 9 49c0 22 -14 27 -79 27h-26l6 47h317l-5 -47h-17
c-49 0 -60 -4 -70 -14c-9 -7 -9 -7 -23 -62l-54 -198h322l53 198c7 24 10 41 10 49c0 22 -14 27 -79 27h-26l5 47h318l-5 -47h-17c-50 0 -60 -4 -71 -14c-8 -7 -8 -7 -23 -62l-128 -476c-5 -19 -9 -42 -9 -49c0 -22 14 -27 79 -27h26z" />
    <glyph glyph-name="Theta" unicode="&#x398;" horiz-adv-x="778" 
d="M830 361c-58 -214 -249 -376 -445 -376c-195 0 -301 162 -244 375c55 205 241 377 449 377c192 0 297 -164 240 -376zM698 361c44 167 54 329 -121 329c-180 0 -257 -156 -303 -327c-45 -170 -56 -331 124 -331c178 0 254 160 300 329zM591 205h-47l5 20
c22 80 16 79 -26 79h-104c-42 0 -47 -1 -68 -81l-6 -20h-47l84 311h47l-6 -20c-21 -81 -16 -78 26 -78h104c42 0 47 -1 69 80l5 20h47z" />
    <glyph glyph-name="Iota" unicode="&#x399;" horiz-adv-x="407" 
d="M277 0h-310l5 47c59 1 72 3 84 14c9 9 10 12 23 62l128 476c7 27 10 41 10 49c0 22 -14 27 -80 27h-22l6 47h310l-5 -47c-58 -1 -72 -3 -84 -14c-9 -9 -9 -10 -23 -62l-128 -476c-9 -34 -10 -39 -10 -48c0 -23 14 -28 80 -28h22z" />
    <glyph glyph-name="Kappa" unicode="&#x39a;" horiz-adv-x="741" 
d="M691 0h-327l5 47h33c53 0 68 4 68 18c0 6 0 6 -16 39l-117 246l-113 -93l-36 -134c-10 -41 -10 -41 -10 -49c0 -22 14 -27 79 -27h26l-5 -47h-318l5 47h19c49 0 58 4 69 14c8 7 9 8 23 62l128 476c5 20 9 41 9 49c0 22 -14 27 -79 27h-26l6 47h317l-5 -47h-17
c-49 0 -60 -4 -70 -14c-9 -7 -9 -7 -24 -62l-68 -257l288 240c38 31 54 51 54 68c0 19 -14 25 -59 25h-22l6 47h300l-5 -47c-80 -6 -122 -26 -201 -98l-188 -157l152 -315c28 -58 28 -58 94 -58h31z" />
    <glyph glyph-name="Lambda" unicode="&#x39b;" horiz-adv-x="704" 
d="M663 0h-301l5 47h23c57 0 65 7 65 36c0 7 -2 20 -4 32l-88 457l-245 -430c-12 -20 -18 -40 -18 -55c0 -30 17 -40 69 -40h24l-6 -47h-269l5 47c54 0 95 33 148 121l330 569h41l125 -629c10 -52 21 -61 76 -61h25z" />
    <glyph glyph-name="Mu" unicode="&#x39c;" horiz-adv-x="944" 
d="M819 0h-317l5 47h17c49 0 60 4 71 14c8 8 8 8 23 62l132 493l-386 -616h-36l-62 602l-103 -385c-22 -89 -23 -93 -23 -115c0 -37 29 -55 89 -55l-5 -47h-250l5 47c72 2 92 28 130 170l102 382c6 23 10 41 10 49c0 22 -14 27 -79 27h-26l5 47h242l53 -540l341 540h216
l-5 -47h-14c-50 0 -63 -4 -74 -14c-8 -7 -8 -7 -23 -62l-127 -476c-6 -20 -10 -42 -10 -49c0 -22 14 -27 79 -27h26z" />
    <glyph glyph-name="Nu" unicode="&#x39d;" horiz-adv-x="815" 
d="M854 675c-84 -3 -104 -26 -142 -170l-139 -519h-39l-278 601l-99 -370c-23 -89 -24 -93 -24 -115c0 -37 19 -55 80 -55h21l-6 -47h-276l5 47c87 2 106 24 145 170l114 426c-8 27 -17 32 -65 32h-52l5 47h211l253 -552l90 335c22 89 23 93 23 115c0 37 -29 55 -90 55l6 47
h262z" />
    <glyph glyph-name="Xi" unicode="&#x39e;" horiz-adv-x="768" 
d="M827 220h-26c-52 -77 -77 -108 -231 -108h-311c-154 0 -163 31 -173 108h-26l-5 -220h659zM903 502h-26c-11 77 -20 108 -174 108h-311c-154 0 -179 -31 -230 -108h-26l112 220h659zM659 205h-47l5 20c22 80 16 79 -26 79h-254c-42 0 -47 -1 -68 -81l-6 -20h-47l84 311
h47l-6 -20c-21 -81 -16 -78 26 -78h254c42 0 47 -1 69 80l5 20h47z" />
    <glyph glyph-name="Omicron" unicode="&#x39f;" horiz-adv-x="778" 
d="M735 450c0 -238 -190 -465 -423 -465c-166 0 -272 113 -272 290c0 249 203 462 417 462c158 0 278 -118 278 -287zM618 496c0 111 -45 198 -158 198c-69 0 -126 -32 -179 -100c-65 -84 -123 -266 -123 -387c0 -110 60 -179 156 -179c78 0 151 43 196 116
c62 100 108 249 108 352z" />
    <glyph glyph-name="Pi" unicode="&#x3a0;" horiz-adv-x="833" 
d="M713 0h-317l5 47h17c49 0 60 4 71 14c8 8 8 9 23 62l127 476c7 24 10 41 10 49c0 22 -14 27 -79 27h-159c-49 0 -60 -4 -70 -14c-9 -7 -9 -7 -23 -62l-128 -476c-10 -41 -10 -41 -10 -49c0 -22 14 -27 79 -27h26l-5 -47h-318l5 47h15c49 0 62 4 73 14c8 8 9 9 23 62
l128 476c5 20 9 41 9 49c0 22 -14 27 -79 27h-26l6 47h751l-5 -47h-17c-50 0 -60 -4 -71 -14c-8 -7 -8 -7 -23 -62l-128 -476c-5 -19 -9 -42 -9 -49c0 -22 14 -27 79 -27h26z" />
    <glyph glyph-name="Rho" unicode="&#x3a1;" horiz-adv-x="667" 
d="M663 541c0 -79 -39 -144 -109 -182c-68 -36 -93 -41 -279 -41h-28l-52 -195c-11 -41 -9 -41 -10 -49c0 -22 14 -27 79 -27h26l-5 -47h-318l5 47h15c49 0 62 4 73 14c8 8 8 8 23 62l128 476c5 20 9 41 9 49c0 22 -14 27 -79 27h-26l6 47h295c185 0 247 -74 247 -181z
M551 552c0 89 -40 123 -145 123h-12c-41 0 -54 -10 -64 -48l-70 -262h29c98 -1 88 1 102 2c111 11 160 90 160 185z" />
    <glyph glyph-name="Sigma" unicode="&#x3a3;" horiz-adv-x="678" 
d="M715 210l-110 -210h-591l327 319l-125 403h593l-34 -165h-26c10 101 -14 124 -129 124h-262l106 -306l-271 -263h292c116 0 151 17 204 98h26z" />
    <glyph glyph-name="Tau" unicode="&#x3a4;" horiz-adv-x="685" 
d="M684 447l-42 5c2 41 2 52 2 70c0 107 -32 153 -122 153h-14c-31 0 -36 -5 -50 -56l-133 -496c-5 -19 -9 -42 -9 -49c0 -22 14 -27 79 -27h37l-6 -47h-346l5 47h22c49 0 73 4 84 14c8 8 9 9 23 62l136 510c3 11 5 20 5 25c0 12 -10 17 -33 17h-14
c-91 0 -129 -40 -227 -217l-41 6l88 258h598z" />
    <glyph glyph-name="Upsilon" unicode="&#x3a5;" horiz-adv-x="685" 
d="M684 536l-41 11c11 40 9 81 -26 81c-149 0 -204 -207 -252 -385l-33 -120c-10 -41 -10 -41 -10 -49c0 -22 14 -27 80 -27h36l-5 -47h-347l6 47h22c49 0 73 4 83 14c9 8 9 9 23 62l35 134c46 173 95 371 -55 371c-49 0 -99 -42 -112 -92l-41 11c23 86 78 175 153 175
c197 0 168 -250 107 -479l6 14c58 215 125 465 304 465c81 0 91 -94 67 -186z" />
    <glyph glyph-name="Phi" unicode="&#x3a6;" horiz-adv-x="711" 
d="M767 359c-33 -121 -173 -185 -313 -197l-10 -39c-9 -34 -10 -39 -10 -48c0 -23 14 -28 80 -28h22l-6 -47h-310l5 47c59 1 72 3 84 14c9 9 10 12 23 62l11 40c-133 14 -239 78 -206 200c33 121 173 185 313 197l10 39c7 27 10 41 10 49c0 22 -14 27 -80 27h-22l6 47h310
l-5 -47c-58 -1 -72 -3 -84 -14c-9 -9 -9 -10 -23 -62l-11 -40c133 -14 239 -78 206 -200zM437 514c-90 -18 -175 -73 -197 -155c-21 -82 34 -137 114 -153zM664 363c21 82 -34 137 -114 153l-83 -308c90 18 175 73 197 155z" />
    <glyph glyph-name="Chi" unicode="&#x3a7;" horiz-adv-x="704" 
d="M645 0h-321l6 47h31c48 0 61 5 61 23c0 6 -2 16 -6 25l-90 214l-151 -159c-25 -26 -39 -50 -39 -68c0 -23 18 -35 62 -35h21l-6 -47h-286l5 47c69 9 99 27 174 106l197 207l-104 245c-27 63 -38 70 -103 70h-24l5 47h315l-5 -47h-18c-46 0 -67 -9 -67 -28
c0 -7 1 -10 10 -32l72 -172l122 125c35 37 48 58 48 78s-17 29 -52 29h-20l5 47h283l-5 -47c-70 -2 -100 -19 -177 -97l-182 -186l116 -272c30 -69 36 -73 102 -73h26z" />
    <glyph glyph-name="Psi" unicode="&#x3a8;" horiz-adv-x="755" 
d="M864 557c-64 0 -87 -86 -106 -160c-33 -121 -155 -213 -281 -233l-11 -41c-9 -34 -10 -39 -10 -48c0 -23 14 -28 80 -28h22l-6 -47h-310l5 47c59 1 72 3 84 14c9 9 10 12 23 62l11 42c-114 24 -187 115 -154 236c19 71 41 156 -11 156v42c100 0 142 -97 114 -202
c-22 -84 2 -161 64 -186l104 388c7 27 10 41 10 49c0 22 -14 27 -80 27h-22l6 47h310l-5 -47c-58 -1 -72 -3 -84 -14c-9 -9 -9 -10 -23 -62l-104 -385c77 29 142 104 164 187c28 103 115 198 210 198v-42z" />
    <glyph glyph-name="Omega" unicode="&#x3a9;" horiz-adv-x="768" 
d="M824 210l-110 -210h-267l30 112c28 110 191 156 231 307c45 167 39 271 -136 271c-180 0 -241 -98 -287 -269c-41 -152 96 -198 65 -309l-30 -112h-265l2 210h26c10 -77 57 -98 202 -98c31 114 -170 169 -133 306c55 205 225 319 433 319c192 0 312 -106 255 -318
c-37 -138 -270 -195 -300 -307c154 0 207 21 258 98h26z" />
    <glyph glyph-name="alpha" unicode="&#x3b1;" horiz-adv-x="796" 
d="M785 111c-17 -63 -62 -126 -118 -126c-81 0 -116 63 -125 143c-62 -79 -135 -143 -220 -143c-152 0 -258 104 -220 249c39 143 195 251 343 251c100 0 164 -64 186 -153c45 67 95 133 134 163l49 -62c-64 -51 -126 -106 -176 -169c0 -12 0 -25 -2 -37
c-9 -87 -21 -200 31 -200c39 0 65 48 78 94zM540 195c0 14 1 28 3 42c10 101 -4 206 -98 206c-107 0 -209 -101 -239 -213c-29 -107 16 -203 116 -203c88 0 158 82 218 168z" />
    <glyph glyph-name="beta" unicode="&#x3b2;" horiz-adv-x="580" 
d="M599 198c-34 -126 -179 -213 -313 -213c-55 0 -104 15 -143 43l-11 -40c-19 -73 -45 -146 -83 -217h-107c42 79 78 160 100 241l126 470c37 138 173 255 309 255c115 0 199 -75 170 -184c-21 -79 -106 -135 -191 -159c95 -27 170 -95 143 -196zM495 202
c31 114 -81 171 -208 171v42c109 0 231 46 256 142c19 71 -2 138 -66 138c-105 0 -187 -119 -219 -237l-103 -386c34 -29 80 -45 131 -45c92 0 184 81 209 175z" />
    <glyph glyph-name="gamma" unicode="&#x3b3;" horiz-adv-x="599" 
d="M685 470c-36 -137 -144 -258 -256 -368l-65 -63l-28 -107c-23 -82 -49 -182 -107 -182c-83 0 -91 108 -14 201c5 6 57 57 110 109c41 169 62 329 -57 329c-56 0 -98 -66 -115 -130h-43c30 113 108 228 209 228c126 0 108 -177 63 -371l18 17c99 97 170 215 203 337h82z
M295 -57l10 39l-58 -58c-51 -62 -67 -132 -18 -132c26 0 49 86 66 151z" />
    <glyph glyph-name="delta" unicode="&#x3b4;" horiz-adv-x="516" 
d="M531 209c-32 -121 -152 -224 -272 -224c-124 0 -196 103 -162 229c28 106 147 165 268 180c-43 56 -74 122 -52 202c20 75 90 141 161 141c83 0 142 -55 128 -136l-79 15c8 42 -9 79 -49 79c-49 0 -83 -59 -99 -116c-15 -56 30 -109 68 -153c52 -62 111 -131 88 -217z
M428 214c15 54 -3 101 -31 140c-88 -11 -175 -65 -197 -145c-24 -89 -19 -182 59 -182c82 0 144 94 169 187z" />
    <glyph glyph-name="epsilon" unicode="&#x3b5;" horiz-adv-x="484" 
d="M468 89c-47 -62 -121 -101 -190 -101c-123 0 -224 65 -194 176c15 53 56 84 108 101c-30 23 -45 56 -32 103c21 78 121 115 210 115c62 0 115 -26 147 -71l-34 -25c-25 35 -66 54 -113 54c-52 0 -105 -45 -119 -98c-8 -29 3 -49 25 -61c38 4 77 5 115 5l-7 -67
c-37 0 -73 3 -106 10c-50 -15 -90 -44 -103 -90c-17 -65 34 -110 103 -110c57 0 118 33 156 84z" />
    <glyph glyph-name="zeta" unicode="&#x3b6;" horiz-adv-x="485" 
d="M429 -132c-17 -64 -82 -118 -146 -118c-40 0 -76 12 -104 33l26 34c20 -17 48 -25 78 -25c46 0 93 40 106 87c14 54 -12 100 -63 100c-147 0 -273 72 -237 204c48 180 149 365 288 437c-18 28 -22 63 -4 102h87c-12 -27 -16 -54 -12 -75c18 4 37 6 56 6
c45 0 91 -9 81 -48c-9 -34 -54 -37 -93 -37c-31 0 -58 7 -79 19c-115 -63 -177 -244 -221 -409c-24 -90 40 -157 134 -157c81 0 126 -70 103 -153z" />
    <glyph glyph-name="eta" unicode="&#x3b7;" horiz-adv-x="491" 
d="M334 -200h-88l134 499c6 23 15 56 15 70c0 23 -17 41 -40 41c-43 0 -96 -39 -139 -103c-36 -53 -48 -81 -74 -168l-41 -139h-87l102 344c6 22 9 35 9 44c0 22 -16 31 -57 31h-24l4 36l181 15l-29 -135c67 92 126 135 185 135c53 0 96 -44 96 -97c0 -23 -14 -75 -24 -113z
" />
    <glyph glyph-name="theta" unicode="&#x3b8;" horiz-adv-x="536" 
d="M591 356c-49 -183 -163 -371 -322 -371c-163 0 -183 190 -133 375s163 377 323 377c165 0 182 -193 132 -381zM493 379c39 149 79 316 -34 316c-123 0 -173 -165 -213 -316h247zM481 337h-247c-39 -147 -78 -310 35 -310c123 0 172 162 212 310z" />
    <glyph glyph-name="iota" unicode="&#x3b9;" horiz-adv-x="336" 
d="M327 112c-17 -62 -55 -127 -109 -127c-79 0 -124 65 -103 145l91 340h98l-98 -365c-10 -36 -19 -78 12 -78c39 0 56 51 68 96z" />
    <glyph glyph-name="kappa" unicode="&#x3ba;" horiz-adv-x="554" 
d="M545 118c-18 -70 -81 -133 -146 -133c-87 0 -126 82 -102 174c15 55 -38 73 -100 77l-63 -236h-94l126 470h94l-47 -175c35 18 69 51 100 81c55 55 118 109 185 109c55 0 88 -45 72 -99l-41 12c8 24 -6 45 -31 45c-57 0 -109 -50 -156 -97c-26 -26 -53 -51 -84 -72
c79 -9 153 -45 133 -120c-16 -58 -34 -127 8 -127c46 0 90 43 103 91h43z" />
    <glyph glyph-name="lambda" unicode="&#x3bb;" horiz-adv-x="592" 
d="M585 122c-18 -70 -68 -141 -131 -141c-48 0 -50 111 -51 193l-3 153l-242 -327h-118l357 481l-1 78c-1 47 -4 99 -49 99c-26 0 -36 -37 -44 -69l-41 11c19 70 66 141 127 141c46 0 48 -104 49 -181l7 -385c1 -52 2 -111 52 -111c28 0 39 37 48 69z" />
    <glyph glyph-name="mu.greek" unicode="&#x3bc;" horiz-adv-x="694" 
d="M684 112c-17 -64 -66 -127 -124 -127c-55 0 -99 24 -119 63c-41 -38 -92 -63 -143 -63c-59 0 -112 16 -144 46c-19 -95 -29 -189 -29 -281h-112c43 126 82 253 116 380l91 340h98l-98 -365c-13 -47 26 -78 78 -78c48 0 97 27 132 66c0 12 1 24 5 37l91 340h97l-97 -365
c-11 -39 -1 -78 34 -78c41 0 71 49 83 96z" />
    <glyph glyph-name="nu" unicode="&#x3bd;" horiz-adv-x="552" 
d="M591 291c-26 -95 -86 -189 -180 -236l-143 -72l-37 353c-4 37 54 107 1 107c-30 0 -42 -47 -53 -87h-43c16 61 44 129 96 129c57 0 77 -54 83 -109l32 -306l45 22c83 42 136 126 158 210c15 54 -16 95 -52 127l63 70c52 -46 51 -128 30 -208z" />
    <glyph glyph-name="xi" unicode="&#x3be;" horiz-adv-x="540" 
d="M484 -132c-15 -59 -55 -118 -107 -118c-32 0 -58 15 -71 40l37 20c6 -12 19 -18 34 -18c36 0 56 45 67 87c13 48 -121 66 -219 79c-97 13 -179 67 -154 160c23 86 95 141 186 173c-57 23 -89 63 -71 131c27 99 117 172 221 207c-15 26 -20 57 -10 93h83
c-8 -27 -7 -54 1 -75c22 4 44 6 66 6c61 0 133 0 120 -48c-10 -37 -77 -37 -131 -37c-34 0 -64 8 -88 22c-74 -32 -138 -96 -158 -172c-15 -56 18 -86 71 -101c47 8 95 11 141 11l-6 -67c-46 0 -93 1 -137 6c-88 -24 -163 -74 -184 -154c-15 -55 4 -106 55 -113
c126 -17 280 -38 254 -132z" />
    <glyph glyph-name="omicron" unicode="&#x3bf;" horiz-adv-x="500" 
d="M450 281c0 -74 -32 -154 -85 -214c-48 -54 -110 -82 -182 -82c-109 0 -178 73 -178 187c0 83 29 155 84 212c54 56 119 86 184 86c97 0 177 -85 177 -189zM308 122c27 55 47 135 47 187c0 77 -32 123 -87 123c-38 0 -70 -18 -98 -54c-41 -55 -75 -167 -75 -250
c0 -68 31 -105 89 -105c53 0 90 30 124 99z" />
    <glyph glyph-name="pi" unicode="&#x3c0;" horiz-adv-x="718" 
d="M786 402c-53 -17 -107 -28 -159 -31l-59 -222c-16 -61 -8 -122 45 -122l-11 -42c-93 0 -153 72 -128 164l60 223c-55 4 -108 14 -162 21l-47 -175c-35 -129 -142 -249 -261 -249v80c97 0 194 82 220 180l45 168c-16 2 -34 3 -51 3c-49 0 -98 -42 -112 -92l-40 11
c23 86 77 175 152 175c108 0 206 -32 314 -31c54 1 110 11 165 28z" />
    <glyph glyph-name="rho" unicode="&#x3c1;" horiz-adv-x="594" 
d="M616 230c-37 -136 -178 -245 -315 -245c-48 0 -92 11 -129 31c-6 -37 -13 -74 -23 -112c-14 -52 -33 -105 -64 -154h-112c37 58 69 117 85 179c28 103 21 203 48 305c38 139 179 251 317 251c143 0 231 -113 193 -255zM512 234c29 106 6 209 -89 209
c-98 0 -184 -105 -213 -213c-15 -57 -23 -113 -31 -169c33 -22 75 -34 122 -34c97 0 183 101 211 207z" />
    <glyph glyph-name="uni03C2" unicode="&#x3c2;" horiz-adv-x="477" 
d="M555 443l-62 -51c-20 24 -41 51 -75 51c-92 0 -184 -82 -210 -177c-18 -67 16 -120 64 -156c30 -23 65 -49 89 -71c30 -27 56 -61 44 -107c-11 -43 -55 -78 -97 -78c-44 0 -81 19 -101 52l36 22c13 -21 37 -32 65 -32c24 0 50 21 56 47c8 28 -12 48 -31 64
c-23 21 -57 47 -86 69c-73 55 -155 118 -129 215c31 118 172 194 300 194c53 0 108 -6 137 -42z" />
    <glyph glyph-name="sigma" unicode="&#x3c3;" horiz-adv-x="631" 
d="M722 488c-84 -35 -169 -48 -253 -53c45 -35 74 -91 74 -154c0 -74 -32 -154 -85 -214c-48 -54 -110 -82 -182 -82c-109 0 -178 73 -178 187c0 83 29 155 84 212c54 56 119 86 184 86c12 0 23 -1 35 -4c97 5 199 40 298 80zM401 122c27 55 47 135 47 187
c0 77 -32 123 -87 123c-38 0 -70 -18 -98 -54c-41 -55 -75 -167 -75 -250c0 -68 31 -105 89 -105c53 0 90 30 124 99z" />
    <glyph glyph-name="tau" unicode="&#x3c4;" horiz-adv-x="601" 
d="M670 404c-75 -35 -153 -50 -224 -44l-68 -255c-10 -36 -20 -78 12 -78c39 0 56 51 68 96l41 -11c-17 -62 -55 -127 -109 -127c-79 0 -124 65 -103 145l67 250c-35 9 -74 20 -76 20c-49 0 -98 -42 -112 -92l-40 11c23 86 77 175 152 175c16 0 88 -20 132 -32
c66 -18 145 -8 220 27z" />
    <glyph glyph-name="upsilon" unicode="&#x3c5;" horiz-adv-x="573" 
d="M599 245c-35 -134 -144 -260 -265 -260c-108 0 -186 72 -159 174c19 69 56 137 74 206c10 36 21 78 -7 78c-37 0 -52 -48 -64 -90h-43c17 64 51 132 107 132c77 0 119 -66 98 -145c-17 -62 -45 -123 -61 -186c-18 -64 -3 -127 55 -127c104 0 194 112 225 228
c19 72 -13 131 -53 179l73 60c51 -62 45 -157 20 -249z" />
    <glyph glyph-name="phi" unicode="&#x3c6;" horiz-adv-x="691" 
d="M713 233c-35 -130 -170 -223 -309 -244l-15 -64c-17 -60 -40 -121 -81 -175h-120c49 62 91 130 110 200l9 37c-141 15 -241 112 -204 250c28 105 125 189 230 245l20 -36c-81 -44 -124 -130 -146 -213c-27 -101 19 -188 110 -204c16 78 29 155 50 233
c30 115 124 223 229 223c116 0 151 -124 117 -252zM609 237c25 94 55 206 -13 206c-83 0 -113 -110 -139 -205c-18 -67 -29 -134 -43 -200c90 27 170 107 195 199z" />
    <glyph glyph-name="chi" unicode="&#x3c7;" horiz-adv-x="541" 
d="M513 -106c-18 -70 -51 -146 -112 -146c-69 0 -76 79 -83 149l-14 151c-82 -87 -155 -177 -183 -283h-98c39 143 158 258 272 374l-16 172c-4 41 -9 96 -36 96c-34 0 -60 -38 -71 -77l-40 11c18 70 51 146 111 146c62 0 71 -95 78 -172l13 -136c85 89 161 182 190 291h98
c-40 -146 -163 -263 -280 -382l18 -187c3 -34 7 -73 41 -73c35 0 61 38 72 77z" />
    <glyph glyph-name="psi" unicode="&#x3c8;" horiz-adv-x="648" 
d="M674 245c-37 -138 -164 -260 -295 -260h-1l-63 -235h-42l64 237c-107 12 -189 72 -162 172c19 69 56 137 74 206c10 36 21 78 -7 78c-37 0 -52 -48 -64 -90h-43c17 64 51 132 107 132c77 0 119 -66 98 -145c-17 -62 -45 -123 -61 -186c-17 -61 15 -110 69 -124l55 205
c44 163 79 325 105 487h94c-61 -162 -113 -324 -157 -487l-56 -208c110 7 213 112 245 228c19 72 -13 131 -53 179l73 60c51 -62 45 -157 20 -249z" />
    <glyph glyph-name="omega" unicode="&#x3c9;" horiz-adv-x="744" 
d="M765 226c-34 -126 -144 -241 -262 -241c-68 0 -100 41 -111 102c-37 -59 -87 -102 -147 -102c-127 0 -174 128 -138 265c25 93 106 170 189 236l26 -32c-73 -59 -102 -146 -124 -228c-25 -96 -35 -199 47 -199c67 0 114 69 145 144c3 48 14 101 28 153l77 -21
c-33 -124 -74 -276 8 -276c92 0 143 116 171 223c20 75 34 154 -3 208l34 24c50 -71 87 -157 60 -256z" />
    </font>
</defs>
</svg>
